<?xml version="1.0" encoding="utf-8" standalone="no"?>
<!DOCTYPE svg PUBLIC "-//W3C//DTD SVG 1.1//EN"
  "http://www.w3.org/Graphics/SVG/1.1/DTD/svg11.dtd">
<svg xmlns:xlink="http://www.w3.org/1999/xlink" width="1717.72625pt" height="277.531937pt" viewBox="0 0 1717.72625 277.531937" xmlns="http://www.w3.org/2000/svg" version="1.1">
 <metadata>
  <rdf:RDF xmlns:dc="http://purl.org/dc/elements/1.1/" xmlns:cc="http://creativecommons.org/ns#" xmlns:rdf="http://www.w3.org/1999/02/22-rdf-syntax-ns#">
   <cc:Work>
    <dc:type rdf:resource="http://purl.org/dc/dcmitype/StillImage"/>
    <dc:date>2023-06-06T15:36:17.980305</dc:date>
    <dc:format>image/svg+xml</dc:format>
    <dc:creator>
     <cc:Agent>
      <dc:title>Matplotlib v3.7.1, https://matplotlib.org/</dc:title>
     </cc:Agent>
    </dc:creator>
   </cc:Work>
  </rdf:RDF>
 </metadata>
 <defs>
  <style type="text/css">*{stroke-linejoin: round; stroke-linecap: butt}</style>
 </defs>
 <g id="figure_1">
  <g id="patch_1">
   <path d="M -0 277.531937 
L 1717.72625 277.531937 
L 1717.72625 0 
L -0 0 
z
" style="fill: #ffffff"/>
  </g>
  <g id="axes_1">
   <g id="patch_2">
    <path d="M 43.803125 242.456 
L 1635.923125 242.456 
L 1635.923125 36.32 
L 43.803125 36.32 
z
" style="fill: #ffffff"/>
   </g>
   <g id="patch_3">
    <path d="M 116.172216 242.456 
L 214.299797 242.456 
L 214.299797 209.809762 
L 116.172216 209.809762 
z
" clip-path="url(#pd4c4b9e701)" style="fill: #1f77b4"/>
   </g>
   <g id="patch_4">
    <path d="M 238.831692 242.456 
L 336.959273 242.456 
L 336.959273 207.684226 
L 238.831692 207.684226 
z
" clip-path="url(#pd4c4b9e701)" style="fill: #1f77b4"/>
   </g>
   <g id="patch_5">
    <path d="M 361.491168 242.456 
L 459.618749 242.456 
L 459.618749 200.7448 
L 361.491168 200.7448 
z
" clip-path="url(#pd4c4b9e701)" style="fill: #1f77b4"/>
   </g>
   <g id="patch_6">
    <path d="M 484.150644 242.456 
L 582.278225 242.456 
L 582.278225 198.47571 
L 484.150644 198.47571 
z
" clip-path="url(#pd4c4b9e701)" style="fill: #1f77b4"/>
   </g>
   <g id="patch_7">
    <path d="M 606.81012 242.456 
L 704.937701 242.456 
L 704.937701 216.118238 
L 606.81012 216.118238 
z
" clip-path="url(#pd4c4b9e701)" style="fill: #1f77b4"/>
   </g>
   <g id="patch_8">
    <path d="M 729.469596 242.456 
L 827.597177 242.456 
L 827.597177 215.680496 
L 729.469596 215.680496 
z
" clip-path="url(#pd4c4b9e701)" style="fill: #1f77b4"/>
   </g>
   <g id="patch_9">
    <path d="M 852.129073 242.456 
L 950.256654 242.456 
L 950.256654 217.991663 
L 852.129073 217.991663 
z
" clip-path="url(#pd4c4b9e701)" style="fill: #1f77b4"/>
   </g>
   <g id="patch_10">
    <path d="M 974.788549 242.456 
L 1072.91613 242.456 
L 1072.91613 215.002697 
L 974.788549 215.002697 
z
" clip-path="url(#pd4c4b9e701)" style="fill: #1f77b4"/>
   </g>
   <g id="patch_11">
    <path d="M 1097.448025 242.456 
L 1195.575606 242.456 
L 1195.575606 214.648533 
L 1097.448025 214.648533 
z
" clip-path="url(#pd4c4b9e701)" style="fill: #1f77b4"/>
   </g>
   <g id="patch_12">
    <path d="M 1220.107501 242.456 
L 1318.235082 242.456 
L 1318.235082 210.866718 
L 1220.107501 210.866718 
z
" clip-path="url(#pd4c4b9e701)" style="fill: #1f77b4"/>
   </g>
   <g id="patch_13">
    <path d="M 1342.766977 242.456 
L 1440.894558 242.456 
L 1440.894558 221.360762 
L 1342.766977 221.360762 
z
" clip-path="url(#pd4c4b9e701)" style="fill: #1f77b4"/>
   </g>
   <g id="patch_14">
    <path d="M 1465.426453 242.456 
L 1563.554034 242.456 
L 1563.554034 221.010153 
L 1465.426453 221.010153 
z
" clip-path="url(#pd4c4b9e701)" style="fill: #1f77b4"/>
   </g>
   <g id="patch_15">
    <path d="M 116.172216 209.809762 
L 214.299797 209.809762 
L 214.299797 200.703582 
L 116.172216 200.703582 
z
" clip-path="url(#pd4c4b9e701)" style="fill: #ff7f0e"/>
   </g>
   <g id="patch_16">
    <path d="M 238.831692 207.684226 
L 336.959273 207.684226 
L 336.959273 197.520989 
L 238.831692 197.520989 
z
" clip-path="url(#pd4c4b9e701)" style="fill: #ff7f0e"/>
   </g>
   <g id="patch_17">
    <path d="M 361.491168 200.7448 
L 459.618749 200.7448 
L 459.618749 188.965179 
L 361.491168 188.965179 
z
" clip-path="url(#pd4c4b9e701)" style="fill: #ff7f0e"/>
   </g>
   <g id="patch_18">
    <path d="M 484.150644 198.47571 
L 582.278225 198.47571 
L 582.278225 185.419473 
L 484.150644 185.419473 
z
" clip-path="url(#pd4c4b9e701)" style="fill: #ff7f0e"/>
   </g>
   <g id="patch_19">
    <path d="M 606.81012 216.118238 
L 704.937701 216.118238 
L 704.937701 207.698209 
L 606.81012 207.698209 
z
" clip-path="url(#pd4c4b9e701)" style="fill: #ff7f0e"/>
   </g>
   <g id="patch_20">
    <path d="M 729.469596 215.680496 
L 827.597177 215.680496 
L 827.597177 205.801214 
L 729.469596 205.801214 
z
" clip-path="url(#pd4c4b9e701)" style="fill: #ff7f0e"/>
   </g>
   <g id="patch_21">
    <path d="M 852.129073 217.991663 
L 950.256654 217.991663 
L 950.256654 210.123592 
L 852.129073 210.123592 
z
" clip-path="url(#pd4c4b9e701)" style="fill: #ff7f0e"/>
   </g>
   <g id="patch_22">
    <path d="M 974.788549 215.002697 
L 1072.91613 215.002697 
L 1072.91613 206.152628 
L 974.788549 206.152628 
z
" clip-path="url(#pd4c4b9e701)" style="fill: #ff7f0e"/>
   </g>
   <g id="patch_23">
    <path d="M 1097.448025 214.648533 
L 1195.575606 214.648533 
L 1195.575606 204.341365 
L 1097.448025 204.341365 
z
" clip-path="url(#pd4c4b9e701)" style="fill: #ff7f0e"/>
   </g>
   <g id="patch_24">
    <path d="M 1220.107501 210.866718 
L 1318.235082 210.866718 
L 1318.235082 199.307964 
L 1220.107501 199.307964 
z
" clip-path="url(#pd4c4b9e701)" style="fill: #ff7f0e"/>
   </g>
   <g id="patch_25">
    <path d="M 1342.766977 221.360762 
L 1440.894558 221.360762 
L 1440.894558 214.000009 
L 1342.766977 214.000009 
z
" clip-path="url(#pd4c4b9e701)" style="fill: #ff7f0e"/>
   </g>
   <g id="patch_26">
    <path d="M 1465.426453 221.010153 
L 1563.554034 221.010153 
L 1563.554034 211.869817 
L 1465.426453 211.869817 
z
" clip-path="url(#pd4c4b9e701)" style="fill: #ff7f0e"/>
   </g>
   <g id="patch_27">
    <path d="M 116.172216 200.703582 
L 214.299797 200.703582 
L 214.299797 193.659251 
L 116.172216 193.659251 
z
" clip-path="url(#pd4c4b9e701)" style="fill: #2ca02c"/>
   </g>
   <g id="patch_28">
    <path d="M 238.831692 197.520989 
L 336.959273 197.520989 
L 336.959273 189.693037 
L 238.831692 189.693037 
z
" clip-path="url(#pd4c4b9e701)" style="fill: #2ca02c"/>
   </g>
   <g id="patch_29">
    <path d="M 361.491168 188.965179 
L 459.618749 188.965179 
L 459.618749 179.787222 
L 361.491168 179.787222 
z
" clip-path="url(#pd4c4b9e701)" style="fill: #2ca02c"/>
   </g>
   <g id="patch_30">
    <path d="M 484.150644 185.419473 
L 582.278225 185.419473 
L 582.278225 175.358642 
L 484.150644 175.358642 
z
" clip-path="url(#pd4c4b9e701)" style="fill: #2ca02c"/>
   </g>
   <g id="patch_31">
    <path d="M 606.81012 207.698209 
L 704.937701 207.698209 
L 704.937701 201.368633 
L 606.81012 201.368633 
z
" clip-path="url(#pd4c4b9e701)" style="fill: #2ca02c"/>
   </g>
   <g id="patch_32">
    <path d="M 729.469596 205.801214 
L 827.597177 205.801214 
L 827.597177 198.579642 
L 729.469596 198.579642 
z
" clip-path="url(#pd4c4b9e701)" style="fill: #2ca02c"/>
   </g>
   <g id="patch_33">
    <path d="M 852.129073 210.123592 
L 950.256654 210.123592 
L 950.256654 205.453317 
L 852.129073 205.453317 
z
" clip-path="url(#pd4c4b9e701)" style="fill: #2ca02c"/>
   </g>
   <g id="patch_34">
    <path d="M 974.788549 206.152628 
L 1072.91613 206.152628 
L 1072.91613 200.902876 
L 974.788549 200.902876 
z
" clip-path="url(#pd4c4b9e701)" style="fill: #2ca02c"/>
   </g>
   <g id="patch_35">
    <path d="M 1097.448025 204.341365 
L 1195.575606 204.341365 
L 1195.575606 198.521197 
L 1097.448025 198.521197 
z
" clip-path="url(#pd4c4b9e701)" style="fill: #2ca02c"/>
   </g>
   <g id="patch_36">
    <path d="M 1220.107501 199.307964 
L 1318.235082 199.307964 
L 1318.235082 192.757142 
L 1220.107501 192.757142 
z
" clip-path="url(#pd4c4b9e701)" style="fill: #2ca02c"/>
   </g>
   <g id="patch_37">
    <path d="M 1342.766977 214.000009 
L 1440.894558 214.000009 
L 1440.894558 209.529385 
L 1342.766977 209.529385 
z
" clip-path="url(#pd4c4b9e701)" style="fill: #2ca02c"/>
   </g>
   <g id="patch_38">
    <path d="M 1465.426453 211.869817 
L 1563.554034 211.869817 
L 1563.554034 206.318346 
L 1465.426453 206.318346 
z
" clip-path="url(#pd4c4b9e701)" style="fill: #2ca02c"/>
   </g>
   <g id="patch_39">
    <path d="M 116.172216 193.659251 
L 214.299797 193.659251 
L 214.299797 189.582393 
L 116.172216 189.582393 
z
" clip-path="url(#pd4c4b9e701)" style="fill: #d62728"/>
   </g>
   <g id="patch_40">
    <path d="M 238.831692 189.693037 
L 336.959273 189.693037 
L 336.959273 185.110106 
L 238.831692 185.110106 
z
" clip-path="url(#pd4c4b9e701)" style="fill: #d62728"/>
   </g>
   <g id="patch_41">
    <path d="M 361.491168 179.787222 
L 459.618749 179.787222 
L 459.618749 174.683383 
L 361.491168 174.683383 
z
" clip-path="url(#pd4c4b9e701)" style="fill: #d62728"/>
   </g>
   <g id="patch_42">
    <path d="M 484.150644 175.358642 
L 582.278225 175.358642 
L 582.278225 169.612097 
L 484.150644 169.612097 
z
" clip-path="url(#pd4c4b9e701)" style="fill: #d62728"/>
   </g>
   <g id="patch_43">
    <path d="M 606.81012 201.368633 
L 704.937701 201.368633 
L 704.937701 197.5678 
L 606.81012 197.5678 
z
" clip-path="url(#pd4c4b9e701)" style="fill: #d62728"/>
   </g>
   <g id="patch_44">
    <path d="M 729.469596 198.579642 
L 827.597177 198.579642 
L 827.597177 194.019998 
L 729.469596 194.019998 
z
" clip-path="url(#pd4c4b9e701)" style="fill: #d62728"/>
   </g>
   <g id="patch_45">
    <path d="M 852.129073 205.453317 
L 950.256654 205.453317 
L 950.256654 201.448774 
L 852.129073 201.448774 
z
" clip-path="url(#pd4c4b9e701)" style="fill: #d62728"/>
   </g>
   <g id="patch_46">
    <path d="M 974.788549 200.902876 
L 1072.91613 200.902876 
L 1072.91613 196.398559 
L 974.788549 196.398559 
z
" clip-path="url(#pd4c4b9e701)" style="fill: #d62728"/>
   </g>
   <g id="patch_47">
    <path d="M 1097.448025 198.521197 
L 1195.575606 198.521197 
L 1195.575606 193.417358 
L 1097.448025 193.417358 
z
" clip-path="url(#pd4c4b9e701)" style="fill: #d62728"/>
   </g>
   <g id="patch_48">
    <path d="M 1220.107501 192.757142 
L 1318.235082 192.757142 
L 1318.235082 187.010597 
L 1220.107501 187.010597 
z
" clip-path="url(#pd4c4b9e701)" style="fill: #d62728"/>
   </g>
   <g id="patch_49">
    <path d="M 1342.766977 209.529385 
L 1440.894558 209.529385 
L 1440.894558 205.780087 
L 1342.766977 205.780087 
z
" clip-path="url(#pd4c4b9e701)" style="fill: #d62728"/>
   </g>
   <g id="patch_50">
    <path d="M 1465.426453 206.318346 
L 1563.554034 206.318346 
L 1563.554034 201.662593 
L 1465.426453 201.662593 
z
" clip-path="url(#pd4c4b9e701)" style="fill: #d62728"/>
   </g>
   <g id="patch_51">
    <path d="M 116.172216 189.582393 
L 214.299797 189.582393 
L 214.299797 185.236607 
L 116.172216 185.236607 
z
" clip-path="url(#pd4c4b9e701)" style="fill: #9467bd"/>
   </g>
   <g id="patch_52">
    <path d="M 238.831692 185.110106 
L 336.959273 185.110106 
L 336.959273 180.241912 
L 238.831692 180.241912 
z
" clip-path="url(#pd4c4b9e701)" style="fill: #9467bd"/>
   </g>
   <g id="patch_53">
    <path d="M 361.491168 174.683383 
L 459.618749 174.683383 
L 459.618749 169.310921 
L 361.491168 169.310921 
z
" clip-path="url(#pd4c4b9e701)" style="fill: #9467bd"/>
   </g>
   <g id="patch_54">
    <path d="M 484.150644 169.612097 
L 582.278225 169.612097 
L 582.278225 163.600312 
L 484.150644 163.600312 
z
" clip-path="url(#pd4c4b9e701)" style="fill: #9467bd"/>
   </g>
   <g id="patch_55">
    <path d="M 606.81012 197.5678 
L 704.937701 197.5678 
L 704.937701 193.561699 
L 606.81012 193.561699 
z
" clip-path="url(#pd4c4b9e701)" style="fill: #9467bd"/>
   </g>
   <g id="patch_56">
    <path d="M 729.469596 194.019998 
L 827.597177 194.019998 
L 827.597177 189.302078 
L 729.469596 189.302078 
z
" clip-path="url(#pd4c4b9e701)" style="fill: #9467bd"/>
   </g>
   <g id="patch_57">
    <path d="M 852.129073 201.448774 
L 950.256654 201.448774 
L 950.256654 198.403344 
L 852.129073 198.403344 
z
" clip-path="url(#pd4c4b9e701)" style="fill: #9467bd"/>
   </g>
   <g id="patch_58">
    <path d="M 974.788549 196.398559 
L 1072.91613 196.398559 
L 1072.91613 192.974918 
L 974.788549 192.974918 
z
" clip-path="url(#pd4c4b9e701)" style="fill: #9467bd"/>
   </g>
   <g id="patch_59">
    <path d="M 1097.448025 193.417358 
L 1195.575606 193.417358 
L 1195.575606 189.656634 
L 1097.448025 189.656634 
z
" clip-path="url(#pd4c4b9e701)" style="fill: #9467bd"/>
   </g>
   <g id="patch_60">
    <path d="M 1220.107501 187.010597 
L 1318.235082 187.010597 
L 1318.235082 182.774948 
L 1220.107501 182.774948 
z
" clip-path="url(#pd4c4b9e701)" style="fill: #9467bd"/>
   </g>
   <g id="patch_61">
    <path d="M 1342.766977 205.780087 
L 1440.894558 205.780087 
L 1440.894558 202.859126 
L 1342.766977 202.859126 
z
" clip-path="url(#pd4c4b9e701)" style="fill: #9467bd"/>
   </g>
   <g id="patch_62">
    <path d="M 1465.426453 201.662593 
L 1563.554034 201.662593 
L 1563.554034 198.035442 
L 1465.426453 198.035442 
z
" clip-path="url(#pd4c4b9e701)" style="fill: #9467bd"/>
   </g>
   <g id="patch_63">
    <path d="M 116.172216 185.236607 
L 214.299797 185.236607 
L 214.299797 180.806 
L 116.172216 180.806 
z
" clip-path="url(#pd4c4b9e701)" style="fill: #8c564b"/>
   </g>
   <g id="patch_64">
    <path d="M 238.831692 180.241912 
L 336.959273 180.241912 
L 336.959273 175.288124 
L 238.831692 175.288124 
z
" clip-path="url(#pd4c4b9e701)" style="fill: #8c564b"/>
   </g>
   <g id="patch_65">
    <path d="M 361.491168 169.310921 
L 459.618749 169.310921 
L 459.618749 163.739478 
L 361.491168 163.739478 
z
" clip-path="url(#pd4c4b9e701)" style="fill: #8c564b"/>
   </g>
   <g id="patch_66">
    <path d="M 484.150644 163.600312 
L 582.278225 163.600312 
L 582.278225 157.422696 
L 484.150644 157.422696 
z
" clip-path="url(#pd4c4b9e701)" style="fill: #8c564b"/>
   </g>
   <g id="patch_67">
    <path d="M 606.81012 193.561699 
L 704.937701 193.561699 
L 704.937701 189.5165 
L 606.81012 189.5165 
z
" clip-path="url(#pd4c4b9e701)" style="fill: #8c564b"/>
   </g>
   <g id="patch_68">
    <path d="M 729.469596 189.302078 
L 827.597177 189.302078 
L 827.597177 184.593206 
L 729.469596 184.593206 
z
" clip-path="url(#pd4c4b9e701)" style="fill: #8c564b"/>
   </g>
   <g id="patch_69">
    <path d="M 852.129073 198.403344 
L 950.256654 198.403344 
L 950.256654 195.828066 
L 852.129073 195.828066 
z
" clip-path="url(#pd4c4b9e701)" style="fill: #8c564b"/>
   </g>
   <g id="patch_70">
    <path d="M 974.788549 192.974918 
L 1072.91613 192.974918 
L 1072.91613 190.080569 
L 974.788549 190.080569 
z
" clip-path="url(#pd4c4b9e701)" style="fill: #8c564b"/>
   </g>
   <g id="patch_71">
    <path d="M 1097.448025 189.656634 
L 1195.575606 189.656634 
L 1195.575606 186.313769 
L 1097.448025 186.313769 
z
" clip-path="url(#pd4c4b9e701)" style="fill: #8c564b"/>
   </g>
   <g id="patch_72">
    <path d="M 1220.107501 182.774948 
L 1318.235082 182.774948 
L 1318.235082 179.053224 
L 1220.107501 179.053224 
z
" clip-path="url(#pd4c4b9e701)" style="fill: #8c564b"/>
   </g>
   <g id="patch_73">
    <path d="M 1342.766977 202.859126 
L 1440.894558 202.859126 
L 1440.894558 200.407117 
L 1342.766977 200.407117 
z
" clip-path="url(#pd4c4b9e701)" style="fill: #8c564b"/>
   </g>
   <g id="patch_74">
    <path d="M 1465.426453 198.035442 
L 1563.554034 198.035442 
L 1563.554034 194.99062 
L 1465.426453 194.99062 
z
" clip-path="url(#pd4c4b9e701)" style="fill: #8c564b"/>
   </g>
   <g id="patch_75">
    <path d="M 116.172216 180.806 
L 214.299797 180.806 
L 214.299797 177.204841 
L 116.172216 177.204841 
z
" clip-path="url(#pd4c4b9e701)" style="fill: #e377c2"/>
   </g>
   <g id="patch_76">
    <path d="M 238.831692 175.288124 
L 336.959273 175.288124 
L 336.959273 171.257365 
L 238.831692 171.257365 
z
" clip-path="url(#pd4c4b9e701)" style="fill: #e377c2"/>
   </g>
   <g id="patch_77">
    <path d="M 361.491168 163.739478 
L 459.618749 163.739478 
L 459.618749 159.113191 
L 361.491168 159.113191 
z
" clip-path="url(#pd4c4b9e701)" style="fill: #e377c2"/>
   </g>
   <g id="patch_78">
    <path d="M 484.150644 157.422696 
L 582.278225 157.422696 
L 582.278225 152.268714 
L 484.150644 152.268714 
z
" clip-path="url(#pd4c4b9e701)" style="fill: #e377c2"/>
   </g>
   <g id="patch_79">
    <path d="M 606.81012 189.5165 
L 704.937701 189.5165 
L 704.937701 186.195068 
L 606.81012 186.195068 
z
" clip-path="url(#pd4c4b9e701)" style="fill: #e377c2"/>
   </g>
   <g id="patch_80">
    <path d="M 729.469596 184.593206 
L 827.597177 184.593206 
L 827.597177 180.637831 
L 729.469596 180.637831 
z
" clip-path="url(#pd4c4b9e701)" style="fill: #e377c2"/>
   </g>
   <g id="patch_81">
    <path d="M 852.129073 195.828066 
L 950.256654 195.828066 
L 950.256654 192.655753 
L 852.129073 192.655753 
z
" clip-path="url(#pd4c4b9e701)" style="fill: #e377c2"/>
   </g>
   <g id="patch_82">
    <path d="M 974.788549 190.080569 
L 1072.91613 190.080569 
L 1072.91613 186.512339 
L 974.788549 186.512339 
z
" clip-path="url(#pd4c4b9e701)" style="fill: #e377c2"/>
   </g>
   <g id="patch_83">
    <path d="M 1097.448025 186.313769 
L 1195.575606 186.313769 
L 1195.575606 182.284422 
L 1097.448025 182.284422 
z
" clip-path="url(#pd4c4b9e701)" style="fill: #e377c2"/>
   </g>
   <g id="patch_84">
    <path d="M 1220.107501 179.053224 
L 1318.235082 179.053224 
L 1318.235082 174.516478 
L 1220.107501 174.516478 
z
" clip-path="url(#pd4c4b9e701)" style="fill: #e377c2"/>
   </g>
   <g id="patch_85">
    <path d="M 1342.766977 200.407117 
L 1440.894558 200.407117 
L 1440.894558 197.4379 
L 1342.766977 197.4379 
z
" clip-path="url(#pd4c4b9e701)" style="fill: #e377c2"/>
   </g>
   <g id="patch_86">
    <path d="M 1465.426453 194.99062 
L 1563.554034 194.99062 
L 1563.554034 191.303546 
L 1465.426453 191.303546 
z
" clip-path="url(#pd4c4b9e701)" style="fill: #e377c2"/>
   </g>
   <g id="patch_87">
    <path d="M 116.172216 177.204841 
L 214.299797 177.204841 
L 214.299797 173.907916 
L 116.172216 173.907916 
z
" clip-path="url(#pd4c4b9e701)" style="fill: #7f7f7f"/>
   </g>
   <g id="patch_88">
    <path d="M 238.831692 171.257365 
L 336.959273 171.257365 
L 336.959273 167.553414 
L 238.831692 167.553414 
z
" clip-path="url(#pd4c4b9e701)" style="fill: #7f7f7f"/>
   </g>
   <g id="patch_89">
    <path d="M 361.491168 159.113191 
L 459.618749 159.113191 
L 459.618749 154.994304 
L 361.491168 154.994304 
z
" clip-path="url(#pd4c4b9e701)" style="fill: #7f7f7f"/>
   </g>
   <g id="patch_90">
    <path d="M 484.150644 152.268714 
L 582.278225 152.268714 
L 582.278225 147.667459 
L 484.150644 147.667459 
z
" clip-path="url(#pd4c4b9e701)" style="fill: #7f7f7f"/>
   </g>
   <g id="patch_91">
    <path d="M 606.81012 186.195068 
L 704.937701 186.195068 
L 704.937701 183.138561 
L 606.81012 183.138561 
z
" clip-path="url(#pd4c4b9e701)" style="fill: #7f7f7f"/>
   </g>
   <g id="patch_92">
    <path d="M 729.469596 180.637831 
L 827.597177 180.637831 
L 827.597177 177.039554 
L 729.469596 177.039554 
z
" clip-path="url(#pd4c4b9e701)" style="fill: #7f7f7f"/>
   </g>
   <g id="patch_93">
    <path d="M 852.129073 192.655753 
L 950.256654 192.655753 
L 950.256654 190.217745 
L 852.129073 190.217745 
z
" clip-path="url(#pd4c4b9e701)" style="fill: #7f7f7f"/>
   </g>
   <g id="patch_94">
    <path d="M 974.788549 186.512339 
L 1072.91613 186.512339 
L 1072.91613 183.771756 
L 974.788549 183.771756 
z
" clip-path="url(#pd4c4b9e701)" style="fill: #7f7f7f"/>
   </g>
   <g id="patch_95">
    <path d="M 1097.448025 182.284422 
L 1195.575606 182.284422 
L 1195.575606 179.30967 
L 1097.448025 179.30967 
z
" clip-path="url(#pd4c4b9e701)" style="fill: #7f7f7f"/>
   </g>
   <g id="patch_96">
    <path d="M 1220.107501 174.516478 
L 1318.235082 174.516478 
L 1318.235082 171.16828 
L 1220.107501 171.16828 
z
" clip-path="url(#pd4c4b9e701)" style="fill: #7f7f7f"/>
   </g>
   <g id="patch_97">
    <path d="M 1342.766977 197.4379 
L 1440.894558 197.4379 
L 1440.894558 195.10265 
L 1342.766977 195.10265 
z
" clip-path="url(#pd4c4b9e701)" style="fill: #7f7f7f"/>
   </g>
   <g id="patch_98">
    <path d="M 1465.426453 191.303546 
L 1563.554034 191.303546 
L 1563.554034 188.403711 
L 1465.426453 188.403711 
z
" clip-path="url(#pd4c4b9e701)" style="fill: #7f7f7f"/>
   </g>
   <g id="patch_99">
    <path d="M 116.172216 173.907916 
L 214.299797 173.907916 
L 214.299797 170.487499 
L 116.172216 170.487499 
z
" clip-path="url(#pd4c4b9e701)" style="fill: #bcbd22"/>
   </g>
   <g id="patch_100">
    <path d="M 238.831692 167.553414 
L 336.959273 167.553414 
L 336.959273 163.709968 
L 238.831692 163.709968 
z
" clip-path="url(#pd4c4b9e701)" style="fill: #bcbd22"/>
   </g>
   <g id="patch_101">
    <path d="M 361.491168 154.994304 
L 459.618749 154.994304 
L 459.618749 150.765977 
L 361.491168 150.765977 
z
" clip-path="url(#pd4c4b9e701)" style="fill: #bcbd22"/>
   </g>
   <g id="patch_102">
    <path d="M 484.150644 147.667459 
L 582.278225 147.667459 
L 582.278225 142.921585 
L 484.150644 142.921585 
z
" clip-path="url(#pd4c4b9e701)" style="fill: #bcbd22"/>
   </g>
   <g id="patch_103">
    <path d="M 606.81012 183.138561 
L 704.937701 183.138561 
L 704.937701 179.948996 
L 606.81012 179.948996 
z
" clip-path="url(#pd4c4b9e701)" style="fill: #bcbd22"/>
   </g>
   <g id="patch_104">
    <path d="M 729.469596 177.039554 
L 827.597177 177.039554 
L 827.597177 173.224609 
L 729.469596 173.224609 
z
" clip-path="url(#pd4c4b9e701)" style="fill: #bcbd22"/>
   </g>
   <g id="patch_105">
    <path d="M 852.129073 190.217745 
L 950.256654 190.217745 
L 950.256654 188.236869 
L 852.129073 188.236869 
z
" clip-path="url(#pd4c4b9e701)" style="fill: #bcbd22"/>
   </g>
   <g id="patch_106">
    <path d="M 974.788549 183.771756 
L 1072.91613 183.771756 
L 1072.91613 181.544794 
L 974.788549 181.544794 
z
" clip-path="url(#pd4c4b9e701)" style="fill: #bcbd22"/>
   </g>
   <g id="patch_107">
    <path d="M 1097.448025 179.30967 
L 1195.575606 179.30967 
L 1195.575606 176.772674 
L 1097.448025 176.772674 
z
" clip-path="url(#pd4c4b9e701)" style="fill: #bcbd22"/>
   </g>
   <g id="patch_108">
    <path d="M 1220.107501 171.16828 
L 1318.235082 171.16828 
L 1318.235082 168.332257 
L 1220.107501 168.332257 
z
" clip-path="url(#pd4c4b9e701)" style="fill: #bcbd22"/>
   </g>
   <g id="patch_109">
    <path d="M 1342.766977 195.10265 
L 1440.894558 195.10265 
L 1440.894558 193.201972 
L 1342.766977 193.201972 
z
" clip-path="url(#pd4c4b9e701)" style="fill: #bcbd22"/>
   </g>
   <g id="patch_110">
    <path d="M 1465.426453 188.403711 
L 1563.554034 188.403711 
L 1563.554034 186.043512 
L 1465.426453 186.043512 
z
" clip-path="url(#pd4c4b9e701)" style="fill: #bcbd22"/>
   </g>
   <g id="patch_111">
    <path d="M 116.172216 170.487499 
L 214.299797 170.487499 
L 214.299797 167.617076 
L 116.172216 167.617076 
z
" clip-path="url(#pd4c4b9e701)" style="fill: #17becf"/>
   </g>
   <g id="patch_112">
    <path d="M 238.831692 163.709968 
L 336.959273 163.709968 
L 336.959273 160.485166 
L 238.831692 160.485166 
z
" clip-path="url(#pd4c4b9e701)" style="fill: #17becf"/>
   </g>
   <g id="patch_113">
    <path d="M 361.491168 150.765977 
L 459.618749 150.765977 
L 459.618749 147.184335 
L 361.491168 147.184335 
z
" clip-path="url(#pd4c4b9e701)" style="fill: #17becf"/>
   </g>
   <g id="patch_114">
    <path d="M 484.150644 142.921585 
L 582.278225 142.921585 
L 582.278225 138.920493 
L 484.150644 138.920493 
z
" clip-path="url(#pd4c4b9e701)" style="fill: #17becf"/>
   </g>
   <g id="patch_115">
    <path d="M 606.81012 179.948996 
L 704.937701 179.948996 
L 704.937701 177.287642 
L 606.81012 177.287642 
z
" clip-path="url(#pd4c4b9e701)" style="fill: #17becf"/>
   </g>
   <g id="patch_116">
    <path d="M 729.469596 173.224609 
L 827.597177 173.224609 
L 827.597177 170.0913 
L 729.469596 170.0913 
z
" clip-path="url(#pd4c4b9e701)" style="fill: #17becf"/>
   </g>
   <g id="patch_117">
    <path d="M 852.129073 188.236869 
L 950.256654 188.236869 
L 950.256654 186.058836 
L 852.129073 186.058836 
z
" clip-path="url(#pd4c4b9e701)" style="fill: #17becf"/>
   </g>
   <g id="patch_118">
    <path d="M 974.788549 181.544794 
L 1072.91613 181.544794 
L 1072.91613 179.096371 
L 974.788549 179.096371 
z
" clip-path="url(#pd4c4b9e701)" style="fill: #17becf"/>
   </g>
   <g id="patch_119">
    <path d="M 1097.448025 176.772674 
L 1195.575606 176.772674 
L 1195.575606 173.986953 
L 1097.448025 173.986953 
z
" clip-path="url(#pd4c4b9e701)" style="fill: #17becf"/>
   </g>
   <g id="patch_120">
    <path d="M 1220.107501 168.332257 
L 1318.235082 168.332257 
L 1318.235082 165.2218 
L 1220.107501 165.2218 
z
" clip-path="url(#pd4c4b9e701)" style="fill: #17becf"/>
   </g>
   <g id="patch_121">
    <path d="M 1342.766977 193.201972 
L 1440.894558 193.201972 
L 1440.894558 191.114336 
L 1342.766977 191.114336 
z
" clip-path="url(#pd4c4b9e701)" style="fill: #17becf"/>
   </g>
   <g id="patch_122">
    <path d="M 1465.426453 186.043512 
L 1563.554034 186.043512 
L 1563.554034 183.451157 
L 1465.426453 183.451157 
z
" clip-path="url(#pd4c4b9e701)" style="fill: #17becf"/>
   </g>
   <g id="patch_123">
    <path d="M 116.172216 167.617076 
L 214.299797 167.617076 
L 214.299797 164.931985 
L 116.172216 164.931985 
z
" clip-path="url(#pd4c4b9e701)" style="fill: #1f77b4"/>
   </g>
   <g id="patch_124">
    <path d="M 238.831692 160.485166 
L 336.959273 160.485166 
L 336.959273 157.501706 
L 238.831692 157.501706 
z
" clip-path="url(#pd4c4b9e701)" style="fill: #1f77b4"/>
   </g>
   <g id="patch_125">
    <path d="M 361.491168 147.184335 
L 459.618749 147.184335 
L 459.618749 143.84147 
L 361.491168 143.84147 
z
" clip-path="url(#pd4c4b9e701)" style="fill: #1f77b4"/>
   </g>
   <g id="patch_126">
    <path d="M 484.150644 138.920493 
L 582.278225 138.920493 
L 582.278225 135.220419 
L 484.150644 135.220419 
z
" clip-path="url(#pd4c4b9e701)" style="fill: #1f77b4"/>
   </g>
   <g id="patch_127">
    <path d="M 606.81012 177.287642 
L 704.937701 177.287642 
L 704.937701 174.850029 
L 606.81012 174.850029 
z
" clip-path="url(#pd4c4b9e701)" style="fill: #1f77b4"/>
   </g>
   <g id="patch_128">
    <path d="M 729.469596 170.0913 
L 827.597177 170.0913 
L 827.597177 167.208858 
L 729.469596 167.208858 
z
" clip-path="url(#pd4c4b9e701)" style="fill: #1f77b4"/>
   </g>
   <g id="patch_129">
    <path d="M 852.129073 186.058836 
L 950.256654 186.058836 
L 950.256654 184.140408 
L 852.129073 184.140408 
z
" clip-path="url(#pd4c4b9e701)" style="fill: #1f77b4"/>
   </g>
   <g id="patch_130">
    <path d="M 974.788549 179.096371 
L 1072.91613 179.096371 
L 1072.91613 176.940709 
L 974.788549 176.940709 
z
" clip-path="url(#pd4c4b9e701)" style="fill: #1f77b4"/>
   </g>
   <g id="patch_131">
    <path d="M 1097.448025 173.986953 
L 1195.575606 173.986953 
L 1195.575606 171.599192 
L 1097.448025 171.599192 
z
" clip-path="url(#pd4c4b9e701)" style="fill: #1f77b4"/>
   </g>
   <g id="patch_132">
    <path d="M 1220.107501 165.2218 
L 1318.235082 165.2218 
L 1318.235082 162.541777 
L 1220.107501 162.541777 
z
" clip-path="url(#pd4c4b9e701)" style="fill: #1f77b4"/>
   </g>
   <g id="patch_133">
    <path d="M 1342.766977 191.114336 
L 1440.894558 191.114336 
L 1440.894558 189.30643 
L 1342.766977 189.30643 
z
" clip-path="url(#pd4c4b9e701)" style="fill: #1f77b4"/>
   </g>
   <g id="patch_134">
    <path d="M 1465.426453 183.451157 
L 1563.554034 183.451157 
L 1563.554034 181.20616 
L 1465.426453 181.20616 
z
" clip-path="url(#pd4c4b9e701)" style="fill: #1f77b4"/>
   </g>
   <g id="patch_135">
    <path d="M 116.172216 164.931985 
L 214.299797 164.931985 
L 214.299797 162.338034 
L 116.172216 162.338034 
z
" clip-path="url(#pd4c4b9e701)" style="fill: #ff7f0e"/>
   </g>
   <g id="patch_136">
    <path d="M 238.831692 157.501706 
L 336.959273 157.501706 
L 336.959273 154.641446 
L 238.831692 154.641446 
z
" clip-path="url(#pd4c4b9e701)" style="fill: #ff7f0e"/>
   </g>
   <g id="patch_137">
    <path d="M 361.491168 143.84147 
L 459.618749 143.84147 
L 459.618749 140.578196 
L 361.491168 140.578196 
z
" clip-path="url(#pd4c4b9e701)" style="fill: #ff7f0e"/>
   </g>
   <g id="patch_138">
    <path d="M 484.150644 135.220419 
L 582.278225 135.220419 
L 582.278225 131.652029 
L 484.150644 131.652029 
z
" clip-path="url(#pd4c4b9e701)" style="fill: #ff7f0e"/>
   </g>
   <g id="patch_139">
    <path d="M 606.81012 174.850029 
L 704.937701 174.850029 
L 704.937701 172.564644 
L 606.81012 172.564644 
z
" clip-path="url(#pd4c4b9e701)" style="fill: #ff7f0e"/>
   </g>
   <g id="patch_140">
    <path d="M 729.469596 167.208858 
L 827.597177 167.208858 
L 827.597177 164.894375 
L 729.469596 164.894375 
z
" clip-path="url(#pd4c4b9e701)" style="fill: #ff7f0e"/>
   </g>
   <g id="patch_141">
    <path d="M 852.129073 184.140408 
L 950.256654 184.140408 
L 950.256654 182.036558 
L 852.129073 182.036558 
z
" clip-path="url(#pd4c4b9e701)" style="fill: #ff7f0e"/>
   </g>
   <g id="patch_142">
    <path d="M 974.788549 176.940709 
L 1072.91613 176.940709 
L 1072.91613 174.578806 
L 974.788549 174.578806 
z
" clip-path="url(#pd4c4b9e701)" style="fill: #ff7f0e"/>
   </g>
   <g id="patch_143">
    <path d="M 1097.448025 171.599192 
L 1195.575606 171.599192 
L 1195.575606 169.151737 
L 1097.448025 169.151737 
z
" clip-path="url(#pd4c4b9e701)" style="fill: #ff7f0e"/>
   </g>
   <g id="patch_144">
    <path d="M 1220.107501 162.541777 
L 1318.235082 162.541777 
L 1318.235082 159.761468 
L 1220.107501 159.761468 
z
" clip-path="url(#pd4c4b9e701)" style="fill: #ff7f0e"/>
   </g>
   <g id="patch_145">
    <path d="M 1342.766977 189.30643 
L 1440.894558 189.30643 
L 1440.894558 187.414864 
L 1342.766977 187.414864 
z
" clip-path="url(#pd4c4b9e701)" style="fill: #ff7f0e"/>
   </g>
   <g id="patch_146">
    <path d="M 1465.426453 181.20616 
L 1563.554034 181.20616 
L 1563.554034 179.283155 
L 1465.426453 179.283155 
z
" clip-path="url(#pd4c4b9e701)" style="fill: #ff7f0e"/>
   </g>
   <g id="patch_147">
    <path d="M 116.172216 162.338034 
L 214.299797 162.338034 
L 214.299797 160.02285 
L 116.172216 160.02285 
z
" clip-path="url(#pd4c4b9e701)" style="fill: #2ca02c"/>
   </g>
   <g id="patch_148">
    <path d="M 238.831692 154.641446 
L 336.959273 154.641446 
L 336.959273 152.040685 
L 238.831692 152.040685 
z
" clip-path="url(#pd4c4b9e701)" style="fill: #2ca02c"/>
   </g>
   <g id="patch_149">
    <path d="M 361.491168 140.578196 
L 459.618749 140.578196 
L 459.618749 137.702934 
L 361.491168 137.702934 
z
" clip-path="url(#pd4c4b9e701)" style="fill: #2ca02c"/>
   </g>
   <g id="patch_150">
    <path d="M 484.150644 131.652029 
L 582.278225 131.652029 
L 582.278225 128.431736 
L 484.150644 128.431736 
z
" clip-path="url(#pd4c4b9e701)" style="fill: #2ca02c"/>
   </g>
   <g id="patch_151">
    <path d="M 606.81012 172.564644 
L 704.937701 172.564644 
L 704.937701 170.424588 
L 606.81012 170.424588 
z
" clip-path="url(#pd4c4b9e701)" style="fill: #2ca02c"/>
   </g>
   <g id="patch_152">
    <path d="M 729.469596 164.894375 
L 827.597177 164.894375 
L 827.597177 162.386123 
L 729.469596 162.386123 
z
" clip-path="url(#pd4c4b9e701)" style="fill: #2ca02c"/>
   </g>
   <g id="patch_153">
    <path d="M 852.129073 182.036558 
L 950.256654 182.036558 
L 950.256654 180.192382 
L 852.129073 180.192382 
z
" clip-path="url(#pd4c4b9e701)" style="fill: #2ca02c"/>
   </g>
   <g id="patch_154">
    <path d="M 974.788549 174.578806 
L 1072.91613 174.578806 
L 1072.91613 172.505697 
L 974.788549 172.505697 
z
" clip-path="url(#pd4c4b9e701)" style="fill: #2ca02c"/>
   </g>
   <g id="patch_155">
    <path d="M 1097.448025 169.151737 
L 1195.575606 169.151737 
L 1195.575606 166.783874 
L 1097.448025 166.783874 
z
" clip-path="url(#pd4c4b9e701)" style="fill: #2ca02c"/>
   </g>
   <g id="patch_156">
    <path d="M 1220.107501 159.761468 
L 1318.235082 159.761468 
L 1318.235082 157.11758 
L 1220.107501 157.11758 
z
" clip-path="url(#pd4c4b9e701)" style="fill: #2ca02c"/>
   </g>
   <g id="patch_157">
    <path d="M 1342.766977 187.414864 
L 1440.894558 187.414864 
L 1440.894558 185.647384 
L 1342.766977 185.647384 
z
" clip-path="url(#pd4c4b9e701)" style="fill: #2ca02c"/>
   </g>
   <g id="patch_158">
    <path d="M 1465.426453 179.283155 
L 1563.554034 179.283155 
L 1563.554034 177.088357 
L 1465.426453 177.088357 
z
" clip-path="url(#pd4c4b9e701)" style="fill: #2ca02c"/>
   </g>
   <g id="patch_159">
    <path d="M 116.172216 160.02285 
L 214.299797 160.02285 
L 214.299797 157.807047 
L 116.172216 157.807047 
z
" clip-path="url(#pd4c4b9e701)" style="fill: #d62728"/>
   </g>
   <g id="patch_160">
    <path d="M 238.831692 152.040685 
L 336.959273 152.040685 
L 336.959273 149.578549 
L 238.831692 149.578549 
z
" clip-path="url(#pd4c4b9e701)" style="fill: #d62728"/>
   </g>
   <g id="patch_161">
    <path d="M 361.491168 137.702934 
L 459.618749 137.702934 
L 459.618749 134.917213 
L 361.491168 134.917213 
z
" clip-path="url(#pd4c4b9e701)" style="fill: #d62728"/>
   </g>
   <g id="patch_162">
    <path d="M 484.150644 128.431736 
L 582.278225 128.431736 
L 582.278225 125.361871 
L 484.150644 125.361871 
z
" clip-path="url(#pd4c4b9e701)" style="fill: #d62728"/>
   </g>
   <g id="patch_163">
    <path d="M 606.81012 170.424588 
L 704.937701 170.424588 
L 704.937701 168.435592 
L 606.81012 168.435592 
z
" clip-path="url(#pd4c4b9e701)" style="fill: #d62728"/>
   </g>
   <g id="patch_164">
    <path d="M 729.469596 162.386123 
L 827.597177 162.386123 
L 827.597177 160.09291 
L 729.469596 160.09291 
z
" clip-path="url(#pd4c4b9e701)" style="fill: #d62728"/>
   </g>
   <g id="patch_165">
    <path d="M 852.129073 180.192382 
L 950.256654 180.192382 
L 950.256654 178.492981 
L 852.129073 178.492981 
z
" clip-path="url(#pd4c4b9e701)" style="fill: #d62728"/>
   </g>
   <g id="patch_166">
    <path d="M 974.788549 172.505697 
L 1072.91613 172.505697 
L 1072.91613 170.595092 
L 974.788549 170.595092 
z
" clip-path="url(#pd4c4b9e701)" style="fill: #d62728"/>
   </g>
   <g id="patch_167">
    <path d="M 1097.448025 166.783874 
L 1195.575606 166.783874 
L 1195.575606 164.694583 
L 1097.448025 164.694583 
z
" clip-path="url(#pd4c4b9e701)" style="fill: #d62728"/>
   </g>
   <g id="patch_168">
    <path d="M 1220.107501 157.11758 
L 1318.235082 157.11758 
L 1318.235082 154.763089 
L 1220.107501 154.763089 
z
" clip-path="url(#pd4c4b9e701)" style="fill: #d62728"/>
   </g>
   <g id="patch_169">
    <path d="M 1342.766977 185.647384 
L 1440.894558 185.647384 
L 1440.894558 184.016421 
L 1342.766977 184.016421 
z
" clip-path="url(#pd4c4b9e701)" style="fill: #d62728"/>
   </g>
   <g id="patch_170">
    <path d="M 1465.426453 177.088357 
L 1563.554034 177.088357 
L 1563.554034 175.063083 
L 1465.426453 175.063083 
z
" clip-path="url(#pd4c4b9e701)" style="fill: #d62728"/>
   </g>
   <g id="patch_171">
    <path d="M 116.172216 157.807047 
L 214.299797 157.807047 
L 214.299797 155.911853 
L 116.172216 155.911853 
z
" clip-path="url(#pd4c4b9e701)" style="fill: #9467bd"/>
   </g>
   <g id="patch_172">
    <path d="M 238.831692 149.578549 
L 336.959273 149.578549 
L 336.959273 147.448155 
L 238.831692 147.448155 
z
" clip-path="url(#pd4c4b9e701)" style="fill: #9467bd"/>
   </g>
   <g id="patch_173">
    <path d="M 361.491168 134.917213 
L 459.618749 134.917213 
L 459.618749 132.529452 
L 361.491168 132.529452 
z
" clip-path="url(#pd4c4b9e701)" style="fill: #9467bd"/>
   </g>
   <g id="patch_174">
    <path d="M 484.150644 125.361871 
L 582.278225 125.361871 
L 582.278225 122.685907 
L 484.150644 122.685907 
z
" clip-path="url(#pd4c4b9e701)" style="fill: #9467bd"/>
   </g>
   <g id="patch_175">
    <path d="M 606.81012 168.435592 
L 704.937701 168.435592 
L 704.937701 166.650424 
L 606.81012 166.650424 
z
" clip-path="url(#pd4c4b9e701)" style="fill: #9467bd"/>
   </g>
   <g id="patch_176">
    <path d="M 729.469596 160.09291 
L 827.597177 160.09291 
L 827.597177 157.926707 
L 729.469596 157.926707 
z
" clip-path="url(#pd4c4b9e701)" style="fill: #9467bd"/>
   </g>
   <g id="patch_177">
    <path d="M 852.129073 178.492981 
L 950.256654 178.492981 
L 950.256654 176.781882 
L 852.129073 176.781882 
z
" clip-path="url(#pd4c4b9e701)" style="fill: #9467bd"/>
   </g>
   <g id="patch_178">
    <path d="M 974.788549 170.595092 
L 1072.91613 170.595092 
L 1072.91613 168.670117 
L 974.788549 168.670117 
z
" clip-path="url(#pd4c4b9e701)" style="fill: #9467bd"/>
   </g>
   <g id="patch_179">
    <path d="M 1097.448025 164.694583 
L 1195.575606 164.694583 
L 1195.575606 162.42621 
L 1097.448025 162.42621 
z
" clip-path="url(#pd4c4b9e701)" style="fill: #9467bd"/>
   </g>
   <g id="patch_180">
    <path d="M 1220.107501 154.763089 
L 1318.235082 154.763089 
L 1318.235082 152.218691 
L 1220.107501 152.218691 
z
" clip-path="url(#pd4c4b9e701)" style="fill: #9467bd"/>
   </g>
   <g id="patch_181">
    <path d="M 1342.766977 184.016421 
L 1440.894558 184.016421 
L 1440.894558 182.46662 
L 1342.766977 182.46662 
z
" clip-path="url(#pd4c4b9e701)" style="fill: #9467bd"/>
   </g>
   <g id="patch_182">
    <path d="M 1465.426453 175.063083 
L 1563.554034 175.063083 
L 1563.554034 173.138592 
L 1465.426453 173.138592 
z
" clip-path="url(#pd4c4b9e701)" style="fill: #9467bd"/>
   </g>
   <g id="patch_183">
    <path d="M 116.172216 155.911853 
L 214.299797 155.911853 
L 214.299797 101.574419 
L 116.172216 101.574419 
z
" clip-path="url(#pd4c4b9e701)" style="fill: #8c564b"/>
   </g>
   <g id="patch_184">
    <path d="M 238.831692 147.448155 
L 336.959273 147.448155 
L 336.959273 86.759438 
L 238.831692 86.759438 
z
" clip-path="url(#pd4c4b9e701)" style="fill: #8c564b"/>
   </g>
   <g id="patch_185">
    <path d="M 361.491168 132.529452 
L 459.618749 132.529452 
L 459.618749 63.418694 
L 361.491168 63.418694 
z
" clip-path="url(#pd4c4b9e701)" style="fill: #8c564b"/>
   </g>
   <g id="patch_186">
    <path d="M 484.150644 122.685907 
L 582.278225 122.685907 
L 582.278225 46.136 
L 484.150644 46.136 
z
" clip-path="url(#pd4c4b9e701)" style="fill: #8c564b"/>
   </g>
   <g id="patch_187">
    <path d="M 606.81012 166.650424 
L 704.937701 166.650424 
L 704.937701 117.132928 
L 606.81012 117.132928 
z
" clip-path="url(#pd4c4b9e701)" style="fill: #8c564b"/>
   </g>
   <g id="patch_188">
    <path d="M 729.469596 157.926707 
L 827.597177 157.926707 
L 827.597177 100.550779 
L 729.469596 100.550779 
z
" clip-path="url(#pd4c4b9e701)" style="fill: #8c564b"/>
   </g>
   <g id="patch_189">
    <path d="M 852.129073 176.781882 
L 950.256654 176.781882 
L 950.256654 135.660538 
L 852.129073 135.660538 
z
" clip-path="url(#pd4c4b9e701)" style="fill: #8c564b"/>
   </g>
   <g id="patch_190">
    <path d="M 974.788549 168.670117 
L 1072.91613 168.670117 
L 1072.91613 122.742161 
L 974.788549 122.742161 
z
" clip-path="url(#pd4c4b9e701)" style="fill: #8c564b"/>
   </g>
   <g id="patch_191">
    <path d="M 1097.448025 162.42621 
L 1195.575606 162.42621 
L 1195.575606 110.611796 
L 1097.448025 110.611796 
z
" clip-path="url(#pd4c4b9e701)" style="fill: #8c564b"/>
   </g>
   <g id="patch_192">
    <path d="M 1220.107501 152.218691 
L 1318.235082 152.218691 
L 1318.235082 94.526564 
L 1220.107501 94.526564 
z
" clip-path="url(#pd4c4b9e701)" style="fill: #8c564b"/>
   </g>
   <g id="patch_193">
    <path d="M 1342.766977 182.46662 
L 1440.894558 182.46662 
L 1440.894558 146.411348 
L 1342.766977 146.411348 
z
" clip-path="url(#pd4c4b9e701)" style="fill: #8c564b"/>
   </g>
   <g id="patch_194">
    <path d="M 1465.426453 173.138592 
L 1563.554034 173.138592 
L 1563.554034 128.984471 
L 1465.426453 128.984471 
z
" clip-path="url(#pd4c4b9e701)" style="fill: #8c564b"/>
   </g>
   <g id="matplotlib.axis_1">
    <g id="xtick_1">
     <g id="line2d_1">
      <defs>
       <path id="m74632ee5b8" d="M 0 0 
L 0 3.5 
" style="stroke: #000000; stroke-width: 0.8"/>
      </defs>
      <g>
       <use xlink:href="#m74632ee5b8" x="165.236006" y="242.456" style="stroke: #000000; stroke-width: 0.8"/>
      </g>
     </g>
     <g id="text_1">
      <!-- flight -->
      <g transform="translate(152.3946 257.054437) scale(0.1 -0.1)">
       <defs>
        <path id="DejaVuSans-66" d="M 2375 4863 
L 2375 4384 
L 1825 4384 
Q 1516 4384 1395 4259 
Q 1275 4134 1275 3809 
L 1275 3500 
L 2222 3500 
L 2222 3053 
L 1275 3053 
L 1275 0 
L 697 0 
L 697 3053 
L 147 3053 
L 147 3500 
L 697 3500 
L 697 3744 
Q 697 4328 969 4595 
Q 1241 4863 1831 4863 
L 2375 4863 
z
" transform="scale(0.015625)"/>
        <path id="DejaVuSans-6c" d="M 603 4863 
L 1178 4863 
L 1178 0 
L 603 0 
L 603 4863 
z
" transform="scale(0.015625)"/>
        <path id="DejaVuSans-69" d="M 603 3500 
L 1178 3500 
L 1178 0 
L 603 0 
L 603 3500 
z
M 603 4863 
L 1178 4863 
L 1178 4134 
L 603 4134 
L 603 4863 
z
" transform="scale(0.015625)"/>
        <path id="DejaVuSans-67" d="M 2906 1791 
Q 2906 2416 2648 2759 
Q 2391 3103 1925 3103 
Q 1463 3103 1205 2759 
Q 947 2416 947 1791 
Q 947 1169 1205 825 
Q 1463 481 1925 481 
Q 2391 481 2648 825 
Q 2906 1169 2906 1791 
z
M 3481 434 
Q 3481 -459 3084 -895 
Q 2688 -1331 1869 -1331 
Q 1566 -1331 1297 -1286 
Q 1028 -1241 775 -1147 
L 775 -588 
Q 1028 -725 1275 -790 
Q 1522 -856 1778 -856 
Q 2344 -856 2625 -561 
Q 2906 -266 2906 331 
L 2906 616 
Q 2728 306 2450 153 
Q 2172 0 1784 0 
Q 1141 0 747 490 
Q 353 981 353 1791 
Q 353 2603 747 3093 
Q 1141 3584 1784 3584 
Q 2172 3584 2450 3431 
Q 2728 3278 2906 2969 
L 2906 3500 
L 3481 3500 
L 3481 434 
z
" transform="scale(0.015625)"/>
        <path id="DejaVuSans-68" d="M 3513 2113 
L 3513 0 
L 2938 0 
L 2938 2094 
Q 2938 2591 2744 2837 
Q 2550 3084 2163 3084 
Q 1697 3084 1428 2787 
Q 1159 2491 1159 1978 
L 1159 0 
L 581 0 
L 581 4863 
L 1159 4863 
L 1159 2956 
Q 1366 3272 1645 3428 
Q 1925 3584 2291 3584 
Q 2894 3584 3203 3211 
Q 3513 2838 3513 2113 
z
" transform="scale(0.015625)"/>
        <path id="DejaVuSans-74" d="M 1172 4494 
L 1172 3500 
L 2356 3500 
L 2356 3053 
L 1172 3053 
L 1172 1153 
Q 1172 725 1289 603 
Q 1406 481 1766 481 
L 2356 481 
L 2356 0 
L 1766 0 
Q 1100 0 847 248 
Q 594 497 594 1153 
L 594 3053 
L 172 3053 
L 172 3500 
L 594 3500 
L 594 4494 
L 1172 4494 
z
" transform="scale(0.015625)"/>
       </defs>
       <use xlink:href="#DejaVuSans-66"/>
       <use xlink:href="#DejaVuSans-6c" x="35.205078"/>
       <use xlink:href="#DejaVuSans-69" x="62.988281"/>
       <use xlink:href="#DejaVuSans-67" x="90.771484"/>
       <use xlink:href="#DejaVuSans-68" x="154.248047"/>
       <use xlink:href="#DejaVuSans-74" x="217.626953"/>
      </g>
      <!-- myclimate-ECO. -->
      <g transform="translate(125.128194 268.25225) scale(0.1 -0.1)">
       <defs>
        <path id="DejaVuSans-6d" d="M 3328 2828 
Q 3544 3216 3844 3400 
Q 4144 3584 4550 3584 
Q 5097 3584 5394 3201 
Q 5691 2819 5691 2113 
L 5691 0 
L 5113 0 
L 5113 2094 
Q 5113 2597 4934 2840 
Q 4756 3084 4391 3084 
Q 3944 3084 3684 2787 
Q 3425 2491 3425 1978 
L 3425 0 
L 2847 0 
L 2847 2094 
Q 2847 2600 2669 2842 
Q 2491 3084 2119 3084 
Q 1678 3084 1418 2786 
Q 1159 2488 1159 1978 
L 1159 0 
L 581 0 
L 581 3500 
L 1159 3500 
L 1159 2956 
Q 1356 3278 1631 3431 
Q 1906 3584 2284 3584 
Q 2666 3584 2933 3390 
Q 3200 3197 3328 2828 
z
" transform="scale(0.015625)"/>
        <path id="DejaVuSans-79" d="M 2059 -325 
Q 1816 -950 1584 -1140 
Q 1353 -1331 966 -1331 
L 506 -1331 
L 506 -850 
L 844 -850 
Q 1081 -850 1212 -737 
Q 1344 -625 1503 -206 
L 1606 56 
L 191 3500 
L 800 3500 
L 1894 763 
L 2988 3500 
L 3597 3500 
L 2059 -325 
z
" transform="scale(0.015625)"/>
        <path id="DejaVuSans-63" d="M 3122 3366 
L 3122 2828 
Q 2878 2963 2633 3030 
Q 2388 3097 2138 3097 
Q 1578 3097 1268 2742 
Q 959 2388 959 1747 
Q 959 1106 1268 751 
Q 1578 397 2138 397 
Q 2388 397 2633 464 
Q 2878 531 3122 666 
L 3122 134 
Q 2881 22 2623 -34 
Q 2366 -91 2075 -91 
Q 1284 -91 818 406 
Q 353 903 353 1747 
Q 353 2603 823 3093 
Q 1294 3584 2113 3584 
Q 2378 3584 2631 3529 
Q 2884 3475 3122 3366 
z
" transform="scale(0.015625)"/>
        <path id="DejaVuSans-61" d="M 2194 1759 
Q 1497 1759 1228 1600 
Q 959 1441 959 1056 
Q 959 750 1161 570 
Q 1363 391 1709 391 
Q 2188 391 2477 730 
Q 2766 1069 2766 1631 
L 2766 1759 
L 2194 1759 
z
M 3341 1997 
L 3341 0 
L 2766 0 
L 2766 531 
Q 2569 213 2275 61 
Q 1981 -91 1556 -91 
Q 1019 -91 701 211 
Q 384 513 384 1019 
Q 384 1609 779 1909 
Q 1175 2209 1959 2209 
L 2766 2209 
L 2766 2266 
Q 2766 2663 2505 2880 
Q 2244 3097 1772 3097 
Q 1472 3097 1187 3025 
Q 903 2953 641 2809 
L 641 3341 
Q 956 3463 1253 3523 
Q 1550 3584 1831 3584 
Q 2591 3584 2966 3190 
Q 3341 2797 3341 1997 
z
" transform="scale(0.015625)"/>
        <path id="DejaVuSans-65" d="M 3597 1894 
L 3597 1613 
L 953 1613 
Q 991 1019 1311 708 
Q 1631 397 2203 397 
Q 2534 397 2845 478 
Q 3156 559 3463 722 
L 3463 178 
Q 3153 47 2828 -22 
Q 2503 -91 2169 -91 
Q 1331 -91 842 396 
Q 353 884 353 1716 
Q 353 2575 817 3079 
Q 1281 3584 2069 3584 
Q 2775 3584 3186 3129 
Q 3597 2675 3597 1894 
z
M 3022 2063 
Q 3016 2534 2758 2815 
Q 2500 3097 2075 3097 
Q 1594 3097 1305 2825 
Q 1016 2553 972 2059 
L 3022 2063 
z
" transform="scale(0.015625)"/>
        <path id="DejaVuSans-2d" d="M 313 2009 
L 1997 2009 
L 1997 1497 
L 313 1497 
L 313 2009 
z
" transform="scale(0.015625)"/>
        <path id="DejaVuSans-45" d="M 628 4666 
L 3578 4666 
L 3578 4134 
L 1259 4134 
L 1259 2753 
L 3481 2753 
L 3481 2222 
L 1259 2222 
L 1259 531 
L 3634 531 
L 3634 0 
L 628 0 
L 628 4666 
z
" transform="scale(0.015625)"/>
        <path id="DejaVuSans-43" d="M 4122 4306 
L 4122 3641 
Q 3803 3938 3442 4084 
Q 3081 4231 2675 4231 
Q 1875 4231 1450 3742 
Q 1025 3253 1025 2328 
Q 1025 1406 1450 917 
Q 1875 428 2675 428 
Q 3081 428 3442 575 
Q 3803 722 4122 1019 
L 4122 359 
Q 3791 134 3420 21 
Q 3050 -91 2638 -91 
Q 1578 -91 968 557 
Q 359 1206 359 2328 
Q 359 3453 968 4101 
Q 1578 4750 2638 4750 
Q 3056 4750 3426 4639 
Q 3797 4528 4122 4306 
z
" transform="scale(0.015625)"/>
        <path id="DejaVuSans-4f" d="M 2522 4238 
Q 1834 4238 1429 3725 
Q 1025 3213 1025 2328 
Q 1025 1447 1429 934 
Q 1834 422 2522 422 
Q 3209 422 3611 934 
Q 4013 1447 4013 2328 
Q 4013 3213 3611 3725 
Q 3209 4238 2522 4238 
z
M 2522 4750 
Q 3503 4750 4090 4092 
Q 4678 3434 4678 2328 
Q 4678 1225 4090 567 
Q 3503 -91 2522 -91 
Q 1538 -91 948 565 
Q 359 1222 359 2328 
Q 359 3434 948 4092 
Q 1538 4750 2522 4750 
z
" transform="scale(0.015625)"/>
        <path id="DejaVuSans-2e" d="M 684 794 
L 1344 794 
L 1344 0 
L 684 0 
L 684 794 
z
" transform="scale(0.015625)"/>
       </defs>
       <use xlink:href="#DejaVuSans-6d"/>
       <use xlink:href="#DejaVuSans-79" x="97.412109"/>
       <use xlink:href="#DejaVuSans-63" x="156.591797"/>
       <use xlink:href="#DejaVuSans-6c" x="211.572266"/>
       <use xlink:href="#DejaVuSans-69" x="239.355469"/>
       <use xlink:href="#DejaVuSans-6d" x="267.138672"/>
       <use xlink:href="#DejaVuSans-61" x="364.550781"/>
       <use xlink:href="#DejaVuSans-74" x="425.830078"/>
       <use xlink:href="#DejaVuSans-65" x="465.039062"/>
       <use xlink:href="#DejaVuSans-2d" x="526.5625"/>
       <use xlink:href="#DejaVuSans-45" x="562.646484"/>
       <use xlink:href="#DejaVuSans-43" x="625.830078"/>
       <use xlink:href="#DejaVuSans-4f" x="695.654297"/>
       <use xlink:href="#DejaVuSans-2e" x="770.365234"/>
      </g>
     </g>
    </g>
    <g id="xtick_2">
     <g id="line2d_2">
      <g>
       <use xlink:href="#m74632ee5b8" x="287.895482" y="242.456" style="stroke: #000000; stroke-width: 0.8"/>
      </g>
     </g>
     <g id="text_2">
      <!-- flight -->
      <g transform="translate(275.054076 257.054437) scale(0.1 -0.1)">
       <use xlink:href="#DejaVuSans-66"/>
       <use xlink:href="#DejaVuSans-6c" x="35.205078"/>
       <use xlink:href="#DejaVuSans-69" x="62.988281"/>
       <use xlink:href="#DejaVuSans-67" x="90.771484"/>
       <use xlink:href="#DejaVuSans-68" x="154.248047"/>
       <use xlink:href="#DejaVuSans-74" x="217.626953"/>
      </g>
      <!-- myclimate-AVE. -->
      <g transform="translate(248.605639 268.25225) scale(0.1 -0.1)">
       <defs>
        <path id="DejaVuSans-41" d="M 2188 4044 
L 1331 1722 
L 3047 1722 
L 2188 4044 
z
M 1831 4666 
L 2547 4666 
L 4325 0 
L 3669 0 
L 3244 1197 
L 1141 1197 
L 716 0 
L 50 0 
L 1831 4666 
z
" transform="scale(0.015625)"/>
        <path id="DejaVuSans-56" d="M 1831 0 
L 50 4666 
L 709 4666 
L 2188 738 
L 3669 4666 
L 4325 4666 
L 2547 0 
L 1831 0 
z
" transform="scale(0.015625)"/>
       </defs>
       <use xlink:href="#DejaVuSans-6d"/>
       <use xlink:href="#DejaVuSans-79" x="97.412109"/>
       <use xlink:href="#DejaVuSans-63" x="156.591797"/>
       <use xlink:href="#DejaVuSans-6c" x="211.572266"/>
       <use xlink:href="#DejaVuSans-69" x="239.355469"/>
       <use xlink:href="#DejaVuSans-6d" x="267.138672"/>
       <use xlink:href="#DejaVuSans-61" x="364.550781"/>
       <use xlink:href="#DejaVuSans-74" x="425.830078"/>
       <use xlink:href="#DejaVuSans-65" x="465.039062"/>
       <use xlink:href="#DejaVuSans-2d" x="526.5625"/>
       <use xlink:href="#DejaVuSans-41" x="560.396484"/>
       <use xlink:href="#DejaVuSans-56" x="622.429688"/>
       <use xlink:href="#DejaVuSans-45" x="690.837891"/>
       <use xlink:href="#DejaVuSans-2e" x="754.021484"/>
      </g>
     </g>
    </g>
    <g id="xtick_3">
     <g id="line2d_3">
      <g>
       <use xlink:href="#m74632ee5b8" x="410.554959" y="242.456" style="stroke: #000000; stroke-width: 0.8"/>
      </g>
     </g>
     <g id="text_3">
      <!-- flight -->
      <g transform="translate(397.713552 257.054437) scale(0.1 -0.1)">
       <use xlink:href="#DejaVuSans-66"/>
       <use xlink:href="#DejaVuSans-6c" x="35.205078"/>
       <use xlink:href="#DejaVuSans-69" x="62.988281"/>
       <use xlink:href="#DejaVuSans-67" x="90.771484"/>
       <use xlink:href="#DejaVuSans-68" x="154.248047"/>
       <use xlink:href="#DejaVuSans-74" x="217.626953"/>
      </g>
      <!-- goclimate-ECO. -->
      <g transform="translate(372.04324 268.25225) scale(0.1 -0.1)">
       <defs>
        <path id="DejaVuSans-6f" d="M 1959 3097 
Q 1497 3097 1228 2736 
Q 959 2375 959 1747 
Q 959 1119 1226 758 
Q 1494 397 1959 397 
Q 2419 397 2687 759 
Q 2956 1122 2956 1747 
Q 2956 2369 2687 2733 
Q 2419 3097 1959 3097 
z
M 1959 3584 
Q 2709 3584 3137 3096 
Q 3566 2609 3566 1747 
Q 3566 888 3137 398 
Q 2709 -91 1959 -91 
Q 1206 -91 779 398 
Q 353 888 353 1747 
Q 353 2609 779 3096 
Q 1206 3584 1959 3584 
z
" transform="scale(0.015625)"/>
       </defs>
       <use xlink:href="#DejaVuSans-67"/>
       <use xlink:href="#DejaVuSans-6f" x="63.476562"/>
       <use xlink:href="#DejaVuSans-63" x="124.658203"/>
       <use xlink:href="#DejaVuSans-6c" x="179.638672"/>
       <use xlink:href="#DejaVuSans-69" x="207.421875"/>
       <use xlink:href="#DejaVuSans-6d" x="235.205078"/>
       <use xlink:href="#DejaVuSans-61" x="332.617188"/>
       <use xlink:href="#DejaVuSans-74" x="393.896484"/>
       <use xlink:href="#DejaVuSans-65" x="433.105469"/>
       <use xlink:href="#DejaVuSans-2d" x="494.628906"/>
       <use xlink:href="#DejaVuSans-45" x="530.712891"/>
       <use xlink:href="#DejaVuSans-43" x="593.896484"/>
       <use xlink:href="#DejaVuSans-4f" x="663.720703"/>
       <use xlink:href="#DejaVuSans-2e" x="738.431641"/>
      </g>
     </g>
    </g>
    <g id="xtick_4">
     <g id="line2d_4">
      <g>
       <use xlink:href="#m74632ee5b8" x="533.214435" y="242.456" style="stroke: #000000; stroke-width: 0.8"/>
      </g>
     </g>
     <g id="text_4">
      <!-- flight -->
      <g transform="translate(520.373028 257.054437) scale(0.1 -0.1)">
       <use xlink:href="#DejaVuSans-66"/>
       <use xlink:href="#DejaVuSans-6c" x="35.205078"/>
       <use xlink:href="#DejaVuSans-69" x="62.988281"/>
       <use xlink:href="#DejaVuSans-67" x="90.771484"/>
       <use xlink:href="#DejaVuSans-68" x="154.248047"/>
       <use xlink:href="#DejaVuSans-74" x="217.626953"/>
      </g>
      <!-- goclimate-AVE. -->
      <g transform="translate(495.520685 268.25225) scale(0.1 -0.1)">
       <use xlink:href="#DejaVuSans-67"/>
       <use xlink:href="#DejaVuSans-6f" x="63.476562"/>
       <use xlink:href="#DejaVuSans-63" x="124.658203"/>
       <use xlink:href="#DejaVuSans-6c" x="179.638672"/>
       <use xlink:href="#DejaVuSans-69" x="207.421875"/>
       <use xlink:href="#DejaVuSans-6d" x="235.205078"/>
       <use xlink:href="#DejaVuSans-61" x="332.617188"/>
       <use xlink:href="#DejaVuSans-74" x="393.896484"/>
       <use xlink:href="#DejaVuSans-65" x="433.105469"/>
       <use xlink:href="#DejaVuSans-2d" x="494.628906"/>
       <use xlink:href="#DejaVuSans-41" x="528.462891"/>
       <use xlink:href="#DejaVuSans-56" x="590.496094"/>
       <use xlink:href="#DejaVuSans-45" x="658.904297"/>
       <use xlink:href="#DejaVuSans-2e" x="722.087891"/>
      </g>
     </g>
    </g>
    <g id="xtick_5">
     <g id="line2d_5">
      <g>
       <use xlink:href="#m74632ee5b8" x="655.873911" y="242.456" style="stroke: #000000; stroke-width: 0.8"/>
      </g>
     </g>
     <g id="text_5">
      <!-- flight -->
      <g transform="translate(643.032505 257.054437) scale(0.1 -0.1)">
       <use xlink:href="#DejaVuSans-66"/>
       <use xlink:href="#DejaVuSans-6c" x="35.205078"/>
       <use xlink:href="#DejaVuSans-69" x="62.988281"/>
       <use xlink:href="#DejaVuSans-67" x="90.771484"/>
       <use xlink:href="#DejaVuSans-68" x="154.248047"/>
       <use xlink:href="#DejaVuSans-74" x="217.626953"/>
      </g>
      <!-- ukgov-ECO. -->
      <g transform="translate(626.968442 268.25225) scale(0.1 -0.1)">
       <defs>
        <path id="DejaVuSans-75" d="M 544 1381 
L 544 3500 
L 1119 3500 
L 1119 1403 
Q 1119 906 1312 657 
Q 1506 409 1894 409 
Q 2359 409 2629 706 
Q 2900 1003 2900 1516 
L 2900 3500 
L 3475 3500 
L 3475 0 
L 2900 0 
L 2900 538 
Q 2691 219 2414 64 
Q 2138 -91 1772 -91 
Q 1169 -91 856 284 
Q 544 659 544 1381 
z
M 1991 3584 
L 1991 3584 
z
" transform="scale(0.015625)"/>
        <path id="DejaVuSans-6b" d="M 581 4863 
L 1159 4863 
L 1159 1991 
L 2875 3500 
L 3609 3500 
L 1753 1863 
L 3688 0 
L 2938 0 
L 1159 1709 
L 1159 0 
L 581 0 
L 581 4863 
z
" transform="scale(0.015625)"/>
        <path id="DejaVuSans-76" d="M 191 3500 
L 800 3500 
L 1894 563 
L 2988 3500 
L 3597 3500 
L 2284 0 
L 1503 0 
L 191 3500 
z
" transform="scale(0.015625)"/>
       </defs>
       <use xlink:href="#DejaVuSans-75"/>
       <use xlink:href="#DejaVuSans-6b" x="63.378906"/>
       <use xlink:href="#DejaVuSans-67" x="121.289062"/>
       <use xlink:href="#DejaVuSans-6f" x="184.765625"/>
       <use xlink:href="#DejaVuSans-76" x="245.947266"/>
       <use xlink:href="#DejaVuSans-2d" x="302.501953"/>
       <use xlink:href="#DejaVuSans-45" x="338.585938"/>
       <use xlink:href="#DejaVuSans-43" x="401.769531"/>
       <use xlink:href="#DejaVuSans-4f" x="471.59375"/>
       <use xlink:href="#DejaVuSans-2e" x="546.304688"/>
      </g>
     </g>
    </g>
    <g id="xtick_6">
     <g id="line2d_6">
      <g>
       <use xlink:href="#m74632ee5b8" x="778.533387" y="242.456" style="stroke: #000000; stroke-width: 0.8"/>
      </g>
     </g>
     <g id="text_6">
      <!-- flight -->
      <g transform="translate(765.691981 257.054437) scale(0.1 -0.1)">
       <use xlink:href="#DejaVuSans-66"/>
       <use xlink:href="#DejaVuSans-6c" x="35.205078"/>
       <use xlink:href="#DejaVuSans-69" x="62.988281"/>
       <use xlink:href="#DejaVuSans-67" x="90.771484"/>
       <use xlink:href="#DejaVuSans-68" x="154.248047"/>
       <use xlink:href="#DejaVuSans-74" x="217.626953"/>
      </g>
      <!-- ukgov-AVE. -->
      <g transform="translate(750.445887 268.25225) scale(0.1 -0.1)">
       <use xlink:href="#DejaVuSans-75"/>
       <use xlink:href="#DejaVuSans-6b" x="63.378906"/>
       <use xlink:href="#DejaVuSans-67" x="121.289062"/>
       <use xlink:href="#DejaVuSans-6f" x="184.765625"/>
       <use xlink:href="#DejaVuSans-76" x="245.947266"/>
       <use xlink:href="#DejaVuSans-2d" x="302.501953"/>
       <use xlink:href="#DejaVuSans-41" x="336.335938"/>
       <use xlink:href="#DejaVuSans-56" x="398.369141"/>
       <use xlink:href="#DejaVuSans-45" x="466.777344"/>
       <use xlink:href="#DejaVuSans-2e" x="529.960938"/>
      </g>
     </g>
    </g>
    <g id="xtick_7">
     <g id="line2d_7">
      <g>
       <use xlink:href="#m74632ee5b8" x="901.192863" y="242.456" style="stroke: #000000; stroke-width: 0.8"/>
      </g>
     </g>
     <g id="text_7">
      <!-- distance -->
      <g transform="translate(880.006144 257.054437) scale(0.1 -0.1)">
       <defs>
        <path id="DejaVuSans-64" d="M 2906 2969 
L 2906 4863 
L 3481 4863 
L 3481 0 
L 2906 0 
L 2906 525 
Q 2725 213 2448 61 
Q 2172 -91 1784 -91 
Q 1150 -91 751 415 
Q 353 922 353 1747 
Q 353 2572 751 3078 
Q 1150 3584 1784 3584 
Q 2172 3584 2448 3432 
Q 2725 3281 2906 2969 
z
M 947 1747 
Q 947 1113 1208 752 
Q 1469 391 1925 391 
Q 2381 391 2643 752 
Q 2906 1113 2906 1747 
Q 2906 2381 2643 2742 
Q 2381 3103 1925 3103 
Q 1469 3103 1208 2742 
Q 947 2381 947 1747 
z
" transform="scale(0.015625)"/>
        <path id="DejaVuSans-73" d="M 2834 3397 
L 2834 2853 
Q 2591 2978 2328 3040 
Q 2066 3103 1784 3103 
Q 1356 3103 1142 2972 
Q 928 2841 928 2578 
Q 928 2378 1081 2264 
Q 1234 2150 1697 2047 
L 1894 2003 
Q 2506 1872 2764 1633 
Q 3022 1394 3022 966 
Q 3022 478 2636 193 
Q 2250 -91 1575 -91 
Q 1294 -91 989 -36 
Q 684 19 347 128 
L 347 722 
Q 666 556 975 473 
Q 1284 391 1588 391 
Q 1994 391 2212 530 
Q 2431 669 2431 922 
Q 2431 1156 2273 1281 
Q 2116 1406 1581 1522 
L 1381 1569 
Q 847 1681 609 1914 
Q 372 2147 372 2553 
Q 372 3047 722 3315 
Q 1072 3584 1716 3584 
Q 2034 3584 2315 3537 
Q 2597 3491 2834 3397 
z
" transform="scale(0.015625)"/>
        <path id="DejaVuSans-6e" d="M 3513 2113 
L 3513 0 
L 2938 0 
L 2938 2094 
Q 2938 2591 2744 2837 
Q 2550 3084 2163 3084 
Q 1697 3084 1428 2787 
Q 1159 2491 1159 1978 
L 1159 0 
L 581 0 
L 581 3500 
L 1159 3500 
L 1159 2956 
Q 1366 3272 1645 3428 
Q 1925 3584 2291 3584 
Q 2894 3584 3203 3211 
Q 3513 2838 3513 2113 
z
" transform="scale(0.015625)"/>
       </defs>
       <use xlink:href="#DejaVuSans-64"/>
       <use xlink:href="#DejaVuSans-69" x="63.476562"/>
       <use xlink:href="#DejaVuSans-73" x="91.259766"/>
       <use xlink:href="#DejaVuSans-74" x="143.359375"/>
       <use xlink:href="#DejaVuSans-61" x="182.568359"/>
       <use xlink:href="#DejaVuSans-6e" x="243.847656"/>
       <use xlink:href="#DejaVuSans-63" x="307.226562"/>
       <use xlink:href="#DejaVuSans-65" x="362.207031"/>
      </g>
      <!-- myclimate-ECO. -->
      <g transform="translate(861.085051 268.25225) scale(0.1 -0.1)">
       <use xlink:href="#DejaVuSans-6d"/>
       <use xlink:href="#DejaVuSans-79" x="97.412109"/>
       <use xlink:href="#DejaVuSans-63" x="156.591797"/>
       <use xlink:href="#DejaVuSans-6c" x="211.572266"/>
       <use xlink:href="#DejaVuSans-69" x="239.355469"/>
       <use xlink:href="#DejaVuSans-6d" x="267.138672"/>
       <use xlink:href="#DejaVuSans-61" x="364.550781"/>
       <use xlink:href="#DejaVuSans-74" x="425.830078"/>
       <use xlink:href="#DejaVuSans-65" x="465.039062"/>
       <use xlink:href="#DejaVuSans-2d" x="526.5625"/>
       <use xlink:href="#DejaVuSans-45" x="562.646484"/>
       <use xlink:href="#DejaVuSans-43" x="625.830078"/>
       <use xlink:href="#DejaVuSans-4f" x="695.654297"/>
       <use xlink:href="#DejaVuSans-2e" x="770.365234"/>
      </g>
     </g>
    </g>
    <g id="xtick_8">
     <g id="line2d_8">
      <g>
       <use xlink:href="#m74632ee5b8" x="1023.852339" y="242.456" style="stroke: #000000; stroke-width: 0.8"/>
      </g>
     </g>
     <g id="text_8">
      <!-- distance -->
      <g transform="translate(1002.66562 257.054437) scale(0.1 -0.1)">
       <use xlink:href="#DejaVuSans-64"/>
       <use xlink:href="#DejaVuSans-69" x="63.476562"/>
       <use xlink:href="#DejaVuSans-73" x="91.259766"/>
       <use xlink:href="#DejaVuSans-74" x="143.359375"/>
       <use xlink:href="#DejaVuSans-61" x="182.568359"/>
       <use xlink:href="#DejaVuSans-6e" x="243.847656"/>
       <use xlink:href="#DejaVuSans-63" x="307.226562"/>
       <use xlink:href="#DejaVuSans-65" x="362.207031"/>
      </g>
      <!-- myclimate-AVE. -->
      <g transform="translate(984.562495 268.25225) scale(0.1 -0.1)">
       <use xlink:href="#DejaVuSans-6d"/>
       <use xlink:href="#DejaVuSans-79" x="97.412109"/>
       <use xlink:href="#DejaVuSans-63" x="156.591797"/>
       <use xlink:href="#DejaVuSans-6c" x="211.572266"/>
       <use xlink:href="#DejaVuSans-69" x="239.355469"/>
       <use xlink:href="#DejaVuSans-6d" x="267.138672"/>
       <use xlink:href="#DejaVuSans-61" x="364.550781"/>
       <use xlink:href="#DejaVuSans-74" x="425.830078"/>
       <use xlink:href="#DejaVuSans-65" x="465.039062"/>
       <use xlink:href="#DejaVuSans-2d" x="526.5625"/>
       <use xlink:href="#DejaVuSans-41" x="560.396484"/>
       <use xlink:href="#DejaVuSans-56" x="622.429688"/>
       <use xlink:href="#DejaVuSans-45" x="690.837891"/>
       <use xlink:href="#DejaVuSans-2e" x="754.021484"/>
      </g>
     </g>
    </g>
    <g id="xtick_9">
     <g id="line2d_9">
      <g>
       <use xlink:href="#m74632ee5b8" x="1146.511815" y="242.456" style="stroke: #000000; stroke-width: 0.8"/>
      </g>
     </g>
     <g id="text_9">
      <!-- distance -->
      <g transform="translate(1125.325097 257.054437) scale(0.1 -0.1)">
       <use xlink:href="#DejaVuSans-64"/>
       <use xlink:href="#DejaVuSans-69" x="63.476562"/>
       <use xlink:href="#DejaVuSans-73" x="91.259766"/>
       <use xlink:href="#DejaVuSans-74" x="143.359375"/>
       <use xlink:href="#DejaVuSans-61" x="182.568359"/>
       <use xlink:href="#DejaVuSans-6e" x="243.847656"/>
       <use xlink:href="#DejaVuSans-63" x="307.226562"/>
       <use xlink:href="#DejaVuSans-65" x="362.207031"/>
      </g>
      <!-- goclimate-ECO. -->
      <g transform="translate(1108.000097 268.25225) scale(0.1 -0.1)">
       <use xlink:href="#DejaVuSans-67"/>
       <use xlink:href="#DejaVuSans-6f" x="63.476562"/>
       <use xlink:href="#DejaVuSans-63" x="124.658203"/>
       <use xlink:href="#DejaVuSans-6c" x="179.638672"/>
       <use xlink:href="#DejaVuSans-69" x="207.421875"/>
       <use xlink:href="#DejaVuSans-6d" x="235.205078"/>
       <use xlink:href="#DejaVuSans-61" x="332.617188"/>
       <use xlink:href="#DejaVuSans-74" x="393.896484"/>
       <use xlink:href="#DejaVuSans-65" x="433.105469"/>
       <use xlink:href="#DejaVuSans-2d" x="494.628906"/>
       <use xlink:href="#DejaVuSans-45" x="530.712891"/>
       <use xlink:href="#DejaVuSans-43" x="593.896484"/>
       <use xlink:href="#DejaVuSans-4f" x="663.720703"/>
       <use xlink:href="#DejaVuSans-2e" x="738.431641"/>
      </g>
     </g>
    </g>
    <g id="xtick_10">
     <g id="line2d_10">
      <g>
       <use xlink:href="#m74632ee5b8" x="1269.171291" y="242.456" style="stroke: #000000; stroke-width: 0.8"/>
      </g>
     </g>
     <g id="text_10">
      <!-- distance -->
      <g transform="translate(1247.984573 257.054437) scale(0.1 -0.1)">
       <use xlink:href="#DejaVuSans-64"/>
       <use xlink:href="#DejaVuSans-69" x="63.476562"/>
       <use xlink:href="#DejaVuSans-73" x="91.259766"/>
       <use xlink:href="#DejaVuSans-74" x="143.359375"/>
       <use xlink:href="#DejaVuSans-61" x="182.568359"/>
       <use xlink:href="#DejaVuSans-6e" x="243.847656"/>
       <use xlink:href="#DejaVuSans-63" x="307.226562"/>
       <use xlink:href="#DejaVuSans-65" x="362.207031"/>
      </g>
      <!-- goclimate-AVE. -->
      <g transform="translate(1231.477541 268.25225) scale(0.1 -0.1)">
       <use xlink:href="#DejaVuSans-67"/>
       <use xlink:href="#DejaVuSans-6f" x="63.476562"/>
       <use xlink:href="#DejaVuSans-63" x="124.658203"/>
       <use xlink:href="#DejaVuSans-6c" x="179.638672"/>
       <use xlink:href="#DejaVuSans-69" x="207.421875"/>
       <use xlink:href="#DejaVuSans-6d" x="235.205078"/>
       <use xlink:href="#DejaVuSans-61" x="332.617188"/>
       <use xlink:href="#DejaVuSans-74" x="393.896484"/>
       <use xlink:href="#DejaVuSans-65" x="433.105469"/>
       <use xlink:href="#DejaVuSans-2d" x="494.628906"/>
       <use xlink:href="#DejaVuSans-41" x="528.462891"/>
       <use xlink:href="#DejaVuSans-56" x="590.496094"/>
       <use xlink:href="#DejaVuSans-45" x="658.904297"/>
       <use xlink:href="#DejaVuSans-2e" x="722.087891"/>
      </g>
     </g>
    </g>
    <g id="xtick_11">
     <g id="line2d_11">
      <g>
       <use xlink:href="#m74632ee5b8" x="1391.830768" y="242.456" style="stroke: #000000; stroke-width: 0.8"/>
      </g>
     </g>
     <g id="text_11">
      <!-- distance -->
      <g transform="translate(1370.644049 257.054437) scale(0.1 -0.1)">
       <use xlink:href="#DejaVuSans-64"/>
       <use xlink:href="#DejaVuSans-69" x="63.476562"/>
       <use xlink:href="#DejaVuSans-73" x="91.259766"/>
       <use xlink:href="#DejaVuSans-74" x="143.359375"/>
       <use xlink:href="#DejaVuSans-61" x="182.568359"/>
       <use xlink:href="#DejaVuSans-6e" x="243.847656"/>
       <use xlink:href="#DejaVuSans-63" x="307.226562"/>
       <use xlink:href="#DejaVuSans-65" x="362.207031"/>
      </g>
      <!-- ukgov-ECO. -->
      <g transform="translate(1362.925299 268.25225) scale(0.1 -0.1)">
       <use xlink:href="#DejaVuSans-75"/>
       <use xlink:href="#DejaVuSans-6b" x="63.378906"/>
       <use xlink:href="#DejaVuSans-67" x="121.289062"/>
       <use xlink:href="#DejaVuSans-6f" x="184.765625"/>
       <use xlink:href="#DejaVuSans-76" x="245.947266"/>
       <use xlink:href="#DejaVuSans-2d" x="302.501953"/>
       <use xlink:href="#DejaVuSans-45" x="338.585938"/>
       <use xlink:href="#DejaVuSans-43" x="401.769531"/>
       <use xlink:href="#DejaVuSans-4f" x="471.59375"/>
       <use xlink:href="#DejaVuSans-2e" x="546.304688"/>
      </g>
     </g>
    </g>
    <g id="xtick_12">
     <g id="line2d_12">
      <g>
       <use xlink:href="#m74632ee5b8" x="1514.490244" y="242.456" style="stroke: #000000; stroke-width: 0.8"/>
      </g>
     </g>
     <g id="text_12">
      <!-- distance -->
      <g transform="translate(1493.303525 257.054437) scale(0.1 -0.1)">
       <use xlink:href="#DejaVuSans-64"/>
       <use xlink:href="#DejaVuSans-69" x="63.476562"/>
       <use xlink:href="#DejaVuSans-73" x="91.259766"/>
       <use xlink:href="#DejaVuSans-74" x="143.359375"/>
       <use xlink:href="#DejaVuSans-61" x="182.568359"/>
       <use xlink:href="#DejaVuSans-6e" x="243.847656"/>
       <use xlink:href="#DejaVuSans-63" x="307.226562"/>
       <use xlink:href="#DejaVuSans-65" x="362.207031"/>
      </g>
      <!-- ukgov-AVE. -->
      <g transform="translate(1486.402744 268.25225) scale(0.1 -0.1)">
       <use xlink:href="#DejaVuSans-75"/>
       <use xlink:href="#DejaVuSans-6b" x="63.378906"/>
       <use xlink:href="#DejaVuSans-67" x="121.289062"/>
       <use xlink:href="#DejaVuSans-6f" x="184.765625"/>
       <use xlink:href="#DejaVuSans-76" x="245.947266"/>
       <use xlink:href="#DejaVuSans-2d" x="302.501953"/>
       <use xlink:href="#DejaVuSans-41" x="336.335938"/>
       <use xlink:href="#DejaVuSans-56" x="398.369141"/>
       <use xlink:href="#DejaVuSans-45" x="466.777344"/>
       <use xlink:href="#DejaVuSans-2e" x="529.960938"/>
      </g>
     </g>
    </g>
   </g>
   <g id="matplotlib.axis_2">
    <g id="ytick_1">
     <g id="line2d_13">
      <defs>
       <path id="mc93893ab91" d="M 0 0 
L -3.5 0 
" style="stroke: #000000; stroke-width: 0.8"/>
      </defs>
      <g>
       <use xlink:href="#mc93893ab91" x="43.803125" y="242.456" style="stroke: #000000; stroke-width: 0.8"/>
      </g>
     </g>
     <g id="text_13">
      <!-- 0.0 -->
      <g transform="translate(20.9 246.255219) scale(0.1 -0.1)">
       <defs>
        <path id="DejaVuSans-30" d="M 2034 4250 
Q 1547 4250 1301 3770 
Q 1056 3291 1056 2328 
Q 1056 1369 1301 889 
Q 1547 409 2034 409 
Q 2525 409 2770 889 
Q 3016 1369 3016 2328 
Q 3016 3291 2770 3770 
Q 2525 4250 2034 4250 
z
M 2034 4750 
Q 2819 4750 3233 4129 
Q 3647 3509 3647 2328 
Q 3647 1150 3233 529 
Q 2819 -91 2034 -91 
Q 1250 -91 836 529 
Q 422 1150 422 2328 
Q 422 3509 836 4129 
Q 1250 4750 2034 4750 
z
" transform="scale(0.015625)"/>
       </defs>
       <use xlink:href="#DejaVuSans-30"/>
       <use xlink:href="#DejaVuSans-2e" x="63.623047"/>
       <use xlink:href="#DejaVuSans-30" x="95.410156"/>
      </g>
     </g>
    </g>
    <g id="ytick_2">
     <g id="line2d_14">
      <g>
       <use xlink:href="#mc93893ab91" x="43.803125" y="217.583489" style="stroke: #000000; stroke-width: 0.8"/>
      </g>
     </g>
     <g id="text_14">
      <!-- 0.5 -->
      <g transform="translate(20.9 221.382708) scale(0.1 -0.1)">
       <defs>
        <path id="DejaVuSans-35" d="M 691 4666 
L 3169 4666 
L 3169 4134 
L 1269 4134 
L 1269 2991 
Q 1406 3038 1543 3061 
Q 1681 3084 1819 3084 
Q 2600 3084 3056 2656 
Q 3513 2228 3513 1497 
Q 3513 744 3044 326 
Q 2575 -91 1722 -91 
Q 1428 -91 1123 -41 
Q 819 9 494 109 
L 494 744 
Q 775 591 1075 516 
Q 1375 441 1709 441 
Q 2250 441 2565 725 
Q 2881 1009 2881 1497 
Q 2881 1984 2565 2268 
Q 2250 2553 1709 2553 
Q 1456 2553 1204 2497 
Q 953 2441 691 2322 
L 691 4666 
z
" transform="scale(0.015625)"/>
       </defs>
       <use xlink:href="#DejaVuSans-30"/>
       <use xlink:href="#DejaVuSans-2e" x="63.623047"/>
       <use xlink:href="#DejaVuSans-35" x="95.410156"/>
      </g>
     </g>
    </g>
    <g id="ytick_3">
     <g id="line2d_15">
      <g>
       <use xlink:href="#mc93893ab91" x="43.803125" y="192.710979" style="stroke: #000000; stroke-width: 0.8"/>
      </g>
     </g>
     <g id="text_15">
      <!-- 1.0 -->
      <g transform="translate(20.9 196.510197) scale(0.1 -0.1)">
       <defs>
        <path id="DejaVuSans-31" d="M 794 531 
L 1825 531 
L 1825 4091 
L 703 3866 
L 703 4441 
L 1819 4666 
L 2450 4666 
L 2450 531 
L 3481 531 
L 3481 0 
L 794 0 
L 794 531 
z
" transform="scale(0.015625)"/>
       </defs>
       <use xlink:href="#DejaVuSans-31"/>
       <use xlink:href="#DejaVuSans-2e" x="63.623047"/>
       <use xlink:href="#DejaVuSans-30" x="95.410156"/>
      </g>
     </g>
    </g>
    <g id="ytick_4">
     <g id="line2d_16">
      <g>
       <use xlink:href="#mc93893ab91" x="43.803125" y="167.838468" style="stroke: #000000; stroke-width: 0.8"/>
      </g>
     </g>
     <g id="text_16">
      <!-- 1.5 -->
      <g transform="translate(20.9 171.637687) scale(0.1 -0.1)">
       <use xlink:href="#DejaVuSans-31"/>
       <use xlink:href="#DejaVuSans-2e" x="63.623047"/>
       <use xlink:href="#DejaVuSans-35" x="95.410156"/>
      </g>
     </g>
    </g>
    <g id="ytick_5">
     <g id="line2d_17">
      <g>
       <use xlink:href="#mc93893ab91" x="43.803125" y="142.965957" style="stroke: #000000; stroke-width: 0.8"/>
      </g>
     </g>
     <g id="text_17">
      <!-- 2.0 -->
      <g transform="translate(20.9 146.765176) scale(0.1 -0.1)">
       <defs>
        <path id="DejaVuSans-32" d="M 1228 531 
L 3431 531 
L 3431 0 
L 469 0 
L 469 531 
Q 828 903 1448 1529 
Q 2069 2156 2228 2338 
Q 2531 2678 2651 2914 
Q 2772 3150 2772 3378 
Q 2772 3750 2511 3984 
Q 2250 4219 1831 4219 
Q 1534 4219 1204 4116 
Q 875 4013 500 3803 
L 500 4441 
Q 881 4594 1212 4672 
Q 1544 4750 1819 4750 
Q 2544 4750 2975 4387 
Q 3406 4025 3406 3419 
Q 3406 3131 3298 2873 
Q 3191 2616 2906 2266 
Q 2828 2175 2409 1742 
Q 1991 1309 1228 531 
z
" transform="scale(0.015625)"/>
       </defs>
       <use xlink:href="#DejaVuSans-32"/>
       <use xlink:href="#DejaVuSans-2e" x="63.623047"/>
       <use xlink:href="#DejaVuSans-30" x="95.410156"/>
      </g>
     </g>
    </g>
    <g id="ytick_6">
     <g id="line2d_18">
      <g>
       <use xlink:href="#mc93893ab91" x="43.803125" y="118.093447" style="stroke: #000000; stroke-width: 0.8"/>
      </g>
     </g>
     <g id="text_18">
      <!-- 2.5 -->
      <g transform="translate(20.9 121.892666) scale(0.1 -0.1)">
       <use xlink:href="#DejaVuSans-32"/>
       <use xlink:href="#DejaVuSans-2e" x="63.623047"/>
       <use xlink:href="#DejaVuSans-35" x="95.410156"/>
      </g>
     </g>
    </g>
    <g id="ytick_7">
     <g id="line2d_19">
      <g>
       <use xlink:href="#mc93893ab91" x="43.803125" y="93.220936" style="stroke: #000000; stroke-width: 0.8"/>
      </g>
     </g>
     <g id="text_19">
      <!-- 3.0 -->
      <g transform="translate(20.9 97.020155) scale(0.1 -0.1)">
       <defs>
        <path id="DejaVuSans-33" d="M 2597 2516 
Q 3050 2419 3304 2112 
Q 3559 1806 3559 1356 
Q 3559 666 3084 287 
Q 2609 -91 1734 -91 
Q 1441 -91 1130 -33 
Q 819 25 488 141 
L 488 750 
Q 750 597 1062 519 
Q 1375 441 1716 441 
Q 2309 441 2620 675 
Q 2931 909 2931 1356 
Q 2931 1769 2642 2001 
Q 2353 2234 1838 2234 
L 1294 2234 
L 1294 2753 
L 1863 2753 
Q 2328 2753 2575 2939 
Q 2822 3125 2822 3475 
Q 2822 3834 2567 4026 
Q 2313 4219 1838 4219 
Q 1578 4219 1281 4162 
Q 984 4106 628 3988 
L 628 4550 
Q 988 4650 1302 4700 
Q 1616 4750 1894 4750 
Q 2613 4750 3031 4423 
Q 3450 4097 3450 3541 
Q 3450 3153 3228 2886 
Q 3006 2619 2597 2516 
z
" transform="scale(0.015625)"/>
       </defs>
       <use xlink:href="#DejaVuSans-33"/>
       <use xlink:href="#DejaVuSans-2e" x="63.623047"/>
       <use xlink:href="#DejaVuSans-30" x="95.410156"/>
      </g>
     </g>
    </g>
    <g id="ytick_8">
     <g id="line2d_20">
      <g>
       <use xlink:href="#mc93893ab91" x="43.803125" y="68.348425" style="stroke: #000000; stroke-width: 0.8"/>
      </g>
     </g>
     <g id="text_20">
      <!-- 3.5 -->
      <g transform="translate(20.9 72.147644) scale(0.1 -0.1)">
       <use xlink:href="#DejaVuSans-33"/>
       <use xlink:href="#DejaVuSans-2e" x="63.623047"/>
       <use xlink:href="#DejaVuSans-35" x="95.410156"/>
      </g>
     </g>
    </g>
    <g id="ytick_9">
     <g id="line2d_21">
      <g>
       <use xlink:href="#mc93893ab91" x="43.803125" y="43.475915" style="stroke: #000000; stroke-width: 0.8"/>
      </g>
     </g>
     <g id="text_21">
      <!-- 4.0 -->
      <g transform="translate(20.9 47.275134) scale(0.1 -0.1)">
       <defs>
        <path id="DejaVuSans-34" d="M 2419 4116 
L 825 1625 
L 2419 1625 
L 2419 4116 
z
M 2253 4666 
L 3047 4666 
L 3047 1625 
L 3713 1625 
L 3713 1100 
L 3047 1100 
L 3047 0 
L 2419 0 
L 2419 1100 
L 313 1100 
L 313 1709 
L 2253 4666 
z
" transform="scale(0.015625)"/>
       </defs>
       <use xlink:href="#DejaVuSans-34"/>
       <use xlink:href="#DejaVuSans-2e" x="63.623047"/>
       <use xlink:href="#DejaVuSans-30" x="95.410156"/>
      </g>
     </g>
    </g>
    <g id="text_22">
     <!-- $CO_2$ Equivalent (kg) -->
     <g transform="translate(14.8 188.838) rotate(-90) scale(0.1 -0.1)">
      <defs>
       <path id="DejaVuSans-Oblique-43" d="M 4447 4306 
L 4319 3641 
Q 4019 3944 3683 4091 
Q 3347 4238 2956 4238 
Q 2422 4238 2017 3981 
Q 1613 3725 1319 3200 
Q 1131 2863 1032 2486 
Q 934 2109 934 1728 
Q 934 1091 1264 756 
Q 1594 422 2222 422 
Q 2656 422 3056 561 
Q 3456 700 3834 978 
L 3688 231 
Q 3316 72 2936 -9 
Q 2556 -91 2175 -91 
Q 1278 -91 773 396 
Q 269 884 269 1753 
Q 269 2309 461 2846 
Q 653 3384 1013 3828 
Q 1394 4300 1883 4525 
Q 2372 4750 3022 4750 
Q 3422 4750 3780 4639 
Q 4138 4528 4447 4306 
z
" transform="scale(0.015625)"/>
       <path id="DejaVuSans-Oblique-4f" d="M 2919 4238 
Q 2400 4238 2003 3986 
Q 1606 3734 1313 3219 
Q 1125 2891 1026 2522 
Q 928 2153 928 1778 
Q 928 1128 1239 775 
Q 1550 422 2119 422 
Q 2631 422 3032 676 
Q 3434 931 3719 1434 
Q 3909 1772 4009 2142 
Q 4109 2513 4109 2881 
Q 4109 3528 3796 3883 
Q 3484 4238 2919 4238 
z
M 2100 -91 
Q 1241 -91 748 418 
Q 256 928 256 1813 
Q 256 2319 448 2847 
Q 641 3375 978 3788 
Q 1375 4272 1862 4511 
Q 2350 4750 2938 4750 
Q 3794 4750 4287 4245 
Q 4781 3741 4781 2869 
Q 4781 2331 4593 1812 
Q 4406 1294 4056 872 
Q 3656 384 3173 146 
Q 2691 -91 2100 -91 
z
" transform="scale(0.015625)"/>
       <path id="DejaVuSans-20" transform="scale(0.015625)"/>
       <path id="DejaVuSans-71" d="M 947 1747 
Q 947 1113 1208 752 
Q 1469 391 1925 391 
Q 2381 391 2643 752 
Q 2906 1113 2906 1747 
Q 2906 2381 2643 2742 
Q 2381 3103 1925 3103 
Q 1469 3103 1208 2742 
Q 947 2381 947 1747 
z
M 2906 525 
Q 2725 213 2448 61 
Q 2172 -91 1784 -91 
Q 1150 -91 751 415 
Q 353 922 353 1747 
Q 353 2572 751 3078 
Q 1150 3584 1784 3584 
Q 2172 3584 2448 3432 
Q 2725 3281 2906 2969 
L 2906 3500 
L 3481 3500 
L 3481 -1331 
L 2906 -1331 
L 2906 525 
z
" transform="scale(0.015625)"/>
       <path id="DejaVuSans-28" d="M 1984 4856 
Q 1566 4138 1362 3434 
Q 1159 2731 1159 2009 
Q 1159 1288 1364 580 
Q 1569 -128 1984 -844 
L 1484 -844 
Q 1016 -109 783 600 
Q 550 1309 550 2009 
Q 550 2706 781 3412 
Q 1013 4119 1484 4856 
L 1984 4856 
z
" transform="scale(0.015625)"/>
       <path id="DejaVuSans-29" d="M 513 4856 
L 1013 4856 
Q 1481 4119 1714 3412 
Q 1947 2706 1947 2009 
Q 1947 1309 1714 600 
Q 1481 -109 1013 -844 
L 513 -844 
Q 928 -128 1133 580 
Q 1338 1288 1338 2009 
Q 1338 2731 1133 3434 
Q 928 4138 513 4856 
z
" transform="scale(0.015625)"/>
      </defs>
      <use xlink:href="#DejaVuSans-Oblique-43" transform="translate(0 0.015625)"/>
      <use xlink:href="#DejaVuSans-Oblique-4f" transform="translate(69.824219 0.015625)"/>
      <use xlink:href="#DejaVuSans-32" transform="translate(148.535156 -16.390625) scale(0.7)"/>
      <use xlink:href="#DejaVuSans-20" transform="translate(195.805664 0.015625)"/>
      <use xlink:href="#DejaVuSans-45" transform="translate(227.592773 0.015625)"/>
      <use xlink:href="#DejaVuSans-71" transform="translate(290.776367 0.015625)"/>
      <use xlink:href="#DejaVuSans-75" transform="translate(354.25293 0.015625)"/>
      <use xlink:href="#DejaVuSans-69" transform="translate(417.631836 0.015625)"/>
      <use xlink:href="#DejaVuSans-76" transform="translate(445.415039 0.015625)"/>
      <use xlink:href="#DejaVuSans-61" transform="translate(504.594727 0.015625)"/>
      <use xlink:href="#DejaVuSans-6c" transform="translate(565.874023 0.015625)"/>
      <use xlink:href="#DejaVuSans-65" transform="translate(593.657227 0.015625)"/>
      <use xlink:href="#DejaVuSans-6e" transform="translate(655.180664 0.015625)"/>
      <use xlink:href="#DejaVuSans-74" transform="translate(718.55957 0.015625)"/>
      <use xlink:href="#DejaVuSans-20" transform="translate(757.768555 0.015625)"/>
      <use xlink:href="#DejaVuSans-28" transform="translate(789.555664 0.015625)"/>
      <use xlink:href="#DejaVuSans-6b" transform="translate(828.569336 0.015625)"/>
      <use xlink:href="#DejaVuSans-67" transform="translate(886.479492 0.015625)"/>
      <use xlink:href="#DejaVuSans-29" transform="translate(949.956055 0.015625)"/>
     </g>
    </g>
    <g id="text_23">
     <!-- 1e6 -->
     <g transform="translate(43.803125 33.32) scale(0.1 -0.1)">
      <defs>
       <path id="DejaVuSans-36" d="M 2113 2584 
Q 1688 2584 1439 2293 
Q 1191 2003 1191 1497 
Q 1191 994 1439 701 
Q 1688 409 2113 409 
Q 2538 409 2786 701 
Q 3034 994 3034 1497 
Q 3034 2003 2786 2293 
Q 2538 2584 2113 2584 
z
M 3366 4563 
L 3366 3988 
Q 3128 4100 2886 4159 
Q 2644 4219 2406 4219 
Q 1781 4219 1451 3797 
Q 1122 3375 1075 2522 
Q 1259 2794 1537 2939 
Q 1816 3084 2150 3084 
Q 2853 3084 3261 2657 
Q 3669 2231 3669 1497 
Q 3669 778 3244 343 
Q 2819 -91 2113 -91 
Q 1303 -91 875 529 
Q 447 1150 447 2328 
Q 447 3434 972 4092 
Q 1497 4750 2381 4750 
Q 2619 4750 2861 4703 
Q 3103 4656 3366 4563 
z
" transform="scale(0.015625)"/>
      </defs>
      <use xlink:href="#DejaVuSans-31"/>
      <use xlink:href="#DejaVuSans-65" x="63.623047"/>
      <use xlink:href="#DejaVuSans-36" x="125.146484"/>
     </g>
    </g>
   </g>
   <g id="patch_195">
    <path d="M 43.803125 242.456 
L 43.803125 36.32 
" style="fill: none; stroke: #000000; stroke-width: 0.8; stroke-linejoin: miter; stroke-linecap: square"/>
   </g>
   <g id="patch_196">
    <path d="M 1635.923125 242.456 
L 1635.923125 36.32 
" style="fill: none; stroke: #000000; stroke-width: 0.8; stroke-linejoin: miter; stroke-linecap: square"/>
   </g>
   <g id="patch_197">
    <path d="M 43.803125 242.456 
L 1635.923125 242.456 
" style="fill: none; stroke: #000000; stroke-width: 0.8; stroke-linejoin: miter; stroke-linecap: square"/>
   </g>
   <g id="patch_198">
    <path d="M 43.803125 36.32 
L 1635.923125 36.32 
" style="fill: none; stroke: #000000; stroke-width: 0.8; stroke-linejoin: miter; stroke-linecap: square"/>
   </g>
   <g id="text_24">
    <!-- $CO_2$ Equivalent (kg) by country for ICANN61 (1565 participants) -->
    <g transform="translate(648.163125 16.32) scale(0.12 -0.12)">
     <defs>
      <path id="DejaVuSans-62" d="M 3116 1747 
Q 3116 2381 2855 2742 
Q 2594 3103 2138 3103 
Q 1681 3103 1420 2742 
Q 1159 2381 1159 1747 
Q 1159 1113 1420 752 
Q 1681 391 2138 391 
Q 2594 391 2855 752 
Q 3116 1113 3116 1747 
z
M 1159 2969 
Q 1341 3281 1617 3432 
Q 1894 3584 2278 3584 
Q 2916 3584 3314 3078 
Q 3713 2572 3713 1747 
Q 3713 922 3314 415 
Q 2916 -91 2278 -91 
Q 1894 -91 1617 61 
Q 1341 213 1159 525 
L 1159 0 
L 581 0 
L 581 4863 
L 1159 4863 
L 1159 2969 
z
" transform="scale(0.015625)"/>
      <path id="DejaVuSans-72" d="M 2631 2963 
Q 2534 3019 2420 3045 
Q 2306 3072 2169 3072 
Q 1681 3072 1420 2755 
Q 1159 2438 1159 1844 
L 1159 0 
L 581 0 
L 581 3500 
L 1159 3500 
L 1159 2956 
Q 1341 3275 1631 3429 
Q 1922 3584 2338 3584 
Q 2397 3584 2469 3576 
Q 2541 3569 2628 3553 
L 2631 2963 
z
" transform="scale(0.015625)"/>
      <path id="DejaVuSans-49" d="M 628 4666 
L 1259 4666 
L 1259 0 
L 628 0 
L 628 4666 
z
" transform="scale(0.015625)"/>
      <path id="DejaVuSans-4e" d="M 628 4666 
L 1478 4666 
L 3547 763 
L 3547 4666 
L 4159 4666 
L 4159 0 
L 3309 0 
L 1241 3903 
L 1241 0 
L 628 0 
L 628 4666 
z
" transform="scale(0.015625)"/>
      <path id="DejaVuSans-70" d="M 1159 525 
L 1159 -1331 
L 581 -1331 
L 581 3500 
L 1159 3500 
L 1159 2969 
Q 1341 3281 1617 3432 
Q 1894 3584 2278 3584 
Q 2916 3584 3314 3078 
Q 3713 2572 3713 1747 
Q 3713 922 3314 415 
Q 2916 -91 2278 -91 
Q 1894 -91 1617 61 
Q 1341 213 1159 525 
z
M 3116 1747 
Q 3116 2381 2855 2742 
Q 2594 3103 2138 3103 
Q 1681 3103 1420 2742 
Q 1159 2381 1159 1747 
Q 1159 1113 1420 752 
Q 1681 391 2138 391 
Q 2594 391 2855 752 
Q 3116 1113 3116 1747 
z
" transform="scale(0.015625)"/>
     </defs>
     <use xlink:href="#DejaVuSans-Oblique-43" transform="translate(0 0.015625)"/>
     <use xlink:href="#DejaVuSans-Oblique-4f" transform="translate(69.824219 0.015625)"/>
     <use xlink:href="#DejaVuSans-32" transform="translate(148.535156 -16.390625) scale(0.7)"/>
     <use xlink:href="#DejaVuSans-20" transform="translate(195.805664 0.015625)"/>
     <use xlink:href="#DejaVuSans-45" transform="translate(227.592773 0.015625)"/>
     <use xlink:href="#DejaVuSans-71" transform="translate(290.776367 0.015625)"/>
     <use xlink:href="#DejaVuSans-75" transform="translate(354.25293 0.015625)"/>
     <use xlink:href="#DejaVuSans-69" transform="translate(417.631836 0.015625)"/>
     <use xlink:href="#DejaVuSans-76" transform="translate(445.415039 0.015625)"/>
     <use xlink:href="#DejaVuSans-61" transform="translate(504.594727 0.015625)"/>
     <use xlink:href="#DejaVuSans-6c" transform="translate(565.874023 0.015625)"/>
     <use xlink:href="#DejaVuSans-65" transform="translate(593.657227 0.015625)"/>
     <use xlink:href="#DejaVuSans-6e" transform="translate(655.180664 0.015625)"/>
     <use xlink:href="#DejaVuSans-74" transform="translate(718.55957 0.015625)"/>
     <use xlink:href="#DejaVuSans-20" transform="translate(757.768555 0.015625)"/>
     <use xlink:href="#DejaVuSans-28" transform="translate(789.555664 0.015625)"/>
     <use xlink:href="#DejaVuSans-6b" transform="translate(828.569336 0.015625)"/>
     <use xlink:href="#DejaVuSans-67" transform="translate(886.479492 0.015625)"/>
     <use xlink:href="#DejaVuSans-29" transform="translate(949.956055 0.015625)"/>
     <use xlink:href="#DejaVuSans-20" transform="translate(988.969727 0.015625)"/>
     <use xlink:href="#DejaVuSans-62" transform="translate(1020.756836 0.015625)"/>
     <use xlink:href="#DejaVuSans-79" transform="translate(1084.233398 0.015625)"/>
     <use xlink:href="#DejaVuSans-20" transform="translate(1143.413086 0.015625)"/>
     <use xlink:href="#DejaVuSans-63" transform="translate(1175.200195 0.015625)"/>
     <use xlink:href="#DejaVuSans-6f" transform="translate(1230.180664 0.015625)"/>
     <use xlink:href="#DejaVuSans-75" transform="translate(1291.362305 0.015625)"/>
     <use xlink:href="#DejaVuSans-6e" transform="translate(1354.741211 0.015625)"/>
     <use xlink:href="#DejaVuSans-74" transform="translate(1418.120117 0.015625)"/>
     <use xlink:href="#DejaVuSans-72" transform="translate(1457.329102 0.015625)"/>
     <use xlink:href="#DejaVuSans-79" transform="translate(1498.442383 0.015625)"/>
     <use xlink:href="#DejaVuSans-20" transform="translate(1557.62207 0.015625)"/>
     <use xlink:href="#DejaVuSans-66" transform="translate(1589.40918 0.015625)"/>
     <use xlink:href="#DejaVuSans-6f" transform="translate(1624.614258 0.015625)"/>
     <use xlink:href="#DejaVuSans-72" transform="translate(1685.795898 0.015625)"/>
     <use xlink:href="#DejaVuSans-20" transform="translate(1726.90918 0.015625)"/>
     <use xlink:href="#DejaVuSans-49" transform="translate(1758.696289 0.015625)"/>
     <use xlink:href="#DejaVuSans-43" transform="translate(1788.188477 0.015625)"/>
     <use xlink:href="#DejaVuSans-41" transform="translate(1858.012695 0.015625)"/>
     <use xlink:href="#DejaVuSans-4e" transform="translate(1926.420898 0.015625)"/>
     <use xlink:href="#DejaVuSans-4e" transform="translate(2001.225586 0.015625)"/>
     <use xlink:href="#DejaVuSans-36" transform="translate(2076.030273 0.015625)"/>
     <use xlink:href="#DejaVuSans-31" transform="translate(2139.65332 0.015625)"/>
     <use xlink:href="#DejaVuSans-20" transform="translate(2203.276367 0.015625)"/>
     <use xlink:href="#DejaVuSans-28" transform="translate(2235.063477 0.015625)"/>
     <use xlink:href="#DejaVuSans-31" transform="translate(2274.077148 0.015625)"/>
     <use xlink:href="#DejaVuSans-35" transform="translate(2337.700195 0.015625)"/>
     <use xlink:href="#DejaVuSans-36" transform="translate(2401.323242 0.015625)"/>
     <use xlink:href="#DejaVuSans-35" transform="translate(2464.946289 0.015625)"/>
     <use xlink:href="#DejaVuSans-20" transform="translate(2528.569336 0.015625)"/>
     <use xlink:href="#DejaVuSans-70" transform="translate(2560.356445 0.015625)"/>
     <use xlink:href="#DejaVuSans-61" transform="translate(2623.833008 0.015625)"/>
     <use xlink:href="#DejaVuSans-72" transform="translate(2685.112305 0.015625)"/>
     <use xlink:href="#DejaVuSans-74" transform="translate(2726.225586 0.015625)"/>
     <use xlink:href="#DejaVuSans-69" transform="translate(2765.43457 0.015625)"/>
     <use xlink:href="#DejaVuSans-63" transform="translate(2793.217773 0.015625)"/>
     <use xlink:href="#DejaVuSans-69" transform="translate(2848.198242 0.015625)"/>
     <use xlink:href="#DejaVuSans-70" transform="translate(2875.981445 0.015625)"/>
     <use xlink:href="#DejaVuSans-61" transform="translate(2939.458008 0.015625)"/>
     <use xlink:href="#DejaVuSans-6e" transform="translate(3000.737305 0.015625)"/>
     <use xlink:href="#DejaVuSans-74" transform="translate(3064.116211 0.015625)"/>
     <use xlink:href="#DejaVuSans-73" transform="translate(3103.325195 0.015625)"/>
     <use xlink:href="#DejaVuSans-29" transform="translate(3155.424805 0.015625)"/>
    </g>
   </g>
   <g id="legend_1">
    <g id="patch_199">
     <path d="M 1642.923125 258.5564 
L 1708.52625 258.5564 
Q 1710.52625 258.5564 1710.52625 256.5564 
L 1710.52625 22.7064 
Q 1710.52625 20.7064 1708.52625 20.7064 
L 1642.923125 20.7064 
Q 1640.923125 20.7064 1640.923125 22.7064 
L 1640.923125 256.5564 
Q 1640.923125 258.5564 1642.923125 258.5564 
z
" style="fill: #ffffff; opacity: 0.8; stroke: #cccccc; stroke-linejoin: miter"/>
    </g>
    <g id="patch_200">
     <path d="M 1644.923125 32.304837 
L 1664.923125 32.304837 
L 1664.923125 25.304837 
L 1644.923125 25.304837 
z
" style="fill: #1f77b4"/>
    </g>
    <g id="text_25">
     <!-- US -->
     <g transform="translate(1672.923125 32.304837) scale(0.1 -0.1)">
      <defs>
       <path id="DejaVuSans-55" d="M 556 4666 
L 1191 4666 
L 1191 1831 
Q 1191 1081 1462 751 
Q 1734 422 2344 422 
Q 2950 422 3222 751 
Q 3494 1081 3494 1831 
L 3494 4666 
L 4128 4666 
L 4128 1753 
Q 4128 841 3676 375 
Q 3225 -91 2344 -91 
Q 1459 -91 1007 375 
Q 556 841 556 1753 
L 556 4666 
z
" transform="scale(0.015625)"/>
       <path id="DejaVuSans-53" d="M 3425 4513 
L 3425 3897 
Q 3066 4069 2747 4153 
Q 2428 4238 2131 4238 
Q 1616 4238 1336 4038 
Q 1056 3838 1056 3469 
Q 1056 3159 1242 3001 
Q 1428 2844 1947 2747 
L 2328 2669 
Q 3034 2534 3370 2195 
Q 3706 1856 3706 1288 
Q 3706 609 3251 259 
Q 2797 -91 1919 -91 
Q 1588 -91 1214 -16 
Q 841 59 441 206 
L 441 856 
Q 825 641 1194 531 
Q 1563 422 1919 422 
Q 2459 422 2753 634 
Q 3047 847 3047 1241 
Q 3047 1584 2836 1778 
Q 2625 1972 2144 2069 
L 1759 2144 
Q 1053 2284 737 2584 
Q 422 2884 422 3419 
Q 422 4038 858 4394 
Q 1294 4750 2059 4750 
Q 2388 4750 2728 4690 
Q 3069 4631 3425 4513 
z
" transform="scale(0.015625)"/>
      </defs>
      <use xlink:href="#DejaVuSans-55"/>
      <use xlink:href="#DejaVuSans-53" x="73.193359"/>
     </g>
    </g>
    <g id="patch_201">
     <path d="M 1644.923125 46.982962 
L 1664.923125 46.982962 
L 1664.923125 39.982962 
L 1644.923125 39.982962 
z
" style="fill: #ff7f0e"/>
    </g>
    <g id="text_26">
     <!-- CN -->
     <g transform="translate(1672.923125 46.982962) scale(0.1 -0.1)">
      <use xlink:href="#DejaVuSans-43"/>
      <use xlink:href="#DejaVuSans-4e" x="69.824219"/>
     </g>
    </g>
    <g id="patch_202">
     <path d="M 1644.923125 61.661087 
L 1664.923125 61.661087 
L 1664.923125 54.661087 
L 1644.923125 54.661087 
z
" style="fill: #2ca02c"/>
    </g>
    <g id="text_27">
     <!-- GB -->
     <g transform="translate(1672.923125 61.661087) scale(0.1 -0.1)">
      <defs>
       <path id="DejaVuSans-47" d="M 3809 666 
L 3809 1919 
L 2778 1919 
L 2778 2438 
L 4434 2438 
L 4434 434 
Q 4069 175 3628 42 
Q 3188 -91 2688 -91 
Q 1594 -91 976 548 
Q 359 1188 359 2328 
Q 359 3472 976 4111 
Q 1594 4750 2688 4750 
Q 3144 4750 3555 4637 
Q 3966 4525 4313 4306 
L 4313 3634 
Q 3963 3931 3569 4081 
Q 3175 4231 2741 4231 
Q 1884 4231 1454 3753 
Q 1025 3275 1025 2328 
Q 1025 1384 1454 906 
Q 1884 428 2741 428 
Q 3075 428 3337 486 
Q 3600 544 3809 666 
z
" transform="scale(0.015625)"/>
       <path id="DejaVuSans-42" d="M 1259 2228 
L 1259 519 
L 2272 519 
Q 2781 519 3026 730 
Q 3272 941 3272 1375 
Q 3272 1813 3026 2020 
Q 2781 2228 2272 2228 
L 1259 2228 
z
M 1259 4147 
L 1259 2741 
L 2194 2741 
Q 2656 2741 2882 2914 
Q 3109 3088 3109 3444 
Q 3109 3797 2882 3972 
Q 2656 4147 2194 4147 
L 1259 4147 
z
M 628 4666 
L 2241 4666 
Q 2963 4666 3353 4366 
Q 3744 4066 3744 3513 
Q 3744 3084 3544 2831 
Q 3344 2578 2956 2516 
Q 3422 2416 3680 2098 
Q 3938 1781 3938 1306 
Q 3938 681 3513 340 
Q 3088 0 2303 0 
L 628 0 
L 628 4666 
z
" transform="scale(0.015625)"/>
      </defs>
      <use xlink:href="#DejaVuSans-47"/>
      <use xlink:href="#DejaVuSans-42" x="77.490234"/>
     </g>
    </g>
    <g id="patch_203">
     <path d="M 1644.923125 76.339212 
L 1664.923125 76.339212 
L 1664.923125 69.339212 
L 1644.923125 69.339212 
z
" style="fill: #d62728"/>
    </g>
    <g id="text_28">
     <!-- JP -->
     <g transform="translate(1672.923125 76.339212) scale(0.1 -0.1)">
      <defs>
       <path id="DejaVuSans-4a" d="M 628 4666 
L 1259 4666 
L 1259 325 
Q 1259 -519 939 -900 
Q 619 -1281 -91 -1281 
L -331 -1281 
L -331 -750 
L -134 -750 
Q 284 -750 456 -515 
Q 628 -281 628 325 
L 628 4666 
z
" transform="scale(0.015625)"/>
       <path id="DejaVuSans-50" d="M 1259 4147 
L 1259 2394 
L 2053 2394 
Q 2494 2394 2734 2622 
Q 2975 2850 2975 3272 
Q 2975 3691 2734 3919 
Q 2494 4147 2053 4147 
L 1259 4147 
z
M 628 4666 
L 2053 4666 
Q 2838 4666 3239 4311 
Q 3641 3956 3641 3272 
Q 3641 2581 3239 2228 
Q 2838 1875 2053 1875 
L 1259 1875 
L 1259 0 
L 628 0 
L 628 4666 
z
" transform="scale(0.015625)"/>
      </defs>
      <use xlink:href="#DejaVuSans-4a"/>
      <use xlink:href="#DejaVuSans-50" x="29.492188"/>
     </g>
    </g>
    <g id="patch_204">
     <path d="M 1644.923125 91.017337 
L 1664.923125 91.017337 
L 1664.923125 84.017337 
L 1644.923125 84.017337 
z
" style="fill: #9467bd"/>
    </g>
    <g id="text_29">
     <!-- DE -->
     <g transform="translate(1672.923125 91.017337) scale(0.1 -0.1)">
      <defs>
       <path id="DejaVuSans-44" d="M 1259 4147 
L 1259 519 
L 2022 519 
Q 2988 519 3436 956 
Q 3884 1394 3884 2338 
Q 3884 3275 3436 3711 
Q 2988 4147 2022 4147 
L 1259 4147 
z
M 628 4666 
L 1925 4666 
Q 3281 4666 3915 4102 
Q 4550 3538 4550 2338 
Q 4550 1131 3912 565 
Q 3275 0 1925 0 
L 628 0 
L 628 4666 
z
" transform="scale(0.015625)"/>
      </defs>
      <use xlink:href="#DejaVuSans-44"/>
      <use xlink:href="#DejaVuSans-45" x="77.001953"/>
     </g>
    </g>
    <g id="patch_205">
     <path d="M 1644.923125 105.695462 
L 1664.923125 105.695462 
L 1664.923125 98.695462 
L 1644.923125 98.695462 
z
" style="fill: #8c564b"/>
    </g>
    <g id="text_30">
     <!-- AR -->
     <g transform="translate(1672.923125 105.695462) scale(0.1 -0.1)">
      <defs>
       <path id="DejaVuSans-52" d="M 2841 2188 
Q 3044 2119 3236 1894 
Q 3428 1669 3622 1275 
L 4263 0 
L 3584 0 
L 2988 1197 
Q 2756 1666 2539 1819 
Q 2322 1972 1947 1972 
L 1259 1972 
L 1259 0 
L 628 0 
L 628 4666 
L 2053 4666 
Q 2853 4666 3247 4331 
Q 3641 3997 3641 3322 
Q 3641 2881 3436 2590 
Q 3231 2300 2841 2188 
z
M 1259 4147 
L 1259 2491 
L 2053 2491 
Q 2509 2491 2742 2702 
Q 2975 2913 2975 3322 
Q 2975 3731 2742 3939 
Q 2509 4147 2053 4147 
L 1259 4147 
z
" transform="scale(0.015625)"/>
      </defs>
      <use xlink:href="#DejaVuSans-41"/>
      <use xlink:href="#DejaVuSans-52" x="68.408203"/>
     </g>
    </g>
    <g id="patch_206">
     <path d="M 1644.923125 120.373587 
L 1664.923125 120.373587 
L 1664.923125 113.373587 
L 1644.923125 113.373587 
z
" style="fill: #e377c2"/>
    </g>
    <g id="text_31">
     <!-- IN -->
     <g transform="translate(1672.923125 120.373587) scale(0.1 -0.1)">
      <use xlink:href="#DejaVuSans-49"/>
      <use xlink:href="#DejaVuSans-4e" x="29.492188"/>
     </g>
    </g>
    <g id="patch_207">
     <path d="M 1644.923125 135.051712 
L 1664.923125 135.051712 
L 1664.923125 128.051712 
L 1644.923125 128.051712 
z
" style="fill: #7f7f7f"/>
    </g>
    <g id="text_32">
     <!-- FR -->
     <g transform="translate(1672.923125 135.051712) scale(0.1 -0.1)">
      <defs>
       <path id="DejaVuSans-46" d="M 628 4666 
L 3309 4666 
L 3309 4134 
L 1259 4134 
L 1259 2759 
L 3109 2759 
L 3109 2228 
L 1259 2228 
L 1259 0 
L 628 0 
L 628 4666 
z
" transform="scale(0.015625)"/>
      </defs>
      <use xlink:href="#DejaVuSans-46"/>
      <use xlink:href="#DejaVuSans-52" x="57.519531"/>
     </g>
    </g>
    <g id="patch_208">
     <path d="M 1644.923125 149.729837 
L 1664.923125 149.729837 
L 1664.923125 142.729837 
L 1644.923125 142.729837 
z
" style="fill: #bcbd22"/>
    </g>
    <g id="text_33">
     <!-- NG -->
     <g transform="translate(1672.923125 149.729837) scale(0.1 -0.1)">
      <use xlink:href="#DejaVuSans-4e"/>
      <use xlink:href="#DejaVuSans-47" x="74.804688"/>
     </g>
    </g>
    <g id="patch_209">
     <path d="M 1644.923125 164.407962 
L 1664.923125 164.407962 
L 1664.923125 157.407962 
L 1644.923125 157.407962 
z
" style="fill: #17becf"/>
    </g>
    <g id="text_34">
     <!-- NL -->
     <g transform="translate(1672.923125 164.407962) scale(0.1 -0.1)">
      <defs>
       <path id="DejaVuSans-4c" d="M 628 4666 
L 1259 4666 
L 1259 531 
L 3531 531 
L 3531 0 
L 628 0 
L 628 4666 
z
" transform="scale(0.015625)"/>
      </defs>
      <use xlink:href="#DejaVuSans-4e"/>
      <use xlink:href="#DejaVuSans-4c" x="74.804688"/>
     </g>
    </g>
    <g id="patch_210">
     <path d="M 1644.923125 179.086087 
L 1664.923125 179.086087 
L 1664.923125 172.086087 
L 1644.923125 172.086087 
z
" style="fill: #1f77b4"/>
    </g>
    <g id="text_35">
     <!-- BR -->
     <g transform="translate(1672.923125 179.086087) scale(0.1 -0.1)">
      <use xlink:href="#DejaVuSans-42"/>
      <use xlink:href="#DejaVuSans-52" x="68.603516"/>
     </g>
    </g>
    <g id="patch_211">
     <path d="M 1644.923125 193.764212 
L 1664.923125 193.764212 
L 1664.923125 186.764212 
L 1644.923125 186.764212 
z
" style="fill: #ff7f0e"/>
    </g>
    <g id="text_36">
     <!-- CA -->
     <g transform="translate(1672.923125 193.764212) scale(0.1 -0.1)">
      <use xlink:href="#DejaVuSans-43"/>
      <use xlink:href="#DejaVuSans-41" x="69.824219"/>
     </g>
    </g>
    <g id="patch_212">
     <path d="M 1644.923125 208.442337 
L 1664.923125 208.442337 
L 1664.923125 201.442337 
L 1644.923125 201.442337 
z
" style="fill: #2ca02c"/>
    </g>
    <g id="text_37">
     <!-- BE -->
     <g transform="translate(1672.923125 208.442337) scale(0.1 -0.1)">
      <use xlink:href="#DejaVuSans-42"/>
      <use xlink:href="#DejaVuSans-45" x="68.603516"/>
     </g>
    </g>
    <g id="patch_213">
     <path d="M 1644.923125 223.120462 
L 1664.923125 223.120462 
L 1664.923125 216.120462 
L 1644.923125 216.120462 
z
" style="fill: #d62728"/>
    </g>
    <g id="text_38">
     <!-- SE -->
     <g transform="translate(1672.923125 223.120462) scale(0.1 -0.1)">
      <use xlink:href="#DejaVuSans-53"/>
      <use xlink:href="#DejaVuSans-45" x="63.476562"/>
     </g>
    </g>
    <g id="patch_214">
     <path d="M 1644.923125 237.798587 
L 1664.923125 237.798587 
L 1664.923125 230.798587 
L 1644.923125 230.798587 
z
" style="fill: #9467bd"/>
    </g>
    <g id="text_39">
     <!-- SG -->
     <g transform="translate(1672.923125 237.798587) scale(0.1 -0.1)">
      <use xlink:href="#DejaVuSans-53"/>
      <use xlink:href="#DejaVuSans-47" x="63.476562"/>
     </g>
    </g>
    <g id="patch_215">
     <path d="M 1644.923125 252.476712 
L 1664.923125 252.476712 
L 1664.923125 245.476712 
L 1644.923125 245.476712 
z
" style="fill: #8c564b"/>
    </g>
    <g id="text_40">
     <!-- Others -->
     <g transform="translate(1672.923125 252.476712) scale(0.1 -0.1)">
      <use xlink:href="#DejaVuSans-4f"/>
      <use xlink:href="#DejaVuSans-74" x="78.710938"/>
      <use xlink:href="#DejaVuSans-68" x="117.919922"/>
      <use xlink:href="#DejaVuSans-65" x="181.298828"/>
      <use xlink:href="#DejaVuSans-72" x="242.822266"/>
      <use xlink:href="#DejaVuSans-73" x="283.935547"/>
     </g>
    </g>
   </g>
  </g>
 </g>
 <defs>
  <clipPath id="pd4c4b9e701">
   <rect x="43.803125" y="36.32" width="1592.12" height="206.136"/>
  </clipPath>
 </defs>
</svg>
