<?xml version="1.0" encoding="utf-8" standalone="no"?>
<!DOCTYPE svg PUBLIC "-//W3C//DTD SVG 1.1//EN"
  "http://www.w3.org/Graphics/SVG/1.1/DTD/svg11.dtd">
<svg xmlns:xlink="http://www.w3.org/1999/xlink" width="1717.635625pt" height="277.531937pt" viewBox="0 0 1717.635625 277.531937" xmlns="http://www.w3.org/2000/svg" version="1.1">
 <metadata>
  <rdf:RDF xmlns:dc="http://purl.org/dc/elements/1.1/" xmlns:cc="http://creativecommons.org/ns#" xmlns:rdf="http://www.w3.org/1999/02/22-rdf-syntax-ns#">
   <cc:Work>
    <dc:type rdf:resource="http://purl.org/dc/dcmitype/StillImage"/>
    <dc:date>2023-06-07T10:28:43.868499</dc:date>
    <dc:format>image/svg+xml</dc:format>
    <dc:creator>
     <cc:Agent>
      <dc:title>Matplotlib v3.7.1, https://matplotlib.org/</dc:title>
     </cc:Agent>
    </dc:creator>
   </cc:Work>
  </rdf:RDF>
 </metadata>
 <defs>
  <style type="text/css">*{stroke-linejoin: round; stroke-linecap: butt}</style>
 </defs>
 <g id="figure_1">
  <g id="patch_1">
   <path d="M 0 277.531937 
L 1717.635625 277.531937 
L 1717.635625 0 
L 0 0 
z
" style="fill: #ffffff"/>
  </g>
  <g id="axes_1">
   <g id="patch_2">
    <path d="M 34.2625 242.456 
L 1635.8325 242.456 
L 1635.8325 36.32 
L 34.2625 36.32 
z
" style="fill: #ffffff"/>
   </g>
   <g id="patch_3">
    <path d="M 107.061136 242.456 
L 205.771152 242.456 
L 205.771152 177.833102 
L 107.061136 177.833102 
z
" clip-path="url(#pe107c63802)" style="fill: #1f77b4"/>
   </g>
   <g id="patch_4">
    <path d="M 230.448656 242.456 
L 329.158671 242.456 
L 329.158671 169.812178 
L 230.448656 169.812178 
z
" clip-path="url(#pe107c63802)" style="fill: #1f77b4"/>
   </g>
   <g id="patch_5">
    <path d="M 353.836175 242.456 
L 452.54619 242.456 
L 452.54619 160.727571 
L 353.836175 160.727571 
z
" clip-path="url(#pe107c63802)" style="fill: #1f77b4"/>
   </g>
   <g id="patch_6">
    <path d="M 477.223694 242.456 
L 575.93371 242.456 
L 575.93371 150.847512 
L 477.223694 150.847512 
z
" clip-path="url(#pe107c63802)" style="fill: #1f77b4"/>
   </g>
   <g id="patch_7">
    <path d="M 600.611213 242.456 
L 699.321229 242.456 
L 699.321229 182.187281 
L 600.611213 182.187281 
z
" clip-path="url(#pe107c63802)" style="fill: #1f77b4"/>
   </g>
   <g id="patch_8">
    <path d="M 723.998733 242.456 
L 822.708748 242.456 
L 822.708748 170.178478 
L 723.998733 170.178478 
z
" clip-path="url(#pe107c63802)" style="fill: #1f77b4"/>
   </g>
   <g id="patch_9">
    <path d="M 847.386252 242.456 
L 946.096267 242.456 
L 946.096267 178.966235 
L 847.386252 178.966235 
z
" clip-path="url(#pe107c63802)" style="fill: #1f77b4"/>
   </g>
   <g id="patch_10">
    <path d="M 970.773771 242.456 
L 1069.483787 242.456 
L 1069.483787 171.043071 
L 970.773771 171.043071 
z
" clip-path="url(#pe107c63802)" style="fill: #1f77b4"/>
   </g>
   <g id="patch_11">
    <path d="M 1094.16129 242.456 
L 1192.871306 242.456 
L 1192.871306 160.727571 
L 1094.16129 160.727571 
z
" clip-path="url(#pe107c63802)" style="fill: #1f77b4"/>
   </g>
   <g id="patch_12">
    <path d="M 1217.54881 242.456 
L 1316.258825 242.456 
L 1316.258825 150.435843 
L 1217.54881 150.435843 
z
" clip-path="url(#pe107c63802)" style="fill: #1f77b4"/>
   </g>
   <g id="patch_13">
    <path d="M 1340.936329 242.456 
L 1439.646344 242.456 
L 1439.646344 182.961281 
L 1340.936329 182.961281 
z
" clip-path="url(#pe107c63802)" style="fill: #1f77b4"/>
   </g>
   <g id="patch_14">
    <path d="M 1464.323848 242.456 
L 1563.033864 242.456 
L 1563.033864 168.577456 
L 1464.323848 168.577456 
z
" clip-path="url(#pe107c63802)" style="fill: #1f77b4"/>
   </g>
   <g id="patch_15">
    <path d="M 107.061136 177.833102 
L 205.771152 177.833102 
L 205.771152 168.870155 
L 107.061136 168.870155 
z
" clip-path="url(#pe107c63802)" style="fill: #ff7f0e"/>
   </g>
   <g id="patch_16">
    <path d="M 230.448656 169.812178 
L 329.158671 169.812178 
L 329.158671 159.797852 
L 230.448656 159.797852 
z
" clip-path="url(#pe107c63802)" style="fill: #ff7f0e"/>
   </g>
   <g id="patch_17">
    <path d="M 353.836175 160.727571 
L 452.54619 160.727571 
L 452.54619 149.165292 
L 353.836175 149.165292 
z
" clip-path="url(#pe107c63802)" style="fill: #ff7f0e"/>
   </g>
   <g id="patch_18">
    <path d="M 477.223694 150.847512 
L 575.93371 150.847512 
L 575.93371 138.027257 
L 477.223694 138.027257 
z
" clip-path="url(#pe107c63802)" style="fill: #ff7f0e"/>
   </g>
   <g id="patch_19">
    <path d="M 600.611213 182.187281 
L 699.321229 182.187281 
L 699.321229 173.7961 
L 600.611213 173.7961 
z
" clip-path="url(#pe107c63802)" style="fill: #ff7f0e"/>
   </g>
   <g id="patch_20">
    <path d="M 723.998733 170.178478 
L 822.708748 170.178478 
L 822.708748 159.884316 
L 723.998733 159.884316 
z
" clip-path="url(#pe107c63802)" style="fill: #ff7f0e"/>
   </g>
   <g id="patch_21">
    <path d="M 847.386252 178.966235 
L 946.096267 178.966235 
L 946.096267 170.939305 
L 847.386252 170.939305 
z
" clip-path="url(#pe107c63802)" style="fill: #ff7f0e"/>
   </g>
   <g id="patch_22">
    <path d="M 970.773771 171.043071 
L 1069.483787 171.043071 
L 1069.483787 162.017361 
L 970.773771 162.017361 
z
" clip-path="url(#pe107c63802)" style="fill: #ff7f0e"/>
   </g>
   <g id="patch_23">
    <path d="M 1094.16129 160.727571 
L 1192.871306 160.727571 
L 1192.871306 150.32152 
L 1094.16129 150.32152 
z
" clip-path="url(#pe107c63802)" style="fill: #ff7f0e"/>
   </g>
   <g id="patch_24">
    <path d="M 1217.54881 150.435843 
L 1316.258825 150.435843 
L 1316.258825 138.850439 
L 1217.54881 138.850439 
z
" clip-path="url(#pe107c63802)" style="fill: #ff7f0e"/>
   </g>
   <g id="patch_25">
    <path d="M 1340.936329 182.961281 
L 1439.646344 182.961281 
L 1439.646344 175.267508 
L 1340.936329 175.267508 
z
" clip-path="url(#pe107c63802)" style="fill: #ff7f0e"/>
   </g>
   <g id="patch_26">
    <path d="M 1464.323848 168.577456 
L 1563.033864 168.577456 
L 1563.033864 159.023588 
L 1464.323848 159.023588 
z
" clip-path="url(#pe107c63802)" style="fill: #ff7f0e"/>
   </g>
   <g id="patch_27">
    <path d="M 107.061136 168.870155 
L 205.771152 168.870155 
L 205.771152 160.732332 
L 107.061136 160.732332 
z
" clip-path="url(#pe107c63802)" style="fill: #2ca02c"/>
   </g>
   <g id="patch_28">
    <path d="M 230.448656 159.797852 
L 329.158671 159.797852 
L 329.158671 150.677495 
L 230.448656 150.677495 
z
" clip-path="url(#pe107c63802)" style="fill: #2ca02c"/>
   </g>
   <g id="patch_29">
    <path d="M 353.836175 149.165292 
L 452.54619 149.165292 
L 452.54619 138.837188 
L 353.836175 138.837188 
z
" clip-path="url(#pe107c63802)" style="fill: #2ca02c"/>
   </g>
   <g id="patch_30">
    <path d="M 477.223694 138.027257 
L 575.93371 138.027257 
L 575.93371 126.505224 
L 477.223694 126.505224 
z
" clip-path="url(#pe107c63802)" style="fill: #2ca02c"/>
   </g>
   <g id="patch_31">
    <path d="M 600.611213 173.7961 
L 699.321229 173.7961 
L 699.321229 166.199939 
L 600.611213 166.199939 
z
" clip-path="url(#pe107c63802)" style="fill: #2ca02c"/>
   </g>
   <g id="patch_32">
    <path d="M 723.998733 159.884316 
L 822.708748 159.884316 
L 822.708748 150.746346 
L 723.998733 150.746346 
z
" clip-path="url(#pe107c63802)" style="fill: #2ca02c"/>
   </g>
   <g id="patch_33">
    <path d="M 847.386252 170.939305 
L 946.096267 170.939305 
L 946.096267 163.510765 
L 847.386252 163.510765 
z
" clip-path="url(#pe107c63802)" style="fill: #2ca02c"/>
   </g>
   <g id="patch_34">
    <path d="M 970.773771 162.017361 
L 1069.483787 162.017361 
L 1069.483787 153.661629 
L 970.773771 153.661629 
z
" clip-path="url(#pe107c63802)" style="fill: #2ca02c"/>
   </g>
   <g id="patch_35">
    <path d="M 1094.16129 150.32152 
L 1192.871306 150.32152 
L 1192.871306 140.681956 
L 1094.16129 140.681956 
z
" clip-path="url(#pe107c63802)" style="fill: #2ca02c"/>
   </g>
   <g id="patch_36">
    <path d="M 1217.54881 138.850439 
L 1316.258825 138.850439 
L 1316.258825 128.040357 
L 1217.54881 128.040357 
z
" clip-path="url(#pe107c63802)" style="fill: #2ca02c"/>
   </g>
   <g id="patch_37">
    <path d="M 1340.936329 175.267508 
L 1439.646344 175.267508 
L 1439.646344 168.323876 
L 1340.936329 168.323876 
z
" clip-path="url(#pe107c63802)" style="fill: #2ca02c"/>
   </g>
   <g id="patch_38">
    <path d="M 1464.323848 159.023588 
L 1563.033864 159.023588 
L 1563.033864 150.401218 
L 1464.323848 150.401218 
z
" clip-path="url(#pe107c63802)" style="fill: #2ca02c"/>
   </g>
   <g id="patch_39">
    <path d="M 107.061136 160.732332 
L 205.771152 160.732332 
L 205.771152 153.709923 
L 107.061136 153.709923 
z
" clip-path="url(#pe107c63802)" style="fill: #d62728"/>
   </g>
   <g id="patch_40">
    <path d="M 230.448656 150.677495 
L 329.158671 150.677495 
L 329.158671 142.863493 
L 230.448656 142.863493 
z
" clip-path="url(#pe107c63802)" style="fill: #d62728"/>
   </g>
   <g id="patch_41">
    <path d="M 353.836175 138.837188 
L 452.54619 138.837188 
L 452.54619 129.873173 
L 353.836175 129.873173 
z
" clip-path="url(#pe107c63802)" style="fill: #d62728"/>
   </g>
   <g id="patch_42">
    <path d="M 477.223694 126.505224 
L 575.93371 126.505224 
L 575.93371 116.565925 
L 477.223694 116.565925 
z
" clip-path="url(#pe107c63802)" style="fill: #d62728"/>
   </g>
   <g id="patch_43">
    <path d="M 600.611213 166.199939 
L 699.321229 166.199939 
L 699.321229 159.700672 
L 600.611213 159.700672 
z
" clip-path="url(#pe107c63802)" style="fill: #d62728"/>
   </g>
   <g id="patch_44">
    <path d="M 723.998733 150.746346 
L 822.708748 150.746346 
L 822.708748 142.833009 
L 723.998733 142.833009 
z
" clip-path="url(#pe107c63802)" style="fill: #d62728"/>
   </g>
   <g id="patch_45">
    <path d="M 847.386252 163.510765 
L 946.096267 163.510765 
L 946.096267 156.893383 
L 847.386252 156.893383 
z
" clip-path="url(#pe107c63802)" style="fill: #d62728"/>
   </g>
   <g id="patch_46">
    <path d="M 970.773771 153.661629 
L 1069.483787 153.661629 
L 1069.483787 146.220434 
L 970.773771 146.220434 
z
" clip-path="url(#pe107c63802)" style="fill: #d62728"/>
   </g>
   <g id="patch_47">
    <path d="M 1094.16129 140.681956 
L 1192.871306 140.681956 
L 1192.871306 132.166142 
L 1094.16129 132.166142 
z
" clip-path="url(#pe107c63802)" style="fill: #d62728"/>
   </g>
   <g id="patch_48">
    <path d="M 1217.54881 128.040357 
L 1316.258825 128.040357 
L 1316.258825 118.549259 
L 1217.54881 118.549259 
z
" clip-path="url(#pe107c63802)" style="fill: #d62728"/>
   </g>
   <g id="patch_49">
    <path d="M 1340.936329 168.323876 
L 1439.646344 168.323876 
L 1439.646344 161.991476 
L 1340.936329 161.991476 
z
" clip-path="url(#pe107c63802)" style="fill: #d62728"/>
   </g>
   <g id="patch_50">
    <path d="M 1464.323848 150.401218 
L 1563.033864 150.401218 
L 1563.033864 142.537857 
L 1464.323848 142.537857 
z
" clip-path="url(#pe107c63802)" style="fill: #d62728"/>
   </g>
   <g id="patch_51">
    <path d="M 107.061136 153.709923 
L 205.771152 153.709923 
L 205.771152 149.165585 
L 107.061136 149.165585 
z
" clip-path="url(#pe107c63802)" style="fill: #9467bd"/>
   </g>
   <g id="patch_52">
    <path d="M 230.448656 142.863493 
L 329.158671 142.863493 
L 329.158671 137.787028 
L 230.448656 137.787028 
z
" clip-path="url(#pe107c63802)" style="fill: #9467bd"/>
   </g>
   <g id="patch_53">
    <path d="M 353.836175 129.873173 
L 452.54619 129.873173 
L 452.54619 124.027077 
L 353.836175 124.027077 
z
" clip-path="url(#pe107c63802)" style="fill: #9467bd"/>
   </g>
   <g id="patch_54">
    <path d="M 477.223694 116.565925 
L 575.93371 116.565925 
L 575.93371 110.083773 
L 477.223694 110.083773 
z
" clip-path="url(#pe107c63802)" style="fill: #9467bd"/>
   </g>
   <g id="patch_55">
    <path d="M 600.611213 159.700672 
L 699.321229 159.700672 
L 699.321229 155.434642 
L 600.611213 155.434642 
z
" clip-path="url(#pe107c63802)" style="fill: #9467bd"/>
   </g>
   <g id="patch_56">
    <path d="M 723.998733 142.833009 
L 822.708748 142.833009 
L 822.708748 137.604798 
L 723.998733 137.604798 
z
" clip-path="url(#pe107c63802)" style="fill: #9467bd"/>
   </g>
   <g id="patch_57">
    <path d="M 847.386252 156.893383 
L 946.096267 156.893383 
L 946.096267 152.618647 
L 847.386252 152.618647 
z
" clip-path="url(#pe107c63802)" style="fill: #9467bd"/>
   </g>
   <g id="patch_58">
    <path d="M 970.773771 146.220434 
L 1069.483787 146.220434 
L 1069.483787 141.413566 
L 970.773771 141.413566 
z
" clip-path="url(#pe107c63802)" style="fill: #9467bd"/>
   </g>
   <g id="patch_59">
    <path d="M 1094.16129 132.166142 
L 1192.871306 132.166142 
L 1192.871306 126.904655 
L 1094.16129 126.904655 
z
" clip-path="url(#pe107c63802)" style="fill: #9467bd"/>
   </g>
   <g id="patch_60">
    <path d="M 1217.54881 118.549259 
L 1316.258825 118.549259 
L 1316.258825 112.611963 
L 1217.54881 112.611963 
z
" clip-path="url(#pe107c63802)" style="fill: #9467bd"/>
   </g>
   <g id="patch_61">
    <path d="M 1340.936329 161.991476 
L 1439.646344 161.991476 
L 1439.646344 157.899629 
L 1340.936329 157.899629 
z
" clip-path="url(#pe107c63802)" style="fill: #9467bd"/>
   </g>
   <g id="patch_62">
    <path d="M 1464.323848 142.537857 
L 1563.033864 142.537857 
L 1563.033864 137.456738 
L 1464.323848 137.456738 
z
" clip-path="url(#pe107c63802)" style="fill: #9467bd"/>
   </g>
   <g id="patch_63">
    <path d="M 107.061136 149.165585 
L 205.771152 149.165585 
L 205.771152 144.411828 
L 107.061136 144.411828 
z
" clip-path="url(#pe107c63802)" style="fill: #8c564b"/>
   </g>
   <g id="patch_64">
    <path d="M 230.448656 137.787028 
L 329.158671 137.787028 
L 329.158671 132.626489 
L 230.448656 132.626489 
z
" clip-path="url(#pe107c63802)" style="fill: #8c564b"/>
   </g>
   <g id="patch_65">
    <path d="M 353.836175 124.027077 
L 452.54619 124.027077 
L 452.54619 118.362859 
L 353.836175 118.362859 
z
" clip-path="url(#pe107c63802)" style="fill: #8c564b"/>
   </g>
   <g id="patch_66">
    <path d="M 477.223694 110.083773 
L 575.93371 110.083773 
L 575.93371 103.938097 
L 477.223694 103.938097 
z
" clip-path="url(#pe107c63802)" style="fill: #8c564b"/>
   </g>
   <g id="patch_67">
    <path d="M 600.611213 155.434642 
L 699.321229 155.434642 
L 699.321229 151.498214 
L 600.611213 151.498214 
z
" clip-path="url(#pe107c63802)" style="fill: #8c564b"/>
   </g>
   <g id="patch_68">
    <path d="M 723.998733 137.604798 
L 822.708748 137.604798 
L 822.708748 133.602945 
L 723.998733 133.602945 
z
" clip-path="url(#pe107c63802)" style="fill: #8c564b"/>
   </g>
   <g id="patch_69">
    <path d="M 847.386252 152.618647 
L 946.096267 152.618647 
L 946.096267 148.75204 
L 847.386252 148.75204 
z
" clip-path="url(#pe107c63802)" style="fill: #8c564b"/>
   </g>
   <g id="patch_70">
    <path d="M 970.773771 141.413566 
L 1069.483787 141.413566 
L 1069.483787 137.07209 
L 970.773771 137.07209 
z
" clip-path="url(#pe107c63802)" style="fill: #8c564b"/>
   </g>
   <g id="patch_71">
    <path d="M 1094.16129 126.904655 
L 1192.871306 126.904655 
L 1192.871306 121.948465 
L 1094.16129 121.948465 
z
" clip-path="url(#pe107c63802)" style="fill: #8c564b"/>
   </g>
   <g id="patch_72">
    <path d="M 1217.54881 112.611963 
L 1316.258825 112.611963 
L 1316.258825 107.174314 
L 1217.54881 107.174314 
z
" clip-path="url(#pe107c63802)" style="fill: #8c564b"/>
   </g>
   <g id="patch_73">
    <path d="M 1340.936329 157.899629 
L 1439.646344 157.899629 
L 1439.646344 154.379714 
L 1340.936329 154.379714 
z
" clip-path="url(#pe107c63802)" style="fill: #8c564b"/>
   </g>
   <g id="patch_74">
    <path d="M 1464.323848 137.456738 
L 1563.033864 137.456738 
L 1563.033864 133.878321 
L 1464.323848 133.878321 
z
" clip-path="url(#pe107c63802)" style="fill: #8c564b"/>
   </g>
   <g id="patch_75">
    <path d="M 107.061136 144.411828 
L 205.771152 144.411828 
L 205.771152 141.060184 
L 107.061136 141.060184 
z
" clip-path="url(#pe107c63802)" style="fill: #e377c2"/>
   </g>
   <g id="patch_76">
    <path d="M 230.448656 132.626489 
L 329.158671 132.626489 
L 329.158671 128.882282 
L 230.448656 128.882282 
z
" clip-path="url(#pe107c63802)" style="fill: #e377c2"/>
   </g>
   <g id="patch_77">
    <path d="M 353.836175 118.362859 
L 452.54619 118.362859 
L 452.54619 113.945808 
L 353.836175 113.945808 
z
" clip-path="url(#pe107c63802)" style="fill: #e377c2"/>
   </g>
   <g id="patch_78">
    <path d="M 477.223694 103.938097 
L 575.93371 103.938097 
L 575.93371 99.070507 
L 477.223694 99.070507 
z
" clip-path="url(#pe107c63802)" style="fill: #e377c2"/>
   </g>
   <g id="patch_79">
    <path d="M 600.611213 151.498214 
L 699.321229 151.498214 
L 699.321229 148.360357 
L 600.611213 148.360357 
z
" clip-path="url(#pe107c63802)" style="fill: #e377c2"/>
   </g>
   <g id="patch_80">
    <path d="M 723.998733 133.602945 
L 822.708748 133.602945 
L 822.708748 129.75449 
L 723.998733 129.75449 
z
" clip-path="url(#pe107c63802)" style="fill: #e377c2"/>
   </g>
   <g id="patch_81">
    <path d="M 847.386252 148.75204 
L 946.096267 148.75204 
L 946.096267 145.613169 
L 847.386252 145.613169 
z
" clip-path="url(#pe107c63802)" style="fill: #e377c2"/>
   </g>
   <g id="patch_82">
    <path d="M 970.773771 137.07209 
L 1069.483787 137.07209 
L 1069.483787 133.542576 
L 970.773771 133.542576 
z
" clip-path="url(#pe107c63802)" style="fill: #e377c2"/>
   </g>
   <g id="patch_83">
    <path d="M 1094.16129 121.948465 
L 1192.871306 121.948465 
L 1192.871306 117.973119 
L 1094.16129 117.973119 
z
" clip-path="url(#pe107c63802)" style="fill: #e377c2"/>
   </g>
   <g id="patch_84">
    <path d="M 1217.54881 107.174314 
L 1316.258825 107.174314 
L 1316.258825 102.718393 
L 1217.54881 102.718393 
z
" clip-path="url(#pe107c63802)" style="fill: #e377c2"/>
   </g>
   <g id="patch_85">
    <path d="M 1340.936329 154.379714 
L 1439.646344 154.379714 
L 1439.646344 151.372757 
L 1340.936329 151.372757 
z
" clip-path="url(#pe107c63802)" style="fill: #e377c2"/>
   </g>
   <g id="patch_86">
    <path d="M 1464.323848 133.878321 
L 1563.033864 133.878321 
L 1563.033864 130.144383 
L 1464.323848 130.144383 
z
" clip-path="url(#pe107c63802)" style="fill: #e377c2"/>
   </g>
   <g id="patch_87">
    <path d="M 107.061136 141.060184 
L 205.771152 141.060184 
L 205.771152 137.974834 
L 107.061136 137.974834 
z
" clip-path="url(#pe107c63802)" style="fill: #7f7f7f"/>
   </g>
   <g id="patch_88">
    <path d="M 230.448656 128.882282 
L 329.158671 128.882282 
L 329.158671 125.439707 
L 230.448656 125.439707 
z
" clip-path="url(#pe107c63802)" style="fill: #7f7f7f"/>
   </g>
   <g id="patch_89">
    <path d="M 353.836175 113.945808 
L 452.54619 113.945808 
L 452.54619 110.119863 
L 353.836175 110.119863 
z
" clip-path="url(#pe107c63802)" style="fill: #7f7f7f"/>
   </g>
   <g id="patch_90">
    <path d="M 477.223694 99.070507 
L 575.93371 99.070507 
L 575.93371 94.833776 
L 477.223694 94.833776 
z
" clip-path="url(#pe107c63802)" style="fill: #7f7f7f"/>
   </g>
   <g id="patch_91">
    <path d="M 600.611213 148.360357 
L 699.321229 148.360357 
L 699.321229 145.541228 
L 600.611213 145.541228 
z
" clip-path="url(#pe107c63802)" style="fill: #7f7f7f"/>
   </g>
   <g id="patch_92">
    <path d="M 723.998733 129.75449 
L 822.708748 129.75449 
L 822.708748 126.305462 
L 723.998733 126.305462 
z
" clip-path="url(#pe107c63802)" style="fill: #7f7f7f"/>
   </g>
   <g id="patch_93">
    <path d="M 847.386252 145.613169 
L 946.096267 145.613169 
L 946.096267 142.681186 
L 847.386252 142.681186 
z
" clip-path="url(#pe107c63802)" style="fill: #7f7f7f"/>
   </g>
   <g id="patch_94">
    <path d="M 970.773771 133.542576 
L 1069.483787 133.542576 
L 1069.483787 130.248571 
L 970.773771 130.248571 
z
" clip-path="url(#pe107c63802)" style="fill: #7f7f7f"/>
   </g>
   <g id="patch_95">
    <path d="M 1094.16129 117.973119 
L 1192.871306 117.973119 
L 1192.871306 114.348539 
L 1094.16129 114.348539 
z
" clip-path="url(#pe107c63802)" style="fill: #7f7f7f"/>
   </g>
   <g id="patch_96">
    <path d="M 1217.54881 102.718393 
L 1316.258825 102.718393 
L 1316.258825 98.655642 
L 1217.54881 98.655642 
z
" clip-path="url(#pe107c63802)" style="fill: #7f7f7f"/>
   </g>
   <g id="patch_97">
    <path d="M 1340.936329 151.372757 
L 1439.646344 151.372757 
L 1439.646344 148.637471 
L 1340.936329 148.637471 
z
" clip-path="url(#pe107c63802)" style="fill: #7f7f7f"/>
   </g>
   <g id="patch_98">
    <path d="M 1464.323848 130.144383 
L 1563.033864 130.144383 
L 1563.033864 126.747796 
L 1464.323848 126.747796 
z
" clip-path="url(#pe107c63802)" style="fill: #7f7f7f"/>
   </g>
   <g id="patch_99">
    <path d="M 107.061136 137.974834 
L 205.771152 137.974834 
L 205.771152 134.870297 
L 107.061136 134.870297 
z
" clip-path="url(#pe107c63802)" style="fill: #bcbd22"/>
   </g>
   <g id="patch_100">
    <path d="M 230.448656 125.439707 
L 329.158671 125.439707 
L 329.158671 121.961878 
L 230.448656 121.961878 
z
" clip-path="url(#pe107c63802)" style="fill: #bcbd22"/>
   </g>
   <g id="patch_101">
    <path d="M 353.836175 110.119863 
L 452.54619 110.119863 
L 452.54619 106.258191 
L 353.836175 106.258191 
z
" clip-path="url(#pe107c63802)" style="fill: #bcbd22"/>
   </g>
   <g id="patch_102">
    <path d="M 477.223694 94.833776 
L 575.93371 94.833776 
L 575.93371 90.536583 
L 477.223694 90.536583 
z
" clip-path="url(#pe107c63802)" style="fill: #bcbd22"/>
   </g>
   <g id="patch_103">
    <path d="M 600.611213 145.541228 
L 699.321229 145.541228 
L 699.321229 142.647793 
L 600.611213 142.647793 
z
" clip-path="url(#pe107c63802)" style="fill: #bcbd22"/>
   </g>
   <g id="patch_104">
    <path d="M 723.998733 126.305462 
L 822.708748 126.305462 
L 822.708748 122.73402 
L 723.998733 122.73402 
z
" clip-path="url(#pe107c63802)" style="fill: #bcbd22"/>
   </g>
   <g id="patch_105">
    <path d="M 847.386252 142.681186 
L 946.096267 142.681186 
L 946.096267 140.275378 
L 847.386252 140.275378 
z
" clip-path="url(#pe107c63802)" style="fill: #bcbd22"/>
   </g>
   <g id="patch_106">
    <path d="M 970.773771 130.248571 
L 1069.483787 130.248571 
L 1069.483787 127.543635 
L 970.773771 127.543635 
z
" clip-path="url(#pe107c63802)" style="fill: #bcbd22"/>
   </g>
   <g id="patch_107">
    <path d="M 1094.16129 114.348539 
L 1192.871306 114.348539 
L 1192.871306 111.334552 
L 1094.16129 111.334552 
z
" clip-path="url(#pe107c63802)" style="fill: #bcbd22"/>
   </g>
   <g id="patch_108">
    <path d="M 1217.54881 98.655642 
L 1316.258825 98.655642 
L 1316.258825 95.257371 
L 1217.54881 95.257371 
z
" clip-path="url(#pe107c63802)" style="fill: #bcbd22"/>
   </g>
   <g id="patch_109">
    <path d="M 1340.936329 148.637471 
L 1439.646344 148.637471 
L 1439.646344 146.328813 
L 1340.936329 146.328813 
z
" clip-path="url(#pe107c63802)" style="fill: #bcbd22"/>
   </g>
   <g id="patch_110">
    <path d="M 1464.323848 126.747796 
L 1563.033864 126.747796 
L 1563.033864 123.880983 
L 1464.323848 123.880983 
z
" clip-path="url(#pe107c63802)" style="fill: #bcbd22"/>
   </g>
   <g id="patch_111">
    <path d="M 107.061136 134.870297 
L 205.771152 134.870297 
L 205.771152 132.187781 
L 107.061136 132.187781 
z
" clip-path="url(#pe107c63802)" style="fill: #17becf"/>
   </g>
   <g id="patch_112">
    <path d="M 230.448656 121.961878 
L 329.158671 121.961878 
L 329.158671 118.97995 
L 230.448656 118.97995 
z
" clip-path="url(#pe107c63802)" style="fill: #17becf"/>
   </g>
   <g id="patch_113">
    <path d="M 353.836175 106.258191 
L 452.54619 106.258191 
L 452.54619 102.880447 
L 353.836175 102.880447 
z
" clip-path="url(#pe107c63802)" style="fill: #17becf"/>
   </g>
   <g id="patch_114">
    <path d="M 477.223694 90.536583 
L 575.93371 90.536583 
L 575.93371 86.779855 
L 477.223694 86.779855 
z
" clip-path="url(#pe107c63802)" style="fill: #17becf"/>
   </g>
   <g id="patch_115">
    <path d="M 600.611213 142.647793 
L 699.321229 142.647793 
L 699.321229 140.151228 
L 600.611213 140.151228 
z
" clip-path="url(#pe107c63802)" style="fill: #17becf"/>
   </g>
   <g id="patch_116">
    <path d="M 723.998733 122.73402 
L 822.708748 122.73402 
L 822.708748 119.707446 
L 723.998733 119.707446 
z
" clip-path="url(#pe107c63802)" style="fill: #17becf"/>
   </g>
   <g id="patch_117">
    <path d="M 847.386252 140.275378 
L 946.096267 140.275378 
L 946.096267 137.968856 
L 847.386252 137.968856 
z
" clip-path="url(#pe107c63802)" style="fill: #17becf"/>
   </g>
   <g id="patch_118">
    <path d="M 970.773771 127.543635 
L 1069.483787 127.543635 
L 1069.483787 124.950156 
L 970.773771 124.950156 
z
" clip-path="url(#pe107c63802)" style="fill: #17becf"/>
   </g>
   <g id="patch_119">
    <path d="M 1094.16129 111.334552 
L 1192.871306 111.334552 
L 1192.871306 108.463469 
L 1094.16129 108.463469 
z
" clip-path="url(#pe107c63802)" style="fill: #17becf"/>
   </g>
   <g id="patch_120">
    <path d="M 1217.54881 95.257371 
L 1316.258825 95.257371 
L 1316.258825 92.018789 
L 1217.54881 92.018789 
z
" clip-path="url(#pe107c63802)" style="fill: #17becf"/>
   </g>
   <g id="patch_121">
    <path d="M 1340.936329 146.328813 
L 1439.646344 146.328813 
L 1439.646344 144.117297 
L 1340.936329 144.117297 
z
" clip-path="url(#pe107c63802)" style="fill: #17becf"/>
   </g>
   <g id="patch_122">
    <path d="M 1464.323848 123.880983 
L 1563.033864 123.880983 
L 1563.033864 121.134796 
L 1464.323848 121.134796 
z
" clip-path="url(#pe107c63802)" style="fill: #17becf"/>
   </g>
   <g id="patch_123">
    <path d="M 107.061136 132.187781 
L 205.771152 132.187781 
L 205.771152 129.653279 
L 107.061136 129.653279 
z
" clip-path="url(#pe107c63802)" style="fill: #1f77b4"/>
   </g>
   <g id="patch_124">
    <path d="M 230.448656 118.97995 
L 329.158671 118.97995 
L 329.158671 116.161635 
L 230.448656 116.161635 
z
" clip-path="url(#pe107c63802)" style="fill: #1f77b4"/>
   </g>
   <g id="patch_125">
    <path d="M 353.836175 102.880447 
L 452.54619 102.880447 
L 452.54619 99.593641 
L 353.836175 99.593641 
z
" clip-path="url(#pe107c63802)" style="fill: #1f77b4"/>
   </g>
   <g id="patch_126">
    <path d="M 477.223694 86.779855 
L 575.93371 86.779855 
L 575.93371 83.147637 
L 477.223694 83.147637 
z
" clip-path="url(#pe107c63802)" style="fill: #1f77b4"/>
   </g>
   <g id="patch_127">
    <path d="M 600.611213 140.151228 
L 699.321229 140.151228 
L 699.321229 137.78755 
L 600.611213 137.78755 
z
" clip-path="url(#pe107c63802)" style="fill: #1f77b4"/>
   </g>
   <g id="patch_128">
    <path d="M 723.998733 119.707446 
L 822.708748 119.707446 
L 822.708748 116.846509 
L 723.998733 116.846509 
z
" clip-path="url(#pe107c63802)" style="fill: #1f77b4"/>
   </g>
   <g id="patch_129">
    <path d="M 847.386252 137.968856 
L 946.096267 137.968856 
L 946.096267 135.609696 
L 847.386252 135.609696 
z
" clip-path="url(#pe107c63802)" style="fill: #1f77b4"/>
   </g>
   <g id="patch_130">
    <path d="M 970.773771 124.950156 
L 1069.483787 124.950156 
L 1069.483787 122.297144 
L 970.773771 122.297144 
z
" clip-path="url(#pe107c63802)" style="fill: #1f77b4"/>
   </g>
   <g id="patch_131">
    <path d="M 1094.16129 108.463469 
L 1192.871306 108.463469 
L 1192.871306 105.475464 
L 1094.16129 105.475464 
z
" clip-path="url(#pe107c63802)" style="fill: #1f77b4"/>
   </g>
   <g id="patch_132">
    <path d="M 1217.54881 92.018789 
L 1316.258825 92.018789 
L 1316.258825 88.665053 
L 1217.54881 88.665053 
z
" clip-path="url(#pe107c63802)" style="fill: #1f77b4"/>
   </g>
   <g id="patch_133">
    <path d="M 1340.936329 144.117297 
L 1439.646344 144.117297 
L 1439.646344 141.865385 
L 1340.936329 141.865385 
z
" clip-path="url(#pe107c63802)" style="fill: #1f77b4"/>
   </g>
   <g id="patch_134">
    <path d="M 1464.323848 121.134796 
L 1563.033864 121.134796 
L 1563.033864 118.338447 
L 1464.323848 118.338447 
z
" clip-path="url(#pe107c63802)" style="fill: #1f77b4"/>
   </g>
   <g id="patch_135">
    <path d="M 107.061136 129.653279 
L 205.771152 129.653279 
L 205.771152 127.65935 
L 107.061136 127.65935 
z
" clip-path="url(#pe107c63802)" style="fill: #ff7f0e"/>
   </g>
   <g id="patch_136">
    <path d="M 230.448656 116.161635 
L 329.158671 116.161635 
L 329.158671 113.934486 
L 230.448656 113.934486 
z
" clip-path="url(#pe107c63802)" style="fill: #ff7f0e"/>
   </g>
   <g id="patch_137">
    <path d="M 353.836175 99.593641 
L 452.54619 99.593641 
L 452.54619 97.099307 
L 353.836175 97.099307 
z
" clip-path="url(#pe107c63802)" style="fill: #ff7f0e"/>
   </g>
   <g id="patch_138">
    <path d="M 477.223694 83.147637 
L 575.93371 83.147637 
L 575.93371 80.356476 
L 477.223694 80.356476 
z
" clip-path="url(#pe107c63802)" style="fill: #ff7f0e"/>
   </g>
   <g id="patch_139">
    <path d="M 600.611213 137.78755 
L 699.321229 137.78755 
L 699.321229 135.936596 
L 600.611213 135.936596 
z
" clip-path="url(#pe107c63802)" style="fill: #ff7f0e"/>
   </g>
   <g id="patch_140">
    <path d="M 723.998733 116.846509 
L 822.708748 116.846509 
L 822.708748 114.57622 
L 723.998733 114.57622 
z
" clip-path="url(#pe107c63802)" style="fill: #ff7f0e"/>
   </g>
   <g id="patch_141">
    <path d="M 847.386252 135.609696 
L 946.096267 135.609696 
L 946.096267 134.002139 
L 847.386252 134.002139 
z
" clip-path="url(#pe107c63802)" style="fill: #ff7f0e"/>
   </g>
   <g id="patch_142">
    <path d="M 970.773771 122.297144 
L 1069.483787 122.297144 
L 1069.483787 120.488993 
L 970.773771 120.488993 
z
" clip-path="url(#pe107c63802)" style="fill: #ff7f0e"/>
   </g>
   <g id="patch_143">
    <path d="M 1094.16129 105.475464 
L 1192.871306 105.475464 
L 1192.871306 103.370869 
L 1094.16129 103.370869 
z
" clip-path="url(#pe107c63802)" style="fill: #ff7f0e"/>
   </g>
   <g id="patch_144">
    <path d="M 1217.54881 88.665053 
L 1316.258825 88.665053 
L 1316.258825 86.306036 
L 1217.54881 86.306036 
z
" clip-path="url(#pe107c63802)" style="fill: #ff7f0e"/>
   </g>
   <g id="patch_145">
    <path d="M 1340.936329 141.865385 
L 1439.646344 141.865385 
L 1439.646344 140.356811 
L 1340.936329 140.356811 
z
" clip-path="url(#pe107c63802)" style="fill: #ff7f0e"/>
   </g>
   <g id="patch_146">
    <path d="M 1464.323848 118.338447 
L 1563.033864 118.338447 
L 1563.033864 116.46515 
L 1464.323848 116.46515 
z
" clip-path="url(#pe107c63802)" style="fill: #ff7f0e"/>
   </g>
   <g id="patch_147">
    <path d="M 107.061136 127.65935 
L 205.771152 127.65935 
L 205.771152 125.590888 
L 107.061136 125.590888 
z
" clip-path="url(#pe107c63802)" style="fill: #2ca02c"/>
   </g>
   <g id="patch_148">
    <path d="M 230.448656 113.934486 
L 329.158671 113.934486 
L 329.158671 111.632717 
L 230.448656 111.632717 
z
" clip-path="url(#pe107c63802)" style="fill: #2ca02c"/>
   </g>
   <g id="patch_149">
    <path d="M 353.836175 97.099307 
L 452.54619 97.099307 
L 452.54619 94.38412 
L 353.836175 94.38412 
z
" clip-path="url(#pe107c63802)" style="fill: #2ca02c"/>
   </g>
   <g id="patch_150">
    <path d="M 477.223694 80.356476 
L 575.93371 80.356476 
L 575.93371 77.372733 
L 477.223694 77.372733 
z
" clip-path="url(#pe107c63802)" style="fill: #2ca02c"/>
   </g>
   <g id="patch_151">
    <path d="M 600.611213 135.936596 
L 699.321229 135.936596 
L 699.321229 134.007437 
L 600.611213 134.007437 
z
" clip-path="url(#pe107c63802)" style="fill: #2ca02c"/>
   </g>
   <g id="patch_152">
    <path d="M 723.998733 114.57622 
L 822.708748 114.57622 
L 822.708748 112.245197 
L 723.998733 112.245197 
z
" clip-path="url(#pe107c63802)" style="fill: #2ca02c"/>
   </g>
   <g id="patch_153">
    <path d="M 847.386252 134.002139 
L 946.096267 134.002139 
L 946.096267 132.498421 
L 847.386252 132.498421 
z
" clip-path="url(#pe107c63802)" style="fill: #2ca02c"/>
   </g>
   <g id="patch_154">
    <path d="M 970.773771 120.488993 
L 1069.483787 120.488993 
L 1069.483787 118.798393 
L 970.773771 118.798393 
z
" clip-path="url(#pe107c63802)" style="fill: #2ca02c"/>
   </g>
   <g id="patch_155">
    <path d="M 1094.16129 103.370869 
L 1192.871306 103.370869 
L 1192.871306 101.519605 
L 1094.16129 101.519605 
z
" clip-path="url(#pe107c63802)" style="fill: #2ca02c"/>
   </g>
   <g id="patch_156">
    <path d="M 1217.54881 86.306036 
L 1316.258825 86.306036 
L 1316.258825 84.219785 
L 1217.54881 84.219785 
z
" clip-path="url(#pe107c63802)" style="fill: #2ca02c"/>
   </g>
   <g id="patch_157">
    <path d="M 1340.936329 140.356811 
L 1439.646344 140.356811 
L 1439.646344 138.913653 
L 1340.936329 138.913653 
z
" clip-path="url(#pe107c63802)" style="fill: #2ca02c"/>
   </g>
   <g id="patch_158">
    <path d="M 1464.323848 116.46515 
L 1563.033864 116.46515 
L 1563.033864 114.673086 
L 1464.323848 114.673086 
z
" clip-path="url(#pe107c63802)" style="fill: #2ca02c"/>
   </g>
   <g id="patch_159">
    <path d="M 107.061136 125.590888 
L 205.771152 125.590888 
L 205.771152 123.935812 
L 107.061136 123.935812 
z
" clip-path="url(#pe107c63802)" style="fill: #d62728"/>
   </g>
   <g id="patch_160">
    <path d="M 230.448656 111.632717 
L 329.158671 111.632717 
L 329.158671 109.785125 
L 230.448656 109.785125 
z
" clip-path="url(#pe107c63802)" style="fill: #d62728"/>
   </g>
   <g id="patch_161">
    <path d="M 353.836175 94.38412 
L 452.54619 94.38412 
L 452.54619 92.305508 
L 353.836175 92.305508 
z
" clip-path="url(#pe107c63802)" style="fill: #d62728"/>
   </g>
   <g id="patch_162">
    <path d="M 477.223694 77.372733 
L 575.93371 77.372733 
L 575.93371 75.053833 
L 477.223694 75.053833 
z
" clip-path="url(#pe107c63802)" style="fill: #d62728"/>
   </g>
   <g id="patch_163">
    <path d="M 600.611213 134.007437 
L 699.321229 134.007437 
L 699.321229 132.435915 
L 600.611213 132.435915 
z
" clip-path="url(#pe107c63802)" style="fill: #d62728"/>
   </g>
   <g id="patch_164">
    <path d="M 723.998733 112.245197 
L 822.708748 112.245197 
L 822.708748 110.327095 
L 723.998733 110.327095 
z
" clip-path="url(#pe107c63802)" style="fill: #d62728"/>
   </g>
   <g id="patch_165">
    <path d="M 847.386252 132.498421 
L 946.096267 132.498421 
L 946.096267 131.046476 
L 847.386252 131.046476 
z
" clip-path="url(#pe107c63802)" style="fill: #d62728"/>
   </g>
   <g id="patch_166">
    <path d="M 970.773771 118.798393 
L 1069.483787 118.798393 
L 1069.483787 117.165775 
L 970.773771 117.165775 
z
" clip-path="url(#pe107c63802)" style="fill: #d62728"/>
   </g>
   <g id="patch_167">
    <path d="M 1094.16129 101.519605 
L 1192.871306 101.519605 
L 1192.871306 99.648855 
L 1094.16129 99.648855 
z
" clip-path="url(#pe107c63802)" style="fill: #d62728"/>
   </g>
   <g id="patch_168">
    <path d="M 1217.54881 84.219785 
L 1316.258825 84.219785 
L 1316.258825 82.122881 
L 1217.54881 82.122881 
z
" clip-path="url(#pe107c63802)" style="fill: #d62728"/>
   </g>
   <g id="patch_169">
    <path d="M 1340.936329 138.913653 
L 1439.646344 138.913653 
L 1439.646344 137.522158 
L 1340.936329 137.522158 
z
" clip-path="url(#pe107c63802)" style="fill: #d62728"/>
   </g>
   <g id="patch_170">
    <path d="M 1464.323848 114.673086 
L 1563.033864 114.673086 
L 1563.033864 112.945174 
L 1464.323848 112.945174 
z
" clip-path="url(#pe107c63802)" style="fill: #d62728"/>
   </g>
   <g id="patch_171">
    <path d="M 107.061136 123.935812 
L 205.771152 123.935812 
L 205.771152 122.080002 
L 107.061136 122.080002 
z
" clip-path="url(#pe107c63802)" style="fill: #9467bd"/>
   </g>
   <g id="patch_172">
    <path d="M 230.448656 109.785125 
L 329.158671 109.785125 
L 329.158671 107.782844 
L 230.448656 107.782844 
z
" clip-path="url(#pe107c63802)" style="fill: #9467bd"/>
   </g>
   <g id="patch_173">
    <path d="M 353.836175 92.305508 
L 452.54619 92.305508 
L 452.54619 90.019035 
L 353.836175 90.019035 
z
" clip-path="url(#pe107c63802)" style="fill: #9467bd"/>
   </g>
   <g id="patch_174">
    <path d="M 477.223694 75.053833 
L 575.93371 75.053833 
L 575.93371 72.592445 
L 477.223694 72.592445 
z
" clip-path="url(#pe107c63802)" style="fill: #9467bd"/>
   </g>
   <g id="patch_175">
    <path d="M 600.611213 132.435915 
L 699.321229 132.435915 
L 699.321229 130.899951 
L 600.611213 130.899951 
z
" clip-path="url(#pe107c63802)" style="fill: #9467bd"/>
   </g>
   <g id="patch_176">
    <path d="M 723.998733 110.327095 
L 822.708748 110.327095 
L 822.708748 108.765602 
L 723.998733 108.765602 
z
" clip-path="url(#pe107c63802)" style="fill: #9467bd"/>
   </g>
   <g id="patch_177">
    <path d="M 847.386252 131.046476 
L 946.096267 131.046476 
L 946.096267 129.619995 
L 847.386252 129.619995 
z
" clip-path="url(#pe107c63802)" style="fill: #9467bd"/>
   </g>
   <g id="patch_178">
    <path d="M 970.773771 117.165775 
L 1069.483787 117.165775 
L 1069.483787 115.564457 
L 970.773771 115.564457 
z
" clip-path="url(#pe107c63802)" style="fill: #9467bd"/>
   </g>
   <g id="patch_179">
    <path d="M 1094.16129 99.648855 
L 1192.871306 99.648855 
L 1192.871306 97.934 
L 1094.16129 97.934 
z
" clip-path="url(#pe107c63802)" style="fill: #9467bd"/>
   </g>
   <g id="patch_180">
    <path d="M 1217.54881 82.122881 
L 1316.258825 82.122881 
L 1316.258825 80.213676 
L 1217.54881 80.213676 
z
" clip-path="url(#pe107c63802)" style="fill: #9467bd"/>
   </g>
   <g id="patch_181">
    <path d="M 1340.936329 137.522158 
L 1439.646344 137.522158 
L 1439.646344 136.249476 
L 1340.936329 136.249476 
z
" clip-path="url(#pe107c63802)" style="fill: #9467bd"/>
   </g>
   <g id="patch_182">
    <path d="M 1464.323848 112.945174 
L 1563.033864 112.945174 
L 1563.033864 111.65134 
L 1464.323848 111.65134 
z
" clip-path="url(#pe107c63802)" style="fill: #9467bd"/>
   </g>
   <g id="patch_183">
    <path d="M 107.061136 122.080002 
L 205.771152 122.080002 
L 205.771152 103.325694 
L 107.061136 103.325694 
z
" clip-path="url(#pe107c63802)" style="fill: #8c564b"/>
   </g>
   <g id="patch_184">
    <path d="M 230.448656 107.782844 
L 329.158671 107.782844 
L 329.158671 86.872767 
L 230.448656 86.872767 
z
" clip-path="url(#pe107c63802)" style="fill: #8c564b"/>
   </g>
   <g id="patch_185">
    <path d="M 353.836175 90.019035 
L 452.54619 90.019035 
L 452.54619 66.192944 
L 353.836175 66.192944 
z
" clip-path="url(#pe107c63802)" style="fill: #8c564b"/>
   </g>
   <g id="patch_186">
    <path d="M 477.223694 72.592445 
L 575.93371 72.592445 
L 575.93371 46.136 
L 477.223694 46.136 
z
" clip-path="url(#pe107c63802)" style="fill: #8c564b"/>
   </g>
   <g id="patch_187">
    <path d="M 600.611213 130.899951 
L 699.321229 130.899951 
L 699.321229 113.545074 
L 600.611213 113.545074 
z
" clip-path="url(#pe107c63802)" style="fill: #8c564b"/>
   </g>
   <g id="patch_188">
    <path d="M 723.998733 108.765602 
L 822.708748 108.765602 
L 822.708748 87.951871 
L 723.998733 87.951871 
z
" clip-path="url(#pe107c63802)" style="fill: #8c564b"/>
   </g>
   <g id="patch_189">
    <path d="M 847.386252 129.619995 
L 946.096267 129.619995 
L 946.096267 114.99858 
L 847.386252 114.99858 
z
" clip-path="url(#pe107c63802)" style="fill: #8c564b"/>
   </g>
   <g id="patch_190">
    <path d="M 970.773771 115.564457 
L 1069.483787 115.564457 
L 1069.483787 99.145434 
L 970.773771 99.145434 
z
" clip-path="url(#pe107c63802)" style="fill: #8c564b"/>
   </g>
   <g id="patch_191">
    <path d="M 1094.16129 97.934 
L 1192.871306 97.934 
L 1192.871306 79.434352 
L 1094.16129 79.434352 
z
" clip-path="url(#pe107c63802)" style="fill: #8c564b"/>
   </g>
   <g id="patch_192">
    <path d="M 1217.54881 80.213676 
L 1316.258825 80.213676 
L 1316.258825 59.458682 
L 1217.54881 59.458682 
z
" clip-path="url(#pe107c63802)" style="fill: #8c564b"/>
   </g>
   <g id="patch_193">
    <path d="M 1340.936329 136.249476 
L 1439.646344 136.249476 
L 1439.646344 122.610468 
L 1340.936329 122.610468 
z
" clip-path="url(#pe107c63802)" style="fill: #8c564b"/>
   </g>
   <g id="patch_194">
    <path d="M 1464.323848 111.65134 
L 1563.033864 111.65134 
L 1563.033864 94.816177 
L 1464.323848 94.816177 
z
" clip-path="url(#pe107c63802)" style="fill: #8c564b"/>
   </g>
   <g id="matplotlib.axis_1">
    <g id="xtick_1">
     <g id="line2d_1">
      <defs>
       <path id="m2a34c50ad9" d="M 0 0 
L 0 3.5 
" style="stroke: #000000; stroke-width: 0.8"/>
      </defs>
      <g>
       <use xlink:href="#m2a34c50ad9" x="156.416144" y="242.456" style="stroke: #000000; stroke-width: 0.8"/>
      </g>
     </g>
     <g id="text_1">
      <!-- flight -->
      <g transform="translate(143.574738 257.054437) scale(0.1 -0.1)">
       <defs>
        <path id="DejaVuSans-66" d="M 2375 4863 
L 2375 4384 
L 1825 4384 
Q 1516 4384 1395 4259 
Q 1275 4134 1275 3809 
L 1275 3500 
L 2222 3500 
L 2222 3053 
L 1275 3053 
L 1275 0 
L 697 0 
L 697 3053 
L 147 3053 
L 147 3500 
L 697 3500 
L 697 3744 
Q 697 4328 969 4595 
Q 1241 4863 1831 4863 
L 2375 4863 
z
" transform="scale(0.015625)"/>
        <path id="DejaVuSans-6c" d="M 603 4863 
L 1178 4863 
L 1178 0 
L 603 0 
L 603 4863 
z
" transform="scale(0.015625)"/>
        <path id="DejaVuSans-69" d="M 603 3500 
L 1178 3500 
L 1178 0 
L 603 0 
L 603 3500 
z
M 603 4863 
L 1178 4863 
L 1178 4134 
L 603 4134 
L 603 4863 
z
" transform="scale(0.015625)"/>
        <path id="DejaVuSans-67" d="M 2906 1791 
Q 2906 2416 2648 2759 
Q 2391 3103 1925 3103 
Q 1463 3103 1205 2759 
Q 947 2416 947 1791 
Q 947 1169 1205 825 
Q 1463 481 1925 481 
Q 2391 481 2648 825 
Q 2906 1169 2906 1791 
z
M 3481 434 
Q 3481 -459 3084 -895 
Q 2688 -1331 1869 -1331 
Q 1566 -1331 1297 -1286 
Q 1028 -1241 775 -1147 
L 775 -588 
Q 1028 -725 1275 -790 
Q 1522 -856 1778 -856 
Q 2344 -856 2625 -561 
Q 2906 -266 2906 331 
L 2906 616 
Q 2728 306 2450 153 
Q 2172 0 1784 0 
Q 1141 0 747 490 
Q 353 981 353 1791 
Q 353 2603 747 3093 
Q 1141 3584 1784 3584 
Q 2172 3584 2450 3431 
Q 2728 3278 2906 2969 
L 2906 3500 
L 3481 3500 
L 3481 434 
z
" transform="scale(0.015625)"/>
        <path id="DejaVuSans-68" d="M 3513 2113 
L 3513 0 
L 2938 0 
L 2938 2094 
Q 2938 2591 2744 2837 
Q 2550 3084 2163 3084 
Q 1697 3084 1428 2787 
Q 1159 2491 1159 1978 
L 1159 0 
L 581 0 
L 581 4863 
L 1159 4863 
L 1159 2956 
Q 1366 3272 1645 3428 
Q 1925 3584 2291 3584 
Q 2894 3584 3203 3211 
Q 3513 2838 3513 2113 
z
" transform="scale(0.015625)"/>
        <path id="DejaVuSans-74" d="M 1172 4494 
L 1172 3500 
L 2356 3500 
L 2356 3053 
L 1172 3053 
L 1172 1153 
Q 1172 725 1289 603 
Q 1406 481 1766 481 
L 2356 481 
L 2356 0 
L 1766 0 
Q 1100 0 847 248 
Q 594 497 594 1153 
L 594 3053 
L 172 3053 
L 172 3500 
L 594 3500 
L 594 4494 
L 1172 4494 
z
" transform="scale(0.015625)"/>
       </defs>
       <use xlink:href="#DejaVuSans-66"/>
       <use xlink:href="#DejaVuSans-6c" x="35.205078"/>
       <use xlink:href="#DejaVuSans-69" x="62.988281"/>
       <use xlink:href="#DejaVuSans-67" x="90.771484"/>
       <use xlink:href="#DejaVuSans-68" x="154.248047"/>
       <use xlink:href="#DejaVuSans-74" x="217.626953"/>
      </g>
      <!-- myclimate-ECO. -->
      <g transform="translate(116.308332 268.25225) scale(0.1 -0.1)">
       <defs>
        <path id="DejaVuSans-6d" d="M 3328 2828 
Q 3544 3216 3844 3400 
Q 4144 3584 4550 3584 
Q 5097 3584 5394 3201 
Q 5691 2819 5691 2113 
L 5691 0 
L 5113 0 
L 5113 2094 
Q 5113 2597 4934 2840 
Q 4756 3084 4391 3084 
Q 3944 3084 3684 2787 
Q 3425 2491 3425 1978 
L 3425 0 
L 2847 0 
L 2847 2094 
Q 2847 2600 2669 2842 
Q 2491 3084 2119 3084 
Q 1678 3084 1418 2786 
Q 1159 2488 1159 1978 
L 1159 0 
L 581 0 
L 581 3500 
L 1159 3500 
L 1159 2956 
Q 1356 3278 1631 3431 
Q 1906 3584 2284 3584 
Q 2666 3584 2933 3390 
Q 3200 3197 3328 2828 
z
" transform="scale(0.015625)"/>
        <path id="DejaVuSans-79" d="M 2059 -325 
Q 1816 -950 1584 -1140 
Q 1353 -1331 966 -1331 
L 506 -1331 
L 506 -850 
L 844 -850 
Q 1081 -850 1212 -737 
Q 1344 -625 1503 -206 
L 1606 56 
L 191 3500 
L 800 3500 
L 1894 763 
L 2988 3500 
L 3597 3500 
L 2059 -325 
z
" transform="scale(0.015625)"/>
        <path id="DejaVuSans-63" d="M 3122 3366 
L 3122 2828 
Q 2878 2963 2633 3030 
Q 2388 3097 2138 3097 
Q 1578 3097 1268 2742 
Q 959 2388 959 1747 
Q 959 1106 1268 751 
Q 1578 397 2138 397 
Q 2388 397 2633 464 
Q 2878 531 3122 666 
L 3122 134 
Q 2881 22 2623 -34 
Q 2366 -91 2075 -91 
Q 1284 -91 818 406 
Q 353 903 353 1747 
Q 353 2603 823 3093 
Q 1294 3584 2113 3584 
Q 2378 3584 2631 3529 
Q 2884 3475 3122 3366 
z
" transform="scale(0.015625)"/>
        <path id="DejaVuSans-61" d="M 2194 1759 
Q 1497 1759 1228 1600 
Q 959 1441 959 1056 
Q 959 750 1161 570 
Q 1363 391 1709 391 
Q 2188 391 2477 730 
Q 2766 1069 2766 1631 
L 2766 1759 
L 2194 1759 
z
M 3341 1997 
L 3341 0 
L 2766 0 
L 2766 531 
Q 2569 213 2275 61 
Q 1981 -91 1556 -91 
Q 1019 -91 701 211 
Q 384 513 384 1019 
Q 384 1609 779 1909 
Q 1175 2209 1959 2209 
L 2766 2209 
L 2766 2266 
Q 2766 2663 2505 2880 
Q 2244 3097 1772 3097 
Q 1472 3097 1187 3025 
Q 903 2953 641 2809 
L 641 3341 
Q 956 3463 1253 3523 
Q 1550 3584 1831 3584 
Q 2591 3584 2966 3190 
Q 3341 2797 3341 1997 
z
" transform="scale(0.015625)"/>
        <path id="DejaVuSans-65" d="M 3597 1894 
L 3597 1613 
L 953 1613 
Q 991 1019 1311 708 
Q 1631 397 2203 397 
Q 2534 397 2845 478 
Q 3156 559 3463 722 
L 3463 178 
Q 3153 47 2828 -22 
Q 2503 -91 2169 -91 
Q 1331 -91 842 396 
Q 353 884 353 1716 
Q 353 2575 817 3079 
Q 1281 3584 2069 3584 
Q 2775 3584 3186 3129 
Q 3597 2675 3597 1894 
z
M 3022 2063 
Q 3016 2534 2758 2815 
Q 2500 3097 2075 3097 
Q 1594 3097 1305 2825 
Q 1016 2553 972 2059 
L 3022 2063 
z
" transform="scale(0.015625)"/>
        <path id="DejaVuSans-2d" d="M 313 2009 
L 1997 2009 
L 1997 1497 
L 313 1497 
L 313 2009 
z
" transform="scale(0.015625)"/>
        <path id="DejaVuSans-45" d="M 628 4666 
L 3578 4666 
L 3578 4134 
L 1259 4134 
L 1259 2753 
L 3481 2753 
L 3481 2222 
L 1259 2222 
L 1259 531 
L 3634 531 
L 3634 0 
L 628 0 
L 628 4666 
z
" transform="scale(0.015625)"/>
        <path id="DejaVuSans-43" d="M 4122 4306 
L 4122 3641 
Q 3803 3938 3442 4084 
Q 3081 4231 2675 4231 
Q 1875 4231 1450 3742 
Q 1025 3253 1025 2328 
Q 1025 1406 1450 917 
Q 1875 428 2675 428 
Q 3081 428 3442 575 
Q 3803 722 4122 1019 
L 4122 359 
Q 3791 134 3420 21 
Q 3050 -91 2638 -91 
Q 1578 -91 968 557 
Q 359 1206 359 2328 
Q 359 3453 968 4101 
Q 1578 4750 2638 4750 
Q 3056 4750 3426 4639 
Q 3797 4528 4122 4306 
z
" transform="scale(0.015625)"/>
        <path id="DejaVuSans-4f" d="M 2522 4238 
Q 1834 4238 1429 3725 
Q 1025 3213 1025 2328 
Q 1025 1447 1429 934 
Q 1834 422 2522 422 
Q 3209 422 3611 934 
Q 4013 1447 4013 2328 
Q 4013 3213 3611 3725 
Q 3209 4238 2522 4238 
z
M 2522 4750 
Q 3503 4750 4090 4092 
Q 4678 3434 4678 2328 
Q 4678 1225 4090 567 
Q 3503 -91 2522 -91 
Q 1538 -91 948 565 
Q 359 1222 359 2328 
Q 359 3434 948 4092 
Q 1538 4750 2522 4750 
z
" transform="scale(0.015625)"/>
        <path id="DejaVuSans-2e" d="M 684 794 
L 1344 794 
L 1344 0 
L 684 0 
L 684 794 
z
" transform="scale(0.015625)"/>
       </defs>
       <use xlink:href="#DejaVuSans-6d"/>
       <use xlink:href="#DejaVuSans-79" x="97.412109"/>
       <use xlink:href="#DejaVuSans-63" x="156.591797"/>
       <use xlink:href="#DejaVuSans-6c" x="211.572266"/>
       <use xlink:href="#DejaVuSans-69" x="239.355469"/>
       <use xlink:href="#DejaVuSans-6d" x="267.138672"/>
       <use xlink:href="#DejaVuSans-61" x="364.550781"/>
       <use xlink:href="#DejaVuSans-74" x="425.830078"/>
       <use xlink:href="#DejaVuSans-65" x="465.039062"/>
       <use xlink:href="#DejaVuSans-2d" x="526.5625"/>
       <use xlink:href="#DejaVuSans-45" x="562.646484"/>
       <use xlink:href="#DejaVuSans-43" x="625.830078"/>
       <use xlink:href="#DejaVuSans-4f" x="695.654297"/>
       <use xlink:href="#DejaVuSans-2e" x="770.365234"/>
      </g>
     </g>
    </g>
    <g id="xtick_2">
     <g id="line2d_2">
      <g>
       <use xlink:href="#m2a34c50ad9" x="279.803663" y="242.456" style="stroke: #000000; stroke-width: 0.8"/>
      </g>
     </g>
     <g id="text_2">
      <!-- flight -->
      <g transform="translate(266.962257 257.054437) scale(0.1 -0.1)">
       <use xlink:href="#DejaVuSans-66"/>
       <use xlink:href="#DejaVuSans-6c" x="35.205078"/>
       <use xlink:href="#DejaVuSans-69" x="62.988281"/>
       <use xlink:href="#DejaVuSans-67" x="90.771484"/>
       <use xlink:href="#DejaVuSans-68" x="154.248047"/>
       <use xlink:href="#DejaVuSans-74" x="217.626953"/>
      </g>
      <!-- myclimate-AVE. -->
      <g transform="translate(240.51382 268.25225) scale(0.1 -0.1)">
       <defs>
        <path id="DejaVuSans-41" d="M 2188 4044 
L 1331 1722 
L 3047 1722 
L 2188 4044 
z
M 1831 4666 
L 2547 4666 
L 4325 0 
L 3669 0 
L 3244 1197 
L 1141 1197 
L 716 0 
L 50 0 
L 1831 4666 
z
" transform="scale(0.015625)"/>
        <path id="DejaVuSans-56" d="M 1831 0 
L 50 4666 
L 709 4666 
L 2188 738 
L 3669 4666 
L 4325 4666 
L 2547 0 
L 1831 0 
z
" transform="scale(0.015625)"/>
       </defs>
       <use xlink:href="#DejaVuSans-6d"/>
       <use xlink:href="#DejaVuSans-79" x="97.412109"/>
       <use xlink:href="#DejaVuSans-63" x="156.591797"/>
       <use xlink:href="#DejaVuSans-6c" x="211.572266"/>
       <use xlink:href="#DejaVuSans-69" x="239.355469"/>
       <use xlink:href="#DejaVuSans-6d" x="267.138672"/>
       <use xlink:href="#DejaVuSans-61" x="364.550781"/>
       <use xlink:href="#DejaVuSans-74" x="425.830078"/>
       <use xlink:href="#DejaVuSans-65" x="465.039062"/>
       <use xlink:href="#DejaVuSans-2d" x="526.5625"/>
       <use xlink:href="#DejaVuSans-41" x="560.396484"/>
       <use xlink:href="#DejaVuSans-56" x="622.429688"/>
       <use xlink:href="#DejaVuSans-45" x="690.837891"/>
       <use xlink:href="#DejaVuSans-2e" x="754.021484"/>
      </g>
     </g>
    </g>
    <g id="xtick_3">
     <g id="line2d_3">
      <g>
       <use xlink:href="#m2a34c50ad9" x="403.191183" y="242.456" style="stroke: #000000; stroke-width: 0.8"/>
      </g>
     </g>
     <g id="text_3">
      <!-- flight -->
      <g transform="translate(390.349776 257.054437) scale(0.1 -0.1)">
       <use xlink:href="#DejaVuSans-66"/>
       <use xlink:href="#DejaVuSans-6c" x="35.205078"/>
       <use xlink:href="#DejaVuSans-69" x="62.988281"/>
       <use xlink:href="#DejaVuSans-67" x="90.771484"/>
       <use xlink:href="#DejaVuSans-68" x="154.248047"/>
       <use xlink:href="#DejaVuSans-74" x="217.626953"/>
      </g>
      <!-- goclimate-ECO. -->
      <g transform="translate(364.679464 268.25225) scale(0.1 -0.1)">
       <defs>
        <path id="DejaVuSans-6f" d="M 1959 3097 
Q 1497 3097 1228 2736 
Q 959 2375 959 1747 
Q 959 1119 1226 758 
Q 1494 397 1959 397 
Q 2419 397 2687 759 
Q 2956 1122 2956 1747 
Q 2956 2369 2687 2733 
Q 2419 3097 1959 3097 
z
M 1959 3584 
Q 2709 3584 3137 3096 
Q 3566 2609 3566 1747 
Q 3566 888 3137 398 
Q 2709 -91 1959 -91 
Q 1206 -91 779 398 
Q 353 888 353 1747 
Q 353 2609 779 3096 
Q 1206 3584 1959 3584 
z
" transform="scale(0.015625)"/>
       </defs>
       <use xlink:href="#DejaVuSans-67"/>
       <use xlink:href="#DejaVuSans-6f" x="63.476562"/>
       <use xlink:href="#DejaVuSans-63" x="124.658203"/>
       <use xlink:href="#DejaVuSans-6c" x="179.638672"/>
       <use xlink:href="#DejaVuSans-69" x="207.421875"/>
       <use xlink:href="#DejaVuSans-6d" x="235.205078"/>
       <use xlink:href="#DejaVuSans-61" x="332.617188"/>
       <use xlink:href="#DejaVuSans-74" x="393.896484"/>
       <use xlink:href="#DejaVuSans-65" x="433.105469"/>
       <use xlink:href="#DejaVuSans-2d" x="494.628906"/>
       <use xlink:href="#DejaVuSans-45" x="530.712891"/>
       <use xlink:href="#DejaVuSans-43" x="593.896484"/>
       <use xlink:href="#DejaVuSans-4f" x="663.720703"/>
       <use xlink:href="#DejaVuSans-2e" x="738.431641"/>
      </g>
     </g>
    </g>
    <g id="xtick_4">
     <g id="line2d_4">
      <g>
       <use xlink:href="#m2a34c50ad9" x="526.578702" y="242.456" style="stroke: #000000; stroke-width: 0.8"/>
      </g>
     </g>
     <g id="text_4">
      <!-- flight -->
      <g transform="translate(513.737296 257.054437) scale(0.1 -0.1)">
       <use xlink:href="#DejaVuSans-66"/>
       <use xlink:href="#DejaVuSans-6c" x="35.205078"/>
       <use xlink:href="#DejaVuSans-69" x="62.988281"/>
       <use xlink:href="#DejaVuSans-67" x="90.771484"/>
       <use xlink:href="#DejaVuSans-68" x="154.248047"/>
       <use xlink:href="#DejaVuSans-74" x="217.626953"/>
      </g>
      <!-- goclimate-AVE. -->
      <g transform="translate(488.884952 268.25225) scale(0.1 -0.1)">
       <use xlink:href="#DejaVuSans-67"/>
       <use xlink:href="#DejaVuSans-6f" x="63.476562"/>
       <use xlink:href="#DejaVuSans-63" x="124.658203"/>
       <use xlink:href="#DejaVuSans-6c" x="179.638672"/>
       <use xlink:href="#DejaVuSans-69" x="207.421875"/>
       <use xlink:href="#DejaVuSans-6d" x="235.205078"/>
       <use xlink:href="#DejaVuSans-61" x="332.617188"/>
       <use xlink:href="#DejaVuSans-74" x="393.896484"/>
       <use xlink:href="#DejaVuSans-65" x="433.105469"/>
       <use xlink:href="#DejaVuSans-2d" x="494.628906"/>
       <use xlink:href="#DejaVuSans-41" x="528.462891"/>
       <use xlink:href="#DejaVuSans-56" x="590.496094"/>
       <use xlink:href="#DejaVuSans-45" x="658.904297"/>
       <use xlink:href="#DejaVuSans-2e" x="722.087891"/>
      </g>
     </g>
    </g>
    <g id="xtick_5">
     <g id="line2d_5">
      <g>
       <use xlink:href="#m2a34c50ad9" x="649.966221" y="242.456" style="stroke: #000000; stroke-width: 0.8"/>
      </g>
     </g>
     <g id="text_5">
      <!-- flight -->
      <g transform="translate(637.124815 257.054437) scale(0.1 -0.1)">
       <use xlink:href="#DejaVuSans-66"/>
       <use xlink:href="#DejaVuSans-6c" x="35.205078"/>
       <use xlink:href="#DejaVuSans-69" x="62.988281"/>
       <use xlink:href="#DejaVuSans-67" x="90.771484"/>
       <use xlink:href="#DejaVuSans-68" x="154.248047"/>
       <use xlink:href="#DejaVuSans-74" x="217.626953"/>
      </g>
      <!-- ukgov-ECO. -->
      <g transform="translate(621.060752 268.25225) scale(0.1 -0.1)">
       <defs>
        <path id="DejaVuSans-75" d="M 544 1381 
L 544 3500 
L 1119 3500 
L 1119 1403 
Q 1119 906 1312 657 
Q 1506 409 1894 409 
Q 2359 409 2629 706 
Q 2900 1003 2900 1516 
L 2900 3500 
L 3475 3500 
L 3475 0 
L 2900 0 
L 2900 538 
Q 2691 219 2414 64 
Q 2138 -91 1772 -91 
Q 1169 -91 856 284 
Q 544 659 544 1381 
z
M 1991 3584 
L 1991 3584 
z
" transform="scale(0.015625)"/>
        <path id="DejaVuSans-6b" d="M 581 4863 
L 1159 4863 
L 1159 1991 
L 2875 3500 
L 3609 3500 
L 1753 1863 
L 3688 0 
L 2938 0 
L 1159 1709 
L 1159 0 
L 581 0 
L 581 4863 
z
" transform="scale(0.015625)"/>
        <path id="DejaVuSans-76" d="M 191 3500 
L 800 3500 
L 1894 563 
L 2988 3500 
L 3597 3500 
L 2284 0 
L 1503 0 
L 191 3500 
z
" transform="scale(0.015625)"/>
       </defs>
       <use xlink:href="#DejaVuSans-75"/>
       <use xlink:href="#DejaVuSans-6b" x="63.378906"/>
       <use xlink:href="#DejaVuSans-67" x="121.289062"/>
       <use xlink:href="#DejaVuSans-6f" x="184.765625"/>
       <use xlink:href="#DejaVuSans-76" x="245.947266"/>
       <use xlink:href="#DejaVuSans-2d" x="302.501953"/>
       <use xlink:href="#DejaVuSans-45" x="338.585938"/>
       <use xlink:href="#DejaVuSans-43" x="401.769531"/>
       <use xlink:href="#DejaVuSans-4f" x="471.59375"/>
       <use xlink:href="#DejaVuSans-2e" x="546.304688"/>
      </g>
     </g>
    </g>
    <g id="xtick_6">
     <g id="line2d_6">
      <g>
       <use xlink:href="#m2a34c50ad9" x="773.35374" y="242.456" style="stroke: #000000; stroke-width: 0.8"/>
      </g>
     </g>
     <g id="text_6">
      <!-- flight -->
      <g transform="translate(760.512334 257.054437) scale(0.1 -0.1)">
       <use xlink:href="#DejaVuSans-66"/>
       <use xlink:href="#DejaVuSans-6c" x="35.205078"/>
       <use xlink:href="#DejaVuSans-69" x="62.988281"/>
       <use xlink:href="#DejaVuSans-67" x="90.771484"/>
       <use xlink:href="#DejaVuSans-68" x="154.248047"/>
       <use xlink:href="#DejaVuSans-74" x="217.626953"/>
      </g>
      <!-- ukgov-AVE. -->
      <g transform="translate(745.26624 268.25225) scale(0.1 -0.1)">
       <use xlink:href="#DejaVuSans-75"/>
       <use xlink:href="#DejaVuSans-6b" x="63.378906"/>
       <use xlink:href="#DejaVuSans-67" x="121.289062"/>
       <use xlink:href="#DejaVuSans-6f" x="184.765625"/>
       <use xlink:href="#DejaVuSans-76" x="245.947266"/>
       <use xlink:href="#DejaVuSans-2d" x="302.501953"/>
       <use xlink:href="#DejaVuSans-41" x="336.335938"/>
       <use xlink:href="#DejaVuSans-56" x="398.369141"/>
       <use xlink:href="#DejaVuSans-45" x="466.777344"/>
       <use xlink:href="#DejaVuSans-2e" x="529.960938"/>
      </g>
     </g>
    </g>
    <g id="xtick_7">
     <g id="line2d_7">
      <g>
       <use xlink:href="#m2a34c50ad9" x="896.74126" y="242.456" style="stroke: #000000; stroke-width: 0.8"/>
      </g>
     </g>
     <g id="text_7">
      <!-- distance -->
      <g transform="translate(875.554541 257.054437) scale(0.1 -0.1)">
       <defs>
        <path id="DejaVuSans-64" d="M 2906 2969 
L 2906 4863 
L 3481 4863 
L 3481 0 
L 2906 0 
L 2906 525 
Q 2725 213 2448 61 
Q 2172 -91 1784 -91 
Q 1150 -91 751 415 
Q 353 922 353 1747 
Q 353 2572 751 3078 
Q 1150 3584 1784 3584 
Q 2172 3584 2448 3432 
Q 2725 3281 2906 2969 
z
M 947 1747 
Q 947 1113 1208 752 
Q 1469 391 1925 391 
Q 2381 391 2643 752 
Q 2906 1113 2906 1747 
Q 2906 2381 2643 2742 
Q 2381 3103 1925 3103 
Q 1469 3103 1208 2742 
Q 947 2381 947 1747 
z
" transform="scale(0.015625)"/>
        <path id="DejaVuSans-73" d="M 2834 3397 
L 2834 2853 
Q 2591 2978 2328 3040 
Q 2066 3103 1784 3103 
Q 1356 3103 1142 2972 
Q 928 2841 928 2578 
Q 928 2378 1081 2264 
Q 1234 2150 1697 2047 
L 1894 2003 
Q 2506 1872 2764 1633 
Q 3022 1394 3022 966 
Q 3022 478 2636 193 
Q 2250 -91 1575 -91 
Q 1294 -91 989 -36 
Q 684 19 347 128 
L 347 722 
Q 666 556 975 473 
Q 1284 391 1588 391 
Q 1994 391 2212 530 
Q 2431 669 2431 922 
Q 2431 1156 2273 1281 
Q 2116 1406 1581 1522 
L 1381 1569 
Q 847 1681 609 1914 
Q 372 2147 372 2553 
Q 372 3047 722 3315 
Q 1072 3584 1716 3584 
Q 2034 3584 2315 3537 
Q 2597 3491 2834 3397 
z
" transform="scale(0.015625)"/>
        <path id="DejaVuSans-6e" d="M 3513 2113 
L 3513 0 
L 2938 0 
L 2938 2094 
Q 2938 2591 2744 2837 
Q 2550 3084 2163 3084 
Q 1697 3084 1428 2787 
Q 1159 2491 1159 1978 
L 1159 0 
L 581 0 
L 581 3500 
L 1159 3500 
L 1159 2956 
Q 1366 3272 1645 3428 
Q 1925 3584 2291 3584 
Q 2894 3584 3203 3211 
Q 3513 2838 3513 2113 
z
" transform="scale(0.015625)"/>
       </defs>
       <use xlink:href="#DejaVuSans-64"/>
       <use xlink:href="#DejaVuSans-69" x="63.476562"/>
       <use xlink:href="#DejaVuSans-73" x="91.259766"/>
       <use xlink:href="#DejaVuSans-74" x="143.359375"/>
       <use xlink:href="#DejaVuSans-61" x="182.568359"/>
       <use xlink:href="#DejaVuSans-6e" x="243.847656"/>
       <use xlink:href="#DejaVuSans-63" x="307.226562"/>
       <use xlink:href="#DejaVuSans-65" x="362.207031"/>
      </g>
      <!-- myclimate-ECO. -->
      <g transform="translate(856.633447 268.25225) scale(0.1 -0.1)">
       <use xlink:href="#DejaVuSans-6d"/>
       <use xlink:href="#DejaVuSans-79" x="97.412109"/>
       <use xlink:href="#DejaVuSans-63" x="156.591797"/>
       <use xlink:href="#DejaVuSans-6c" x="211.572266"/>
       <use xlink:href="#DejaVuSans-69" x="239.355469"/>
       <use xlink:href="#DejaVuSans-6d" x="267.138672"/>
       <use xlink:href="#DejaVuSans-61" x="364.550781"/>
       <use xlink:href="#DejaVuSans-74" x="425.830078"/>
       <use xlink:href="#DejaVuSans-65" x="465.039062"/>
       <use xlink:href="#DejaVuSans-2d" x="526.5625"/>
       <use xlink:href="#DejaVuSans-45" x="562.646484"/>
       <use xlink:href="#DejaVuSans-43" x="625.830078"/>
       <use xlink:href="#DejaVuSans-4f" x="695.654297"/>
       <use xlink:href="#DejaVuSans-2e" x="770.365234"/>
      </g>
     </g>
    </g>
    <g id="xtick_8">
     <g id="line2d_8">
      <g>
       <use xlink:href="#m2a34c50ad9" x="1020.128779" y="242.456" style="stroke: #000000; stroke-width: 0.8"/>
      </g>
     </g>
     <g id="text_8">
      <!-- distance -->
      <g transform="translate(998.94206 257.054437) scale(0.1 -0.1)">
       <use xlink:href="#DejaVuSans-64"/>
       <use xlink:href="#DejaVuSans-69" x="63.476562"/>
       <use xlink:href="#DejaVuSans-73" x="91.259766"/>
       <use xlink:href="#DejaVuSans-74" x="143.359375"/>
       <use xlink:href="#DejaVuSans-61" x="182.568359"/>
       <use xlink:href="#DejaVuSans-6e" x="243.847656"/>
       <use xlink:href="#DejaVuSans-63" x="307.226562"/>
       <use xlink:href="#DejaVuSans-65" x="362.207031"/>
      </g>
      <!-- myclimate-AVE. -->
      <g transform="translate(980.838935 268.25225) scale(0.1 -0.1)">
       <use xlink:href="#DejaVuSans-6d"/>
       <use xlink:href="#DejaVuSans-79" x="97.412109"/>
       <use xlink:href="#DejaVuSans-63" x="156.591797"/>
       <use xlink:href="#DejaVuSans-6c" x="211.572266"/>
       <use xlink:href="#DejaVuSans-69" x="239.355469"/>
       <use xlink:href="#DejaVuSans-6d" x="267.138672"/>
       <use xlink:href="#DejaVuSans-61" x="364.550781"/>
       <use xlink:href="#DejaVuSans-74" x="425.830078"/>
       <use xlink:href="#DejaVuSans-65" x="465.039062"/>
       <use xlink:href="#DejaVuSans-2d" x="526.5625"/>
       <use xlink:href="#DejaVuSans-41" x="560.396484"/>
       <use xlink:href="#DejaVuSans-56" x="622.429688"/>
       <use xlink:href="#DejaVuSans-45" x="690.837891"/>
       <use xlink:href="#DejaVuSans-2e" x="754.021484"/>
      </g>
     </g>
    </g>
    <g id="xtick_9">
     <g id="line2d_9">
      <g>
       <use xlink:href="#m2a34c50ad9" x="1143.516298" y="242.456" style="stroke: #000000; stroke-width: 0.8"/>
      </g>
     </g>
     <g id="text_9">
      <!-- distance -->
      <g transform="translate(1122.329579 257.054437) scale(0.1 -0.1)">
       <use xlink:href="#DejaVuSans-64"/>
       <use xlink:href="#DejaVuSans-69" x="63.476562"/>
       <use xlink:href="#DejaVuSans-73" x="91.259766"/>
       <use xlink:href="#DejaVuSans-74" x="143.359375"/>
       <use xlink:href="#DejaVuSans-61" x="182.568359"/>
       <use xlink:href="#DejaVuSans-6e" x="243.847656"/>
       <use xlink:href="#DejaVuSans-63" x="307.226562"/>
       <use xlink:href="#DejaVuSans-65" x="362.207031"/>
      </g>
      <!-- goclimate-ECO. -->
      <g transform="translate(1105.004579 268.25225) scale(0.1 -0.1)">
       <use xlink:href="#DejaVuSans-67"/>
       <use xlink:href="#DejaVuSans-6f" x="63.476562"/>
       <use xlink:href="#DejaVuSans-63" x="124.658203"/>
       <use xlink:href="#DejaVuSans-6c" x="179.638672"/>
       <use xlink:href="#DejaVuSans-69" x="207.421875"/>
       <use xlink:href="#DejaVuSans-6d" x="235.205078"/>
       <use xlink:href="#DejaVuSans-61" x="332.617188"/>
       <use xlink:href="#DejaVuSans-74" x="393.896484"/>
       <use xlink:href="#DejaVuSans-65" x="433.105469"/>
       <use xlink:href="#DejaVuSans-2d" x="494.628906"/>
       <use xlink:href="#DejaVuSans-45" x="530.712891"/>
       <use xlink:href="#DejaVuSans-43" x="593.896484"/>
       <use xlink:href="#DejaVuSans-4f" x="663.720703"/>
       <use xlink:href="#DejaVuSans-2e" x="738.431641"/>
      </g>
     </g>
    </g>
    <g id="xtick_10">
     <g id="line2d_10">
      <g>
       <use xlink:href="#m2a34c50ad9" x="1266.903817" y="242.456" style="stroke: #000000; stroke-width: 0.8"/>
      </g>
     </g>
     <g id="text_10">
      <!-- distance -->
      <g transform="translate(1245.717099 257.054437) scale(0.1 -0.1)">
       <use xlink:href="#DejaVuSans-64"/>
       <use xlink:href="#DejaVuSans-69" x="63.476562"/>
       <use xlink:href="#DejaVuSans-73" x="91.259766"/>
       <use xlink:href="#DejaVuSans-74" x="143.359375"/>
       <use xlink:href="#DejaVuSans-61" x="182.568359"/>
       <use xlink:href="#DejaVuSans-6e" x="243.847656"/>
       <use xlink:href="#DejaVuSans-63" x="307.226562"/>
       <use xlink:href="#DejaVuSans-65" x="362.207031"/>
      </g>
      <!-- goclimate-AVE. -->
      <g transform="translate(1229.210067 268.25225) scale(0.1 -0.1)">
       <use xlink:href="#DejaVuSans-67"/>
       <use xlink:href="#DejaVuSans-6f" x="63.476562"/>
       <use xlink:href="#DejaVuSans-63" x="124.658203"/>
       <use xlink:href="#DejaVuSans-6c" x="179.638672"/>
       <use xlink:href="#DejaVuSans-69" x="207.421875"/>
       <use xlink:href="#DejaVuSans-6d" x="235.205078"/>
       <use xlink:href="#DejaVuSans-61" x="332.617188"/>
       <use xlink:href="#DejaVuSans-74" x="393.896484"/>
       <use xlink:href="#DejaVuSans-65" x="433.105469"/>
       <use xlink:href="#DejaVuSans-2d" x="494.628906"/>
       <use xlink:href="#DejaVuSans-41" x="528.462891"/>
       <use xlink:href="#DejaVuSans-56" x="590.496094"/>
       <use xlink:href="#DejaVuSans-45" x="658.904297"/>
       <use xlink:href="#DejaVuSans-2e" x="722.087891"/>
      </g>
     </g>
    </g>
    <g id="xtick_11">
     <g id="line2d_11">
      <g>
       <use xlink:href="#m2a34c50ad9" x="1390.291337" y="242.456" style="stroke: #000000; stroke-width: 0.8"/>
      </g>
     </g>
     <g id="text_11">
      <!-- distance -->
      <g transform="translate(1369.104618 257.054437) scale(0.1 -0.1)">
       <use xlink:href="#DejaVuSans-64"/>
       <use xlink:href="#DejaVuSans-69" x="63.476562"/>
       <use xlink:href="#DejaVuSans-73" x="91.259766"/>
       <use xlink:href="#DejaVuSans-74" x="143.359375"/>
       <use xlink:href="#DejaVuSans-61" x="182.568359"/>
       <use xlink:href="#DejaVuSans-6e" x="243.847656"/>
       <use xlink:href="#DejaVuSans-63" x="307.226562"/>
       <use xlink:href="#DejaVuSans-65" x="362.207031"/>
      </g>
      <!-- ukgov-ECO. -->
      <g transform="translate(1361.385868 268.25225) scale(0.1 -0.1)">
       <use xlink:href="#DejaVuSans-75"/>
       <use xlink:href="#DejaVuSans-6b" x="63.378906"/>
       <use xlink:href="#DejaVuSans-67" x="121.289062"/>
       <use xlink:href="#DejaVuSans-6f" x="184.765625"/>
       <use xlink:href="#DejaVuSans-76" x="245.947266"/>
       <use xlink:href="#DejaVuSans-2d" x="302.501953"/>
       <use xlink:href="#DejaVuSans-45" x="338.585938"/>
       <use xlink:href="#DejaVuSans-43" x="401.769531"/>
       <use xlink:href="#DejaVuSans-4f" x="471.59375"/>
       <use xlink:href="#DejaVuSans-2e" x="546.304688"/>
      </g>
     </g>
    </g>
    <g id="xtick_12">
     <g id="line2d_12">
      <g>
       <use xlink:href="#m2a34c50ad9" x="1513.678856" y="242.456" style="stroke: #000000; stroke-width: 0.8"/>
      </g>
     </g>
     <g id="text_12">
      <!-- distance -->
      <g transform="translate(1492.492137 257.054437) scale(0.1 -0.1)">
       <use xlink:href="#DejaVuSans-64"/>
       <use xlink:href="#DejaVuSans-69" x="63.476562"/>
       <use xlink:href="#DejaVuSans-73" x="91.259766"/>
       <use xlink:href="#DejaVuSans-74" x="143.359375"/>
       <use xlink:href="#DejaVuSans-61" x="182.568359"/>
       <use xlink:href="#DejaVuSans-6e" x="243.847656"/>
       <use xlink:href="#DejaVuSans-63" x="307.226562"/>
       <use xlink:href="#DejaVuSans-65" x="362.207031"/>
      </g>
      <!-- ukgov-AVE. -->
      <g transform="translate(1485.591356 268.25225) scale(0.1 -0.1)">
       <use xlink:href="#DejaVuSans-75"/>
       <use xlink:href="#DejaVuSans-6b" x="63.378906"/>
       <use xlink:href="#DejaVuSans-67" x="121.289062"/>
       <use xlink:href="#DejaVuSans-6f" x="184.765625"/>
       <use xlink:href="#DejaVuSans-76" x="245.947266"/>
       <use xlink:href="#DejaVuSans-2d" x="302.501953"/>
       <use xlink:href="#DejaVuSans-41" x="336.335938"/>
       <use xlink:href="#DejaVuSans-56" x="398.369141"/>
       <use xlink:href="#DejaVuSans-45" x="466.777344"/>
       <use xlink:href="#DejaVuSans-2e" x="529.960938"/>
      </g>
     </g>
    </g>
   </g>
   <g id="matplotlib.axis_2">
    <g id="ytick_1">
     <g id="line2d_13">
      <defs>
       <path id="m9733d049e8" d="M 0 0 
L -3.5 0 
" style="stroke: #000000; stroke-width: 0.8"/>
      </defs>
      <g>
       <use xlink:href="#m9733d049e8" x="34.2625" y="242.456" style="stroke: #000000; stroke-width: 0.8"/>
      </g>
     </g>
     <g id="text_13">
      <!-- 0 -->
      <g transform="translate(20.9 246.255219) scale(0.1 -0.1)">
       <defs>
        <path id="DejaVuSans-30" d="M 2034 4250 
Q 1547 4250 1301 3770 
Q 1056 3291 1056 2328 
Q 1056 1369 1301 889 
Q 1547 409 2034 409 
Q 2525 409 2770 889 
Q 3016 1369 3016 2328 
Q 3016 3291 2770 3770 
Q 2525 4250 2034 4250 
z
M 2034 4750 
Q 2819 4750 3233 4129 
Q 3647 3509 3647 2328 
Q 3647 1150 3233 529 
Q 2819 -91 2034 -91 
Q 1250 -91 836 529 
Q 422 1150 422 2328 
Q 422 3509 836 4129 
Q 1250 4750 2034 4750 
z
" transform="scale(0.015625)"/>
       </defs>
       <use xlink:href="#DejaVuSans-30"/>
      </g>
     </g>
    </g>
    <g id="ytick_2">
     <g id="line2d_14">
      <g>
       <use xlink:href="#m9733d049e8" x="34.2625" y="209.977686" style="stroke: #000000; stroke-width: 0.8"/>
      </g>
     </g>
     <g id="text_14">
      <!-- 1 -->
      <g transform="translate(20.9 213.776905) scale(0.1 -0.1)">
       <defs>
        <path id="DejaVuSans-31" d="M 794 531 
L 1825 531 
L 1825 4091 
L 703 3866 
L 703 4441 
L 1819 4666 
L 2450 4666 
L 2450 531 
L 3481 531 
L 3481 0 
L 794 0 
L 794 531 
z
" transform="scale(0.015625)"/>
       </defs>
       <use xlink:href="#DejaVuSans-31"/>
      </g>
     </g>
    </g>
    <g id="ytick_3">
     <g id="line2d_15">
      <g>
       <use xlink:href="#m9733d049e8" x="34.2625" y="177.499373" style="stroke: #000000; stroke-width: 0.8"/>
      </g>
     </g>
     <g id="text_15">
      <!-- 2 -->
      <g transform="translate(20.9 181.298591) scale(0.1 -0.1)">
       <defs>
        <path id="DejaVuSans-32" d="M 1228 531 
L 3431 531 
L 3431 0 
L 469 0 
L 469 531 
Q 828 903 1448 1529 
Q 2069 2156 2228 2338 
Q 2531 2678 2651 2914 
Q 2772 3150 2772 3378 
Q 2772 3750 2511 3984 
Q 2250 4219 1831 4219 
Q 1534 4219 1204 4116 
Q 875 4013 500 3803 
L 500 4441 
Q 881 4594 1212 4672 
Q 1544 4750 1819 4750 
Q 2544 4750 2975 4387 
Q 3406 4025 3406 3419 
Q 3406 3131 3298 2873 
Q 3191 2616 2906 2266 
Q 2828 2175 2409 1742 
Q 1991 1309 1228 531 
z
" transform="scale(0.015625)"/>
       </defs>
       <use xlink:href="#DejaVuSans-32"/>
      </g>
     </g>
    </g>
    <g id="ytick_4">
     <g id="line2d_16">
      <g>
       <use xlink:href="#m9733d049e8" x="34.2625" y="145.021059" style="stroke: #000000; stroke-width: 0.8"/>
      </g>
     </g>
     <g id="text_16">
      <!-- 3 -->
      <g transform="translate(20.9 148.820278) scale(0.1 -0.1)">
       <defs>
        <path id="DejaVuSans-33" d="M 2597 2516 
Q 3050 2419 3304 2112 
Q 3559 1806 3559 1356 
Q 3559 666 3084 287 
Q 2609 -91 1734 -91 
Q 1441 -91 1130 -33 
Q 819 25 488 141 
L 488 750 
Q 750 597 1062 519 
Q 1375 441 1716 441 
Q 2309 441 2620 675 
Q 2931 909 2931 1356 
Q 2931 1769 2642 2001 
Q 2353 2234 1838 2234 
L 1294 2234 
L 1294 2753 
L 1863 2753 
Q 2328 2753 2575 2939 
Q 2822 3125 2822 3475 
Q 2822 3834 2567 4026 
Q 2313 4219 1838 4219 
Q 1578 4219 1281 4162 
Q 984 4106 628 3988 
L 628 4550 
Q 988 4650 1302 4700 
Q 1616 4750 1894 4750 
Q 2613 4750 3031 4423 
Q 3450 4097 3450 3541 
Q 3450 3153 3228 2886 
Q 3006 2619 2597 2516 
z
" transform="scale(0.015625)"/>
       </defs>
       <use xlink:href="#DejaVuSans-33"/>
      </g>
     </g>
    </g>
    <g id="ytick_5">
     <g id="line2d_17">
      <g>
       <use xlink:href="#m9733d049e8" x="34.2625" y="112.542745" style="stroke: #000000; stroke-width: 0.8"/>
      </g>
     </g>
     <g id="text_17">
      <!-- 4 -->
      <g transform="translate(20.9 116.341964) scale(0.1 -0.1)">
       <defs>
        <path id="DejaVuSans-34" d="M 2419 4116 
L 825 1625 
L 2419 1625 
L 2419 4116 
z
M 2253 4666 
L 3047 4666 
L 3047 1625 
L 3713 1625 
L 3713 1100 
L 3047 1100 
L 3047 0 
L 2419 0 
L 2419 1100 
L 313 1100 
L 313 1709 
L 2253 4666 
z
" transform="scale(0.015625)"/>
       </defs>
       <use xlink:href="#DejaVuSans-34"/>
      </g>
     </g>
    </g>
    <g id="ytick_6">
     <g id="line2d_18">
      <g>
       <use xlink:href="#m9733d049e8" x="34.2625" y="80.064431" style="stroke: #000000; stroke-width: 0.8"/>
      </g>
     </g>
     <g id="text_18">
      <!-- 5 -->
      <g transform="translate(20.9 83.86365) scale(0.1 -0.1)">
       <defs>
        <path id="DejaVuSans-35" d="M 691 4666 
L 3169 4666 
L 3169 4134 
L 1269 4134 
L 1269 2991 
Q 1406 3038 1543 3061 
Q 1681 3084 1819 3084 
Q 2600 3084 3056 2656 
Q 3513 2228 3513 1497 
Q 3513 744 3044 326 
Q 2575 -91 1722 -91 
Q 1428 -91 1123 -41 
Q 819 9 494 109 
L 494 744 
Q 775 591 1075 516 
Q 1375 441 1709 441 
Q 2250 441 2565 725 
Q 2881 1009 2881 1497 
Q 2881 1984 2565 2268 
Q 2250 2553 1709 2553 
Q 1456 2553 1204 2497 
Q 953 2441 691 2322 
L 691 4666 
z
" transform="scale(0.015625)"/>
       </defs>
       <use xlink:href="#DejaVuSans-35"/>
      </g>
     </g>
    </g>
    <g id="ytick_7">
     <g id="line2d_19">
      <g>
       <use xlink:href="#m9733d049e8" x="34.2625" y="47.586118" style="stroke: #000000; stroke-width: 0.8"/>
      </g>
     </g>
     <g id="text_19">
      <!-- 6 -->
      <g transform="translate(20.9 51.385336) scale(0.1 -0.1)">
       <defs>
        <path id="DejaVuSans-36" d="M 2113 2584 
Q 1688 2584 1439 2293 
Q 1191 2003 1191 1497 
Q 1191 994 1439 701 
Q 1688 409 2113 409 
Q 2538 409 2786 701 
Q 3034 994 3034 1497 
Q 3034 2003 2786 2293 
Q 2538 2584 2113 2584 
z
M 3366 4563 
L 3366 3988 
Q 3128 4100 2886 4159 
Q 2644 4219 2406 4219 
Q 1781 4219 1451 3797 
Q 1122 3375 1075 2522 
Q 1259 2794 1537 2939 
Q 1816 3084 2150 3084 
Q 2853 3084 3261 2657 
Q 3669 2231 3669 1497 
Q 3669 778 3244 343 
Q 2819 -91 2113 -91 
Q 1303 -91 875 529 
Q 447 1150 447 2328 
Q 447 3434 972 4092 
Q 1497 4750 2381 4750 
Q 2619 4750 2861 4703 
Q 3103 4656 3366 4563 
z
" transform="scale(0.015625)"/>
       </defs>
       <use xlink:href="#DejaVuSans-36"/>
      </g>
     </g>
    </g>
    <g id="text_20">
     <!-- $CO_2$ Equivalent (kg) -->
     <g transform="translate(14.8 188.838) rotate(-90) scale(0.1 -0.1)">
      <defs>
       <path id="DejaVuSans-Oblique-43" d="M 4447 4306 
L 4319 3641 
Q 4019 3944 3683 4091 
Q 3347 4238 2956 4238 
Q 2422 4238 2017 3981 
Q 1613 3725 1319 3200 
Q 1131 2863 1032 2486 
Q 934 2109 934 1728 
Q 934 1091 1264 756 
Q 1594 422 2222 422 
Q 2656 422 3056 561 
Q 3456 700 3834 978 
L 3688 231 
Q 3316 72 2936 -9 
Q 2556 -91 2175 -91 
Q 1278 -91 773 396 
Q 269 884 269 1753 
Q 269 2309 461 2846 
Q 653 3384 1013 3828 
Q 1394 4300 1883 4525 
Q 2372 4750 3022 4750 
Q 3422 4750 3780 4639 
Q 4138 4528 4447 4306 
z
" transform="scale(0.015625)"/>
       <path id="DejaVuSans-Oblique-4f" d="M 2919 4238 
Q 2400 4238 2003 3986 
Q 1606 3734 1313 3219 
Q 1125 2891 1026 2522 
Q 928 2153 928 1778 
Q 928 1128 1239 775 
Q 1550 422 2119 422 
Q 2631 422 3032 676 
Q 3434 931 3719 1434 
Q 3909 1772 4009 2142 
Q 4109 2513 4109 2881 
Q 4109 3528 3796 3883 
Q 3484 4238 2919 4238 
z
M 2100 -91 
Q 1241 -91 748 418 
Q 256 928 256 1813 
Q 256 2319 448 2847 
Q 641 3375 978 3788 
Q 1375 4272 1862 4511 
Q 2350 4750 2938 4750 
Q 3794 4750 4287 4245 
Q 4781 3741 4781 2869 
Q 4781 2331 4593 1812 
Q 4406 1294 4056 872 
Q 3656 384 3173 146 
Q 2691 -91 2100 -91 
z
" transform="scale(0.015625)"/>
       <path id="DejaVuSans-20" transform="scale(0.015625)"/>
       <path id="DejaVuSans-71" d="M 947 1747 
Q 947 1113 1208 752 
Q 1469 391 1925 391 
Q 2381 391 2643 752 
Q 2906 1113 2906 1747 
Q 2906 2381 2643 2742 
Q 2381 3103 1925 3103 
Q 1469 3103 1208 2742 
Q 947 2381 947 1747 
z
M 2906 525 
Q 2725 213 2448 61 
Q 2172 -91 1784 -91 
Q 1150 -91 751 415 
Q 353 922 353 1747 
Q 353 2572 751 3078 
Q 1150 3584 1784 3584 
Q 2172 3584 2448 3432 
Q 2725 3281 2906 2969 
L 2906 3500 
L 3481 3500 
L 3481 -1331 
L 2906 -1331 
L 2906 525 
z
" transform="scale(0.015625)"/>
       <path id="DejaVuSans-28" d="M 1984 4856 
Q 1566 4138 1362 3434 
Q 1159 2731 1159 2009 
Q 1159 1288 1364 580 
Q 1569 -128 1984 -844 
L 1484 -844 
Q 1016 -109 783 600 
Q 550 1309 550 2009 
Q 550 2706 781 3412 
Q 1013 4119 1484 4856 
L 1984 4856 
z
" transform="scale(0.015625)"/>
       <path id="DejaVuSans-29" d="M 513 4856 
L 1013 4856 
Q 1481 4119 1714 3412 
Q 1947 2706 1947 2009 
Q 1947 1309 1714 600 
Q 1481 -109 1013 -844 
L 513 -844 
Q 928 -128 1133 580 
Q 1338 1288 1338 2009 
Q 1338 2731 1133 3434 
Q 928 4138 513 4856 
z
" transform="scale(0.015625)"/>
      </defs>
      <use xlink:href="#DejaVuSans-Oblique-43" transform="translate(0 0.015625)"/>
      <use xlink:href="#DejaVuSans-Oblique-4f" transform="translate(69.824219 0.015625)"/>
      <use xlink:href="#DejaVuSans-32" transform="translate(148.535156 -16.390625) scale(0.7)"/>
      <use xlink:href="#DejaVuSans-20" transform="translate(195.805664 0.015625)"/>
      <use xlink:href="#DejaVuSans-45" transform="translate(227.592773 0.015625)"/>
      <use xlink:href="#DejaVuSans-71" transform="translate(290.776367 0.015625)"/>
      <use xlink:href="#DejaVuSans-75" transform="translate(354.25293 0.015625)"/>
      <use xlink:href="#DejaVuSans-69" transform="translate(417.631836 0.015625)"/>
      <use xlink:href="#DejaVuSans-76" transform="translate(445.415039 0.015625)"/>
      <use xlink:href="#DejaVuSans-61" transform="translate(504.594727 0.015625)"/>
      <use xlink:href="#DejaVuSans-6c" transform="translate(565.874023 0.015625)"/>
      <use xlink:href="#DejaVuSans-65" transform="translate(593.657227 0.015625)"/>
      <use xlink:href="#DejaVuSans-6e" transform="translate(655.180664 0.015625)"/>
      <use xlink:href="#DejaVuSans-74" transform="translate(718.55957 0.015625)"/>
      <use xlink:href="#DejaVuSans-20" transform="translate(757.768555 0.015625)"/>
      <use xlink:href="#DejaVuSans-28" transform="translate(789.555664 0.015625)"/>
      <use xlink:href="#DejaVuSans-6b" transform="translate(828.569336 0.015625)"/>
      <use xlink:href="#DejaVuSans-67" transform="translate(886.479492 0.015625)"/>
      <use xlink:href="#DejaVuSans-29" transform="translate(949.956055 0.015625)"/>
     </g>
    </g>
    <g id="text_21">
     <!-- 1e6 -->
     <g transform="translate(34.2625 33.32) scale(0.1 -0.1)">
      <use xlink:href="#DejaVuSans-31"/>
      <use xlink:href="#DejaVuSans-65" x="63.623047"/>
      <use xlink:href="#DejaVuSans-36" x="125.146484"/>
     </g>
    </g>
   </g>
   <g id="patch_195">
    <path d="M 34.2625 242.456 
L 34.2625 36.32 
" style="fill: none; stroke: #000000; stroke-width: 0.8; stroke-linejoin: miter; stroke-linecap: square"/>
   </g>
   <g id="patch_196">
    <path d="M 1635.8325 242.456 
L 1635.8325 36.32 
" style="fill: none; stroke: #000000; stroke-width: 0.8; stroke-linejoin: miter; stroke-linecap: square"/>
   </g>
   <g id="patch_197">
    <path d="M 34.2625 242.456 
L 1635.8325 242.456 
" style="fill: none; stroke: #000000; stroke-width: 0.8; stroke-linejoin: miter; stroke-linecap: square"/>
   </g>
   <g id="patch_198">
    <path d="M 34.2625 36.32 
L 1635.8325 36.32 
" style="fill: none; stroke: #000000; stroke-width: 0.8; stroke-linejoin: miter; stroke-linecap: square"/>
   </g>
   <g id="text_22">
    <!-- $CO_2$ Equivalent (kg) by country for IETF109 (1279 participants) -->
    <g transform="translate(645.8675 16.32) scale(0.12 -0.12)">
     <defs>
      <path id="DejaVuSans-62" d="M 3116 1747 
Q 3116 2381 2855 2742 
Q 2594 3103 2138 3103 
Q 1681 3103 1420 2742 
Q 1159 2381 1159 1747 
Q 1159 1113 1420 752 
Q 1681 391 2138 391 
Q 2594 391 2855 752 
Q 3116 1113 3116 1747 
z
M 1159 2969 
Q 1341 3281 1617 3432 
Q 1894 3584 2278 3584 
Q 2916 3584 3314 3078 
Q 3713 2572 3713 1747 
Q 3713 922 3314 415 
Q 2916 -91 2278 -91 
Q 1894 -91 1617 61 
Q 1341 213 1159 525 
L 1159 0 
L 581 0 
L 581 4863 
L 1159 4863 
L 1159 2969 
z
" transform="scale(0.015625)"/>
      <path id="DejaVuSans-72" d="M 2631 2963 
Q 2534 3019 2420 3045 
Q 2306 3072 2169 3072 
Q 1681 3072 1420 2755 
Q 1159 2438 1159 1844 
L 1159 0 
L 581 0 
L 581 3500 
L 1159 3500 
L 1159 2956 
Q 1341 3275 1631 3429 
Q 1922 3584 2338 3584 
Q 2397 3584 2469 3576 
Q 2541 3569 2628 3553 
L 2631 2963 
z
" transform="scale(0.015625)"/>
      <path id="DejaVuSans-49" d="M 628 4666 
L 1259 4666 
L 1259 0 
L 628 0 
L 628 4666 
z
" transform="scale(0.015625)"/>
      <path id="DejaVuSans-54" d="M -19 4666 
L 3928 4666 
L 3928 4134 
L 2272 4134 
L 2272 0 
L 1638 0 
L 1638 4134 
L -19 4134 
L -19 4666 
z
" transform="scale(0.015625)"/>
      <path id="DejaVuSans-46" d="M 628 4666 
L 3309 4666 
L 3309 4134 
L 1259 4134 
L 1259 2759 
L 3109 2759 
L 3109 2228 
L 1259 2228 
L 1259 0 
L 628 0 
L 628 4666 
z
" transform="scale(0.015625)"/>
      <path id="DejaVuSans-39" d="M 703 97 
L 703 672 
Q 941 559 1184 500 
Q 1428 441 1663 441 
Q 2288 441 2617 861 
Q 2947 1281 2994 2138 
Q 2813 1869 2534 1725 
Q 2256 1581 1919 1581 
Q 1219 1581 811 2004 
Q 403 2428 403 3163 
Q 403 3881 828 4315 
Q 1253 4750 1959 4750 
Q 2769 4750 3195 4129 
Q 3622 3509 3622 2328 
Q 3622 1225 3098 567 
Q 2575 -91 1691 -91 
Q 1453 -91 1209 -44 
Q 966 3 703 97 
z
M 1959 2075 
Q 2384 2075 2632 2365 
Q 2881 2656 2881 3163 
Q 2881 3666 2632 3958 
Q 2384 4250 1959 4250 
Q 1534 4250 1286 3958 
Q 1038 3666 1038 3163 
Q 1038 2656 1286 2365 
Q 1534 2075 1959 2075 
z
" transform="scale(0.015625)"/>
      <path id="DejaVuSans-37" d="M 525 4666 
L 3525 4666 
L 3525 4397 
L 1831 0 
L 1172 0 
L 2766 4134 
L 525 4134 
L 525 4666 
z
" transform="scale(0.015625)"/>
      <path id="DejaVuSans-70" d="M 1159 525 
L 1159 -1331 
L 581 -1331 
L 581 3500 
L 1159 3500 
L 1159 2969 
Q 1341 3281 1617 3432 
Q 1894 3584 2278 3584 
Q 2916 3584 3314 3078 
Q 3713 2572 3713 1747 
Q 3713 922 3314 415 
Q 2916 -91 2278 -91 
Q 1894 -91 1617 61 
Q 1341 213 1159 525 
z
M 3116 1747 
Q 3116 2381 2855 2742 
Q 2594 3103 2138 3103 
Q 1681 3103 1420 2742 
Q 1159 2381 1159 1747 
Q 1159 1113 1420 752 
Q 1681 391 2138 391 
Q 2594 391 2855 752 
Q 3116 1113 3116 1747 
z
" transform="scale(0.015625)"/>
     </defs>
     <use xlink:href="#DejaVuSans-Oblique-43" transform="translate(0 0.015625)"/>
     <use xlink:href="#DejaVuSans-Oblique-4f" transform="translate(69.824219 0.015625)"/>
     <use xlink:href="#DejaVuSans-32" transform="translate(148.535156 -16.390625) scale(0.7)"/>
     <use xlink:href="#DejaVuSans-20" transform="translate(195.805664 0.015625)"/>
     <use xlink:href="#DejaVuSans-45" transform="translate(227.592773 0.015625)"/>
     <use xlink:href="#DejaVuSans-71" transform="translate(290.776367 0.015625)"/>
     <use xlink:href="#DejaVuSans-75" transform="translate(354.25293 0.015625)"/>
     <use xlink:href="#DejaVuSans-69" transform="translate(417.631836 0.015625)"/>
     <use xlink:href="#DejaVuSans-76" transform="translate(445.415039 0.015625)"/>
     <use xlink:href="#DejaVuSans-61" transform="translate(504.594727 0.015625)"/>
     <use xlink:href="#DejaVuSans-6c" transform="translate(565.874023 0.015625)"/>
     <use xlink:href="#DejaVuSans-65" transform="translate(593.657227 0.015625)"/>
     <use xlink:href="#DejaVuSans-6e" transform="translate(655.180664 0.015625)"/>
     <use xlink:href="#DejaVuSans-74" transform="translate(718.55957 0.015625)"/>
     <use xlink:href="#DejaVuSans-20" transform="translate(757.768555 0.015625)"/>
     <use xlink:href="#DejaVuSans-28" transform="translate(789.555664 0.015625)"/>
     <use xlink:href="#DejaVuSans-6b" transform="translate(828.569336 0.015625)"/>
     <use xlink:href="#DejaVuSans-67" transform="translate(886.479492 0.015625)"/>
     <use xlink:href="#DejaVuSans-29" transform="translate(949.956055 0.015625)"/>
     <use xlink:href="#DejaVuSans-20" transform="translate(988.969727 0.015625)"/>
     <use xlink:href="#DejaVuSans-62" transform="translate(1020.756836 0.015625)"/>
     <use xlink:href="#DejaVuSans-79" transform="translate(1084.233398 0.015625)"/>
     <use xlink:href="#DejaVuSans-20" transform="translate(1143.413086 0.015625)"/>
     <use xlink:href="#DejaVuSans-63" transform="translate(1175.200195 0.015625)"/>
     <use xlink:href="#DejaVuSans-6f" transform="translate(1230.180664 0.015625)"/>
     <use xlink:href="#DejaVuSans-75" transform="translate(1291.362305 0.015625)"/>
     <use xlink:href="#DejaVuSans-6e" transform="translate(1354.741211 0.015625)"/>
     <use xlink:href="#DejaVuSans-74" transform="translate(1418.120117 0.015625)"/>
     <use xlink:href="#DejaVuSans-72" transform="translate(1457.329102 0.015625)"/>
     <use xlink:href="#DejaVuSans-79" transform="translate(1498.442383 0.015625)"/>
     <use xlink:href="#DejaVuSans-20" transform="translate(1557.62207 0.015625)"/>
     <use xlink:href="#DejaVuSans-66" transform="translate(1589.40918 0.015625)"/>
     <use xlink:href="#DejaVuSans-6f" transform="translate(1624.614258 0.015625)"/>
     <use xlink:href="#DejaVuSans-72" transform="translate(1685.795898 0.015625)"/>
     <use xlink:href="#DejaVuSans-20" transform="translate(1726.90918 0.015625)"/>
     <use xlink:href="#DejaVuSans-49" transform="translate(1758.696289 0.015625)"/>
     <use xlink:href="#DejaVuSans-45" transform="translate(1788.188477 0.015625)"/>
     <use xlink:href="#DejaVuSans-54" transform="translate(1851.37207 0.015625)"/>
     <use xlink:href="#DejaVuSans-46" transform="translate(1912.456055 0.015625)"/>
     <use xlink:href="#DejaVuSans-31" transform="translate(1969.975586 0.015625)"/>
     <use xlink:href="#DejaVuSans-30" transform="translate(2033.598633 0.015625)"/>
     <use xlink:href="#DejaVuSans-39" transform="translate(2097.22168 0.015625)"/>
     <use xlink:href="#DejaVuSans-20" transform="translate(2160.844727 0.015625)"/>
     <use xlink:href="#DejaVuSans-28" transform="translate(2192.631836 0.015625)"/>
     <use xlink:href="#DejaVuSans-31" transform="translate(2231.645508 0.015625)"/>
     <use xlink:href="#DejaVuSans-32" transform="translate(2295.268555 0.015625)"/>
     <use xlink:href="#DejaVuSans-37" transform="translate(2358.891602 0.015625)"/>
     <use xlink:href="#DejaVuSans-39" transform="translate(2422.514648 0.015625)"/>
     <use xlink:href="#DejaVuSans-20" transform="translate(2486.137695 0.015625)"/>
     <use xlink:href="#DejaVuSans-70" transform="translate(2517.924805 0.015625)"/>
     <use xlink:href="#DejaVuSans-61" transform="translate(2581.401367 0.015625)"/>
     <use xlink:href="#DejaVuSans-72" transform="translate(2642.680664 0.015625)"/>
     <use xlink:href="#DejaVuSans-74" transform="translate(2683.793945 0.015625)"/>
     <use xlink:href="#DejaVuSans-69" transform="translate(2723.00293 0.015625)"/>
     <use xlink:href="#DejaVuSans-63" transform="translate(2750.786133 0.015625)"/>
     <use xlink:href="#DejaVuSans-69" transform="translate(2805.766602 0.015625)"/>
     <use xlink:href="#DejaVuSans-70" transform="translate(2833.549805 0.015625)"/>
     <use xlink:href="#DejaVuSans-61" transform="translate(2897.026367 0.015625)"/>
     <use xlink:href="#DejaVuSans-6e" transform="translate(2958.305664 0.015625)"/>
     <use xlink:href="#DejaVuSans-74" transform="translate(3021.68457 0.015625)"/>
     <use xlink:href="#DejaVuSans-73" transform="translate(3060.893555 0.015625)"/>
     <use xlink:href="#DejaVuSans-29" transform="translate(3112.993164 0.015625)"/>
    </g>
   </g>
   <g id="legend_1">
    <g id="patch_199">
     <path d="M 1642.8325 258.5564 
L 1708.435625 258.5564 
Q 1710.435625 258.5564 1710.435625 256.5564 
L 1710.435625 22.7064 
Q 1710.435625 20.7064 1708.435625 20.7064 
L 1642.8325 20.7064 
Q 1640.8325 20.7064 1640.8325 22.7064 
L 1640.8325 256.5564 
Q 1640.8325 258.5564 1642.8325 258.5564 
z
" style="fill: #ffffff; opacity: 0.8; stroke: #cccccc; stroke-linejoin: miter"/>
    </g>
    <g id="patch_200">
     <path d="M 1644.8325 32.304837 
L 1664.8325 32.304837 
L 1664.8325 25.304837 
L 1644.8325 25.304837 
z
" style="fill: #1f77b4"/>
    </g>
    <g id="text_23">
     <!-- US -->
     <g transform="translate(1672.8325 32.304837) scale(0.1 -0.1)">
      <defs>
       <path id="DejaVuSans-55" d="M 556 4666 
L 1191 4666 
L 1191 1831 
Q 1191 1081 1462 751 
Q 1734 422 2344 422 
Q 2950 422 3222 751 
Q 3494 1081 3494 1831 
L 3494 4666 
L 4128 4666 
L 4128 1753 
Q 4128 841 3676 375 
Q 3225 -91 2344 -91 
Q 1459 -91 1007 375 
Q 556 841 556 1753 
L 556 4666 
z
" transform="scale(0.015625)"/>
       <path id="DejaVuSans-53" d="M 3425 4513 
L 3425 3897 
Q 3066 4069 2747 4153 
Q 2428 4238 2131 4238 
Q 1616 4238 1336 4038 
Q 1056 3838 1056 3469 
Q 1056 3159 1242 3001 
Q 1428 2844 1947 2747 
L 2328 2669 
Q 3034 2534 3370 2195 
Q 3706 1856 3706 1288 
Q 3706 609 3251 259 
Q 2797 -91 1919 -91 
Q 1588 -91 1214 -16 
Q 841 59 441 206 
L 441 856 
Q 825 641 1194 531 
Q 1563 422 1919 422 
Q 2459 422 2753 634 
Q 3047 847 3047 1241 
Q 3047 1584 2836 1778 
Q 2625 1972 2144 2069 
L 1759 2144 
Q 1053 2284 737 2584 
Q 422 2884 422 3419 
Q 422 4038 858 4394 
Q 1294 4750 2059 4750 
Q 2388 4750 2728 4690 
Q 3069 4631 3425 4513 
z
" transform="scale(0.015625)"/>
      </defs>
      <use xlink:href="#DejaVuSans-55"/>
      <use xlink:href="#DejaVuSans-53" x="73.193359"/>
     </g>
    </g>
    <g id="patch_201">
     <path d="M 1644.8325 46.982962 
L 1664.8325 46.982962 
L 1664.8325 39.982962 
L 1644.8325 39.982962 
z
" style="fill: #ff7f0e"/>
    </g>
    <g id="text_24">
     <!-- DE -->
     <g transform="translate(1672.8325 46.982962) scale(0.1 -0.1)">
      <defs>
       <path id="DejaVuSans-44" d="M 1259 4147 
L 1259 519 
L 2022 519 
Q 2988 519 3436 956 
Q 3884 1394 3884 2338 
Q 3884 3275 3436 3711 
Q 2988 4147 2022 4147 
L 1259 4147 
z
M 628 4666 
L 1925 4666 
Q 3281 4666 3915 4102 
Q 4550 3538 4550 2338 
Q 4550 1131 3912 565 
Q 3275 0 1925 0 
L 628 0 
L 628 4666 
z
" transform="scale(0.015625)"/>
      </defs>
      <use xlink:href="#DejaVuSans-44"/>
      <use xlink:href="#DejaVuSans-45" x="77.001953"/>
     </g>
    </g>
    <g id="patch_202">
     <path d="M 1644.8325 61.661087 
L 1664.8325 61.661087 
L 1664.8325 54.661087 
L 1644.8325 54.661087 
z
" style="fill: #2ca02c"/>
    </g>
    <g id="text_25">
     <!-- CA -->
     <g transform="translate(1672.8325 61.661087) scale(0.1 -0.1)">
      <use xlink:href="#DejaVuSans-43"/>
      <use xlink:href="#DejaVuSans-41" x="69.824219"/>
     </g>
    </g>
    <g id="patch_203">
     <path d="M 1644.8325 76.339212 
L 1664.8325 76.339212 
L 1664.8325 69.339212 
L 1644.8325 69.339212 
z
" style="fill: #d62728"/>
    </g>
    <g id="text_26">
     <!-- GB -->
     <g transform="translate(1672.8325 76.339212) scale(0.1 -0.1)">
      <defs>
       <path id="DejaVuSans-47" d="M 3809 666 
L 3809 1919 
L 2778 1919 
L 2778 2438 
L 4434 2438 
L 4434 434 
Q 4069 175 3628 42 
Q 3188 -91 2688 -91 
Q 1594 -91 976 548 
Q 359 1188 359 2328 
Q 359 3472 976 4111 
Q 1594 4750 2688 4750 
Q 3144 4750 3555 4637 
Q 3966 4525 4313 4306 
L 4313 3634 
Q 3963 3931 3569 4081 
Q 3175 4231 2741 4231 
Q 1884 4231 1454 3753 
Q 1025 3275 1025 2328 
Q 1025 1384 1454 906 
Q 1884 428 2741 428 
Q 3075 428 3337 486 
Q 3600 544 3809 666 
z
" transform="scale(0.015625)"/>
       <path id="DejaVuSans-42" d="M 1259 2228 
L 1259 519 
L 2272 519 
Q 2781 519 3026 730 
Q 3272 941 3272 1375 
Q 3272 1813 3026 2020 
Q 2781 2228 2272 2228 
L 1259 2228 
z
M 1259 4147 
L 1259 2741 
L 2194 2741 
Q 2656 2741 2882 2914 
Q 3109 3088 3109 3444 
Q 3109 3797 2882 3972 
Q 2656 4147 2194 4147 
L 1259 4147 
z
M 628 4666 
L 2241 4666 
Q 2963 4666 3353 4366 
Q 3744 4066 3744 3513 
Q 3744 3084 3544 2831 
Q 3344 2578 2956 2516 
Q 3422 2416 3680 2098 
Q 3938 1781 3938 1306 
Q 3938 681 3513 340 
Q 3088 0 2303 0 
L 628 0 
L 628 4666 
z
" transform="scale(0.015625)"/>
      </defs>
      <use xlink:href="#DejaVuSans-47"/>
      <use xlink:href="#DejaVuSans-42" x="77.490234"/>
     </g>
    </g>
    <g id="patch_204">
     <path d="M 1644.8325 91.017337 
L 1664.8325 91.017337 
L 1664.8325 84.017337 
L 1644.8325 84.017337 
z
" style="fill: #9467bd"/>
    </g>
    <g id="text_27">
     <!-- FR -->
     <g transform="translate(1672.8325 91.017337) scale(0.1 -0.1)">
      <defs>
       <path id="DejaVuSans-52" d="M 2841 2188 
Q 3044 2119 3236 1894 
Q 3428 1669 3622 1275 
L 4263 0 
L 3584 0 
L 2988 1197 
Q 2756 1666 2539 1819 
Q 2322 1972 1947 1972 
L 1259 1972 
L 1259 0 
L 628 0 
L 628 4666 
L 2053 4666 
Q 2853 4666 3247 4331 
Q 3641 3997 3641 3322 
Q 3641 2881 3436 2590 
Q 3231 2300 2841 2188 
z
M 1259 4147 
L 1259 2491 
L 2053 2491 
Q 2509 2491 2742 2702 
Q 2975 2913 2975 3322 
Q 2975 3731 2742 3939 
Q 2509 4147 2053 4147 
L 1259 4147 
z
" transform="scale(0.015625)"/>
      </defs>
      <use xlink:href="#DejaVuSans-46"/>
      <use xlink:href="#DejaVuSans-52" x="57.519531"/>
     </g>
    </g>
    <g id="patch_205">
     <path d="M 1644.8325 105.695462 
L 1664.8325 105.695462 
L 1664.8325 98.695462 
L 1644.8325 98.695462 
z
" style="fill: #8c564b"/>
    </g>
    <g id="text_28">
     <!-- CN -->
     <g transform="translate(1672.8325 105.695462) scale(0.1 -0.1)">
      <defs>
       <path id="DejaVuSans-4e" d="M 628 4666 
L 1478 4666 
L 3547 763 
L 3547 4666 
L 4159 4666 
L 4159 0 
L 3309 0 
L 1241 3903 
L 1241 0 
L 628 0 
L 628 4666 
z
" transform="scale(0.015625)"/>
      </defs>
      <use xlink:href="#DejaVuSans-43"/>
      <use xlink:href="#DejaVuSans-4e" x="69.824219"/>
     </g>
    </g>
    <g id="patch_206">
     <path d="M 1644.8325 120.373587 
L 1664.8325 120.373587 
L 1664.8325 113.373587 
L 1644.8325 113.373587 
z
" style="fill: #e377c2"/>
    </g>
    <g id="text_29">
     <!-- NL -->
     <g transform="translate(1672.8325 120.373587) scale(0.1 -0.1)">
      <defs>
       <path id="DejaVuSans-4c" d="M 628 4666 
L 1259 4666 
L 1259 531 
L 3531 531 
L 3531 0 
L 628 0 
L 628 4666 
z
" transform="scale(0.015625)"/>
      </defs>
      <use xlink:href="#DejaVuSans-4e"/>
      <use xlink:href="#DejaVuSans-4c" x="74.804688"/>
     </g>
    </g>
    <g id="patch_207">
     <path d="M 1644.8325 135.051712 
L 1664.8325 135.051712 
L 1664.8325 128.051712 
L 1644.8325 128.051712 
z
" style="fill: #7f7f7f"/>
    </g>
    <g id="text_30">
     <!-- JP -->
     <g transform="translate(1672.8325 135.051712) scale(0.1 -0.1)">
      <defs>
       <path id="DejaVuSans-4a" d="M 628 4666 
L 1259 4666 
L 1259 325 
Q 1259 -519 939 -900 
Q 619 -1281 -91 -1281 
L -331 -1281 
L -331 -750 
L -134 -750 
Q 284 -750 456 -515 
Q 628 -281 628 325 
L 628 4666 
z
" transform="scale(0.015625)"/>
       <path id="DejaVuSans-50" d="M 1259 4147 
L 1259 2394 
L 2053 2394 
Q 2494 2394 2734 2622 
Q 2975 2850 2975 3272 
Q 2975 3691 2734 3919 
Q 2494 4147 2053 4147 
L 1259 4147 
z
M 628 4666 
L 2053 4666 
Q 2838 4666 3239 4311 
Q 3641 3956 3641 3272 
Q 3641 2581 3239 2228 
Q 2838 1875 2053 1875 
L 1259 1875 
L 1259 0 
L 628 0 
L 628 4666 
z
" transform="scale(0.015625)"/>
      </defs>
      <use xlink:href="#DejaVuSans-4a"/>
      <use xlink:href="#DejaVuSans-50" x="29.492188"/>
     </g>
    </g>
    <g id="patch_208">
     <path d="M 1644.8325 149.729837 
L 1664.8325 149.729837 
L 1664.8325 142.729837 
L 1644.8325 142.729837 
z
" style="fill: #bcbd22"/>
    </g>
    <g id="text_31">
     <!-- SE -->
     <g transform="translate(1672.8325 149.729837) scale(0.1 -0.1)">
      <use xlink:href="#DejaVuSans-53"/>
      <use xlink:href="#DejaVuSans-45" x="63.476562"/>
     </g>
    </g>
    <g id="patch_209">
     <path d="M 1644.8325 164.407962 
L 1664.8325 164.407962 
L 1664.8325 157.407962 
L 1644.8325 157.407962 
z
" style="fill: #17becf"/>
    </g>
    <g id="text_32">
     <!-- IT -->
     <g transform="translate(1672.8325 164.407962) scale(0.1 -0.1)">
      <use xlink:href="#DejaVuSans-49"/>
      <use xlink:href="#DejaVuSans-54" x="29.492188"/>
     </g>
    </g>
    <g id="patch_210">
     <path d="M 1644.8325 179.086087 
L 1664.8325 179.086087 
L 1664.8325 172.086087 
L 1644.8325 172.086087 
z
" style="fill: #1f77b4"/>
    </g>
    <g id="text_33">
     <!-- ES -->
     <g transform="translate(1672.8325 179.086087) scale(0.1 -0.1)">
      <use xlink:href="#DejaVuSans-45"/>
      <use xlink:href="#DejaVuSans-53" x="63.183594"/>
     </g>
    </g>
    <g id="patch_211">
     <path d="M 1644.8325 193.764212 
L 1664.8325 193.764212 
L 1664.8325 186.764212 
L 1644.8325 186.764212 
z
" style="fill: #ff7f0e"/>
    </g>
    <g id="text_34">
     <!-- AU -->
     <g transform="translate(1672.8325 193.764212) scale(0.1 -0.1)">
      <use xlink:href="#DejaVuSans-41"/>
      <use xlink:href="#DejaVuSans-55" x="68.408203"/>
     </g>
    </g>
    <g id="patch_212">
     <path d="M 1644.8325 208.442337 
L 1664.8325 208.442337 
L 1664.8325 201.442337 
L 1644.8325 201.442337 
z
" style="fill: #2ca02c"/>
    </g>
    <g id="text_35">
     <!-- FI -->
     <g transform="translate(1672.8325 208.442337) scale(0.1 -0.1)">
      <use xlink:href="#DejaVuSans-46"/>
      <use xlink:href="#DejaVuSans-49" x="57.519531"/>
     </g>
    </g>
    <g id="patch_213">
     <path d="M 1644.8325 223.120462 
L 1664.8325 223.120462 
L 1664.8325 216.120462 
L 1644.8325 216.120462 
z
" style="fill: #d62728"/>
    </g>
    <g id="text_36">
     <!-- CH -->
     <g transform="translate(1672.8325 223.120462) scale(0.1 -0.1)">
      <defs>
       <path id="DejaVuSans-48" d="M 628 4666 
L 1259 4666 
L 1259 2753 
L 3553 2753 
L 3553 4666 
L 4184 4666 
L 4184 0 
L 3553 0 
L 3553 2222 
L 1259 2222 
L 1259 0 
L 628 0 
L 628 4666 
z
" transform="scale(0.015625)"/>
      </defs>
      <use xlink:href="#DejaVuSans-43"/>
      <use xlink:href="#DejaVuSans-48" x="69.824219"/>
     </g>
    </g>
    <g id="patch_214">
     <path d="M 1644.8325 237.798587 
L 1664.8325 237.798587 
L 1664.8325 230.798587 
L 1644.8325 230.798587 
z
" style="fill: #9467bd"/>
    </g>
    <g id="text_37">
     <!-- IN -->
     <g transform="translate(1672.8325 237.798587) scale(0.1 -0.1)">
      <use xlink:href="#DejaVuSans-49"/>
      <use xlink:href="#DejaVuSans-4e" x="29.492188"/>
     </g>
    </g>
    <g id="patch_215">
     <path d="M 1644.8325 252.476712 
L 1664.8325 252.476712 
L 1664.8325 245.476712 
L 1644.8325 245.476712 
z
" style="fill: #8c564b"/>
    </g>
    <g id="text_38">
     <!-- Others -->
     <g transform="translate(1672.8325 252.476712) scale(0.1 -0.1)">
      <use xlink:href="#DejaVuSans-4f"/>
      <use xlink:href="#DejaVuSans-74" x="78.710938"/>
      <use xlink:href="#DejaVuSans-68" x="117.919922"/>
      <use xlink:href="#DejaVuSans-65" x="181.298828"/>
      <use xlink:href="#DejaVuSans-72" x="242.822266"/>
      <use xlink:href="#DejaVuSans-73" x="283.935547"/>
     </g>
    </g>
   </g>
  </g>
 </g>
 <defs>
  <clipPath id="pe107c63802">
   <rect x="34.2625" y="36.32" width="1601.57" height="206.136"/>
  </clipPath>
 </defs>
</svg>
