<?xml version="1.0" encoding="utf-8" standalone="no"?>
<!DOCTYPE svg PUBLIC "-//W3C//DTD SVG 1.1//EN"
  "http://www.w3.org/Graphics/SVG/1.1/DTD/svg11.dtd">
<!-- Created with matplotlib (https://matplotlib.org/) -->
<svg height="279.840313pt" version="1.1" viewBox="0 0 712.558125 279.840313" width="712.558125pt" xmlns="http://www.w3.org/2000/svg" xmlns:xlink="http://www.w3.org/1999/xlink">
 <defs>
  <style type="text/css">
*{stroke-linecap:butt;stroke-linejoin:round;}
  </style>
 </defs>
 <g id="figure_1">
  <g id="patch_1">
   <path d="M 0 279.840313 
L 712.558125 279.840313 
L 712.558125 0 
L 0 0 
z
" style="fill:#ffffff;"/>
  </g>
  <g id="axes_1">
   <g id="patch_2">
    <path d="M 53.328125 171.498125 
L 705.358125 171.498125 
L 705.358125 36.318125 
L 53.328125 36.318125 
z
" style="fill:#ffffff;"/>
   </g>
   <g id="patch_3">
    <path clip-path="url(#p9f8dc87457)" d="M 82.965852 171.498125 
L 94.58849 171.498125 
L 94.58849 92.760276 
L 82.965852 92.760276 
z
" style="fill:#1f77b4;"/>
   </g>
   <g id="patch_4">
    <path clip-path="url(#p9f8dc87457)" d="M 97.49415 171.498125 
L 109.116788 171.498125 
L 109.116788 102.99558 
L 97.49415 102.99558 
z
" style="fill:#1f77b4;"/>
   </g>
   <g id="patch_5">
    <path clip-path="url(#p9f8dc87457)" d="M 112.022448 171.498125 
L 123.645086 171.498125 
L 123.645086 89.369061 
L 112.022448 89.369061 
z
" style="fill:#1f77b4;"/>
   </g>
   <g id="patch_6">
    <path clip-path="url(#p9f8dc87457)" d="M 126.550745 171.498125 
L 138.173383 171.498125 
L 138.173383 102.317337 
L 126.550745 102.317337 
z
" style="fill:#1f77b4;"/>
   </g>
   <g id="patch_7">
    <path clip-path="url(#p9f8dc87457)" d="M 141.079043 171.498125 
L 152.701681 171.498125 
L 152.701681 94.486713 
L 141.079043 94.486713 
z
" style="fill:#1f77b4;"/>
   </g>
   <g id="patch_8">
    <path clip-path="url(#p9f8dc87457)" d="M 155.607341 171.498125 
L 167.229979 171.498125 
L 167.229979 108.791475 
L 155.607341 108.791475 
z
" style="fill:#1f77b4;"/>
   </g>
   <g id="patch_9">
    <path clip-path="url(#p9f8dc87457)" d="M 170.135638 171.498125 
L 181.758277 171.498125 
L 181.758277 92.883593 
L 170.135638 92.883593 
z
" style="fill:#1f77b4;"/>
   </g>
   <g id="patch_10">
    <path clip-path="url(#p9f8dc87457)" d="M 184.663936 171.498125 
L 196.286574 171.498125 
L 196.286574 116.005514 
L 184.663936 116.005514 
z
" style="fill:#1f77b4;"/>
   </g>
   <g id="patch_11">
    <path clip-path="url(#p9f8dc87457)" d="M 199.192234 171.498125 
L 210.814872 171.498125 
L 210.814872 92.883593 
L 199.192234 92.883593 
z
" style="fill:#1f77b4;"/>
   </g>
   <g id="patch_12">
    <path clip-path="url(#p9f8dc87457)" d="M 213.720531 171.498125 
L 225.34317 171.498125 
L 225.34317 94.795005 
L 213.720531 94.795005 
z
" style="fill:#1f77b4;"/>
   </g>
   <g id="patch_13">
    <path clip-path="url(#p9f8dc87457)" d="M 228.248829 171.498125 
L 239.871467 171.498125 
L 239.871467 111.627764 
L 228.248829 111.627764 
z
" style="fill:#1f77b4;"/>
   </g>
   <g id="patch_14">
    <path clip-path="url(#p9f8dc87457)" d="M 242.777127 171.498125 
L 254.399765 171.498125 
L 254.399765 88.259209 
L 242.777127 88.259209 
z
" style="fill:#1f77b4;"/>
   </g>
   <g id="patch_15">
    <path clip-path="url(#p9f8dc87457)" d="M 257.305424 171.498125 
L 268.928063 171.498125 
L 268.928063 87.889258 
L 257.305424 87.889258 
z
" style="fill:#1f77b4;"/>
   </g>
   <g id="patch_16">
    <path clip-path="url(#p9f8dc87457)" d="M 271.833722 171.498125 
L 283.45636 171.498125 
L 283.45636 88.19755 
L 271.833722 88.19755 
z
" style="fill:#1f77b4;"/>
   </g>
   <g id="patch_17">
    <path clip-path="url(#p9f8dc87457)" d="M 286.36202 171.498125 
L 297.984658 171.498125 
L 297.984658 96.089833 
L 286.36202 96.089833 
z
" style="fill:#1f77b4;"/>
   </g>
   <g id="patch_18">
    <path clip-path="url(#p9f8dc87457)" d="M 300.890318 171.498125 
L 312.512956 171.498125 
L 312.512956 86.841064 
L 300.890318 86.841064 
z
" style="fill:#1f77b4;"/>
   </g>
   <g id="patch_19">
    <path clip-path="url(#p9f8dc87457)" d="M 315.418615 171.498125 
L 327.041253 171.498125 
L 327.041253 87.457649 
L 315.418615 87.457649 
z
" style="fill:#1f77b4;"/>
   </g>
   <g id="patch_20">
    <path clip-path="url(#p9f8dc87457)" d="M 329.946913 171.498125 
L 341.569551 171.498125 
L 341.569551 86.347797 
L 329.946913 86.347797 
z
" style="fill:#1f77b4;"/>
   </g>
   <g id="patch_21">
    <path clip-path="url(#p9f8dc87457)" d="M 344.475211 171.498125 
L 356.097849 171.498125 
L 356.097849 85.484578 
L 344.475211 85.484578 
z
" style="fill:#1f77b4;"/>
   </g>
   <g id="patch_22">
    <path clip-path="url(#p9f8dc87457)" d="M 359.003508 171.498125 
L 370.626146 171.498125 
L 370.626146 85.42292 
L 359.003508 85.42292 
z
" style="fill:#1f77b4;"/>
   </g>
   <g id="patch_23">
    <path clip-path="url(#p9f8dc87457)" d="M 373.531806 171.498125 
L 385.154444 171.498125 
L 385.154444 82.155022 
L 373.531806 82.155022 
z
" style="fill:#1f77b4;"/>
   </g>
   <g id="patch_24">
    <path clip-path="url(#p9f8dc87457)" d="M 388.060104 171.498125 
L 399.682742 171.498125 
L 399.682742 78.20888 
L 388.060104 78.20888 
z
" style="fill:#1f77b4;"/>
   </g>
   <g id="patch_25">
    <path clip-path="url(#p9f8dc87457)" d="M 402.588401 171.498125 
L 414.211039 171.498125 
L 414.211039 101.207485 
L 402.588401 101.207485 
z
" style="fill:#1f77b4;"/>
   </g>
   <g id="patch_26">
    <path clip-path="url(#p9f8dc87457)" d="M 417.116699 171.498125 
L 428.739337 171.498125 
L 428.739337 69.884989 
L 417.116699 69.884989 
z
" style="fill:#1f77b4;"/>
   </g>
   <g id="patch_27">
    <path clip-path="url(#p9f8dc87457)" d="M 431.644997 171.498125 
L 443.267635 171.498125 
L 443.267635 69.761672 
L 431.644997 69.761672 
z
" style="fill:#1f77b4;"/>
   </g>
   <g id="patch_28">
    <path clip-path="url(#p9f8dc87457)" d="M 446.173294 171.498125 
L 457.795932 171.498125 
L 457.795932 93.130227 
L 446.173294 93.130227 
z
" style="fill:#1f77b4;"/>
   </g>
   <g id="patch_29">
    <path clip-path="url(#p9f8dc87457)" d="M 460.701592 171.498125 
L 472.32423 171.498125 
L 472.32423 71.303133 
L 460.701592 71.303133 
z
" style="fill:#1f77b4;"/>
   </g>
   <g id="patch_30">
    <path clip-path="url(#p9f8dc87457)" d="M 475.22989 171.498125 
L 486.852528 171.498125 
L 486.852528 59.0331 
L 475.22989 59.0331 
z
" style="fill:#1f77b4;"/>
   </g>
   <g id="patch_31">
    <path clip-path="url(#p9f8dc87457)" d="M 489.758187 171.498125 
L 501.380826 171.498125 
L 501.380826 75.310933 
L 489.758187 75.310933 
z
" style="fill:#1f77b4;"/>
   </g>
   <g id="patch_32">
    <path clip-path="url(#p9f8dc87457)" d="M 504.286485 171.498125 
L 515.909123 171.498125 
L 515.909123 61.869389 
L 504.286485 61.869389 
z
" style="fill:#1f77b4;"/>
   </g>
   <g id="patch_33">
    <path clip-path="url(#p9f8dc87457)" d="M 518.814783 171.498125 
L 530.437421 171.498125 
L 530.437421 62.670949 
L 518.814783 62.670949 
z
" style="fill:#1f77b4;"/>
   </g>
   <g id="patch_34">
    <path clip-path="url(#p9f8dc87457)" d="M 533.34308 171.498125 
L 544.965719 171.498125 
L 544.965719 86.532772 
L 533.34308 86.532772 
z
" style="fill:#1f77b4;"/>
   </g>
   <g id="patch_35">
    <path clip-path="url(#p9f8dc87457)" d="M 547.871378 171.498125 
L 559.494016 171.498125 
L 559.494016 42.755268 
L 547.871378 42.755268 
z
" style="fill:#1f77b4;"/>
   </g>
   <g id="patch_36">
    <path clip-path="url(#p9f8dc87457)" d="M 562.399676 171.498125 
L 574.022314 171.498125 
L 574.022314 48.057895 
L 562.399676 48.057895 
z
" style="fill:#1f77b4;"/>
   </g>
   <g id="patch_37">
    <path clip-path="url(#p9f8dc87457)" d="M 576.927973 171.498125 
L 588.550612 171.498125 
L 588.550612 72.967912 
L 576.927973 72.967912 
z
" style="fill:#1f77b4;"/>
   </g>
   <g id="patch_38">
    <path clip-path="url(#p9f8dc87457)" d="M 591.456271 171.498125 
L 603.078909 171.498125 
L 603.078909 90.232279 
L 591.456271 90.232279 
z
" style="fill:#1f77b4;"/>
   </g>
   <g id="patch_39">
    <path clip-path="url(#p9f8dc87457)" d="M 605.984569 171.498125 
L 617.607207 171.498125 
L 617.607207 100.097632 
L 605.984569 100.097632 
z
" style="fill:#1f77b4;"/>
   </g>
   <g id="patch_40">
    <path clip-path="url(#p9f8dc87457)" d="M 620.512867 171.498125 
L 632.135505 171.498125 
L 632.135505 92.698618 
L 620.512867 92.698618 
z
" style="fill:#1f77b4;"/>
   </g>
   <g id="patch_41">
    <path clip-path="url(#p9f8dc87457)" d="M 635.041164 171.498125 
L 646.663802 171.498125 
L 646.663802 90.108962 
L 635.041164 90.108962 
z
" style="fill:#1f77b4;"/>
   </g>
   <g id="patch_42">
    <path clip-path="url(#p9f8dc87457)" d="M 649.569462 171.498125 
L 661.1921 171.498125 
L 661.1921 84.498043 
L 649.569462 84.498043 
z
" style="fill:#1f77b4;"/>
   </g>
   <g id="patch_43">
    <path clip-path="url(#p9f8dc87457)" d="M 664.09776 171.498125 
L 675.720398 171.498125 
L 675.720398 90.232279 
L 664.09776 90.232279 
z
" style="fill:#1f77b4;"/>
   </g>
   <g id="matplotlib.axis_1">
    <g id="xtick_1">
     <g id="line2d_1">
      <defs>
       <path d="M 0 0 
L 0 3.5 
" id="ma7e4ea4a0f" style="stroke:#000000;stroke-width:0.8;"/>
      </defs>
      <g>
       <use style="stroke:#000000;stroke-width:0.8;" x="88.777171" xlink:href="#ma7e4ea4a0f" y="171.498125"/>
      </g>
     </g>
     <g id="text_1">
      <!-- Dublin  72 -->
      <defs>
       <path d="M 19.671875 64.796875 
L 19.671875 8.109375 
L 31.59375 8.109375 
Q 46.6875 8.109375 53.6875 14.9375 
Q 60.6875 21.78125 60.6875 36.53125 
Q 60.6875 51.171875 53.6875 57.984375 
Q 46.6875 64.796875 31.59375 64.796875 
z
M 9.8125 72.90625 
L 30.078125 72.90625 
Q 51.265625 72.90625 61.171875 64.09375 
Q 71.09375 55.28125 71.09375 36.53125 
Q 71.09375 17.671875 61.125 8.828125 
Q 51.171875 0 30.078125 0 
L 9.8125 0 
z
" id="DejaVuSans-68"/>
       <path d="M 8.5 21.578125 
L 8.5 54.6875 
L 17.484375 54.6875 
L 17.484375 21.921875 
Q 17.484375 14.15625 20.5 10.265625 
Q 23.53125 6.390625 29.59375 6.390625 
Q 36.859375 6.390625 41.078125 11.03125 
Q 45.3125 15.671875 45.3125 23.6875 
L 45.3125 54.6875 
L 54.296875 54.6875 
L 54.296875 0 
L 45.3125 0 
L 45.3125 8.40625 
Q 42.046875 3.421875 37.71875 1 
Q 33.40625 -1.421875 27.6875 -1.421875 
Q 18.265625 -1.421875 13.375 4.4375 
Q 8.5 10.296875 8.5 21.578125 
z
M 31.109375 56 
z
" id="DejaVuSans-117"/>
       <path d="M 48.6875 27.296875 
Q 48.6875 37.203125 44.609375 42.84375 
Q 40.53125 48.484375 33.40625 48.484375 
Q 26.265625 48.484375 22.1875 42.84375 
Q 18.109375 37.203125 18.109375 27.296875 
Q 18.109375 17.390625 22.1875 11.75 
Q 26.265625 6.109375 33.40625 6.109375 
Q 40.53125 6.109375 44.609375 11.75 
Q 48.6875 17.390625 48.6875 27.296875 
z
M 18.109375 46.390625 
Q 20.953125 51.265625 25.265625 53.625 
Q 29.59375 56 35.59375 56 
Q 45.5625 56 51.78125 48.09375 
Q 58.015625 40.1875 58.015625 27.296875 
Q 58.015625 14.40625 51.78125 6.484375 
Q 45.5625 -1.421875 35.59375 -1.421875 
Q 29.59375 -1.421875 25.265625 0.953125 
Q 20.953125 3.328125 18.109375 8.203125 
L 18.109375 0 
L 9.078125 0 
L 9.078125 75.984375 
L 18.109375 75.984375 
z
" id="DejaVuSans-98"/>
       <path d="M 9.421875 75.984375 
L 18.40625 75.984375 
L 18.40625 0 
L 9.421875 0 
z
" id="DejaVuSans-108"/>
       <path d="M 9.421875 54.6875 
L 18.40625 54.6875 
L 18.40625 0 
L 9.421875 0 
z
M 9.421875 75.984375 
L 18.40625 75.984375 
L 18.40625 64.59375 
L 9.421875 64.59375 
z
" id="DejaVuSans-105"/>
       <path d="M 54.890625 33.015625 
L 54.890625 0 
L 45.90625 0 
L 45.90625 32.71875 
Q 45.90625 40.484375 42.875 44.328125 
Q 39.84375 48.1875 33.796875 48.1875 
Q 26.515625 48.1875 22.3125 43.546875 
Q 18.109375 38.921875 18.109375 30.90625 
L 18.109375 0 
L 9.078125 0 
L 9.078125 54.6875 
L 18.109375 54.6875 
L 18.109375 46.1875 
Q 21.34375 51.125 25.703125 53.5625 
Q 30.078125 56 35.796875 56 
Q 45.21875 56 50.046875 50.171875 
Q 54.890625 44.34375 54.890625 33.015625 
z
" id="DejaVuSans-110"/>
       <path id="DejaVuSans-32"/>
       <path d="M 8.203125 72.90625 
L 55.078125 72.90625 
L 55.078125 68.703125 
L 28.609375 0 
L 18.3125 0 
L 43.21875 64.59375 
L 8.203125 64.59375 
z
" id="DejaVuSans-55"/>
       <path d="M 19.1875 8.296875 
L 53.609375 8.296875 
L 53.609375 0 
L 7.328125 0 
L 7.328125 8.296875 
Q 12.9375 14.109375 22.625 23.890625 
Q 32.328125 33.6875 34.8125 36.53125 
Q 39.546875 41.84375 41.421875 45.53125 
Q 43.3125 49.21875 43.3125 52.78125 
Q 43.3125 58.59375 39.234375 62.25 
Q 35.15625 65.921875 28.609375 65.921875 
Q 23.96875 65.921875 18.8125 64.3125 
Q 13.671875 62.703125 7.8125 59.421875 
L 7.8125 69.390625 
Q 13.765625 71.78125 18.9375 73 
Q 24.125 74.21875 28.421875 74.21875 
Q 39.75 74.21875 46.484375 68.546875 
Q 53.21875 62.890625 53.21875 53.421875 
Q 53.21875 48.921875 51.53125 44.890625 
Q 49.859375 40.875 45.40625 35.40625 
Q 44.1875 33.984375 37.640625 27.21875 
Q 31.109375 20.453125 19.1875 8.296875 
z
" id="DejaVuSans-50"/>
      </defs>
      <g transform="translate(91.536546 229.859063)rotate(-90)scale(0.1 -0.1)">
       <use xlink:href="#DejaVuSans-68"/>
       <use x="77.001953" xlink:href="#DejaVuSans-117"/>
       <use x="140.380859" xlink:href="#DejaVuSans-98"/>
       <use x="203.857422" xlink:href="#DejaVuSans-108"/>
       <use x="231.640625" xlink:href="#DejaVuSans-105"/>
       <use x="259.423828" xlink:href="#DejaVuSans-110"/>
       <use x="322.802734" xlink:href="#DejaVuSans-32"/>
       <use x="354.589844" xlink:href="#DejaVuSans-32"/>
       <use x="386.376953" xlink:href="#DejaVuSans-55"/>
       <use x="450" xlink:href="#DejaVuSans-50"/>
      </g>
     </g>
    </g>
    <g id="xtick_2">
     <g id="line2d_2">
      <g>
       <use style="stroke:#000000;stroke-width:0.8;" x="103.305469" xlink:href="#ma7e4ea4a0f" y="171.498125"/>
      </g>
     </g>
     <g id="text_2">
      <!-- Minneapolis  73 -->
      <defs>
       <path d="M 9.8125 72.90625 
L 24.515625 72.90625 
L 43.109375 23.296875 
L 61.8125 72.90625 
L 76.515625 72.90625 
L 76.515625 0 
L 66.890625 0 
L 66.890625 64.015625 
L 48.09375 14.015625 
L 38.1875 14.015625 
L 19.390625 64.015625 
L 19.390625 0 
L 9.8125 0 
z
" id="DejaVuSans-77"/>
       <path d="M 56.203125 29.59375 
L 56.203125 25.203125 
L 14.890625 25.203125 
Q 15.484375 15.921875 20.484375 11.0625 
Q 25.484375 6.203125 34.421875 6.203125 
Q 39.59375 6.203125 44.453125 7.46875 
Q 49.3125 8.734375 54.109375 11.28125 
L 54.109375 2.78125 
Q 49.265625 0.734375 44.1875 -0.34375 
Q 39.109375 -1.421875 33.890625 -1.421875 
Q 20.796875 -1.421875 13.15625 6.1875 
Q 5.515625 13.8125 5.515625 26.8125 
Q 5.515625 40.234375 12.765625 48.109375 
Q 20.015625 56 32.328125 56 
Q 43.359375 56 49.78125 48.890625 
Q 56.203125 41.796875 56.203125 29.59375 
z
M 47.21875 32.234375 
Q 47.125 39.59375 43.09375 43.984375 
Q 39.0625 48.390625 32.421875 48.390625 
Q 24.90625 48.390625 20.390625 44.140625 
Q 15.875 39.890625 15.1875 32.171875 
z
" id="DejaVuSans-101"/>
       <path d="M 34.28125 27.484375 
Q 23.390625 27.484375 19.1875 25 
Q 14.984375 22.515625 14.984375 16.5 
Q 14.984375 11.71875 18.140625 8.90625 
Q 21.296875 6.109375 26.703125 6.109375 
Q 34.1875 6.109375 38.703125 11.40625 
Q 43.21875 16.703125 43.21875 25.484375 
L 43.21875 27.484375 
z
M 52.203125 31.203125 
L 52.203125 0 
L 43.21875 0 
L 43.21875 8.296875 
Q 40.140625 3.328125 35.546875 0.953125 
Q 30.953125 -1.421875 24.3125 -1.421875 
Q 15.921875 -1.421875 10.953125 3.296875 
Q 6 8.015625 6 15.921875 
Q 6 25.140625 12.171875 29.828125 
Q 18.359375 34.515625 30.609375 34.515625 
L 43.21875 34.515625 
L 43.21875 35.40625 
Q 43.21875 41.609375 39.140625 45 
Q 35.0625 48.390625 27.6875 48.390625 
Q 23 48.390625 18.546875 47.265625 
Q 14.109375 46.140625 10.015625 43.890625 
L 10.015625 52.203125 
Q 14.9375 54.109375 19.578125 55.046875 
Q 24.21875 56 28.609375 56 
Q 40.484375 56 46.34375 49.84375 
Q 52.203125 43.703125 52.203125 31.203125 
z
" id="DejaVuSans-97"/>
       <path d="M 18.109375 8.203125 
L 18.109375 -20.796875 
L 9.078125 -20.796875 
L 9.078125 54.6875 
L 18.109375 54.6875 
L 18.109375 46.390625 
Q 20.953125 51.265625 25.265625 53.625 
Q 29.59375 56 35.59375 56 
Q 45.5625 56 51.78125 48.09375 
Q 58.015625 40.1875 58.015625 27.296875 
Q 58.015625 14.40625 51.78125 6.484375 
Q 45.5625 -1.421875 35.59375 -1.421875 
Q 29.59375 -1.421875 25.265625 0.953125 
Q 20.953125 3.328125 18.109375 8.203125 
z
M 48.6875 27.296875 
Q 48.6875 37.203125 44.609375 42.84375 
Q 40.53125 48.484375 33.40625 48.484375 
Q 26.265625 48.484375 22.1875 42.84375 
Q 18.109375 37.203125 18.109375 27.296875 
Q 18.109375 17.390625 22.1875 11.75 
Q 26.265625 6.109375 33.40625 6.109375 
Q 40.53125 6.109375 44.609375 11.75 
Q 48.6875 17.390625 48.6875 27.296875 
z
" id="DejaVuSans-112"/>
       <path d="M 30.609375 48.390625 
Q 23.390625 48.390625 19.1875 42.75 
Q 14.984375 37.109375 14.984375 27.296875 
Q 14.984375 17.484375 19.15625 11.84375 
Q 23.34375 6.203125 30.609375 6.203125 
Q 37.796875 6.203125 41.984375 11.859375 
Q 46.1875 17.53125 46.1875 27.296875 
Q 46.1875 37.015625 41.984375 42.703125 
Q 37.796875 48.390625 30.609375 48.390625 
z
M 30.609375 56 
Q 42.328125 56 49.015625 48.375 
Q 55.71875 40.765625 55.71875 27.296875 
Q 55.71875 13.875 49.015625 6.21875 
Q 42.328125 -1.421875 30.609375 -1.421875 
Q 18.84375 -1.421875 12.171875 6.21875 
Q 5.515625 13.875 5.515625 27.296875 
Q 5.515625 40.765625 12.171875 48.375 
Q 18.84375 56 30.609375 56 
z
" id="DejaVuSans-111"/>
       <path d="M 44.28125 53.078125 
L 44.28125 44.578125 
Q 40.484375 46.53125 36.375 47.5 
Q 32.28125 48.484375 27.875 48.484375 
Q 21.1875 48.484375 17.84375 46.4375 
Q 14.5 44.390625 14.5 40.28125 
Q 14.5 37.15625 16.890625 35.375 
Q 19.28125 33.59375 26.515625 31.984375 
L 29.59375 31.296875 
Q 39.15625 29.25 43.1875 25.515625 
Q 47.21875 21.78125 47.21875 15.09375 
Q 47.21875 7.46875 41.1875 3.015625 
Q 35.15625 -1.421875 24.609375 -1.421875 
Q 20.21875 -1.421875 15.453125 -0.5625 
Q 10.6875 0.296875 5.421875 2 
L 5.421875 11.28125 
Q 10.40625 8.6875 15.234375 7.390625 
Q 20.0625 6.109375 24.8125 6.109375 
Q 31.15625 6.109375 34.5625 8.28125 
Q 37.984375 10.453125 37.984375 14.40625 
Q 37.984375 18.0625 35.515625 20.015625 
Q 33.0625 21.96875 24.703125 23.78125 
L 21.578125 24.515625 
Q 13.234375 26.265625 9.515625 29.90625 
Q 5.8125 33.546875 5.8125 39.890625 
Q 5.8125 47.609375 11.28125 51.796875 
Q 16.75 56 26.8125 56 
Q 31.78125 56 36.171875 55.265625 
Q 40.578125 54.546875 44.28125 53.078125 
z
" id="DejaVuSans-115"/>
       <path d="M 40.578125 39.3125 
Q 47.65625 37.796875 51.625 33 
Q 55.609375 28.21875 55.609375 21.1875 
Q 55.609375 10.40625 48.1875 4.484375 
Q 40.765625 -1.421875 27.09375 -1.421875 
Q 22.515625 -1.421875 17.65625 -0.515625 
Q 12.796875 0.390625 7.625 2.203125 
L 7.625 11.71875 
Q 11.71875 9.328125 16.59375 8.109375 
Q 21.484375 6.890625 26.8125 6.890625 
Q 36.078125 6.890625 40.9375 10.546875 
Q 45.796875 14.203125 45.796875 21.1875 
Q 45.796875 27.640625 41.28125 31.265625 
Q 36.765625 34.90625 28.71875 34.90625 
L 20.21875 34.90625 
L 20.21875 43.015625 
L 29.109375 43.015625 
Q 36.375 43.015625 40.234375 45.921875 
Q 44.09375 48.828125 44.09375 54.296875 
Q 44.09375 59.90625 40.109375 62.90625 
Q 36.140625 65.921875 28.71875 65.921875 
Q 24.65625 65.921875 20.015625 65.03125 
Q 15.375 64.15625 9.8125 62.3125 
L 9.8125 71.09375 
Q 15.4375 72.65625 20.34375 73.4375 
Q 25.25 74.21875 29.59375 74.21875 
Q 40.828125 74.21875 47.359375 69.109375 
Q 53.90625 64.015625 53.90625 55.328125 
Q 53.90625 49.265625 50.4375 45.09375 
Q 46.96875 40.921875 40.578125 39.3125 
z
" id="DejaVuSans-51"/>
      </defs>
      <g transform="translate(106.064844 257.174688)rotate(-90)scale(0.1 -0.1)">
       <use xlink:href="#DejaVuSans-77"/>
       <use x="86.279297" xlink:href="#DejaVuSans-105"/>
       <use x="114.0625" xlink:href="#DejaVuSans-110"/>
       <use x="177.441406" xlink:href="#DejaVuSans-110"/>
       <use x="240.820312" xlink:href="#DejaVuSans-101"/>
       <use x="302.34375" xlink:href="#DejaVuSans-97"/>
       <use x="363.623047" xlink:href="#DejaVuSans-112"/>
       <use x="427.099609" xlink:href="#DejaVuSans-111"/>
       <use x="488.28125" xlink:href="#DejaVuSans-108"/>
       <use x="516.064453" xlink:href="#DejaVuSans-105"/>
       <use x="543.847656" xlink:href="#DejaVuSans-115"/>
       <use x="595.947266" xlink:href="#DejaVuSans-32"/>
       <use x="627.734375" xlink:href="#DejaVuSans-32"/>
       <use x="659.521484" xlink:href="#DejaVuSans-55"/>
       <use x="723.144531" xlink:href="#DejaVuSans-51"/>
      </g>
     </g>
    </g>
    <g id="xtick_3">
     <g id="line2d_3">
      <g>
       <use style="stroke:#000000;stroke-width:0.8;" x="117.833767" xlink:href="#ma7e4ea4a0f" y="171.498125"/>
      </g>
     </g>
     <g id="text_3">
      <!-- San Francisco  74 -->
      <defs>
       <path d="M 53.515625 70.515625 
L 53.515625 60.890625 
Q 47.90625 63.578125 42.921875 64.890625 
Q 37.9375 66.21875 33.296875 66.21875 
Q 25.25 66.21875 20.875 63.09375 
Q 16.5 59.96875 16.5 54.203125 
Q 16.5 49.359375 19.40625 46.890625 
Q 22.3125 44.4375 30.421875 42.921875 
L 36.375 41.703125 
Q 47.40625 39.59375 52.65625 34.296875 
Q 57.90625 29 57.90625 20.125 
Q 57.90625 9.515625 50.796875 4.046875 
Q 43.703125 -1.421875 29.984375 -1.421875 
Q 24.8125 -1.421875 18.96875 -0.25 
Q 13.140625 0.921875 6.890625 3.21875 
L 6.890625 13.375 
Q 12.890625 10.015625 18.65625 8.296875 
Q 24.421875 6.59375 29.984375 6.59375 
Q 38.421875 6.59375 43.015625 9.90625 
Q 47.609375 13.234375 47.609375 19.390625 
Q 47.609375 24.75 44.3125 27.78125 
Q 41.015625 30.8125 33.5 32.328125 
L 27.484375 33.5 
Q 16.453125 35.6875 11.515625 40.375 
Q 6.59375 45.0625 6.59375 53.421875 
Q 6.59375 63.09375 13.40625 68.65625 
Q 20.21875 74.21875 32.171875 74.21875 
Q 37.3125 74.21875 42.625 73.28125 
Q 47.953125 72.359375 53.515625 70.515625 
z
" id="DejaVuSans-83"/>
       <path d="M 9.8125 72.90625 
L 51.703125 72.90625 
L 51.703125 64.59375 
L 19.671875 64.59375 
L 19.671875 43.109375 
L 48.578125 43.109375 
L 48.578125 34.8125 
L 19.671875 34.8125 
L 19.671875 0 
L 9.8125 0 
z
" id="DejaVuSans-70"/>
       <path d="M 41.109375 46.296875 
Q 39.59375 47.171875 37.8125 47.578125 
Q 36.03125 48 33.890625 48 
Q 26.265625 48 22.1875 43.046875 
Q 18.109375 38.09375 18.109375 28.8125 
L 18.109375 0 
L 9.078125 0 
L 9.078125 54.6875 
L 18.109375 54.6875 
L 18.109375 46.1875 
Q 20.953125 51.171875 25.484375 53.578125 
Q 30.03125 56 36.53125 56 
Q 37.453125 56 38.578125 55.875 
Q 39.703125 55.765625 41.0625 55.515625 
z
" id="DejaVuSans-114"/>
       <path d="M 48.78125 52.59375 
L 48.78125 44.1875 
Q 44.96875 46.296875 41.140625 47.34375 
Q 37.3125 48.390625 33.40625 48.390625 
Q 24.65625 48.390625 19.8125 42.84375 
Q 14.984375 37.3125 14.984375 27.296875 
Q 14.984375 17.28125 19.8125 11.734375 
Q 24.65625 6.203125 33.40625 6.203125 
Q 37.3125 6.203125 41.140625 7.25 
Q 44.96875 8.296875 48.78125 10.40625 
L 48.78125 2.09375 
Q 45.015625 0.34375 40.984375 -0.53125 
Q 36.96875 -1.421875 32.421875 -1.421875 
Q 20.0625 -1.421875 12.78125 6.34375 
Q 5.515625 14.109375 5.515625 27.296875 
Q 5.515625 40.671875 12.859375 48.328125 
Q 20.21875 56 33.015625 56 
Q 37.15625 56 41.109375 55.140625 
Q 45.0625 54.296875 48.78125 52.59375 
z
" id="DejaVuSans-99"/>
       <path d="M 37.796875 64.3125 
L 12.890625 25.390625 
L 37.796875 25.390625 
z
M 35.203125 72.90625 
L 47.609375 72.90625 
L 47.609375 25.390625 
L 58.015625 25.390625 
L 58.015625 17.1875 
L 47.609375 17.1875 
L 47.609375 0 
L 37.796875 0 
L 37.796875 17.1875 
L 4.890625 17.1875 
L 4.890625 26.703125 
z
" id="DejaVuSans-52"/>
      </defs>
      <g transform="translate(120.593142 266.277813)rotate(-90)scale(0.1 -0.1)">
       <use xlink:href="#DejaVuSans-83"/>
       <use x="63.476562" xlink:href="#DejaVuSans-97"/>
       <use x="124.755859" xlink:href="#DejaVuSans-110"/>
       <use x="188.134766" xlink:href="#DejaVuSans-32"/>
       <use x="219.921875" xlink:href="#DejaVuSans-70"/>
       <use x="270.191406" xlink:href="#DejaVuSans-114"/>
       <use x="311.304688" xlink:href="#DejaVuSans-97"/>
       <use x="372.583984" xlink:href="#DejaVuSans-110"/>
       <use x="435.962891" xlink:href="#DejaVuSans-99"/>
       <use x="490.943359" xlink:href="#DejaVuSans-105"/>
       <use x="518.726562" xlink:href="#DejaVuSans-115"/>
       <use x="570.826172" xlink:href="#DejaVuSans-99"/>
       <use x="625.806641" xlink:href="#DejaVuSans-111"/>
       <use x="686.988281" xlink:href="#DejaVuSans-32"/>
       <use x="718.775391" xlink:href="#DejaVuSans-32"/>
       <use x="750.5625" xlink:href="#DejaVuSans-55"/>
       <use x="814.185547" xlink:href="#DejaVuSans-52"/>
      </g>
     </g>
    </g>
    <g id="xtick_4">
     <g id="line2d_4">
      <g>
       <use style="stroke:#000000;stroke-width:0.8;" x="132.362064" xlink:href="#ma7e4ea4a0f" y="171.498125"/>
      </g>
     </g>
     <g id="text_4">
      <!-- Stockholm  75 -->
      <defs>
       <path d="M 18.3125 70.21875 
L 18.3125 54.6875 
L 36.8125 54.6875 
L 36.8125 47.703125 
L 18.3125 47.703125 
L 18.3125 18.015625 
Q 18.3125 11.328125 20.140625 9.421875 
Q 21.96875 7.515625 27.59375 7.515625 
L 36.8125 7.515625 
L 36.8125 0 
L 27.59375 0 
Q 17.1875 0 13.234375 3.875 
Q 9.28125 7.765625 9.28125 18.015625 
L 9.28125 47.703125 
L 2.6875 47.703125 
L 2.6875 54.6875 
L 9.28125 54.6875 
L 9.28125 70.21875 
z
" id="DejaVuSans-116"/>
       <path d="M 9.078125 75.984375 
L 18.109375 75.984375 
L 18.109375 31.109375 
L 44.921875 54.6875 
L 56.390625 54.6875 
L 27.390625 29.109375 
L 57.625 0 
L 45.90625 0 
L 18.109375 26.703125 
L 18.109375 0 
L 9.078125 0 
z
" id="DejaVuSans-107"/>
       <path d="M 54.890625 33.015625 
L 54.890625 0 
L 45.90625 0 
L 45.90625 32.71875 
Q 45.90625 40.484375 42.875 44.328125 
Q 39.84375 48.1875 33.796875 48.1875 
Q 26.515625 48.1875 22.3125 43.546875 
Q 18.109375 38.921875 18.109375 30.90625 
L 18.109375 0 
L 9.078125 0 
L 9.078125 75.984375 
L 18.109375 75.984375 
L 18.109375 46.1875 
Q 21.34375 51.125 25.703125 53.5625 
Q 30.078125 56 35.796875 56 
Q 45.21875 56 50.046875 50.171875 
Q 54.890625 44.34375 54.890625 33.015625 
z
" id="DejaVuSans-104"/>
       <path d="M 52 44.1875 
Q 55.375 50.25 60.0625 53.125 
Q 64.75 56 71.09375 56 
Q 79.640625 56 84.28125 50.015625 
Q 88.921875 44.046875 88.921875 33.015625 
L 88.921875 0 
L 79.890625 0 
L 79.890625 32.71875 
Q 79.890625 40.578125 77.09375 44.375 
Q 74.3125 48.1875 68.609375 48.1875 
Q 61.625 48.1875 57.5625 43.546875 
Q 53.515625 38.921875 53.515625 30.90625 
L 53.515625 0 
L 44.484375 0 
L 44.484375 32.71875 
Q 44.484375 40.625 41.703125 44.40625 
Q 38.921875 48.1875 33.109375 48.1875 
Q 26.21875 48.1875 22.15625 43.53125 
Q 18.109375 38.875 18.109375 30.90625 
L 18.109375 0 
L 9.078125 0 
L 9.078125 54.6875 
L 18.109375 54.6875 
L 18.109375 46.1875 
Q 21.1875 51.21875 25.484375 53.609375 
Q 29.78125 56 35.6875 56 
Q 41.65625 56 45.828125 52.96875 
Q 50 49.953125 52 44.1875 
z
" id="DejaVuSans-109"/>
       <path d="M 10.796875 72.90625 
L 49.515625 72.90625 
L 49.515625 64.59375 
L 19.828125 64.59375 
L 19.828125 46.734375 
Q 21.96875 47.46875 24.109375 47.828125 
Q 26.265625 48.1875 28.421875 48.1875 
Q 40.625 48.1875 47.75 41.5 
Q 54.890625 34.8125 54.890625 23.390625 
Q 54.890625 11.625 47.5625 5.09375 
Q 40.234375 -1.421875 26.90625 -1.421875 
Q 22.3125 -1.421875 17.546875 -0.640625 
Q 12.796875 0.140625 7.71875 1.703125 
L 7.71875 11.625 
Q 12.109375 9.234375 16.796875 8.0625 
Q 21.484375 6.890625 26.703125 6.890625 
Q 35.15625 6.890625 40.078125 11.328125 
Q 45.015625 15.765625 45.015625 23.390625 
Q 45.015625 31 40.078125 35.4375 
Q 35.15625 39.890625 26.703125 39.890625 
Q 22.75 39.890625 18.8125 39.015625 
Q 14.890625 38.140625 10.796875 36.28125 
z
" id="DejaVuSans-53"/>
      </defs>
      <g transform="translate(135.121439 250.230938)rotate(-90)scale(0.1 -0.1)">
       <use xlink:href="#DejaVuSans-83"/>
       <use x="63.476562" xlink:href="#DejaVuSans-116"/>
       <use x="102.685547" xlink:href="#DejaVuSans-111"/>
       <use x="163.867188" xlink:href="#DejaVuSans-99"/>
       <use x="218.847656" xlink:href="#DejaVuSans-107"/>
       <use x="276.757812" xlink:href="#DejaVuSans-104"/>
       <use x="340.136719" xlink:href="#DejaVuSans-111"/>
       <use x="401.318359" xlink:href="#DejaVuSans-108"/>
       <use x="429.101562" xlink:href="#DejaVuSans-109"/>
       <use x="526.513672" xlink:href="#DejaVuSans-32"/>
       <use x="558.300781" xlink:href="#DejaVuSans-32"/>
       <use x="590.087891" xlink:href="#DejaVuSans-55"/>
       <use x="653.710938" xlink:href="#DejaVuSans-53"/>
      </g>
     </g>
    </g>
    <g id="xtick_5">
     <g id="line2d_5">
      <g>
       <use style="stroke:#000000;stroke-width:0.8;" x="146.890362" xlink:href="#ma7e4ea4a0f" y="171.498125"/>
      </g>
     </g>
     <g id="text_5">
      <!-- Hiroshima  76 -->
      <defs>
       <path d="M 9.8125 72.90625 
L 19.671875 72.90625 
L 19.671875 43.015625 
L 55.515625 43.015625 
L 55.515625 72.90625 
L 65.375 72.90625 
L 65.375 0 
L 55.515625 0 
L 55.515625 34.71875 
L 19.671875 34.71875 
L 19.671875 0 
L 9.8125 0 
z
" id="DejaVuSans-72"/>
       <path d="M 33.015625 40.375 
Q 26.375 40.375 22.484375 35.828125 
Q 18.609375 31.296875 18.609375 23.390625 
Q 18.609375 15.53125 22.484375 10.953125 
Q 26.375 6.390625 33.015625 6.390625 
Q 39.65625 6.390625 43.53125 10.953125 
Q 47.40625 15.53125 47.40625 23.390625 
Q 47.40625 31.296875 43.53125 35.828125 
Q 39.65625 40.375 33.015625 40.375 
z
M 52.59375 71.296875 
L 52.59375 62.3125 
Q 48.875 64.0625 45.09375 64.984375 
Q 41.3125 65.921875 37.59375 65.921875 
Q 27.828125 65.921875 22.671875 59.328125 
Q 17.53125 52.734375 16.796875 39.40625 
Q 19.671875 43.65625 24.015625 45.921875 
Q 28.375 48.1875 33.59375 48.1875 
Q 44.578125 48.1875 50.953125 41.515625 
Q 57.328125 34.859375 57.328125 23.390625 
Q 57.328125 12.15625 50.6875 5.359375 
Q 44.046875 -1.421875 33.015625 -1.421875 
Q 20.359375 -1.421875 13.671875 8.265625 
Q 6.984375 17.96875 6.984375 36.375 
Q 6.984375 53.65625 15.1875 63.9375 
Q 23.390625 74.21875 37.203125 74.21875 
Q 40.921875 74.21875 44.703125 73.484375 
Q 48.484375 72.75 52.59375 71.296875 
z
" id="DejaVuSans-54"/>
      </defs>
      <g transform="translate(149.649737 248.07625)rotate(-90)scale(0.1 -0.1)">
       <use xlink:href="#DejaVuSans-72"/>
       <use x="75.195312" xlink:href="#DejaVuSans-105"/>
       <use x="102.978516" xlink:href="#DejaVuSans-114"/>
       <use x="141.841797" xlink:href="#DejaVuSans-111"/>
       <use x="203.023438" xlink:href="#DejaVuSans-115"/>
       <use x="255.123047" xlink:href="#DejaVuSans-104"/>
       <use x="318.501953" xlink:href="#DejaVuSans-105"/>
       <use x="346.285156" xlink:href="#DejaVuSans-109"/>
       <use x="443.697266" xlink:href="#DejaVuSans-97"/>
       <use x="504.976562" xlink:href="#DejaVuSans-32"/>
       <use x="536.763672" xlink:href="#DejaVuSans-32"/>
       <use x="568.550781" xlink:href="#DejaVuSans-55"/>
       <use x="632.173828" xlink:href="#DejaVuSans-54"/>
      </g>
     </g>
    </g>
    <g id="xtick_6">
     <g id="line2d_6">
      <g>
       <use style="stroke:#000000;stroke-width:0.8;" x="161.41866" xlink:href="#ma7e4ea4a0f" y="171.498125"/>
      </g>
     </g>
     <g id="text_6">
      <!-- Los Angeles  77 -->
      <defs>
       <path d="M 9.8125 72.90625 
L 19.671875 72.90625 
L 19.671875 8.296875 
L 55.171875 8.296875 
L 55.171875 0 
L 9.8125 0 
z
" id="DejaVuSans-76"/>
       <path d="M 34.1875 63.1875 
L 20.796875 26.90625 
L 47.609375 26.90625 
z
M 28.609375 72.90625 
L 39.796875 72.90625 
L 67.578125 0 
L 57.328125 0 
L 50.6875 18.703125 
L 17.828125 18.703125 
L 11.1875 0 
L 0.78125 0 
z
" id="DejaVuSans-65"/>
       <path d="M 45.40625 27.984375 
Q 45.40625 37.75 41.375 43.109375 
Q 37.359375 48.484375 30.078125 48.484375 
Q 22.859375 48.484375 18.828125 43.109375 
Q 14.796875 37.75 14.796875 27.984375 
Q 14.796875 18.265625 18.828125 12.890625 
Q 22.859375 7.515625 30.078125 7.515625 
Q 37.359375 7.515625 41.375 12.890625 
Q 45.40625 18.265625 45.40625 27.984375 
z
M 54.390625 6.78125 
Q 54.390625 -7.171875 48.1875 -13.984375 
Q 42 -20.796875 29.203125 -20.796875 
Q 24.46875 -20.796875 20.265625 -20.09375 
Q 16.0625 -19.390625 12.109375 -17.921875 
L 12.109375 -9.1875 
Q 16.0625 -11.328125 19.921875 -12.34375 
Q 23.78125 -13.375 27.78125 -13.375 
Q 36.625 -13.375 41.015625 -8.765625 
Q 45.40625 -4.15625 45.40625 5.171875 
L 45.40625 9.625 
Q 42.625 4.78125 38.28125 2.390625 
Q 33.9375 0 27.875 0 
Q 17.828125 0 11.671875 7.65625 
Q 5.515625 15.328125 5.515625 27.984375 
Q 5.515625 40.671875 11.671875 48.328125 
Q 17.828125 56 27.875 56 
Q 33.9375 56 38.28125 53.609375 
Q 42.625 51.21875 45.40625 46.390625 
L 45.40625 54.6875 
L 54.390625 54.6875 
z
" id="DejaVuSans-103"/>
      </defs>
      <g transform="translate(164.178035 257.302813)rotate(-90)scale(0.1 -0.1)">
       <use xlink:href="#DejaVuSans-76"/>
       <use x="53.962891" xlink:href="#DejaVuSans-111"/>
       <use x="115.144531" xlink:href="#DejaVuSans-115"/>
       <use x="167.244141" xlink:href="#DejaVuSans-32"/>
       <use x="199.03125" xlink:href="#DejaVuSans-65"/>
       <use x="267.439453" xlink:href="#DejaVuSans-110"/>
       <use x="330.818359" xlink:href="#DejaVuSans-103"/>
       <use x="394.294922" xlink:href="#DejaVuSans-101"/>
       <use x="455.818359" xlink:href="#DejaVuSans-108"/>
       <use x="483.601562" xlink:href="#DejaVuSans-101"/>
       <use x="545.125" xlink:href="#DejaVuSans-115"/>
       <use x="597.224609" xlink:href="#DejaVuSans-32"/>
       <use x="629.011719" xlink:href="#DejaVuSans-32"/>
       <use x="660.798828" xlink:href="#DejaVuSans-55"/>
       <use x="724.421875" xlink:href="#DejaVuSans-55"/>
      </g>
     </g>
    </g>
    <g id="xtick_7">
     <g id="line2d_7">
      <g>
       <use style="stroke:#000000;stroke-width:0.8;" x="175.946957" xlink:href="#ma7e4ea4a0f" y="171.498125"/>
      </g>
     </g>
     <g id="text_7">
      <!-- Brussels  78 -->
      <defs>
       <path d="M 19.671875 34.8125 
L 19.671875 8.109375 
L 35.5 8.109375 
Q 43.453125 8.109375 47.28125 11.40625 
Q 51.125 14.703125 51.125 21.484375 
Q 51.125 28.328125 47.28125 31.5625 
Q 43.453125 34.8125 35.5 34.8125 
z
M 19.671875 64.796875 
L 19.671875 42.828125 
L 34.28125 42.828125 
Q 41.5 42.828125 45.03125 45.53125 
Q 48.578125 48.25 48.578125 53.8125 
Q 48.578125 59.328125 45.03125 62.0625 
Q 41.5 64.796875 34.28125 64.796875 
z
M 9.8125 72.90625 
L 35.015625 72.90625 
Q 46.296875 72.90625 52.390625 68.21875 
Q 58.5 63.53125 58.5 54.890625 
Q 58.5 48.1875 55.375 44.234375 
Q 52.25 40.28125 46.1875 39.3125 
Q 53.46875 37.75 57.5 32.78125 
Q 61.53125 27.828125 61.53125 20.40625 
Q 61.53125 10.640625 54.890625 5.3125 
Q 48.25 0 35.984375 0 
L 9.8125 0 
z
" id="DejaVuSans-66"/>
       <path d="M 31.78125 34.625 
Q 24.75 34.625 20.71875 30.859375 
Q 16.703125 27.09375 16.703125 20.515625 
Q 16.703125 13.921875 20.71875 10.15625 
Q 24.75 6.390625 31.78125 6.390625 
Q 38.8125 6.390625 42.859375 10.171875 
Q 46.921875 13.96875 46.921875 20.515625 
Q 46.921875 27.09375 42.890625 30.859375 
Q 38.875 34.625 31.78125 34.625 
z
M 21.921875 38.8125 
Q 15.578125 40.375 12.03125 44.71875 
Q 8.5 49.078125 8.5 55.328125 
Q 8.5 64.0625 14.71875 69.140625 
Q 20.953125 74.21875 31.78125 74.21875 
Q 42.671875 74.21875 48.875 69.140625 
Q 55.078125 64.0625 55.078125 55.328125 
Q 55.078125 49.078125 51.53125 44.71875 
Q 48 40.375 41.703125 38.8125 
Q 48.828125 37.15625 52.796875 32.3125 
Q 56.78125 27.484375 56.78125 20.515625 
Q 56.78125 9.90625 50.3125 4.234375 
Q 43.84375 -1.421875 31.78125 -1.421875 
Q 19.734375 -1.421875 13.25 4.234375 
Q 6.78125 9.90625 6.78125 20.515625 
Q 6.78125 27.484375 10.78125 32.3125 
Q 14.796875 37.15625 21.921875 38.8125 
z
M 18.3125 54.390625 
Q 18.3125 48.734375 21.84375 45.5625 
Q 25.390625 42.390625 31.78125 42.390625 
Q 38.140625 42.390625 41.71875 45.5625 
Q 45.3125 48.734375 45.3125 54.390625 
Q 45.3125 60.0625 41.71875 63.234375 
Q 38.140625 66.40625 31.78125 66.40625 
Q 25.390625 66.40625 21.84375 63.234375 
Q 18.3125 60.0625 18.3125 54.390625 
z
" id="DejaVuSans-56"/>
      </defs>
      <g transform="translate(178.706332 239.448125)rotate(-90)scale(0.1 -0.1)">
       <use xlink:href="#DejaVuSans-66"/>
       <use x="68.603516" xlink:href="#DejaVuSans-114"/>
       <use x="109.716797" xlink:href="#DejaVuSans-117"/>
       <use x="173.095703" xlink:href="#DejaVuSans-115"/>
       <use x="225.195312" xlink:href="#DejaVuSans-115"/>
       <use x="277.294922" xlink:href="#DejaVuSans-101"/>
       <use x="338.818359" xlink:href="#DejaVuSans-108"/>
       <use x="366.601562" xlink:href="#DejaVuSans-115"/>
       <use x="418.701172" xlink:href="#DejaVuSans-32"/>
       <use x="450.488281" xlink:href="#DejaVuSans-32"/>
       <use x="482.275391" xlink:href="#DejaVuSans-55"/>
       <use x="545.898438" xlink:href="#DejaVuSans-56"/>
      </g>
     </g>
    </g>
    <g id="xtick_8">
     <g id="line2d_8">
      <g>
       <use style="stroke:#000000;stroke-width:0.8;" x="190.475255" xlink:href="#ma7e4ea4a0f" y="171.498125"/>
      </g>
     </g>
     <g id="text_8">
      <!-- Beijing  79 -->
      <defs>
       <path d="M 9.421875 54.6875 
L 18.40625 54.6875 
L 18.40625 -0.984375 
Q 18.40625 -11.421875 14.421875 -16.109375 
Q 10.453125 -20.796875 1.609375 -20.796875 
L -1.8125 -20.796875 
L -1.8125 -13.1875 
L 0.59375 -13.1875 
Q 5.71875 -13.1875 7.5625 -10.8125 
Q 9.421875 -8.453125 9.421875 -0.984375 
z
M 9.421875 75.984375 
L 18.40625 75.984375 
L 18.40625 64.59375 
L 9.421875 64.59375 
z
" id="DejaVuSans-106"/>
       <path d="M 10.984375 1.515625 
L 10.984375 10.5 
Q 14.703125 8.734375 18.5 7.8125 
Q 22.3125 6.890625 25.984375 6.890625 
Q 35.75 6.890625 40.890625 13.453125 
Q 46.046875 20.015625 46.78125 33.40625 
Q 43.953125 29.203125 39.59375 26.953125 
Q 35.25 24.703125 29.984375 24.703125 
Q 19.046875 24.703125 12.671875 31.3125 
Q 6.296875 37.9375 6.296875 49.421875 
Q 6.296875 60.640625 12.9375 67.421875 
Q 19.578125 74.21875 30.609375 74.21875 
Q 43.265625 74.21875 49.921875 64.515625 
Q 56.59375 54.828125 56.59375 36.375 
Q 56.59375 19.140625 48.40625 8.859375 
Q 40.234375 -1.421875 26.421875 -1.421875 
Q 22.703125 -1.421875 18.890625 -0.6875 
Q 15.09375 0.046875 10.984375 1.515625 
z
M 30.609375 32.421875 
Q 37.25 32.421875 41.125 36.953125 
Q 45.015625 41.5 45.015625 49.421875 
Q 45.015625 57.28125 41.125 61.84375 
Q 37.25 66.40625 30.609375 66.40625 
Q 23.96875 66.40625 20.09375 61.84375 
Q 16.21875 57.28125 16.21875 49.421875 
Q 16.21875 41.5 20.09375 36.953125 
Q 23.96875 32.421875 30.609375 32.421875 
z
" id="DejaVuSans-57"/>
      </defs>
      <g transform="translate(193.23463 231.61375)rotate(-90)scale(0.1 -0.1)">
       <use xlink:href="#DejaVuSans-66"/>
       <use x="68.603516" xlink:href="#DejaVuSans-101"/>
       <use x="130.126953" xlink:href="#DejaVuSans-105"/>
       <use x="157.910156" xlink:href="#DejaVuSans-106"/>
       <use x="185.693359" xlink:href="#DejaVuSans-105"/>
       <use x="213.476562" xlink:href="#DejaVuSans-110"/>
       <use x="276.855469" xlink:href="#DejaVuSans-103"/>
       <use x="340.332031" xlink:href="#DejaVuSans-32"/>
       <use x="372.119141" xlink:href="#DejaVuSans-32"/>
       <use x="403.90625" xlink:href="#DejaVuSans-55"/>
       <use x="467.529297" xlink:href="#DejaVuSans-57"/>
      </g>
     </g>
    </g>
    <g id="xtick_9">
     <g id="line2d_9">
      <g>
       <use style="stroke:#000000;stroke-width:0.8;" x="205.003553" xlink:href="#ma7e4ea4a0f" y="171.498125"/>
      </g>
     </g>
     <g id="text_9">
      <!-- Prague  80 -->
      <defs>
       <path d="M 19.671875 64.796875 
L 19.671875 37.40625 
L 32.078125 37.40625 
Q 38.96875 37.40625 42.71875 40.96875 
Q 46.484375 44.53125 46.484375 51.125 
Q 46.484375 57.671875 42.71875 61.234375 
Q 38.96875 64.796875 32.078125 64.796875 
z
M 9.8125 72.90625 
L 32.078125 72.90625 
Q 44.34375 72.90625 50.609375 67.359375 
Q 56.890625 61.8125 56.890625 51.125 
Q 56.890625 40.328125 50.609375 34.8125 
Q 44.34375 29.296875 32.078125 29.296875 
L 19.671875 29.296875 
L 19.671875 0 
L 9.8125 0 
z
" id="DejaVuSans-80"/>
       <path d="M 31.78125 66.40625 
Q 24.171875 66.40625 20.328125 58.90625 
Q 16.5 51.421875 16.5 36.375 
Q 16.5 21.390625 20.328125 13.890625 
Q 24.171875 6.390625 31.78125 6.390625 
Q 39.453125 6.390625 43.28125 13.890625 
Q 47.125 21.390625 47.125 36.375 
Q 47.125 51.421875 43.28125 58.90625 
Q 39.453125 66.40625 31.78125 66.40625 
z
M 31.78125 74.21875 
Q 44.046875 74.21875 50.515625 64.515625 
Q 56.984375 54.828125 56.984375 36.375 
Q 56.984375 17.96875 50.515625 8.265625 
Q 44.046875 -1.421875 31.78125 -1.421875 
Q 19.53125 -1.421875 13.0625 8.265625 
Q 6.59375 17.96875 6.59375 36.375 
Q 6.59375 54.828125 13.0625 64.515625 
Q 19.53125 74.21875 31.78125 74.21875 
z
" id="DejaVuSans-48"/>
      </defs>
      <g transform="translate(207.762928 232.512188)rotate(-90)scale(0.1 -0.1)">
       <use xlink:href="#DejaVuSans-80"/>
       <use x="58.552734" xlink:href="#DejaVuSans-114"/>
       <use x="99.666016" xlink:href="#DejaVuSans-97"/>
       <use x="160.945312" xlink:href="#DejaVuSans-103"/>
       <use x="224.421875" xlink:href="#DejaVuSans-117"/>
       <use x="287.800781" xlink:href="#DejaVuSans-101"/>
       <use x="349.324219" xlink:href="#DejaVuSans-32"/>
       <use x="381.111328" xlink:href="#DejaVuSans-32"/>
       <use x="412.898438" xlink:href="#DejaVuSans-56"/>
       <use x="476.521484" xlink:href="#DejaVuSans-48"/>
      </g>
     </g>
    </g>
    <g id="xtick_10">
     <g id="line2d_10">
      <g>
       <use style="stroke:#000000;stroke-width:0.8;" x="219.53185" xlink:href="#ma7e4ea4a0f" y="171.498125"/>
      </g>
     </g>
     <g id="text_10">
      <!-- Montreal  81 -->
      <defs>
       <path d="M 12.40625 8.296875 
L 28.515625 8.296875 
L 28.515625 63.921875 
L 10.984375 60.40625 
L 10.984375 69.390625 
L 28.421875 72.90625 
L 38.28125 72.90625 
L 38.28125 8.296875 
L 54.390625 8.296875 
L 54.390625 0 
L 12.40625 0 
z
" id="DejaVuSans-49"/>
      </defs>
      <g transform="translate(222.291225 241.529375)rotate(-90)scale(0.1 -0.1)">
       <use xlink:href="#DejaVuSans-77"/>
       <use x="86.279297" xlink:href="#DejaVuSans-111"/>
       <use x="147.460938" xlink:href="#DejaVuSans-110"/>
       <use x="210.839844" xlink:href="#DejaVuSans-116"/>
       <use x="250.048828" xlink:href="#DejaVuSans-114"/>
       <use x="288.912109" xlink:href="#DejaVuSans-101"/>
       <use x="350.435547" xlink:href="#DejaVuSans-97"/>
       <use x="411.714844" xlink:href="#DejaVuSans-108"/>
       <use x="439.498047" xlink:href="#DejaVuSans-32"/>
       <use x="471.285156" xlink:href="#DejaVuSans-32"/>
       <use x="503.072266" xlink:href="#DejaVuSans-56"/>
       <use x="566.695312" xlink:href="#DejaVuSans-49"/>
      </g>
     </g>
    </g>
    <g id="xtick_11">
     <g id="line2d_11">
      <g>
       <use style="stroke:#000000;stroke-width:0.8;" x="234.060148" xlink:href="#ma7e4ea4a0f" y="171.498125"/>
      </g>
     </g>
     <g id="text_11">
      <!-- Taipei  82 -->
      <defs>
       <path d="M -0.296875 72.90625 
L 61.375 72.90625 
L 61.375 64.59375 
L 35.5 64.59375 
L 35.5 0 
L 25.59375 0 
L 25.59375 64.59375 
L -0.296875 64.59375 
z
" id="DejaVuSans-84"/>
      </defs>
      <g transform="translate(236.819523 226.223125)rotate(-90)scale(0.1 -0.1)">
       <use xlink:href="#DejaVuSans-84"/>
       <use x="44.583984" xlink:href="#DejaVuSans-97"/>
       <use x="105.863281" xlink:href="#DejaVuSans-105"/>
       <use x="133.646484" xlink:href="#DejaVuSans-112"/>
       <use x="197.123047" xlink:href="#DejaVuSans-101"/>
       <use x="258.646484" xlink:href="#DejaVuSans-105"/>
       <use x="286.429688" xlink:href="#DejaVuSans-32"/>
       <use x="318.216797" xlink:href="#DejaVuSans-32"/>
       <use x="350.003906" xlink:href="#DejaVuSans-56"/>
       <use x="413.626953" xlink:href="#DejaVuSans-50"/>
      </g>
     </g>
    </g>
    <g id="xtick_12">
     <g id="line2d_12">
      <g>
       <use style="stroke:#000000;stroke-width:0.8;" x="248.588446" xlink:href="#ma7e4ea4a0f" y="171.498125"/>
      </g>
     </g>
     <g id="text_12">
      <!-- Paris  83 -->
      <g transform="translate(251.347821 221.385625)rotate(-90)scale(0.1 -0.1)">
       <use xlink:href="#DejaVuSans-80"/>
       <use x="55.802734" xlink:href="#DejaVuSans-97"/>
       <use x="117.082031" xlink:href="#DejaVuSans-114"/>
       <use x="158.195312" xlink:href="#DejaVuSans-105"/>
       <use x="185.978516" xlink:href="#DejaVuSans-115"/>
       <use x="238.078125" xlink:href="#DejaVuSans-32"/>
       <use x="269.865234" xlink:href="#DejaVuSans-32"/>
       <use x="301.652344" xlink:href="#DejaVuSans-56"/>
       <use x="365.275391" xlink:href="#DejaVuSans-51"/>
      </g>
     </g>
    </g>
    <g id="xtick_13">
     <g id="line2d_13">
      <g>
       <use style="stroke:#000000;stroke-width:0.8;" x="263.116744" xlink:href="#ma7e4ea4a0f" y="171.498125"/>
      </g>
     </g>
     <g id="text_13">
      <!-- Vancouver  84 -->
      <defs>
       <path d="M 28.609375 0 
L 0.78125 72.90625 
L 11.078125 72.90625 
L 34.1875 11.53125 
L 57.328125 72.90625 
L 67.578125 72.90625 
L 39.796875 0 
z
" id="DejaVuSans-86"/>
       <path d="M 2.984375 54.6875 
L 12.5 54.6875 
L 29.59375 8.796875 
L 46.6875 54.6875 
L 56.203125 54.6875 
L 35.6875 0 
L 23.484375 0 
z
" id="DejaVuSans-118"/>
      </defs>
      <g transform="translate(265.876119 250.248125)rotate(-90)scale(0.1 -0.1)">
       <use xlink:href="#DejaVuSans-86"/>
       <use x="60.658203" xlink:href="#DejaVuSans-97"/>
       <use x="121.9375" xlink:href="#DejaVuSans-110"/>
       <use x="185.316406" xlink:href="#DejaVuSans-99"/>
       <use x="240.296875" xlink:href="#DejaVuSans-111"/>
       <use x="301.478516" xlink:href="#DejaVuSans-117"/>
       <use x="364.857422" xlink:href="#DejaVuSans-118"/>
       <use x="424.037109" xlink:href="#DejaVuSans-101"/>
       <use x="485.560547" xlink:href="#DejaVuSans-114"/>
       <use x="526.673828" xlink:href="#DejaVuSans-32"/>
       <use x="558.460938" xlink:href="#DejaVuSans-32"/>
       <use x="590.248047" xlink:href="#DejaVuSans-56"/>
       <use x="653.871094" xlink:href="#DejaVuSans-52"/>
      </g>
     </g>
    </g>
    <g id="xtick_14">
     <g id="line2d_14">
      <g>
       <use style="stroke:#000000;stroke-width:0.8;" x="277.645041" xlink:href="#ma7e4ea4a0f" y="171.498125"/>
      </g>
     </g>
     <g id="text_14">
      <!-- Atlanta  85 -->
      <g transform="translate(280.404416 233.4575)rotate(-90)scale(0.1 -0.1)">
       <use xlink:href="#DejaVuSans-65"/>
       <use x="66.658203" xlink:href="#DejaVuSans-116"/>
       <use x="105.867188" xlink:href="#DejaVuSans-108"/>
       <use x="133.650391" xlink:href="#DejaVuSans-97"/>
       <use x="194.929688" xlink:href="#DejaVuSans-110"/>
       <use x="258.308594" xlink:href="#DejaVuSans-116"/>
       <use x="297.517578" xlink:href="#DejaVuSans-97"/>
       <use x="358.796875" xlink:href="#DejaVuSans-32"/>
       <use x="390.583984" xlink:href="#DejaVuSans-32"/>
       <use x="422.371094" xlink:href="#DejaVuSans-56"/>
       <use x="485.994141" xlink:href="#DejaVuSans-53"/>
      </g>
     </g>
    </g>
    <g id="xtick_15">
     <g id="line2d_15">
      <g>
       <use style="stroke:#000000;stroke-width:0.8;" x="292.173339" xlink:href="#ma7e4ea4a0f" y="171.498125"/>
      </g>
     </g>
     <g id="text_15">
      <!-- Orlando  86 -->
      <defs>
       <path d="M 39.40625 66.21875 
Q 28.65625 66.21875 22.328125 58.203125 
Q 16.015625 50.203125 16.015625 36.375 
Q 16.015625 22.609375 22.328125 14.59375 
Q 28.65625 6.59375 39.40625 6.59375 
Q 50.140625 6.59375 56.421875 14.59375 
Q 62.703125 22.609375 62.703125 36.375 
Q 62.703125 50.203125 56.421875 58.203125 
Q 50.140625 66.21875 39.40625 66.21875 
z
M 39.40625 74.21875 
Q 54.734375 74.21875 63.90625 63.9375 
Q 73.09375 53.65625 73.09375 36.375 
Q 73.09375 19.140625 63.90625 8.859375 
Q 54.734375 -1.421875 39.40625 -1.421875 
Q 24.03125 -1.421875 14.8125 8.828125 
Q 5.609375 19.09375 5.609375 36.375 
Q 5.609375 53.65625 14.8125 63.9375 
Q 24.03125 74.21875 39.40625 74.21875 
z
" id="DejaVuSans-79"/>
       <path d="M 45.40625 46.390625 
L 45.40625 75.984375 
L 54.390625 75.984375 
L 54.390625 0 
L 45.40625 0 
L 45.40625 8.203125 
Q 42.578125 3.328125 38.25 0.953125 
Q 33.9375 -1.421875 27.875 -1.421875 
Q 17.96875 -1.421875 11.734375 6.484375 
Q 5.515625 14.40625 5.515625 27.296875 
Q 5.515625 40.1875 11.734375 48.09375 
Q 17.96875 56 27.875 56 
Q 33.9375 56 38.25 53.625 
Q 42.578125 51.265625 45.40625 46.390625 
z
M 14.796875 27.296875 
Q 14.796875 17.390625 18.875 11.75 
Q 22.953125 6.109375 30.078125 6.109375 
Q 37.203125 6.109375 41.296875 11.75 
Q 45.40625 17.390625 45.40625 27.296875 
Q 45.40625 37.203125 41.296875 42.84375 
Q 37.203125 48.484375 30.078125 48.484375 
Q 22.953125 48.484375 18.875 42.84375 
Q 14.796875 37.203125 14.796875 27.296875 
z
" id="DejaVuSans-100"/>
      </defs>
      <g transform="translate(294.932714 237.273125)rotate(-90)scale(0.1 -0.1)">
       <use xlink:href="#DejaVuSans-79"/>
       <use x="78.710938" xlink:href="#DejaVuSans-114"/>
       <use x="119.824219" xlink:href="#DejaVuSans-108"/>
       <use x="147.607422" xlink:href="#DejaVuSans-97"/>
       <use x="208.886719" xlink:href="#DejaVuSans-110"/>
       <use x="272.265625" xlink:href="#DejaVuSans-100"/>
       <use x="335.742188" xlink:href="#DejaVuSans-111"/>
       <use x="396.923828" xlink:href="#DejaVuSans-32"/>
       <use x="428.710938" xlink:href="#DejaVuSans-32"/>
       <use x="460.498047" xlink:href="#DejaVuSans-56"/>
       <use x="524.121094" xlink:href="#DejaVuSans-54"/>
      </g>
     </g>
    </g>
    <g id="xtick_16">
     <g id="line2d_16">
      <g>
       <use style="stroke:#000000;stroke-width:0.8;" x="306.701637" xlink:href="#ma7e4ea4a0f" y="171.498125"/>
      </g>
     </g>
     <g id="text_16">
      <!-- Berlin  87 -->
      <g transform="translate(309.461012 226.598125)rotate(-90)scale(0.1 -0.1)">
       <use xlink:href="#DejaVuSans-66"/>
       <use x="68.603516" xlink:href="#DejaVuSans-101"/>
       <use x="130.126953" xlink:href="#DejaVuSans-114"/>
       <use x="171.240234" xlink:href="#DejaVuSans-108"/>
       <use x="199.023438" xlink:href="#DejaVuSans-105"/>
       <use x="226.806641" xlink:href="#DejaVuSans-110"/>
       <use x="290.185547" xlink:href="#DejaVuSans-32"/>
       <use x="321.972656" xlink:href="#DejaVuSans-32"/>
       <use x="353.759766" xlink:href="#DejaVuSans-56"/>
       <use x="417.382812" xlink:href="#DejaVuSans-55"/>
      </g>
     </g>
    </g>
    <g id="xtick_17">
     <g id="line2d_17">
      <g>
       <use style="stroke:#000000;stroke-width:0.8;" x="321.229934" xlink:href="#ma7e4ea4a0f" y="171.498125"/>
      </g>
     </g>
     <g id="text_17">
      <!-- Vancouver  88 -->
      <g transform="translate(323.989309 250.248125)rotate(-90)scale(0.1 -0.1)">
       <use xlink:href="#DejaVuSans-86"/>
       <use x="60.658203" xlink:href="#DejaVuSans-97"/>
       <use x="121.9375" xlink:href="#DejaVuSans-110"/>
       <use x="185.316406" xlink:href="#DejaVuSans-99"/>
       <use x="240.296875" xlink:href="#DejaVuSans-111"/>
       <use x="301.478516" xlink:href="#DejaVuSans-117"/>
       <use x="364.857422" xlink:href="#DejaVuSans-118"/>
       <use x="424.037109" xlink:href="#DejaVuSans-101"/>
       <use x="485.560547" xlink:href="#DejaVuSans-114"/>
       <use x="526.673828" xlink:href="#DejaVuSans-32"/>
       <use x="558.460938" xlink:href="#DejaVuSans-32"/>
       <use x="590.248047" xlink:href="#DejaVuSans-56"/>
       <use x="653.871094" xlink:href="#DejaVuSans-56"/>
      </g>
     </g>
    </g>
    <g id="xtick_18">
     <g id="line2d_18">
      <g>
       <use style="stroke:#000000;stroke-width:0.8;" x="335.758232" xlink:href="#ma7e4ea4a0f" y="171.498125"/>
      </g>
     </g>
     <g id="text_18">
      <!-- London  89 -->
      <g transform="translate(338.517607 234.237188)rotate(-90)scale(0.1 -0.1)">
       <use xlink:href="#DejaVuSans-76"/>
       <use x="53.962891" xlink:href="#DejaVuSans-111"/>
       <use x="115.144531" xlink:href="#DejaVuSans-110"/>
       <use x="178.523438" xlink:href="#DejaVuSans-100"/>
       <use x="242" xlink:href="#DejaVuSans-111"/>
       <use x="303.181641" xlink:href="#DejaVuSans-110"/>
       <use x="366.560547" xlink:href="#DejaVuSans-32"/>
       <use x="398.347656" xlink:href="#DejaVuSans-32"/>
       <use x="430.134766" xlink:href="#DejaVuSans-56"/>
       <use x="493.757812" xlink:href="#DejaVuSans-57"/>
      </g>
     </g>
    </g>
    <g id="xtick_19">
     <g id="line2d_19">
      <g>
       <use style="stroke:#000000;stroke-width:0.8;" x="350.28653" xlink:href="#ma7e4ea4a0f" y="171.498125"/>
      </g>
     </g>
     <g id="text_19">
      <!-- Toronto  90 -->
      <g transform="translate(353.045905 234.487188)rotate(-90)scale(0.1 -0.1)">
       <use xlink:href="#DejaVuSans-84"/>
       <use x="44.083984" xlink:href="#DejaVuSans-111"/>
       <use x="105.265625" xlink:href="#DejaVuSans-114"/>
       <use x="144.128906" xlink:href="#DejaVuSans-111"/>
       <use x="205.310547" xlink:href="#DejaVuSans-110"/>
       <use x="268.689453" xlink:href="#DejaVuSans-116"/>
       <use x="307.898438" xlink:href="#DejaVuSans-111"/>
       <use x="369.080078" xlink:href="#DejaVuSans-32"/>
       <use x="400.867188" xlink:href="#DejaVuSans-32"/>
       <use x="432.654297" xlink:href="#DejaVuSans-57"/>
       <use x="496.277344" xlink:href="#DejaVuSans-48"/>
      </g>
     </g>
    </g>
    <g id="xtick_20">
     <g id="line2d_20">
      <g>
       <use style="stroke:#000000;stroke-width:0.8;" x="364.814827" xlink:href="#ma7e4ea4a0f" y="171.498125"/>
      </g>
     </g>
     <g id="text_20">
      <!-- Honolulu  91 -->
      <g transform="translate(367.574202 241.905938)rotate(-90)scale(0.1 -0.1)">
       <use xlink:href="#DejaVuSans-72"/>
       <use x="75.195312" xlink:href="#DejaVuSans-111"/>
       <use x="136.376953" xlink:href="#DejaVuSans-110"/>
       <use x="199.755859" xlink:href="#DejaVuSans-111"/>
       <use x="260.9375" xlink:href="#DejaVuSans-108"/>
       <use x="288.720703" xlink:href="#DejaVuSans-117"/>
       <use x="352.099609" xlink:href="#DejaVuSans-108"/>
       <use x="379.882812" xlink:href="#DejaVuSans-117"/>
       <use x="443.261719" xlink:href="#DejaVuSans-32"/>
       <use x="475.048828" xlink:href="#DejaVuSans-32"/>
       <use x="506.835938" xlink:href="#DejaVuSans-57"/>
       <use x="570.458984" xlink:href="#DejaVuSans-49"/>
      </g>
     </g>
    </g>
    <g id="xtick_21">
     <g id="line2d_21">
      <g>
       <use style="stroke:#000000;stroke-width:0.8;" x="379.343125" xlink:href="#ma7e4ea4a0f" y="171.498125"/>
      </g>
     </g>
     <g id="text_21">
      <!-- Dallas  92 -->
      <g transform="translate(382.1025 228.30125)rotate(-90)scale(0.1 -0.1)">
       <use xlink:href="#DejaVuSans-68"/>
       <use x="77.001953" xlink:href="#DejaVuSans-97"/>
       <use x="138.28125" xlink:href="#DejaVuSans-108"/>
       <use x="166.064453" xlink:href="#DejaVuSans-108"/>
       <use x="193.847656" xlink:href="#DejaVuSans-97"/>
       <use x="255.126953" xlink:href="#DejaVuSans-115"/>
       <use x="307.226562" xlink:href="#DejaVuSans-32"/>
       <use x="339.013672" xlink:href="#DejaVuSans-32"/>
       <use x="370.800781" xlink:href="#DejaVuSans-57"/>
       <use x="434.423828" xlink:href="#DejaVuSans-50"/>
      </g>
     </g>
    </g>
    <g id="xtick_22">
     <g id="line2d_22">
      <g>
       <use style="stroke:#000000;stroke-width:0.8;" x="393.871423" xlink:href="#ma7e4ea4a0f" y="171.498125"/>
      </g>
     </g>
     <g id="text_22">
      <!-- Prague  93 -->
      <g transform="translate(396.630798 232.512188)rotate(-90)scale(0.1 -0.1)">
       <use xlink:href="#DejaVuSans-80"/>
       <use x="58.552734" xlink:href="#DejaVuSans-114"/>
       <use x="99.666016" xlink:href="#DejaVuSans-97"/>
       <use x="160.945312" xlink:href="#DejaVuSans-103"/>
       <use x="224.421875" xlink:href="#DejaVuSans-117"/>
       <use x="287.800781" xlink:href="#DejaVuSans-101"/>
       <use x="349.324219" xlink:href="#DejaVuSans-32"/>
       <use x="381.111328" xlink:href="#DejaVuSans-32"/>
       <use x="412.898438" xlink:href="#DejaVuSans-57"/>
       <use x="476.521484" xlink:href="#DejaVuSans-51"/>
      </g>
     </g>
    </g>
    <g id="xtick_23">
     <g id="line2d_23">
      <g>
       <use style="stroke:#000000;stroke-width:0.8;" x="408.39972" xlink:href="#ma7e4ea4a0f" y="171.498125"/>
      </g>
     </g>
     <g id="text_23">
      <!-- Tokyo  94 -->
      <defs>
       <path d="M 32.171875 -5.078125 
Q 28.375 -14.84375 24.75 -17.8125 
Q 21.140625 -20.796875 15.09375 -20.796875 
L 7.90625 -20.796875 
L 7.90625 -13.28125 
L 13.1875 -13.28125 
Q 16.890625 -13.28125 18.9375 -11.515625 
Q 21 -9.765625 23.484375 -3.21875 
L 25.09375 0.875 
L 2.984375 54.6875 
L 12.5 54.6875 
L 29.59375 11.921875 
L 46.6875 54.6875 
L 56.203125 54.6875 
z
" id="DejaVuSans-121"/>
      </defs>
      <g transform="translate(411.159095 225.571563)rotate(-90)scale(0.1 -0.1)">
       <use xlink:href="#DejaVuSans-84"/>
       <use x="44.083984" xlink:href="#DejaVuSans-111"/>
       <use x="105.265625" xlink:href="#DejaVuSans-107"/>
       <use x="159.550781" xlink:href="#DejaVuSans-121"/>
       <use x="218.730469" xlink:href="#DejaVuSans-111"/>
       <use x="279.912109" xlink:href="#DejaVuSans-32"/>
       <use x="311.699219" xlink:href="#DejaVuSans-32"/>
       <use x="343.486328" xlink:href="#DejaVuSans-57"/>
       <use x="407.109375" xlink:href="#DejaVuSans-52"/>
      </g>
     </g>
    </g>
    <g id="xtick_24">
     <g id="line2d_24">
      <g>
       <use style="stroke:#000000;stroke-width:0.8;" x="422.928018" xlink:href="#ma7e4ea4a0f" y="171.498125"/>
      </g>
     </g>
     <g id="text_24">
      <!-- Buenos Aires  95 -->
      <g transform="translate(425.687393 262.641875)rotate(-90)scale(0.1 -0.1)">
       <use xlink:href="#DejaVuSans-66"/>
       <use x="68.603516" xlink:href="#DejaVuSans-117"/>
       <use x="131.982422" xlink:href="#DejaVuSans-101"/>
       <use x="193.505859" xlink:href="#DejaVuSans-110"/>
       <use x="256.884766" xlink:href="#DejaVuSans-111"/>
       <use x="318.066406" xlink:href="#DejaVuSans-115"/>
       <use x="370.166016" xlink:href="#DejaVuSans-32"/>
       <use x="401.953125" xlink:href="#DejaVuSans-65"/>
       <use x="470.361328" xlink:href="#DejaVuSans-105"/>
       <use x="498.144531" xlink:href="#DejaVuSans-114"/>
       <use x="537.007812" xlink:href="#DejaVuSans-101"/>
       <use x="598.53125" xlink:href="#DejaVuSans-115"/>
       <use x="650.630859" xlink:href="#DejaVuSans-32"/>
       <use x="682.417969" xlink:href="#DejaVuSans-32"/>
       <use x="714.205078" xlink:href="#DejaVuSans-57"/>
       <use x="777.828125" xlink:href="#DejaVuSans-53"/>
      </g>
     </g>
    </g>
    <g id="xtick_25">
     <g id="line2d_25">
      <g>
       <use style="stroke:#000000;stroke-width:0.8;" x="437.456316" xlink:href="#ma7e4ea4a0f" y="171.498125"/>
      </g>
     </g>
     <g id="text_25">
      <!-- Berlin  96 -->
      <g transform="translate(440.215691 226.598125)rotate(-90)scale(0.1 -0.1)">
       <use xlink:href="#DejaVuSans-66"/>
       <use x="68.603516" xlink:href="#DejaVuSans-101"/>
       <use x="130.126953" xlink:href="#DejaVuSans-114"/>
       <use x="171.240234" xlink:href="#DejaVuSans-108"/>
       <use x="199.023438" xlink:href="#DejaVuSans-105"/>
       <use x="226.806641" xlink:href="#DejaVuSans-110"/>
       <use x="290.185547" xlink:href="#DejaVuSans-32"/>
       <use x="321.972656" xlink:href="#DejaVuSans-32"/>
       <use x="353.759766" xlink:href="#DejaVuSans-57"/>
       <use x="417.382812" xlink:href="#DejaVuSans-54"/>
      </g>
     </g>
    </g>
    <g id="xtick_26">
     <g id="line2d_26">
      <g>
       <use style="stroke:#000000;stroke-width:0.8;" x="451.984613" xlink:href="#ma7e4ea4a0f" y="171.498125"/>
      </g>
     </g>
     <g id="text_26">
      <!-- Seoul  97 -->
      <g transform="translate(454.743988 225.315313)rotate(-90)scale(0.1 -0.1)">
       <use xlink:href="#DejaVuSans-83"/>
       <use x="63.476562" xlink:href="#DejaVuSans-101"/>
       <use x="125" xlink:href="#DejaVuSans-111"/>
       <use x="186.181641" xlink:href="#DejaVuSans-117"/>
       <use x="249.560547" xlink:href="#DejaVuSans-108"/>
       <use x="277.34375" xlink:href="#DejaVuSans-32"/>
       <use x="309.130859" xlink:href="#DejaVuSans-32"/>
       <use x="340.917969" xlink:href="#DejaVuSans-57"/>
       <use x="404.541016" xlink:href="#DejaVuSans-55"/>
      </g>
     </g>
    </g>
    <g id="xtick_27">
     <g id="line2d_27">
      <g>
       <use style="stroke:#000000;stroke-width:0.8;" x="466.512911" xlink:href="#ma7e4ea4a0f" y="171.498125"/>
      </g>
     </g>
     <g id="text_27">
      <!-- Chicago  98 -->
      <defs>
       <path d="M 64.40625 67.28125 
L 64.40625 56.890625 
Q 59.421875 61.53125 53.78125 63.8125 
Q 48.140625 66.109375 41.796875 66.109375 
Q 29.296875 66.109375 22.65625 58.46875 
Q 16.015625 50.828125 16.015625 36.375 
Q 16.015625 21.96875 22.65625 14.328125 
Q 29.296875 6.6875 41.796875 6.6875 
Q 48.140625 6.6875 53.78125 8.984375 
Q 59.421875 11.28125 64.40625 15.921875 
L 64.40625 5.609375 
Q 59.234375 2.09375 53.4375 0.328125 
Q 47.65625 -1.421875 41.21875 -1.421875 
Q 24.65625 -1.421875 15.125 8.703125 
Q 5.609375 18.84375 5.609375 36.375 
Q 5.609375 53.953125 15.125 64.078125 
Q 24.65625 74.21875 41.21875 74.21875 
Q 47.75 74.21875 53.53125 72.484375 
Q 59.328125 70.75 64.40625 67.28125 
z
" id="DejaVuSans-67"/>
      </defs>
      <g transform="translate(469.272286 237.771563)rotate(-90)scale(0.1 -0.1)">
       <use xlink:href="#DejaVuSans-67"/>
       <use x="69.824219" xlink:href="#DejaVuSans-104"/>
       <use x="133.203125" xlink:href="#DejaVuSans-105"/>
       <use x="160.986328" xlink:href="#DejaVuSans-99"/>
       <use x="215.966797" xlink:href="#DejaVuSans-97"/>
       <use x="277.246094" xlink:href="#DejaVuSans-103"/>
       <use x="340.722656" xlink:href="#DejaVuSans-111"/>
       <use x="401.904297" xlink:href="#DejaVuSans-32"/>
       <use x="433.691406" xlink:href="#DejaVuSans-32"/>
       <use x="465.478516" xlink:href="#DejaVuSans-57"/>
       <use x="529.101562" xlink:href="#DejaVuSans-56"/>
      </g>
     </g>
    </g>
    <g id="xtick_28">
     <g id="line2d_28">
      <g>
       <use style="stroke:#000000;stroke-width:0.8;" x="481.041209" xlink:href="#ma7e4ea4a0f" y="171.498125"/>
      </g>
     </g>
     <g id="text_28">
      <!-- Prague  99 -->
      <g transform="translate(483.800584 232.512188)rotate(-90)scale(0.1 -0.1)">
       <use xlink:href="#DejaVuSans-80"/>
       <use x="58.552734" xlink:href="#DejaVuSans-114"/>
       <use x="99.666016" xlink:href="#DejaVuSans-97"/>
       <use x="160.945312" xlink:href="#DejaVuSans-103"/>
       <use x="224.421875" xlink:href="#DejaVuSans-117"/>
       <use x="287.800781" xlink:href="#DejaVuSans-101"/>
       <use x="349.324219" xlink:href="#DejaVuSans-32"/>
       <use x="381.111328" xlink:href="#DejaVuSans-32"/>
       <use x="412.898438" xlink:href="#DejaVuSans-57"/>
       <use x="476.521484" xlink:href="#DejaVuSans-57"/>
      </g>
     </g>
    </g>
    <g id="xtick_29">
     <g id="line2d_29">
      <g>
       <use style="stroke:#000000;stroke-width:0.8;" x="495.569506" xlink:href="#ma7e4ea4a0f" y="171.498125"/>
      </g>
     </g>
     <g id="text_29">
      <!-- Singapore  100 -->
      <g transform="translate(498.328881 254.38875)rotate(-90)scale(0.1 -0.1)">
       <use xlink:href="#DejaVuSans-83"/>
       <use x="63.476562" xlink:href="#DejaVuSans-105"/>
       <use x="91.259766" xlink:href="#DejaVuSans-110"/>
       <use x="154.638672" xlink:href="#DejaVuSans-103"/>
       <use x="218.115234" xlink:href="#DejaVuSans-97"/>
       <use x="279.394531" xlink:href="#DejaVuSans-112"/>
       <use x="342.871094" xlink:href="#DejaVuSans-111"/>
       <use x="404.052734" xlink:href="#DejaVuSans-114"/>
       <use x="442.916016" xlink:href="#DejaVuSans-101"/>
       <use x="504.439453" xlink:href="#DejaVuSans-32"/>
       <use x="536.226562" xlink:href="#DejaVuSans-32"/>
       <use x="568.013672" xlink:href="#DejaVuSans-49"/>
       <use x="631.636719" xlink:href="#DejaVuSans-48"/>
       <use x="695.259766" xlink:href="#DejaVuSans-48"/>
      </g>
     </g>
    </g>
    <g id="xtick_30">
     <g id="line2d_30">
      <g>
       <use style="stroke:#000000;stroke-width:0.8;" x="510.097804" xlink:href="#ma7e4ea4a0f" y="171.498125"/>
      </g>
     </g>
     <g id="text_30">
      <!-- London  101 -->
      <g transform="translate(512.857179 240.599688)rotate(-90)scale(0.1 -0.1)">
       <use xlink:href="#DejaVuSans-76"/>
       <use x="53.962891" xlink:href="#DejaVuSans-111"/>
       <use x="115.144531" xlink:href="#DejaVuSans-110"/>
       <use x="178.523438" xlink:href="#DejaVuSans-100"/>
       <use x="242" xlink:href="#DejaVuSans-111"/>
       <use x="303.181641" xlink:href="#DejaVuSans-110"/>
       <use x="366.560547" xlink:href="#DejaVuSans-32"/>
       <use x="398.347656" xlink:href="#DejaVuSans-32"/>
       <use x="430.134766" xlink:href="#DejaVuSans-49"/>
       <use x="493.757812" xlink:href="#DejaVuSans-48"/>
       <use x="557.380859" xlink:href="#DejaVuSans-49"/>
      </g>
     </g>
    </g>
    <g id="xtick_31">
     <g id="line2d_31">
      <g>
       <use style="stroke:#000000;stroke-width:0.8;" x="524.626102" xlink:href="#ma7e4ea4a0f" y="171.498125"/>
      </g>
     </g>
     <g id="text_31">
      <!-- Montreal  102 -->
      <g transform="translate(527.385477 247.891875)rotate(-90)scale(0.1 -0.1)">
       <use xlink:href="#DejaVuSans-77"/>
       <use x="86.279297" xlink:href="#DejaVuSans-111"/>
       <use x="147.460938" xlink:href="#DejaVuSans-110"/>
       <use x="210.839844" xlink:href="#DejaVuSans-116"/>
       <use x="250.048828" xlink:href="#DejaVuSans-114"/>
       <use x="288.912109" xlink:href="#DejaVuSans-101"/>
       <use x="350.435547" xlink:href="#DejaVuSans-97"/>
       <use x="411.714844" xlink:href="#DejaVuSans-108"/>
       <use x="439.498047" xlink:href="#DejaVuSans-32"/>
       <use x="471.285156" xlink:href="#DejaVuSans-32"/>
       <use x="503.072266" xlink:href="#DejaVuSans-49"/>
       <use x="566.695312" xlink:href="#DejaVuSans-48"/>
       <use x="630.318359" xlink:href="#DejaVuSans-50"/>
      </g>
     </g>
    </g>
    <g id="xtick_32">
     <g id="line2d_32">
      <g>
       <use style="stroke:#000000;stroke-width:0.8;" x="539.1544" xlink:href="#ma7e4ea4a0f" y="171.498125"/>
      </g>
     </g>
     <g id="text_32">
      <!-- Bangkok  103 -->
      <g transform="translate(541.913775 246.954375)rotate(-90)scale(0.1 -0.1)">
       <use xlink:href="#DejaVuSans-66"/>
       <use x="68.603516" xlink:href="#DejaVuSans-97"/>
       <use x="129.882812" xlink:href="#DejaVuSans-110"/>
       <use x="193.261719" xlink:href="#DejaVuSans-103"/>
       <use x="256.738281" xlink:href="#DejaVuSans-107"/>
       <use x="311.023438" xlink:href="#DejaVuSans-111"/>
       <use x="372.205078" xlink:href="#DejaVuSans-107"/>
       <use x="430.115234" xlink:href="#DejaVuSans-32"/>
       <use x="461.902344" xlink:href="#DejaVuSans-32"/>
       <use x="493.689453" xlink:href="#DejaVuSans-49"/>
       <use x="557.3125" xlink:href="#DejaVuSans-48"/>
       <use x="620.935547" xlink:href="#DejaVuSans-51"/>
      </g>
     </g>
    </g>
    <g id="xtick_33">
     <g id="line2d_33">
      <g>
       <use style="stroke:#000000;stroke-width:0.8;" x="553.682697" xlink:href="#ma7e4ea4a0f" y="171.498125"/>
      </g>
     </g>
     <g id="text_33">
      <!-- Prague  104 -->
      <g transform="translate(556.442072 238.874688)rotate(-90)scale(0.1 -0.1)">
       <use xlink:href="#DejaVuSans-80"/>
       <use x="58.552734" xlink:href="#DejaVuSans-114"/>
       <use x="99.666016" xlink:href="#DejaVuSans-97"/>
       <use x="160.945312" xlink:href="#DejaVuSans-103"/>
       <use x="224.421875" xlink:href="#DejaVuSans-117"/>
       <use x="287.800781" xlink:href="#DejaVuSans-101"/>
       <use x="349.324219" xlink:href="#DejaVuSans-32"/>
       <use x="381.111328" xlink:href="#DejaVuSans-32"/>
       <use x="412.898438" xlink:href="#DejaVuSans-49"/>
       <use x="476.521484" xlink:href="#DejaVuSans-48"/>
       <use x="540.144531" xlink:href="#DejaVuSans-52"/>
      </g>
     </g>
    </g>
    <g id="xtick_34">
     <g id="line2d_34">
      <g>
       <use style="stroke:#000000;stroke-width:0.8;" x="568.210995" xlink:href="#ma7e4ea4a0f" y="171.498125"/>
      </g>
     </g>
     <g id="text_34">
      <!-- Montreal  105 -->
      <g transform="translate(570.97037 247.891875)rotate(-90)scale(0.1 -0.1)">
       <use xlink:href="#DejaVuSans-77"/>
       <use x="86.279297" xlink:href="#DejaVuSans-111"/>
       <use x="147.460938" xlink:href="#DejaVuSans-110"/>
       <use x="210.839844" xlink:href="#DejaVuSans-116"/>
       <use x="250.048828" xlink:href="#DejaVuSans-114"/>
       <use x="288.912109" xlink:href="#DejaVuSans-101"/>
       <use x="350.435547" xlink:href="#DejaVuSans-97"/>
       <use x="411.714844" xlink:href="#DejaVuSans-108"/>
       <use x="439.498047" xlink:href="#DejaVuSans-32"/>
       <use x="471.285156" xlink:href="#DejaVuSans-32"/>
       <use x="503.072266" xlink:href="#DejaVuSans-49"/>
       <use x="566.695312" xlink:href="#DejaVuSans-48"/>
       <use x="630.318359" xlink:href="#DejaVuSans-53"/>
      </g>
     </g>
    </g>
    <g id="xtick_35">
     <g id="line2d_35">
      <g>
       <use style="stroke:#000000;stroke-width:0.8;" x="582.739293" xlink:href="#ma7e4ea4a0f" y="171.498125"/>
      </g>
     </g>
     <g id="text_35">
      <!-- Singapore  106 -->
      <g transform="translate(585.498668 254.38875)rotate(-90)scale(0.1 -0.1)">
       <use xlink:href="#DejaVuSans-83"/>
       <use x="63.476562" xlink:href="#DejaVuSans-105"/>
       <use x="91.259766" xlink:href="#DejaVuSans-110"/>
       <use x="154.638672" xlink:href="#DejaVuSans-103"/>
       <use x="218.115234" xlink:href="#DejaVuSans-97"/>
       <use x="279.394531" xlink:href="#DejaVuSans-112"/>
       <use x="342.871094" xlink:href="#DejaVuSans-111"/>
       <use x="404.052734" xlink:href="#DejaVuSans-114"/>
       <use x="442.916016" xlink:href="#DejaVuSans-101"/>
       <use x="504.439453" xlink:href="#DejaVuSans-32"/>
       <use x="536.226562" xlink:href="#DejaVuSans-32"/>
       <use x="568.013672" xlink:href="#DejaVuSans-49"/>
       <use x="631.636719" xlink:href="#DejaVuSans-48"/>
       <use x="695.259766" xlink:href="#DejaVuSans-54"/>
      </g>
     </g>
    </g>
    <g id="xtick_36">
     <g id="line2d_36">
      <g>
       <use style="stroke:#000000;stroke-width:0.8;" x="597.26759" xlink:href="#ma7e4ea4a0f" y="171.498125"/>
      </g>
     </g>
     <g id="text_36">
      <!-- Vancouver  107 -->
      <g transform="translate(600.026965 256.610625)rotate(-90)scale(0.1 -0.1)">
       <use xlink:href="#DejaVuSans-86"/>
       <use x="60.658203" xlink:href="#DejaVuSans-97"/>
       <use x="121.9375" xlink:href="#DejaVuSans-110"/>
       <use x="185.316406" xlink:href="#DejaVuSans-99"/>
       <use x="240.296875" xlink:href="#DejaVuSans-111"/>
       <use x="301.478516" xlink:href="#DejaVuSans-117"/>
       <use x="364.857422" xlink:href="#DejaVuSans-118"/>
       <use x="424.037109" xlink:href="#DejaVuSans-101"/>
       <use x="485.560547" xlink:href="#DejaVuSans-114"/>
       <use x="526.673828" xlink:href="#DejaVuSans-32"/>
       <use x="558.460938" xlink:href="#DejaVuSans-32"/>
       <use x="590.248047" xlink:href="#DejaVuSans-49"/>
       <use x="653.871094" xlink:href="#DejaVuSans-48"/>
       <use x="717.494141" xlink:href="#DejaVuSans-55"/>
      </g>
     </g>
    </g>
    <g id="xtick_37">
     <g id="line2d_37">
      <g>
       <use style="stroke:#000000;stroke-width:0.8;" x="611.795888" xlink:href="#ma7e4ea4a0f" y="171.498125"/>
      </g>
     </g>
     <g id="text_37">
      <!-- Madrid  108 -->
      <g transform="translate(614.555263 238.284063)rotate(-90)scale(0.1 -0.1)">
       <use xlink:href="#DejaVuSans-77"/>
       <use x="86.279297" xlink:href="#DejaVuSans-97"/>
       <use x="147.558594" xlink:href="#DejaVuSans-100"/>
       <use x="211.035156" xlink:href="#DejaVuSans-114"/>
       <use x="252.148438" xlink:href="#DejaVuSans-105"/>
       <use x="279.931641" xlink:href="#DejaVuSans-100"/>
       <use x="343.408203" xlink:href="#DejaVuSans-32"/>
       <use x="375.195312" xlink:href="#DejaVuSans-32"/>
       <use x="406.982422" xlink:href="#DejaVuSans-49"/>
       <use x="470.605469" xlink:href="#DejaVuSans-48"/>
       <use x="534.228516" xlink:href="#DejaVuSans-56"/>
      </g>
     </g>
    </g>
    <g id="xtick_38">
     <g id="line2d_38">
      <g>
       <use style="stroke:#000000;stroke-width:0.8;" x="626.324186" xlink:href="#ma7e4ea4a0f" y="171.498125"/>
      </g>
     </g>
     <g id="text_38">
      <!-- Bangkok  109 -->
      <g transform="translate(629.083561 246.954375)rotate(-90)scale(0.1 -0.1)">
       <use xlink:href="#DejaVuSans-66"/>
       <use x="68.603516" xlink:href="#DejaVuSans-97"/>
       <use x="129.882812" xlink:href="#DejaVuSans-110"/>
       <use x="193.261719" xlink:href="#DejaVuSans-103"/>
       <use x="256.738281" xlink:href="#DejaVuSans-107"/>
       <use x="311.023438" xlink:href="#DejaVuSans-111"/>
       <use x="372.205078" xlink:href="#DejaVuSans-107"/>
       <use x="430.115234" xlink:href="#DejaVuSans-32"/>
       <use x="461.902344" xlink:href="#DejaVuSans-32"/>
       <use x="493.689453" xlink:href="#DejaVuSans-49"/>
       <use x="557.3125" xlink:href="#DejaVuSans-48"/>
       <use x="620.935547" xlink:href="#DejaVuSans-57"/>
      </g>
     </g>
    </g>
    <g id="xtick_39">
     <g id="line2d_39">
      <g>
       <use style="stroke:#000000;stroke-width:0.8;" x="640.852483" xlink:href="#ma7e4ea4a0f" y="171.498125"/>
      </g>
     </g>
     <g id="text_39">
      <!-- Prague  110 -->
      <g transform="translate(643.611858 238.874688)rotate(-90)scale(0.1 -0.1)">
       <use xlink:href="#DejaVuSans-80"/>
       <use x="58.552734" xlink:href="#DejaVuSans-114"/>
       <use x="99.666016" xlink:href="#DejaVuSans-97"/>
       <use x="160.945312" xlink:href="#DejaVuSans-103"/>
       <use x="224.421875" xlink:href="#DejaVuSans-117"/>
       <use x="287.800781" xlink:href="#DejaVuSans-101"/>
       <use x="349.324219" xlink:href="#DejaVuSans-32"/>
       <use x="381.111328" xlink:href="#DejaVuSans-32"/>
       <use x="412.898438" xlink:href="#DejaVuSans-49"/>
       <use x="476.521484" xlink:href="#DejaVuSans-49"/>
       <use x="540.144531" xlink:href="#DejaVuSans-48"/>
      </g>
     </g>
    </g>
    <g id="xtick_40">
     <g id="line2d_40">
      <g>
       <use style="stroke:#000000;stroke-width:0.8;" x="655.380781" xlink:href="#ma7e4ea4a0f" y="171.498125"/>
      </g>
     </g>
     <g id="text_40">
      <!-- San Francisco  111 -->
      <g transform="translate(658.140156 272.640313)rotate(-90)scale(0.1 -0.1)">
       <use xlink:href="#DejaVuSans-83"/>
       <use x="63.476562" xlink:href="#DejaVuSans-97"/>
       <use x="124.755859" xlink:href="#DejaVuSans-110"/>
       <use x="188.134766" xlink:href="#DejaVuSans-32"/>
       <use x="219.921875" xlink:href="#DejaVuSans-70"/>
       <use x="270.191406" xlink:href="#DejaVuSans-114"/>
       <use x="311.304688" xlink:href="#DejaVuSans-97"/>
       <use x="372.583984" xlink:href="#DejaVuSans-110"/>
       <use x="435.962891" xlink:href="#DejaVuSans-99"/>
       <use x="490.943359" xlink:href="#DejaVuSans-105"/>
       <use x="518.726562" xlink:href="#DejaVuSans-115"/>
       <use x="570.826172" xlink:href="#DejaVuSans-99"/>
       <use x="625.806641" xlink:href="#DejaVuSans-111"/>
       <use x="686.988281" xlink:href="#DejaVuSans-32"/>
       <use x="718.775391" xlink:href="#DejaVuSans-32"/>
       <use x="750.5625" xlink:href="#DejaVuSans-49"/>
       <use x="814.185547" xlink:href="#DejaVuSans-49"/>
       <use x="877.808594" xlink:href="#DejaVuSans-49"/>
      </g>
     </g>
    </g>
    <g id="xtick_41">
     <g id="line2d_41">
      <g>
       <use style="stroke:#000000;stroke-width:0.8;" x="669.909079" xlink:href="#ma7e4ea4a0f" y="171.498125"/>
      </g>
     </g>
     <g id="text_41">
      <!-- Madrid  112 -->
      <g transform="translate(672.668454 238.284063)rotate(-90)scale(0.1 -0.1)">
       <use xlink:href="#DejaVuSans-77"/>
       <use x="86.279297" xlink:href="#DejaVuSans-97"/>
       <use x="147.558594" xlink:href="#DejaVuSans-100"/>
       <use x="211.035156" xlink:href="#DejaVuSans-114"/>
       <use x="252.148438" xlink:href="#DejaVuSans-105"/>
       <use x="279.931641" xlink:href="#DejaVuSans-100"/>
       <use x="343.408203" xlink:href="#DejaVuSans-32"/>
       <use x="375.195312" xlink:href="#DejaVuSans-32"/>
       <use x="406.982422" xlink:href="#DejaVuSans-49"/>
       <use x="470.605469" xlink:href="#DejaVuSans-49"/>
       <use x="534.228516" xlink:href="#DejaVuSans-50"/>
      </g>
     </g>
    </g>
   </g>
   <g id="matplotlib.axis_2">
    <g id="ytick_1">
     <g id="line2d_42">
      <defs>
       <path d="M 0 0 
L -3.5 0 
" id="m890ad4d4f3" style="stroke:#000000;stroke-width:0.8;"/>
      </defs>
      <g>
       <use style="stroke:#000000;stroke-width:0.8;" x="53.328125" xlink:href="#m890ad4d4f3" y="171.498125"/>
      </g>
     </g>
     <g id="text_42">
      <!-- 0 -->
      <g transform="translate(39.965625 175.297344)scale(0.1 -0.1)">
       <use xlink:href="#DejaVuSans-48"/>
      </g>
     </g>
    </g>
    <g id="ytick_2">
     <g id="line2d_43">
      <g>
       <use style="stroke:#000000;stroke-width:0.8;" x="53.328125" xlink:href="#m890ad4d4f3" y="140.668897"/>
      </g>
     </g>
     <g id="text_43">
      <!-- 500 -->
      <g transform="translate(27.240625 144.468116)scale(0.1 -0.1)">
       <use xlink:href="#DejaVuSans-53"/>
       <use x="63.623047" xlink:href="#DejaVuSans-48"/>
       <use x="127.246094" xlink:href="#DejaVuSans-48"/>
      </g>
     </g>
    </g>
    <g id="ytick_3">
     <g id="line2d_44">
      <g>
       <use style="stroke:#000000;stroke-width:0.8;" x="53.328125" xlink:href="#m890ad4d4f3" y="109.839669"/>
      </g>
     </g>
     <g id="text_44">
      <!-- 1000 -->
      <g transform="translate(20.878125 113.638887)scale(0.1 -0.1)">
       <use xlink:href="#DejaVuSans-49"/>
       <use x="63.623047" xlink:href="#DejaVuSans-48"/>
       <use x="127.246094" xlink:href="#DejaVuSans-48"/>
       <use x="190.869141" xlink:href="#DejaVuSans-48"/>
      </g>
     </g>
    </g>
    <g id="ytick_4">
     <g id="line2d_45">
      <g>
       <use style="stroke:#000000;stroke-width:0.8;" x="53.328125" xlink:href="#m890ad4d4f3" y="79.01044"/>
      </g>
     </g>
     <g id="text_45">
      <!-- 1500 -->
      <g transform="translate(20.878125 82.809659)scale(0.1 -0.1)">
       <use xlink:href="#DejaVuSans-49"/>
       <use x="63.623047" xlink:href="#DejaVuSans-53"/>
       <use x="127.246094" xlink:href="#DejaVuSans-48"/>
       <use x="190.869141" xlink:href="#DejaVuSans-48"/>
      </g>
     </g>
    </g>
    <g id="ytick_5">
     <g id="line2d_46">
      <g>
       <use style="stroke:#000000;stroke-width:0.8;" x="53.328125" xlink:href="#m890ad4d4f3" y="48.181212"/>
      </g>
     </g>
     <g id="text_46">
      <!-- 2000 -->
      <g transform="translate(20.878125 51.980431)scale(0.1 -0.1)">
       <use xlink:href="#DejaVuSans-50"/>
       <use x="63.623047" xlink:href="#DejaVuSans-48"/>
       <use x="127.246094" xlink:href="#DejaVuSans-48"/>
       <use x="190.869141" xlink:href="#DejaVuSans-48"/>
      </g>
     </g>
    </g>
    <g id="text_47">
     <!-- Attendee Number -->
     <defs>
      <path d="M 9.8125 72.90625 
L 23.09375 72.90625 
L 55.421875 11.921875 
L 55.421875 72.90625 
L 64.984375 72.90625 
L 64.984375 0 
L 51.703125 0 
L 19.390625 60.984375 
L 19.390625 0 
L 9.8125 0 
z
" id="DejaVuSans-78"/>
     </defs>
     <g transform="translate(14.798438 148.408906)rotate(-90)scale(0.1 -0.1)">
      <use xlink:href="#DejaVuSans-65"/>
      <use x="66.658203" xlink:href="#DejaVuSans-116"/>
      <use x="105.867188" xlink:href="#DejaVuSans-116"/>
      <use x="145.076172" xlink:href="#DejaVuSans-101"/>
      <use x="206.599609" xlink:href="#DejaVuSans-110"/>
      <use x="269.978516" xlink:href="#DejaVuSans-100"/>
      <use x="333.455078" xlink:href="#DejaVuSans-101"/>
      <use x="394.978516" xlink:href="#DejaVuSans-101"/>
      <use x="456.501953" xlink:href="#DejaVuSans-32"/>
      <use x="488.289062" xlink:href="#DejaVuSans-78"/>
      <use x="563.09375" xlink:href="#DejaVuSans-117"/>
      <use x="626.472656" xlink:href="#DejaVuSans-109"/>
      <use x="723.884766" xlink:href="#DejaVuSans-98"/>
      <use x="787.361328" xlink:href="#DejaVuSans-101"/>
      <use x="848.884766" xlink:href="#DejaVuSans-114"/>
     </g>
    </g>
   </g>
   <g id="patch_44">
    <path d="M 53.328125 171.498125 
L 53.328125 36.318125 
" style="fill:none;stroke:#000000;stroke-linecap:square;stroke-linejoin:miter;stroke-width:0.8;"/>
   </g>
   <g id="patch_45">
    <path d="M 705.358125 171.498125 
L 705.358125 36.318125 
" style="fill:none;stroke:#000000;stroke-linecap:square;stroke-linejoin:miter;stroke-width:0.8;"/>
   </g>
   <g id="patch_46">
    <path d="M 53.328125 171.498125 
L 705.358125 171.498125 
" style="fill:none;stroke:#000000;stroke-linecap:square;stroke-linejoin:miter;stroke-width:0.8;"/>
   </g>
   <g id="patch_47">
    <path d="M 53.328125 36.318125 
L 705.358125 36.318125 
" style="fill:none;stroke:#000000;stroke-linecap:square;stroke-linejoin:miter;stroke-width:0.8;"/>
   </g>
   <g id="text_48">
    <!-- Attendee Number -->
    <g transform="translate(325.942188 16.318125)scale(0.12 -0.12)">
     <use xlink:href="#DejaVuSans-65"/>
     <use x="66.658203" xlink:href="#DejaVuSans-116"/>
     <use x="105.867188" xlink:href="#DejaVuSans-116"/>
     <use x="145.076172" xlink:href="#DejaVuSans-101"/>
     <use x="206.599609" xlink:href="#DejaVuSans-110"/>
     <use x="269.978516" xlink:href="#DejaVuSans-100"/>
     <use x="333.455078" xlink:href="#DejaVuSans-101"/>
     <use x="394.978516" xlink:href="#DejaVuSans-101"/>
     <use x="456.501953" xlink:href="#DejaVuSans-32"/>
     <use x="488.289062" xlink:href="#DejaVuSans-78"/>
     <use x="563.09375" xlink:href="#DejaVuSans-117"/>
     <use x="626.472656" xlink:href="#DejaVuSans-109"/>
     <use x="723.884766" xlink:href="#DejaVuSans-98"/>
     <use x="787.361328" xlink:href="#DejaVuSans-101"/>
     <use x="848.884766" xlink:href="#DejaVuSans-114"/>
    </g>
   </g>
  </g>
 </g>
 <defs>
  <clipPath id="p9f8dc87457">
   <rect height="135.18" width="652.03" x="53.328125" y="36.318125"/>
  </clipPath>
 </defs>
</svg>
