<?xml version="1.0" encoding="utf-8" standalone="no"?>
<!DOCTYPE svg PUBLIC "-//W3C//DTD SVG 1.1//EN"
  "http://www.w3.org/Graphics/SVG/1.1/DTD/svg11.dtd">
<svg xmlns:xlink="http://www.w3.org/1999/xlink" width="1717.242188pt" height="277.531937pt" viewBox="0 0 1717.242188 277.531937" xmlns="http://www.w3.org/2000/svg" version="1.1">
 <metadata>
  <rdf:RDF xmlns:dc="http://purl.org/dc/elements/1.1/" xmlns:cc="http://creativecommons.org/ns#" xmlns:rdf="http://www.w3.org/1999/02/22-rdf-syntax-ns#">
   <cc:Work>
    <dc:type rdf:resource="http://purl.org/dc/dcmitype/StillImage"/>
    <dc:date>2023-06-07T11:11:21.726988</dc:date>
    <dc:format>image/svg+xml</dc:format>
    <dc:creator>
     <cc:Agent>
      <dc:title>Matplotlib v3.7.1, https://matplotlib.org/</dc:title>
     </cc:Agent>
    </dc:creator>
   </cc:Work>
  </rdf:RDF>
 </metadata>
 <defs>
  <style type="text/css">*{stroke-linejoin: round; stroke-linecap: butt}</style>
 </defs>
 <g id="figure_1">
  <g id="patch_1">
   <path d="M -0 277.531937 
L 1717.242188 277.531937 
L 1717.242188 0 
L -0 0 
z
" style="fill: #ffffff"/>
  </g>
  <g id="axes_1">
   <g id="patch_2">
    <path d="M 43.803125 242.456 
L 1503.803125 242.456 
L 1503.803125 36.32 
L 43.803125 36.32 
z
" style="fill: #ffffff"/>
   </g>
   <g id="patch_3">
    <path d="M 110.166761 242.456 
L 200.151353 242.456 
L 200.151353 173.602319 
L 110.166761 173.602319 
z
" clip-path="url(#pcb33973e08)" style="fill: #1f77b4"/>
   </g>
   <g id="patch_4">
    <path d="M 222.647501 242.456 
L 312.632093 242.456 
L 312.632093 165.095093 
L 222.647501 165.095093 
z
" clip-path="url(#pcb33973e08)" style="fill: #1f77b4"/>
   </g>
   <g id="patch_5">
    <path d="M 335.128241 242.456 
L 425.112832 242.456 
L 425.112832 156.327833 
L 335.128241 156.327833 
z
" clip-path="url(#pcb33973e08)" style="fill: #1f77b4"/>
   </g>
   <g id="patch_6">
    <path d="M 447.60898 242.456 
L 537.593572 242.456 
L 537.593572 146.310291 
L 447.60898 146.310291 
z
" clip-path="url(#pcb33973e08)" style="fill: #1f77b4"/>
   </g>
   <g id="patch_7">
    <path d="M 560.08972 242.456 
L 650.074311 242.456 
L 650.074311 177.722363 
L 560.08972 177.722363 
z
" clip-path="url(#pcb33973e08)" style="fill: #1f77b4"/>
   </g>
   <g id="patch_8">
    <path d="M 672.570459 242.456 
L 762.555051 242.456 
L 762.555051 163.816152 
L 672.570459 163.816152 
z
" clip-path="url(#pcb33973e08)" style="fill: #1f77b4"/>
   </g>
   <g id="patch_9">
    <path d="M 785.051199 242.456 
L 875.035791 242.456 
L 875.035791 180.669812 
L 785.051199 180.669812 
z
" clip-path="url(#pcb33973e08)" style="fill: #1f77b4"/>
   </g>
   <g id="patch_10">
    <path d="M 897.531939 242.456 
L 987.51653 242.456 
L 987.51653 172.970134 
L 897.531939 172.970134 
z
" clip-path="url(#pcb33973e08)" style="fill: #1f77b4"/>
   </g>
   <g id="patch_11">
    <path d="M 1010.012678 242.456 
L 1099.99727 242.456 
L 1099.99727 162.541032 
L 1010.012678 162.541032 
z
" clip-path="url(#pcb33973e08)" style="fill: #1f77b4"/>
   </g>
   <g id="patch_12">
    <path d="M 1122.493418 242.456 
L 1212.478009 242.456 
L 1212.478009 153.070598 
L 1122.493418 153.070598 
z
" clip-path="url(#pcb33973e08)" style="fill: #1f77b4"/>
   </g>
   <g id="patch_13">
    <path d="M 1234.974157 242.456 
L 1324.958749 242.456 
L 1324.958749 183.6653 
L 1234.974157 183.6653 
z
" clip-path="url(#pcb33973e08)" style="fill: #1f77b4"/>
   </g>
   <g id="patch_14">
    <path d="M 1347.454897 242.456 
L 1437.439489 242.456 
L 1437.439489 169.451683 
L 1347.454897 169.451683 
z
" clip-path="url(#pcb33973e08)" style="fill: #1f77b4"/>
   </g>
   <g id="patch_15">
    <path d="M 110.166761 173.602319 
L 200.151353 173.602319 
L 200.151353 152.798145 
L 110.166761 152.798145 
z
" clip-path="url(#pcb33973e08)" style="fill: #ff7f0e"/>
   </g>
   <g id="patch_16">
    <path d="M 222.647501 165.095093 
L 312.632093 165.095093 
L 312.632093 141.85799 
L 222.647501 141.85799 
z
" clip-path="url(#pcb33973e08)" style="fill: #ff7f0e"/>
   </g>
   <g id="patch_17">
    <path d="M 335.128241 156.327833 
L 425.112832 156.327833 
L 425.112832 129.908183 
L 335.128241 129.908183 
z
" clip-path="url(#pcb33973e08)" style="fill: #ff7f0e"/>
   </g>
   <g id="patch_18">
    <path d="M 447.60898 146.310291 
L 537.593572 146.310291 
L 537.593572 116.833617 
L 447.60898 116.833617 
z
" clip-path="url(#pcb33973e08)" style="fill: #ff7f0e"/>
   </g>
   <g id="patch_19">
    <path d="M 560.08972 177.722363 
L 650.074311 177.722363 
L 650.074311 158.24019 
L 560.08972 158.24019 
z
" clip-path="url(#pcb33973e08)" style="fill: #ff7f0e"/>
   </g>
   <g id="patch_20">
    <path d="M 672.570459 163.816152 
L 762.555051 163.816152 
L 762.555051 140.000125 
L 672.570459 140.000125 
z
" clip-path="url(#pcb33973e08)" style="fill: #ff7f0e"/>
   </g>
   <g id="patch_21">
    <path d="M 785.051199 180.669812 
L 875.035791 180.669812 
L 875.035791 161.515324 
L 785.051199 161.515324 
z
" clip-path="url(#pcb33973e08)" style="fill: #ff7f0e"/>
   </g>
   <g id="patch_22">
    <path d="M 897.531939 172.970134 
L 987.51653 172.970134 
L 987.51653 151.431277 
L 897.531939 151.431277 
z
" clip-path="url(#pcb33973e08)" style="fill: #ff7f0e"/>
   </g>
   <g id="patch_23">
    <path d="M 1010.012678 162.541032 
L 1099.99727 162.541032 
L 1099.99727 138.458109 
L 1010.012678 138.458109 
z
" clip-path="url(#pcb33973e08)" style="fill: #ff7f0e"/>
   </g>
   <g id="patch_24">
    <path d="M 1122.493418 153.070598 
L 1212.478009 153.070598 
L 1212.478009 125.95867 
L 1122.493418 125.95867 
z
" clip-path="url(#pcb33973e08)" style="fill: #ff7f0e"/>
   </g>
   <g id="patch_25">
    <path d="M 1234.974157 183.6653 
L 1324.958749 183.6653 
L 1324.958749 165.329936 
L 1234.974157 165.329936 
z
" clip-path="url(#pcb33973e08)" style="fill: #ff7f0e"/>
   </g>
   <g id="patch_26">
    <path d="M 1347.454897 169.451683 
L 1437.439489 169.451683 
L 1437.439489 146.683443 
L 1347.454897 146.683443 
z
" clip-path="url(#pcb33973e08)" style="fill: #ff7f0e"/>
   </g>
   <g id="patch_27">
    <path d="M 110.166761 152.798145 
L 200.151353 152.798145 
L 200.151353 138.479373 
L 110.166761 138.479373 
z
" clip-path="url(#pcb33973e08)" style="fill: #2ca02c"/>
   </g>
   <g id="patch_28">
    <path d="M 222.647501 141.85799 
L 312.632093 141.85799 
L 312.632093 125.882934 
L 222.647501 125.882934 
z
" clip-path="url(#pcb33973e08)" style="fill: #2ca02c"/>
   </g>
   <g id="patch_29">
    <path d="M 335.128241 129.908183 
L 425.112832 129.908183 
L 425.112832 111.68063 
L 335.128241 111.68063 
z
" clip-path="url(#pcb33973e08)" style="fill: #2ca02c"/>
   </g>
   <g id="patch_30">
    <path d="M 447.60898 116.833617 
L 537.593572 116.833617 
L 537.593572 96.53708 
L 447.60898 96.53708 
z
" clip-path="url(#pcb33973e08)" style="fill: #2ca02c"/>
   </g>
   <g id="patch_31">
    <path d="M 560.08972 158.24019 
L 650.074311 158.24019 
L 650.074311 144.85987 
L 560.08972 144.85987 
z
" clip-path="url(#pcb33973e08)" style="fill: #2ca02c"/>
   </g>
   <g id="patch_32">
    <path d="M 672.570459 140.000125 
L 762.555051 140.000125 
L 762.555051 123.656423 
L 672.570459 123.656423 
z
" clip-path="url(#pcb33973e08)" style="fill: #2ca02c"/>
   </g>
   <g id="patch_33">
    <path d="M 785.051199 161.515324 
L 875.035791 161.515324 
L 875.035791 148.902496 
L 785.051199 148.902496 
z
" clip-path="url(#pcb33973e08)" style="fill: #2ca02c"/>
   </g>
   <g id="patch_34">
    <path d="M 897.531939 151.431277 
L 987.51653 151.431277 
L 987.51653 137.249246 
L 897.531939 137.249246 
z
" clip-path="url(#pcb33973e08)" style="fill: #2ca02c"/>
   </g>
   <g id="patch_35">
    <path d="M 1010.012678 138.458109 
L 1099.99727 138.458109 
L 1099.99727 122.388369 
L 1010.012678 122.388369 
z
" clip-path="url(#pcb33973e08)" style="fill: #2ca02c"/>
   </g>
   <g id="patch_36">
    <path d="M 1122.493418 125.95867 
L 1212.478009 125.95867 
L 1212.478009 107.927598 
L 1122.493418 107.927598 
z
" clip-path="url(#pcb33973e08)" style="fill: #2ca02c"/>
   </g>
   <g id="patch_37">
    <path d="M 1234.974157 165.329936 
L 1324.958749 165.329936 
L 1324.958749 153.245942 
L 1234.974157 153.245942 
z
" clip-path="url(#pcb33973e08)" style="fill: #2ca02c"/>
   </g>
   <g id="patch_38">
    <path d="M 1347.454897 146.683443 
L 1437.439489 146.683443 
L 1437.439489 131.677946 
L 1347.454897 131.677946 
z
" clip-path="url(#pcb33973e08)" style="fill: #2ca02c"/>
   </g>
   <g id="patch_39">
    <path d="M 110.166761 138.479373 
L 200.151353 138.479373 
L 200.151353 131.289033 
L 110.166761 131.289033 
z
" clip-path="url(#pcb33973e08)" style="fill: #d62728"/>
   </g>
   <g id="patch_40">
    <path d="M 222.647501 125.882934 
L 312.632093 125.882934 
L 312.632093 118.237559 
L 222.647501 118.237559 
z
" clip-path="url(#pcb33973e08)" style="fill: #d62728"/>
   </g>
   <g id="patch_41">
    <path d="M 335.128241 111.68063 
L 425.112832 111.68063 
L 425.112832 101.195179 
L 335.128241 101.195179 
z
" clip-path="url(#pcb33973e08)" style="fill: #d62728"/>
   </g>
   <g id="patch_42">
    <path d="M 447.60898 96.53708 
L 537.593572 96.53708 
L 537.593572 85.463229 
L 447.60898 85.463229 
z
" clip-path="url(#pcb33973e08)" style="fill: #d62728"/>
   </g>
   <g id="patch_43">
    <path d="M 560.08972 144.85987 
L 650.074311 144.85987 
L 650.074311 139.239659 
L 560.08972 139.239659 
z
" clip-path="url(#pcb33973e08)" style="fill: #d62728"/>
   </g>
   <g id="patch_44">
    <path d="M 672.570459 123.656423 
L 762.555051 123.656423 
L 762.555051 117.944719 
L 672.570459 117.944719 
z
" clip-path="url(#pcb33973e08)" style="fill: #d62728"/>
   </g>
   <g id="patch_45">
    <path d="M 785.051199 148.902496 
L 875.035791 148.902496 
L 875.035791 142.164666 
L 785.051199 142.164666 
z
" clip-path="url(#pcb33973e08)" style="fill: #d62728"/>
   </g>
   <g id="patch_46">
    <path d="M 897.531939 137.249246 
L 987.51653 137.249246 
L 987.51653 129.94508 
L 897.531939 129.94508 
z
" clip-path="url(#pcb33973e08)" style="fill: #d62728"/>
   </g>
   <g id="patch_47">
    <path d="M 1010.012678 122.388369 
L 1099.99727 122.388369 
L 1099.99727 113.626999 
L 1010.012678 113.626999 
z
" clip-path="url(#pcb33973e08)" style="fill: #d62728"/>
   </g>
   <g id="patch_48">
    <path d="M 1122.493418 107.927598 
L 1212.478009 107.927598 
L 1212.478009 98.636816 
L 1122.493418 98.636816 
z
" clip-path="url(#pcb33973e08)" style="fill: #d62728"/>
   </g>
   <g id="patch_49">
    <path d="M 1234.974157 153.245942 
L 1324.958749 153.245942 
L 1324.958749 149.025537 
L 1234.974157 149.025537 
z
" clip-path="url(#pcb33973e08)" style="fill: #d62728"/>
   </g>
   <g id="patch_50">
    <path d="M 1347.454897 131.677946 
L 1437.439489 131.677946 
L 1437.439489 127.387396 
L 1347.454897 127.387396 
z
" clip-path="url(#pcb33973e08)" style="fill: #d62728"/>
   </g>
   <g id="patch_51">
    <path d="M 110.166761 131.289033 
L 200.151353 131.289033 
L 200.151353 124.938092 
L 110.166761 124.938092 
z
" clip-path="url(#pcb33973e08)" style="fill: #9467bd"/>
   </g>
   <g id="patch_52">
    <path d="M 222.647501 118.237559 
L 312.632093 118.237559 
L 312.632093 111.175074 
L 222.647501 111.175074 
z
" clip-path="url(#pcb33973e08)" style="fill: #9467bd"/>
   </g>
   <g id="patch_53">
    <path d="M 335.128241 101.195179 
L 425.112832 101.195179 
L 425.112832 93.078985 
L 335.128241 93.078985 
z
" clip-path="url(#pcb33973e08)" style="fill: #9467bd"/>
   </g>
   <g id="patch_54">
    <path d="M 447.60898 85.463229 
L 537.593572 85.463229 
L 537.593572 76.462223 
L 447.60898 76.462223 
z
" clip-path="url(#pcb33973e08)" style="fill: #9467bd"/>
   </g>
   <g id="patch_55">
    <path d="M 560.08972 139.239659 
L 650.074311 139.239659 
L 650.074311 133.371648 
L 560.08972 133.371648 
z
" clip-path="url(#pcb33973e08)" style="fill: #9467bd"/>
   </g>
   <g id="patch_56">
    <path d="M 672.570459 117.944719 
L 762.555051 117.944719 
L 762.555051 110.867739 
L 672.570459 110.867739 
z
" clip-path="url(#pcb33973e08)" style="fill: #9467bd"/>
   </g>
   <g id="patch_57">
    <path d="M 785.051199 142.164666 
L 875.035791 142.164666 
L 875.035791 136.395622 
L 785.051199 136.395622 
z
" clip-path="url(#pcb33973e08)" style="fill: #9467bd"/>
   </g>
   <g id="patch_58">
    <path d="M 897.531939 129.94508 
L 987.51653 129.94508 
L 987.51653 123.457343 
L 897.531939 123.457343 
z
" clip-path="url(#pcb33973e08)" style="fill: #9467bd"/>
   </g>
   <g id="patch_59">
    <path d="M 1010.012678 113.626999 
L 1099.99727 113.626999 
L 1099.99727 106.383688 
L 1010.012678 106.383688 
z
" clip-path="url(#pcb33973e08)" style="fill: #9467bd"/>
   </g>
   <g id="patch_60">
    <path d="M 1122.493418 98.636816 
L 1212.478009 98.636816 
L 1212.478009 90.467403 
L 1122.493418 90.467403 
z
" clip-path="url(#pcb33973e08)" style="fill: #9467bd"/>
   </g>
   <g id="patch_61">
    <path d="M 1234.974157 149.025537 
L 1324.958749 149.025537 
L 1324.958749 143.525333 
L 1234.974157 143.525333 
z
" clip-path="url(#pcb33973e08)" style="fill: #9467bd"/>
   </g>
   <g id="patch_62">
    <path d="M 1347.454897 127.387396 
L 1437.439489 127.387396 
L 1437.439489 120.557428 
L 1347.454897 120.557428 
z
" clip-path="url(#pcb33973e08)" style="fill: #9467bd"/>
   </g>
   <g id="patch_63">
    <path d="M 110.166761 124.938092 
L 200.151353 124.938092 
L 200.151353 119.178924 
L 110.166761 119.178924 
z
" clip-path="url(#pcb33973e08)" style="fill: #8c564b"/>
   </g>
   <g id="patch_64">
    <path d="M 222.647501 111.175074 
L 312.632093 111.175074 
L 312.632093 104.703714 
L 222.647501 104.703714 
z
" clip-path="url(#pcb33973e08)" style="fill: #8c564b"/>
   </g>
   <g id="patch_65">
    <path d="M 335.128241 93.078985 
L 425.112832 93.078985 
L 425.112832 85.759771 
L 335.128241 85.759771 
z
" clip-path="url(#pcb33973e08)" style="fill: #8c564b"/>
   </g>
   <g id="patch_66">
    <path d="M 447.60898 76.462223 
L 537.593572 76.462223 
L 537.593572 68.306863 
L 447.60898 68.306863 
z
" clip-path="url(#pcb33973e08)" style="fill: #8c564b"/>
   </g>
   <g id="patch_67">
    <path d="M 560.08972 133.371648 
L 650.074311 133.371648 
L 650.074311 127.933587 
L 560.08972 127.933587 
z
" clip-path="url(#pcb33973e08)" style="fill: #8c564b"/>
   </g>
   <g id="patch_68">
    <path d="M 672.570459 110.867739 
L 762.555051 110.867739 
L 762.555051 104.312417 
L 672.570459 104.312417 
z
" clip-path="url(#pcb33973e08)" style="fill: #8c564b"/>
   </g>
   <g id="patch_69">
    <path d="M 785.051199 136.395622 
L 875.035791 136.395622 
L 875.035791 130.784959 
L 785.051199 130.784959 
z
" clip-path="url(#pcb33973e08)" style="fill: #8c564b"/>
   </g>
   <g id="patch_70">
    <path d="M 897.531939 123.457343 
L 987.51653 123.457343 
L 987.51653 117.145547 
L 897.531939 117.145547 
z
" clip-path="url(#pcb33973e08)" style="fill: #8c564b"/>
   </g>
   <g id="patch_71">
    <path d="M 1010.012678 106.383688 
L 1099.99727 106.383688 
L 1099.99727 98.869296 
L 1010.012678 98.869296 
z
" clip-path="url(#pcb33973e08)" style="fill: #8c564b"/>
   </g>
   <g id="patch_72">
    <path d="M 1122.493418 90.467403 
L 1212.478009 90.467403 
L 1212.478009 82.028382 
L 1122.493418 82.028382 
z
" clip-path="url(#pcb33973e08)" style="fill: #8c564b"/>
   </g>
   <g id="patch_73">
    <path d="M 1234.974157 143.525333 
L 1324.958749 143.525333 
L 1324.958749 138.416363 
L 1234.974157 138.416363 
z
" clip-path="url(#pcb33973e08)" style="fill: #8c564b"/>
   </g>
   <g id="patch_74">
    <path d="M 1347.454897 120.557428 
L 1437.439489 120.557428 
L 1437.439489 114.213281 
L 1347.454897 114.213281 
z
" clip-path="url(#pcb33973e08)" style="fill: #8c564b"/>
   </g>
   <g id="patch_75">
    <path d="M 110.166761 119.178924 
L 200.151353 119.178924 
L 200.151353 115.330099 
L 110.166761 115.330099 
z
" clip-path="url(#pcb33973e08)" style="fill: #e377c2"/>
   </g>
   <g id="patch_76">
    <path d="M 222.647501 104.703714 
L 312.632093 104.703714 
L 312.632093 100.388804 
L 222.647501 100.388804 
z
" clip-path="url(#pcb33973e08)" style="fill: #e377c2"/>
   </g>
   <g id="patch_77">
    <path d="M 335.128241 85.759771 
L 425.112832 85.759771 
L 425.112832 80.853187 
L 335.128241 80.853187 
z
" clip-path="url(#pcb33973e08)" style="fill: #e377c2"/>
   </g>
   <g id="patch_78">
    <path d="M 447.60898 68.306863 
L 537.593572 68.306863 
L 537.593572 62.819253 
L 447.60898 62.819253 
z
" clip-path="url(#pcb33973e08)" style="fill: #e377c2"/>
   </g>
   <g id="patch_79">
    <path d="M 560.08972 127.933587 
L 650.074311 127.933587 
L 650.074311 124.300841 
L 560.08972 124.300841 
z
" clip-path="url(#pcb33973e08)" style="fill: #e377c2"/>
   </g>
   <g id="patch_80">
    <path d="M 672.570459 104.312417 
L 762.555051 104.312417 
L 762.555051 99.84226 
L 672.570459 99.84226 
z
" clip-path="url(#pcb33973e08)" style="fill: #e377c2"/>
   </g>
   <g id="patch_81">
    <path d="M 785.051199 130.784959 
L 875.035791 130.784959 
L 875.035791 127.75842 
L 785.051199 127.75842 
z
" clip-path="url(#pcb33973e08)" style="fill: #e377c2"/>
   </g>
   <g id="patch_82">
    <path d="M 897.531939 117.145547 
L 987.51653 117.145547 
L 987.51653 113.741426 
L 897.531939 113.741426 
z
" clip-path="url(#pcb33973e08)" style="fill: #e377c2"/>
   </g>
   <g id="patch_83">
    <path d="M 1010.012678 98.869296 
L 1099.99727 98.869296 
L 1099.99727 94.228372 
L 1010.012678 94.228372 
z
" clip-path="url(#pcb33973e08)" style="fill: #e377c2"/>
   </g>
   <g id="patch_84">
    <path d="M 1122.493418 82.028382 
L 1212.478009 82.028382 
L 1212.478009 76.802008 
L 1122.493418 76.802008 
z
" clip-path="url(#pcb33973e08)" style="fill: #e377c2"/>
   </g>
   <g id="patch_85">
    <path d="M 1234.974157 138.416363 
L 1324.958749 138.416363 
L 1324.958749 135.571715 
L 1234.974157 135.571715 
z
" clip-path="url(#pcb33973e08)" style="fill: #e377c2"/>
   </g>
   <g id="patch_86">
    <path d="M 1347.454897 114.213281 
L 1437.439489 114.213281 
L 1437.439489 110.680892 
L 1347.454897 110.680892 
z
" clip-path="url(#pcb33973e08)" style="fill: #e377c2"/>
   </g>
   <g id="patch_87">
    <path d="M 110.166761 115.330099 
L 200.151353 115.330099 
L 200.151353 112.142903 
L 110.166761 112.142903 
z
" clip-path="url(#pcb33973e08)" style="fill: #7f7f7f"/>
   </g>
   <g id="patch_88">
    <path d="M 222.647501 100.388804 
L 312.632093 100.388804 
L 312.632093 96.818407 
L 222.647501 96.818407 
z
" clip-path="url(#pcb33973e08)" style="fill: #7f7f7f"/>
   </g>
   <g id="patch_89">
    <path d="M 335.128241 80.853187 
L 425.112832 80.853187 
L 425.112832 76.738163 
L 335.128241 76.738163 
z
" clip-path="url(#pcb33973e08)" style="fill: #7f7f7f"/>
   </g>
   <g id="patch_90">
    <path d="M 447.60898 62.819253 
L 537.593572 62.819253 
L 537.593572 58.214632 
L 447.60898 58.214632 
z
" clip-path="url(#pcb33973e08)" style="fill: #7f7f7f"/>
   </g>
   <g id="patch_91">
    <path d="M 560.08972 124.300841 
L 650.074311 124.300841 
L 650.074311 121.306058 
L 560.08972 121.306058 
z
" clip-path="url(#pcb33973e08)" style="fill: #7f7f7f"/>
   </g>
   <g id="patch_92">
    <path d="M 672.570459 99.84226 
L 762.555051 99.84226 
L 762.555051 96.221179 
L 672.570459 96.221179 
z
" clip-path="url(#pcb33973e08)" style="fill: #7f7f7f"/>
   </g>
   <g id="patch_93">
    <path d="M 785.051199 127.75842 
L 875.035791 127.75842 
L 875.035791 125.589943 
L 785.051199 125.589943 
z
" clip-path="url(#pcb33973e08)" style="fill: #7f7f7f"/>
   </g>
   <g id="patch_94">
    <path d="M 897.531939 113.741426 
L 987.51653 113.741426 
L 987.51653 111.303224 
L 897.531939 111.303224 
z
" clip-path="url(#pcb33973e08)" style="fill: #7f7f7f"/>
   </g>
   <g id="patch_95">
    <path d="M 1010.012678 94.228372 
L 1099.99727 94.228372 
L 1099.99727 90.671777 
L 1010.012678 90.671777 
z
" clip-path="url(#pcb33973e08)" style="fill: #7f7f7f"/>
   </g>
   <g id="patch_96">
    <path d="M 1122.493418 76.802008 
L 1212.478009 76.802008 
L 1212.478009 72.814804 
L 1122.493418 72.814804 
z
" clip-path="url(#pcb33973e08)" style="fill: #7f7f7f"/>
   </g>
   <g id="patch_97">
    <path d="M 1234.974157 135.571715 
L 1324.958749 135.571715 
L 1324.958749 133.492324 
L 1234.974157 133.492324 
z
" clip-path="url(#pcb33973e08)" style="fill: #7f7f7f"/>
   </g>
   <g id="patch_98">
    <path d="M 1347.454897 110.680892 
L 1437.439489 110.680892 
L 1437.439489 108.098775 
L 1347.454897 108.098775 
z
" clip-path="url(#pcb33973e08)" style="fill: #7f7f7f"/>
   </g>
   <g id="patch_99">
    <path d="M 110.166761 112.142903 
L 200.151353 112.142903 
L 200.151353 109.08783 
L 110.166761 109.08783 
z
" clip-path="url(#pcb33973e08)" style="fill: #bcbd22"/>
   </g>
   <g id="patch_100">
    <path d="M 222.647501 96.818407 
L 312.632093 96.818407 
L 312.632093 93.417622 
L 222.647501 93.417622 
z
" clip-path="url(#pcb33973e08)" style="fill: #bcbd22"/>
   </g>
   <g id="patch_101">
    <path d="M 335.128241 76.738163 
L 425.112832 76.738163 
L 425.112832 72.769523 
L 335.128241 72.769523 
z
" clip-path="url(#pcb33973e08)" style="fill: #bcbd22"/>
   </g>
   <g id="patch_102">
    <path d="M 447.60898 58.214632 
L 537.593572 58.214632 
L 537.593572 53.88027 
L 447.60898 53.88027 
z
" clip-path="url(#pcb33973e08)" style="fill: #bcbd22"/>
   </g>
   <g id="patch_103">
    <path d="M 560.08972 121.306058 
L 650.074311 121.306058 
L 650.074311 118.62981 
L 560.08972 118.62981 
z
" clip-path="url(#pcb33973e08)" style="fill: #bcbd22"/>
   </g>
   <g id="patch_104">
    <path d="M 672.570459 96.221179 
L 762.555051 96.221179 
L 762.555051 93.158608 
L 672.570459 93.158608 
z
" clip-path="url(#pcb33973e08)" style="fill: #bcbd22"/>
   </g>
   <g id="patch_105">
    <path d="M 785.051199 125.589943 
L 875.035791 125.589943 
L 875.035791 123.186971 
L 785.051199 123.186971 
z
" clip-path="url(#pcb33973e08)" style="fill: #bcbd22"/>
   </g>
   <g id="patch_106">
    <path d="M 897.531939 111.303224 
L 987.51653 111.303224 
L 987.51653 108.602534 
L 897.531939 108.602534 
z
" clip-path="url(#pcb33973e08)" style="fill: #bcbd22"/>
   </g>
   <g id="patch_107">
    <path d="M 1010.012678 90.671777 
L 1099.99727 90.671777 
L 1099.99727 87.754935 
L 1010.012678 87.754935 
z
" clip-path="url(#pcb33973e08)" style="fill: #bcbd22"/>
   </g>
   <g id="patch_108">
    <path d="M 1122.493418 72.814804 
L 1212.478009 72.814804 
L 1212.478009 69.538139 
L 1122.493418 69.538139 
z
" clip-path="url(#pcb33973e08)" style="fill: #bcbd22"/>
   </g>
   <g id="patch_109">
    <path d="M 1234.974157 133.492324 
L 1324.958749 133.492324 
L 1324.958749 131.204867 
L 1234.974157 131.204867 
z
" clip-path="url(#pcb33973e08)" style="fill: #bcbd22"/>
   </g>
   <g id="patch_110">
    <path d="M 1347.454897 108.098775 
L 1437.439489 108.098775 
L 1437.439489 105.258288 
L 1347.454897 105.258288 
z
" clip-path="url(#pcb33973e08)" style="fill: #bcbd22"/>
   </g>
   <g id="patch_111">
    <path d="M 110.166761 109.08783 
L 200.151353 109.08783 
L 200.151353 106.586564 
L 110.166761 106.586564 
z
" clip-path="url(#pcb33973e08)" style="fill: #17becf"/>
   </g>
   <g id="patch_112">
    <path d="M 222.647501 93.417622 
L 312.632093 93.417622 
L 312.632093 90.636542 
L 222.647501 90.636542 
z
" clip-path="url(#pcb33973e08)" style="fill: #17becf"/>
   </g>
   <g id="patch_113">
    <path d="M 335.128241 72.769523 
L 425.112832 72.769523 
L 425.112832 69.516539 
L 335.128241 69.516539 
z
" clip-path="url(#pcb33973e08)" style="fill: #17becf"/>
   </g>
   <g id="patch_114">
    <path d="M 447.60898 53.88027 
L 537.593572 53.88027 
L 537.593572 50.286634 
L 447.60898 50.286634 
z
" clip-path="url(#pcb33973e08)" style="fill: #17becf"/>
   </g>
   <g id="patch_115">
    <path d="M 560.08972 118.62981 
L 650.074311 118.62981 
L 650.074311 116.302588 
L 560.08972 116.302588 
z
" clip-path="url(#pcb33973e08)" style="fill: #17becf"/>
   </g>
   <g id="patch_116">
    <path d="M 672.570459 93.158608 
L 762.555051 93.158608 
L 762.555051 90.375452 
L 672.570459 90.375452 
z
" clip-path="url(#pcb33973e08)" style="fill: #17becf"/>
   </g>
   <g id="patch_117">
    <path d="M 785.051199 123.186971 
L 875.035791 123.186971 
L 875.035791 121.269245 
L 785.051199 121.269245 
z
" clip-path="url(#pcb33973e08)" style="fill: #17becf"/>
   </g>
   <g id="patch_118">
    <path d="M 897.531939 108.602534 
L 987.51653 108.602534 
L 987.51653 106.445906 
L 897.531939 106.445906 
z
" clip-path="url(#pcb33973e08)" style="fill: #17becf"/>
   </g>
   <g id="patch_119">
    <path d="M 1010.012678 87.754935 
L 1099.99727 87.754935 
L 1099.99727 85.336883 
L 1010.012678 85.336883 
z
" clip-path="url(#pcb33973e08)" style="fill: #17becf"/>
   </g>
   <g id="patch_120">
    <path d="M 1122.493418 69.538139 
L 1212.478009 69.538139 
L 1212.478009 66.820726 
L 1122.493418 66.820726 
z
" clip-path="url(#pcb33973e08)" style="fill: #17becf"/>
   </g>
   <g id="patch_121">
    <path d="M 1234.974157 131.204867 
L 1324.958749 131.204867 
L 1324.958749 129.37675 
L 1234.974157 129.37675 
z
" clip-path="url(#pcb33973e08)" style="fill: #17becf"/>
   </g>
   <g id="patch_122">
    <path d="M 1347.454897 105.258288 
L 1437.439489 105.258288 
L 1437.439489 102.988193 
L 1347.454897 102.988193 
z
" clip-path="url(#pcb33973e08)" style="fill: #17becf"/>
   </g>
   <g id="patch_123">
    <path d="M 110.166761 106.586564 
L 200.151353 106.586564 
L 200.151353 104.29661 
L 110.166761 104.29661 
z
" clip-path="url(#pcb33973e08)" style="fill: #1f77b4"/>
   </g>
   <g id="patch_124">
    <path d="M 222.647501 90.636542 
L 312.632093 90.636542 
L 312.632093 88.081365 
L 222.647501 88.081365 
z
" clip-path="url(#pcb33973e08)" style="fill: #1f77b4"/>
   </g>
   <g id="patch_125">
    <path d="M 335.128241 69.516539 
L 425.112832 69.516539 
L 425.112832 66.599697 
L 335.128241 66.599697 
z
" clip-path="url(#pcb33973e08)" style="fill: #1f77b4"/>
   </g>
   <g id="patch_126">
    <path d="M 447.60898 50.286634 
L 537.593572 50.286634 
L 537.593572 47.042411 
L 447.60898 47.042411 
z
" clip-path="url(#pcb33973e08)" style="fill: #1f77b4"/>
   </g>
   <g id="patch_127">
    <path d="M 560.08972 116.302588 
L 650.074311 116.302588 
L 650.074311 114.178709 
L 560.08972 114.178709 
z
" clip-path="url(#pcb33973e08)" style="fill: #1f77b4"/>
   </g>
   <g id="patch_128">
    <path d="M 672.570459 90.375452 
L 762.555051 90.375452 
L 762.555051 87.808841 
L 672.570459 87.808841 
z
" clip-path="url(#pcb33973e08)" style="fill: #1f77b4"/>
   </g>
   <g id="patch_129">
    <path d="M 785.051199 121.269245 
L 875.035791 121.269245 
L 875.035791 119.606506 
L 785.051199 119.606506 
z
" clip-path="url(#pcb33973e08)" style="fill: #1f77b4"/>
   </g>
   <g id="patch_130">
    <path d="M 897.531939 106.445906 
L 987.51653 106.445906 
L 987.51653 104.576428 
L 897.531939 104.576428 
z
" clip-path="url(#pcb33973e08)" style="fill: #1f77b4"/>
   </g>
   <g id="patch_131">
    <path d="M 1010.012678 85.336883 
L 1099.99727 85.336883 
L 1099.99727 83.027265 
L 1010.012678 83.027265 
z
" clip-path="url(#pcb33973e08)" style="fill: #1f77b4"/>
   </g>
   <g id="patch_132">
    <path d="M 1122.493418 66.820726 
L 1212.478009 66.820726 
L 1212.478009 64.239766 
L 1122.493418 64.239766 
z
" clip-path="url(#pcb33973e08)" style="fill: #1f77b4"/>
   </g>
   <g id="patch_133">
    <path d="M 1234.974157 129.37675 
L 1324.958749 129.37675 
L 1324.958749 127.782219 
L 1234.974157 127.782219 
z
" clip-path="url(#pcb33973e08)" style="fill: #1f77b4"/>
   </g>
   <g id="patch_134">
    <path d="M 1347.454897 102.988193 
L 1437.439489 102.988193 
L 1437.439489 101.008158 
L 1347.454897 101.008158 
z
" clip-path="url(#pcb33973e08)" style="fill: #1f77b4"/>
   </g>
   <g id="patch_135">
    <path d="M 110.166761 104.29661 
L 200.151353 104.29661 
L 200.151353 103.641594 
L 110.166761 103.641594 
z
" clip-path="url(#pcb33973e08)" style="fill: #ff7f0e"/>
   </g>
   <g id="patch_136">
    <path d="M 222.647501 88.081365 
L 312.632093 88.081365 
L 312.632093 87.351319 
L 222.647501 87.351319 
z
" clip-path="url(#pcb33973e08)" style="fill: #ff7f0e"/>
   </g>
   <g id="patch_137">
    <path d="M 335.128241 66.599697 
L 425.112832 66.599697 
L 425.112832 65.781029 
L 335.128241 65.781029 
z
" clip-path="url(#pcb33973e08)" style="fill: #ff7f0e"/>
   </g>
   <g id="patch_138">
    <path d="M 447.60898 47.042411 
L 537.593572 47.042411 
L 537.593572 46.136 
L 447.60898 46.136 
z
" clip-path="url(#pcb33973e08)" style="fill: #ff7f0e"/>
   </g>
   <g id="patch_139">
    <path d="M 560.08972 114.178709 
L 650.074311 114.178709 
L 650.074311 113.604279 
L 560.08972 113.604279 
z
" clip-path="url(#pcb33973e08)" style="fill: #ff7f0e"/>
   </g>
   <g id="patch_140">
    <path d="M 672.570459 87.808841 
L 762.555051 87.808841 
L 762.555051 87.209166 
L 672.570459 87.209166 
z
" clip-path="url(#pcb33973e08)" style="fill: #ff7f0e"/>
   </g>
   <g id="patch_141">
    <path d="M 785.051199 119.606506 
L 875.035791 119.606506 
L 875.035791 119.017589 
L 785.051199 119.017589 
z
" clip-path="url(#pcb33973e08)" style="fill: #ff7f0e"/>
   </g>
   <g id="patch_142">
    <path d="M 897.531939 104.576428 
L 987.51653 104.576428 
L 987.51653 103.914723 
L 897.531939 103.914723 
z
" clip-path="url(#pcb33973e08)" style="fill: #ff7f0e"/>
   </g>
   <g id="patch_143">
    <path d="M 1010.012678 83.027265 
L 1099.99727 83.027265 
L 1099.99727 82.300765 
L 1010.012678 82.300765 
z
" clip-path="url(#pcb33973e08)" style="fill: #ff7f0e"/>
   </g>
   <g id="patch_144">
    <path d="M 1122.493418 64.239766 
L 1212.478009 64.239766 
L 1212.478009 63.427734 
L 1122.493418 63.427734 
z
" clip-path="url(#pcb33973e08)" style="fill: #ff7f0e"/>
   </g>
   <g id="patch_145">
    <path d="M 1234.974157 127.782219 
L 1324.958749 127.782219 
L 1324.958749 127.229331 
L 1234.974157 127.229331 
z
" clip-path="url(#pcb33973e08)" style="fill: #ff7f0e"/>
   </g>
   <g id="patch_146">
    <path d="M 1347.454897 101.008158 
L 1437.439489 101.008158 
L 1437.439489 100.321601 
L 1347.454897 100.321601 
z
" clip-path="url(#pcb33973e08)" style="fill: #ff7f0e"/>
   </g>
   <g id="matplotlib.axis_1">
    <g id="xtick_1">
     <g id="line2d_1">
      <defs>
       <path id="m74b8ae23a3" d="M 0 0 
L 0 3.5 
" style="stroke: #000000; stroke-width: 0.8"/>
      </defs>
      <g>
       <use xlink:href="#m74b8ae23a3" x="155.159057" y="242.456" style="stroke: #000000; stroke-width: 0.8"/>
      </g>
     </g>
     <g id="text_1">
      <!-- flight -->
      <g transform="translate(142.317651 257.054437) scale(0.1 -0.1)">
       <defs>
        <path id="DejaVuSans-66" d="M 2375 4863 
L 2375 4384 
L 1825 4384 
Q 1516 4384 1395 4259 
Q 1275 4134 1275 3809 
L 1275 3500 
L 2222 3500 
L 2222 3053 
L 1275 3053 
L 1275 0 
L 697 0 
L 697 3053 
L 147 3053 
L 147 3500 
L 697 3500 
L 697 3744 
Q 697 4328 969 4595 
Q 1241 4863 1831 4863 
L 2375 4863 
z
" transform="scale(0.015625)"/>
        <path id="DejaVuSans-6c" d="M 603 4863 
L 1178 4863 
L 1178 0 
L 603 0 
L 603 4863 
z
" transform="scale(0.015625)"/>
        <path id="DejaVuSans-69" d="M 603 3500 
L 1178 3500 
L 1178 0 
L 603 0 
L 603 3500 
z
M 603 4863 
L 1178 4863 
L 1178 4134 
L 603 4134 
L 603 4863 
z
" transform="scale(0.015625)"/>
        <path id="DejaVuSans-67" d="M 2906 1791 
Q 2906 2416 2648 2759 
Q 2391 3103 1925 3103 
Q 1463 3103 1205 2759 
Q 947 2416 947 1791 
Q 947 1169 1205 825 
Q 1463 481 1925 481 
Q 2391 481 2648 825 
Q 2906 1169 2906 1791 
z
M 3481 434 
Q 3481 -459 3084 -895 
Q 2688 -1331 1869 -1331 
Q 1566 -1331 1297 -1286 
Q 1028 -1241 775 -1147 
L 775 -588 
Q 1028 -725 1275 -790 
Q 1522 -856 1778 -856 
Q 2344 -856 2625 -561 
Q 2906 -266 2906 331 
L 2906 616 
Q 2728 306 2450 153 
Q 2172 0 1784 0 
Q 1141 0 747 490 
Q 353 981 353 1791 
Q 353 2603 747 3093 
Q 1141 3584 1784 3584 
Q 2172 3584 2450 3431 
Q 2728 3278 2906 2969 
L 2906 3500 
L 3481 3500 
L 3481 434 
z
" transform="scale(0.015625)"/>
        <path id="DejaVuSans-68" d="M 3513 2113 
L 3513 0 
L 2938 0 
L 2938 2094 
Q 2938 2591 2744 2837 
Q 2550 3084 2163 3084 
Q 1697 3084 1428 2787 
Q 1159 2491 1159 1978 
L 1159 0 
L 581 0 
L 581 4863 
L 1159 4863 
L 1159 2956 
Q 1366 3272 1645 3428 
Q 1925 3584 2291 3584 
Q 2894 3584 3203 3211 
Q 3513 2838 3513 2113 
z
" transform="scale(0.015625)"/>
        <path id="DejaVuSans-74" d="M 1172 4494 
L 1172 3500 
L 2356 3500 
L 2356 3053 
L 1172 3053 
L 1172 1153 
Q 1172 725 1289 603 
Q 1406 481 1766 481 
L 2356 481 
L 2356 0 
L 1766 0 
Q 1100 0 847 248 
Q 594 497 594 1153 
L 594 3053 
L 172 3053 
L 172 3500 
L 594 3500 
L 594 4494 
L 1172 4494 
z
" transform="scale(0.015625)"/>
       </defs>
       <use xlink:href="#DejaVuSans-66"/>
       <use xlink:href="#DejaVuSans-6c" x="35.205078"/>
       <use xlink:href="#DejaVuSans-69" x="62.988281"/>
       <use xlink:href="#DejaVuSans-67" x="90.771484"/>
       <use xlink:href="#DejaVuSans-68" x="154.248047"/>
       <use xlink:href="#DejaVuSans-74" x="217.626953"/>
      </g>
      <!-- myclimate-ECO. -->
      <g transform="translate(115.051245 268.25225) scale(0.1 -0.1)">
       <defs>
        <path id="DejaVuSans-6d" d="M 3328 2828 
Q 3544 3216 3844 3400 
Q 4144 3584 4550 3584 
Q 5097 3584 5394 3201 
Q 5691 2819 5691 2113 
L 5691 0 
L 5113 0 
L 5113 2094 
Q 5113 2597 4934 2840 
Q 4756 3084 4391 3084 
Q 3944 3084 3684 2787 
Q 3425 2491 3425 1978 
L 3425 0 
L 2847 0 
L 2847 2094 
Q 2847 2600 2669 2842 
Q 2491 3084 2119 3084 
Q 1678 3084 1418 2786 
Q 1159 2488 1159 1978 
L 1159 0 
L 581 0 
L 581 3500 
L 1159 3500 
L 1159 2956 
Q 1356 3278 1631 3431 
Q 1906 3584 2284 3584 
Q 2666 3584 2933 3390 
Q 3200 3197 3328 2828 
z
" transform="scale(0.015625)"/>
        <path id="DejaVuSans-79" d="M 2059 -325 
Q 1816 -950 1584 -1140 
Q 1353 -1331 966 -1331 
L 506 -1331 
L 506 -850 
L 844 -850 
Q 1081 -850 1212 -737 
Q 1344 -625 1503 -206 
L 1606 56 
L 191 3500 
L 800 3500 
L 1894 763 
L 2988 3500 
L 3597 3500 
L 2059 -325 
z
" transform="scale(0.015625)"/>
        <path id="DejaVuSans-63" d="M 3122 3366 
L 3122 2828 
Q 2878 2963 2633 3030 
Q 2388 3097 2138 3097 
Q 1578 3097 1268 2742 
Q 959 2388 959 1747 
Q 959 1106 1268 751 
Q 1578 397 2138 397 
Q 2388 397 2633 464 
Q 2878 531 3122 666 
L 3122 134 
Q 2881 22 2623 -34 
Q 2366 -91 2075 -91 
Q 1284 -91 818 406 
Q 353 903 353 1747 
Q 353 2603 823 3093 
Q 1294 3584 2113 3584 
Q 2378 3584 2631 3529 
Q 2884 3475 3122 3366 
z
" transform="scale(0.015625)"/>
        <path id="DejaVuSans-61" d="M 2194 1759 
Q 1497 1759 1228 1600 
Q 959 1441 959 1056 
Q 959 750 1161 570 
Q 1363 391 1709 391 
Q 2188 391 2477 730 
Q 2766 1069 2766 1631 
L 2766 1759 
L 2194 1759 
z
M 3341 1997 
L 3341 0 
L 2766 0 
L 2766 531 
Q 2569 213 2275 61 
Q 1981 -91 1556 -91 
Q 1019 -91 701 211 
Q 384 513 384 1019 
Q 384 1609 779 1909 
Q 1175 2209 1959 2209 
L 2766 2209 
L 2766 2266 
Q 2766 2663 2505 2880 
Q 2244 3097 1772 3097 
Q 1472 3097 1187 3025 
Q 903 2953 641 2809 
L 641 3341 
Q 956 3463 1253 3523 
Q 1550 3584 1831 3584 
Q 2591 3584 2966 3190 
Q 3341 2797 3341 1997 
z
" transform="scale(0.015625)"/>
        <path id="DejaVuSans-65" d="M 3597 1894 
L 3597 1613 
L 953 1613 
Q 991 1019 1311 708 
Q 1631 397 2203 397 
Q 2534 397 2845 478 
Q 3156 559 3463 722 
L 3463 178 
Q 3153 47 2828 -22 
Q 2503 -91 2169 -91 
Q 1331 -91 842 396 
Q 353 884 353 1716 
Q 353 2575 817 3079 
Q 1281 3584 2069 3584 
Q 2775 3584 3186 3129 
Q 3597 2675 3597 1894 
z
M 3022 2063 
Q 3016 2534 2758 2815 
Q 2500 3097 2075 3097 
Q 1594 3097 1305 2825 
Q 1016 2553 972 2059 
L 3022 2063 
z
" transform="scale(0.015625)"/>
        <path id="DejaVuSans-2d" d="M 313 2009 
L 1997 2009 
L 1997 1497 
L 313 1497 
L 313 2009 
z
" transform="scale(0.015625)"/>
        <path id="DejaVuSans-45" d="M 628 4666 
L 3578 4666 
L 3578 4134 
L 1259 4134 
L 1259 2753 
L 3481 2753 
L 3481 2222 
L 1259 2222 
L 1259 531 
L 3634 531 
L 3634 0 
L 628 0 
L 628 4666 
z
" transform="scale(0.015625)"/>
        <path id="DejaVuSans-43" d="M 4122 4306 
L 4122 3641 
Q 3803 3938 3442 4084 
Q 3081 4231 2675 4231 
Q 1875 4231 1450 3742 
Q 1025 3253 1025 2328 
Q 1025 1406 1450 917 
Q 1875 428 2675 428 
Q 3081 428 3442 575 
Q 3803 722 4122 1019 
L 4122 359 
Q 3791 134 3420 21 
Q 3050 -91 2638 -91 
Q 1578 -91 968 557 
Q 359 1206 359 2328 
Q 359 3453 968 4101 
Q 1578 4750 2638 4750 
Q 3056 4750 3426 4639 
Q 3797 4528 4122 4306 
z
" transform="scale(0.015625)"/>
        <path id="DejaVuSans-4f" d="M 2522 4238 
Q 1834 4238 1429 3725 
Q 1025 3213 1025 2328 
Q 1025 1447 1429 934 
Q 1834 422 2522 422 
Q 3209 422 3611 934 
Q 4013 1447 4013 2328 
Q 4013 3213 3611 3725 
Q 3209 4238 2522 4238 
z
M 2522 4750 
Q 3503 4750 4090 4092 
Q 4678 3434 4678 2328 
Q 4678 1225 4090 567 
Q 3503 -91 2522 -91 
Q 1538 -91 948 565 
Q 359 1222 359 2328 
Q 359 3434 948 4092 
Q 1538 4750 2522 4750 
z
" transform="scale(0.015625)"/>
        <path id="DejaVuSans-2e" d="M 684 794 
L 1344 794 
L 1344 0 
L 684 0 
L 684 794 
z
" transform="scale(0.015625)"/>
       </defs>
       <use xlink:href="#DejaVuSans-6d"/>
       <use xlink:href="#DejaVuSans-79" x="97.412109"/>
       <use xlink:href="#DejaVuSans-63" x="156.591797"/>
       <use xlink:href="#DejaVuSans-6c" x="211.572266"/>
       <use xlink:href="#DejaVuSans-69" x="239.355469"/>
       <use xlink:href="#DejaVuSans-6d" x="267.138672"/>
       <use xlink:href="#DejaVuSans-61" x="364.550781"/>
       <use xlink:href="#DejaVuSans-74" x="425.830078"/>
       <use xlink:href="#DejaVuSans-65" x="465.039062"/>
       <use xlink:href="#DejaVuSans-2d" x="526.5625"/>
       <use xlink:href="#DejaVuSans-45" x="562.646484"/>
       <use xlink:href="#DejaVuSans-43" x="625.830078"/>
       <use xlink:href="#DejaVuSans-4f" x="695.654297"/>
       <use xlink:href="#DejaVuSans-2e" x="770.365234"/>
      </g>
     </g>
    </g>
    <g id="xtick_2">
     <g id="line2d_2">
      <g>
       <use xlink:href="#m74b8ae23a3" x="267.639797" y="242.456" style="stroke: #000000; stroke-width: 0.8"/>
      </g>
     </g>
     <g id="text_2">
      <!-- flight -->
      <g transform="translate(254.798391 257.054437) scale(0.1 -0.1)">
       <use xlink:href="#DejaVuSans-66"/>
       <use xlink:href="#DejaVuSans-6c" x="35.205078"/>
       <use xlink:href="#DejaVuSans-69" x="62.988281"/>
       <use xlink:href="#DejaVuSans-67" x="90.771484"/>
       <use xlink:href="#DejaVuSans-68" x="154.248047"/>
       <use xlink:href="#DejaVuSans-74" x="217.626953"/>
      </g>
      <!-- myclimate-AVE. -->
      <g transform="translate(228.349953 268.25225) scale(0.1 -0.1)">
       <defs>
        <path id="DejaVuSans-41" d="M 2188 4044 
L 1331 1722 
L 3047 1722 
L 2188 4044 
z
M 1831 4666 
L 2547 4666 
L 4325 0 
L 3669 0 
L 3244 1197 
L 1141 1197 
L 716 0 
L 50 0 
L 1831 4666 
z
" transform="scale(0.015625)"/>
        <path id="DejaVuSans-56" d="M 1831 0 
L 50 4666 
L 709 4666 
L 2188 738 
L 3669 4666 
L 4325 4666 
L 2547 0 
L 1831 0 
z
" transform="scale(0.015625)"/>
       </defs>
       <use xlink:href="#DejaVuSans-6d"/>
       <use xlink:href="#DejaVuSans-79" x="97.412109"/>
       <use xlink:href="#DejaVuSans-63" x="156.591797"/>
       <use xlink:href="#DejaVuSans-6c" x="211.572266"/>
       <use xlink:href="#DejaVuSans-69" x="239.355469"/>
       <use xlink:href="#DejaVuSans-6d" x="267.138672"/>
       <use xlink:href="#DejaVuSans-61" x="364.550781"/>
       <use xlink:href="#DejaVuSans-74" x="425.830078"/>
       <use xlink:href="#DejaVuSans-65" x="465.039062"/>
       <use xlink:href="#DejaVuSans-2d" x="526.5625"/>
       <use xlink:href="#DejaVuSans-41" x="560.396484"/>
       <use xlink:href="#DejaVuSans-56" x="622.429688"/>
       <use xlink:href="#DejaVuSans-45" x="690.837891"/>
       <use xlink:href="#DejaVuSans-2e" x="754.021484"/>
      </g>
     </g>
    </g>
    <g id="xtick_3">
     <g id="line2d_3">
      <g>
       <use xlink:href="#m74b8ae23a3" x="380.120536" y="242.456" style="stroke: #000000; stroke-width: 0.8"/>
      </g>
     </g>
     <g id="text_3">
      <!-- flight -->
      <g transform="translate(367.27913 257.054437) scale(0.1 -0.1)">
       <use xlink:href="#DejaVuSans-66"/>
       <use xlink:href="#DejaVuSans-6c" x="35.205078"/>
       <use xlink:href="#DejaVuSans-69" x="62.988281"/>
       <use xlink:href="#DejaVuSans-67" x="90.771484"/>
       <use xlink:href="#DejaVuSans-68" x="154.248047"/>
       <use xlink:href="#DejaVuSans-74" x="217.626953"/>
      </g>
      <!-- goclimate-ECO. -->
      <g transform="translate(341.608818 268.25225) scale(0.1 -0.1)">
       <defs>
        <path id="DejaVuSans-6f" d="M 1959 3097 
Q 1497 3097 1228 2736 
Q 959 2375 959 1747 
Q 959 1119 1226 758 
Q 1494 397 1959 397 
Q 2419 397 2687 759 
Q 2956 1122 2956 1747 
Q 2956 2369 2687 2733 
Q 2419 3097 1959 3097 
z
M 1959 3584 
Q 2709 3584 3137 3096 
Q 3566 2609 3566 1747 
Q 3566 888 3137 398 
Q 2709 -91 1959 -91 
Q 1206 -91 779 398 
Q 353 888 353 1747 
Q 353 2609 779 3096 
Q 1206 3584 1959 3584 
z
" transform="scale(0.015625)"/>
       </defs>
       <use xlink:href="#DejaVuSans-67"/>
       <use xlink:href="#DejaVuSans-6f" x="63.476562"/>
       <use xlink:href="#DejaVuSans-63" x="124.658203"/>
       <use xlink:href="#DejaVuSans-6c" x="179.638672"/>
       <use xlink:href="#DejaVuSans-69" x="207.421875"/>
       <use xlink:href="#DejaVuSans-6d" x="235.205078"/>
       <use xlink:href="#DejaVuSans-61" x="332.617188"/>
       <use xlink:href="#DejaVuSans-74" x="393.896484"/>
       <use xlink:href="#DejaVuSans-65" x="433.105469"/>
       <use xlink:href="#DejaVuSans-2d" x="494.628906"/>
       <use xlink:href="#DejaVuSans-45" x="530.712891"/>
       <use xlink:href="#DejaVuSans-43" x="593.896484"/>
       <use xlink:href="#DejaVuSans-4f" x="663.720703"/>
       <use xlink:href="#DejaVuSans-2e" x="738.431641"/>
      </g>
     </g>
    </g>
    <g id="xtick_4">
     <g id="line2d_4">
      <g>
       <use xlink:href="#m74b8ae23a3" x="492.601276" y="242.456" style="stroke: #000000; stroke-width: 0.8"/>
      </g>
     </g>
     <g id="text_4">
      <!-- flight -->
      <g transform="translate(479.75987 257.054437) scale(0.1 -0.1)">
       <use xlink:href="#DejaVuSans-66"/>
       <use xlink:href="#DejaVuSans-6c" x="35.205078"/>
       <use xlink:href="#DejaVuSans-69" x="62.988281"/>
       <use xlink:href="#DejaVuSans-67" x="90.771484"/>
       <use xlink:href="#DejaVuSans-68" x="154.248047"/>
       <use xlink:href="#DejaVuSans-74" x="217.626953"/>
      </g>
      <!-- goclimate-AVE. -->
      <g transform="translate(454.907526 268.25225) scale(0.1 -0.1)">
       <use xlink:href="#DejaVuSans-67"/>
       <use xlink:href="#DejaVuSans-6f" x="63.476562"/>
       <use xlink:href="#DejaVuSans-63" x="124.658203"/>
       <use xlink:href="#DejaVuSans-6c" x="179.638672"/>
       <use xlink:href="#DejaVuSans-69" x="207.421875"/>
       <use xlink:href="#DejaVuSans-6d" x="235.205078"/>
       <use xlink:href="#DejaVuSans-61" x="332.617188"/>
       <use xlink:href="#DejaVuSans-74" x="393.896484"/>
       <use xlink:href="#DejaVuSans-65" x="433.105469"/>
       <use xlink:href="#DejaVuSans-2d" x="494.628906"/>
       <use xlink:href="#DejaVuSans-41" x="528.462891"/>
       <use xlink:href="#DejaVuSans-56" x="590.496094"/>
       <use xlink:href="#DejaVuSans-45" x="658.904297"/>
       <use xlink:href="#DejaVuSans-2e" x="722.087891"/>
      </g>
     </g>
    </g>
    <g id="xtick_5">
     <g id="line2d_5">
      <g>
       <use xlink:href="#m74b8ae23a3" x="605.082016" y="242.456" style="stroke: #000000; stroke-width: 0.8"/>
      </g>
     </g>
     <g id="text_5">
      <!-- flight -->
      <g transform="translate(592.240609 257.054437) scale(0.1 -0.1)">
       <use xlink:href="#DejaVuSans-66"/>
       <use xlink:href="#DejaVuSans-6c" x="35.205078"/>
       <use xlink:href="#DejaVuSans-69" x="62.988281"/>
       <use xlink:href="#DejaVuSans-67" x="90.771484"/>
       <use xlink:href="#DejaVuSans-68" x="154.248047"/>
       <use xlink:href="#DejaVuSans-74" x="217.626953"/>
      </g>
      <!-- ukgov-ECO. -->
      <g transform="translate(576.176547 268.25225) scale(0.1 -0.1)">
       <defs>
        <path id="DejaVuSans-75" d="M 544 1381 
L 544 3500 
L 1119 3500 
L 1119 1403 
Q 1119 906 1312 657 
Q 1506 409 1894 409 
Q 2359 409 2629 706 
Q 2900 1003 2900 1516 
L 2900 3500 
L 3475 3500 
L 3475 0 
L 2900 0 
L 2900 538 
Q 2691 219 2414 64 
Q 2138 -91 1772 -91 
Q 1169 -91 856 284 
Q 544 659 544 1381 
z
M 1991 3584 
L 1991 3584 
z
" transform="scale(0.015625)"/>
        <path id="DejaVuSans-6b" d="M 581 4863 
L 1159 4863 
L 1159 1991 
L 2875 3500 
L 3609 3500 
L 1753 1863 
L 3688 0 
L 2938 0 
L 1159 1709 
L 1159 0 
L 581 0 
L 581 4863 
z
" transform="scale(0.015625)"/>
        <path id="DejaVuSans-76" d="M 191 3500 
L 800 3500 
L 1894 563 
L 2988 3500 
L 3597 3500 
L 2284 0 
L 1503 0 
L 191 3500 
z
" transform="scale(0.015625)"/>
       </defs>
       <use xlink:href="#DejaVuSans-75"/>
       <use xlink:href="#DejaVuSans-6b" x="63.378906"/>
       <use xlink:href="#DejaVuSans-67" x="121.289062"/>
       <use xlink:href="#DejaVuSans-6f" x="184.765625"/>
       <use xlink:href="#DejaVuSans-76" x="245.947266"/>
       <use xlink:href="#DejaVuSans-2d" x="302.501953"/>
       <use xlink:href="#DejaVuSans-45" x="338.585938"/>
       <use xlink:href="#DejaVuSans-43" x="401.769531"/>
       <use xlink:href="#DejaVuSans-4f" x="471.59375"/>
       <use xlink:href="#DejaVuSans-2e" x="546.304688"/>
      </g>
     </g>
    </g>
    <g id="xtick_6">
     <g id="line2d_6">
      <g>
       <use xlink:href="#m74b8ae23a3" x="717.562755" y="242.456" style="stroke: #000000; stroke-width: 0.8"/>
      </g>
     </g>
     <g id="text_6">
      <!-- flight -->
      <g transform="translate(704.721349 257.054437) scale(0.1 -0.1)">
       <use xlink:href="#DejaVuSans-66"/>
       <use xlink:href="#DejaVuSans-6c" x="35.205078"/>
       <use xlink:href="#DejaVuSans-69" x="62.988281"/>
       <use xlink:href="#DejaVuSans-67" x="90.771484"/>
       <use xlink:href="#DejaVuSans-68" x="154.248047"/>
       <use xlink:href="#DejaVuSans-74" x="217.626953"/>
      </g>
      <!-- ukgov-AVE. -->
      <g transform="translate(689.475255 268.25225) scale(0.1 -0.1)">
       <use xlink:href="#DejaVuSans-75"/>
       <use xlink:href="#DejaVuSans-6b" x="63.378906"/>
       <use xlink:href="#DejaVuSans-67" x="121.289062"/>
       <use xlink:href="#DejaVuSans-6f" x="184.765625"/>
       <use xlink:href="#DejaVuSans-76" x="245.947266"/>
       <use xlink:href="#DejaVuSans-2d" x="302.501953"/>
       <use xlink:href="#DejaVuSans-41" x="336.335938"/>
       <use xlink:href="#DejaVuSans-56" x="398.369141"/>
       <use xlink:href="#DejaVuSans-45" x="466.777344"/>
       <use xlink:href="#DejaVuSans-2e" x="529.960938"/>
      </g>
     </g>
    </g>
    <g id="xtick_7">
     <g id="line2d_7">
      <g>
       <use xlink:href="#m74b8ae23a3" x="830.043495" y="242.456" style="stroke: #000000; stroke-width: 0.8"/>
      </g>
     </g>
     <g id="text_7">
      <!-- distance -->
      <g transform="translate(808.856776 257.054437) scale(0.1 -0.1)">
       <defs>
        <path id="DejaVuSans-64" d="M 2906 2969 
L 2906 4863 
L 3481 4863 
L 3481 0 
L 2906 0 
L 2906 525 
Q 2725 213 2448 61 
Q 2172 -91 1784 -91 
Q 1150 -91 751 415 
Q 353 922 353 1747 
Q 353 2572 751 3078 
Q 1150 3584 1784 3584 
Q 2172 3584 2448 3432 
Q 2725 3281 2906 2969 
z
M 947 1747 
Q 947 1113 1208 752 
Q 1469 391 1925 391 
Q 2381 391 2643 752 
Q 2906 1113 2906 1747 
Q 2906 2381 2643 2742 
Q 2381 3103 1925 3103 
Q 1469 3103 1208 2742 
Q 947 2381 947 1747 
z
" transform="scale(0.015625)"/>
        <path id="DejaVuSans-73" d="M 2834 3397 
L 2834 2853 
Q 2591 2978 2328 3040 
Q 2066 3103 1784 3103 
Q 1356 3103 1142 2972 
Q 928 2841 928 2578 
Q 928 2378 1081 2264 
Q 1234 2150 1697 2047 
L 1894 2003 
Q 2506 1872 2764 1633 
Q 3022 1394 3022 966 
Q 3022 478 2636 193 
Q 2250 -91 1575 -91 
Q 1294 -91 989 -36 
Q 684 19 347 128 
L 347 722 
Q 666 556 975 473 
Q 1284 391 1588 391 
Q 1994 391 2212 530 
Q 2431 669 2431 922 
Q 2431 1156 2273 1281 
Q 2116 1406 1581 1522 
L 1381 1569 
Q 847 1681 609 1914 
Q 372 2147 372 2553 
Q 372 3047 722 3315 
Q 1072 3584 1716 3584 
Q 2034 3584 2315 3537 
Q 2597 3491 2834 3397 
z
" transform="scale(0.015625)"/>
        <path id="DejaVuSans-6e" d="M 3513 2113 
L 3513 0 
L 2938 0 
L 2938 2094 
Q 2938 2591 2744 2837 
Q 2550 3084 2163 3084 
Q 1697 3084 1428 2787 
Q 1159 2491 1159 1978 
L 1159 0 
L 581 0 
L 581 3500 
L 1159 3500 
L 1159 2956 
Q 1366 3272 1645 3428 
Q 1925 3584 2291 3584 
Q 2894 3584 3203 3211 
Q 3513 2838 3513 2113 
z
" transform="scale(0.015625)"/>
       </defs>
       <use xlink:href="#DejaVuSans-64"/>
       <use xlink:href="#DejaVuSans-69" x="63.476562"/>
       <use xlink:href="#DejaVuSans-73" x="91.259766"/>
       <use xlink:href="#DejaVuSans-74" x="143.359375"/>
       <use xlink:href="#DejaVuSans-61" x="182.568359"/>
       <use xlink:href="#DejaVuSans-6e" x="243.847656"/>
       <use xlink:href="#DejaVuSans-63" x="307.226562"/>
       <use xlink:href="#DejaVuSans-65" x="362.207031"/>
      </g>
      <!-- myclimate-ECO. -->
      <g transform="translate(789.935682 268.25225) scale(0.1 -0.1)">
       <use xlink:href="#DejaVuSans-6d"/>
       <use xlink:href="#DejaVuSans-79" x="97.412109"/>
       <use xlink:href="#DejaVuSans-63" x="156.591797"/>
       <use xlink:href="#DejaVuSans-6c" x="211.572266"/>
       <use xlink:href="#DejaVuSans-69" x="239.355469"/>
       <use xlink:href="#DejaVuSans-6d" x="267.138672"/>
       <use xlink:href="#DejaVuSans-61" x="364.550781"/>
       <use xlink:href="#DejaVuSans-74" x="425.830078"/>
       <use xlink:href="#DejaVuSans-65" x="465.039062"/>
       <use xlink:href="#DejaVuSans-2d" x="526.5625"/>
       <use xlink:href="#DejaVuSans-45" x="562.646484"/>
       <use xlink:href="#DejaVuSans-43" x="625.830078"/>
       <use xlink:href="#DejaVuSans-4f" x="695.654297"/>
       <use xlink:href="#DejaVuSans-2e" x="770.365234"/>
      </g>
     </g>
    </g>
    <g id="xtick_8">
     <g id="line2d_8">
      <g>
       <use xlink:href="#m74b8ae23a3" x="942.524234" y="242.456" style="stroke: #000000; stroke-width: 0.8"/>
      </g>
     </g>
     <g id="text_8">
      <!-- distance -->
      <g transform="translate(921.337516 257.054437) scale(0.1 -0.1)">
       <use xlink:href="#DejaVuSans-64"/>
       <use xlink:href="#DejaVuSans-69" x="63.476562"/>
       <use xlink:href="#DejaVuSans-73" x="91.259766"/>
       <use xlink:href="#DejaVuSans-74" x="143.359375"/>
       <use xlink:href="#DejaVuSans-61" x="182.568359"/>
       <use xlink:href="#DejaVuSans-6e" x="243.847656"/>
       <use xlink:href="#DejaVuSans-63" x="307.226562"/>
       <use xlink:href="#DejaVuSans-65" x="362.207031"/>
      </g>
      <!-- myclimate-AVE. -->
      <g transform="translate(903.234391 268.25225) scale(0.1 -0.1)">
       <use xlink:href="#DejaVuSans-6d"/>
       <use xlink:href="#DejaVuSans-79" x="97.412109"/>
       <use xlink:href="#DejaVuSans-63" x="156.591797"/>
       <use xlink:href="#DejaVuSans-6c" x="211.572266"/>
       <use xlink:href="#DejaVuSans-69" x="239.355469"/>
       <use xlink:href="#DejaVuSans-6d" x="267.138672"/>
       <use xlink:href="#DejaVuSans-61" x="364.550781"/>
       <use xlink:href="#DejaVuSans-74" x="425.830078"/>
       <use xlink:href="#DejaVuSans-65" x="465.039062"/>
       <use xlink:href="#DejaVuSans-2d" x="526.5625"/>
       <use xlink:href="#DejaVuSans-41" x="560.396484"/>
       <use xlink:href="#DejaVuSans-56" x="622.429688"/>
       <use xlink:href="#DejaVuSans-45" x="690.837891"/>
       <use xlink:href="#DejaVuSans-2e" x="754.021484"/>
      </g>
     </g>
    </g>
    <g id="xtick_9">
     <g id="line2d_9">
      <g>
       <use xlink:href="#m74b8ae23a3" x="1055.004974" y="242.456" style="stroke: #000000; stroke-width: 0.8"/>
      </g>
     </g>
     <g id="text_9">
      <!-- distance -->
      <g transform="translate(1033.818255 257.054437) scale(0.1 -0.1)">
       <use xlink:href="#DejaVuSans-64"/>
       <use xlink:href="#DejaVuSans-69" x="63.476562"/>
       <use xlink:href="#DejaVuSans-73" x="91.259766"/>
       <use xlink:href="#DejaVuSans-74" x="143.359375"/>
       <use xlink:href="#DejaVuSans-61" x="182.568359"/>
       <use xlink:href="#DejaVuSans-6e" x="243.847656"/>
       <use xlink:href="#DejaVuSans-63" x="307.226562"/>
       <use xlink:href="#DejaVuSans-65" x="362.207031"/>
      </g>
      <!-- goclimate-ECO. -->
      <g transform="translate(1016.493255 268.25225) scale(0.1 -0.1)">
       <use xlink:href="#DejaVuSans-67"/>
       <use xlink:href="#DejaVuSans-6f" x="63.476562"/>
       <use xlink:href="#DejaVuSans-63" x="124.658203"/>
       <use xlink:href="#DejaVuSans-6c" x="179.638672"/>
       <use xlink:href="#DejaVuSans-69" x="207.421875"/>
       <use xlink:href="#DejaVuSans-6d" x="235.205078"/>
       <use xlink:href="#DejaVuSans-61" x="332.617188"/>
       <use xlink:href="#DejaVuSans-74" x="393.896484"/>
       <use xlink:href="#DejaVuSans-65" x="433.105469"/>
       <use xlink:href="#DejaVuSans-2d" x="494.628906"/>
       <use xlink:href="#DejaVuSans-45" x="530.712891"/>
       <use xlink:href="#DejaVuSans-43" x="593.896484"/>
       <use xlink:href="#DejaVuSans-4f" x="663.720703"/>
       <use xlink:href="#DejaVuSans-2e" x="738.431641"/>
      </g>
     </g>
    </g>
    <g id="xtick_10">
     <g id="line2d_10">
      <g>
       <use xlink:href="#m74b8ae23a3" x="1167.485714" y="242.456" style="stroke: #000000; stroke-width: 0.8"/>
      </g>
     </g>
     <g id="text_10">
      <!-- distance -->
      <g transform="translate(1146.298995 257.054437) scale(0.1 -0.1)">
       <use xlink:href="#DejaVuSans-64"/>
       <use xlink:href="#DejaVuSans-69" x="63.476562"/>
       <use xlink:href="#DejaVuSans-73" x="91.259766"/>
       <use xlink:href="#DejaVuSans-74" x="143.359375"/>
       <use xlink:href="#DejaVuSans-61" x="182.568359"/>
       <use xlink:href="#DejaVuSans-6e" x="243.847656"/>
       <use xlink:href="#DejaVuSans-63" x="307.226562"/>
       <use xlink:href="#DejaVuSans-65" x="362.207031"/>
      </g>
      <!-- goclimate-AVE. -->
      <g transform="translate(1129.791964 268.25225) scale(0.1 -0.1)">
       <use xlink:href="#DejaVuSans-67"/>
       <use xlink:href="#DejaVuSans-6f" x="63.476562"/>
       <use xlink:href="#DejaVuSans-63" x="124.658203"/>
       <use xlink:href="#DejaVuSans-6c" x="179.638672"/>
       <use xlink:href="#DejaVuSans-69" x="207.421875"/>
       <use xlink:href="#DejaVuSans-6d" x="235.205078"/>
       <use xlink:href="#DejaVuSans-61" x="332.617188"/>
       <use xlink:href="#DejaVuSans-74" x="393.896484"/>
       <use xlink:href="#DejaVuSans-65" x="433.105469"/>
       <use xlink:href="#DejaVuSans-2d" x="494.628906"/>
       <use xlink:href="#DejaVuSans-41" x="528.462891"/>
       <use xlink:href="#DejaVuSans-56" x="590.496094"/>
       <use xlink:href="#DejaVuSans-45" x="658.904297"/>
       <use xlink:href="#DejaVuSans-2e" x="722.087891"/>
      </g>
     </g>
    </g>
    <g id="xtick_11">
     <g id="line2d_11">
      <g>
       <use xlink:href="#m74b8ae23a3" x="1279.966453" y="242.456" style="stroke: #000000; stroke-width: 0.8"/>
      </g>
     </g>
     <g id="text_11">
      <!-- distance -->
      <g transform="translate(1258.779734 257.054437) scale(0.1 -0.1)">
       <use xlink:href="#DejaVuSans-64"/>
       <use xlink:href="#DejaVuSans-69" x="63.476562"/>
       <use xlink:href="#DejaVuSans-73" x="91.259766"/>
       <use xlink:href="#DejaVuSans-74" x="143.359375"/>
       <use xlink:href="#DejaVuSans-61" x="182.568359"/>
       <use xlink:href="#DejaVuSans-6e" x="243.847656"/>
       <use xlink:href="#DejaVuSans-63" x="307.226562"/>
       <use xlink:href="#DejaVuSans-65" x="362.207031"/>
      </g>
      <!-- ukgov-ECO. -->
      <g transform="translate(1251.060984 268.25225) scale(0.1 -0.1)">
       <use xlink:href="#DejaVuSans-75"/>
       <use xlink:href="#DejaVuSans-6b" x="63.378906"/>
       <use xlink:href="#DejaVuSans-67" x="121.289062"/>
       <use xlink:href="#DejaVuSans-6f" x="184.765625"/>
       <use xlink:href="#DejaVuSans-76" x="245.947266"/>
       <use xlink:href="#DejaVuSans-2d" x="302.501953"/>
       <use xlink:href="#DejaVuSans-45" x="338.585938"/>
       <use xlink:href="#DejaVuSans-43" x="401.769531"/>
       <use xlink:href="#DejaVuSans-4f" x="471.59375"/>
       <use xlink:href="#DejaVuSans-2e" x="546.304688"/>
      </g>
     </g>
    </g>
    <g id="xtick_12">
     <g id="line2d_12">
      <g>
       <use xlink:href="#m74b8ae23a3" x="1392.447193" y="242.456" style="stroke: #000000; stroke-width: 0.8"/>
      </g>
     </g>
     <g id="text_12">
      <!-- distance -->
      <g transform="translate(1371.260474 257.054437) scale(0.1 -0.1)">
       <use xlink:href="#DejaVuSans-64"/>
       <use xlink:href="#DejaVuSans-69" x="63.476562"/>
       <use xlink:href="#DejaVuSans-73" x="91.259766"/>
       <use xlink:href="#DejaVuSans-74" x="143.359375"/>
       <use xlink:href="#DejaVuSans-61" x="182.568359"/>
       <use xlink:href="#DejaVuSans-6e" x="243.847656"/>
       <use xlink:href="#DejaVuSans-63" x="307.226562"/>
       <use xlink:href="#DejaVuSans-65" x="362.207031"/>
      </g>
      <!-- ukgov-AVE. -->
      <g transform="translate(1364.359693 268.25225) scale(0.1 -0.1)">
       <use xlink:href="#DejaVuSans-75"/>
       <use xlink:href="#DejaVuSans-6b" x="63.378906"/>
       <use xlink:href="#DejaVuSans-67" x="121.289062"/>
       <use xlink:href="#DejaVuSans-6f" x="184.765625"/>
       <use xlink:href="#DejaVuSans-76" x="245.947266"/>
       <use xlink:href="#DejaVuSans-2d" x="302.501953"/>
       <use xlink:href="#DejaVuSans-41" x="336.335938"/>
       <use xlink:href="#DejaVuSans-56" x="398.369141"/>
       <use xlink:href="#DejaVuSans-45" x="466.777344"/>
       <use xlink:href="#DejaVuSans-2e" x="529.960938"/>
      </g>
     </g>
    </g>
   </g>
   <g id="matplotlib.axis_2">
    <g id="ytick_1">
     <g id="line2d_13">
      <defs>
       <path id="mf04bfc4e65" d="M 0 0 
L -3.5 0 
" style="stroke: #000000; stroke-width: 0.8"/>
      </defs>
      <g>
       <use xlink:href="#mf04bfc4e65" x="43.803125" y="242.456" style="stroke: #000000; stroke-width: 0.8"/>
      </g>
     </g>
     <g id="text_13">
      <!-- 0.0 -->
      <g transform="translate(20.9 246.255219) scale(0.1 -0.1)">
       <defs>
        <path id="DejaVuSans-30" d="M 2034 4250 
Q 1547 4250 1301 3770 
Q 1056 3291 1056 2328 
Q 1056 1369 1301 889 
Q 1547 409 2034 409 
Q 2525 409 2770 889 
Q 3016 1369 3016 2328 
Q 3016 3291 2770 3770 
Q 2525 4250 2034 4250 
z
M 2034 4750 
Q 2819 4750 3233 4129 
Q 3647 3509 3647 2328 
Q 3647 1150 3233 529 
Q 2819 -91 2034 -91 
Q 1250 -91 836 529 
Q 422 1150 422 2328 
Q 422 3509 836 4129 
Q 1250 4750 2034 4750 
z
" transform="scale(0.015625)"/>
       </defs>
       <use xlink:href="#DejaVuSans-30"/>
       <use xlink:href="#DejaVuSans-2e" x="63.623047"/>
       <use xlink:href="#DejaVuSans-30" x="95.410156"/>
      </g>
     </g>
    </g>
    <g id="ytick_2">
     <g id="line2d_14">
      <g>
       <use xlink:href="#mf04bfc4e65" x="43.803125" y="215.347802" style="stroke: #000000; stroke-width: 0.8"/>
      </g>
     </g>
     <g id="text_14">
      <!-- 0.5 -->
      <g transform="translate(20.9 219.147021) scale(0.1 -0.1)">
       <defs>
        <path id="DejaVuSans-35" d="M 691 4666 
L 3169 4666 
L 3169 4134 
L 1269 4134 
L 1269 2991 
Q 1406 3038 1543 3061 
Q 1681 3084 1819 3084 
Q 2600 3084 3056 2656 
Q 3513 2228 3513 1497 
Q 3513 744 3044 326 
Q 2575 -91 1722 -91 
Q 1428 -91 1123 -41 
Q 819 9 494 109 
L 494 744 
Q 775 591 1075 516 
Q 1375 441 1709 441 
Q 2250 441 2565 725 
Q 2881 1009 2881 1497 
Q 2881 1984 2565 2268 
Q 2250 2553 1709 2553 
Q 1456 2553 1204 2497 
Q 953 2441 691 2322 
L 691 4666 
z
" transform="scale(0.015625)"/>
       </defs>
       <use xlink:href="#DejaVuSans-30"/>
       <use xlink:href="#DejaVuSans-2e" x="63.623047"/>
       <use xlink:href="#DejaVuSans-35" x="95.410156"/>
      </g>
     </g>
    </g>
    <g id="ytick_3">
     <g id="line2d_15">
      <g>
       <use xlink:href="#mf04bfc4e65" x="43.803125" y="188.239604" style="stroke: #000000; stroke-width: 0.8"/>
      </g>
     </g>
     <g id="text_15">
      <!-- 1.0 -->
      <g transform="translate(20.9 192.038822) scale(0.1 -0.1)">
       <defs>
        <path id="DejaVuSans-31" d="M 794 531 
L 1825 531 
L 1825 4091 
L 703 3866 
L 703 4441 
L 1819 4666 
L 2450 4666 
L 2450 531 
L 3481 531 
L 3481 0 
L 794 0 
L 794 531 
z
" transform="scale(0.015625)"/>
       </defs>
       <use xlink:href="#DejaVuSans-31"/>
       <use xlink:href="#DejaVuSans-2e" x="63.623047"/>
       <use xlink:href="#DejaVuSans-30" x="95.410156"/>
      </g>
     </g>
    </g>
    <g id="ytick_4">
     <g id="line2d_16">
      <g>
       <use xlink:href="#mf04bfc4e65" x="43.803125" y="161.131406" style="stroke: #000000; stroke-width: 0.8"/>
      </g>
     </g>
     <g id="text_16">
      <!-- 1.5 -->
      <g transform="translate(20.9 164.930624) scale(0.1 -0.1)">
       <use xlink:href="#DejaVuSans-31"/>
       <use xlink:href="#DejaVuSans-2e" x="63.623047"/>
       <use xlink:href="#DejaVuSans-35" x="95.410156"/>
      </g>
     </g>
    </g>
    <g id="ytick_5">
     <g id="line2d_17">
      <g>
       <use xlink:href="#mf04bfc4e65" x="43.803125" y="134.023207" style="stroke: #000000; stroke-width: 0.8"/>
      </g>
     </g>
     <g id="text_17">
      <!-- 2.0 -->
      <g transform="translate(20.9 137.822426) scale(0.1 -0.1)">
       <defs>
        <path id="DejaVuSans-32" d="M 1228 531 
L 3431 531 
L 3431 0 
L 469 0 
L 469 531 
Q 828 903 1448 1529 
Q 2069 2156 2228 2338 
Q 2531 2678 2651 2914 
Q 2772 3150 2772 3378 
Q 2772 3750 2511 3984 
Q 2250 4219 1831 4219 
Q 1534 4219 1204 4116 
Q 875 4013 500 3803 
L 500 4441 
Q 881 4594 1212 4672 
Q 1544 4750 1819 4750 
Q 2544 4750 2975 4387 
Q 3406 4025 3406 3419 
Q 3406 3131 3298 2873 
Q 3191 2616 2906 2266 
Q 2828 2175 2409 1742 
Q 1991 1309 1228 531 
z
" transform="scale(0.015625)"/>
       </defs>
       <use xlink:href="#DejaVuSans-32"/>
       <use xlink:href="#DejaVuSans-2e" x="63.623047"/>
       <use xlink:href="#DejaVuSans-30" x="95.410156"/>
      </g>
     </g>
    </g>
    <g id="ytick_6">
     <g id="line2d_18">
      <g>
       <use xlink:href="#mf04bfc4e65" x="43.803125" y="106.915009" style="stroke: #000000; stroke-width: 0.8"/>
      </g>
     </g>
     <g id="text_18">
      <!-- 2.5 -->
      <g transform="translate(20.9 110.714228) scale(0.1 -0.1)">
       <use xlink:href="#DejaVuSans-32"/>
       <use xlink:href="#DejaVuSans-2e" x="63.623047"/>
       <use xlink:href="#DejaVuSans-35" x="95.410156"/>
      </g>
     </g>
    </g>
    <g id="ytick_7">
     <g id="line2d_19">
      <g>
       <use xlink:href="#mf04bfc4e65" x="43.803125" y="79.806811" style="stroke: #000000; stroke-width: 0.8"/>
      </g>
     </g>
     <g id="text_19">
      <!-- 3.0 -->
      <g transform="translate(20.9 83.60603) scale(0.1 -0.1)">
       <defs>
        <path id="DejaVuSans-33" d="M 2597 2516 
Q 3050 2419 3304 2112 
Q 3559 1806 3559 1356 
Q 3559 666 3084 287 
Q 2609 -91 1734 -91 
Q 1441 -91 1130 -33 
Q 819 25 488 141 
L 488 750 
Q 750 597 1062 519 
Q 1375 441 1716 441 
Q 2309 441 2620 675 
Q 2931 909 2931 1356 
Q 2931 1769 2642 2001 
Q 2353 2234 1838 2234 
L 1294 2234 
L 1294 2753 
L 1863 2753 
Q 2328 2753 2575 2939 
Q 2822 3125 2822 3475 
Q 2822 3834 2567 4026 
Q 2313 4219 1838 4219 
Q 1578 4219 1281 4162 
Q 984 4106 628 3988 
L 628 4550 
Q 988 4650 1302 4700 
Q 1616 4750 1894 4750 
Q 2613 4750 3031 4423 
Q 3450 4097 3450 3541 
Q 3450 3153 3228 2886 
Q 3006 2619 2597 2516 
z
" transform="scale(0.015625)"/>
       </defs>
       <use xlink:href="#DejaVuSans-33"/>
       <use xlink:href="#DejaVuSans-2e" x="63.623047"/>
       <use xlink:href="#DejaVuSans-30" x="95.410156"/>
      </g>
     </g>
    </g>
    <g id="ytick_8">
     <g id="line2d_20">
      <g>
       <use xlink:href="#mf04bfc4e65" x="43.803125" y="52.698613" style="stroke: #000000; stroke-width: 0.8"/>
      </g>
     </g>
     <g id="text_20">
      <!-- 3.5 -->
      <g transform="translate(20.9 56.497832) scale(0.1 -0.1)">
       <use xlink:href="#DejaVuSans-33"/>
       <use xlink:href="#DejaVuSans-2e" x="63.623047"/>
       <use xlink:href="#DejaVuSans-35" x="95.410156"/>
      </g>
     </g>
    </g>
    <g id="text_21">
     <!-- $CO_2$ Equivalent (kg) -->
     <g transform="translate(14.8 188.838) rotate(-90) scale(0.1 -0.1)">
      <defs>
       <path id="DejaVuSans-Oblique-43" d="M 4447 4306 
L 4319 3641 
Q 4019 3944 3683 4091 
Q 3347 4238 2956 4238 
Q 2422 4238 2017 3981 
Q 1613 3725 1319 3200 
Q 1131 2863 1032 2486 
Q 934 2109 934 1728 
Q 934 1091 1264 756 
Q 1594 422 2222 422 
Q 2656 422 3056 561 
Q 3456 700 3834 978 
L 3688 231 
Q 3316 72 2936 -9 
Q 2556 -91 2175 -91 
Q 1278 -91 773 396 
Q 269 884 269 1753 
Q 269 2309 461 2846 
Q 653 3384 1013 3828 
Q 1394 4300 1883 4525 
Q 2372 4750 3022 4750 
Q 3422 4750 3780 4639 
Q 4138 4528 4447 4306 
z
" transform="scale(0.015625)"/>
       <path id="DejaVuSans-Oblique-4f" d="M 2919 4238 
Q 2400 4238 2003 3986 
Q 1606 3734 1313 3219 
Q 1125 2891 1026 2522 
Q 928 2153 928 1778 
Q 928 1128 1239 775 
Q 1550 422 2119 422 
Q 2631 422 3032 676 
Q 3434 931 3719 1434 
Q 3909 1772 4009 2142 
Q 4109 2513 4109 2881 
Q 4109 3528 3796 3883 
Q 3484 4238 2919 4238 
z
M 2100 -91 
Q 1241 -91 748 418 
Q 256 928 256 1813 
Q 256 2319 448 2847 
Q 641 3375 978 3788 
Q 1375 4272 1862 4511 
Q 2350 4750 2938 4750 
Q 3794 4750 4287 4245 
Q 4781 3741 4781 2869 
Q 4781 2331 4593 1812 
Q 4406 1294 4056 872 
Q 3656 384 3173 146 
Q 2691 -91 2100 -91 
z
" transform="scale(0.015625)"/>
       <path id="DejaVuSans-20" transform="scale(0.015625)"/>
       <path id="DejaVuSans-71" d="M 947 1747 
Q 947 1113 1208 752 
Q 1469 391 1925 391 
Q 2381 391 2643 752 
Q 2906 1113 2906 1747 
Q 2906 2381 2643 2742 
Q 2381 3103 1925 3103 
Q 1469 3103 1208 2742 
Q 947 2381 947 1747 
z
M 2906 525 
Q 2725 213 2448 61 
Q 2172 -91 1784 -91 
Q 1150 -91 751 415 
Q 353 922 353 1747 
Q 353 2572 751 3078 
Q 1150 3584 1784 3584 
Q 2172 3584 2448 3432 
Q 2725 3281 2906 2969 
L 2906 3500 
L 3481 3500 
L 3481 -1331 
L 2906 -1331 
L 2906 525 
z
" transform="scale(0.015625)"/>
       <path id="DejaVuSans-28" d="M 1984 4856 
Q 1566 4138 1362 3434 
Q 1159 2731 1159 2009 
Q 1159 1288 1364 580 
Q 1569 -128 1984 -844 
L 1484 -844 
Q 1016 -109 783 600 
Q 550 1309 550 2009 
Q 550 2706 781 3412 
Q 1013 4119 1484 4856 
L 1984 4856 
z
" transform="scale(0.015625)"/>
       <path id="DejaVuSans-29" d="M 513 4856 
L 1013 4856 
Q 1481 4119 1714 3412 
Q 1947 2706 1947 2009 
Q 1947 1309 1714 600 
Q 1481 -109 1013 -844 
L 513 -844 
Q 928 -128 1133 580 
Q 1338 1288 1338 2009 
Q 1338 2731 1133 3434 
Q 928 4138 513 4856 
z
" transform="scale(0.015625)"/>
      </defs>
      <use xlink:href="#DejaVuSans-Oblique-43" transform="translate(0 0.015625)"/>
      <use xlink:href="#DejaVuSans-Oblique-4f" transform="translate(69.824219 0.015625)"/>
      <use xlink:href="#DejaVuSans-32" transform="translate(148.535156 -16.390625) scale(0.7)"/>
      <use xlink:href="#DejaVuSans-20" transform="translate(195.805664 0.015625)"/>
      <use xlink:href="#DejaVuSans-45" transform="translate(227.592773 0.015625)"/>
      <use xlink:href="#DejaVuSans-71" transform="translate(290.776367 0.015625)"/>
      <use xlink:href="#DejaVuSans-75" transform="translate(354.25293 0.015625)"/>
      <use xlink:href="#DejaVuSans-69" transform="translate(417.631836 0.015625)"/>
      <use xlink:href="#DejaVuSans-76" transform="translate(445.415039 0.015625)"/>
      <use xlink:href="#DejaVuSans-61" transform="translate(504.594727 0.015625)"/>
      <use xlink:href="#DejaVuSans-6c" transform="translate(565.874023 0.015625)"/>
      <use xlink:href="#DejaVuSans-65" transform="translate(593.657227 0.015625)"/>
      <use xlink:href="#DejaVuSans-6e" transform="translate(655.180664 0.015625)"/>
      <use xlink:href="#DejaVuSans-74" transform="translate(718.55957 0.015625)"/>
      <use xlink:href="#DejaVuSans-20" transform="translate(757.768555 0.015625)"/>
      <use xlink:href="#DejaVuSans-28" transform="translate(789.555664 0.015625)"/>
      <use xlink:href="#DejaVuSans-6b" transform="translate(828.569336 0.015625)"/>
      <use xlink:href="#DejaVuSans-67" transform="translate(886.479492 0.015625)"/>
      <use xlink:href="#DejaVuSans-29" transform="translate(949.956055 0.015625)"/>
     </g>
    </g>
    <g id="text_22">
     <!-- 1e6 -->
     <g transform="translate(43.803125 33.32) scale(0.1 -0.1)">
      <defs>
       <path id="DejaVuSans-36" d="M 2113 2584 
Q 1688 2584 1439 2293 
Q 1191 2003 1191 1497 
Q 1191 994 1439 701 
Q 1688 409 2113 409 
Q 2538 409 2786 701 
Q 3034 994 3034 1497 
Q 3034 2003 2786 2293 
Q 2538 2584 2113 2584 
z
M 3366 4563 
L 3366 3988 
Q 3128 4100 2886 4159 
Q 2644 4219 2406 4219 
Q 1781 4219 1451 3797 
Q 1122 3375 1075 2522 
Q 1259 2794 1537 2939 
Q 1816 3084 2150 3084 
Q 2853 3084 3261 2657 
Q 3669 2231 3669 1497 
Q 3669 778 3244 343 
Q 2819 -91 2113 -91 
Q 1303 -91 875 529 
Q 447 1150 447 2328 
Q 447 3434 972 4092 
Q 1497 4750 2381 4750 
Q 2619 4750 2861 4703 
Q 3103 4656 3366 4563 
z
" transform="scale(0.015625)"/>
      </defs>
      <use xlink:href="#DejaVuSans-31"/>
      <use xlink:href="#DejaVuSans-65" x="63.623047"/>
      <use xlink:href="#DejaVuSans-36" x="125.146484"/>
     </g>
    </g>
   </g>
   <g id="patch_147">
    <path d="M 43.803125 242.456 
L 43.803125 36.32 
" style="fill: none; stroke: #000000; stroke-width: 0.8; stroke-linejoin: miter; stroke-linecap: square"/>
   </g>
   <g id="patch_148">
    <path d="M 1503.803125 242.456 
L 1503.803125 36.32 
" style="fill: none; stroke: #000000; stroke-width: 0.8; stroke-linejoin: miter; stroke-linecap: square"/>
   </g>
   <g id="patch_149">
    <path d="M 43.803125 242.456 
L 1503.803125 242.456 
" style="fill: none; stroke: #000000; stroke-width: 0.8; stroke-linejoin: miter; stroke-linecap: square"/>
   </g>
   <g id="patch_150">
    <path d="M 43.803125 36.32 
L 1503.803125 36.32 
" style="fill: none; stroke: #000000; stroke-width: 0.8; stroke-linejoin: miter; stroke-linecap: square"/>
   </g>
   <g id="text_23">
    <!-- $CO_2$ Equivalent (kg) by subregion for IETF116 (1000 participants) -->
    <g transform="translate(577.783125 16.32) scale(0.12 -0.12)">
     <defs>
      <path id="DejaVuSans-62" d="M 3116 1747 
Q 3116 2381 2855 2742 
Q 2594 3103 2138 3103 
Q 1681 3103 1420 2742 
Q 1159 2381 1159 1747 
Q 1159 1113 1420 752 
Q 1681 391 2138 391 
Q 2594 391 2855 752 
Q 3116 1113 3116 1747 
z
M 1159 2969 
Q 1341 3281 1617 3432 
Q 1894 3584 2278 3584 
Q 2916 3584 3314 3078 
Q 3713 2572 3713 1747 
Q 3713 922 3314 415 
Q 2916 -91 2278 -91 
Q 1894 -91 1617 61 
Q 1341 213 1159 525 
L 1159 0 
L 581 0 
L 581 4863 
L 1159 4863 
L 1159 2969 
z
" transform="scale(0.015625)"/>
      <path id="DejaVuSans-72" d="M 2631 2963 
Q 2534 3019 2420 3045 
Q 2306 3072 2169 3072 
Q 1681 3072 1420 2755 
Q 1159 2438 1159 1844 
L 1159 0 
L 581 0 
L 581 3500 
L 1159 3500 
L 1159 2956 
Q 1341 3275 1631 3429 
Q 1922 3584 2338 3584 
Q 2397 3584 2469 3576 
Q 2541 3569 2628 3553 
L 2631 2963 
z
" transform="scale(0.015625)"/>
      <path id="DejaVuSans-49" d="M 628 4666 
L 1259 4666 
L 1259 0 
L 628 0 
L 628 4666 
z
" transform="scale(0.015625)"/>
      <path id="DejaVuSans-54" d="M -19 4666 
L 3928 4666 
L 3928 4134 
L 2272 4134 
L 2272 0 
L 1638 0 
L 1638 4134 
L -19 4134 
L -19 4666 
z
" transform="scale(0.015625)"/>
      <path id="DejaVuSans-46" d="M 628 4666 
L 3309 4666 
L 3309 4134 
L 1259 4134 
L 1259 2759 
L 3109 2759 
L 3109 2228 
L 1259 2228 
L 1259 0 
L 628 0 
L 628 4666 
z
" transform="scale(0.015625)"/>
      <path id="DejaVuSans-70" d="M 1159 525 
L 1159 -1331 
L 581 -1331 
L 581 3500 
L 1159 3500 
L 1159 2969 
Q 1341 3281 1617 3432 
Q 1894 3584 2278 3584 
Q 2916 3584 3314 3078 
Q 3713 2572 3713 1747 
Q 3713 922 3314 415 
Q 2916 -91 2278 -91 
Q 1894 -91 1617 61 
Q 1341 213 1159 525 
z
M 3116 1747 
Q 3116 2381 2855 2742 
Q 2594 3103 2138 3103 
Q 1681 3103 1420 2742 
Q 1159 2381 1159 1747 
Q 1159 1113 1420 752 
Q 1681 391 2138 391 
Q 2594 391 2855 752 
Q 3116 1113 3116 1747 
z
" transform="scale(0.015625)"/>
     </defs>
     <use xlink:href="#DejaVuSans-Oblique-43" transform="translate(0 0.015625)"/>
     <use xlink:href="#DejaVuSans-Oblique-4f" transform="translate(69.824219 0.015625)"/>
     <use xlink:href="#DejaVuSans-32" transform="translate(148.535156 -16.390625) scale(0.7)"/>
     <use xlink:href="#DejaVuSans-20" transform="translate(195.805664 0.015625)"/>
     <use xlink:href="#DejaVuSans-45" transform="translate(227.592773 0.015625)"/>
     <use xlink:href="#DejaVuSans-71" transform="translate(290.776367 0.015625)"/>
     <use xlink:href="#DejaVuSans-75" transform="translate(354.25293 0.015625)"/>
     <use xlink:href="#DejaVuSans-69" transform="translate(417.631836 0.015625)"/>
     <use xlink:href="#DejaVuSans-76" transform="translate(445.415039 0.015625)"/>
     <use xlink:href="#DejaVuSans-61" transform="translate(504.594727 0.015625)"/>
     <use xlink:href="#DejaVuSans-6c" transform="translate(565.874023 0.015625)"/>
     <use xlink:href="#DejaVuSans-65" transform="translate(593.657227 0.015625)"/>
     <use xlink:href="#DejaVuSans-6e" transform="translate(655.180664 0.015625)"/>
     <use xlink:href="#DejaVuSans-74" transform="translate(718.55957 0.015625)"/>
     <use xlink:href="#DejaVuSans-20" transform="translate(757.768555 0.015625)"/>
     <use xlink:href="#DejaVuSans-28" transform="translate(789.555664 0.015625)"/>
     <use xlink:href="#DejaVuSans-6b" transform="translate(828.569336 0.015625)"/>
     <use xlink:href="#DejaVuSans-67" transform="translate(886.479492 0.015625)"/>
     <use xlink:href="#DejaVuSans-29" transform="translate(949.956055 0.015625)"/>
     <use xlink:href="#DejaVuSans-20" transform="translate(988.969727 0.015625)"/>
     <use xlink:href="#DejaVuSans-62" transform="translate(1020.756836 0.015625)"/>
     <use xlink:href="#DejaVuSans-79" transform="translate(1084.233398 0.015625)"/>
     <use xlink:href="#DejaVuSans-20" transform="translate(1143.413086 0.015625)"/>
     <use xlink:href="#DejaVuSans-73" transform="translate(1175.200195 0.015625)"/>
     <use xlink:href="#DejaVuSans-75" transform="translate(1227.299805 0.015625)"/>
     <use xlink:href="#DejaVuSans-62" transform="translate(1290.678711 0.015625)"/>
     <use xlink:href="#DejaVuSans-72" transform="translate(1354.155273 0.015625)"/>
     <use xlink:href="#DejaVuSans-65" transform="translate(1395.268555 0.015625)"/>
     <use xlink:href="#DejaVuSans-67" transform="translate(1456.791992 0.015625)"/>
     <use xlink:href="#DejaVuSans-69" transform="translate(1520.268555 0.015625)"/>
     <use xlink:href="#DejaVuSans-6f" transform="translate(1548.051758 0.015625)"/>
     <use xlink:href="#DejaVuSans-6e" transform="translate(1609.233398 0.015625)"/>
     <use xlink:href="#DejaVuSans-20" transform="translate(1672.612305 0.015625)"/>
     <use xlink:href="#DejaVuSans-66" transform="translate(1704.399414 0.015625)"/>
     <use xlink:href="#DejaVuSans-6f" transform="translate(1739.604492 0.015625)"/>
     <use xlink:href="#DejaVuSans-72" transform="translate(1800.786133 0.015625)"/>
     <use xlink:href="#DejaVuSans-20" transform="translate(1841.899414 0.015625)"/>
     <use xlink:href="#DejaVuSans-49" transform="translate(1873.686523 0.015625)"/>
     <use xlink:href="#DejaVuSans-45" transform="translate(1903.178711 0.015625)"/>
     <use xlink:href="#DejaVuSans-54" transform="translate(1966.362305 0.015625)"/>
     <use xlink:href="#DejaVuSans-46" transform="translate(2027.446289 0.015625)"/>
     <use xlink:href="#DejaVuSans-31" transform="translate(2084.96582 0.015625)"/>
     <use xlink:href="#DejaVuSans-31" transform="translate(2148.588867 0.015625)"/>
     <use xlink:href="#DejaVuSans-36" transform="translate(2212.211914 0.015625)"/>
     <use xlink:href="#DejaVuSans-20" transform="translate(2275.834961 0.015625)"/>
     <use xlink:href="#DejaVuSans-28" transform="translate(2307.62207 0.015625)"/>
     <use xlink:href="#DejaVuSans-31" transform="translate(2346.635742 0.015625)"/>
     <use xlink:href="#DejaVuSans-30" transform="translate(2410.258789 0.015625)"/>
     <use xlink:href="#DejaVuSans-30" transform="translate(2473.881836 0.015625)"/>
     <use xlink:href="#DejaVuSans-30" transform="translate(2537.504883 0.015625)"/>
     <use xlink:href="#DejaVuSans-20" transform="translate(2601.12793 0.015625)"/>
     <use xlink:href="#DejaVuSans-70" transform="translate(2632.915039 0.015625)"/>
     <use xlink:href="#DejaVuSans-61" transform="translate(2696.391602 0.015625)"/>
     <use xlink:href="#DejaVuSans-72" transform="translate(2757.670898 0.015625)"/>
     <use xlink:href="#DejaVuSans-74" transform="translate(2798.78418 0.015625)"/>
     <use xlink:href="#DejaVuSans-69" transform="translate(2837.993164 0.015625)"/>
     <use xlink:href="#DejaVuSans-63" transform="translate(2865.776367 0.015625)"/>
     <use xlink:href="#DejaVuSans-69" transform="translate(2920.756836 0.015625)"/>
     <use xlink:href="#DejaVuSans-70" transform="translate(2948.540039 0.015625)"/>
     <use xlink:href="#DejaVuSans-61" transform="translate(3012.016602 0.015625)"/>
     <use xlink:href="#DejaVuSans-6e" transform="translate(3073.295898 0.015625)"/>
     <use xlink:href="#DejaVuSans-74" transform="translate(3136.674805 0.015625)"/>
     <use xlink:href="#DejaVuSans-73" transform="translate(3175.883789 0.015625)"/>
     <use xlink:href="#DejaVuSans-29" transform="translate(3227.983398 0.015625)"/>
    </g>
   </g>
   <g id="legend_1">
    <g id="patch_151">
     <path d="M 1510.803125 199.8439 
L 1708.042188 199.8439 
Q 1710.042188 199.8439 1710.042188 197.8439 
L 1710.042188 22.7064 
Q 1710.042188 20.7064 1708.042188 20.7064 
L 1510.803125 20.7064 
Q 1508.803125 20.7064 1508.803125 22.7064 
L 1508.803125 197.8439 
Q 1508.803125 199.8439 1510.803125 199.8439 
z
" style="fill: #ffffff; opacity: 0.8; stroke: #cccccc; stroke-linejoin: miter"/>
    </g>
    <g id="patch_152">
     <path d="M 1512.803125 32.304837 
L 1532.803125 32.304837 
L 1532.803125 25.304837 
L 1512.803125 25.304837 
z
" style="fill: #1f77b4"/>
    </g>
    <g id="text_24">
     <!-- Northern America -->
     <g transform="translate(1540.803125 32.304837) scale(0.1 -0.1)">
      <defs>
       <path id="DejaVuSans-4e" d="M 628 4666 
L 1478 4666 
L 3547 763 
L 3547 4666 
L 4159 4666 
L 4159 0 
L 3309 0 
L 1241 3903 
L 1241 0 
L 628 0 
L 628 4666 
z
" transform="scale(0.015625)"/>
      </defs>
      <use xlink:href="#DejaVuSans-4e"/>
      <use xlink:href="#DejaVuSans-6f" x="74.804688"/>
      <use xlink:href="#DejaVuSans-72" x="135.986328"/>
      <use xlink:href="#DejaVuSans-74" x="177.099609"/>
      <use xlink:href="#DejaVuSans-68" x="216.308594"/>
      <use xlink:href="#DejaVuSans-65" x="279.6875"/>
      <use xlink:href="#DejaVuSans-72" x="341.210938"/>
      <use xlink:href="#DejaVuSans-6e" x="380.574219"/>
      <use xlink:href="#DejaVuSans-20" x="443.953125"/>
      <use xlink:href="#DejaVuSans-41" x="475.740234"/>
      <use xlink:href="#DejaVuSans-6d" x="544.148438"/>
      <use xlink:href="#DejaVuSans-65" x="641.560547"/>
      <use xlink:href="#DejaVuSans-72" x="703.083984"/>
      <use xlink:href="#DejaVuSans-69" x="744.197266"/>
      <use xlink:href="#DejaVuSans-63" x="771.980469"/>
      <use xlink:href="#DejaVuSans-61" x="826.960938"/>
     </g>
    </g>
    <g id="patch_153">
     <path d="M 1512.803125 46.982962 
L 1532.803125 46.982962 
L 1532.803125 39.982962 
L 1512.803125 39.982962 
z
" style="fill: #ff7f0e"/>
    </g>
    <g id="text_25">
     <!-- Western Europe -->
     <g transform="translate(1540.803125 46.982962) scale(0.1 -0.1)">
      <defs>
       <path id="DejaVuSans-57" d="M 213 4666 
L 850 4666 
L 1831 722 
L 2809 4666 
L 3519 4666 
L 4500 722 
L 5478 4666 
L 6119 4666 
L 4947 0 
L 4153 0 
L 3169 4050 
L 2175 0 
L 1381 0 
L 213 4666 
z
" transform="scale(0.015625)"/>
      </defs>
      <use xlink:href="#DejaVuSans-57"/>
      <use xlink:href="#DejaVuSans-65" x="93.001953"/>
      <use xlink:href="#DejaVuSans-73" x="154.525391"/>
      <use xlink:href="#DejaVuSans-74" x="206.625"/>
      <use xlink:href="#DejaVuSans-65" x="245.833984"/>
      <use xlink:href="#DejaVuSans-72" x="307.357422"/>
      <use xlink:href="#DejaVuSans-6e" x="346.720703"/>
      <use xlink:href="#DejaVuSans-20" x="410.099609"/>
      <use xlink:href="#DejaVuSans-45" x="441.886719"/>
      <use xlink:href="#DejaVuSans-75" x="505.070312"/>
      <use xlink:href="#DejaVuSans-72" x="568.449219"/>
      <use xlink:href="#DejaVuSans-6f" x="607.3125"/>
      <use xlink:href="#DejaVuSans-70" x="668.494141"/>
      <use xlink:href="#DejaVuSans-65" x="731.970703"/>
     </g>
    </g>
    <g id="patch_154">
     <path d="M 1512.803125 61.661087 
L 1532.803125 61.661087 
L 1532.803125 54.661087 
L 1512.803125 54.661087 
z
" style="fill: #2ca02c"/>
    </g>
    <g id="text_26">
     <!-- Northern Europe -->
     <g transform="translate(1540.803125 61.661087) scale(0.1 -0.1)">
      <use xlink:href="#DejaVuSans-4e"/>
      <use xlink:href="#DejaVuSans-6f" x="74.804688"/>
      <use xlink:href="#DejaVuSans-72" x="135.986328"/>
      <use xlink:href="#DejaVuSans-74" x="177.099609"/>
      <use xlink:href="#DejaVuSans-68" x="216.308594"/>
      <use xlink:href="#DejaVuSans-65" x="279.6875"/>
      <use xlink:href="#DejaVuSans-72" x="341.210938"/>
      <use xlink:href="#DejaVuSans-6e" x="380.574219"/>
      <use xlink:href="#DejaVuSans-20" x="443.953125"/>
      <use xlink:href="#DejaVuSans-45" x="475.740234"/>
      <use xlink:href="#DejaVuSans-75" x="538.923828"/>
      <use xlink:href="#DejaVuSans-72" x="602.302734"/>
      <use xlink:href="#DejaVuSans-6f" x="641.166016"/>
      <use xlink:href="#DejaVuSans-70" x="702.347656"/>
      <use xlink:href="#DejaVuSans-65" x="765.824219"/>
     </g>
    </g>
    <g id="patch_155">
     <path d="M 1512.803125 76.339212 
L 1532.803125 76.339212 
L 1532.803125 69.339212 
L 1512.803125 69.339212 
z
" style="fill: #d62728"/>
    </g>
    <g id="text_27">
     <!-- Eastern Asia -->
     <g transform="translate(1540.803125 76.339212) scale(0.1 -0.1)">
      <use xlink:href="#DejaVuSans-45"/>
      <use xlink:href="#DejaVuSans-61" x="63.183594"/>
      <use xlink:href="#DejaVuSans-73" x="124.462891"/>
      <use xlink:href="#DejaVuSans-74" x="176.5625"/>
      <use xlink:href="#DejaVuSans-65" x="215.771484"/>
      <use xlink:href="#DejaVuSans-72" x="277.294922"/>
      <use xlink:href="#DejaVuSans-6e" x="316.658203"/>
      <use xlink:href="#DejaVuSans-20" x="380.037109"/>
      <use xlink:href="#DejaVuSans-41" x="411.824219"/>
      <use xlink:href="#DejaVuSans-73" x="480.232422"/>
      <use xlink:href="#DejaVuSans-69" x="532.332031"/>
      <use xlink:href="#DejaVuSans-61" x="560.115234"/>
     </g>
    </g>
    <g id="patch_156">
     <path d="M 1512.803125 91.017337 
L 1532.803125 91.017337 
L 1532.803125 84.017337 
L 1512.803125 84.017337 
z
" style="fill: #9467bd"/>
    </g>
    <g id="text_28">
     <!-- Southern Europe -->
     <g transform="translate(1540.803125 91.017337) scale(0.1 -0.1)">
      <defs>
       <path id="DejaVuSans-53" d="M 3425 4513 
L 3425 3897 
Q 3066 4069 2747 4153 
Q 2428 4238 2131 4238 
Q 1616 4238 1336 4038 
Q 1056 3838 1056 3469 
Q 1056 3159 1242 3001 
Q 1428 2844 1947 2747 
L 2328 2669 
Q 3034 2534 3370 2195 
Q 3706 1856 3706 1288 
Q 3706 609 3251 259 
Q 2797 -91 1919 -91 
Q 1588 -91 1214 -16 
Q 841 59 441 206 
L 441 856 
Q 825 641 1194 531 
Q 1563 422 1919 422 
Q 2459 422 2753 634 
Q 3047 847 3047 1241 
Q 3047 1584 2836 1778 
Q 2625 1972 2144 2069 
L 1759 2144 
Q 1053 2284 737 2584 
Q 422 2884 422 3419 
Q 422 4038 858 4394 
Q 1294 4750 2059 4750 
Q 2388 4750 2728 4690 
Q 3069 4631 3425 4513 
z
" transform="scale(0.015625)"/>
      </defs>
      <use xlink:href="#DejaVuSans-53"/>
      <use xlink:href="#DejaVuSans-6f" x="63.476562"/>
      <use xlink:href="#DejaVuSans-75" x="124.658203"/>
      <use xlink:href="#DejaVuSans-74" x="188.037109"/>
      <use xlink:href="#DejaVuSans-68" x="227.246094"/>
      <use xlink:href="#DejaVuSans-65" x="290.625"/>
      <use xlink:href="#DejaVuSans-72" x="352.148438"/>
      <use xlink:href="#DejaVuSans-6e" x="391.511719"/>
      <use xlink:href="#DejaVuSans-20" x="454.890625"/>
      <use xlink:href="#DejaVuSans-45" x="486.677734"/>
      <use xlink:href="#DejaVuSans-75" x="549.861328"/>
      <use xlink:href="#DejaVuSans-72" x="613.240234"/>
      <use xlink:href="#DejaVuSans-6f" x="652.103516"/>
      <use xlink:href="#DejaVuSans-70" x="713.285156"/>
      <use xlink:href="#DejaVuSans-65" x="776.761719"/>
     </g>
    </g>
    <g id="patch_157">
     <path d="M 1512.803125 105.695462 
L 1532.803125 105.695462 
L 1532.803125 98.695462 
L 1512.803125 98.695462 
z
" style="fill: #8c564b"/>
    </g>
    <g id="text_29">
     <!-- Latin America and the Caribbean -->
     <g transform="translate(1540.803125 105.695462) scale(0.1 -0.1)">
      <defs>
       <path id="DejaVuSans-4c" d="M 628 4666 
L 1259 4666 
L 1259 531 
L 3531 531 
L 3531 0 
L 628 0 
L 628 4666 
z
" transform="scale(0.015625)"/>
      </defs>
      <use xlink:href="#DejaVuSans-4c"/>
      <use xlink:href="#DejaVuSans-61" x="55.712891"/>
      <use xlink:href="#DejaVuSans-74" x="116.992188"/>
      <use xlink:href="#DejaVuSans-69" x="156.201172"/>
      <use xlink:href="#DejaVuSans-6e" x="183.984375"/>
      <use xlink:href="#DejaVuSans-20" x="247.363281"/>
      <use xlink:href="#DejaVuSans-41" x="279.150391"/>
      <use xlink:href="#DejaVuSans-6d" x="347.558594"/>
      <use xlink:href="#DejaVuSans-65" x="444.970703"/>
      <use xlink:href="#DejaVuSans-72" x="506.494141"/>
      <use xlink:href="#DejaVuSans-69" x="547.607422"/>
      <use xlink:href="#DejaVuSans-63" x="575.390625"/>
      <use xlink:href="#DejaVuSans-61" x="630.371094"/>
      <use xlink:href="#DejaVuSans-20" x="691.650391"/>
      <use xlink:href="#DejaVuSans-61" x="723.4375"/>
      <use xlink:href="#DejaVuSans-6e" x="784.716797"/>
      <use xlink:href="#DejaVuSans-64" x="848.095703"/>
      <use xlink:href="#DejaVuSans-20" x="911.572266"/>
      <use xlink:href="#DejaVuSans-74" x="943.359375"/>
      <use xlink:href="#DejaVuSans-68" x="982.568359"/>
      <use xlink:href="#DejaVuSans-65" x="1045.947266"/>
      <use xlink:href="#DejaVuSans-20" x="1107.470703"/>
      <use xlink:href="#DejaVuSans-43" x="1139.257812"/>
      <use xlink:href="#DejaVuSans-61" x="1209.082031"/>
      <use xlink:href="#DejaVuSans-72" x="1270.361328"/>
      <use xlink:href="#DejaVuSans-69" x="1311.474609"/>
      <use xlink:href="#DejaVuSans-62" x="1339.257812"/>
      <use xlink:href="#DejaVuSans-62" x="1402.734375"/>
      <use xlink:href="#DejaVuSans-65" x="1466.210938"/>
      <use xlink:href="#DejaVuSans-61" x="1527.734375"/>
      <use xlink:href="#DejaVuSans-6e" x="1589.013672"/>
     </g>
    </g>
    <g id="patch_158">
     <path d="M 1512.803125 120.373587 
L 1532.803125 120.373587 
L 1532.803125 113.373587 
L 1512.803125 113.373587 
z
" style="fill: #e377c2"/>
    </g>
    <g id="text_30">
     <!-- Sub-Saharan Africa -->
     <g transform="translate(1540.803125 120.373587) scale(0.1 -0.1)">
      <use xlink:href="#DejaVuSans-53"/>
      <use xlink:href="#DejaVuSans-75" x="63.476562"/>
      <use xlink:href="#DejaVuSans-62" x="126.855469"/>
      <use xlink:href="#DejaVuSans-2d" x="190.332031"/>
      <use xlink:href="#DejaVuSans-53" x="226.416016"/>
      <use xlink:href="#DejaVuSans-61" x="289.892578"/>
      <use xlink:href="#DejaVuSans-68" x="351.171875"/>
      <use xlink:href="#DejaVuSans-61" x="414.550781"/>
      <use xlink:href="#DejaVuSans-72" x="475.830078"/>
      <use xlink:href="#DejaVuSans-61" x="516.943359"/>
      <use xlink:href="#DejaVuSans-6e" x="578.222656"/>
      <use xlink:href="#DejaVuSans-20" x="641.601562"/>
      <use xlink:href="#DejaVuSans-41" x="673.388672"/>
      <use xlink:href="#DejaVuSans-66" x="738.171875"/>
      <use xlink:href="#DejaVuSans-72" x="773.376953"/>
      <use xlink:href="#DejaVuSans-69" x="814.490234"/>
      <use xlink:href="#DejaVuSans-63" x="842.273438"/>
      <use xlink:href="#DejaVuSans-61" x="897.253906"/>
     </g>
    </g>
    <g id="patch_159">
     <path d="M 1512.803125 135.051712 
L 1532.803125 135.051712 
L 1532.803125 128.051712 
L 1512.803125 128.051712 
z
" style="fill: #7f7f7f"/>
    </g>
    <g id="text_31">
     <!-- Western Asia -->
     <g transform="translate(1540.803125 135.051712) scale(0.1 -0.1)">
      <use xlink:href="#DejaVuSans-57"/>
      <use xlink:href="#DejaVuSans-65" x="93.001953"/>
      <use xlink:href="#DejaVuSans-73" x="154.525391"/>
      <use xlink:href="#DejaVuSans-74" x="206.625"/>
      <use xlink:href="#DejaVuSans-65" x="245.833984"/>
      <use xlink:href="#DejaVuSans-72" x="307.357422"/>
      <use xlink:href="#DejaVuSans-6e" x="346.720703"/>
      <use xlink:href="#DejaVuSans-20" x="410.099609"/>
      <use xlink:href="#DejaVuSans-41" x="441.886719"/>
      <use xlink:href="#DejaVuSans-73" x="510.294922"/>
      <use xlink:href="#DejaVuSans-69" x="562.394531"/>
      <use xlink:href="#DejaVuSans-61" x="590.177734"/>
     </g>
    </g>
    <g id="patch_160">
     <path d="M 1512.803125 149.729837 
L 1532.803125 149.729837 
L 1532.803125 142.729837 
L 1512.803125 142.729837 
z
" style="fill: #bcbd22"/>
    </g>
    <g id="text_32">
     <!-- Southern Asia -->
     <g transform="translate(1540.803125 149.729837) scale(0.1 -0.1)">
      <use xlink:href="#DejaVuSans-53"/>
      <use xlink:href="#DejaVuSans-6f" x="63.476562"/>
      <use xlink:href="#DejaVuSans-75" x="124.658203"/>
      <use xlink:href="#DejaVuSans-74" x="188.037109"/>
      <use xlink:href="#DejaVuSans-68" x="227.246094"/>
      <use xlink:href="#DejaVuSans-65" x="290.625"/>
      <use xlink:href="#DejaVuSans-72" x="352.148438"/>
      <use xlink:href="#DejaVuSans-6e" x="391.511719"/>
      <use xlink:href="#DejaVuSans-20" x="454.890625"/>
      <use xlink:href="#DejaVuSans-41" x="486.677734"/>
      <use xlink:href="#DejaVuSans-73" x="555.085938"/>
      <use xlink:href="#DejaVuSans-69" x="607.185547"/>
      <use xlink:href="#DejaVuSans-61" x="634.96875"/>
     </g>
    </g>
    <g id="patch_161">
     <path d="M 1512.803125 164.407962 
L 1532.803125 164.407962 
L 1532.803125 157.407962 
L 1512.803125 157.407962 
z
" style="fill: #17becf"/>
    </g>
    <g id="text_33">
     <!-- Australia and New Zealand -->
     <g transform="translate(1540.803125 164.407962) scale(0.1 -0.1)">
      <defs>
       <path id="DejaVuSans-77" d="M 269 3500 
L 844 3500 
L 1563 769 
L 2278 3500 
L 2956 3500 
L 3675 769 
L 4391 3500 
L 4966 3500 
L 4050 0 
L 3372 0 
L 2619 2869 
L 1863 0 
L 1184 0 
L 269 3500 
z
" transform="scale(0.015625)"/>
       <path id="DejaVuSans-5a" d="M 359 4666 
L 4025 4666 
L 4025 4184 
L 1075 531 
L 4097 531 
L 4097 0 
L 288 0 
L 288 481 
L 3238 4134 
L 359 4134 
L 359 4666 
z
" transform="scale(0.015625)"/>
      </defs>
      <use xlink:href="#DejaVuSans-41"/>
      <use xlink:href="#DejaVuSans-75" x="68.408203"/>
      <use xlink:href="#DejaVuSans-73" x="131.787109"/>
      <use xlink:href="#DejaVuSans-74" x="183.886719"/>
      <use xlink:href="#DejaVuSans-72" x="223.095703"/>
      <use xlink:href="#DejaVuSans-61" x="264.208984"/>
      <use xlink:href="#DejaVuSans-6c" x="325.488281"/>
      <use xlink:href="#DejaVuSans-69" x="353.271484"/>
      <use xlink:href="#DejaVuSans-61" x="381.054688"/>
      <use xlink:href="#DejaVuSans-20" x="442.333984"/>
      <use xlink:href="#DejaVuSans-61" x="474.121094"/>
      <use xlink:href="#DejaVuSans-6e" x="535.400391"/>
      <use xlink:href="#DejaVuSans-64" x="598.779297"/>
      <use xlink:href="#DejaVuSans-20" x="662.255859"/>
      <use xlink:href="#DejaVuSans-4e" x="694.042969"/>
      <use xlink:href="#DejaVuSans-65" x="768.847656"/>
      <use xlink:href="#DejaVuSans-77" x="830.371094"/>
      <use xlink:href="#DejaVuSans-20" x="912.158203"/>
      <use xlink:href="#DejaVuSans-5a" x="943.945312"/>
      <use xlink:href="#DejaVuSans-65" x="1012.451172"/>
      <use xlink:href="#DejaVuSans-61" x="1073.974609"/>
      <use xlink:href="#DejaVuSans-6c" x="1135.253906"/>
      <use xlink:href="#DejaVuSans-61" x="1163.037109"/>
      <use xlink:href="#DejaVuSans-6e" x="1224.316406"/>
      <use xlink:href="#DejaVuSans-64" x="1287.695312"/>
     </g>
    </g>
    <g id="patch_162">
     <path d="M 1512.803125 179.086087 
L 1532.803125 179.086087 
L 1532.803125 172.086087 
L 1512.803125 172.086087 
z
" style="fill: #1f77b4"/>
    </g>
    <g id="text_34">
     <!-- Eastern Europe -->
     <g transform="translate(1540.803125 179.086087) scale(0.1 -0.1)">
      <use xlink:href="#DejaVuSans-45"/>
      <use xlink:href="#DejaVuSans-61" x="63.183594"/>
      <use xlink:href="#DejaVuSans-73" x="124.462891"/>
      <use xlink:href="#DejaVuSans-74" x="176.5625"/>
      <use xlink:href="#DejaVuSans-65" x="215.771484"/>
      <use xlink:href="#DejaVuSans-72" x="277.294922"/>
      <use xlink:href="#DejaVuSans-6e" x="316.658203"/>
      <use xlink:href="#DejaVuSans-20" x="380.037109"/>
      <use xlink:href="#DejaVuSans-45" x="411.824219"/>
      <use xlink:href="#DejaVuSans-75" x="475.007812"/>
      <use xlink:href="#DejaVuSans-72" x="538.386719"/>
      <use xlink:href="#DejaVuSans-6f" x="577.25"/>
      <use xlink:href="#DejaVuSans-70" x="638.431641"/>
      <use xlink:href="#DejaVuSans-65" x="701.908203"/>
     </g>
    </g>
    <g id="patch_163">
     <path d="M 1512.803125 193.764212 
L 1532.803125 193.764212 
L 1532.803125 186.764212 
L 1512.803125 186.764212 
z
" style="fill: #ff7f0e"/>
    </g>
    <g id="text_35">
     <!-- South-eastern Asia -->
     <g transform="translate(1540.803125 193.764212) scale(0.1 -0.1)">
      <use xlink:href="#DejaVuSans-53"/>
      <use xlink:href="#DejaVuSans-6f" x="63.476562"/>
      <use xlink:href="#DejaVuSans-75" x="124.658203"/>
      <use xlink:href="#DejaVuSans-74" x="188.037109"/>
      <use xlink:href="#DejaVuSans-68" x="227.246094"/>
      <use xlink:href="#DejaVuSans-2d" x="290.625"/>
      <use xlink:href="#DejaVuSans-65" x="326.708984"/>
      <use xlink:href="#DejaVuSans-61" x="388.232422"/>
      <use xlink:href="#DejaVuSans-73" x="449.511719"/>
      <use xlink:href="#DejaVuSans-74" x="501.611328"/>
      <use xlink:href="#DejaVuSans-65" x="540.820312"/>
      <use xlink:href="#DejaVuSans-72" x="602.34375"/>
      <use xlink:href="#DejaVuSans-6e" x="641.707031"/>
      <use xlink:href="#DejaVuSans-20" x="705.085938"/>
      <use xlink:href="#DejaVuSans-41" x="736.873047"/>
      <use xlink:href="#DejaVuSans-73" x="805.28125"/>
      <use xlink:href="#DejaVuSans-69" x="857.380859"/>
      <use xlink:href="#DejaVuSans-61" x="885.164062"/>
     </g>
    </g>
   </g>
  </g>
 </g>
 <defs>
  <clipPath id="pcb33973e08">
   <rect x="43.803125" y="36.32" width="1460" height="206.136"/>
  </clipPath>
 </defs>
</svg>
