<?xml version="1.0" encoding="utf-8" standalone="no"?>
<!DOCTYPE svg PUBLIC "-//W3C//DTD SVG 1.1//EN"
  "http://www.w3.org/Graphics/SVG/1.1/DTD/svg11.dtd">
<svg xmlns:xlink="http://www.w3.org/1999/xlink" width="1717.47625pt" height="277.531937pt" viewBox="0 0 1717.47625 277.531937" xmlns="http://www.w3.org/2000/svg" version="1.1">
 <metadata>
  <rdf:RDF xmlns:dc="http://purl.org/dc/elements/1.1/" xmlns:cc="http://creativecommons.org/ns#" xmlns:rdf="http://www.w3.org/1999/02/22-rdf-syntax-ns#">
   <cc:Work>
    <dc:type rdf:resource="http://purl.org/dc/dcmitype/StillImage"/>
    <dc:date>2023-06-07T11:09:44.043269</dc:date>
    <dc:format>image/svg+xml</dc:format>
    <dc:creator>
     <cc:Agent>
      <dc:title>Matplotlib v3.7.1, https://matplotlib.org/</dc:title>
     </cc:Agent>
    </dc:creator>
   </cc:Work>
  </rdf:RDF>
 </metadata>
 <defs>
  <style type="text/css">*{stroke-linejoin: round; stroke-linecap: butt}</style>
 </defs>
 <g id="figure_1">
  <g id="patch_1">
   <path d="M -0 277.531937 
L 1717.47625 277.531937 
L 1717.47625 0 
L -0 0 
z
" style="fill: #ffffff"/>
  </g>
  <g id="axes_1">
   <g id="patch_2">
    <path d="M 43.803125 242.456 
L 1623.773125 242.456 
L 1623.773125 36.32 
L 43.803125 36.32 
z
" style="fill: #ffffff"/>
   </g>
   <g id="patch_3">
    <path d="M 115.619943 242.456 
L 212.99868 242.456 
L 212.99868 231.777787 
L 115.619943 231.777787 
z
" clip-path="url(#pea34f6dcf2)" style="fill: #1f77b4"/>
   </g>
   <g id="patch_4">
    <path d="M 237.343364 242.456 
L 334.7221 242.456 
L 334.7221 230.666796 
L 237.343364 230.666796 
z
" clip-path="url(#pea34f6dcf2)" style="fill: #1f77b4"/>
   </g>
   <g id="patch_5">
    <path d="M 359.066784 242.456 
L 456.445521 242.456 
L 456.445521 228.386845 
L 359.066784 228.386845 
z
" clip-path="url(#pea34f6dcf2)" style="fill: #1f77b4"/>
   </g>
   <g id="patch_6">
    <path d="M 480.790205 242.456 
L 578.168942 242.456 
L 578.168942 227.02571 
L 480.790205 227.02571 
z
" clip-path="url(#pea34f6dcf2)" style="fill: #1f77b4"/>
   </g>
   <g id="patch_7">
    <path d="M 602.513626 242.456 
L 699.892362 242.456 
L 699.892362 232.951941 
L 602.513626 232.951941 
z
" clip-path="url(#pea34f6dcf2)" style="fill: #1f77b4"/>
   </g>
   <g id="patch_8">
    <path d="M 724.237046 242.456 
L 821.615783 242.456 
L 821.615783 231.413688 
L 724.237046 231.413688 
z
" clip-path="url(#pea34f6dcf2)" style="fill: #1f77b4"/>
   </g>
   <g id="patch_9">
    <path d="M 845.960467 242.456 
L 943.339204 242.456 
L 943.339204 233.559948 
L 845.960467 233.559948 
z
" clip-path="url(#pea34f6dcf2)" style="fill: #1f77b4"/>
   </g>
   <g id="patch_10">
    <path d="M 967.683888 242.456 
L 1065.062624 242.456 
L 1065.062624 232.496321 
L 967.683888 232.496321 
z
" clip-path="url(#pea34f6dcf2)" style="fill: #1f77b4"/>
   </g>
   <g id="patch_11">
    <path d="M 1089.407308 242.456 
L 1186.786045 242.456 
L 1186.786045 230.983811 
L 1089.407308 230.983811 
z
" clip-path="url(#pea34f6dcf2)" style="fill: #1f77b4"/>
   </g>
   <g id="patch_12">
    <path d="M 1211.130729 242.456 
L 1308.509466 242.456 
L 1308.509466 229.712631 
L 1211.130729 229.712631 
z
" clip-path="url(#pea34f6dcf2)" style="fill: #1f77b4"/>
   </g>
   <g id="patch_13">
    <path d="M 1332.85415 242.456 
L 1430.232886 242.456 
L 1430.232886 234.222788 
L 1332.85415 234.222788 
z
" clip-path="url(#pea34f6dcf2)" style="fill: #1f77b4"/>
   </g>
   <g id="patch_14">
    <path d="M 1454.57757 242.456 
L 1551.956307 242.456 
L 1551.956307 232.650326 
L 1454.57757 232.650326 
z
" clip-path="url(#pea34f6dcf2)" style="fill: #1f77b4"/>
   </g>
   <g id="patch_15">
    <path d="M 115.619943 231.777787 
L 212.99868 231.777787 
L 212.99868 222.18829 
L 115.619943 222.18829 
z
" clip-path="url(#pea34f6dcf2)" style="fill: #ff7f0e"/>
   </g>
   <g id="patch_16">
    <path d="M 237.343364 230.666796 
L 334.7221 230.666796 
L 334.7221 219.916456 
L 237.343364 219.916456 
z
" clip-path="url(#pea34f6dcf2)" style="fill: #ff7f0e"/>
   </g>
   <g id="patch_17">
    <path d="M 359.066784 228.386845 
L 456.445521 228.386845 
L 456.445521 216.329119 
L 359.066784 216.329119 
z
" clip-path="url(#pea34f6dcf2)" style="fill: #ff7f0e"/>
   </g>
   <g id="patch_18">
    <path d="M 480.790205 227.02571 
L 578.168942 227.02571 
L 578.168942 213.579567 
L 480.790205 213.579567 
z
" clip-path="url(#pea34f6dcf2)" style="fill: #ff7f0e"/>
   </g>
   <g id="patch_19">
    <path d="M 602.513626 232.951941 
L 699.892362 232.951941 
L 699.892362 223.965194 
L 602.513626 223.965194 
z
" clip-path="url(#pea34f6dcf2)" style="fill: #ff7f0e"/>
   </g>
   <g id="patch_20">
    <path d="M 724.237046 231.413688 
L 821.615783 231.413688 
L 821.615783 220.556958 
L 724.237046 220.556958 
z
" clip-path="url(#pea34f6dcf2)" style="fill: #ff7f0e"/>
   </g>
   <g id="patch_21">
    <path d="M 845.960467 233.559948 
L 943.339204 233.559948 
L 943.339204 224.950855 
L 845.960467 224.950855 
z
" clip-path="url(#pea34f6dcf2)" style="fill: #ff7f0e"/>
   </g>
   <g id="patch_22">
    <path d="M 967.683888 232.496321 
L 1065.062624 232.496321 
L 1065.062624 222.817031 
L 967.683888 222.817031 
z
" clip-path="url(#pea34f6dcf2)" style="fill: #ff7f0e"/>
   </g>
   <g id="patch_23">
    <path d="M 1089.407308 230.983811 
L 1186.786045 230.983811 
L 1186.786045 219.80439 
L 1089.407308 219.80439 
z
" clip-path="url(#pea34f6dcf2)" style="fill: #ff7f0e"/>
   </g>
   <g id="patch_24">
    <path d="M 1211.130729 229.712631 
L 1308.509466 229.712631 
L 1308.509466 217.179449 
L 1211.130729 217.179449 
z
" clip-path="url(#pea34f6dcf2)" style="fill: #ff7f0e"/>
   </g>
   <g id="patch_25">
    <path d="M 1332.85415 234.222788 
L 1430.232886 234.222788 
L 1430.232886 226.045974 
L 1332.85415 226.045974 
z
" clip-path="url(#pea34f6dcf2)" style="fill: #ff7f0e"/>
   </g>
   <g id="patch_26">
    <path d="M 1454.57757 232.650326 
L 1551.956307 232.650326 
L 1551.956307 222.496633 
L 1454.57757 222.496633 
z
" clip-path="url(#pea34f6dcf2)" style="fill: #ff7f0e"/>
   </g>
   <g id="patch_27">
    <path d="M 115.619943 222.18829 
L 212.99868 222.18829 
L 212.99868 212.993744 
L 115.619943 212.993744 
z
" clip-path="url(#pea34f6dcf2)" style="fill: #2ca02c"/>
   </g>
   <g id="patch_28">
    <path d="M 237.343364 219.916456 
L 334.7221 219.916456 
L 334.7221 209.662951 
L 237.343364 209.662951 
z
" clip-path="url(#pea34f6dcf2)" style="fill: #2ca02c"/>
   </g>
   <g id="patch_29">
    <path d="M 359.066784 216.329119 
L 456.445521 216.329119 
L 456.445521 204.537052 
L 359.066784 204.537052 
z
" clip-path="url(#pea34f6dcf2)" style="fill: #2ca02c"/>
   </g>
   <g id="patch_30">
    <path d="M 480.790205 213.579567 
L 578.168942 213.579567 
L 578.168942 200.511897 
L 480.790205 200.511897 
z
" clip-path="url(#pea34f6dcf2)" style="fill: #2ca02c"/>
   </g>
   <g id="patch_31">
    <path d="M 602.513626 223.965194 
L 699.892362 223.965194 
L 699.892362 215.498292 
L 602.513626 215.498292 
z
" clip-path="url(#pea34f6dcf2)" style="fill: #2ca02c"/>
   </g>
   <g id="patch_32">
    <path d="M 724.237046 220.556958 
L 821.615783 220.556958 
L 821.615783 210.410081 
L 724.237046 210.410081 
z
" clip-path="url(#pea34f6dcf2)" style="fill: #2ca02c"/>
   </g>
   <g id="patch_33">
    <path d="M 845.960467 224.950855 
L 943.339204 224.950855 
L 943.339204 217.110375 
L 845.960467 217.110375 
z
" clip-path="url(#pea34f6dcf2)" style="fill: #2ca02c"/>
   </g>
   <g id="patch_34">
    <path d="M 967.683888 222.817031 
L 1065.062624 222.817031 
L 1065.062624 214.027324 
L 967.683888 214.027324 
z
" clip-path="url(#pea34f6dcf2)" style="fill: #2ca02c"/>
   </g>
   <g id="patch_35">
    <path d="M 1089.407308 219.80439 
L 1186.786045 219.80439 
L 1186.786045 209.698453 
L 1089.407308 209.698453 
z
" clip-path="url(#pea34f6dcf2)" style="fill: #2ca02c"/>
   </g>
   <g id="patch_36">
    <path d="M 1211.130729 217.179449 
L 1308.509466 217.179449 
L 1308.509466 205.905561 
L 1211.130729 205.905561 
z
" clip-path="url(#pea34f6dcf2)" style="fill: #2ca02c"/>
   </g>
   <g id="patch_37">
    <path d="M 1332.85415 226.045974 
L 1430.232886 226.045974 
L 1430.232886 218.763476 
L 1332.85415 218.763476 
z
" clip-path="url(#pea34f6dcf2)" style="fill: #2ca02c"/>
   </g>
   <g id="patch_38">
    <path d="M 1454.57757 222.496633 
L 1551.956307 222.496633 
L 1551.956307 213.559288 
L 1454.57757 213.559288 
z
" clip-path="url(#pea34f6dcf2)" style="fill: #2ca02c"/>
   </g>
   <g id="patch_39">
    <path d="M 115.619943 212.993744 
L 212.99868 212.993744 
L 212.99868 208.794001 
L 115.619943 208.794001 
z
" clip-path="url(#pea34f6dcf2)" style="fill: #d62728"/>
   </g>
   <g id="patch_40">
    <path d="M 237.343364 209.662951 
L 334.7221 209.662951 
L 334.7221 204.969281 
L 237.343364 204.969281 
z
" clip-path="url(#pea34f6dcf2)" style="fill: #d62728"/>
   </g>
   <g id="patch_41">
    <path d="M 359.066784 204.537052 
L 456.445521 204.537052 
L 456.445521 199.223846 
L 359.066784 199.223846 
z
" clip-path="url(#pea34f6dcf2)" style="fill: #d62728"/>
   </g>
   <g id="patch_42">
    <path d="M 480.790205 200.511897 
L 578.168942 200.511897 
L 578.168942 194.595544 
L 480.790205 194.595544 
z
" clip-path="url(#pea34f6dcf2)" style="fill: #d62728"/>
   </g>
   <g id="patch_43">
    <path d="M 602.513626 215.498292 
L 699.892362 215.498292 
L 699.892362 211.565328 
L 602.513626 211.565328 
z
" clip-path="url(#pea34f6dcf2)" style="fill: #d62728"/>
   </g>
   <g id="patch_44">
    <path d="M 724.237046 210.410081 
L 821.615783 210.410081 
L 821.615783 205.62559 
L 724.237046 205.62559 
z
" clip-path="url(#pea34f6dcf2)" style="fill: #d62728"/>
   </g>
   <g id="patch_45">
    <path d="M 845.960467 217.110375 
L 943.339204 217.110375 
L 943.339204 213.552703 
L 845.960467 213.552703 
z
" clip-path="url(#pea34f6dcf2)" style="fill: #d62728"/>
   </g>
   <g id="patch_46">
    <path d="M 967.683888 214.027324 
L 1065.062624 214.027324 
L 1065.062624 210.027033 
L 967.683888 210.027033 
z
" clip-path="url(#pea34f6dcf2)" style="fill: #d62728"/>
   </g>
   <g id="patch_47">
    <path d="M 1089.407308 209.698453 
L 1186.786045 209.698453 
L 1186.786045 205.176806 
L 1089.407308 205.176806 
z
" clip-path="url(#pea34f6dcf2)" style="fill: #d62728"/>
   </g>
   <g id="patch_48">
    <path d="M 1211.130729 205.905561 
L 1308.509466 205.905561 
L 1308.509466 200.833856 
L 1211.130729 200.833856 
z
" clip-path="url(#pea34f6dcf2)" style="fill: #d62728"/>
   </g>
   <g id="patch_49">
    <path d="M 1332.85415 218.763476 
L 1430.232886 218.763476 
L 1430.232886 215.358677 
L 1332.85415 215.358677 
z
" clip-path="url(#pea34f6dcf2)" style="fill: #d62728"/>
   </g>
   <g id="patch_50">
    <path d="M 1454.57757 213.559288 
L 1551.956307 213.559288 
L 1551.956307 209.331322 
L 1454.57757 209.331322 
z
" clip-path="url(#pea34f6dcf2)" style="fill: #d62728"/>
   </g>
   <g id="patch_51">
    <path d="M 115.619943 208.794001 
L 212.99868 208.794001 
L 212.99868 206.088252 
L 115.619943 206.088252 
z
" clip-path="url(#pea34f6dcf2)" style="fill: #9467bd"/>
   </g>
   <g id="patch_52">
    <path d="M 237.343364 204.969281 
L 334.7221 204.969281 
L 334.7221 201.936083 
L 237.343364 201.936083 
z
" clip-path="url(#pea34f6dcf2)" style="fill: #9467bd"/>
   </g>
   <g id="patch_53">
    <path d="M 359.066784 199.223846 
L 456.445521 199.223846 
L 456.445521 195.819056 
L 359.066784 195.819056 
z
" clip-path="url(#pea34f6dcf2)" style="fill: #9467bd"/>
   </g>
   <g id="patch_54">
    <path d="M 480.790205 194.595544 
L 578.168942 194.595544 
L 578.168942 190.80881 
L 480.790205 190.80881 
z
" clip-path="url(#pea34f6dcf2)" style="fill: #9467bd"/>
   </g>
   <g id="patch_55">
    <path d="M 602.513626 211.565328 
L 699.892362 211.565328 
L 699.892362 209.049209 
L 602.513626 209.049209 
z
" clip-path="url(#pea34f6dcf2)" style="fill: #9467bd"/>
   </g>
   <g id="patch_56">
    <path d="M 724.237046 205.62559 
L 821.615783 205.62559 
L 821.615783 202.58943 
L 724.237046 202.58943 
z
" clip-path="url(#pea34f6dcf2)" style="fill: #9467bd"/>
   </g>
   <g id="patch_57">
    <path d="M 845.960467 213.552703 
L 943.339204 213.552703 
L 943.339204 211.147994 
L 845.960467 211.147994 
z
" clip-path="url(#pea34f6dcf2)" style="fill: #9467bd"/>
   </g>
   <g id="patch_58">
    <path d="M 967.683888 210.027033 
L 1065.062624 210.027033 
L 1065.062624 207.322948 
L 967.683888 207.322948 
z
" clip-path="url(#pea34f6dcf2)" style="fill: #9467bd"/>
   </g>
   <g id="patch_59">
    <path d="M 1089.407308 205.176806 
L 1186.786045 205.176806 
L 1186.786045 202.086471 
L 1089.407308 202.086471 
z
" clip-path="url(#pea34f6dcf2)" style="fill: #9467bd"/>
   </g>
   <g id="patch_60">
    <path d="M 1211.130729 200.833856 
L 1308.509466 200.833856 
L 1308.509466 197.376324 
L 1211.130729 197.376324 
z
" clip-path="url(#pea34f6dcf2)" style="fill: #9467bd"/>
   </g>
   <g id="patch_61">
    <path d="M 1332.85415 215.358677 
L 1430.232886 215.358677 
L 1430.232886 213.072532 
L 1332.85415 213.072532 
z
" clip-path="url(#pea34f6dcf2)" style="fill: #9467bd"/>
   </g>
   <g id="patch_62">
    <path d="M 1454.57757 209.331322 
L 1551.956307 209.331322 
L 1551.956307 206.503181 
L 1454.57757 206.503181 
z
" clip-path="url(#pea34f6dcf2)" style="fill: #9467bd"/>
   </g>
   <g id="patch_63">
    <path d="M 115.619943 206.088252 
L 212.99868 206.088252 
L 212.99868 203.849749 
L 115.619943 203.849749 
z
" clip-path="url(#pea34f6dcf2)" style="fill: #8c564b"/>
   </g>
   <g id="patch_64">
    <path d="M 237.343364 201.936083 
L 334.7221 201.936083 
L 334.7221 199.421096 
L 237.343364 199.421096 
z
" clip-path="url(#pea34f6dcf2)" style="fill: #8c564b"/>
   </g>
   <g id="patch_65">
    <path d="M 359.066784 195.819056 
L 456.445521 195.819056 
L 456.445521 193.016068 
L 359.066784 193.016068 
z
" clip-path="url(#pea34f6dcf2)" style="fill: #8c564b"/>
   </g>
   <g id="patch_66">
    <path d="M 480.790205 190.80881 
L 578.168942 190.80881 
L 578.168942 187.681392 
L 480.790205 187.681392 
z
" clip-path="url(#pea34f6dcf2)" style="fill: #8c564b"/>
   </g>
   <g id="patch_67">
    <path d="M 602.513626 209.049209 
L 699.892362 209.049209 
L 699.892362 206.946533 
L 602.513626 206.946533 
z
" clip-path="url(#pea34f6dcf2)" style="fill: #8c564b"/>
   </g>
   <g id="patch_68">
    <path d="M 724.237046 202.58943 
L 821.615783 202.58943 
L 821.615783 200.02568 
L 724.237046 200.02568 
z
" clip-path="url(#pea34f6dcf2)" style="fill: #8c564b"/>
   </g>
   <g id="patch_69">
    <path d="M 845.960467 211.147994 
L 943.339204 211.147994 
L 943.339204 209.126624 
L 845.960467 209.126624 
z
" clip-path="url(#pea34f6dcf2)" style="fill: #8c564b"/>
   </g>
   <g id="patch_70">
    <path d="M 967.683888 207.322948 
L 1065.062624 207.322948 
L 1065.062624 205.04967 
L 967.683888 205.04967 
z
" clip-path="url(#pea34f6dcf2)" style="fill: #8c564b"/>
   </g>
   <g id="patch_71">
    <path d="M 1089.407308 202.086471 
L 1186.786045 202.086471 
L 1186.786045 199.462398 
L 1089.407308 199.462398 
z
" clip-path="url(#pea34f6dcf2)" style="fill: #8c564b"/>
   </g>
   <g id="patch_72">
    <path d="M 1211.130729 197.376324 
L 1308.509466 197.376324 
L 1308.509466 194.444041 
L 1211.130729 194.444041 
z
" clip-path="url(#pea34f6dcf2)" style="fill: #8c564b"/>
   </g>
   <g id="patch_73">
    <path d="M 1332.85415 213.072532 
L 1430.232886 213.072532 
L 1430.232886 211.149651 
L 1332.85415 211.149651 
z
" clip-path="url(#pea34f6dcf2)" style="fill: #8c564b"/>
   </g>
   <g id="patch_74">
    <path d="M 1454.57757 206.503181 
L 1551.956307 206.503181 
L 1551.956307 204.115412 
L 1454.57757 204.115412 
z
" clip-path="url(#pea34f6dcf2)" style="fill: #8c564b"/>
   </g>
   <g id="patch_75">
    <path d="M 115.619943 203.849749 
L 212.99868 203.849749 
L 212.99868 201.630553 
L 115.619943 201.630553 
z
" clip-path="url(#pea34f6dcf2)" style="fill: #e377c2"/>
   </g>
   <g id="patch_76">
    <path d="M 237.343364 199.421096 
L 334.7221 199.421096 
L 334.7221 196.935618 
L 237.343364 196.935618 
z
" clip-path="url(#pea34f6dcf2)" style="fill: #e377c2"/>
   </g>
   <g id="patch_77">
    <path d="M 359.066784 193.016068 
L 456.445521 193.016068 
L 456.445521 190.218502 
L 359.066784 190.218502 
z
" clip-path="url(#pea34f6dcf2)" style="fill: #e377c2"/>
   </g>
   <g id="patch_78">
    <path d="M 480.790205 187.681392 
L 578.168942 187.681392 
L 578.168942 184.562344 
L 480.790205 184.562344 
z
" clip-path="url(#pea34f6dcf2)" style="fill: #e377c2"/>
   </g>
   <g id="patch_79">
    <path d="M 602.513626 206.946533 
L 699.892362 206.946533 
L 699.892362 204.869792 
L 602.513626 204.869792 
z
" clip-path="url(#pea34f6dcf2)" style="fill: #e377c2"/>
   </g>
   <g id="patch_80">
    <path d="M 724.237046 200.02568 
L 821.615783 200.02568 
L 821.615783 197.52547 
L 724.237046 197.52547 
z
" clip-path="url(#pea34f6dcf2)" style="fill: #e377c2"/>
   </g>
   <g id="patch_81">
    <path d="M 845.960467 209.126624 
L 943.339204 209.126624 
L 943.339204 207.145228 
L 845.960467 207.145228 
z
" clip-path="url(#pea34f6dcf2)" style="fill: #e377c2"/>
   </g>
   <g id="patch_82">
    <path d="M 967.683888 205.04967 
L 1065.062624 205.04967 
L 1065.062624 202.821543 
L 967.683888 202.821543 
z
" clip-path="url(#pea34f6dcf2)" style="fill: #e377c2"/>
   </g>
   <g id="patch_83">
    <path d="M 1089.407308 199.462398 
L 1186.786045 199.462398 
L 1186.786045 196.9576 
L 1089.407308 196.9576 
z
" clip-path="url(#pea34f6dcf2)" style="fill: #e377c2"/>
   </g>
   <g id="patch_84">
    <path d="M 1211.130729 194.444041 
L 1308.509466 194.444041 
L 1308.509466 191.631034 
L 1211.130729 191.631034 
z
" clip-path="url(#pea34f6dcf2)" style="fill: #e377c2"/>
   </g>
   <g id="patch_85">
    <path d="M 1332.85415 211.149651 
L 1430.232886 211.149651 
L 1430.232886 209.259154 
L 1332.85415 209.259154 
z
" clip-path="url(#pea34f6dcf2)" style="fill: #e377c2"/>
   </g>
   <g id="patch_86">
    <path d="M 1454.57757 204.115412 
L 1551.956307 204.115412 
L 1551.956307 201.767856 
L 1454.57757 201.767856 
z
" clip-path="url(#pea34f6dcf2)" style="fill: #e377c2"/>
   </g>
   <g id="patch_87">
    <path d="M 115.619943 201.630553 
L 212.99868 201.630553 
L 212.99868 199.466857 
L 115.619943 199.466857 
z
" clip-path="url(#pea34f6dcf2)" style="fill: #7f7f7f"/>
   </g>
   <g id="patch_88">
    <path d="M 237.343364 196.935618 
L 334.7221 196.935618 
L 334.7221 194.50753 
L 237.343364 194.50753 
z
" clip-path="url(#pea34f6dcf2)" style="fill: #7f7f7f"/>
   </g>
   <g id="patch_89">
    <path d="M 359.066784 190.218502 
L 456.445521 190.218502 
L 456.445521 187.513104 
L 359.066784 187.513104 
z
" clip-path="url(#pea34f6dcf2)" style="fill: #7f7f7f"/>
   </g>
   <g id="patch_90">
    <path d="M 480.790205 184.562344 
L 578.168942 184.562344 
L 578.168942 181.544312 
L 480.790205 181.544312 
z
" clip-path="url(#pea34f6dcf2)" style="fill: #7f7f7f"/>
   </g>
   <g id="patch_91">
    <path d="M 602.513626 204.869792 
L 699.892362 204.869792 
L 699.892362 202.840174 
L 602.513626 202.840174 
z
" clip-path="url(#pea34f6dcf2)" style="fill: #7f7f7f"/>
   </g>
   <g id="patch_92">
    <path d="M 724.237046 197.52547 
L 821.615783 197.52547 
L 821.615783 195.056961 
L 724.237046 195.056961 
z
" clip-path="url(#pea34f6dcf2)" style="fill: #7f7f7f"/>
   </g>
   <g id="patch_93">
    <path d="M 845.960467 207.145228 
L 943.339204 207.145228 
L 943.339204 205.109167 
L 845.960467 205.109167 
z
" clip-path="url(#pea34f6dcf2)" style="fill: #7f7f7f"/>
   </g>
   <g id="patch_94">
    <path d="M 967.683888 202.821543 
L 1065.062624 202.821543 
L 1065.062624 200.537199 
L 967.683888 200.537199 
z
" clip-path="url(#pea34f6dcf2)" style="fill: #7f7f7f"/>
   </g>
   <g id="patch_95">
    <path d="M 1089.407308 196.9576 
L 1186.786045 196.9576 
L 1186.786045 194.322683 
L 1089.407308 194.322683 
z
" clip-path="url(#pea34f6dcf2)" style="fill: #7f7f7f"/>
   </g>
   <g id="patch_96">
    <path d="M 1211.130729 191.631034 
L 1308.509466 191.631034 
L 1308.509466 188.693807 
L 1211.130729 188.693807 
z
" clip-path="url(#pea34f6dcf2)" style="fill: #7f7f7f"/>
   </g>
   <g id="patch_97">
    <path d="M 1332.85415 209.259154 
L 1430.232886 209.259154 
L 1430.232886 207.378856 
L 1332.85415 207.378856 
z
" clip-path="url(#pea34f6dcf2)" style="fill: #7f7f7f"/>
   </g>
   <g id="patch_98">
    <path d="M 1454.57757 201.767856 
L 1551.956307 201.767856 
L 1551.956307 199.432966 
L 1454.57757 199.432966 
z
" clip-path="url(#pea34f6dcf2)" style="fill: #7f7f7f"/>
   </g>
   <g id="patch_99">
    <path d="M 115.619943 199.466857 
L 212.99868 199.466857 
L 212.99868 197.431855 
L 115.619943 197.431855 
z
" clip-path="url(#pea34f6dcf2)" style="fill: #bcbd22"/>
   </g>
   <g id="patch_100">
    <path d="M 237.343364 194.50753 
L 334.7221 194.50753 
L 334.7221 192.221179 
L 237.343364 192.221179 
z
" clip-path="url(#pea34f6dcf2)" style="fill: #bcbd22"/>
   </g>
   <g id="patch_101">
    <path d="M 359.066784 187.513104 
L 456.445521 187.513104 
L 456.445521 184.964933 
L 359.066784 184.964933 
z
" clip-path="url(#pea34f6dcf2)" style="fill: #bcbd22"/>
   </g>
   <g id="patch_102">
    <path d="M 480.790205 181.544312 
L 578.168942 181.544312 
L 578.168942 178.701205 
L 480.790205 178.701205 
z
" clip-path="url(#pea34f6dcf2)" style="fill: #bcbd22"/>
   </g>
   <g id="patch_103">
    <path d="M 602.513626 202.840174 
L 699.892362 202.840174 
L 699.892362 200.92865 
L 602.513626 200.92865 
z
" clip-path="url(#pea34f6dcf2)" style="fill: #bcbd22"/>
   </g>
   <g id="patch_104">
    <path d="M 724.237046 195.056961 
L 821.615783 195.056961 
L 821.615783 192.726279 
L 724.237046 192.726279 
z
" clip-path="url(#pea34f6dcf2)" style="fill: #bcbd22"/>
   </g>
   <g id="patch_105">
    <path d="M 845.960467 205.109167 
L 943.339204 205.109167 
L 943.339204 203.271558 
L 845.960467 203.271558 
z
" clip-path="url(#pea34f6dcf2)" style="fill: #bcbd22"/>
   </g>
   <g id="patch_106">
    <path d="M 967.683888 200.537199 
L 1065.062624 200.537199 
L 1065.062624 198.470582 
L 967.683888 198.470582 
z
" clip-path="url(#pea34f6dcf2)" style="fill: #bcbd22"/>
   </g>
   <g id="patch_107">
    <path d="M 1089.407308 194.322683 
L 1186.786045 194.322683 
L 1186.786045 191.937162 
L 1089.407308 191.937162 
z
" clip-path="url(#pea34f6dcf2)" style="fill: #bcbd22"/>
   </g>
   <g id="patch_108">
    <path d="M 1211.130729 188.693807 
L 1308.509466 188.693807 
L 1308.509466 186.028095 
L 1211.130729 186.028095 
z
" clip-path="url(#pea34f6dcf2)" style="fill: #bcbd22"/>
   </g>
   <g id="patch_109">
    <path d="M 1332.85415 207.378856 
L 1430.232886 207.378856 
L 1430.232886 205.630783 
L 1332.85415 205.630783 
z
" clip-path="url(#pea34f6dcf2)" style="fill: #bcbd22"/>
   </g>
   <g id="patch_110">
    <path d="M 1454.57757 199.432966 
L 1551.956307 199.432966 
L 1551.956307 197.262266 
L 1454.57757 197.262266 
z
" clip-path="url(#pea34f6dcf2)" style="fill: #bcbd22"/>
   </g>
   <g id="patch_111">
    <path d="M 115.619943 197.431855 
L 212.99868 197.431855 
L 212.99868 195.426237 
L 115.619943 195.426237 
z
" clip-path="url(#pea34f6dcf2)" style="fill: #17becf"/>
   </g>
   <g id="patch_112">
    <path d="M 237.343364 192.221179 
L 334.7221 192.221179 
L 334.7221 189.96869 
L 237.343364 189.96869 
z
" clip-path="url(#pea34f6dcf2)" style="fill: #17becf"/>
   </g>
   <g id="patch_113">
    <path d="M 359.066784 184.964933 
L 456.445521 184.964933 
L 456.445521 182.454714 
L 359.066784 182.454714 
z
" clip-path="url(#pea34f6dcf2)" style="fill: #17becf"/>
   </g>
   <g id="patch_114">
    <path d="M 480.790205 178.701205 
L 578.168942 178.701205 
L 578.168942 175.897523 
L 480.790205 175.897523 
z
" clip-path="url(#pea34f6dcf2)" style="fill: #17becf"/>
   </g>
   <g id="patch_115">
    <path d="M 602.513626 200.92865 
L 699.892362 200.92865 
L 699.892362 199.041933 
L 602.513626 199.041933 
z
" clip-path="url(#pea34f6dcf2)" style="fill: #17becf"/>
   </g>
   <g id="patch_116">
    <path d="M 724.237046 192.726279 
L 821.615783 192.726279 
L 821.615783 190.442035 
L 724.237046 190.442035 
z
" clip-path="url(#pea34f6dcf2)" style="fill: #17becf"/>
   </g>
   <g id="patch_117">
    <path d="M 845.960467 203.271558 
L 943.339204 203.271558 
L 943.339204 201.477189 
L 845.960467 201.477189 
z
" clip-path="url(#pea34f6dcf2)" style="fill: #17becf"/>
   </g>
   <g id="patch_118">
    <path d="M 967.683888 198.470582 
L 1065.062624 198.470582 
L 1065.062624 196.452632 
L 967.683888 196.452632 
z
" clip-path="url(#pea34f6dcf2)" style="fill: #17becf"/>
   </g>
   <g id="patch_119">
    <path d="M 1089.407308 191.937162 
L 1186.786045 191.937162 
L 1186.786045 189.627543 
L 1089.407308 189.627543 
z
" clip-path="url(#pea34f6dcf2)" style="fill: #17becf"/>
   </g>
   <g id="patch_120">
    <path d="M 1211.130729 186.028095 
L 1308.509466 186.028095 
L 1308.509466 183.441236 
L 1211.130729 183.441236 
z
" clip-path="url(#pea34f6dcf2)" style="fill: #17becf"/>
   </g>
   <g id="patch_121">
    <path d="M 1332.85415 205.630783 
L 1430.232886 205.630783 
L 1430.232886 203.922032 
L 1332.85415 203.922032 
z
" clip-path="url(#pea34f6dcf2)" style="fill: #17becf"/>
   </g>
   <g id="patch_122">
    <path d="M 1454.57757 197.262266 
L 1551.956307 197.262266 
L 1551.956307 195.140397 
L 1454.57757 195.140397 
z
" clip-path="url(#pea34f6dcf2)" style="fill: #17becf"/>
   </g>
   <g id="patch_123">
    <path d="M 115.619943 195.426237 
L 212.99868 195.426237 
L 212.99868 193.666987 
L 115.619943 193.666987 
z
" clip-path="url(#pea34f6dcf2)" style="fill: #1f77b4"/>
   </g>
   <g id="patch_124">
    <path d="M 237.343364 189.96869 
L 334.7221 189.96869 
L 334.7221 187.991339 
L 237.343364 187.991339 
z
" clip-path="url(#pea34f6dcf2)" style="fill: #1f77b4"/>
   </g>
   <g id="patch_125">
    <path d="M 359.066784 182.454714 
L 456.445521 182.454714 
L 456.445521 180.264372 
L 359.066784 180.264372 
z
" clip-path="url(#pea34f6dcf2)" style="fill: #1f77b4"/>
   </g>
   <g id="patch_126">
    <path d="M 480.790205 175.897523 
L 578.168942 175.897523 
L 578.168942 173.434364 
L 480.790205 173.434364 
z
" clip-path="url(#pea34f6dcf2)" style="fill: #1f77b4"/>
   </g>
   <g id="patch_127">
    <path d="M 602.513626 199.041933 
L 699.892362 199.041933 
L 699.892362 197.370328 
L 602.513626 197.370328 
z
" clip-path="url(#pea34f6dcf2)" style="fill: #1f77b4"/>
   </g>
   <g id="patch_128">
    <path d="M 724.237046 190.442035 
L 821.615783 190.442035 
L 821.615783 188.410578 
L 724.237046 188.410578 
z
" clip-path="url(#pea34f6dcf2)" style="fill: #1f77b4"/>
   </g>
   <g id="patch_129">
    <path d="M 845.960467 201.477189 
L 943.339204 201.477189 
L 943.339204 199.732004 
L 845.960467 199.732004 
z
" clip-path="url(#pea34f6dcf2)" style="fill: #1f77b4"/>
   </g>
   <g id="patch_130">
    <path d="M 967.683888 196.452632 
L 1065.062624 196.452632 
L 1065.062624 194.490037 
L 967.683888 194.490037 
z
" clip-path="url(#pea34f6dcf2)" style="fill: #1f77b4"/>
   </g>
   <g id="patch_131">
    <path d="M 1089.407308 189.627543 
L 1186.786045 189.627543 
L 1186.786045 187.437201 
L 1089.407308 187.437201 
z
" clip-path="url(#pea34f6dcf2)" style="fill: #1f77b4"/>
   </g>
   <g id="patch_132">
    <path d="M 1211.130729 183.441236 
L 1308.509466 183.441236 
L 1308.509466 180.970703 
L 1211.130729 180.970703 
z
" clip-path="url(#pea34f6dcf2)" style="fill: #1f77b4"/>
   </g>
   <g id="patch_133">
    <path d="M 1332.85415 203.922032 
L 1430.232886 203.922032 
L 1430.232886 202.264421 
L 1332.85415 202.264421 
z
" clip-path="url(#pea34f6dcf2)" style="fill: #1f77b4"/>
   </g>
   <g id="patch_134">
    <path d="M 1454.57757 195.140397 
L 1551.956307 195.140397 
L 1551.956307 193.082031 
L 1454.57757 193.082031 
z
" clip-path="url(#pea34f6dcf2)" style="fill: #1f77b4"/>
   </g>
   <g id="patch_135">
    <path d="M 115.619943 193.666987 
L 212.99868 193.666987 
L 212.99868 191.835485 
L 115.619943 191.835485 
z
" clip-path="url(#pea34f6dcf2)" style="fill: #ff7f0e"/>
   </g>
   <g id="patch_136">
    <path d="M 237.343364 187.991339 
L 334.7221 187.991339 
L 334.7221 185.933623 
L 237.343364 185.933623 
z
" clip-path="url(#pea34f6dcf2)" style="fill: #ff7f0e"/>
   </g>
   <g id="patch_137">
    <path d="M 359.066784 180.264372 
L 456.445521 180.264372 
L 456.445521 177.971018 
L 359.066784 177.971018 
z
" clip-path="url(#pea34f6dcf2)" style="fill: #ff7f0e"/>
   </g>
   <g id="patch_138">
    <path d="M 480.790205 173.434364 
L 578.168942 173.434364 
L 578.168942 170.875567 
L 480.790205 170.875567 
z
" clip-path="url(#pea34f6dcf2)" style="fill: #ff7f0e"/>
   </g>
   <g id="patch_139">
    <path d="M 602.513626 197.370328 
L 699.892362 197.370328 
L 699.892362 195.649956 
L 602.513626 195.649956 
z
" clip-path="url(#pea34f6dcf2)" style="fill: #ff7f0e"/>
   </g>
   <g id="patch_140">
    <path d="M 724.237046 188.410578 
L 821.615783 188.410578 
L 821.615783 186.312964 
L 724.237046 186.312964 
z
" clip-path="url(#pea34f6dcf2)" style="fill: #ff7f0e"/>
   </g>
   <g id="patch_141">
    <path d="M 845.960467 199.732004 
L 943.339204 199.732004 
L 943.339204 198.078156 
L 845.960467 198.078156 
z
" clip-path="url(#pea34f6dcf2)" style="fill: #ff7f0e"/>
   </g>
   <g id="patch_142">
    <path d="M 967.683888 194.490037 
L 1065.062624 194.490037 
L 1065.062624 192.630081 
L 967.683888 192.630081 
z
" clip-path="url(#pea34f6dcf2)" style="fill: #ff7f0e"/>
   </g>
   <g id="patch_143">
    <path d="M 1089.407308 187.437201 
L 1186.786045 187.437201 
L 1186.786045 185.290232 
L 1089.407308 185.290232 
z
" clip-path="url(#pea34f6dcf2)" style="fill: #ff7f0e"/>
   </g>
   <g id="patch_144">
    <path d="M 1211.130729 180.970703 
L 1308.509466 180.970703 
L 1308.509466 178.571562 
L 1211.130729 178.571562 
z
" clip-path="url(#pea34f6dcf2)" style="fill: #ff7f0e"/>
   </g>
   <g id="patch_145">
    <path d="M 1332.85415 202.264421 
L 1430.232886 202.264421 
L 1430.232886 200.691154 
L 1332.85415 200.691154 
z
" clip-path="url(#pea34f6dcf2)" style="fill: #ff7f0e"/>
   </g>
   <g id="patch_146">
    <path d="M 1454.57757 193.082031 
L 1551.956307 193.082031 
L 1551.956307 191.128402 
L 1454.57757 191.128402 
z
" clip-path="url(#pea34f6dcf2)" style="fill: #ff7f0e"/>
   </g>
   <g id="patch_147">
    <path d="M 115.619943 191.835485 
L 212.99868 191.835485 
L 212.99868 189.953874 
L 115.619943 189.953874 
z
" clip-path="url(#pea34f6dcf2)" style="fill: #2ca02c"/>
   </g>
   <g id="patch_148">
    <path d="M 237.343364 185.933623 
L 334.7221 185.933623 
L 334.7221 183.820802 
L 237.343364 183.820802 
z
" clip-path="url(#pea34f6dcf2)" style="fill: #2ca02c"/>
   </g>
   <g id="patch_149">
    <path d="M 359.066784 177.971018 
L 456.445521 177.971018 
L 456.445521 175.59634 
L 359.066784 175.59634 
z
" clip-path="url(#pea34f6dcf2)" style="fill: #2ca02c"/>
   </g>
   <g id="patch_150">
    <path d="M 480.790205 170.875567 
L 578.168942 170.875567 
L 578.168942 168.217749 
L 480.790205 168.217749 
z
" clip-path="url(#pea34f6dcf2)" style="fill: #2ca02c"/>
   </g>
   <g id="patch_151">
    <path d="M 602.513626 195.649956 
L 699.892362 195.649956 
L 699.892362 193.861838 
L 602.513626 193.861838 
z
" clip-path="url(#pea34f6dcf2)" style="fill: #2ca02c"/>
   </g>
   <g id="patch_152">
    <path d="M 724.237046 186.312964 
L 821.615783 186.312964 
L 821.615783 184.10627 
L 724.237046 184.10627 
z
" clip-path="url(#pea34f6dcf2)" style="fill: #2ca02c"/>
   </g>
   <g id="patch_153">
    <path d="M 845.960467 198.078156 
L 943.339204 198.078156 
L 943.339204 196.635289 
L 845.960467 196.635289 
z
" clip-path="url(#pea34f6dcf2)" style="fill: #2ca02c"/>
   </g>
   <g id="patch_154">
    <path d="M 967.683888 192.630081 
L 1065.062624 192.630081 
L 1065.062624 191.007261 
L 967.683888 191.007261 
z
" clip-path="url(#pea34f6dcf2)" style="fill: #2ca02c"/>
   </g>
   <g id="patch_155">
    <path d="M 1089.407308 185.290232 
L 1186.786045 185.290232 
L 1186.786045 183.03483 
L 1089.407308 183.03483 
z
" clip-path="url(#pea34f6dcf2)" style="fill: #2ca02c"/>
   </g>
   <g id="patch_156">
    <path d="M 1211.130729 178.571562 
L 1308.509466 178.571562 
L 1308.509466 176.034495 
L 1211.130729 176.034495 
z
" clip-path="url(#pea34f6dcf2)" style="fill: #2ca02c"/>
   </g>
   <g id="patch_157">
    <path d="M 1332.85415 200.691154 
L 1430.232886 200.691154 
L 1430.232886 199.330234 
L 1332.85415 199.330234 
z
" clip-path="url(#pea34f6dcf2)" style="fill: #2ca02c"/>
   </g>
   <g id="patch_158">
    <path d="M 1454.57757 191.128402 
L 1551.956307 191.128402 
L 1551.956307 189.438457 
L 1454.57757 189.438457 
z
" clip-path="url(#pea34f6dcf2)" style="fill: #2ca02c"/>
   </g>
   <g id="patch_159">
    <path d="M 115.619943 189.953874 
L 212.99868 189.953874 
L 212.99868 188.151289 
L 115.619943 188.151289 
z
" clip-path="url(#pea34f6dcf2)" style="fill: #d62728"/>
   </g>
   <g id="patch_160">
    <path d="M 237.343364 183.820802 
L 334.7221 183.820802 
L 334.7221 181.803076 
L 237.343364 181.803076 
z
" clip-path="url(#pea34f6dcf2)" style="fill: #d62728"/>
   </g>
   <g id="patch_161">
    <path d="M 359.066784 175.59634 
L 456.445521 175.59634 
L 456.445521 173.31383 
L 359.066784 173.31383 
z
" clip-path="url(#pea34f6dcf2)" style="fill: #d62728"/>
   </g>
   <g id="patch_162">
    <path d="M 480.790205 168.217749 
L 578.168942 168.217749 
L 578.168942 165.680118 
L 480.790205 165.680118 
z
" clip-path="url(#pea34f6dcf2)" style="fill: #d62728"/>
   </g>
   <g id="patch_163">
    <path d="M 602.513626 193.861838 
L 699.892362 193.861838 
L 699.892362 192.179811 
L 602.513626 192.179811 
z
" clip-path="url(#pea34f6dcf2)" style="fill: #d62728"/>
   </g>
   <g id="patch_164">
    <path d="M 724.237046 184.10627 
L 821.615783 184.10627 
L 821.615783 182.065106 
L 724.237046 182.065106 
z
" clip-path="url(#pea34f6dcf2)" style="fill: #d62728"/>
   </g>
   <g id="patch_165">
    <path d="M 845.960467 196.635289 
L 943.339204 196.635289 
L 943.339204 195.038805 
L 845.960467 195.038805 
z
" clip-path="url(#pea34f6dcf2)" style="fill: #d62728"/>
   </g>
   <g id="patch_166">
    <path d="M 967.683888 191.007261 
L 1065.062624 191.007261 
L 1065.062624 189.211703 
L 967.683888 189.211703 
z
" clip-path="url(#pea34f6dcf2)" style="fill: #d62728"/>
   </g>
   <g id="patch_167">
    <path d="M 1089.407308 183.03483 
L 1186.786045 183.03483 
L 1186.786045 180.833644 
L 1089.407308 180.833644 
z
" clip-path="url(#pea34f6dcf2)" style="fill: #d62728"/>
   </g>
   <g id="patch_168">
    <path d="M 1211.130729 176.034495 
L 1308.509466 176.034495 
L 1308.509466 173.559018 
L 1211.130729 173.559018 
z
" clip-path="url(#pea34f6dcf2)" style="fill: #d62728"/>
   </g>
   <g id="patch_169">
    <path d="M 1332.85415 199.330234 
L 1430.232886 199.330234 
L 1430.232886 197.825477 
L 1332.85415 197.825477 
z
" clip-path="url(#pea34f6dcf2)" style="fill: #d62728"/>
   </g>
   <g id="patch_170">
    <path d="M 1454.57757 189.438457 
L 1551.956307 189.438457 
L 1551.956307 187.5699 
L 1454.57757 187.5699 
z
" clip-path="url(#pea34f6dcf2)" style="fill: #d62728"/>
   </g>
   <g id="patch_171">
    <path d="M 115.619943 188.151289 
L 212.99868 188.151289 
L 212.99868 186.340084 
L 115.619943 186.340084 
z
" clip-path="url(#pea34f6dcf2)" style="fill: #9467bd"/>
   </g>
   <g id="patch_172">
    <path d="M 237.343364 181.803076 
L 334.7221 181.803076 
L 334.7221 179.769951 
L 237.343364 179.769951 
z
" clip-path="url(#pea34f6dcf2)" style="fill: #9467bd"/>
   </g>
   <g id="patch_173">
    <path d="M 359.066784 173.31383 
L 456.445521 173.31383 
L 456.445521 171.047584 
L 359.066784 171.047584 
z
" clip-path="url(#pea34f6dcf2)" style="fill: #9467bd"/>
   </g>
   <g id="patch_174">
    <path d="M 480.790205 165.680118 
L 578.168942 165.680118 
L 578.168942 163.149904 
L 480.790205 163.149904 
z
" clip-path="url(#pea34f6dcf2)" style="fill: #9467bd"/>
   </g>
   <g id="patch_175">
    <path d="M 602.513626 192.179811 
L 699.892362 192.179811 
L 699.892362 190.478951 
L 602.513626 190.478951 
z
" clip-path="url(#pea34f6dcf2)" style="fill: #9467bd"/>
   </g>
   <g id="patch_176">
    <path d="M 724.237046 182.065106 
L 821.615783 182.065106 
L 821.615783 180.000256 
L 724.237046 180.000256 
z
" clip-path="url(#pea34f6dcf2)" style="fill: #9467bd"/>
   </g>
   <g id="patch_177">
    <path d="M 845.960467 195.038805 
L 943.339204 195.038805 
L 943.339204 193.418025 
L 845.960467 193.418025 
z
" clip-path="url(#pea34f6dcf2)" style="fill: #9467bd"/>
   </g>
   <g id="patch_178">
    <path d="M 967.683888 189.211703 
L 1065.062624 189.211703 
L 1065.062624 187.388967 
L 967.683888 187.388967 
z
" clip-path="url(#pea34f6dcf2)" style="fill: #9467bd"/>
   </g>
   <g id="patch_179">
    <path d="M 1089.407308 180.833644 
L 1186.786045 180.833644 
L 1186.786045 178.740891 
L 1089.407308 178.740891 
z
" clip-path="url(#pea34f6dcf2)" style="fill: #9467bd"/>
   </g>
   <g id="patch_180">
    <path d="M 1211.130729 173.559018 
L 1308.509466 173.559018 
L 1308.509466 171.217043 
L 1211.130729 171.217043 
z
" clip-path="url(#pea34f6dcf2)" style="fill: #9467bd"/>
   </g>
   <g id="patch_181">
    <path d="M 1332.85415 197.825477 
L 1430.232886 197.825477 
L 1430.232886 196.282319 
L 1332.85415 196.282319 
z
" clip-path="url(#pea34f6dcf2)" style="fill: #9467bd"/>
   </g>
   <g id="patch_182">
    <path d="M 1454.57757 187.5699 
L 1551.956307 187.5699 
L 1551.956307 185.653659 
L 1454.57757 185.653659 
z
" clip-path="url(#pea34f6dcf2)" style="fill: #9467bd"/>
   </g>
   <g id="patch_183">
    <path d="M 115.619943 186.340084 
L 212.99868 186.340084 
L 212.99868 103.641594 
L 115.619943 103.641594 
z
" clip-path="url(#pea34f6dcf2)" style="fill: #8c564b"/>
   </g>
   <g id="patch_184">
    <path d="M 237.343364 179.769951 
L 334.7221 179.769951 
L 334.7221 87.351319 
L 237.343364 87.351319 
z
" clip-path="url(#pea34f6dcf2)" style="fill: #8c564b"/>
   </g>
   <g id="patch_185">
    <path d="M 359.066784 171.047584 
L 456.445521 171.047584 
L 456.445521 65.781029 
L 359.066784 65.781029 
z
" clip-path="url(#pea34f6dcf2)" style="fill: #8c564b"/>
   </g>
   <g id="patch_186">
    <path d="M 480.790205 163.149904 
L 578.168942 163.149904 
L 578.168942 46.136 
L 480.790205 46.136 
z
" clip-path="url(#pea34f6dcf2)" style="fill: #8c564b"/>
   </g>
   <g id="patch_187">
    <path d="M 602.513626 190.478951 
L 699.892362 190.478951 
L 699.892362 113.604279 
L 602.513626 113.604279 
z
" clip-path="url(#pea34f6dcf2)" style="fill: #8c564b"/>
   </g>
   <g id="patch_188">
    <path d="M 724.237046 180.000256 
L 821.615783 180.000256 
L 821.615783 87.209166 
L 724.237046 87.209166 
z
" clip-path="url(#pea34f6dcf2)" style="fill: #8c564b"/>
   </g>
   <g id="patch_189">
    <path d="M 845.960467 193.418025 
L 943.339204 193.418025 
L 943.339204 119.017589 
L 845.960467 119.017589 
z
" clip-path="url(#pea34f6dcf2)" style="fill: #8c564b"/>
   </g>
   <g id="patch_190">
    <path d="M 967.683888 187.388967 
L 1065.062624 187.388967 
L 1065.062624 103.914723 
L 967.683888 103.914723 
z
" clip-path="url(#pea34f6dcf2)" style="fill: #8c564b"/>
   </g>
   <g id="patch_191">
    <path d="M 1089.407308 178.740891 
L 1186.786045 178.740891 
L 1186.786045 82.300765 
L 1089.407308 82.300765 
z
" clip-path="url(#pea34f6dcf2)" style="fill: #8c564b"/>
   </g>
   <g id="patch_192">
    <path d="M 1211.130729 171.217043 
L 1308.509466 171.217043 
L 1308.509466 63.427734 
L 1211.130729 63.427734 
z
" clip-path="url(#pea34f6dcf2)" style="fill: #8c564b"/>
   </g>
   <g id="patch_193">
    <path d="M 1332.85415 196.282319 
L 1430.232886 196.282319 
L 1430.232886 127.229331 
L 1332.85415 127.229331 
z
" clip-path="url(#pea34f6dcf2)" style="fill: #8c564b"/>
   </g>
   <g id="patch_194">
    <path d="M 1454.57757 185.653659 
L 1551.956307 185.653659 
L 1551.956307 100.321601 
L 1454.57757 100.321601 
z
" clip-path="url(#pea34f6dcf2)" style="fill: #8c564b"/>
   </g>
   <g id="matplotlib.axis_1">
    <g id="xtick_1">
     <g id="line2d_1">
      <defs>
       <path id="m53596b950c" d="M 0 0 
L 0 3.5 
" style="stroke: #000000; stroke-width: 0.8"/>
      </defs>
      <g>
       <use xlink:href="#m53596b950c" x="164.309311" y="242.456" style="stroke: #000000; stroke-width: 0.8"/>
      </g>
     </g>
     <g id="text_1">
      <!-- flight -->
      <g transform="translate(151.467905 257.054437) scale(0.1 -0.1)">
       <defs>
        <path id="DejaVuSans-66" d="M 2375 4863 
L 2375 4384 
L 1825 4384 
Q 1516 4384 1395 4259 
Q 1275 4134 1275 3809 
L 1275 3500 
L 2222 3500 
L 2222 3053 
L 1275 3053 
L 1275 0 
L 697 0 
L 697 3053 
L 147 3053 
L 147 3500 
L 697 3500 
L 697 3744 
Q 697 4328 969 4595 
Q 1241 4863 1831 4863 
L 2375 4863 
z
" transform="scale(0.015625)"/>
        <path id="DejaVuSans-6c" d="M 603 4863 
L 1178 4863 
L 1178 0 
L 603 0 
L 603 4863 
z
" transform="scale(0.015625)"/>
        <path id="DejaVuSans-69" d="M 603 3500 
L 1178 3500 
L 1178 0 
L 603 0 
L 603 3500 
z
M 603 4863 
L 1178 4863 
L 1178 4134 
L 603 4134 
L 603 4863 
z
" transform="scale(0.015625)"/>
        <path id="DejaVuSans-67" d="M 2906 1791 
Q 2906 2416 2648 2759 
Q 2391 3103 1925 3103 
Q 1463 3103 1205 2759 
Q 947 2416 947 1791 
Q 947 1169 1205 825 
Q 1463 481 1925 481 
Q 2391 481 2648 825 
Q 2906 1169 2906 1791 
z
M 3481 434 
Q 3481 -459 3084 -895 
Q 2688 -1331 1869 -1331 
Q 1566 -1331 1297 -1286 
Q 1028 -1241 775 -1147 
L 775 -588 
Q 1028 -725 1275 -790 
Q 1522 -856 1778 -856 
Q 2344 -856 2625 -561 
Q 2906 -266 2906 331 
L 2906 616 
Q 2728 306 2450 153 
Q 2172 0 1784 0 
Q 1141 0 747 490 
Q 353 981 353 1791 
Q 353 2603 747 3093 
Q 1141 3584 1784 3584 
Q 2172 3584 2450 3431 
Q 2728 3278 2906 2969 
L 2906 3500 
L 3481 3500 
L 3481 434 
z
" transform="scale(0.015625)"/>
        <path id="DejaVuSans-68" d="M 3513 2113 
L 3513 0 
L 2938 0 
L 2938 2094 
Q 2938 2591 2744 2837 
Q 2550 3084 2163 3084 
Q 1697 3084 1428 2787 
Q 1159 2491 1159 1978 
L 1159 0 
L 581 0 
L 581 4863 
L 1159 4863 
L 1159 2956 
Q 1366 3272 1645 3428 
Q 1925 3584 2291 3584 
Q 2894 3584 3203 3211 
Q 3513 2838 3513 2113 
z
" transform="scale(0.015625)"/>
        <path id="DejaVuSans-74" d="M 1172 4494 
L 1172 3500 
L 2356 3500 
L 2356 3053 
L 1172 3053 
L 1172 1153 
Q 1172 725 1289 603 
Q 1406 481 1766 481 
L 2356 481 
L 2356 0 
L 1766 0 
Q 1100 0 847 248 
Q 594 497 594 1153 
L 594 3053 
L 172 3053 
L 172 3500 
L 594 3500 
L 594 4494 
L 1172 4494 
z
" transform="scale(0.015625)"/>
       </defs>
       <use xlink:href="#DejaVuSans-66"/>
       <use xlink:href="#DejaVuSans-6c" x="35.205078"/>
       <use xlink:href="#DejaVuSans-69" x="62.988281"/>
       <use xlink:href="#DejaVuSans-67" x="90.771484"/>
       <use xlink:href="#DejaVuSans-68" x="154.248047"/>
       <use xlink:href="#DejaVuSans-74" x="217.626953"/>
      </g>
      <!-- myclimate-ECO. -->
      <g transform="translate(124.201499 268.25225) scale(0.1 -0.1)">
       <defs>
        <path id="DejaVuSans-6d" d="M 3328 2828 
Q 3544 3216 3844 3400 
Q 4144 3584 4550 3584 
Q 5097 3584 5394 3201 
Q 5691 2819 5691 2113 
L 5691 0 
L 5113 0 
L 5113 2094 
Q 5113 2597 4934 2840 
Q 4756 3084 4391 3084 
Q 3944 3084 3684 2787 
Q 3425 2491 3425 1978 
L 3425 0 
L 2847 0 
L 2847 2094 
Q 2847 2600 2669 2842 
Q 2491 3084 2119 3084 
Q 1678 3084 1418 2786 
Q 1159 2488 1159 1978 
L 1159 0 
L 581 0 
L 581 3500 
L 1159 3500 
L 1159 2956 
Q 1356 3278 1631 3431 
Q 1906 3584 2284 3584 
Q 2666 3584 2933 3390 
Q 3200 3197 3328 2828 
z
" transform="scale(0.015625)"/>
        <path id="DejaVuSans-79" d="M 2059 -325 
Q 1816 -950 1584 -1140 
Q 1353 -1331 966 -1331 
L 506 -1331 
L 506 -850 
L 844 -850 
Q 1081 -850 1212 -737 
Q 1344 -625 1503 -206 
L 1606 56 
L 191 3500 
L 800 3500 
L 1894 763 
L 2988 3500 
L 3597 3500 
L 2059 -325 
z
" transform="scale(0.015625)"/>
        <path id="DejaVuSans-63" d="M 3122 3366 
L 3122 2828 
Q 2878 2963 2633 3030 
Q 2388 3097 2138 3097 
Q 1578 3097 1268 2742 
Q 959 2388 959 1747 
Q 959 1106 1268 751 
Q 1578 397 2138 397 
Q 2388 397 2633 464 
Q 2878 531 3122 666 
L 3122 134 
Q 2881 22 2623 -34 
Q 2366 -91 2075 -91 
Q 1284 -91 818 406 
Q 353 903 353 1747 
Q 353 2603 823 3093 
Q 1294 3584 2113 3584 
Q 2378 3584 2631 3529 
Q 2884 3475 3122 3366 
z
" transform="scale(0.015625)"/>
        <path id="DejaVuSans-61" d="M 2194 1759 
Q 1497 1759 1228 1600 
Q 959 1441 959 1056 
Q 959 750 1161 570 
Q 1363 391 1709 391 
Q 2188 391 2477 730 
Q 2766 1069 2766 1631 
L 2766 1759 
L 2194 1759 
z
M 3341 1997 
L 3341 0 
L 2766 0 
L 2766 531 
Q 2569 213 2275 61 
Q 1981 -91 1556 -91 
Q 1019 -91 701 211 
Q 384 513 384 1019 
Q 384 1609 779 1909 
Q 1175 2209 1959 2209 
L 2766 2209 
L 2766 2266 
Q 2766 2663 2505 2880 
Q 2244 3097 1772 3097 
Q 1472 3097 1187 3025 
Q 903 2953 641 2809 
L 641 3341 
Q 956 3463 1253 3523 
Q 1550 3584 1831 3584 
Q 2591 3584 2966 3190 
Q 3341 2797 3341 1997 
z
" transform="scale(0.015625)"/>
        <path id="DejaVuSans-65" d="M 3597 1894 
L 3597 1613 
L 953 1613 
Q 991 1019 1311 708 
Q 1631 397 2203 397 
Q 2534 397 2845 478 
Q 3156 559 3463 722 
L 3463 178 
Q 3153 47 2828 -22 
Q 2503 -91 2169 -91 
Q 1331 -91 842 396 
Q 353 884 353 1716 
Q 353 2575 817 3079 
Q 1281 3584 2069 3584 
Q 2775 3584 3186 3129 
Q 3597 2675 3597 1894 
z
M 3022 2063 
Q 3016 2534 2758 2815 
Q 2500 3097 2075 3097 
Q 1594 3097 1305 2825 
Q 1016 2553 972 2059 
L 3022 2063 
z
" transform="scale(0.015625)"/>
        <path id="DejaVuSans-2d" d="M 313 2009 
L 1997 2009 
L 1997 1497 
L 313 1497 
L 313 2009 
z
" transform="scale(0.015625)"/>
        <path id="DejaVuSans-45" d="M 628 4666 
L 3578 4666 
L 3578 4134 
L 1259 4134 
L 1259 2753 
L 3481 2753 
L 3481 2222 
L 1259 2222 
L 1259 531 
L 3634 531 
L 3634 0 
L 628 0 
L 628 4666 
z
" transform="scale(0.015625)"/>
        <path id="DejaVuSans-43" d="M 4122 4306 
L 4122 3641 
Q 3803 3938 3442 4084 
Q 3081 4231 2675 4231 
Q 1875 4231 1450 3742 
Q 1025 3253 1025 2328 
Q 1025 1406 1450 917 
Q 1875 428 2675 428 
Q 3081 428 3442 575 
Q 3803 722 4122 1019 
L 4122 359 
Q 3791 134 3420 21 
Q 3050 -91 2638 -91 
Q 1578 -91 968 557 
Q 359 1206 359 2328 
Q 359 3453 968 4101 
Q 1578 4750 2638 4750 
Q 3056 4750 3426 4639 
Q 3797 4528 4122 4306 
z
" transform="scale(0.015625)"/>
        <path id="DejaVuSans-4f" d="M 2522 4238 
Q 1834 4238 1429 3725 
Q 1025 3213 1025 2328 
Q 1025 1447 1429 934 
Q 1834 422 2522 422 
Q 3209 422 3611 934 
Q 4013 1447 4013 2328 
Q 4013 3213 3611 3725 
Q 3209 4238 2522 4238 
z
M 2522 4750 
Q 3503 4750 4090 4092 
Q 4678 3434 4678 2328 
Q 4678 1225 4090 567 
Q 3503 -91 2522 -91 
Q 1538 -91 948 565 
Q 359 1222 359 2328 
Q 359 3434 948 4092 
Q 1538 4750 2522 4750 
z
" transform="scale(0.015625)"/>
        <path id="DejaVuSans-2e" d="M 684 794 
L 1344 794 
L 1344 0 
L 684 0 
L 684 794 
z
" transform="scale(0.015625)"/>
       </defs>
       <use xlink:href="#DejaVuSans-6d"/>
       <use xlink:href="#DejaVuSans-79" x="97.412109"/>
       <use xlink:href="#DejaVuSans-63" x="156.591797"/>
       <use xlink:href="#DejaVuSans-6c" x="211.572266"/>
       <use xlink:href="#DejaVuSans-69" x="239.355469"/>
       <use xlink:href="#DejaVuSans-6d" x="267.138672"/>
       <use xlink:href="#DejaVuSans-61" x="364.550781"/>
       <use xlink:href="#DejaVuSans-74" x="425.830078"/>
       <use xlink:href="#DejaVuSans-65" x="465.039062"/>
       <use xlink:href="#DejaVuSans-2d" x="526.5625"/>
       <use xlink:href="#DejaVuSans-45" x="562.646484"/>
       <use xlink:href="#DejaVuSans-43" x="625.830078"/>
       <use xlink:href="#DejaVuSans-4f" x="695.654297"/>
       <use xlink:href="#DejaVuSans-2e" x="770.365234"/>
      </g>
     </g>
    </g>
    <g id="xtick_2">
     <g id="line2d_2">
      <g>
       <use xlink:href="#m53596b950c" x="286.032732" y="242.456" style="stroke: #000000; stroke-width: 0.8"/>
      </g>
     </g>
     <g id="text_2">
      <!-- flight -->
      <g transform="translate(273.191326 257.054437) scale(0.1 -0.1)">
       <use xlink:href="#DejaVuSans-66"/>
       <use xlink:href="#DejaVuSans-6c" x="35.205078"/>
       <use xlink:href="#DejaVuSans-69" x="62.988281"/>
       <use xlink:href="#DejaVuSans-67" x="90.771484"/>
       <use xlink:href="#DejaVuSans-68" x="154.248047"/>
       <use xlink:href="#DejaVuSans-74" x="217.626953"/>
      </g>
      <!-- myclimate-AVE. -->
      <g transform="translate(246.742888 268.25225) scale(0.1 -0.1)">
       <defs>
        <path id="DejaVuSans-41" d="M 2188 4044 
L 1331 1722 
L 3047 1722 
L 2188 4044 
z
M 1831 4666 
L 2547 4666 
L 4325 0 
L 3669 0 
L 3244 1197 
L 1141 1197 
L 716 0 
L 50 0 
L 1831 4666 
z
" transform="scale(0.015625)"/>
        <path id="DejaVuSans-56" d="M 1831 0 
L 50 4666 
L 709 4666 
L 2188 738 
L 3669 4666 
L 4325 4666 
L 2547 0 
L 1831 0 
z
" transform="scale(0.015625)"/>
       </defs>
       <use xlink:href="#DejaVuSans-6d"/>
       <use xlink:href="#DejaVuSans-79" x="97.412109"/>
       <use xlink:href="#DejaVuSans-63" x="156.591797"/>
       <use xlink:href="#DejaVuSans-6c" x="211.572266"/>
       <use xlink:href="#DejaVuSans-69" x="239.355469"/>
       <use xlink:href="#DejaVuSans-6d" x="267.138672"/>
       <use xlink:href="#DejaVuSans-61" x="364.550781"/>
       <use xlink:href="#DejaVuSans-74" x="425.830078"/>
       <use xlink:href="#DejaVuSans-65" x="465.039062"/>
       <use xlink:href="#DejaVuSans-2d" x="526.5625"/>
       <use xlink:href="#DejaVuSans-41" x="560.396484"/>
       <use xlink:href="#DejaVuSans-56" x="622.429688"/>
       <use xlink:href="#DejaVuSans-45" x="690.837891"/>
       <use xlink:href="#DejaVuSans-2e" x="754.021484"/>
      </g>
     </g>
    </g>
    <g id="xtick_3">
     <g id="line2d_3">
      <g>
       <use xlink:href="#m53596b950c" x="407.756153" y="242.456" style="stroke: #000000; stroke-width: 0.8"/>
      </g>
     </g>
     <g id="text_3">
      <!-- flight -->
      <g transform="translate(394.914746 257.054437) scale(0.1 -0.1)">
       <use xlink:href="#DejaVuSans-66"/>
       <use xlink:href="#DejaVuSans-6c" x="35.205078"/>
       <use xlink:href="#DejaVuSans-69" x="62.988281"/>
       <use xlink:href="#DejaVuSans-67" x="90.771484"/>
       <use xlink:href="#DejaVuSans-68" x="154.248047"/>
       <use xlink:href="#DejaVuSans-74" x="217.626953"/>
      </g>
      <!-- goclimate-ECO. -->
      <g transform="translate(369.244434 268.25225) scale(0.1 -0.1)">
       <defs>
        <path id="DejaVuSans-6f" d="M 1959 3097 
Q 1497 3097 1228 2736 
Q 959 2375 959 1747 
Q 959 1119 1226 758 
Q 1494 397 1959 397 
Q 2419 397 2687 759 
Q 2956 1122 2956 1747 
Q 2956 2369 2687 2733 
Q 2419 3097 1959 3097 
z
M 1959 3584 
Q 2709 3584 3137 3096 
Q 3566 2609 3566 1747 
Q 3566 888 3137 398 
Q 2709 -91 1959 -91 
Q 1206 -91 779 398 
Q 353 888 353 1747 
Q 353 2609 779 3096 
Q 1206 3584 1959 3584 
z
" transform="scale(0.015625)"/>
       </defs>
       <use xlink:href="#DejaVuSans-67"/>
       <use xlink:href="#DejaVuSans-6f" x="63.476562"/>
       <use xlink:href="#DejaVuSans-63" x="124.658203"/>
       <use xlink:href="#DejaVuSans-6c" x="179.638672"/>
       <use xlink:href="#DejaVuSans-69" x="207.421875"/>
       <use xlink:href="#DejaVuSans-6d" x="235.205078"/>
       <use xlink:href="#DejaVuSans-61" x="332.617188"/>
       <use xlink:href="#DejaVuSans-74" x="393.896484"/>
       <use xlink:href="#DejaVuSans-65" x="433.105469"/>
       <use xlink:href="#DejaVuSans-2d" x="494.628906"/>
       <use xlink:href="#DejaVuSans-45" x="530.712891"/>
       <use xlink:href="#DejaVuSans-43" x="593.896484"/>
       <use xlink:href="#DejaVuSans-4f" x="663.720703"/>
       <use xlink:href="#DejaVuSans-2e" x="738.431641"/>
      </g>
     </g>
    </g>
    <g id="xtick_4">
     <g id="line2d_4">
      <g>
       <use xlink:href="#m53596b950c" x="529.479573" y="242.456" style="stroke: #000000; stroke-width: 0.8"/>
      </g>
     </g>
     <g id="text_4">
      <!-- flight -->
      <g transform="translate(516.638167 257.054437) scale(0.1 -0.1)">
       <use xlink:href="#DejaVuSans-66"/>
       <use xlink:href="#DejaVuSans-6c" x="35.205078"/>
       <use xlink:href="#DejaVuSans-69" x="62.988281"/>
       <use xlink:href="#DejaVuSans-67" x="90.771484"/>
       <use xlink:href="#DejaVuSans-68" x="154.248047"/>
       <use xlink:href="#DejaVuSans-74" x="217.626953"/>
      </g>
      <!-- goclimate-AVE. -->
      <g transform="translate(491.785823 268.25225) scale(0.1 -0.1)">
       <use xlink:href="#DejaVuSans-67"/>
       <use xlink:href="#DejaVuSans-6f" x="63.476562"/>
       <use xlink:href="#DejaVuSans-63" x="124.658203"/>
       <use xlink:href="#DejaVuSans-6c" x="179.638672"/>
       <use xlink:href="#DejaVuSans-69" x="207.421875"/>
       <use xlink:href="#DejaVuSans-6d" x="235.205078"/>
       <use xlink:href="#DejaVuSans-61" x="332.617188"/>
       <use xlink:href="#DejaVuSans-74" x="393.896484"/>
       <use xlink:href="#DejaVuSans-65" x="433.105469"/>
       <use xlink:href="#DejaVuSans-2d" x="494.628906"/>
       <use xlink:href="#DejaVuSans-41" x="528.462891"/>
       <use xlink:href="#DejaVuSans-56" x="590.496094"/>
       <use xlink:href="#DejaVuSans-45" x="658.904297"/>
       <use xlink:href="#DejaVuSans-2e" x="722.087891"/>
      </g>
     </g>
    </g>
    <g id="xtick_5">
     <g id="line2d_5">
      <g>
       <use xlink:href="#m53596b950c" x="651.202994" y="242.456" style="stroke: #000000; stroke-width: 0.8"/>
      </g>
     </g>
     <g id="text_5">
      <!-- flight -->
      <g transform="translate(638.361588 257.054437) scale(0.1 -0.1)">
       <use xlink:href="#DejaVuSans-66"/>
       <use xlink:href="#DejaVuSans-6c" x="35.205078"/>
       <use xlink:href="#DejaVuSans-69" x="62.988281"/>
       <use xlink:href="#DejaVuSans-67" x="90.771484"/>
       <use xlink:href="#DejaVuSans-68" x="154.248047"/>
       <use xlink:href="#DejaVuSans-74" x="217.626953"/>
      </g>
      <!-- ukgov-ECO. -->
      <g transform="translate(622.297525 268.25225) scale(0.1 -0.1)">
       <defs>
        <path id="DejaVuSans-75" d="M 544 1381 
L 544 3500 
L 1119 3500 
L 1119 1403 
Q 1119 906 1312 657 
Q 1506 409 1894 409 
Q 2359 409 2629 706 
Q 2900 1003 2900 1516 
L 2900 3500 
L 3475 3500 
L 3475 0 
L 2900 0 
L 2900 538 
Q 2691 219 2414 64 
Q 2138 -91 1772 -91 
Q 1169 -91 856 284 
Q 544 659 544 1381 
z
M 1991 3584 
L 1991 3584 
z
" transform="scale(0.015625)"/>
        <path id="DejaVuSans-6b" d="M 581 4863 
L 1159 4863 
L 1159 1991 
L 2875 3500 
L 3609 3500 
L 1753 1863 
L 3688 0 
L 2938 0 
L 1159 1709 
L 1159 0 
L 581 0 
L 581 4863 
z
" transform="scale(0.015625)"/>
        <path id="DejaVuSans-76" d="M 191 3500 
L 800 3500 
L 1894 563 
L 2988 3500 
L 3597 3500 
L 2284 0 
L 1503 0 
L 191 3500 
z
" transform="scale(0.015625)"/>
       </defs>
       <use xlink:href="#DejaVuSans-75"/>
       <use xlink:href="#DejaVuSans-6b" x="63.378906"/>
       <use xlink:href="#DejaVuSans-67" x="121.289062"/>
       <use xlink:href="#DejaVuSans-6f" x="184.765625"/>
       <use xlink:href="#DejaVuSans-76" x="245.947266"/>
       <use xlink:href="#DejaVuSans-2d" x="302.501953"/>
       <use xlink:href="#DejaVuSans-45" x="338.585938"/>
       <use xlink:href="#DejaVuSans-43" x="401.769531"/>
       <use xlink:href="#DejaVuSans-4f" x="471.59375"/>
       <use xlink:href="#DejaVuSans-2e" x="546.304688"/>
      </g>
     </g>
    </g>
    <g id="xtick_6">
     <g id="line2d_6">
      <g>
       <use xlink:href="#m53596b950c" x="772.926415" y="242.456" style="stroke: #000000; stroke-width: 0.8"/>
      </g>
     </g>
     <g id="text_6">
      <!-- flight -->
      <g transform="translate(760.085008 257.054437) scale(0.1 -0.1)">
       <use xlink:href="#DejaVuSans-66"/>
       <use xlink:href="#DejaVuSans-6c" x="35.205078"/>
       <use xlink:href="#DejaVuSans-69" x="62.988281"/>
       <use xlink:href="#DejaVuSans-67" x="90.771484"/>
       <use xlink:href="#DejaVuSans-68" x="154.248047"/>
       <use xlink:href="#DejaVuSans-74" x="217.626953"/>
      </g>
      <!-- ukgov-AVE. -->
      <g transform="translate(744.838915 268.25225) scale(0.1 -0.1)">
       <use xlink:href="#DejaVuSans-75"/>
       <use xlink:href="#DejaVuSans-6b" x="63.378906"/>
       <use xlink:href="#DejaVuSans-67" x="121.289062"/>
       <use xlink:href="#DejaVuSans-6f" x="184.765625"/>
       <use xlink:href="#DejaVuSans-76" x="245.947266"/>
       <use xlink:href="#DejaVuSans-2d" x="302.501953"/>
       <use xlink:href="#DejaVuSans-41" x="336.335938"/>
       <use xlink:href="#DejaVuSans-56" x="398.369141"/>
       <use xlink:href="#DejaVuSans-45" x="466.777344"/>
       <use xlink:href="#DejaVuSans-2e" x="529.960938"/>
      </g>
     </g>
    </g>
    <g id="xtick_7">
     <g id="line2d_7">
      <g>
       <use xlink:href="#m53596b950c" x="894.649835" y="242.456" style="stroke: #000000; stroke-width: 0.8"/>
      </g>
     </g>
     <g id="text_7">
      <!-- distance -->
      <g transform="translate(873.463117 257.054437) scale(0.1 -0.1)">
       <defs>
        <path id="DejaVuSans-64" d="M 2906 2969 
L 2906 4863 
L 3481 4863 
L 3481 0 
L 2906 0 
L 2906 525 
Q 2725 213 2448 61 
Q 2172 -91 1784 -91 
Q 1150 -91 751 415 
Q 353 922 353 1747 
Q 353 2572 751 3078 
Q 1150 3584 1784 3584 
Q 2172 3584 2448 3432 
Q 2725 3281 2906 2969 
z
M 947 1747 
Q 947 1113 1208 752 
Q 1469 391 1925 391 
Q 2381 391 2643 752 
Q 2906 1113 2906 1747 
Q 2906 2381 2643 2742 
Q 2381 3103 1925 3103 
Q 1469 3103 1208 2742 
Q 947 2381 947 1747 
z
" transform="scale(0.015625)"/>
        <path id="DejaVuSans-73" d="M 2834 3397 
L 2834 2853 
Q 2591 2978 2328 3040 
Q 2066 3103 1784 3103 
Q 1356 3103 1142 2972 
Q 928 2841 928 2578 
Q 928 2378 1081 2264 
Q 1234 2150 1697 2047 
L 1894 2003 
Q 2506 1872 2764 1633 
Q 3022 1394 3022 966 
Q 3022 478 2636 193 
Q 2250 -91 1575 -91 
Q 1294 -91 989 -36 
Q 684 19 347 128 
L 347 722 
Q 666 556 975 473 
Q 1284 391 1588 391 
Q 1994 391 2212 530 
Q 2431 669 2431 922 
Q 2431 1156 2273 1281 
Q 2116 1406 1581 1522 
L 1381 1569 
Q 847 1681 609 1914 
Q 372 2147 372 2553 
Q 372 3047 722 3315 
Q 1072 3584 1716 3584 
Q 2034 3584 2315 3537 
Q 2597 3491 2834 3397 
z
" transform="scale(0.015625)"/>
        <path id="DejaVuSans-6e" d="M 3513 2113 
L 3513 0 
L 2938 0 
L 2938 2094 
Q 2938 2591 2744 2837 
Q 2550 3084 2163 3084 
Q 1697 3084 1428 2787 
Q 1159 2491 1159 1978 
L 1159 0 
L 581 0 
L 581 3500 
L 1159 3500 
L 1159 2956 
Q 1366 3272 1645 3428 
Q 1925 3584 2291 3584 
Q 2894 3584 3203 3211 
Q 3513 2838 3513 2113 
z
" transform="scale(0.015625)"/>
       </defs>
       <use xlink:href="#DejaVuSans-64"/>
       <use xlink:href="#DejaVuSans-69" x="63.476562"/>
       <use xlink:href="#DejaVuSans-73" x="91.259766"/>
       <use xlink:href="#DejaVuSans-74" x="143.359375"/>
       <use xlink:href="#DejaVuSans-61" x="182.568359"/>
       <use xlink:href="#DejaVuSans-6e" x="243.847656"/>
       <use xlink:href="#DejaVuSans-63" x="307.226562"/>
       <use xlink:href="#DejaVuSans-65" x="362.207031"/>
      </g>
      <!-- myclimate-ECO. -->
      <g transform="translate(854.542023 268.25225) scale(0.1 -0.1)">
       <use xlink:href="#DejaVuSans-6d"/>
       <use xlink:href="#DejaVuSans-79" x="97.412109"/>
       <use xlink:href="#DejaVuSans-63" x="156.591797"/>
       <use xlink:href="#DejaVuSans-6c" x="211.572266"/>
       <use xlink:href="#DejaVuSans-69" x="239.355469"/>
       <use xlink:href="#DejaVuSans-6d" x="267.138672"/>
       <use xlink:href="#DejaVuSans-61" x="364.550781"/>
       <use xlink:href="#DejaVuSans-74" x="425.830078"/>
       <use xlink:href="#DejaVuSans-65" x="465.039062"/>
       <use xlink:href="#DejaVuSans-2d" x="526.5625"/>
       <use xlink:href="#DejaVuSans-45" x="562.646484"/>
       <use xlink:href="#DejaVuSans-43" x="625.830078"/>
       <use xlink:href="#DejaVuSans-4f" x="695.654297"/>
       <use xlink:href="#DejaVuSans-2e" x="770.365234"/>
      </g>
     </g>
    </g>
    <g id="xtick_8">
     <g id="line2d_8">
      <g>
       <use xlink:href="#m53596b950c" x="1016.373256" y="242.456" style="stroke: #000000; stroke-width: 0.8"/>
      </g>
     </g>
     <g id="text_8">
      <!-- distance -->
      <g transform="translate(995.186537 257.054437) scale(0.1 -0.1)">
       <use xlink:href="#DejaVuSans-64"/>
       <use xlink:href="#DejaVuSans-69" x="63.476562"/>
       <use xlink:href="#DejaVuSans-73" x="91.259766"/>
       <use xlink:href="#DejaVuSans-74" x="143.359375"/>
       <use xlink:href="#DejaVuSans-61" x="182.568359"/>
       <use xlink:href="#DejaVuSans-6e" x="243.847656"/>
       <use xlink:href="#DejaVuSans-63" x="307.226562"/>
       <use xlink:href="#DejaVuSans-65" x="362.207031"/>
      </g>
      <!-- myclimate-AVE. -->
      <g transform="translate(977.083412 268.25225) scale(0.1 -0.1)">
       <use xlink:href="#DejaVuSans-6d"/>
       <use xlink:href="#DejaVuSans-79" x="97.412109"/>
       <use xlink:href="#DejaVuSans-63" x="156.591797"/>
       <use xlink:href="#DejaVuSans-6c" x="211.572266"/>
       <use xlink:href="#DejaVuSans-69" x="239.355469"/>
       <use xlink:href="#DejaVuSans-6d" x="267.138672"/>
       <use xlink:href="#DejaVuSans-61" x="364.550781"/>
       <use xlink:href="#DejaVuSans-74" x="425.830078"/>
       <use xlink:href="#DejaVuSans-65" x="465.039062"/>
       <use xlink:href="#DejaVuSans-2d" x="526.5625"/>
       <use xlink:href="#DejaVuSans-41" x="560.396484"/>
       <use xlink:href="#DejaVuSans-56" x="622.429688"/>
       <use xlink:href="#DejaVuSans-45" x="690.837891"/>
       <use xlink:href="#DejaVuSans-2e" x="754.021484"/>
      </g>
     </g>
    </g>
    <g id="xtick_9">
     <g id="line2d_9">
      <g>
       <use xlink:href="#m53596b950c" x="1138.096677" y="242.456" style="stroke: #000000; stroke-width: 0.8"/>
      </g>
     </g>
     <g id="text_9">
      <!-- distance -->
      <g transform="translate(1116.909958 257.054437) scale(0.1 -0.1)">
       <use xlink:href="#DejaVuSans-64"/>
       <use xlink:href="#DejaVuSans-69" x="63.476562"/>
       <use xlink:href="#DejaVuSans-73" x="91.259766"/>
       <use xlink:href="#DejaVuSans-74" x="143.359375"/>
       <use xlink:href="#DejaVuSans-61" x="182.568359"/>
       <use xlink:href="#DejaVuSans-6e" x="243.847656"/>
       <use xlink:href="#DejaVuSans-63" x="307.226562"/>
       <use xlink:href="#DejaVuSans-65" x="362.207031"/>
      </g>
      <!-- goclimate-ECO. -->
      <g transform="translate(1099.584958 268.25225) scale(0.1 -0.1)">
       <use xlink:href="#DejaVuSans-67"/>
       <use xlink:href="#DejaVuSans-6f" x="63.476562"/>
       <use xlink:href="#DejaVuSans-63" x="124.658203"/>
       <use xlink:href="#DejaVuSans-6c" x="179.638672"/>
       <use xlink:href="#DejaVuSans-69" x="207.421875"/>
       <use xlink:href="#DejaVuSans-6d" x="235.205078"/>
       <use xlink:href="#DejaVuSans-61" x="332.617188"/>
       <use xlink:href="#DejaVuSans-74" x="393.896484"/>
       <use xlink:href="#DejaVuSans-65" x="433.105469"/>
       <use xlink:href="#DejaVuSans-2d" x="494.628906"/>
       <use xlink:href="#DejaVuSans-45" x="530.712891"/>
       <use xlink:href="#DejaVuSans-43" x="593.896484"/>
       <use xlink:href="#DejaVuSans-4f" x="663.720703"/>
       <use xlink:href="#DejaVuSans-2e" x="738.431641"/>
      </g>
     </g>
    </g>
    <g id="xtick_10">
     <g id="line2d_10">
      <g>
       <use xlink:href="#m53596b950c" x="1259.820097" y="242.456" style="stroke: #000000; stroke-width: 0.8"/>
      </g>
     </g>
     <g id="text_10">
      <!-- distance -->
      <g transform="translate(1238.633379 257.054437) scale(0.1 -0.1)">
       <use xlink:href="#DejaVuSans-64"/>
       <use xlink:href="#DejaVuSans-69" x="63.476562"/>
       <use xlink:href="#DejaVuSans-73" x="91.259766"/>
       <use xlink:href="#DejaVuSans-74" x="143.359375"/>
       <use xlink:href="#DejaVuSans-61" x="182.568359"/>
       <use xlink:href="#DejaVuSans-6e" x="243.847656"/>
       <use xlink:href="#DejaVuSans-63" x="307.226562"/>
       <use xlink:href="#DejaVuSans-65" x="362.207031"/>
      </g>
      <!-- goclimate-AVE. -->
      <g transform="translate(1222.126347 268.25225) scale(0.1 -0.1)">
       <use xlink:href="#DejaVuSans-67"/>
       <use xlink:href="#DejaVuSans-6f" x="63.476562"/>
       <use xlink:href="#DejaVuSans-63" x="124.658203"/>
       <use xlink:href="#DejaVuSans-6c" x="179.638672"/>
       <use xlink:href="#DejaVuSans-69" x="207.421875"/>
       <use xlink:href="#DejaVuSans-6d" x="235.205078"/>
       <use xlink:href="#DejaVuSans-61" x="332.617188"/>
       <use xlink:href="#DejaVuSans-74" x="393.896484"/>
       <use xlink:href="#DejaVuSans-65" x="433.105469"/>
       <use xlink:href="#DejaVuSans-2d" x="494.628906"/>
       <use xlink:href="#DejaVuSans-41" x="528.462891"/>
       <use xlink:href="#DejaVuSans-56" x="590.496094"/>
       <use xlink:href="#DejaVuSans-45" x="658.904297"/>
       <use xlink:href="#DejaVuSans-2e" x="722.087891"/>
      </g>
     </g>
    </g>
    <g id="xtick_11">
     <g id="line2d_11">
      <g>
       <use xlink:href="#m53596b950c" x="1381.543518" y="242.456" style="stroke: #000000; stroke-width: 0.8"/>
      </g>
     </g>
     <g id="text_11">
      <!-- distance -->
      <g transform="translate(1360.356799 257.054437) scale(0.1 -0.1)">
       <use xlink:href="#DejaVuSans-64"/>
       <use xlink:href="#DejaVuSans-69" x="63.476562"/>
       <use xlink:href="#DejaVuSans-73" x="91.259766"/>
       <use xlink:href="#DejaVuSans-74" x="143.359375"/>
       <use xlink:href="#DejaVuSans-61" x="182.568359"/>
       <use xlink:href="#DejaVuSans-6e" x="243.847656"/>
       <use xlink:href="#DejaVuSans-63" x="307.226562"/>
       <use xlink:href="#DejaVuSans-65" x="362.207031"/>
      </g>
      <!-- ukgov-ECO. -->
      <g transform="translate(1352.638049 268.25225) scale(0.1 -0.1)">
       <use xlink:href="#DejaVuSans-75"/>
       <use xlink:href="#DejaVuSans-6b" x="63.378906"/>
       <use xlink:href="#DejaVuSans-67" x="121.289062"/>
       <use xlink:href="#DejaVuSans-6f" x="184.765625"/>
       <use xlink:href="#DejaVuSans-76" x="245.947266"/>
       <use xlink:href="#DejaVuSans-2d" x="302.501953"/>
       <use xlink:href="#DejaVuSans-45" x="338.585938"/>
       <use xlink:href="#DejaVuSans-43" x="401.769531"/>
       <use xlink:href="#DejaVuSans-4f" x="471.59375"/>
       <use xlink:href="#DejaVuSans-2e" x="546.304688"/>
      </g>
     </g>
    </g>
    <g id="xtick_12">
     <g id="line2d_12">
      <g>
       <use xlink:href="#m53596b950c" x="1503.266939" y="242.456" style="stroke: #000000; stroke-width: 0.8"/>
      </g>
     </g>
     <g id="text_12">
      <!-- distance -->
      <g transform="translate(1482.08022 257.054437) scale(0.1 -0.1)">
       <use xlink:href="#DejaVuSans-64"/>
       <use xlink:href="#DejaVuSans-69" x="63.476562"/>
       <use xlink:href="#DejaVuSans-73" x="91.259766"/>
       <use xlink:href="#DejaVuSans-74" x="143.359375"/>
       <use xlink:href="#DejaVuSans-61" x="182.568359"/>
       <use xlink:href="#DejaVuSans-6e" x="243.847656"/>
       <use xlink:href="#DejaVuSans-63" x="307.226562"/>
       <use xlink:href="#DejaVuSans-65" x="362.207031"/>
      </g>
      <!-- ukgov-AVE. -->
      <g transform="translate(1475.179439 268.25225) scale(0.1 -0.1)">
       <use xlink:href="#DejaVuSans-75"/>
       <use xlink:href="#DejaVuSans-6b" x="63.378906"/>
       <use xlink:href="#DejaVuSans-67" x="121.289062"/>
       <use xlink:href="#DejaVuSans-6f" x="184.765625"/>
       <use xlink:href="#DejaVuSans-76" x="245.947266"/>
       <use xlink:href="#DejaVuSans-2d" x="302.501953"/>
       <use xlink:href="#DejaVuSans-41" x="336.335938"/>
       <use xlink:href="#DejaVuSans-56" x="398.369141"/>
       <use xlink:href="#DejaVuSans-45" x="466.777344"/>
       <use xlink:href="#DejaVuSans-2e" x="529.960938"/>
      </g>
     </g>
    </g>
   </g>
   <g id="matplotlib.axis_2">
    <g id="ytick_1">
     <g id="line2d_13">
      <defs>
       <path id="m22ca566c2a" d="M 0 0 
L -3.5 0 
" style="stroke: #000000; stroke-width: 0.8"/>
      </defs>
      <g>
       <use xlink:href="#m22ca566c2a" x="43.803125" y="242.456" style="stroke: #000000; stroke-width: 0.8"/>
      </g>
     </g>
     <g id="text_13">
      <!-- 0.0 -->
      <g transform="translate(20.9 246.255219) scale(0.1 -0.1)">
       <defs>
        <path id="DejaVuSans-30" d="M 2034 4250 
Q 1547 4250 1301 3770 
Q 1056 3291 1056 2328 
Q 1056 1369 1301 889 
Q 1547 409 2034 409 
Q 2525 409 2770 889 
Q 3016 1369 3016 2328 
Q 3016 3291 2770 3770 
Q 2525 4250 2034 4250 
z
M 2034 4750 
Q 2819 4750 3233 4129 
Q 3647 3509 3647 2328 
Q 3647 1150 3233 529 
Q 2819 -91 2034 -91 
Q 1250 -91 836 529 
Q 422 1150 422 2328 
Q 422 3509 836 4129 
Q 1250 4750 2034 4750 
z
" transform="scale(0.015625)"/>
       </defs>
       <use xlink:href="#DejaVuSans-30"/>
       <use xlink:href="#DejaVuSans-2e" x="63.623047"/>
       <use xlink:href="#DejaVuSans-30" x="95.410156"/>
      </g>
     </g>
    </g>
    <g id="ytick_2">
     <g id="line2d_14">
      <g>
       <use xlink:href="#m22ca566c2a" x="43.803125" y="215.347802" style="stroke: #000000; stroke-width: 0.8"/>
      </g>
     </g>
     <g id="text_14">
      <!-- 0.5 -->
      <g transform="translate(20.9 219.147021) scale(0.1 -0.1)">
       <defs>
        <path id="DejaVuSans-35" d="M 691 4666 
L 3169 4666 
L 3169 4134 
L 1269 4134 
L 1269 2991 
Q 1406 3038 1543 3061 
Q 1681 3084 1819 3084 
Q 2600 3084 3056 2656 
Q 3513 2228 3513 1497 
Q 3513 744 3044 326 
Q 2575 -91 1722 -91 
Q 1428 -91 1123 -41 
Q 819 9 494 109 
L 494 744 
Q 775 591 1075 516 
Q 1375 441 1709 441 
Q 2250 441 2565 725 
Q 2881 1009 2881 1497 
Q 2881 1984 2565 2268 
Q 2250 2553 1709 2553 
Q 1456 2553 1204 2497 
Q 953 2441 691 2322 
L 691 4666 
z
" transform="scale(0.015625)"/>
       </defs>
       <use xlink:href="#DejaVuSans-30"/>
       <use xlink:href="#DejaVuSans-2e" x="63.623047"/>
       <use xlink:href="#DejaVuSans-35" x="95.410156"/>
      </g>
     </g>
    </g>
    <g id="ytick_3">
     <g id="line2d_15">
      <g>
       <use xlink:href="#m22ca566c2a" x="43.803125" y="188.239604" style="stroke: #000000; stroke-width: 0.8"/>
      </g>
     </g>
     <g id="text_15">
      <!-- 1.0 -->
      <g transform="translate(20.9 192.038822) scale(0.1 -0.1)">
       <defs>
        <path id="DejaVuSans-31" d="M 794 531 
L 1825 531 
L 1825 4091 
L 703 3866 
L 703 4441 
L 1819 4666 
L 2450 4666 
L 2450 531 
L 3481 531 
L 3481 0 
L 794 0 
L 794 531 
z
" transform="scale(0.015625)"/>
       </defs>
       <use xlink:href="#DejaVuSans-31"/>
       <use xlink:href="#DejaVuSans-2e" x="63.623047"/>
       <use xlink:href="#DejaVuSans-30" x="95.410156"/>
      </g>
     </g>
    </g>
    <g id="ytick_4">
     <g id="line2d_16">
      <g>
       <use xlink:href="#m22ca566c2a" x="43.803125" y="161.131406" style="stroke: #000000; stroke-width: 0.8"/>
      </g>
     </g>
     <g id="text_16">
      <!-- 1.5 -->
      <g transform="translate(20.9 164.930624) scale(0.1 -0.1)">
       <use xlink:href="#DejaVuSans-31"/>
       <use xlink:href="#DejaVuSans-2e" x="63.623047"/>
       <use xlink:href="#DejaVuSans-35" x="95.410156"/>
      </g>
     </g>
    </g>
    <g id="ytick_5">
     <g id="line2d_17">
      <g>
       <use xlink:href="#m22ca566c2a" x="43.803125" y="134.023207" style="stroke: #000000; stroke-width: 0.8"/>
      </g>
     </g>
     <g id="text_17">
      <!-- 2.0 -->
      <g transform="translate(20.9 137.822426) scale(0.1 -0.1)">
       <defs>
        <path id="DejaVuSans-32" d="M 1228 531 
L 3431 531 
L 3431 0 
L 469 0 
L 469 531 
Q 828 903 1448 1529 
Q 2069 2156 2228 2338 
Q 2531 2678 2651 2914 
Q 2772 3150 2772 3378 
Q 2772 3750 2511 3984 
Q 2250 4219 1831 4219 
Q 1534 4219 1204 4116 
Q 875 4013 500 3803 
L 500 4441 
Q 881 4594 1212 4672 
Q 1544 4750 1819 4750 
Q 2544 4750 2975 4387 
Q 3406 4025 3406 3419 
Q 3406 3131 3298 2873 
Q 3191 2616 2906 2266 
Q 2828 2175 2409 1742 
Q 1991 1309 1228 531 
z
" transform="scale(0.015625)"/>
       </defs>
       <use xlink:href="#DejaVuSans-32"/>
       <use xlink:href="#DejaVuSans-2e" x="63.623047"/>
       <use xlink:href="#DejaVuSans-30" x="95.410156"/>
      </g>
     </g>
    </g>
    <g id="ytick_6">
     <g id="line2d_18">
      <g>
       <use xlink:href="#m22ca566c2a" x="43.803125" y="106.915009" style="stroke: #000000; stroke-width: 0.8"/>
      </g>
     </g>
     <g id="text_18">
      <!-- 2.5 -->
      <g transform="translate(20.9 110.714228) scale(0.1 -0.1)">
       <use xlink:href="#DejaVuSans-32"/>
       <use xlink:href="#DejaVuSans-2e" x="63.623047"/>
       <use xlink:href="#DejaVuSans-35" x="95.410156"/>
      </g>
     </g>
    </g>
    <g id="ytick_7">
     <g id="line2d_19">
      <g>
       <use xlink:href="#m22ca566c2a" x="43.803125" y="79.806811" style="stroke: #000000; stroke-width: 0.8"/>
      </g>
     </g>
     <g id="text_19">
      <!-- 3.0 -->
      <g transform="translate(20.9 83.60603) scale(0.1 -0.1)">
       <defs>
        <path id="DejaVuSans-33" d="M 2597 2516 
Q 3050 2419 3304 2112 
Q 3559 1806 3559 1356 
Q 3559 666 3084 287 
Q 2609 -91 1734 -91 
Q 1441 -91 1130 -33 
Q 819 25 488 141 
L 488 750 
Q 750 597 1062 519 
Q 1375 441 1716 441 
Q 2309 441 2620 675 
Q 2931 909 2931 1356 
Q 2931 1769 2642 2001 
Q 2353 2234 1838 2234 
L 1294 2234 
L 1294 2753 
L 1863 2753 
Q 2328 2753 2575 2939 
Q 2822 3125 2822 3475 
Q 2822 3834 2567 4026 
Q 2313 4219 1838 4219 
Q 1578 4219 1281 4162 
Q 984 4106 628 3988 
L 628 4550 
Q 988 4650 1302 4700 
Q 1616 4750 1894 4750 
Q 2613 4750 3031 4423 
Q 3450 4097 3450 3541 
Q 3450 3153 3228 2886 
Q 3006 2619 2597 2516 
z
" transform="scale(0.015625)"/>
       </defs>
       <use xlink:href="#DejaVuSans-33"/>
       <use xlink:href="#DejaVuSans-2e" x="63.623047"/>
       <use xlink:href="#DejaVuSans-30" x="95.410156"/>
      </g>
     </g>
    </g>
    <g id="ytick_8">
     <g id="line2d_20">
      <g>
       <use xlink:href="#m22ca566c2a" x="43.803125" y="52.698613" style="stroke: #000000; stroke-width: 0.8"/>
      </g>
     </g>
     <g id="text_20">
      <!-- 3.5 -->
      <g transform="translate(20.9 56.497832) scale(0.1 -0.1)">
       <use xlink:href="#DejaVuSans-33"/>
       <use xlink:href="#DejaVuSans-2e" x="63.623047"/>
       <use xlink:href="#DejaVuSans-35" x="95.410156"/>
      </g>
     </g>
    </g>
    <g id="text_21">
     <!-- $CO_2$ Equivalent (kg) -->
     <g transform="translate(14.8 188.838) rotate(-90) scale(0.1 -0.1)">
      <defs>
       <path id="DejaVuSans-Oblique-43" d="M 4447 4306 
L 4319 3641 
Q 4019 3944 3683 4091 
Q 3347 4238 2956 4238 
Q 2422 4238 2017 3981 
Q 1613 3725 1319 3200 
Q 1131 2863 1032 2486 
Q 934 2109 934 1728 
Q 934 1091 1264 756 
Q 1594 422 2222 422 
Q 2656 422 3056 561 
Q 3456 700 3834 978 
L 3688 231 
Q 3316 72 2936 -9 
Q 2556 -91 2175 -91 
Q 1278 -91 773 396 
Q 269 884 269 1753 
Q 269 2309 461 2846 
Q 653 3384 1013 3828 
Q 1394 4300 1883 4525 
Q 2372 4750 3022 4750 
Q 3422 4750 3780 4639 
Q 4138 4528 4447 4306 
z
" transform="scale(0.015625)"/>
       <path id="DejaVuSans-Oblique-4f" d="M 2919 4238 
Q 2400 4238 2003 3986 
Q 1606 3734 1313 3219 
Q 1125 2891 1026 2522 
Q 928 2153 928 1778 
Q 928 1128 1239 775 
Q 1550 422 2119 422 
Q 2631 422 3032 676 
Q 3434 931 3719 1434 
Q 3909 1772 4009 2142 
Q 4109 2513 4109 2881 
Q 4109 3528 3796 3883 
Q 3484 4238 2919 4238 
z
M 2100 -91 
Q 1241 -91 748 418 
Q 256 928 256 1813 
Q 256 2319 448 2847 
Q 641 3375 978 3788 
Q 1375 4272 1862 4511 
Q 2350 4750 2938 4750 
Q 3794 4750 4287 4245 
Q 4781 3741 4781 2869 
Q 4781 2331 4593 1812 
Q 4406 1294 4056 872 
Q 3656 384 3173 146 
Q 2691 -91 2100 -91 
z
" transform="scale(0.015625)"/>
       <path id="DejaVuSans-20" transform="scale(0.015625)"/>
       <path id="DejaVuSans-71" d="M 947 1747 
Q 947 1113 1208 752 
Q 1469 391 1925 391 
Q 2381 391 2643 752 
Q 2906 1113 2906 1747 
Q 2906 2381 2643 2742 
Q 2381 3103 1925 3103 
Q 1469 3103 1208 2742 
Q 947 2381 947 1747 
z
M 2906 525 
Q 2725 213 2448 61 
Q 2172 -91 1784 -91 
Q 1150 -91 751 415 
Q 353 922 353 1747 
Q 353 2572 751 3078 
Q 1150 3584 1784 3584 
Q 2172 3584 2448 3432 
Q 2725 3281 2906 2969 
L 2906 3500 
L 3481 3500 
L 3481 -1331 
L 2906 -1331 
L 2906 525 
z
" transform="scale(0.015625)"/>
       <path id="DejaVuSans-28" d="M 1984 4856 
Q 1566 4138 1362 3434 
Q 1159 2731 1159 2009 
Q 1159 1288 1364 580 
Q 1569 -128 1984 -844 
L 1484 -844 
Q 1016 -109 783 600 
Q 550 1309 550 2009 
Q 550 2706 781 3412 
Q 1013 4119 1484 4856 
L 1984 4856 
z
" transform="scale(0.015625)"/>
       <path id="DejaVuSans-29" d="M 513 4856 
L 1013 4856 
Q 1481 4119 1714 3412 
Q 1947 2706 1947 2009 
Q 1947 1309 1714 600 
Q 1481 -109 1013 -844 
L 513 -844 
Q 928 -128 1133 580 
Q 1338 1288 1338 2009 
Q 1338 2731 1133 3434 
Q 928 4138 513 4856 
z
" transform="scale(0.015625)"/>
      </defs>
      <use xlink:href="#DejaVuSans-Oblique-43" transform="translate(0 0.015625)"/>
      <use xlink:href="#DejaVuSans-Oblique-4f" transform="translate(69.824219 0.015625)"/>
      <use xlink:href="#DejaVuSans-32" transform="translate(148.535156 -16.390625) scale(0.7)"/>
      <use xlink:href="#DejaVuSans-20" transform="translate(195.805664 0.015625)"/>
      <use xlink:href="#DejaVuSans-45" transform="translate(227.592773 0.015625)"/>
      <use xlink:href="#DejaVuSans-71" transform="translate(290.776367 0.015625)"/>
      <use xlink:href="#DejaVuSans-75" transform="translate(354.25293 0.015625)"/>
      <use xlink:href="#DejaVuSans-69" transform="translate(417.631836 0.015625)"/>
      <use xlink:href="#DejaVuSans-76" transform="translate(445.415039 0.015625)"/>
      <use xlink:href="#DejaVuSans-61" transform="translate(504.594727 0.015625)"/>
      <use xlink:href="#DejaVuSans-6c" transform="translate(565.874023 0.015625)"/>
      <use xlink:href="#DejaVuSans-65" transform="translate(593.657227 0.015625)"/>
      <use xlink:href="#DejaVuSans-6e" transform="translate(655.180664 0.015625)"/>
      <use xlink:href="#DejaVuSans-74" transform="translate(718.55957 0.015625)"/>
      <use xlink:href="#DejaVuSans-20" transform="translate(757.768555 0.015625)"/>
      <use xlink:href="#DejaVuSans-28" transform="translate(789.555664 0.015625)"/>
      <use xlink:href="#DejaVuSans-6b" transform="translate(828.569336 0.015625)"/>
      <use xlink:href="#DejaVuSans-67" transform="translate(886.479492 0.015625)"/>
      <use xlink:href="#DejaVuSans-29" transform="translate(949.956055 0.015625)"/>
     </g>
    </g>
    <g id="text_22">
     <!-- 1e6 -->
     <g transform="translate(43.803125 33.32) scale(0.1 -0.1)">
      <defs>
       <path id="DejaVuSans-36" d="M 2113 2584 
Q 1688 2584 1439 2293 
Q 1191 2003 1191 1497 
Q 1191 994 1439 701 
Q 1688 409 2113 409 
Q 2538 409 2786 701 
Q 3034 994 3034 1497 
Q 3034 2003 2786 2293 
Q 2538 2584 2113 2584 
z
M 3366 4563 
L 3366 3988 
Q 3128 4100 2886 4159 
Q 2644 4219 2406 4219 
Q 1781 4219 1451 3797 
Q 1122 3375 1075 2522 
Q 1259 2794 1537 2939 
Q 1816 3084 2150 3084 
Q 2853 3084 3261 2657 
Q 3669 2231 3669 1497 
Q 3669 778 3244 343 
Q 2819 -91 2113 -91 
Q 1303 -91 875 529 
Q 447 1150 447 2328 
Q 447 3434 972 4092 
Q 1497 4750 2381 4750 
Q 2619 4750 2861 4703 
Q 3103 4656 3366 4563 
z
" transform="scale(0.015625)"/>
      </defs>
      <use xlink:href="#DejaVuSans-31"/>
      <use xlink:href="#DejaVuSans-65" x="63.623047"/>
      <use xlink:href="#DejaVuSans-36" x="125.146484"/>
     </g>
    </g>
   </g>
   <g id="patch_195">
    <path d="M 43.803125 242.456 
L 43.803125 36.32 
" style="fill: none; stroke: #000000; stroke-width: 0.8; stroke-linejoin: miter; stroke-linecap: square"/>
   </g>
   <g id="patch_196">
    <path d="M 1623.773125 242.456 
L 1623.773125 36.32 
" style="fill: none; stroke: #000000; stroke-width: 0.8; stroke-linejoin: miter; stroke-linecap: square"/>
   </g>
   <g id="patch_197">
    <path d="M 43.803125 242.456 
L 1623.773125 242.456 
" style="fill: none; stroke: #000000; stroke-width: 0.8; stroke-linejoin: miter; stroke-linecap: square"/>
   </g>
   <g id="patch_198">
    <path d="M 43.803125 36.32 
L 1623.773125 36.32 
" style="fill: none; stroke: #000000; stroke-width: 0.8; stroke-linejoin: miter; stroke-linecap: square"/>
   </g>
   <g id="text_23">
    <!-- $CO_2$ Equivalent (kg) by organization for IETF116 (1000 participants) -->
    <g transform="translate(630.148125 16.32) scale(0.12 -0.12)">
     <defs>
      <path id="DejaVuSans-62" d="M 3116 1747 
Q 3116 2381 2855 2742 
Q 2594 3103 2138 3103 
Q 1681 3103 1420 2742 
Q 1159 2381 1159 1747 
Q 1159 1113 1420 752 
Q 1681 391 2138 391 
Q 2594 391 2855 752 
Q 3116 1113 3116 1747 
z
M 1159 2969 
Q 1341 3281 1617 3432 
Q 1894 3584 2278 3584 
Q 2916 3584 3314 3078 
Q 3713 2572 3713 1747 
Q 3713 922 3314 415 
Q 2916 -91 2278 -91 
Q 1894 -91 1617 61 
Q 1341 213 1159 525 
L 1159 0 
L 581 0 
L 581 4863 
L 1159 4863 
L 1159 2969 
z
" transform="scale(0.015625)"/>
      <path id="DejaVuSans-72" d="M 2631 2963 
Q 2534 3019 2420 3045 
Q 2306 3072 2169 3072 
Q 1681 3072 1420 2755 
Q 1159 2438 1159 1844 
L 1159 0 
L 581 0 
L 581 3500 
L 1159 3500 
L 1159 2956 
Q 1341 3275 1631 3429 
Q 1922 3584 2338 3584 
Q 2397 3584 2469 3576 
Q 2541 3569 2628 3553 
L 2631 2963 
z
" transform="scale(0.015625)"/>
      <path id="DejaVuSans-7a" d="M 353 3500 
L 3084 3500 
L 3084 2975 
L 922 459 
L 3084 459 
L 3084 0 
L 275 0 
L 275 525 
L 2438 3041 
L 353 3041 
L 353 3500 
z
" transform="scale(0.015625)"/>
      <path id="DejaVuSans-49" d="M 628 4666 
L 1259 4666 
L 1259 0 
L 628 0 
L 628 4666 
z
" transform="scale(0.015625)"/>
      <path id="DejaVuSans-54" d="M -19 4666 
L 3928 4666 
L 3928 4134 
L 2272 4134 
L 2272 0 
L 1638 0 
L 1638 4134 
L -19 4134 
L -19 4666 
z
" transform="scale(0.015625)"/>
      <path id="DejaVuSans-46" d="M 628 4666 
L 3309 4666 
L 3309 4134 
L 1259 4134 
L 1259 2759 
L 3109 2759 
L 3109 2228 
L 1259 2228 
L 1259 0 
L 628 0 
L 628 4666 
z
" transform="scale(0.015625)"/>
      <path id="DejaVuSans-70" d="M 1159 525 
L 1159 -1331 
L 581 -1331 
L 581 3500 
L 1159 3500 
L 1159 2969 
Q 1341 3281 1617 3432 
Q 1894 3584 2278 3584 
Q 2916 3584 3314 3078 
Q 3713 2572 3713 1747 
Q 3713 922 3314 415 
Q 2916 -91 2278 -91 
Q 1894 -91 1617 61 
Q 1341 213 1159 525 
z
M 3116 1747 
Q 3116 2381 2855 2742 
Q 2594 3103 2138 3103 
Q 1681 3103 1420 2742 
Q 1159 2381 1159 1747 
Q 1159 1113 1420 752 
Q 1681 391 2138 391 
Q 2594 391 2855 752 
Q 3116 1113 3116 1747 
z
" transform="scale(0.015625)"/>
     </defs>
     <use xlink:href="#DejaVuSans-Oblique-43" transform="translate(0 0.015625)"/>
     <use xlink:href="#DejaVuSans-Oblique-4f" transform="translate(69.824219 0.015625)"/>
     <use xlink:href="#DejaVuSans-32" transform="translate(148.535156 -16.390625) scale(0.7)"/>
     <use xlink:href="#DejaVuSans-20" transform="translate(195.805664 0.015625)"/>
     <use xlink:href="#DejaVuSans-45" transform="translate(227.592773 0.015625)"/>
     <use xlink:href="#DejaVuSans-71" transform="translate(290.776367 0.015625)"/>
     <use xlink:href="#DejaVuSans-75" transform="translate(354.25293 0.015625)"/>
     <use xlink:href="#DejaVuSans-69" transform="translate(417.631836 0.015625)"/>
     <use xlink:href="#DejaVuSans-76" transform="translate(445.415039 0.015625)"/>
     <use xlink:href="#DejaVuSans-61" transform="translate(504.594727 0.015625)"/>
     <use xlink:href="#DejaVuSans-6c" transform="translate(565.874023 0.015625)"/>
     <use xlink:href="#DejaVuSans-65" transform="translate(593.657227 0.015625)"/>
     <use xlink:href="#DejaVuSans-6e" transform="translate(655.180664 0.015625)"/>
     <use xlink:href="#DejaVuSans-74" transform="translate(718.55957 0.015625)"/>
     <use xlink:href="#DejaVuSans-20" transform="translate(757.768555 0.015625)"/>
     <use xlink:href="#DejaVuSans-28" transform="translate(789.555664 0.015625)"/>
     <use xlink:href="#DejaVuSans-6b" transform="translate(828.569336 0.015625)"/>
     <use xlink:href="#DejaVuSans-67" transform="translate(886.479492 0.015625)"/>
     <use xlink:href="#DejaVuSans-29" transform="translate(949.956055 0.015625)"/>
     <use xlink:href="#DejaVuSans-20" transform="translate(988.969727 0.015625)"/>
     <use xlink:href="#DejaVuSans-62" transform="translate(1020.756836 0.015625)"/>
     <use xlink:href="#DejaVuSans-79" transform="translate(1084.233398 0.015625)"/>
     <use xlink:href="#DejaVuSans-20" transform="translate(1143.413086 0.015625)"/>
     <use xlink:href="#DejaVuSans-6f" transform="translate(1175.200195 0.015625)"/>
     <use xlink:href="#DejaVuSans-72" transform="translate(1236.381836 0.015625)"/>
     <use xlink:href="#DejaVuSans-67" transform="translate(1277.495117 0.015625)"/>
     <use xlink:href="#DejaVuSans-61" transform="translate(1340.97168 0.015625)"/>
     <use xlink:href="#DejaVuSans-6e" transform="translate(1402.250977 0.015625)"/>
     <use xlink:href="#DejaVuSans-69" transform="translate(1465.629883 0.015625)"/>
     <use xlink:href="#DejaVuSans-7a" transform="translate(1493.413086 0.015625)"/>
     <use xlink:href="#DejaVuSans-61" transform="translate(1545.90332 0.015625)"/>
     <use xlink:href="#DejaVuSans-74" transform="translate(1607.182617 0.015625)"/>
     <use xlink:href="#DejaVuSans-69" transform="translate(1646.391602 0.015625)"/>
     <use xlink:href="#DejaVuSans-6f" transform="translate(1674.174805 0.015625)"/>
     <use xlink:href="#DejaVuSans-6e" transform="translate(1735.356445 0.015625)"/>
     <use xlink:href="#DejaVuSans-20" transform="translate(1798.735352 0.015625)"/>
     <use xlink:href="#DejaVuSans-66" transform="translate(1830.522461 0.015625)"/>
     <use xlink:href="#DejaVuSans-6f" transform="translate(1865.727539 0.015625)"/>
     <use xlink:href="#DejaVuSans-72" transform="translate(1926.90918 0.015625)"/>
     <use xlink:href="#DejaVuSans-20" transform="translate(1968.022461 0.015625)"/>
     <use xlink:href="#DejaVuSans-49" transform="translate(1999.80957 0.015625)"/>
     <use xlink:href="#DejaVuSans-45" transform="translate(2029.301758 0.015625)"/>
     <use xlink:href="#DejaVuSans-54" transform="translate(2092.485352 0.015625)"/>
     <use xlink:href="#DejaVuSans-46" transform="translate(2153.569336 0.015625)"/>
     <use xlink:href="#DejaVuSans-31" transform="translate(2211.088867 0.015625)"/>
     <use xlink:href="#DejaVuSans-31" transform="translate(2274.711914 0.015625)"/>
     <use xlink:href="#DejaVuSans-36" transform="translate(2338.334961 0.015625)"/>
     <use xlink:href="#DejaVuSans-20" transform="translate(2401.958008 0.015625)"/>
     <use xlink:href="#DejaVuSans-28" transform="translate(2433.745117 0.015625)"/>
     <use xlink:href="#DejaVuSans-31" transform="translate(2472.758789 0.015625)"/>
     <use xlink:href="#DejaVuSans-30" transform="translate(2536.381836 0.015625)"/>
     <use xlink:href="#DejaVuSans-30" transform="translate(2600.004883 0.015625)"/>
     <use xlink:href="#DejaVuSans-30" transform="translate(2663.62793 0.015625)"/>
     <use xlink:href="#DejaVuSans-20" transform="translate(2727.250977 0.015625)"/>
     <use xlink:href="#DejaVuSans-70" transform="translate(2759.038086 0.015625)"/>
     <use xlink:href="#DejaVuSans-61" transform="translate(2822.514648 0.015625)"/>
     <use xlink:href="#DejaVuSans-72" transform="translate(2883.793945 0.015625)"/>
     <use xlink:href="#DejaVuSans-74" transform="translate(2924.907227 0.015625)"/>
     <use xlink:href="#DejaVuSans-69" transform="translate(2964.116211 0.015625)"/>
     <use xlink:href="#DejaVuSans-63" transform="translate(2991.899414 0.015625)"/>
     <use xlink:href="#DejaVuSans-69" transform="translate(3046.879883 0.015625)"/>
     <use xlink:href="#DejaVuSans-70" transform="translate(3074.663086 0.015625)"/>
     <use xlink:href="#DejaVuSans-61" transform="translate(3138.139648 0.015625)"/>
     <use xlink:href="#DejaVuSans-6e" transform="translate(3199.418945 0.015625)"/>
     <use xlink:href="#DejaVuSans-74" transform="translate(3262.797852 0.015625)"/>
     <use xlink:href="#DejaVuSans-73" transform="translate(3302.006836 0.015625)"/>
     <use xlink:href="#DejaVuSans-29" transform="translate(3354.106445 0.015625)"/>
    </g>
   </g>
   <g id="legend_1">
    <g id="patch_199">
     <path d="M 1630.773125 243.878275 
L 1708.27625 243.878275 
Q 1710.27625 243.878275 1710.27625 241.878275 
L 1710.27625 22.7064 
Q 1710.27625 20.7064 1708.27625 20.7064 
L 1630.773125 20.7064 
Q 1628.773125 20.7064 1628.773125 22.7064 
L 1628.773125 241.878275 
Q 1628.773125 243.878275 1630.773125 243.878275 
z
" style="fill: #ffffff; opacity: 0.8; stroke: #cccccc; stroke-linejoin: miter"/>
    </g>
    <g id="patch_200">
     <path d="M 1632.773125 32.304837 
L 1652.773125 32.304837 
L 1652.773125 25.304837 
L 1632.773125 25.304837 
z
" style="fill: #1f77b4"/>
    </g>
    <g id="text_24">
     <!-- Huawei -->
     <g transform="translate(1660.773125 32.304837) scale(0.1 -0.1)">
      <defs>
       <path id="DejaVuSans-48" d="M 628 4666 
L 1259 4666 
L 1259 2753 
L 3553 2753 
L 3553 4666 
L 4184 4666 
L 4184 0 
L 3553 0 
L 3553 2222 
L 1259 2222 
L 1259 0 
L 628 0 
L 628 4666 
z
" transform="scale(0.015625)"/>
       <path id="DejaVuSans-77" d="M 269 3500 
L 844 3500 
L 1563 769 
L 2278 3500 
L 2956 3500 
L 3675 769 
L 4391 3500 
L 4966 3500 
L 4050 0 
L 3372 0 
L 2619 2869 
L 1863 0 
L 1184 0 
L 269 3500 
z
" transform="scale(0.015625)"/>
      </defs>
      <use xlink:href="#DejaVuSans-48"/>
      <use xlink:href="#DejaVuSans-75" x="75.195312"/>
      <use xlink:href="#DejaVuSans-61" x="138.574219"/>
      <use xlink:href="#DejaVuSans-77" x="199.853516"/>
      <use xlink:href="#DejaVuSans-65" x="281.640625"/>
      <use xlink:href="#DejaVuSans-69" x="343.164062"/>
     </g>
    </g>
    <g id="patch_201">
     <path d="M 1632.773125 46.982962 
L 1652.773125 46.982962 
L 1652.773125 39.982962 
L 1632.773125 39.982962 
z
" style="fill: #ff7f0e"/>
    </g>
    <g id="text_25">
     <!-- Cisco -->
     <g transform="translate(1660.773125 46.982962) scale(0.1 -0.1)">
      <use xlink:href="#DejaVuSans-43"/>
      <use xlink:href="#DejaVuSans-69" x="69.824219"/>
      <use xlink:href="#DejaVuSans-73" x="97.607422"/>
      <use xlink:href="#DejaVuSans-63" x="149.707031"/>
      <use xlink:href="#DejaVuSans-6f" x="204.6875"/>
     </g>
    </g>
    <g id="patch_202">
     <path d="M 1632.773125 61.661087 
L 1652.773125 61.661087 
L 1652.773125 54.661087 
L 1632.773125 54.661087 
z
" style="fill: #d62728"/>
    </g>
    <g id="text_26">
     <!-- Ericsson -->
     <g transform="translate(1660.773125 61.661087) scale(0.1 -0.1)">
      <use xlink:href="#DejaVuSans-45"/>
      <use xlink:href="#DejaVuSans-72" x="63.183594"/>
      <use xlink:href="#DejaVuSans-69" x="104.296875"/>
      <use xlink:href="#DejaVuSans-63" x="132.080078"/>
      <use xlink:href="#DejaVuSans-73" x="187.060547"/>
      <use xlink:href="#DejaVuSans-73" x="239.160156"/>
      <use xlink:href="#DejaVuSans-6f" x="291.259766"/>
      <use xlink:href="#DejaVuSans-6e" x="352.441406"/>
     </g>
    </g>
    <g id="patch_203">
     <path d="M 1632.773125 76.339212 
L 1652.773125 76.339212 
L 1652.773125 69.339212 
L 1632.773125 69.339212 
z
" style="fill: #9467bd"/>
    </g>
    <g id="text_27">
     <!-- Juniper -->
     <g transform="translate(1660.773125 76.339212) scale(0.1 -0.1)">
      <defs>
       <path id="DejaVuSans-4a" d="M 628 4666 
L 1259 4666 
L 1259 325 
Q 1259 -519 939 -900 
Q 619 -1281 -91 -1281 
L -331 -1281 
L -331 -750 
L -134 -750 
Q 284 -750 456 -515 
Q 628 -281 628 325 
L 628 4666 
z
" transform="scale(0.015625)"/>
      </defs>
      <use xlink:href="#DejaVuSans-4a"/>
      <use xlink:href="#DejaVuSans-75" x="29.492188"/>
      <use xlink:href="#DejaVuSans-6e" x="92.871094"/>
      <use xlink:href="#DejaVuSans-69" x="156.25"/>
      <use xlink:href="#DejaVuSans-70" x="184.033203"/>
      <use xlink:href="#DejaVuSans-65" x="247.509766"/>
      <use xlink:href="#DejaVuSans-72" x="309.033203"/>
     </g>
    </g>
    <g id="patch_204">
     <path d="M 1632.773125 91.017337 
L 1652.773125 91.017337 
L 1652.773125 84.017337 
L 1632.773125 84.017337 
z
" style="fill: #8c564b"/>
    </g>
    <g id="text_28">
     <!-- ams -->
     <g transform="translate(1660.773125 91.017337) scale(0.1 -0.1)">
      <use xlink:href="#DejaVuSans-61"/>
      <use xlink:href="#DejaVuSans-6d" x="61.279297"/>
      <use xlink:href="#DejaVuSans-73" x="158.691406"/>
     </g>
    </g>
    <g id="patch_205">
     <path d="M 1632.773125 105.695462 
L 1652.773125 105.695462 
L 1652.773125 98.695462 
L 1632.773125 98.695462 
z
" style="fill: #e377c2"/>
    </g>
    <g id="text_29">
     <!-- Nokia -->
     <g transform="translate(1660.773125 105.695462) scale(0.1 -0.1)">
      <defs>
       <path id="DejaVuSans-4e" d="M 628 4666 
L 1478 4666 
L 3547 763 
L 3547 4666 
L 4159 4666 
L 4159 0 
L 3309 0 
L 1241 3903 
L 1241 0 
L 628 0 
L 628 4666 
z
" transform="scale(0.015625)"/>
      </defs>
      <use xlink:href="#DejaVuSans-4e"/>
      <use xlink:href="#DejaVuSans-6f" x="74.804688"/>
      <use xlink:href="#DejaVuSans-6b" x="135.986328"/>
      <use xlink:href="#DejaVuSans-69" x="193.896484"/>
      <use xlink:href="#DejaVuSans-61" x="221.679688"/>
     </g>
    </g>
    <g id="patch_206">
     <path d="M 1632.773125 120.373587 
L 1652.773125 120.373587 
L 1652.773125 113.373587 
L 1632.773125 113.373587 
z
" style="fill: #7f7f7f"/>
    </g>
    <g id="text_30">
     <!-- Google -->
     <g transform="translate(1660.773125 120.373587) scale(0.1 -0.1)">
      <defs>
       <path id="DejaVuSans-47" d="M 3809 666 
L 3809 1919 
L 2778 1919 
L 2778 2438 
L 4434 2438 
L 4434 434 
Q 4069 175 3628 42 
Q 3188 -91 2688 -91 
Q 1594 -91 976 548 
Q 359 1188 359 2328 
Q 359 3472 976 4111 
Q 1594 4750 2688 4750 
Q 3144 4750 3555 4637 
Q 3966 4525 4313 4306 
L 4313 3634 
Q 3963 3931 3569 4081 
Q 3175 4231 2741 4231 
Q 1884 4231 1454 3753 
Q 1025 3275 1025 2328 
Q 1025 1384 1454 906 
Q 1884 428 2741 428 
Q 3075 428 3337 486 
Q 3600 544 3809 666 
z
" transform="scale(0.015625)"/>
      </defs>
      <use xlink:href="#DejaVuSans-47"/>
      <use xlink:href="#DejaVuSans-6f" x="77.490234"/>
      <use xlink:href="#DejaVuSans-6f" x="138.671875"/>
      <use xlink:href="#DejaVuSans-67" x="199.853516"/>
      <use xlink:href="#DejaVuSans-6c" x="263.330078"/>
      <use xlink:href="#DejaVuSans-65" x="291.113281"/>
     </g>
    </g>
    <g id="patch_207">
     <path d="M 1632.773125 135.051712 
L 1652.773125 135.051712 
L 1652.773125 128.051712 
L 1632.773125 128.051712 
z
" style="fill: #bcbd22"/>
    </g>
    <g id="text_31">
     <!-- Apple -->
     <g transform="translate(1660.773125 135.051712) scale(0.1 -0.1)">
      <use xlink:href="#DejaVuSans-41"/>
      <use xlink:href="#DejaVuSans-70" x="68.408203"/>
      <use xlink:href="#DejaVuSans-70" x="131.884766"/>
      <use xlink:href="#DejaVuSans-6c" x="195.361328"/>
      <use xlink:href="#DejaVuSans-65" x="223.144531"/>
     </g>
    </g>
    <g id="patch_208">
     <path d="M 1632.773125 149.729837 
L 1652.773125 149.729837 
L 1652.773125 142.729837 
L 1632.773125 142.729837 
z
" style="fill: #17becf"/>
    </g>
    <g id="text_32">
     <!-- meta -->
     <g transform="translate(1660.773125 149.729837) scale(0.1 -0.1)">
      <use xlink:href="#DejaVuSans-6d"/>
      <use xlink:href="#DejaVuSans-65" x="97.412109"/>
      <use xlink:href="#DejaVuSans-74" x="158.935547"/>
      <use xlink:href="#DejaVuSans-61" x="198.144531"/>
     </g>
    </g>
    <g id="patch_209">
     <path d="M 1632.773125 164.407962 
L 1652.773125 164.407962 
L 1652.773125 157.407962 
L 1632.773125 157.407962 
z
" style="fill: #1f77b4"/>
    </g>
    <g id="text_33">
     <!-- DT -->
     <g transform="translate(1660.773125 164.407962) scale(0.1 -0.1)">
      <defs>
       <path id="DejaVuSans-44" d="M 1259 4147 
L 1259 519 
L 2022 519 
Q 2988 519 3436 956 
Q 3884 1394 3884 2338 
Q 3884 3275 3436 3711 
Q 2988 4147 2022 4147 
L 1259 4147 
z
M 628 4666 
L 1925 4666 
Q 3281 4666 3915 4102 
Q 4550 3538 4550 2338 
Q 4550 1131 3912 565 
Q 3275 0 1925 0 
L 628 0 
L 628 4666 
z
" transform="scale(0.015625)"/>
      </defs>
      <use xlink:href="#DejaVuSans-44"/>
      <use xlink:href="#DejaVuSans-54" x="77.001953"/>
     </g>
    </g>
    <g id="patch_210">
     <path d="M 1632.773125 179.086087 
L 1652.773125 179.086087 
L 1652.773125 172.086087 
L 1632.773125 172.086087 
z
" style="fill: #ff7f0e"/>
    </g>
    <g id="text_34">
     <!-- Verisign -->
     <g transform="translate(1660.773125 179.086087) scale(0.1 -0.1)">
      <use xlink:href="#DejaVuSans-56"/>
      <use xlink:href="#DejaVuSans-65" x="60.658203"/>
      <use xlink:href="#DejaVuSans-72" x="122.181641"/>
      <use xlink:href="#DejaVuSans-69" x="163.294922"/>
      <use xlink:href="#DejaVuSans-73" x="191.078125"/>
      <use xlink:href="#DejaVuSans-69" x="243.177734"/>
      <use xlink:href="#DejaVuSans-67" x="270.960938"/>
      <use xlink:href="#DejaVuSans-6e" x="334.4375"/>
     </g>
    </g>
    <g id="patch_211">
     <path d="M 1632.773125 193.764212 
L 1652.773125 193.764212 
L 1652.773125 186.764212 
L 1632.773125 186.764212 
z
" style="fill: #2ca02c"/>
    </g>
    <g id="text_35">
     <!-- Intel -->
     <g transform="translate(1660.773125 193.764212) scale(0.1 -0.1)">
      <use xlink:href="#DejaVuSans-49"/>
      <use xlink:href="#DejaVuSans-6e" x="29.492188"/>
      <use xlink:href="#DejaVuSans-74" x="92.871094"/>
      <use xlink:href="#DejaVuSans-65" x="132.080078"/>
      <use xlink:href="#DejaVuSans-6c" x="193.603516"/>
     </g>
    </g>
    <g id="patch_212">
     <path d="M 1632.773125 208.442337 
L 1652.773125 208.442337 
L 1652.773125 201.442337 
L 1632.773125 201.442337 
z
" style="fill: #d62728"/>
    </g>
    <g id="text_36">
     <!-- ISOC -->
     <g transform="translate(1660.773125 208.442337) scale(0.1 -0.1)">
      <defs>
       <path id="DejaVuSans-53" d="M 3425 4513 
L 3425 3897 
Q 3066 4069 2747 4153 
Q 2428 4238 2131 4238 
Q 1616 4238 1336 4038 
Q 1056 3838 1056 3469 
Q 1056 3159 1242 3001 
Q 1428 2844 1947 2747 
L 2328 2669 
Q 3034 2534 3370 2195 
Q 3706 1856 3706 1288 
Q 3706 609 3251 259 
Q 2797 -91 1919 -91 
Q 1588 -91 1214 -16 
Q 841 59 441 206 
L 441 856 
Q 825 641 1194 531 
Q 1563 422 1919 422 
Q 2459 422 2753 634 
Q 3047 847 3047 1241 
Q 3047 1584 2836 1778 
Q 2625 1972 2144 2069 
L 1759 2144 
Q 1053 2284 737 2584 
Q 422 2884 422 3419 
Q 422 4038 858 4394 
Q 1294 4750 2059 4750 
Q 2388 4750 2728 4690 
Q 3069 4631 3425 4513 
z
" transform="scale(0.015625)"/>
      </defs>
      <use xlink:href="#DejaVuSans-49"/>
      <use xlink:href="#DejaVuSans-53" x="29.492188"/>
      <use xlink:href="#DejaVuSans-4f" x="92.96875"/>
      <use xlink:href="#DejaVuSans-43" x="171.679688"/>
     </g>
    </g>
    <g id="patch_213">
     <path d="M 1632.773125 223.120462 
L 1652.773125 223.120462 
L 1652.773125 216.120462 
L 1632.773125 216.120462 
z
" style="fill: #9467bd"/>
    </g>
    <g id="text_37">
     <!-- Microsoft -->
     <g transform="translate(1660.773125 223.120462) scale(0.1 -0.1)">
      <defs>
       <path id="DejaVuSans-4d" d="M 628 4666 
L 1569 4666 
L 2759 1491 
L 3956 4666 
L 4897 4666 
L 4897 0 
L 4281 0 
L 4281 4097 
L 3078 897 
L 2444 897 
L 1241 4097 
L 1241 0 
L 628 0 
L 628 4666 
z
" transform="scale(0.015625)"/>
      </defs>
      <use xlink:href="#DejaVuSans-4d"/>
      <use xlink:href="#DejaVuSans-69" x="86.279297"/>
      <use xlink:href="#DejaVuSans-63" x="114.0625"/>
      <use xlink:href="#DejaVuSans-72" x="169.042969"/>
      <use xlink:href="#DejaVuSans-6f" x="207.90625"/>
      <use xlink:href="#DejaVuSans-73" x="269.087891"/>
      <use xlink:href="#DejaVuSans-6f" x="321.1875"/>
      <use xlink:href="#DejaVuSans-66" x="382.369141"/>
      <use xlink:href="#DejaVuSans-74" x="415.824219"/>
     </g>
    </g>
    <g id="patch_214">
     <path d="M 1632.773125 237.798587 
L 1652.773125 237.798587 
L 1652.773125 230.798587 
L 1632.773125 230.798587 
z
" style="fill: #8c564b"/>
    </g>
    <g id="text_38">
     <!-- Others -->
     <g transform="translate(1660.773125 237.798587) scale(0.1 -0.1)">
      <use xlink:href="#DejaVuSans-4f"/>
      <use xlink:href="#DejaVuSans-74" x="78.710938"/>
      <use xlink:href="#DejaVuSans-68" x="117.919922"/>
      <use xlink:href="#DejaVuSans-65" x="181.298828"/>
      <use xlink:href="#DejaVuSans-72" x="242.822266"/>
      <use xlink:href="#DejaVuSans-73" x="283.935547"/>
     </g>
    </g>
   </g>
  </g>
 </g>
 <defs>
  <clipPath id="pea34f6dcf2">
   <rect x="43.803125" y="36.32" width="1579.97" height="206.136"/>
  </clipPath>
 </defs>
</svg>
