<?xml version="1.0" encoding="utf-8" standalone="no"?>
<!DOCTYPE svg PUBLIC "-//W3C//DTD SVG 1.1//EN"
  "http://www.w3.org/Graphics/SVG/1.1/DTD/svg11.dtd">
<!-- Created with matplotlib (https://matplotlib.org/) -->
<svg height="277.531937pt" version="1.1" viewBox="0 0 427.128125 277.531937" width="427.128125pt" xmlns="http://www.w3.org/2000/svg" xmlns:xlink="http://www.w3.org/1999/xlink">
 <defs>
  <style type="text/css">
*{stroke-linecap:butt;stroke-linejoin:round;}
  </style>
 </defs>
 <g id="figure_1">
  <g id="patch_1">
   <path d="M 0 277.531937 
L 427.128125 277.531937 
L 427.128125 0 
L 0 0 
z
" style="fill:#ffffff;"/>
  </g>
  <g id="axes_1">
   <g id="patch_2">
    <path d="M 39.755 242.456 
L 345.325 242.456 
L 345.325 36.32 
L 39.755 36.32 
z
" style="fill:#ffffff;"/>
   </g>
   <g id="patch_3">
    <path clip-path="url(#pb94877696a)" d="M 53.644545 242.456 
L 112.126842 242.456 
L 112.126842 168.810854 
L 53.644545 168.810854 
z
" style="fill:#1f77b4;"/>
   </g>
   <g id="patch_4">
    <path clip-path="url(#pb94877696a)" d="M 126.747416 242.456 
L 185.229713 242.456 
L 185.229713 147.71399 
L 126.747416 147.71399 
z
" style="fill:#1f77b4;"/>
   </g>
   <g id="patch_5">
    <path clip-path="url(#pb94877696a)" d="M 199.850287 242.456 
L 258.332584 242.456 
L 258.332584 179.848268 
L 199.850287 179.848268 
z
" style="fill:#1f77b4;"/>
   </g>
   <g id="patch_6">
    <path clip-path="url(#pb94877696a)" d="M 272.953158 242.456 
L 331.435455 242.456 
L 331.435455 165.012098 
L 272.953158 165.012098 
z
" style="fill:#1f77b4;"/>
   </g>
   <g id="patch_7">
    <path clip-path="url(#pb94877696a)" d="M 53.644545 168.810854 
L 112.126842 168.810854 
L 112.126842 152.876676 
L 53.644545 152.876676 
z
" style="fill:#ff7f0e;"/>
   </g>
   <g id="patch_8">
    <path clip-path="url(#pb94877696a)" d="M 126.747416 147.71399 
L 185.229713 147.71399 
L 185.229713 127.472497 
L 126.747416 127.472497 
z
" style="fill:#ff7f0e;"/>
   </g>
   <g id="patch_9">
    <path clip-path="url(#pb94877696a)" d="M 199.850287 179.848268 
L 258.332584 179.848268 
L 258.332584 166.333551 
L 199.850287 166.333551 
z
" style="fill:#ff7f0e;"/>
   </g>
   <g id="patch_10">
    <path clip-path="url(#pb94877696a)" d="M 272.953158 165.012098 
L 331.435455 165.012098 
L 331.435455 148.342633 
L 272.953158 148.342633 
z
" style="fill:#ff7f0e;"/>
   </g>
   <g id="patch_11">
    <path clip-path="url(#pb94877696a)" d="M 53.644545 152.876676 
L 112.126842 152.876676 
L 112.126842 142.967753 
L 53.644545 142.967753 
z
" style="fill:#2ca02c;"/>
   </g>
   <g id="patch_12">
    <path clip-path="url(#pb94877696a)" d="M 126.747416 127.472497 
L 185.229713 127.472497 
L 185.229713 114.882971 
L 126.747416 114.882971 
z
" style="fill:#2ca02c;"/>
   </g>
   <g id="patch_13">
    <path clip-path="url(#pb94877696a)" d="M 199.850287 166.333551 
L 258.332584 166.333551 
L 258.332584 156.815554 
L 199.850287 156.815554 
z
" style="fill:#2ca02c;"/>
   </g>
   <g id="patch_14">
    <path clip-path="url(#pb94877696a)" d="M 272.953158 148.342633 
L 331.435455 148.342633 
L 331.435455 136.352609 
L 272.953158 136.352609 
z
" style="fill:#2ca02c;"/>
   </g>
   <g id="patch_15">
    <path clip-path="url(#pb94877696a)" d="M 53.644545 142.967753 
L 112.126842 142.967753 
L 112.126842 133.652704 
L 53.644545 133.652704 
z
" style="fill:#d62728;"/>
   </g>
   <g id="patch_16">
    <path clip-path="url(#pb94877696a)" d="M 126.747416 114.882971 
L 185.229713 114.882971 
L 185.229713 103.192697 
L 126.747416 103.192697 
z
" style="fill:#d62728;"/>
   </g>
   <g id="patch_17">
    <path clip-path="url(#pb94877696a)" d="M 199.850287 156.815554 
L 258.332584 156.815554 
L 258.332584 149.040909 
L 199.850287 149.040909 
z
" style="fill:#d62728;"/>
   </g>
   <g id="patch_18">
    <path clip-path="url(#pb94877696a)" d="M 272.953158 136.352609 
L 331.435455 136.352609 
L 331.435455 126.8272 
L 272.953158 126.8272 
z
" style="fill:#d62728;"/>
   </g>
   <g id="patch_19">
    <path clip-path="url(#pb94877696a)" d="M 53.644545 133.652704 
L 112.126842 133.652704 
L 112.126842 126.519544 
L 53.644545 126.519544 
z
" style="fill:#9467bd;"/>
   </g>
   <g id="patch_20">
    <path clip-path="url(#pb94877696a)" d="M 126.747416 103.192697 
L 185.229713 103.192697 
L 185.229713 94.146057 
L 126.747416 94.146057 
z
" style="fill:#9467bd;"/>
   </g>
   <g id="patch_21">
    <path clip-path="url(#pb94877696a)" d="M 199.850287 149.040909 
L 258.332584 149.040909 
L 258.332584 142.962432 
L 199.850287 142.962432 
z
" style="fill:#9467bd;"/>
   </g>
   <g id="patch_22">
    <path clip-path="url(#pb94877696a)" d="M 272.953158 126.8272 
L 331.435455 126.8272 
L 331.435455 119.325108 
L 272.953158 119.325108 
z
" style="fill:#9467bd;"/>
   </g>
   <g id="patch_23">
    <path clip-path="url(#pb94877696a)" d="M 53.644545 126.519544 
L 112.126842 126.519544 
L 112.126842 121.779775 
L 53.644545 121.779775 
z
" style="fill:#8c564b;"/>
   </g>
   <g id="patch_24">
    <path clip-path="url(#pb94877696a)" d="M 126.747416 94.146057 
L 185.229713 94.146057 
L 185.229713 87.97619 
L 126.747416 87.97619 
z
" style="fill:#8c564b;"/>
   </g>
   <g id="patch_25">
    <path clip-path="url(#pb94877696a)" d="M 199.850287 142.962432 
L 258.332584 142.962432 
L 258.332584 138.892478 
L 199.850287 138.892478 
z
" style="fill:#8c564b;"/>
   </g>
   <g id="patch_26">
    <path clip-path="url(#pb94877696a)" d="M 272.953158 119.325108 
L 331.435455 119.325108 
L 331.435455 114.129431 
L 272.953158 114.129431 
z
" style="fill:#8c564b;"/>
   </g>
   <g id="patch_27">
    <path clip-path="url(#pb94877696a)" d="M 53.644545 121.779775 
L 112.126842 121.779775 
L 112.126842 117.864153 
L 53.644545 117.864153 
z
" style="fill:#e377c2;"/>
   </g>
   <g id="patch_28">
    <path clip-path="url(#pb94877696a)" d="M 126.747416 87.97619 
L 185.229713 87.97619 
L 185.229713 83.080263 
L 126.747416 83.080263 
z
" style="fill:#e377c2;"/>
   </g>
   <g id="patch_29">
    <path clip-path="url(#pb94877696a)" d="M 199.850287 138.892478 
L 258.332584 138.892478 
L 258.332584 135.381232 
L 199.850287 135.381232 
z
" style="fill:#e377c2;"/>
   </g>
   <g id="patch_30">
    <path clip-path="url(#pb94877696a)" d="M 272.953158 114.129431 
L 331.435455 114.129431 
L 331.435455 109.583214 
L 272.953158 109.583214 
z
" style="fill:#e377c2;"/>
   </g>
   <g id="patch_31">
    <path clip-path="url(#pb94877696a)" d="M 53.644545 117.864153 
L 112.126842 117.864153 
L 112.126842 115.569472 
L 53.644545 115.569472 
z
" style="fill:#7f7f7f;"/>
   </g>
   <g id="patch_32">
    <path clip-path="url(#pb94877696a)" d="M 126.747416 83.080263 
L 185.229713 83.080263 
L 185.229713 80.124389 
L 126.747416 80.124389 
z
" style="fill:#7f7f7f;"/>
   </g>
   <g id="patch_33">
    <path clip-path="url(#pb94877696a)" d="M 199.850287 135.381232 
L 258.332584 135.381232 
L 258.332584 133.219701 
L 199.850287 133.219701 
z
" style="fill:#7f7f7f;"/>
   </g>
   <g id="patch_34">
    <path clip-path="url(#pb94877696a)" d="M 272.953158 109.583214 
L 331.435455 109.583214 
L 331.435455 106.752235 
L 272.953158 106.752235 
z
" style="fill:#7f7f7f;"/>
   </g>
   <g id="patch_35">
    <path clip-path="url(#pb94877696a)" d="M 53.644545 115.569472 
L 112.126842 115.569472 
L 112.126842 113.315073 
L 53.644545 113.315073 
z
" style="fill:#bcbd22;"/>
   </g>
   <g id="patch_36">
    <path clip-path="url(#pb94877696a)" d="M 126.747416 80.124389 
L 185.229713 80.124389 
L 185.229713 77.360022 
L 126.747416 77.360022 
z
" style="fill:#bcbd22;"/>
   </g>
   <g id="patch_37">
    <path clip-path="url(#pb94877696a)" d="M 199.850287 133.219701 
L 258.332584 133.219701 
L 258.332584 131.805877 
L 199.850287 131.805877 
z
" style="fill:#bcbd22;"/>
   </g>
   <g id="patch_38">
    <path clip-path="url(#pb94877696a)" d="M 272.953158 106.752235 
L 331.435455 106.752235 
L 331.435455 104.67896 
L 272.953158 104.67896 
z
" style="fill:#bcbd22;"/>
   </g>
   <g id="patch_39">
    <path clip-path="url(#pb94877696a)" d="M 53.644545 113.315073 
L 112.126842 113.315073 
L 112.126842 111.529154 
L 53.644545 111.529154 
z
" style="fill:#17becf;"/>
   </g>
   <g id="patch_40">
    <path clip-path="url(#pb94877696a)" d="M 126.747416 77.360022 
L 185.229713 77.360022 
L 185.229713 75.070261 
L 126.747416 75.070261 
z
" style="fill:#17becf;"/>
   </g>
   <g id="patch_41">
    <path clip-path="url(#pb94877696a)" d="M 199.850287 131.805877 
L 258.332584 131.805877 
L 258.332584 130.100829 
L 199.850287 130.100829 
z
" style="fill:#17becf;"/>
   </g>
   <g id="patch_42">
    <path clip-path="url(#pb94877696a)" d="M 272.953158 104.67896 
L 331.435455 104.67896 
L 331.435455 102.480789 
L 272.953158 102.480789 
z
" style="fill:#17becf;"/>
   </g>
   <g id="patch_43">
    <path clip-path="url(#pb94877696a)" d="M 53.644545 111.529154 
L 112.126842 111.529154 
L 112.126842 110.271399 
L 53.644545 110.271399 
z
" style="fill:#1f77b4;"/>
   </g>
   <g id="patch_44">
    <path clip-path="url(#pb94877696a)" d="M 126.747416 75.070261 
L 185.229713 75.070261 
L 185.229713 73.121882 
L 126.747416 73.121882 
z
" style="fill:#1f77b4;"/>
   </g>
   <g id="patch_45">
    <path clip-path="url(#pb94877696a)" d="M 199.850287 130.100829 
L 258.332584 130.100829 
L 258.332584 128.824837 
L 199.850287 128.824837 
z
" style="fill:#1f77b4;"/>
   </g>
   <g id="patch_46">
    <path clip-path="url(#pb94877696a)" d="M 272.953158 102.480789 
L 331.435455 102.480789 
L 331.435455 100.53241 
L 272.953158 100.53241 
z
" style="fill:#1f77b4;"/>
   </g>
   <g id="patch_47">
    <path clip-path="url(#pb94877696a)" d="M 53.644545 110.271399 
L 112.126842 110.271399 
L 112.126842 108.974951 
L 53.644545 108.974951 
z
" style="fill:#ff7f0e;"/>
   </g>
   <g id="patch_48">
    <path clip-path="url(#pb94877696a)" d="M 126.747416 73.121882 
L 185.229713 73.121882 
L 185.229713 71.414969 
L 126.747416 71.414969 
z
" style="fill:#ff7f0e;"/>
   </g>
   <g id="patch_49">
    <path clip-path="url(#pb94877696a)" d="M 199.850287 128.824837 
L 258.332584 128.824837 
L 258.332584 128.176623 
L 199.850287 128.176623 
z
" style="fill:#ff7f0e;"/>
   </g>
   <g id="patch_50">
    <path clip-path="url(#pb94877696a)" d="M 272.953158 100.53241 
L 331.435455 100.53241 
L 331.435455 99.508262 
L 272.953158 99.508262 
z
" style="fill:#ff7f0e;"/>
   </g>
   <g id="patch_51">
    <path clip-path="url(#pb94877696a)" d="M 53.644545 108.974951 
L 112.126842 108.974951 
L 112.126842 107.96631 
L 53.644545 107.96631 
z
" style="fill:#2ca02c;"/>
   </g>
   <g id="patch_52">
    <path clip-path="url(#pb94877696a)" d="M 126.747416 71.414969 
L 185.229713 71.414969 
L 185.229713 70.132702 
L 126.747416 70.132702 
z
" style="fill:#2ca02c;"/>
   </g>
   <g id="patch_53">
    <path clip-path="url(#pb94877696a)" d="M 199.850287 128.176623 
L 258.332584 128.176623 
L 258.332584 127.208558 
L 199.850287 127.208558 
z
" style="fill:#2ca02c;"/>
   </g>
   <g id="patch_54">
    <path clip-path="url(#pb94877696a)" d="M 272.953158 99.508262 
L 331.435455 99.508262 
L 331.435455 98.242649 
L 272.953158 98.242649 
z
" style="fill:#2ca02c;"/>
   </g>
   <g id="patch_55">
    <path clip-path="url(#pb94877696a)" d="M 53.644545 107.96631 
L 112.126842 107.96631 
L 112.126842 106.917025 
L 53.644545 106.917025 
z
" style="fill:#d62728;"/>
   </g>
   <g id="patch_56">
    <path clip-path="url(#pb94877696a)" d="M 126.747416 70.132702 
L 185.229713 70.132702 
L 185.229713 68.842109 
L 126.747416 68.842109 
z
" style="fill:#d62728;"/>
   </g>
   <g id="patch_57">
    <path clip-path="url(#pb94877696a)" d="M 199.850287 127.208558 
L 258.332584 127.208558 
L 258.332584 126.338314 
L 199.850287 126.338314 
z
" style="fill:#d62728;"/>
   </g>
   <g id="patch_58">
    <path clip-path="url(#pb94877696a)" d="M 272.953158 98.242649 
L 331.435455 98.242649 
L 331.435455 97.210174 
L 272.953158 97.210174 
z
" style="fill:#d62728;"/>
   </g>
   <g id="patch_59">
    <path clip-path="url(#pb94877696a)" d="M 53.644545 106.917025 
L 112.126842 106.917025 
L 112.126842 106.052801 
L 53.644545 106.052801 
z
" style="fill:#9467bd;"/>
   </g>
   <g id="patch_60">
    <path clip-path="url(#pb94877696a)" d="M 126.747416 68.842109 
L 185.229713 68.842109 
L 185.229713 67.73886 
L 126.747416 67.73886 
z
" style="fill:#9467bd;"/>
   </g>
   <g id="patch_61">
    <path clip-path="url(#pb94877696a)" d="M 199.850287 126.338314 
L 258.332584 126.338314 
L 258.332584 125.519825 
L 199.850287 125.519825 
z
" style="fill:#9467bd;"/>
   </g>
   <g id="patch_62">
    <path clip-path="url(#pb94877696a)" d="M 272.953158 97.210174 
L 331.435455 97.210174 
L 331.435455 96.169373 
L 272.953158 96.169373 
z
" style="fill:#9467bd;"/>
   </g>
   <g id="patch_63">
    <path clip-path="url(#pb94877696a)" d="M 53.644545 106.052801 
L 112.126842 106.052801 
L 112.126842 89.470358 
L 53.644545 89.470358 
z
" style="fill:#8c564b;"/>
   </g>
   <g id="patch_64">
    <path clip-path="url(#pb94877696a)" d="M 126.747416 67.73886 
L 185.229713 67.73886 
L 185.229713 46.136 
L 126.747416 46.136 
z
" style="fill:#8c564b;"/>
   </g>
   <g id="patch_65">
    <path clip-path="url(#pb94877696a)" d="M 199.850287 125.519825 
L 258.332584 125.519825 
L 258.332584 113.286958 
L 199.850287 113.286958 
z
" style="fill:#8c564b;"/>
   </g>
   <g id="patch_66">
    <path clip-path="url(#pb94877696a)" d="M 272.953158 96.169373 
L 331.435455 96.169373 
L 331.435455 80.698911 
L 272.953158 80.698911 
z
" style="fill:#8c564b;"/>
   </g>
   <g id="matplotlib.axis_1">
    <g id="xtick_1">
     <g id="line2d_1">
      <defs>
       <path d="M 0 0 
L 0 3.5 
" id="m1055c3ef8b" style="stroke:#000000;stroke-width:0.8;"/>
      </defs>
      <g>
       <use style="stroke:#000000;stroke-width:0.8;" x="82.885694" xlink:href="#m1055c3ef8b" y="242.456"/>
      </g>
     </g>
     <g id="text_1">
      <!-- flight -->
      <defs>
       <path d="M 37.109375 75.984375 
L 37.109375 68.5 
L 28.515625 68.5 
Q 23.6875 68.5 21.796875 66.546875 
Q 19.921875 64.59375 19.921875 59.515625 
L 19.921875 54.6875 
L 34.71875 54.6875 
L 34.71875 47.703125 
L 19.921875 47.703125 
L 19.921875 0 
L 10.890625 0 
L 10.890625 47.703125 
L 2.296875 47.703125 
L 2.296875 54.6875 
L 10.890625 54.6875 
L 10.890625 58.5 
Q 10.890625 67.625 15.140625 71.796875 
Q 19.390625 75.984375 28.609375 75.984375 
z
" id="DejaVuSans-102"/>
       <path d="M 9.421875 75.984375 
L 18.40625 75.984375 
L 18.40625 0 
L 9.421875 0 
z
" id="DejaVuSans-108"/>
       <path d="M 9.421875 54.6875 
L 18.40625 54.6875 
L 18.40625 0 
L 9.421875 0 
z
M 9.421875 75.984375 
L 18.40625 75.984375 
L 18.40625 64.59375 
L 9.421875 64.59375 
z
" id="DejaVuSans-105"/>
       <path d="M 45.40625 27.984375 
Q 45.40625 37.75 41.375 43.109375 
Q 37.359375 48.484375 30.078125 48.484375 
Q 22.859375 48.484375 18.828125 43.109375 
Q 14.796875 37.75 14.796875 27.984375 
Q 14.796875 18.265625 18.828125 12.890625 
Q 22.859375 7.515625 30.078125 7.515625 
Q 37.359375 7.515625 41.375 12.890625 
Q 45.40625 18.265625 45.40625 27.984375 
z
M 54.390625 6.78125 
Q 54.390625 -7.171875 48.1875 -13.984375 
Q 42 -20.796875 29.203125 -20.796875 
Q 24.46875 -20.796875 20.265625 -20.09375 
Q 16.0625 -19.390625 12.109375 -17.921875 
L 12.109375 -9.1875 
Q 16.0625 -11.328125 19.921875 -12.34375 
Q 23.78125 -13.375 27.78125 -13.375 
Q 36.625 -13.375 41.015625 -8.765625 
Q 45.40625 -4.15625 45.40625 5.171875 
L 45.40625 9.625 
Q 42.625 4.78125 38.28125 2.390625 
Q 33.9375 0 27.875 0 
Q 17.828125 0 11.671875 7.65625 
Q 5.515625 15.328125 5.515625 27.984375 
Q 5.515625 40.671875 11.671875 48.328125 
Q 17.828125 56 27.875 56 
Q 33.9375 56 38.28125 53.609375 
Q 42.625 51.21875 45.40625 46.390625 
L 45.40625 54.6875 
L 54.390625 54.6875 
z
" id="DejaVuSans-103"/>
       <path d="M 54.890625 33.015625 
L 54.890625 0 
L 45.90625 0 
L 45.90625 32.71875 
Q 45.90625 40.484375 42.875 44.328125 
Q 39.84375 48.1875 33.796875 48.1875 
Q 26.515625 48.1875 22.3125 43.546875 
Q 18.109375 38.921875 18.109375 30.90625 
L 18.109375 0 
L 9.078125 0 
L 9.078125 75.984375 
L 18.109375 75.984375 
L 18.109375 46.1875 
Q 21.34375 51.125 25.703125 53.5625 
Q 30.078125 56 35.796875 56 
Q 45.21875 56 50.046875 50.171875 
Q 54.890625 44.34375 54.890625 33.015625 
z
" id="DejaVuSans-104"/>
       <path d="M 18.3125 70.21875 
L 18.3125 54.6875 
L 36.8125 54.6875 
L 36.8125 47.703125 
L 18.3125 47.703125 
L 18.3125 18.015625 
Q 18.3125 11.328125 20.140625 9.421875 
Q 21.96875 7.515625 27.59375 7.515625 
L 36.8125 7.515625 
L 36.8125 0 
L 27.59375 0 
Q 17.1875 0 13.234375 3.875 
Q 9.28125 7.765625 9.28125 18.015625 
L 9.28125 47.703125 
L 2.6875 47.703125 
L 2.6875 54.6875 
L 9.28125 54.6875 
L 9.28125 70.21875 
z
" id="DejaVuSans-116"/>
      </defs>
      <g transform="translate(70.044288 257.054437)scale(0.1 -0.1)">
       <use xlink:href="#DejaVuSans-102"/>
       <use x="35.205078" xlink:href="#DejaVuSans-108"/>
       <use x="62.988281" xlink:href="#DejaVuSans-105"/>
       <use x="90.771484" xlink:href="#DejaVuSans-103"/>
       <use x="154.248047" xlink:href="#DejaVuSans-104"/>
       <use x="217.626953" xlink:href="#DejaVuSans-116"/>
      </g>
      <!-- myclimate -->
      <defs>
       <path d="M 52 44.1875 
Q 55.375 50.25 60.0625 53.125 
Q 64.75 56 71.09375 56 
Q 79.640625 56 84.28125 50.015625 
Q 88.921875 44.046875 88.921875 33.015625 
L 88.921875 0 
L 79.890625 0 
L 79.890625 32.71875 
Q 79.890625 40.578125 77.09375 44.375 
Q 74.3125 48.1875 68.609375 48.1875 
Q 61.625 48.1875 57.5625 43.546875 
Q 53.515625 38.921875 53.515625 30.90625 
L 53.515625 0 
L 44.484375 0 
L 44.484375 32.71875 
Q 44.484375 40.625 41.703125 44.40625 
Q 38.921875 48.1875 33.109375 48.1875 
Q 26.21875 48.1875 22.15625 43.53125 
Q 18.109375 38.875 18.109375 30.90625 
L 18.109375 0 
L 9.078125 0 
L 9.078125 54.6875 
L 18.109375 54.6875 
L 18.109375 46.1875 
Q 21.1875 51.21875 25.484375 53.609375 
Q 29.78125 56 35.6875 56 
Q 41.65625 56 45.828125 52.96875 
Q 50 49.953125 52 44.1875 
z
" id="DejaVuSans-109"/>
       <path d="M 32.171875 -5.078125 
Q 28.375 -14.84375 24.75 -17.8125 
Q 21.140625 -20.796875 15.09375 -20.796875 
L 7.90625 -20.796875 
L 7.90625 -13.28125 
L 13.1875 -13.28125 
Q 16.890625 -13.28125 18.9375 -11.515625 
Q 21 -9.765625 23.484375 -3.21875 
L 25.09375 0.875 
L 2.984375 54.6875 
L 12.5 54.6875 
L 29.59375 11.921875 
L 46.6875 54.6875 
L 56.203125 54.6875 
z
" id="DejaVuSans-121"/>
       <path d="M 48.78125 52.59375 
L 48.78125 44.1875 
Q 44.96875 46.296875 41.140625 47.34375 
Q 37.3125 48.390625 33.40625 48.390625 
Q 24.65625 48.390625 19.8125 42.84375 
Q 14.984375 37.3125 14.984375 27.296875 
Q 14.984375 17.28125 19.8125 11.734375 
Q 24.65625 6.203125 33.40625 6.203125 
Q 37.3125 6.203125 41.140625 7.25 
Q 44.96875 8.296875 48.78125 10.40625 
L 48.78125 2.09375 
Q 45.015625 0.34375 40.984375 -0.53125 
Q 36.96875 -1.421875 32.421875 -1.421875 
Q 20.0625 -1.421875 12.78125 6.34375 
Q 5.515625 14.109375 5.515625 27.296875 
Q 5.515625 40.671875 12.859375 48.328125 
Q 20.21875 56 33.015625 56 
Q 37.15625 56 41.109375 55.140625 
Q 45.0625 54.296875 48.78125 52.59375 
z
" id="DejaVuSans-99"/>
       <path d="M 34.28125 27.484375 
Q 23.390625 27.484375 19.1875 25 
Q 14.984375 22.515625 14.984375 16.5 
Q 14.984375 11.71875 18.140625 8.90625 
Q 21.296875 6.109375 26.703125 6.109375 
Q 34.1875 6.109375 38.703125 11.40625 
Q 43.21875 16.703125 43.21875 25.484375 
L 43.21875 27.484375 
z
M 52.203125 31.203125 
L 52.203125 0 
L 43.21875 0 
L 43.21875 8.296875 
Q 40.140625 3.328125 35.546875 0.953125 
Q 30.953125 -1.421875 24.3125 -1.421875 
Q 15.921875 -1.421875 10.953125 3.296875 
Q 6 8.015625 6 15.921875 
Q 6 25.140625 12.171875 29.828125 
Q 18.359375 34.515625 30.609375 34.515625 
L 43.21875 34.515625 
L 43.21875 35.40625 
Q 43.21875 41.609375 39.140625 45 
Q 35.0625 48.390625 27.6875 48.390625 
Q 23 48.390625 18.546875 47.265625 
Q 14.109375 46.140625 10.015625 43.890625 
L 10.015625 52.203125 
Q 14.9375 54.109375 19.578125 55.046875 
Q 24.21875 56 28.609375 56 
Q 40.484375 56 46.34375 49.84375 
Q 52.203125 43.703125 52.203125 31.203125 
z
" id="DejaVuSans-97"/>
       <path d="M 56.203125 29.59375 
L 56.203125 25.203125 
L 14.890625 25.203125 
Q 15.484375 15.921875 20.484375 11.0625 
Q 25.484375 6.203125 34.421875 6.203125 
Q 39.59375 6.203125 44.453125 7.46875 
Q 49.3125 8.734375 54.109375 11.28125 
L 54.109375 2.78125 
Q 49.265625 0.734375 44.1875 -0.34375 
Q 39.109375 -1.421875 33.890625 -1.421875 
Q 20.796875 -1.421875 13.15625 6.1875 
Q 5.515625 13.8125 5.515625 26.8125 
Q 5.515625 40.234375 12.765625 48.109375 
Q 20.015625 56 32.328125 56 
Q 43.359375 56 49.78125 48.890625 
Q 56.203125 41.796875 56.203125 29.59375 
z
M 47.21875 32.234375 
Q 47.125 39.59375 43.09375 43.984375 
Q 39.0625 48.390625 32.421875 48.390625 
Q 24.90625 48.390625 20.390625 44.140625 
Q 15.875 39.890625 15.1875 32.171875 
z
" id="DejaVuSans-101"/>
      </defs>
      <g transform="translate(56.557569 268.25225)scale(0.1 -0.1)">
       <use xlink:href="#DejaVuSans-109"/>
       <use x="97.412109" xlink:href="#DejaVuSans-121"/>
       <use x="156.591797" xlink:href="#DejaVuSans-99"/>
       <use x="211.572266" xlink:href="#DejaVuSans-108"/>
       <use x="239.355469" xlink:href="#DejaVuSans-105"/>
       <use x="267.138672" xlink:href="#DejaVuSans-109"/>
       <use x="364.550781" xlink:href="#DejaVuSans-97"/>
       <use x="425.830078" xlink:href="#DejaVuSans-116"/>
       <use x="465.039062" xlink:href="#DejaVuSans-101"/>
      </g>
     </g>
    </g>
    <g id="xtick_2">
     <g id="line2d_2">
      <g>
       <use style="stroke:#000000;stroke-width:0.8;" x="155.988565" xlink:href="#m1055c3ef8b" y="242.456"/>
      </g>
     </g>
     <g id="text_2">
      <!-- flight -->
      <g transform="translate(143.147158 257.054437)scale(0.1 -0.1)">
       <use xlink:href="#DejaVuSans-102"/>
       <use x="35.205078" xlink:href="#DejaVuSans-108"/>
       <use x="62.988281" xlink:href="#DejaVuSans-105"/>
       <use x="90.771484" xlink:href="#DejaVuSans-103"/>
       <use x="154.248047" xlink:href="#DejaVuSans-104"/>
       <use x="217.626953" xlink:href="#DejaVuSans-116"/>
      </g>
      <!-- goclimate -->
      <defs>
       <path d="M 30.609375 48.390625 
Q 23.390625 48.390625 19.1875 42.75 
Q 14.984375 37.109375 14.984375 27.296875 
Q 14.984375 17.484375 19.15625 11.84375 
Q 23.34375 6.203125 30.609375 6.203125 
Q 37.796875 6.203125 41.984375 11.859375 
Q 46.1875 17.53125 46.1875 27.296875 
Q 46.1875 37.015625 41.984375 42.703125 
Q 37.796875 48.390625 30.609375 48.390625 
z
M 30.609375 56 
Q 42.328125 56 49.015625 48.375 
Q 55.71875 40.765625 55.71875 27.296875 
Q 55.71875 13.875 49.015625 6.21875 
Q 42.328125 -1.421875 30.609375 -1.421875 
Q 18.84375 -1.421875 12.171875 6.21875 
Q 5.515625 13.875 5.515625 27.296875 
Q 5.515625 40.765625 12.171875 48.375 
Q 18.84375 56 30.609375 56 
z
" id="DejaVuSans-111"/>
      </defs>
      <g transform="translate(131.256533 268.25225)scale(0.1 -0.1)">
       <use xlink:href="#DejaVuSans-103"/>
       <use x="63.476562" xlink:href="#DejaVuSans-111"/>
       <use x="124.658203" xlink:href="#DejaVuSans-99"/>
       <use x="179.638672" xlink:href="#DejaVuSans-108"/>
       <use x="207.421875" xlink:href="#DejaVuSans-105"/>
       <use x="235.205078" xlink:href="#DejaVuSans-109"/>
       <use x="332.617188" xlink:href="#DejaVuSans-97"/>
       <use x="393.896484" xlink:href="#DejaVuSans-116"/>
       <use x="433.105469" xlink:href="#DejaVuSans-101"/>
      </g>
     </g>
    </g>
    <g id="xtick_3">
     <g id="line2d_3">
      <g>
       <use style="stroke:#000000;stroke-width:0.8;" x="229.091435" xlink:href="#m1055c3ef8b" y="242.456"/>
      </g>
     </g>
     <g id="text_3">
      <!-- distance -->
      <defs>
       <path d="M 45.40625 46.390625 
L 45.40625 75.984375 
L 54.390625 75.984375 
L 54.390625 0 
L 45.40625 0 
L 45.40625 8.203125 
Q 42.578125 3.328125 38.25 0.953125 
Q 33.9375 -1.421875 27.875 -1.421875 
Q 17.96875 -1.421875 11.734375 6.484375 
Q 5.515625 14.40625 5.515625 27.296875 
Q 5.515625 40.1875 11.734375 48.09375 
Q 17.96875 56 27.875 56 
Q 33.9375 56 38.25 53.625 
Q 42.578125 51.265625 45.40625 46.390625 
z
M 14.796875 27.296875 
Q 14.796875 17.390625 18.875 11.75 
Q 22.953125 6.109375 30.078125 6.109375 
Q 37.203125 6.109375 41.296875 11.75 
Q 45.40625 17.390625 45.40625 27.296875 
Q 45.40625 37.203125 41.296875 42.84375 
Q 37.203125 48.484375 30.078125 48.484375 
Q 22.953125 48.484375 18.875 42.84375 
Q 14.796875 37.203125 14.796875 27.296875 
z
" id="DejaVuSans-100"/>
       <path d="M 44.28125 53.078125 
L 44.28125 44.578125 
Q 40.484375 46.53125 36.375 47.5 
Q 32.28125 48.484375 27.875 48.484375 
Q 21.1875 48.484375 17.84375 46.4375 
Q 14.5 44.390625 14.5 40.28125 
Q 14.5 37.15625 16.890625 35.375 
Q 19.28125 33.59375 26.515625 31.984375 
L 29.59375 31.296875 
Q 39.15625 29.25 43.1875 25.515625 
Q 47.21875 21.78125 47.21875 15.09375 
Q 47.21875 7.46875 41.1875 3.015625 
Q 35.15625 -1.421875 24.609375 -1.421875 
Q 20.21875 -1.421875 15.453125 -0.5625 
Q 10.6875 0.296875 5.421875 2 
L 5.421875 11.28125 
Q 10.40625 8.6875 15.234375 7.390625 
Q 20.0625 6.109375 24.8125 6.109375 
Q 31.15625 6.109375 34.5625 8.28125 
Q 37.984375 10.453125 37.984375 14.40625 
Q 37.984375 18.0625 35.515625 20.015625 
Q 33.0625 21.96875 24.703125 23.78125 
L 21.578125 24.515625 
Q 13.234375 26.265625 9.515625 29.90625 
Q 5.8125 33.546875 5.8125 39.890625 
Q 5.8125 47.609375 11.28125 51.796875 
Q 16.75 56 26.8125 56 
Q 31.78125 56 36.171875 55.265625 
Q 40.578125 54.546875 44.28125 53.078125 
z
" id="DejaVuSans-115"/>
       <path d="M 54.890625 33.015625 
L 54.890625 0 
L 45.90625 0 
L 45.90625 32.71875 
Q 45.90625 40.484375 42.875 44.328125 
Q 39.84375 48.1875 33.796875 48.1875 
Q 26.515625 48.1875 22.3125 43.546875 
Q 18.109375 38.921875 18.109375 30.90625 
L 18.109375 0 
L 9.078125 0 
L 9.078125 54.6875 
L 18.109375 54.6875 
L 18.109375 46.1875 
Q 21.34375 51.125 25.703125 53.5625 
Q 30.078125 56 35.796875 56 
Q 45.21875 56 50.046875 50.171875 
Q 54.890625 44.34375 54.890625 33.015625 
z
" id="DejaVuSans-110"/>
      </defs>
      <g transform="translate(207.904717 257.054437)scale(0.1 -0.1)">
       <use xlink:href="#DejaVuSans-100"/>
       <use x="63.476562" xlink:href="#DejaVuSans-105"/>
       <use x="91.259766" xlink:href="#DejaVuSans-115"/>
       <use x="143.359375" xlink:href="#DejaVuSans-116"/>
       <use x="182.568359" xlink:href="#DejaVuSans-97"/>
       <use x="243.847656" xlink:href="#DejaVuSans-110"/>
       <use x="307.226562" xlink:href="#DejaVuSans-99"/>
       <use x="362.207031" xlink:href="#DejaVuSans-101"/>
      </g>
      <!-- myclimate -->
      <g transform="translate(202.76331 268.25225)scale(0.1 -0.1)">
       <use xlink:href="#DejaVuSans-109"/>
       <use x="97.412109" xlink:href="#DejaVuSans-121"/>
       <use x="156.591797" xlink:href="#DejaVuSans-99"/>
       <use x="211.572266" xlink:href="#DejaVuSans-108"/>
       <use x="239.355469" xlink:href="#DejaVuSans-105"/>
       <use x="267.138672" xlink:href="#DejaVuSans-109"/>
       <use x="364.550781" xlink:href="#DejaVuSans-97"/>
       <use x="425.830078" xlink:href="#DejaVuSans-116"/>
       <use x="465.039062" xlink:href="#DejaVuSans-101"/>
      </g>
     </g>
    </g>
    <g id="xtick_4">
     <g id="line2d_4">
      <g>
       <use style="stroke:#000000;stroke-width:0.8;" x="302.194306" xlink:href="#m1055c3ef8b" y="242.456"/>
      </g>
     </g>
     <g id="text_4">
      <!-- distance -->
      <g transform="translate(281.007587 257.054437)scale(0.1 -0.1)">
       <use xlink:href="#DejaVuSans-100"/>
       <use x="63.476562" xlink:href="#DejaVuSans-105"/>
       <use x="91.259766" xlink:href="#DejaVuSans-115"/>
       <use x="143.359375" xlink:href="#DejaVuSans-116"/>
       <use x="182.568359" xlink:href="#DejaVuSans-97"/>
       <use x="243.847656" xlink:href="#DejaVuSans-110"/>
       <use x="307.226562" xlink:href="#DejaVuSans-99"/>
       <use x="362.207031" xlink:href="#DejaVuSans-101"/>
      </g>
      <!-- goclimate -->
      <g transform="translate(277.462275 268.25225)scale(0.1 -0.1)">
       <use xlink:href="#DejaVuSans-103"/>
       <use x="63.476562" xlink:href="#DejaVuSans-111"/>
       <use x="124.658203" xlink:href="#DejaVuSans-99"/>
       <use x="179.638672" xlink:href="#DejaVuSans-108"/>
       <use x="207.421875" xlink:href="#DejaVuSans-105"/>
       <use x="235.205078" xlink:href="#DejaVuSans-109"/>
       <use x="332.617188" xlink:href="#DejaVuSans-97"/>
       <use x="393.896484" xlink:href="#DejaVuSans-116"/>
       <use x="433.105469" xlink:href="#DejaVuSans-101"/>
      </g>
     </g>
    </g>
   </g>
   <g id="matplotlib.axis_2">
    <g id="ytick_1">
     <g id="line2d_5">
      <defs>
       <path d="M 0 0 
L -3.5 0 
" id="m9c168640ce" style="stroke:#000000;stroke-width:0.8;"/>
      </defs>
      <g>
       <use style="stroke:#000000;stroke-width:0.8;" x="39.755" xlink:href="#m9c168640ce" y="242.456"/>
      </g>
     </g>
     <g id="text_5">
      <!-- 0 -->
      <defs>
       <path d="M 31.78125 66.40625 
Q 24.171875 66.40625 20.328125 58.90625 
Q 16.5 51.421875 16.5 36.375 
Q 16.5 21.390625 20.328125 13.890625 
Q 24.171875 6.390625 31.78125 6.390625 
Q 39.453125 6.390625 43.28125 13.890625 
Q 47.125 21.390625 47.125 36.375 
Q 47.125 51.421875 43.28125 58.90625 
Q 39.453125 66.40625 31.78125 66.40625 
z
M 31.78125 74.21875 
Q 44.046875 74.21875 50.515625 64.515625 
Q 56.984375 54.828125 56.984375 36.375 
Q 56.984375 17.96875 50.515625 8.265625 
Q 44.046875 -1.421875 31.78125 -1.421875 
Q 19.53125 -1.421875 13.0625 8.265625 
Q 6.59375 17.96875 6.59375 36.375 
Q 6.59375 54.828125 13.0625 64.515625 
Q 19.53125 74.21875 31.78125 74.21875 
z
" id="DejaVuSans-48"/>
      </defs>
      <g transform="translate(26.3925 246.255219)scale(0.1 -0.1)">
       <use xlink:href="#DejaVuSans-48"/>
      </g>
     </g>
    </g>
    <g id="ytick_2">
     <g id="line2d_6">
      <g>
       <use style="stroke:#000000;stroke-width:0.8;" x="39.755" xlink:href="#m9c168640ce" y="200.82397"/>
      </g>
     </g>
     <g id="text_6">
      <!-- 1 -->
      <defs>
       <path d="M 12.40625 8.296875 
L 28.515625 8.296875 
L 28.515625 63.921875 
L 10.984375 60.40625 
L 10.984375 69.390625 
L 28.421875 72.90625 
L 38.28125 72.90625 
L 38.28125 8.296875 
L 54.390625 8.296875 
L 54.390625 0 
L 12.40625 0 
z
" id="DejaVuSans-49"/>
      </defs>
      <g transform="translate(26.3925 204.623189)scale(0.1 -0.1)">
       <use xlink:href="#DejaVuSans-49"/>
      </g>
     </g>
    </g>
    <g id="ytick_3">
     <g id="line2d_7">
      <g>
       <use style="stroke:#000000;stroke-width:0.8;" x="39.755" xlink:href="#m9c168640ce" y="159.19194"/>
      </g>
     </g>
     <g id="text_7">
      <!-- 2 -->
      <defs>
       <path d="M 19.1875 8.296875 
L 53.609375 8.296875 
L 53.609375 0 
L 7.328125 0 
L 7.328125 8.296875 
Q 12.9375 14.109375 22.625 23.890625 
Q 32.328125 33.6875 34.8125 36.53125 
Q 39.546875 41.84375 41.421875 45.53125 
Q 43.3125 49.21875 43.3125 52.78125 
Q 43.3125 58.59375 39.234375 62.25 
Q 35.15625 65.921875 28.609375 65.921875 
Q 23.96875 65.921875 18.8125 64.3125 
Q 13.671875 62.703125 7.8125 59.421875 
L 7.8125 69.390625 
Q 13.765625 71.78125 18.9375 73 
Q 24.125 74.21875 28.421875 74.21875 
Q 39.75 74.21875 46.484375 68.546875 
Q 53.21875 62.890625 53.21875 53.421875 
Q 53.21875 48.921875 51.53125 44.890625 
Q 49.859375 40.875 45.40625 35.40625 
Q 44.1875 33.984375 37.640625 27.21875 
Q 31.109375 20.453125 19.1875 8.296875 
z
" id="DejaVuSans-50"/>
      </defs>
      <g transform="translate(26.3925 162.991159)scale(0.1 -0.1)">
       <use xlink:href="#DejaVuSans-50"/>
      </g>
     </g>
    </g>
    <g id="ytick_4">
     <g id="line2d_8">
      <g>
       <use style="stroke:#000000;stroke-width:0.8;" x="39.755" xlink:href="#m9c168640ce" y="117.55991"/>
      </g>
     </g>
     <g id="text_8">
      <!-- 3 -->
      <defs>
       <path d="M 40.578125 39.3125 
Q 47.65625 37.796875 51.625 33 
Q 55.609375 28.21875 55.609375 21.1875 
Q 55.609375 10.40625 48.1875 4.484375 
Q 40.765625 -1.421875 27.09375 -1.421875 
Q 22.515625 -1.421875 17.65625 -0.515625 
Q 12.796875 0.390625 7.625 2.203125 
L 7.625 11.71875 
Q 11.71875 9.328125 16.59375 8.109375 
Q 21.484375 6.890625 26.8125 6.890625 
Q 36.078125 6.890625 40.9375 10.546875 
Q 45.796875 14.203125 45.796875 21.1875 
Q 45.796875 27.640625 41.28125 31.265625 
Q 36.765625 34.90625 28.71875 34.90625 
L 20.21875 34.90625 
L 20.21875 43.015625 
L 29.109375 43.015625 
Q 36.375 43.015625 40.234375 45.921875 
Q 44.09375 48.828125 44.09375 54.296875 
Q 44.09375 59.90625 40.109375 62.90625 
Q 36.140625 65.921875 28.71875 65.921875 
Q 24.65625 65.921875 20.015625 65.03125 
Q 15.375 64.15625 9.8125 62.3125 
L 9.8125 71.09375 
Q 15.4375 72.65625 20.34375 73.4375 
Q 25.25 74.21875 29.59375 74.21875 
Q 40.828125 74.21875 47.359375 69.109375 
Q 53.90625 64.015625 53.90625 55.328125 
Q 53.90625 49.265625 50.4375 45.09375 
Q 46.96875 40.921875 40.578125 39.3125 
z
" id="DejaVuSans-51"/>
      </defs>
      <g transform="translate(26.3925 121.359129)scale(0.1 -0.1)">
       <use xlink:href="#DejaVuSans-51"/>
      </g>
     </g>
    </g>
    <g id="ytick_5">
     <g id="line2d_9">
      <g>
       <use style="stroke:#000000;stroke-width:0.8;" x="39.755" xlink:href="#m9c168640ce" y="75.927881"/>
      </g>
     </g>
     <g id="text_9">
      <!-- 4 -->
      <defs>
       <path d="M 37.796875 64.3125 
L 12.890625 25.390625 
L 37.796875 25.390625 
z
M 35.203125 72.90625 
L 47.609375 72.90625 
L 47.609375 25.390625 
L 58.015625 25.390625 
L 58.015625 17.1875 
L 47.609375 17.1875 
L 47.609375 0 
L 37.796875 0 
L 37.796875 17.1875 
L 4.890625 17.1875 
L 4.890625 26.703125 
z
" id="DejaVuSans-52"/>
      </defs>
      <g transform="translate(26.3925 79.727099)scale(0.1 -0.1)">
       <use xlink:href="#DejaVuSans-52"/>
      </g>
     </g>
    </g>
    <g id="text_10">
     <!-- $CO_2$ Equivalent (kg) -->
     <defs>
      <path d="M 69.484375 67.28125 
L 67.484375 56.890625 
Q 62.796875 61.625 57.546875 63.921875 
Q 52.296875 66.21875 46.1875 66.21875 
Q 37.84375 66.21875 31.515625 62.203125 
Q 25.203125 58.203125 20.609375 50 
Q 17.671875 44.734375 16.125 38.84375 
Q 14.59375 32.953125 14.59375 27 
Q 14.59375 17.046875 19.75 11.8125 
Q 24.90625 6.59375 34.71875 6.59375 
Q 41.5 6.59375 47.75 8.765625 
Q 54 10.9375 59.90625 15.28125 
L 57.625 3.609375 
Q 51.8125 1.125 45.875 -0.140625 
Q 39.9375 -1.421875 33.984375 -1.421875 
Q 19.96875 -1.421875 12.078125 6.1875 
Q 4.203125 13.8125 4.203125 27.390625 
Q 4.203125 36.078125 7.203125 44.46875 
Q 10.203125 52.875 15.828125 59.8125 
Q 21.78125 67.1875 29.421875 70.703125 
Q 37.0625 74.21875 47.21875 74.21875 
Q 53.46875 74.21875 59.0625 72.484375 
Q 64.65625 70.75 69.484375 67.28125 
z
" id="DejaVuSans-Oblique-67"/>
      <path d="M 45.609375 66.21875 
Q 37.5 66.21875 31.296875 62.28125 
Q 25.09375 58.34375 20.515625 50.296875 
Q 17.578125 45.171875 16.03125 39.40625 
Q 14.5 33.640625 14.5 27.78125 
Q 14.5 17.625 19.359375 12.109375 
Q 24.21875 6.59375 33.109375 6.59375 
Q 41.109375 6.59375 47.375 10.5625 
Q 53.65625 14.546875 58.109375 22.40625 
Q 61.078125 27.6875 62.640625 33.46875 
Q 64.203125 39.265625 64.203125 45.015625 
Q 64.203125 55.125 59.3125 60.671875 
Q 54.4375 66.21875 45.609375 66.21875 
z
M 32.8125 -1.421875 
Q 19.390625 -1.421875 11.6875 6.53125 
Q 4 14.5 4 28.328125 
Q 4 36.234375 7 44.484375 
Q 10.015625 52.734375 15.28125 59.1875 
Q 21.484375 66.75 29.09375 70.484375 
Q 36.71875 74.21875 45.90625 74.21875 
Q 59.28125 74.21875 66.984375 66.328125 
Q 74.703125 58.453125 74.703125 44.828125 
Q 74.703125 36.421875 71.765625 28.3125 
Q 68.84375 20.21875 63.375 13.625 
Q 57.125 6 49.578125 2.28125 
Q 42.046875 -1.421875 32.8125 -1.421875 
z
" id="DejaVuSans-Oblique-79"/>
      <path id="DejaVuSans-32"/>
      <path d="M 9.8125 72.90625 
L 55.90625 72.90625 
L 55.90625 64.59375 
L 19.671875 64.59375 
L 19.671875 43.015625 
L 54.390625 43.015625 
L 54.390625 34.71875 
L 19.671875 34.71875 
L 19.671875 8.296875 
L 56.78125 8.296875 
L 56.78125 0 
L 9.8125 0 
z
" id="DejaVuSans-69"/>
      <path d="M 14.796875 27.296875 
Q 14.796875 17.390625 18.875 11.75 
Q 22.953125 6.109375 30.078125 6.109375 
Q 37.203125 6.109375 41.296875 11.75 
Q 45.40625 17.390625 45.40625 27.296875 
Q 45.40625 37.203125 41.296875 42.84375 
Q 37.203125 48.484375 30.078125 48.484375 
Q 22.953125 48.484375 18.875 42.84375 
Q 14.796875 37.203125 14.796875 27.296875 
z
M 45.40625 8.203125 
Q 42.578125 3.328125 38.25 0.953125 
Q 33.9375 -1.421875 27.875 -1.421875 
Q 17.96875 -1.421875 11.734375 6.484375 
Q 5.515625 14.40625 5.515625 27.296875 
Q 5.515625 40.1875 11.734375 48.09375 
Q 17.96875 56 27.875 56 
Q 33.9375 56 38.25 53.625 
Q 42.578125 51.265625 45.40625 46.390625 
L 45.40625 54.6875 
L 54.390625 54.6875 
L 54.390625 -20.796875 
L 45.40625 -20.796875 
z
" id="DejaVuSans-113"/>
      <path d="M 8.5 21.578125 
L 8.5 54.6875 
L 17.484375 54.6875 
L 17.484375 21.921875 
Q 17.484375 14.15625 20.5 10.265625 
Q 23.53125 6.390625 29.59375 6.390625 
Q 36.859375 6.390625 41.078125 11.03125 
Q 45.3125 15.671875 45.3125 23.6875 
L 45.3125 54.6875 
L 54.296875 54.6875 
L 54.296875 0 
L 45.3125 0 
L 45.3125 8.40625 
Q 42.046875 3.421875 37.71875 1 
Q 33.40625 -1.421875 27.6875 -1.421875 
Q 18.265625 -1.421875 13.375 4.4375 
Q 8.5 10.296875 8.5 21.578125 
z
M 31.109375 56 
z
" id="DejaVuSans-117"/>
      <path d="M 2.984375 54.6875 
L 12.5 54.6875 
L 29.59375 8.796875 
L 46.6875 54.6875 
L 56.203125 54.6875 
L 35.6875 0 
L 23.484375 0 
z
" id="DejaVuSans-118"/>
      <path d="M 31 75.875 
Q 24.46875 64.65625 21.28125 53.65625 
Q 18.109375 42.671875 18.109375 31.390625 
Q 18.109375 20.125 21.3125 9.0625 
Q 24.515625 -2 31 -13.1875 
L 23.1875 -13.1875 
Q 15.875 -1.703125 12.234375 9.375 
Q 8.59375 20.453125 8.59375 31.390625 
Q 8.59375 42.28125 12.203125 53.3125 
Q 15.828125 64.359375 23.1875 75.875 
z
" id="DejaVuSans-40"/>
      <path d="M 9.078125 75.984375 
L 18.109375 75.984375 
L 18.109375 31.109375 
L 44.921875 54.6875 
L 56.390625 54.6875 
L 27.390625 29.109375 
L 57.625 0 
L 45.90625 0 
L 18.109375 26.703125 
L 18.109375 0 
L 9.078125 0 
z
" id="DejaVuSans-107"/>
      <path d="M 8.015625 75.875 
L 15.828125 75.875 
Q 23.140625 64.359375 26.78125 53.3125 
Q 30.421875 42.28125 30.421875 31.390625 
Q 30.421875 20.453125 26.78125 9.375 
Q 23.140625 -1.703125 15.828125 -13.1875 
L 8.015625 -13.1875 
Q 14.5 -2 17.703125 9.0625 
Q 20.90625 20.125 20.90625 31.390625 
Q 20.90625 42.671875 17.703125 53.65625 
Q 14.5 64.65625 8.015625 75.875 
z
" id="DejaVuSans-41"/>
     </defs>
     <g transform="translate(20.2925 188.838)rotate(-90)scale(0.1 -0.1)">
      <use transform="translate(0 0.015625)" xlink:href="#DejaVuSans-Oblique-67"/>
      <use transform="translate(69.824219 0.015625)" xlink:href="#DejaVuSans-Oblique-79"/>
      <use transform="translate(148.535156 -16.390625)scale(0.7)" xlink:href="#DejaVuSans-50"/>
      <use transform="translate(195.805664 0.015625)" xlink:href="#DejaVuSans-32"/>
      <use transform="translate(227.592773 0.015625)" xlink:href="#DejaVuSans-69"/>
      <use transform="translate(290.776367 0.015625)" xlink:href="#DejaVuSans-113"/>
      <use transform="translate(354.25293 0.015625)" xlink:href="#DejaVuSans-117"/>
      <use transform="translate(417.631836 0.015625)" xlink:href="#DejaVuSans-105"/>
      <use transform="translate(445.415039 0.015625)" xlink:href="#DejaVuSans-118"/>
      <use transform="translate(504.594727 0.015625)" xlink:href="#DejaVuSans-97"/>
      <use transform="translate(565.874023 0.015625)" xlink:href="#DejaVuSans-108"/>
      <use transform="translate(593.657227 0.015625)" xlink:href="#DejaVuSans-101"/>
      <use transform="translate(655.180664 0.015625)" xlink:href="#DejaVuSans-110"/>
      <use transform="translate(718.55957 0.015625)" xlink:href="#DejaVuSans-116"/>
      <use transform="translate(757.768555 0.015625)" xlink:href="#DejaVuSans-32"/>
      <use transform="translate(789.555664 0.015625)" xlink:href="#DejaVuSans-40"/>
      <use transform="translate(828.569336 0.015625)" xlink:href="#DejaVuSans-107"/>
      <use transform="translate(886.479492 0.015625)" xlink:href="#DejaVuSans-103"/>
      <use transform="translate(949.956055 0.015625)" xlink:href="#DejaVuSans-41"/>
     </g>
    </g>
    <g id="text_11">
     <!-- 1e6 -->
     <defs>
      <path d="M 33.015625 40.375 
Q 26.375 40.375 22.484375 35.828125 
Q 18.609375 31.296875 18.609375 23.390625 
Q 18.609375 15.53125 22.484375 10.953125 
Q 26.375 6.390625 33.015625 6.390625 
Q 39.65625 6.390625 43.53125 10.953125 
Q 47.40625 15.53125 47.40625 23.390625 
Q 47.40625 31.296875 43.53125 35.828125 
Q 39.65625 40.375 33.015625 40.375 
z
M 52.59375 71.296875 
L 52.59375 62.3125 
Q 48.875 64.0625 45.09375 64.984375 
Q 41.3125 65.921875 37.59375 65.921875 
Q 27.828125 65.921875 22.671875 59.328125 
Q 17.53125 52.734375 16.796875 39.40625 
Q 19.671875 43.65625 24.015625 45.921875 
Q 28.375 48.1875 33.59375 48.1875 
Q 44.578125 48.1875 50.953125 41.515625 
Q 57.328125 34.859375 57.328125 23.390625 
Q 57.328125 12.15625 50.6875 5.359375 
Q 44.046875 -1.421875 33.015625 -1.421875 
Q 20.359375 -1.421875 13.671875 8.265625 
Q 6.984375 17.96875 6.984375 36.375 
Q 6.984375 53.65625 15.1875 63.9375 
Q 23.390625 74.21875 37.203125 74.21875 
Q 40.921875 74.21875 44.703125 73.484375 
Q 48.484375 72.75 52.59375 71.296875 
z
" id="DejaVuSans-54"/>
     </defs>
     <g transform="translate(39.755 33.32)scale(0.1 -0.1)">
      <use xlink:href="#DejaVuSans-49"/>
      <use x="63.623047" xlink:href="#DejaVuSans-101"/>
      <use x="125.146484" xlink:href="#DejaVuSans-54"/>
     </g>
    </g>
   </g>
   <g id="patch_67">
    <path d="M 39.755 242.456 
L 39.755 36.32 
" style="fill:none;stroke:#000000;stroke-linecap:square;stroke-linejoin:miter;stroke-width:0.8;"/>
   </g>
   <g id="patch_68">
    <path d="M 345.325 242.456 
L 345.325 36.32 
" style="fill:none;stroke:#000000;stroke-linecap:square;stroke-linejoin:miter;stroke-width:0.8;"/>
   </g>
   <g id="patch_69">
    <path d="M 39.755 242.456 
L 345.325 242.456 
" style="fill:none;stroke:#000000;stroke-linecap:square;stroke-linejoin:miter;stroke-width:0.8;"/>
   </g>
   <g id="patch_70">
    <path d="M 39.755 36.32 
L 345.325 36.32 
" style="fill:none;stroke:#000000;stroke-linecap:square;stroke-linejoin:miter;stroke-width:0.8;"/>
   </g>
   <g id="text_12">
    <!-- $CO_2$ Equivalent (kg) by country for IETF96 (1902 participants) -->
    <defs>
     <path d="M 48.6875 27.296875 
Q 48.6875 37.203125 44.609375 42.84375 
Q 40.53125 48.484375 33.40625 48.484375 
Q 26.265625 48.484375 22.1875 42.84375 
Q 18.109375 37.203125 18.109375 27.296875 
Q 18.109375 17.390625 22.1875 11.75 
Q 26.265625 6.109375 33.40625 6.109375 
Q 40.53125 6.109375 44.609375 11.75 
Q 48.6875 17.390625 48.6875 27.296875 
z
M 18.109375 46.390625 
Q 20.953125 51.265625 25.265625 53.625 
Q 29.59375 56 35.59375 56 
Q 45.5625 56 51.78125 48.09375 
Q 58.015625 40.1875 58.015625 27.296875 
Q 58.015625 14.40625 51.78125 6.484375 
Q 45.5625 -1.421875 35.59375 -1.421875 
Q 29.59375 -1.421875 25.265625 0.953125 
Q 20.953125 3.328125 18.109375 8.203125 
L 18.109375 0 
L 9.078125 0 
L 9.078125 75.984375 
L 18.109375 75.984375 
z
" id="DejaVuSans-98"/>
     <path d="M 41.109375 46.296875 
Q 39.59375 47.171875 37.8125 47.578125 
Q 36.03125 48 33.890625 48 
Q 26.265625 48 22.1875 43.046875 
Q 18.109375 38.09375 18.109375 28.8125 
L 18.109375 0 
L 9.078125 0 
L 9.078125 54.6875 
L 18.109375 54.6875 
L 18.109375 46.1875 
Q 20.953125 51.171875 25.484375 53.578125 
Q 30.03125 56 36.53125 56 
Q 37.453125 56 38.578125 55.875 
Q 39.703125 55.765625 41.0625 55.515625 
z
" id="DejaVuSans-114"/>
     <path d="M 9.8125 72.90625 
L 19.671875 72.90625 
L 19.671875 0 
L 9.8125 0 
z
" id="DejaVuSans-73"/>
     <path d="M -0.296875 72.90625 
L 61.375 72.90625 
L 61.375 64.59375 
L 35.5 64.59375 
L 35.5 0 
L 25.59375 0 
L 25.59375 64.59375 
L -0.296875 64.59375 
z
" id="DejaVuSans-84"/>
     <path d="M 9.8125 72.90625 
L 51.703125 72.90625 
L 51.703125 64.59375 
L 19.671875 64.59375 
L 19.671875 43.109375 
L 48.578125 43.109375 
L 48.578125 34.8125 
L 19.671875 34.8125 
L 19.671875 0 
L 9.8125 0 
z
" id="DejaVuSans-70"/>
     <path d="M 10.984375 1.515625 
L 10.984375 10.5 
Q 14.703125 8.734375 18.5 7.8125 
Q 22.3125 6.890625 25.984375 6.890625 
Q 35.75 6.890625 40.890625 13.453125 
Q 46.046875 20.015625 46.78125 33.40625 
Q 43.953125 29.203125 39.59375 26.953125 
Q 35.25 24.703125 29.984375 24.703125 
Q 19.046875 24.703125 12.671875 31.3125 
Q 6.296875 37.9375 6.296875 49.421875 
Q 6.296875 60.640625 12.9375 67.421875 
Q 19.578125 74.21875 30.609375 74.21875 
Q 43.265625 74.21875 49.921875 64.515625 
Q 56.59375 54.828125 56.59375 36.375 
Q 56.59375 19.140625 48.40625 8.859375 
Q 40.234375 -1.421875 26.421875 -1.421875 
Q 22.703125 -1.421875 18.890625 -0.6875 
Q 15.09375 0.046875 10.984375 1.515625 
z
M 30.609375 32.421875 
Q 37.25 32.421875 41.125 36.953125 
Q 45.015625 41.5 45.015625 49.421875 
Q 45.015625 57.28125 41.125 61.84375 
Q 37.25 66.40625 30.609375 66.40625 
Q 23.96875 66.40625 20.09375 61.84375 
Q 16.21875 57.28125 16.21875 49.421875 
Q 16.21875 41.5 20.09375 36.953125 
Q 23.96875 32.421875 30.609375 32.421875 
z
" id="DejaVuSans-57"/>
     <path d="M 18.109375 8.203125 
L 18.109375 -20.796875 
L 9.078125 -20.796875 
L 9.078125 54.6875 
L 18.109375 54.6875 
L 18.109375 46.390625 
Q 20.953125 51.265625 25.265625 53.625 
Q 29.59375 56 35.59375 56 
Q 45.5625 56 51.78125 48.09375 
Q 58.015625 40.1875 58.015625 27.296875 
Q 58.015625 14.40625 51.78125 6.484375 
Q 45.5625 -1.421875 35.59375 -1.421875 
Q 29.59375 -1.421875 25.265625 0.953125 
Q 20.953125 3.328125 18.109375 8.203125 
z
M 48.6875 27.296875 
Q 48.6875 37.203125 44.609375 42.84375 
Q 40.53125 48.484375 33.40625 48.484375 
Q 26.265625 48.484375 22.1875 42.84375 
Q 18.109375 37.203125 18.109375 27.296875 
Q 18.109375 17.390625 22.1875 11.75 
Q 26.265625 6.109375 33.40625 6.109375 
Q 40.53125 6.109375 44.609375 11.75 
Q 48.6875 17.390625 48.6875 27.296875 
z
" id="DejaVuSans-112"/>
    </defs>
    <g transform="translate(7.2 16.32)scale(0.12 -0.12)">
     <use transform="translate(0 0.015625)" xlink:href="#DejaVuSans-Oblique-67"/>
     <use transform="translate(69.824219 0.015625)" xlink:href="#DejaVuSans-Oblique-79"/>
     <use transform="translate(148.535156 -16.390625)scale(0.7)" xlink:href="#DejaVuSans-50"/>
     <use transform="translate(195.805664 0.015625)" xlink:href="#DejaVuSans-32"/>
     <use transform="translate(227.592773 0.015625)" xlink:href="#DejaVuSans-69"/>
     <use transform="translate(290.776367 0.015625)" xlink:href="#DejaVuSans-113"/>
     <use transform="translate(354.25293 0.015625)" xlink:href="#DejaVuSans-117"/>
     <use transform="translate(417.631836 0.015625)" xlink:href="#DejaVuSans-105"/>
     <use transform="translate(445.415039 0.015625)" xlink:href="#DejaVuSans-118"/>
     <use transform="translate(504.594727 0.015625)" xlink:href="#DejaVuSans-97"/>
     <use transform="translate(565.874023 0.015625)" xlink:href="#DejaVuSans-108"/>
     <use transform="translate(593.657227 0.015625)" xlink:href="#DejaVuSans-101"/>
     <use transform="translate(655.180664 0.015625)" xlink:href="#DejaVuSans-110"/>
     <use transform="translate(718.55957 0.015625)" xlink:href="#DejaVuSans-116"/>
     <use transform="translate(757.768555 0.015625)" xlink:href="#DejaVuSans-32"/>
     <use transform="translate(789.555664 0.015625)" xlink:href="#DejaVuSans-40"/>
     <use transform="translate(828.569336 0.015625)" xlink:href="#DejaVuSans-107"/>
     <use transform="translate(886.479492 0.015625)" xlink:href="#DejaVuSans-103"/>
     <use transform="translate(949.956055 0.015625)" xlink:href="#DejaVuSans-41"/>
     <use transform="translate(988.969727 0.015625)" xlink:href="#DejaVuSans-32"/>
     <use transform="translate(1020.756836 0.015625)" xlink:href="#DejaVuSans-98"/>
     <use transform="translate(1084.233398 0.015625)" xlink:href="#DejaVuSans-121"/>
     <use transform="translate(1143.413086 0.015625)" xlink:href="#DejaVuSans-32"/>
     <use transform="translate(1175.200195 0.015625)" xlink:href="#DejaVuSans-99"/>
     <use transform="translate(1230.180664 0.015625)" xlink:href="#DejaVuSans-111"/>
     <use transform="translate(1291.362305 0.015625)" xlink:href="#DejaVuSans-117"/>
     <use transform="translate(1354.741211 0.015625)" xlink:href="#DejaVuSans-110"/>
     <use transform="translate(1418.120117 0.015625)" xlink:href="#DejaVuSans-116"/>
     <use transform="translate(1457.329102 0.015625)" xlink:href="#DejaVuSans-114"/>
     <use transform="translate(1498.442383 0.015625)" xlink:href="#DejaVuSans-121"/>
     <use transform="translate(1557.62207 0.015625)" xlink:href="#DejaVuSans-32"/>
     <use transform="translate(1589.40918 0.015625)" xlink:href="#DejaVuSans-102"/>
     <use transform="translate(1624.614258 0.015625)" xlink:href="#DejaVuSans-111"/>
     <use transform="translate(1685.795898 0.015625)" xlink:href="#DejaVuSans-114"/>
     <use transform="translate(1726.90918 0.015625)" xlink:href="#DejaVuSans-32"/>
     <use transform="translate(1758.696289 0.015625)" xlink:href="#DejaVuSans-73"/>
     <use transform="translate(1788.188477 0.015625)" xlink:href="#DejaVuSans-69"/>
     <use transform="translate(1851.37207 0.015625)" xlink:href="#DejaVuSans-84"/>
     <use transform="translate(1912.456055 0.015625)" xlink:href="#DejaVuSans-70"/>
     <use transform="translate(1969.975586 0.015625)" xlink:href="#DejaVuSans-57"/>
     <use transform="translate(2033.598633 0.015625)" xlink:href="#DejaVuSans-54"/>
     <use transform="translate(2097.22168 0.015625)" xlink:href="#DejaVuSans-32"/>
     <use transform="translate(2129.008789 0.015625)" xlink:href="#DejaVuSans-40"/>
     <use transform="translate(2168.022461 0.015625)" xlink:href="#DejaVuSans-49"/>
     <use transform="translate(2231.645508 0.015625)" xlink:href="#DejaVuSans-57"/>
     <use transform="translate(2295.268555 0.015625)" xlink:href="#DejaVuSans-48"/>
     <use transform="translate(2358.891602 0.015625)" xlink:href="#DejaVuSans-50"/>
     <use transform="translate(2422.514648 0.015625)" xlink:href="#DejaVuSans-32"/>
     <use transform="translate(2454.301758 0.015625)" xlink:href="#DejaVuSans-112"/>
     <use transform="translate(2517.77832 0.015625)" xlink:href="#DejaVuSans-97"/>
     <use transform="translate(2579.057617 0.015625)" xlink:href="#DejaVuSans-114"/>
     <use transform="translate(2620.170898 0.015625)" xlink:href="#DejaVuSans-116"/>
     <use transform="translate(2659.379883 0.015625)" xlink:href="#DejaVuSans-105"/>
     <use transform="translate(2687.163086 0.015625)" xlink:href="#DejaVuSans-99"/>
     <use transform="translate(2742.143555 0.015625)" xlink:href="#DejaVuSans-105"/>
     <use transform="translate(2769.926758 0.015625)" xlink:href="#DejaVuSans-112"/>
     <use transform="translate(2833.40332 0.015625)" xlink:href="#DejaVuSans-97"/>
     <use transform="translate(2894.682617 0.015625)" xlink:href="#DejaVuSans-110"/>
     <use transform="translate(2958.061523 0.015625)" xlink:href="#DejaVuSans-116"/>
     <use transform="translate(2997.270508 0.015625)" xlink:href="#DejaVuSans-115"/>
     <use transform="translate(3049.370117 0.015625)" xlink:href="#DejaVuSans-41"/>
    </g>
   </g>
   <g id="legend_1">
    <g id="patch_71">
     <path d="M 352.325 258.5564 
L 417.928125 258.5564 
Q 419.928125 258.5564 419.928125 256.5564 
L 419.928125 22.7064 
Q 419.928125 20.7064 417.928125 20.7064 
L 352.325 20.7064 
Q 350.325 20.7064 350.325 22.7064 
L 350.325 256.5564 
Q 350.325 258.5564 352.325 258.5564 
z
" style="fill:#ffffff;opacity:0.8;stroke:#cccccc;stroke-linejoin:miter;"/>
    </g>
    <g id="patch_72">
     <path d="M 354.325 32.304837 
L 374.325 32.304837 
L 374.325 25.304837 
L 354.325 25.304837 
z
" style="fill:#1f77b4;"/>
    </g>
    <g id="text_13">
     <!-- US -->
     <defs>
      <path d="M 8.6875 72.90625 
L 18.609375 72.90625 
L 18.609375 28.609375 
Q 18.609375 16.890625 22.84375 11.734375 
Q 27.09375 6.59375 36.625 6.59375 
Q 46.09375 6.59375 50.34375 11.734375 
Q 54.59375 16.890625 54.59375 28.609375 
L 54.59375 72.90625 
L 64.5 72.90625 
L 64.5 27.390625 
Q 64.5 13.140625 57.4375 5.859375 
Q 50.390625 -1.421875 36.625 -1.421875 
Q 22.796875 -1.421875 15.734375 5.859375 
Q 8.6875 13.140625 8.6875 27.390625 
z
" id="DejaVuSans-85"/>
      <path d="M 53.515625 70.515625 
L 53.515625 60.890625 
Q 47.90625 63.578125 42.921875 64.890625 
Q 37.9375 66.21875 33.296875 66.21875 
Q 25.25 66.21875 20.875 63.09375 
Q 16.5 59.96875 16.5 54.203125 
Q 16.5 49.359375 19.40625 46.890625 
Q 22.3125 44.4375 30.421875 42.921875 
L 36.375 41.703125 
Q 47.40625 39.59375 52.65625 34.296875 
Q 57.90625 29 57.90625 20.125 
Q 57.90625 9.515625 50.796875 4.046875 
Q 43.703125 -1.421875 29.984375 -1.421875 
Q 24.8125 -1.421875 18.96875 -0.25 
Q 13.140625 0.921875 6.890625 3.21875 
L 6.890625 13.375 
Q 12.890625 10.015625 18.65625 8.296875 
Q 24.421875 6.59375 29.984375 6.59375 
Q 38.421875 6.59375 43.015625 9.90625 
Q 47.609375 13.234375 47.609375 19.390625 
Q 47.609375 24.75 44.3125 27.78125 
Q 41.015625 30.8125 33.5 32.328125 
L 27.484375 33.5 
Q 16.453125 35.6875 11.515625 40.375 
Q 6.59375 45.0625 6.59375 53.421875 
Q 6.59375 63.09375 13.40625 68.65625 
Q 20.21875 74.21875 32.171875 74.21875 
Q 37.3125 74.21875 42.625 73.28125 
Q 47.953125 72.359375 53.515625 70.515625 
z
" id="DejaVuSans-83"/>
     </defs>
     <g transform="translate(382.325 32.304837)scale(0.1 -0.1)">
      <use xlink:href="#DejaVuSans-85"/>
      <use x="73.193359" xlink:href="#DejaVuSans-83"/>
     </g>
    </g>
    <g id="patch_73">
     <path d="M 354.325 46.982962 
L 374.325 46.982962 
L 374.325 39.982962 
L 354.325 39.982962 
z
" style="fill:#ff7f0e;"/>
    </g>
    <g id="text_14">
     <!-- CN -->
     <defs>
      <path d="M 64.40625 67.28125 
L 64.40625 56.890625 
Q 59.421875 61.53125 53.78125 63.8125 
Q 48.140625 66.109375 41.796875 66.109375 
Q 29.296875 66.109375 22.65625 58.46875 
Q 16.015625 50.828125 16.015625 36.375 
Q 16.015625 21.96875 22.65625 14.328125 
Q 29.296875 6.6875 41.796875 6.6875 
Q 48.140625 6.6875 53.78125 8.984375 
Q 59.421875 11.28125 64.40625 15.921875 
L 64.40625 5.609375 
Q 59.234375 2.09375 53.4375 0.328125 
Q 47.65625 -1.421875 41.21875 -1.421875 
Q 24.65625 -1.421875 15.125 8.703125 
Q 5.609375 18.84375 5.609375 36.375 
Q 5.609375 53.953125 15.125 64.078125 
Q 24.65625 74.21875 41.21875 74.21875 
Q 47.75 74.21875 53.53125 72.484375 
Q 59.328125 70.75 64.40625 67.28125 
z
" id="DejaVuSans-67"/>
      <path d="M 9.8125 72.90625 
L 23.09375 72.90625 
L 55.421875 11.921875 
L 55.421875 72.90625 
L 64.984375 72.90625 
L 64.984375 0 
L 51.703125 0 
L 19.390625 60.984375 
L 19.390625 0 
L 9.8125 0 
z
" id="DejaVuSans-78"/>
     </defs>
     <g transform="translate(382.325 46.982962)scale(0.1 -0.1)">
      <use xlink:href="#DejaVuSans-67"/>
      <use x="69.824219" xlink:href="#DejaVuSans-78"/>
     </g>
    </g>
    <g id="patch_74">
     <path d="M 354.325 61.661087 
L 374.325 61.661087 
L 374.325 54.661087 
L 354.325 54.661087 
z
" style="fill:#2ca02c;"/>
    </g>
    <g id="text_15">
     <!-- BR -->
     <defs>
      <path d="M 19.671875 34.8125 
L 19.671875 8.109375 
L 35.5 8.109375 
Q 43.453125 8.109375 47.28125 11.40625 
Q 51.125 14.703125 51.125 21.484375 
Q 51.125 28.328125 47.28125 31.5625 
Q 43.453125 34.8125 35.5 34.8125 
z
M 19.671875 64.796875 
L 19.671875 42.828125 
L 34.28125 42.828125 
Q 41.5 42.828125 45.03125 45.53125 
Q 48.578125 48.25 48.578125 53.8125 
Q 48.578125 59.328125 45.03125 62.0625 
Q 41.5 64.796875 34.28125 64.796875 
z
M 9.8125 72.90625 
L 35.015625 72.90625 
Q 46.296875 72.90625 52.390625 68.21875 
Q 58.5 63.53125 58.5 54.890625 
Q 58.5 48.1875 55.375 44.234375 
Q 52.25 40.28125 46.1875 39.3125 
Q 53.46875 37.75 57.5 32.78125 
Q 61.53125 27.828125 61.53125 20.40625 
Q 61.53125 10.640625 54.890625 5.3125 
Q 48.25 0 35.984375 0 
L 9.8125 0 
z
" id="DejaVuSans-66"/>
      <path d="M 44.390625 34.1875 
Q 47.5625 33.109375 50.5625 29.59375 
Q 53.5625 26.078125 56.59375 19.921875 
L 66.609375 0 
L 56 0 
L 46.6875 18.703125 
Q 43.0625 26.03125 39.671875 28.421875 
Q 36.28125 30.8125 30.421875 30.8125 
L 19.671875 30.8125 
L 19.671875 0 
L 9.8125 0 
L 9.8125 72.90625 
L 32.078125 72.90625 
Q 44.578125 72.90625 50.734375 67.671875 
Q 56.890625 62.453125 56.890625 51.90625 
Q 56.890625 45.015625 53.6875 40.46875 
Q 50.484375 35.9375 44.390625 34.1875 
z
M 19.671875 64.796875 
L 19.671875 38.921875 
L 32.078125 38.921875 
Q 39.203125 38.921875 42.84375 42.21875 
Q 46.484375 45.515625 46.484375 51.90625 
Q 46.484375 58.296875 42.84375 61.546875 
Q 39.203125 64.796875 32.078125 64.796875 
z
" id="DejaVuSans-82"/>
     </defs>
     <g transform="translate(382.325 61.661087)scale(0.1 -0.1)">
      <use xlink:href="#DejaVuSans-66"/>
      <use x="68.603516" xlink:href="#DejaVuSans-82"/>
     </g>
    </g>
    <g id="patch_75">
     <path d="M 354.325 76.339212 
L 374.325 76.339212 
L 374.325 69.339212 
L 354.325 69.339212 
z
" style="fill:#d62728;"/>
    </g>
    <g id="text_16">
     <!-- IN -->
     <g transform="translate(382.325 76.339212)scale(0.1 -0.1)">
      <use xlink:href="#DejaVuSans-73"/>
      <use x="29.492188" xlink:href="#DejaVuSans-78"/>
     </g>
    </g>
    <g id="patch_76">
     <path d="M 354.325 91.017337 
L 374.325 91.017337 
L 374.325 84.017337 
L 354.325 84.017337 
z
" style="fill:#9467bd;"/>
    </g>
    <g id="text_17">
     <!-- JP -->
     <defs>
      <path d="M 9.8125 72.90625 
L 19.671875 72.90625 
L 19.671875 5.078125 
Q 19.671875 -8.109375 14.671875 -14.0625 
Q 9.671875 -20.015625 -1.421875 -20.015625 
L -5.171875 -20.015625 
L -5.171875 -11.71875 
L -2.09375 -11.71875 
Q 4.4375 -11.71875 7.125 -8.046875 
Q 9.8125 -4.390625 9.8125 5.078125 
z
" id="DejaVuSans-74"/>
      <path d="M 19.671875 64.796875 
L 19.671875 37.40625 
L 32.078125 37.40625 
Q 38.96875 37.40625 42.71875 40.96875 
Q 46.484375 44.53125 46.484375 51.125 
Q 46.484375 57.671875 42.71875 61.234375 
Q 38.96875 64.796875 32.078125 64.796875 
z
M 9.8125 72.90625 
L 32.078125 72.90625 
Q 44.34375 72.90625 50.609375 67.359375 
Q 56.890625 61.8125 56.890625 51.125 
Q 56.890625 40.328125 50.609375 34.8125 
Q 44.34375 29.296875 32.078125 29.296875 
L 19.671875 29.296875 
L 19.671875 0 
L 9.8125 0 
z
" id="DejaVuSans-80"/>
     </defs>
     <g transform="translate(382.325 91.017337)scale(0.1 -0.1)">
      <use xlink:href="#DejaVuSans-74"/>
      <use x="29.492188" xlink:href="#DejaVuSans-80"/>
     </g>
    </g>
    <g id="patch_77">
     <path d="M 354.325 105.695462 
L 374.325 105.695462 
L 374.325 98.695462 
L 354.325 98.695462 
z
" style="fill:#8c564b;"/>
    </g>
    <g id="text_18">
     <!-- KR -->
     <defs>
      <path d="M 9.8125 72.90625 
L 19.671875 72.90625 
L 19.671875 42.09375 
L 52.390625 72.90625 
L 65.09375 72.90625 
L 28.90625 38.921875 
L 67.671875 0 
L 54.6875 0 
L 19.671875 35.109375 
L 19.671875 0 
L 9.8125 0 
z
" id="DejaVuSans-75"/>
     </defs>
     <g transform="translate(382.325 105.695462)scale(0.1 -0.1)">
      <use xlink:href="#DejaVuSans-75"/>
      <use x="65.576172" xlink:href="#DejaVuSans-82"/>
     </g>
    </g>
    <g id="patch_78">
     <path d="M 354.325 120.373587 
L 374.325 120.373587 
L 374.325 113.373587 
L 354.325 113.373587 
z
" style="fill:#e377c2;"/>
    </g>
    <g id="text_19">
     <!-- CA -->
     <defs>
      <path d="M 34.1875 63.1875 
L 20.796875 26.90625 
L 47.609375 26.90625 
z
M 28.609375 72.90625 
L 39.796875 72.90625 
L 67.578125 0 
L 57.328125 0 
L 50.6875 18.703125 
L 17.828125 18.703125 
L 11.1875 0 
L 0.78125 0 
z
" id="DejaVuSans-65"/>
     </defs>
     <g transform="translate(382.325 120.373587)scale(0.1 -0.1)">
      <use xlink:href="#DejaVuSans-67"/>
      <use x="69.824219" xlink:href="#DejaVuSans-65"/>
     </g>
    </g>
    <g id="patch_79">
     <path d="M 354.325 135.051712 
L 374.325 135.051712 
L 374.325 128.051712 
L 354.325 128.051712 
z
" style="fill:#7f7f7f;"/>
    </g>
    <g id="text_20">
     <!-- AU -->
     <g transform="translate(382.325 135.051712)scale(0.1 -0.1)">
      <use xlink:href="#DejaVuSans-65"/>
      <use x="68.408203" xlink:href="#DejaVuSans-85"/>
     </g>
    </g>
    <g id="patch_80">
     <path d="M 354.325 149.729837 
L 374.325 149.729837 
L 374.325 142.729837 
L 354.325 142.729837 
z
" style="fill:#bcbd22;"/>
    </g>
    <g id="text_21">
     <!-- GB -->
     <defs>
      <path d="M 59.515625 10.40625 
L 59.515625 29.984375 
L 43.40625 29.984375 
L 43.40625 38.09375 
L 69.28125 38.09375 
L 69.28125 6.78125 
Q 63.578125 2.734375 56.6875 0.65625 
Q 49.8125 -1.421875 42 -1.421875 
Q 24.90625 -1.421875 15.25 8.5625 
Q 5.609375 18.5625 5.609375 36.375 
Q 5.609375 54.25 15.25 64.234375 
Q 24.90625 74.21875 42 74.21875 
Q 49.125 74.21875 55.546875 72.453125 
Q 61.96875 70.703125 67.390625 67.28125 
L 67.390625 56.78125 
Q 61.921875 61.421875 55.765625 63.765625 
Q 49.609375 66.109375 42.828125 66.109375 
Q 29.4375 66.109375 22.71875 58.640625 
Q 16.015625 51.171875 16.015625 36.375 
Q 16.015625 21.625 22.71875 14.15625 
Q 29.4375 6.6875 42.828125 6.6875 
Q 48.046875 6.6875 52.140625 7.59375 
Q 56.25 8.5 59.515625 10.40625 
z
" id="DejaVuSans-71"/>
     </defs>
     <g transform="translate(382.325 149.729837)scale(0.1 -0.1)">
      <use xlink:href="#DejaVuSans-71"/>
      <use x="77.490234" xlink:href="#DejaVuSans-66"/>
     </g>
    </g>
    <g id="patch_81">
     <path d="M 354.325 164.407962 
L 374.325 164.407962 
L 374.325 157.407962 
L 354.325 157.407962 
z
" style="fill:#17becf;"/>
    </g>
    <g id="text_22">
     <!-- AR -->
     <g transform="translate(382.325 164.407962)scale(0.1 -0.1)">
      <use xlink:href="#DejaVuSans-65"/>
      <use x="68.408203" xlink:href="#DejaVuSans-82"/>
     </g>
    </g>
    <g id="patch_82">
     <path d="M 354.325 179.086087 
L 374.325 179.086087 
L 374.325 172.086087 
L 354.325 172.086087 
z
" style="fill:#1f77b4;"/>
    </g>
    <g id="text_23">
     <!-- FR -->
     <g transform="translate(382.325 179.086087)scale(0.1 -0.1)">
      <use xlink:href="#DejaVuSans-70"/>
      <use x="57.519531" xlink:href="#DejaVuSans-82"/>
     </g>
    </g>
    <g id="patch_83">
     <path d="M 354.325 193.764212 
L 374.325 193.764212 
L 374.325 186.764212 
L 354.325 186.764212 
z
" style="fill:#ff7f0e;"/>
    </g>
    <g id="text_24">
     <!-- SE -->
     <g transform="translate(382.325 193.764212)scale(0.1 -0.1)">
      <use xlink:href="#DejaVuSans-83"/>
      <use x="63.476562" xlink:href="#DejaVuSans-69"/>
     </g>
    </g>
    <g id="patch_84">
     <path d="M 354.325 208.442337 
L 374.325 208.442337 
L 374.325 201.442337 
L 354.325 201.442337 
z
" style="fill:#2ca02c;"/>
    </g>
    <g id="text_25">
     <!-- NZ -->
     <defs>
      <path d="M 5.609375 72.90625 
L 62.890625 72.90625 
L 62.890625 65.375 
L 16.796875 8.296875 
L 64.015625 8.296875 
L 64.015625 0 
L 4.5 0 
L 4.5 7.515625 
L 50.59375 64.59375 
L 5.609375 64.59375 
z
" id="DejaVuSans-90"/>
     </defs>
     <g transform="translate(382.325 208.442337)scale(0.1 -0.1)">
      <use xlink:href="#DejaVuSans-78"/>
      <use x="74.804688" xlink:href="#DejaVuSans-90"/>
     </g>
    </g>
    <g id="patch_85">
     <path d="M 354.325 223.120462 
L 374.325 223.120462 
L 374.325 216.120462 
L 354.325 216.120462 
z
" style="fill:#d62728;"/>
    </g>
    <g id="text_26">
     <!-- ES -->
     <g transform="translate(382.325 223.120462)scale(0.1 -0.1)">
      <use xlink:href="#DejaVuSans-69"/>
      <use x="63.183594" xlink:href="#DejaVuSans-83"/>
     </g>
    </g>
    <g id="patch_86">
     <path d="M 354.325 237.798587 
L 374.325 237.798587 
L 374.325 230.798587 
L 354.325 230.798587 
z
" style="fill:#9467bd;"/>
    </g>
    <g id="text_27">
     <!-- CL -->
     <defs>
      <path d="M 9.8125 72.90625 
L 19.671875 72.90625 
L 19.671875 8.296875 
L 55.171875 8.296875 
L 55.171875 0 
L 9.8125 0 
z
" id="DejaVuSans-76"/>
     </defs>
     <g transform="translate(382.325 237.798587)scale(0.1 -0.1)">
      <use xlink:href="#DejaVuSans-67"/>
      <use x="69.824219" xlink:href="#DejaVuSans-76"/>
     </g>
    </g>
    <g id="patch_87">
     <path d="M 354.325 252.476712 
L 374.325 252.476712 
L 374.325 245.476712 
L 354.325 245.476712 
z
" style="fill:#8c564b;"/>
    </g>
    <g id="text_28">
     <!-- Others -->
     <defs>
      <path d="M 39.40625 66.21875 
Q 28.65625 66.21875 22.328125 58.203125 
Q 16.015625 50.203125 16.015625 36.375 
Q 16.015625 22.609375 22.328125 14.59375 
Q 28.65625 6.59375 39.40625 6.59375 
Q 50.140625 6.59375 56.421875 14.59375 
Q 62.703125 22.609375 62.703125 36.375 
Q 62.703125 50.203125 56.421875 58.203125 
Q 50.140625 66.21875 39.40625 66.21875 
z
M 39.40625 74.21875 
Q 54.734375 74.21875 63.90625 63.9375 
Q 73.09375 53.65625 73.09375 36.375 
Q 73.09375 19.140625 63.90625 8.859375 
Q 54.734375 -1.421875 39.40625 -1.421875 
Q 24.03125 -1.421875 14.8125 8.828125 
Q 5.609375 19.09375 5.609375 36.375 
Q 5.609375 53.65625 14.8125 63.9375 
Q 24.03125 74.21875 39.40625 74.21875 
z
" id="DejaVuSans-79"/>
     </defs>
     <g transform="translate(382.325 252.476712)scale(0.1 -0.1)">
      <use xlink:href="#DejaVuSans-79"/>
      <use x="78.710938" xlink:href="#DejaVuSans-116"/>
      <use x="117.919922" xlink:href="#DejaVuSans-104"/>
      <use x="181.298828" xlink:href="#DejaVuSans-101"/>
      <use x="242.822266" xlink:href="#DejaVuSans-114"/>
      <use x="283.935547" xlink:href="#DejaVuSans-115"/>
     </g>
    </g>
   </g>
  </g>
 </g>
 <defs>
  <clipPath id="pb94877696a">
   <rect height="206.136" width="305.57" x="39.755" y="36.32"/>
  </clipPath>
 </defs>
</svg>
