<?xml version="1.0" encoding="utf-8" standalone="no"?>
<!DOCTYPE svg PUBLIC "-//W3C//DTD SVG 1.1//EN"
  "http://www.w3.org/Graphics/SVG/1.1/DTD/svg11.dtd">
<svg xmlns:xlink="http://www.w3.org/1999/xlink" width="413.392813pt" height="281.95625pt" viewBox="0 0 413.392813 281.95625" xmlns="http://www.w3.org/2000/svg" version="1.1">
 <metadata>
  <rdf:RDF xmlns:dc="http://purl.org/dc/elements/1.1/" xmlns:cc="http://creativecommons.org/ns#" xmlns:rdf="http://www.w3.org/1999/02/22-rdf-syntax-ns#">
   <cc:Work>
    <dc:type rdf:resource="http://purl.org/dc/dcmitype/StillImage"/>
    <dc:date>2023-06-07T10:07:22.081707</dc:date>
    <dc:format>image/svg+xml</dc:format>
    <dc:creator>
     <cc:Agent>
      <dc:title>Matplotlib v3.7.1, https://matplotlib.org/</dc:title>
     </cc:Agent>
    </dc:creator>
   </cc:Work>
  </rdf:RDF>
 </metadata>
 <defs>
  <style type="text/css">*{stroke-linejoin: round; stroke-linecap: butt}</style>
 </defs>
 <g id="figure_1">
  <g id="patch_1">
   <path d="M -0 281.95625 
L 413.392813 281.95625 
L 413.392813 0 
L -0 0 
z
" style="fill: #ffffff"/>
  </g>
  <g id="axes_1">
   <g id="patch_2">
    <path d="M 148.944375 258.078125 
L 260.544375 258.078125 
L 260.544375 36.318125 
L 148.944375 36.318125 
z
" style="fill: #ffffff"/>
   </g>
   <g id="patch_3">
    <path d="M 154.017102 258.078125 
L 255.471648 258.078125 
L 255.471648 222.217908 
L 154.017102 222.217908 
z
" clip-path="url(#p9872bb9343)" style="fill: #1f77b4"/>
   </g>
   <g id="patch_4">
    <path d="M 154.017102 222.217908 
L 255.471648 222.217908 
L 255.471648 218.256605 
L 154.017102 218.256605 
z
" clip-path="url(#p9872bb9343)" style="fill: #ff7f0e"/>
   </g>
   <g id="patch_5">
    <path d="M 154.017102 218.256605 
L 255.471648 218.256605 
L 255.471648 214.608036 
L 154.017102 214.608036 
z
" clip-path="url(#p9872bb9343)" style="fill: #2ca02c"/>
   </g>
   <g id="patch_6">
    <path d="M 154.017102 214.608036 
L 255.471648 214.608036 
L 255.471648 211.063712 
L 154.017102 211.063712 
z
" clip-path="url(#p9872bb9343)" style="fill: #d62728"/>
   </g>
   <g id="patch_7">
    <path d="M 154.017102 210.959468 
L 255.471648 210.959468 
L 255.471648 207.415144 
L 154.017102 207.415144 
z
" clip-path="url(#p9872bb9343)" style="fill: #9467bd"/>
   </g>
   <g id="patch_8">
    <path d="M 154.017102 207.415144 
L 255.471648 207.415144 
L 255.471648 204.496289 
L 154.017102 204.496289 
z
" clip-path="url(#p9872bb9343)" style="fill: #8c564b"/>
   </g>
   <g id="patch_9">
    <path d="M 154.017102 204.496289 
L 255.471648 204.496289 
L 255.471648 201.785924 
L 154.017102 201.785924 
z
" clip-path="url(#p9872bb9343)" style="fill: #e377c2"/>
   </g>
   <g id="patch_10">
    <path d="M 154.017102 201.577434 
L 255.471648 201.577434 
L 255.471648 198.867069 
L 154.017102 198.867069 
z
" clip-path="url(#p9872bb9343)" style="fill: #7f7f7f"/>
   </g>
   <g id="patch_11">
    <path d="M 154.017102 198.867069 
L 255.471648 198.867069 
L 255.471648 196.990662 
L 154.017102 196.990662 
z
" clip-path="url(#p9872bb9343)" style="fill: #bcbd22"/>
   </g>
   <g id="patch_12">
    <path d="M 154.017102 196.156703 
L 255.471648 196.156703 
L 255.471648 194.280297 
L 154.017102 194.280297 
z
" clip-path="url(#p9872bb9343)" style="fill: #17becf"/>
   </g>
   <g id="patch_13">
    <path d="M 154.017102 194.280297 
L 255.471648 194.280297 
L 255.471648 192.925114 
L 154.017102 192.925114 
z
" clip-path="url(#p9872bb9343)" style="fill: #1f77b4"/>
   </g>
   <g id="patch_14">
    <path d="M 154.017102 192.40389 
L 255.471648 192.40389 
L 255.471648 191.048707 
L 154.017102 191.048707 
z
" clip-path="url(#p9872bb9343)" style="fill: #ff7f0e"/>
   </g>
   <g id="patch_15">
    <path d="M 154.017102 190.527483 
L 255.471648 190.527483 
L 255.471648 189.172301 
L 154.017102 189.172301 
z
" clip-path="url(#p9872bb9343)" style="fill: #2ca02c"/>
   </g>
   <g id="patch_16">
    <path d="M 154.017102 189.172301 
L 255.471648 189.172301 
L 255.471648 188.129853 
L 154.017102 188.129853 
z
" clip-path="url(#p9872bb9343)" style="fill: #d62728"/>
   </g>
   <g id="patch_17">
    <path d="M 154.017102 187.817118 
L 255.471648 187.817118 
L 255.471648 186.77467 
L 154.017102 186.77467 
z
" clip-path="url(#p9872bb9343)" style="fill: #9467bd"/>
   </g>
   <g id="patch_18">
    <path d="M 154.017102 186.77467 
L 255.471648 186.77467 
L 255.471648 46.878125 
L 154.017102 46.878125 
z
" clip-path="url(#p9872bb9343)" style="fill: #8c564b"/>
   </g>
   <g id="matplotlib.axis_1">
    <g id="xtick_1">
     <g id="line2d_1">
      <defs>
       <path id="mbb5be36a0f" d="M 0 0 
L 0 3.5 
" style="stroke: #000000; stroke-width: 0.8"/>
      </defs>
      <g>
       <use xlink:href="#mbb5be36a0f" x="204.744375" y="258.078125" style="stroke: #000000; stroke-width: 0.8"/>
      </g>
     </g>
     <g id="text_1">
      <!-- attendee -->
      <g transform="translate(182.187344 272.676562) scale(0.1 -0.1)">
       <defs>
        <path id="DejaVuSans-61" d="M 2194 1759 
Q 1497 1759 1228 1600 
Q 959 1441 959 1056 
Q 959 750 1161 570 
Q 1363 391 1709 391 
Q 2188 391 2477 730 
Q 2766 1069 2766 1631 
L 2766 1759 
L 2194 1759 
z
M 3341 1997 
L 3341 0 
L 2766 0 
L 2766 531 
Q 2569 213 2275 61 
Q 1981 -91 1556 -91 
Q 1019 -91 701 211 
Q 384 513 384 1019 
Q 384 1609 779 1909 
Q 1175 2209 1959 2209 
L 2766 2209 
L 2766 2266 
Q 2766 2663 2505 2880 
Q 2244 3097 1772 3097 
Q 1472 3097 1187 3025 
Q 903 2953 641 2809 
L 641 3341 
Q 956 3463 1253 3523 
Q 1550 3584 1831 3584 
Q 2591 3584 2966 3190 
Q 3341 2797 3341 1997 
z
" transform="scale(0.015625)"/>
        <path id="DejaVuSans-74" d="M 1172 4494 
L 1172 3500 
L 2356 3500 
L 2356 3053 
L 1172 3053 
L 1172 1153 
Q 1172 725 1289 603 
Q 1406 481 1766 481 
L 2356 481 
L 2356 0 
L 1766 0 
Q 1100 0 847 248 
Q 594 497 594 1153 
L 594 3053 
L 172 3053 
L 172 3500 
L 594 3500 
L 594 4494 
L 1172 4494 
z
" transform="scale(0.015625)"/>
        <path id="DejaVuSans-65" d="M 3597 1894 
L 3597 1613 
L 953 1613 
Q 991 1019 1311 708 
Q 1631 397 2203 397 
Q 2534 397 2845 478 
Q 3156 559 3463 722 
L 3463 178 
Q 3153 47 2828 -22 
Q 2503 -91 2169 -91 
Q 1331 -91 842 396 
Q 353 884 353 1716 
Q 353 2575 817 3079 
Q 1281 3584 2069 3584 
Q 2775 3584 3186 3129 
Q 3597 2675 3597 1894 
z
M 3022 2063 
Q 3016 2534 2758 2815 
Q 2500 3097 2075 3097 
Q 1594 3097 1305 2825 
Q 1016 2553 972 2059 
L 3022 2063 
z
" transform="scale(0.015625)"/>
        <path id="DejaVuSans-6e" d="M 3513 2113 
L 3513 0 
L 2938 0 
L 2938 2094 
Q 2938 2591 2744 2837 
Q 2550 3084 2163 3084 
Q 1697 3084 1428 2787 
Q 1159 2491 1159 1978 
L 1159 0 
L 581 0 
L 581 3500 
L 1159 3500 
L 1159 2956 
Q 1366 3272 1645 3428 
Q 1925 3584 2291 3584 
Q 2894 3584 3203 3211 
Q 3513 2838 3513 2113 
z
" transform="scale(0.015625)"/>
        <path id="DejaVuSans-64" d="M 2906 2969 
L 2906 4863 
L 3481 4863 
L 3481 0 
L 2906 0 
L 2906 525 
Q 2725 213 2448 61 
Q 2172 -91 1784 -91 
Q 1150 -91 751 415 
Q 353 922 353 1747 
Q 353 2572 751 3078 
Q 1150 3584 1784 3584 
Q 2172 3584 2448 3432 
Q 2725 3281 2906 2969 
z
M 947 1747 
Q 947 1113 1208 752 
Q 1469 391 1925 391 
Q 2381 391 2643 752 
Q 2906 1113 2906 1747 
Q 2906 2381 2643 2742 
Q 2381 3103 1925 3103 
Q 1469 3103 1208 2742 
Q 947 2381 947 1747 
z
" transform="scale(0.015625)"/>
       </defs>
       <use xlink:href="#DejaVuSans-61"/>
       <use xlink:href="#DejaVuSans-74" x="61.279297"/>
       <use xlink:href="#DejaVuSans-74" x="100.488281"/>
       <use xlink:href="#DejaVuSans-65" x="139.697266"/>
       <use xlink:href="#DejaVuSans-6e" x="201.220703"/>
       <use xlink:href="#DejaVuSans-64" x="264.599609"/>
       <use xlink:href="#DejaVuSans-65" x="328.076172"/>
       <use xlink:href="#DejaVuSans-65" x="389.599609"/>
      </g>
     </g>
    </g>
   </g>
   <g id="matplotlib.axis_2">
    <g id="ytick_1">
     <g id="line2d_2">
      <defs>
       <path id="m598c301f03" d="M 0 0 
L -3.5 0 
" style="stroke: #000000; stroke-width: 0.8"/>
      </defs>
      <g>
       <use xlink:href="#m598c301f03" x="148.944375" y="258.078125" style="stroke: #000000; stroke-width: 0.8"/>
      </g>
     </g>
     <g id="text_2">
      <!-- 0 -->
      <g transform="translate(135.581875 261.877344) scale(0.1 -0.1)">
       <defs>
        <path id="DejaVuSans-30" d="M 2034 4250 
Q 1547 4250 1301 3770 
Q 1056 3291 1056 2328 
Q 1056 1369 1301 889 
Q 1547 409 2034 409 
Q 2525 409 2770 889 
Q 3016 1369 3016 2328 
Q 3016 3291 2770 3770 
Q 2525 4250 2034 4250 
z
M 2034 4750 
Q 2819 4750 3233 4129 
Q 3647 3509 3647 2328 
Q 3647 1150 3233 529 
Q 2819 -91 2034 -91 
Q 1250 -91 836 529 
Q 422 1150 422 2328 
Q 422 3509 836 4129 
Q 1250 4750 2034 4750 
z
" transform="scale(0.015625)"/>
       </defs>
       <use xlink:href="#DejaVuSans-30"/>
      </g>
     </g>
    </g>
    <g id="ytick_2">
     <g id="line2d_3">
      <g>
       <use xlink:href="#m598c301f03" x="148.944375" y="232.016921" style="stroke: #000000; stroke-width: 0.8"/>
      </g>
     </g>
     <g id="text_3">
      <!-- 250 -->
      <g transform="translate(122.856875 235.816139) scale(0.1 -0.1)">
       <defs>
        <path id="DejaVuSans-32" d="M 1228 531 
L 3431 531 
L 3431 0 
L 469 0 
L 469 531 
Q 828 903 1448 1529 
Q 2069 2156 2228 2338 
Q 2531 2678 2651 2914 
Q 2772 3150 2772 3378 
Q 2772 3750 2511 3984 
Q 2250 4219 1831 4219 
Q 1534 4219 1204 4116 
Q 875 4013 500 3803 
L 500 4441 
Q 881 4594 1212 4672 
Q 1544 4750 1819 4750 
Q 2544 4750 2975 4387 
Q 3406 4025 3406 3419 
Q 3406 3131 3298 2873 
Q 3191 2616 2906 2266 
Q 2828 2175 2409 1742 
Q 1991 1309 1228 531 
z
" transform="scale(0.015625)"/>
        <path id="DejaVuSans-35" d="M 691 4666 
L 3169 4666 
L 3169 4134 
L 1269 4134 
L 1269 2991 
Q 1406 3038 1543 3061 
Q 1681 3084 1819 3084 
Q 2600 3084 3056 2656 
Q 3513 2228 3513 1497 
Q 3513 744 3044 326 
Q 2575 -91 1722 -91 
Q 1428 -91 1123 -41 
Q 819 9 494 109 
L 494 744 
Q 775 591 1075 516 
Q 1375 441 1709 441 
Q 2250 441 2565 725 
Q 2881 1009 2881 1497 
Q 2881 1984 2565 2268 
Q 2250 2553 1709 2553 
Q 1456 2553 1204 2497 
Q 953 2441 691 2322 
L 691 4666 
z
" transform="scale(0.015625)"/>
       </defs>
       <use xlink:href="#DejaVuSans-32"/>
       <use xlink:href="#DejaVuSans-35" x="63.623047"/>
       <use xlink:href="#DejaVuSans-30" x="127.246094"/>
      </g>
     </g>
    </g>
    <g id="ytick_3">
     <g id="line2d_4">
      <g>
       <use xlink:href="#m598c301f03" x="148.944375" y="205.955716" style="stroke: #000000; stroke-width: 0.8"/>
      </g>
     </g>
     <g id="text_4">
      <!-- 500 -->
      <g transform="translate(122.856875 209.754935) scale(0.1 -0.1)">
       <use xlink:href="#DejaVuSans-35"/>
       <use xlink:href="#DejaVuSans-30" x="63.623047"/>
       <use xlink:href="#DejaVuSans-30" x="127.246094"/>
      </g>
     </g>
    </g>
    <g id="ytick_4">
     <g id="line2d_5">
      <g>
       <use xlink:href="#m598c301f03" x="148.944375" y="179.894512" style="stroke: #000000; stroke-width: 0.8"/>
      </g>
     </g>
     <g id="text_5">
      <!-- 750 -->
      <g transform="translate(122.856875 183.693731) scale(0.1 -0.1)">
       <defs>
        <path id="DejaVuSans-37" d="M 525 4666 
L 3525 4666 
L 3525 4397 
L 1831 0 
L 1172 0 
L 2766 4134 
L 525 4134 
L 525 4666 
z
" transform="scale(0.015625)"/>
       </defs>
       <use xlink:href="#DejaVuSans-37"/>
       <use xlink:href="#DejaVuSans-35" x="63.623047"/>
       <use xlink:href="#DejaVuSans-30" x="127.246094"/>
      </g>
     </g>
    </g>
    <g id="ytick_5">
     <g id="line2d_6">
      <g>
       <use xlink:href="#m598c301f03" x="148.944375" y="153.833308" style="stroke: #000000; stroke-width: 0.8"/>
      </g>
     </g>
     <g id="text_6">
      <!-- 1000 -->
      <g transform="translate(116.494375 157.632526) scale(0.1 -0.1)">
       <defs>
        <path id="DejaVuSans-31" d="M 794 531 
L 1825 531 
L 1825 4091 
L 703 3866 
L 703 4441 
L 1819 4666 
L 2450 4666 
L 2450 531 
L 3481 531 
L 3481 0 
L 794 0 
L 794 531 
z
" transform="scale(0.015625)"/>
       </defs>
       <use xlink:href="#DejaVuSans-31"/>
       <use xlink:href="#DejaVuSans-30" x="63.623047"/>
       <use xlink:href="#DejaVuSans-30" x="127.246094"/>
       <use xlink:href="#DejaVuSans-30" x="190.869141"/>
      </g>
     </g>
    </g>
    <g id="ytick_6">
     <g id="line2d_7">
      <g>
       <use xlink:href="#m598c301f03" x="148.944375" y="127.772103" style="stroke: #000000; stroke-width: 0.8"/>
      </g>
     </g>
     <g id="text_7">
      <!-- 1250 -->
      <g transform="translate(116.494375 131.571322) scale(0.1 -0.1)">
       <use xlink:href="#DejaVuSans-31"/>
       <use xlink:href="#DejaVuSans-32" x="63.623047"/>
       <use xlink:href="#DejaVuSans-35" x="127.246094"/>
       <use xlink:href="#DejaVuSans-30" x="190.869141"/>
      </g>
     </g>
    </g>
    <g id="ytick_7">
     <g id="line2d_8">
      <g>
       <use xlink:href="#m598c301f03" x="148.944375" y="101.710899" style="stroke: #000000; stroke-width: 0.8"/>
      </g>
     </g>
     <g id="text_8">
      <!-- 1500 -->
      <g transform="translate(116.494375 105.510118) scale(0.1 -0.1)">
       <use xlink:href="#DejaVuSans-31"/>
       <use xlink:href="#DejaVuSans-35" x="63.623047"/>
       <use xlink:href="#DejaVuSans-30" x="127.246094"/>
       <use xlink:href="#DejaVuSans-30" x="190.869141"/>
      </g>
     </g>
    </g>
    <g id="ytick_8">
     <g id="line2d_9">
      <g>
       <use xlink:href="#m598c301f03" x="148.944375" y="75.649695" style="stroke: #000000; stroke-width: 0.8"/>
      </g>
     </g>
     <g id="text_9">
      <!-- 1750 -->
      <g transform="translate(116.494375 79.448913) scale(0.1 -0.1)">
       <use xlink:href="#DejaVuSans-31"/>
       <use xlink:href="#DejaVuSans-37" x="63.623047"/>
       <use xlink:href="#DejaVuSans-35" x="127.246094"/>
       <use xlink:href="#DejaVuSans-30" x="190.869141"/>
      </g>
     </g>
    </g>
    <g id="ytick_9">
     <g id="line2d_10">
      <g>
       <use xlink:href="#m598c301f03" x="148.944375" y="49.58849" style="stroke: #000000; stroke-width: 0.8"/>
      </g>
     </g>
     <g id="text_10">
      <!-- 2000 -->
      <g transform="translate(116.494375 53.387709) scale(0.1 -0.1)">
       <use xlink:href="#DejaVuSans-32"/>
       <use xlink:href="#DejaVuSans-30" x="63.623047"/>
       <use xlink:href="#DejaVuSans-30" x="127.246094"/>
       <use xlink:href="#DejaVuSans-30" x="190.869141"/>
      </g>
     </g>
    </g>
    <g id="text_11">
     <!-- Attendee Number -->
     <g transform="translate(110.414687 191.698906) rotate(-90) scale(0.1 -0.1)">
      <defs>
       <path id="DejaVuSans-41" d="M 2188 4044 
L 1331 1722 
L 3047 1722 
L 2188 4044 
z
M 1831 4666 
L 2547 4666 
L 4325 0 
L 3669 0 
L 3244 1197 
L 1141 1197 
L 716 0 
L 50 0 
L 1831 4666 
z
" transform="scale(0.015625)"/>
       <path id="DejaVuSans-20" transform="scale(0.015625)"/>
       <path id="DejaVuSans-4e" d="M 628 4666 
L 1478 4666 
L 3547 763 
L 3547 4666 
L 4159 4666 
L 4159 0 
L 3309 0 
L 1241 3903 
L 1241 0 
L 628 0 
L 628 4666 
z
" transform="scale(0.015625)"/>
       <path id="DejaVuSans-75" d="M 544 1381 
L 544 3500 
L 1119 3500 
L 1119 1403 
Q 1119 906 1312 657 
Q 1506 409 1894 409 
Q 2359 409 2629 706 
Q 2900 1003 2900 1516 
L 2900 3500 
L 3475 3500 
L 3475 0 
L 2900 0 
L 2900 538 
Q 2691 219 2414 64 
Q 2138 -91 1772 -91 
Q 1169 -91 856 284 
Q 544 659 544 1381 
z
M 1991 3584 
L 1991 3584 
z
" transform="scale(0.015625)"/>
       <path id="DejaVuSans-6d" d="M 3328 2828 
Q 3544 3216 3844 3400 
Q 4144 3584 4550 3584 
Q 5097 3584 5394 3201 
Q 5691 2819 5691 2113 
L 5691 0 
L 5113 0 
L 5113 2094 
Q 5113 2597 4934 2840 
Q 4756 3084 4391 3084 
Q 3944 3084 3684 2787 
Q 3425 2491 3425 1978 
L 3425 0 
L 2847 0 
L 2847 2094 
Q 2847 2600 2669 2842 
Q 2491 3084 2119 3084 
Q 1678 3084 1418 2786 
Q 1159 2488 1159 1978 
L 1159 0 
L 581 0 
L 581 3500 
L 1159 3500 
L 1159 2956 
Q 1356 3278 1631 3431 
Q 1906 3584 2284 3584 
Q 2666 3584 2933 3390 
Q 3200 3197 3328 2828 
z
" transform="scale(0.015625)"/>
       <path id="DejaVuSans-62" d="M 3116 1747 
Q 3116 2381 2855 2742 
Q 2594 3103 2138 3103 
Q 1681 3103 1420 2742 
Q 1159 2381 1159 1747 
Q 1159 1113 1420 752 
Q 1681 391 2138 391 
Q 2594 391 2855 752 
Q 3116 1113 3116 1747 
z
M 1159 2969 
Q 1341 3281 1617 3432 
Q 1894 3584 2278 3584 
Q 2916 3584 3314 3078 
Q 3713 2572 3713 1747 
Q 3713 922 3314 415 
Q 2916 -91 2278 -91 
Q 1894 -91 1617 61 
Q 1341 213 1159 525 
L 1159 0 
L 581 0 
L 581 4863 
L 1159 4863 
L 1159 2969 
z
" transform="scale(0.015625)"/>
       <path id="DejaVuSans-72" d="M 2631 2963 
Q 2534 3019 2420 3045 
Q 2306 3072 2169 3072 
Q 1681 3072 1420 2755 
Q 1159 2438 1159 1844 
L 1159 0 
L 581 0 
L 581 3500 
L 1159 3500 
L 1159 2956 
Q 1341 3275 1631 3429 
Q 1922 3584 2338 3584 
Q 2397 3584 2469 3576 
Q 2541 3569 2628 3553 
L 2631 2963 
z
" transform="scale(0.015625)"/>
      </defs>
      <use xlink:href="#DejaVuSans-41"/>
      <use xlink:href="#DejaVuSans-74" x="66.658203"/>
      <use xlink:href="#DejaVuSans-74" x="105.867188"/>
      <use xlink:href="#DejaVuSans-65" x="145.076172"/>
      <use xlink:href="#DejaVuSans-6e" x="206.599609"/>
      <use xlink:href="#DejaVuSans-64" x="269.978516"/>
      <use xlink:href="#DejaVuSans-65" x="333.455078"/>
      <use xlink:href="#DejaVuSans-65" x="394.978516"/>
      <use xlink:href="#DejaVuSans-20" x="456.501953"/>
      <use xlink:href="#DejaVuSans-4e" x="488.289062"/>
      <use xlink:href="#DejaVuSans-75" x="563.09375"/>
      <use xlink:href="#DejaVuSans-6d" x="626.472656"/>
      <use xlink:href="#DejaVuSans-62" x="723.884766"/>
      <use xlink:href="#DejaVuSans-65" x="787.361328"/>
      <use xlink:href="#DejaVuSans-72" x="848.884766"/>
     </g>
    </g>
   </g>
   <g id="patch_19">
    <path d="M 148.944375 258.078125 
L 148.944375 36.318125 
" style="fill: none; stroke: #000000; stroke-width: 0.8; stroke-linejoin: miter; stroke-linecap: square"/>
   </g>
   <g id="patch_20">
    <path d="M 260.544375 258.078125 
L 260.544375 36.318125 
" style="fill: none; stroke: #000000; stroke-width: 0.8; stroke-linejoin: miter; stroke-linecap: square"/>
   </g>
   <g id="patch_21">
    <path d="M 148.944375 258.078125 
L 260.544375 258.078125 
" style="fill: none; stroke: #000000; stroke-width: 0.8; stroke-linejoin: miter; stroke-linecap: square"/>
   </g>
   <g id="patch_22">
    <path d="M 148.944375 36.318125 
L 260.544375 36.318125 
" style="fill: none; stroke: #000000; stroke-width: 0.8; stroke-linejoin: miter; stroke-linecap: square"/>
   </g>
   <g id="text_12">
    <!-- Attendee Number by organization for IETF105 (2002 participants) -->
    <g transform="translate(7.2 16.318125) scale(0.12 -0.12)">
     <defs>
      <path id="DejaVuSans-79" d="M 2059 -325 
Q 1816 -950 1584 -1140 
Q 1353 -1331 966 -1331 
L 506 -1331 
L 506 -850 
L 844 -850 
Q 1081 -850 1212 -737 
Q 1344 -625 1503 -206 
L 1606 56 
L 191 3500 
L 800 3500 
L 1894 763 
L 2988 3500 
L 3597 3500 
L 2059 -325 
z
" transform="scale(0.015625)"/>
      <path id="DejaVuSans-6f" d="M 1959 3097 
Q 1497 3097 1228 2736 
Q 959 2375 959 1747 
Q 959 1119 1226 758 
Q 1494 397 1959 397 
Q 2419 397 2687 759 
Q 2956 1122 2956 1747 
Q 2956 2369 2687 2733 
Q 2419 3097 1959 3097 
z
M 1959 3584 
Q 2709 3584 3137 3096 
Q 3566 2609 3566 1747 
Q 3566 888 3137 398 
Q 2709 -91 1959 -91 
Q 1206 -91 779 398 
Q 353 888 353 1747 
Q 353 2609 779 3096 
Q 1206 3584 1959 3584 
z
" transform="scale(0.015625)"/>
      <path id="DejaVuSans-67" d="M 2906 1791 
Q 2906 2416 2648 2759 
Q 2391 3103 1925 3103 
Q 1463 3103 1205 2759 
Q 947 2416 947 1791 
Q 947 1169 1205 825 
Q 1463 481 1925 481 
Q 2391 481 2648 825 
Q 2906 1169 2906 1791 
z
M 3481 434 
Q 3481 -459 3084 -895 
Q 2688 -1331 1869 -1331 
Q 1566 -1331 1297 -1286 
Q 1028 -1241 775 -1147 
L 775 -588 
Q 1028 -725 1275 -790 
Q 1522 -856 1778 -856 
Q 2344 -856 2625 -561 
Q 2906 -266 2906 331 
L 2906 616 
Q 2728 306 2450 153 
Q 2172 0 1784 0 
Q 1141 0 747 490 
Q 353 981 353 1791 
Q 353 2603 747 3093 
Q 1141 3584 1784 3584 
Q 2172 3584 2450 3431 
Q 2728 3278 2906 2969 
L 2906 3500 
L 3481 3500 
L 3481 434 
z
" transform="scale(0.015625)"/>
      <path id="DejaVuSans-69" d="M 603 3500 
L 1178 3500 
L 1178 0 
L 603 0 
L 603 3500 
z
M 603 4863 
L 1178 4863 
L 1178 4134 
L 603 4134 
L 603 4863 
z
" transform="scale(0.015625)"/>
      <path id="DejaVuSans-7a" d="M 353 3500 
L 3084 3500 
L 3084 2975 
L 922 459 
L 3084 459 
L 3084 0 
L 275 0 
L 275 525 
L 2438 3041 
L 353 3041 
L 353 3500 
z
" transform="scale(0.015625)"/>
      <path id="DejaVuSans-66" d="M 2375 4863 
L 2375 4384 
L 1825 4384 
Q 1516 4384 1395 4259 
Q 1275 4134 1275 3809 
L 1275 3500 
L 2222 3500 
L 2222 3053 
L 1275 3053 
L 1275 0 
L 697 0 
L 697 3053 
L 147 3053 
L 147 3500 
L 697 3500 
L 697 3744 
Q 697 4328 969 4595 
Q 1241 4863 1831 4863 
L 2375 4863 
z
" transform="scale(0.015625)"/>
      <path id="DejaVuSans-49" d="M 628 4666 
L 1259 4666 
L 1259 0 
L 628 0 
L 628 4666 
z
" transform="scale(0.015625)"/>
      <path id="DejaVuSans-45" d="M 628 4666 
L 3578 4666 
L 3578 4134 
L 1259 4134 
L 1259 2753 
L 3481 2753 
L 3481 2222 
L 1259 2222 
L 1259 531 
L 3634 531 
L 3634 0 
L 628 0 
L 628 4666 
z
" transform="scale(0.015625)"/>
      <path id="DejaVuSans-54" d="M -19 4666 
L 3928 4666 
L 3928 4134 
L 2272 4134 
L 2272 0 
L 1638 0 
L 1638 4134 
L -19 4134 
L -19 4666 
z
" transform="scale(0.015625)"/>
      <path id="DejaVuSans-46" d="M 628 4666 
L 3309 4666 
L 3309 4134 
L 1259 4134 
L 1259 2759 
L 3109 2759 
L 3109 2228 
L 1259 2228 
L 1259 0 
L 628 0 
L 628 4666 
z
" transform="scale(0.015625)"/>
      <path id="DejaVuSans-28" d="M 1984 4856 
Q 1566 4138 1362 3434 
Q 1159 2731 1159 2009 
Q 1159 1288 1364 580 
Q 1569 -128 1984 -844 
L 1484 -844 
Q 1016 -109 783 600 
Q 550 1309 550 2009 
Q 550 2706 781 3412 
Q 1013 4119 1484 4856 
L 1984 4856 
z
" transform="scale(0.015625)"/>
      <path id="DejaVuSans-70" d="M 1159 525 
L 1159 -1331 
L 581 -1331 
L 581 3500 
L 1159 3500 
L 1159 2969 
Q 1341 3281 1617 3432 
Q 1894 3584 2278 3584 
Q 2916 3584 3314 3078 
Q 3713 2572 3713 1747 
Q 3713 922 3314 415 
Q 2916 -91 2278 -91 
Q 1894 -91 1617 61 
Q 1341 213 1159 525 
z
M 3116 1747 
Q 3116 2381 2855 2742 
Q 2594 3103 2138 3103 
Q 1681 3103 1420 2742 
Q 1159 2381 1159 1747 
Q 1159 1113 1420 752 
Q 1681 391 2138 391 
Q 2594 391 2855 752 
Q 3116 1113 3116 1747 
z
" transform="scale(0.015625)"/>
      <path id="DejaVuSans-63" d="M 3122 3366 
L 3122 2828 
Q 2878 2963 2633 3030 
Q 2388 3097 2138 3097 
Q 1578 3097 1268 2742 
Q 959 2388 959 1747 
Q 959 1106 1268 751 
Q 1578 397 2138 397 
Q 2388 397 2633 464 
Q 2878 531 3122 666 
L 3122 134 
Q 2881 22 2623 -34 
Q 2366 -91 2075 -91 
Q 1284 -91 818 406 
Q 353 903 353 1747 
Q 353 2603 823 3093 
Q 1294 3584 2113 3584 
Q 2378 3584 2631 3529 
Q 2884 3475 3122 3366 
z
" transform="scale(0.015625)"/>
      <path id="DejaVuSans-73" d="M 2834 3397 
L 2834 2853 
Q 2591 2978 2328 3040 
Q 2066 3103 1784 3103 
Q 1356 3103 1142 2972 
Q 928 2841 928 2578 
Q 928 2378 1081 2264 
Q 1234 2150 1697 2047 
L 1894 2003 
Q 2506 1872 2764 1633 
Q 3022 1394 3022 966 
Q 3022 478 2636 193 
Q 2250 -91 1575 -91 
Q 1294 -91 989 -36 
Q 684 19 347 128 
L 347 722 
Q 666 556 975 473 
Q 1284 391 1588 391 
Q 1994 391 2212 530 
Q 2431 669 2431 922 
Q 2431 1156 2273 1281 
Q 2116 1406 1581 1522 
L 1381 1569 
Q 847 1681 609 1914 
Q 372 2147 372 2553 
Q 372 3047 722 3315 
Q 1072 3584 1716 3584 
Q 2034 3584 2315 3537 
Q 2597 3491 2834 3397 
z
" transform="scale(0.015625)"/>
      <path id="DejaVuSans-29" d="M 513 4856 
L 1013 4856 
Q 1481 4119 1714 3412 
Q 1947 2706 1947 2009 
Q 1947 1309 1714 600 
Q 1481 -109 1013 -844 
L 513 -844 
Q 928 -128 1133 580 
Q 1338 1288 1338 2009 
Q 1338 2731 1133 3434 
Q 928 4138 513 4856 
z
" transform="scale(0.015625)"/>
     </defs>
     <use xlink:href="#DejaVuSans-41"/>
     <use xlink:href="#DejaVuSans-74" x="66.658203"/>
     <use xlink:href="#DejaVuSans-74" x="105.867188"/>
     <use xlink:href="#DejaVuSans-65" x="145.076172"/>
     <use xlink:href="#DejaVuSans-6e" x="206.599609"/>
     <use xlink:href="#DejaVuSans-64" x="269.978516"/>
     <use xlink:href="#DejaVuSans-65" x="333.455078"/>
     <use xlink:href="#DejaVuSans-65" x="394.978516"/>
     <use xlink:href="#DejaVuSans-20" x="456.501953"/>
     <use xlink:href="#DejaVuSans-4e" x="488.289062"/>
     <use xlink:href="#DejaVuSans-75" x="563.09375"/>
     <use xlink:href="#DejaVuSans-6d" x="626.472656"/>
     <use xlink:href="#DejaVuSans-62" x="723.884766"/>
     <use xlink:href="#DejaVuSans-65" x="787.361328"/>
     <use xlink:href="#DejaVuSans-72" x="848.884766"/>
     <use xlink:href="#DejaVuSans-20" x="889.998047"/>
     <use xlink:href="#DejaVuSans-62" x="921.785156"/>
     <use xlink:href="#DejaVuSans-79" x="985.261719"/>
     <use xlink:href="#DejaVuSans-20" x="1044.441406"/>
     <use xlink:href="#DejaVuSans-6f" x="1076.228516"/>
     <use xlink:href="#DejaVuSans-72" x="1137.410156"/>
     <use xlink:href="#DejaVuSans-67" x="1176.773438"/>
     <use xlink:href="#DejaVuSans-61" x="1240.25"/>
     <use xlink:href="#DejaVuSans-6e" x="1301.529297"/>
     <use xlink:href="#DejaVuSans-69" x="1364.908203"/>
     <use xlink:href="#DejaVuSans-7a" x="1392.691406"/>
     <use xlink:href="#DejaVuSans-61" x="1445.181641"/>
     <use xlink:href="#DejaVuSans-74" x="1506.460938"/>
     <use xlink:href="#DejaVuSans-69" x="1545.669922"/>
     <use xlink:href="#DejaVuSans-6f" x="1573.453125"/>
     <use xlink:href="#DejaVuSans-6e" x="1634.634766"/>
     <use xlink:href="#DejaVuSans-20" x="1698.013672"/>
     <use xlink:href="#DejaVuSans-66" x="1729.800781"/>
     <use xlink:href="#DejaVuSans-6f" x="1765.005859"/>
     <use xlink:href="#DejaVuSans-72" x="1826.1875"/>
     <use xlink:href="#DejaVuSans-20" x="1867.300781"/>
     <use xlink:href="#DejaVuSans-49" x="1899.087891"/>
     <use xlink:href="#DejaVuSans-45" x="1928.580078"/>
     <use xlink:href="#DejaVuSans-54" x="1991.763672"/>
     <use xlink:href="#DejaVuSans-46" x="2052.847656"/>
     <use xlink:href="#DejaVuSans-31" x="2110.367188"/>
     <use xlink:href="#DejaVuSans-30" x="2173.990234"/>
     <use xlink:href="#DejaVuSans-35" x="2237.613281"/>
     <use xlink:href="#DejaVuSans-20" x="2301.236328"/>
     <use xlink:href="#DejaVuSans-28" x="2333.023438"/>
     <use xlink:href="#DejaVuSans-32" x="2372.037109"/>
     <use xlink:href="#DejaVuSans-30" x="2435.660156"/>
     <use xlink:href="#DejaVuSans-30" x="2499.283203"/>
     <use xlink:href="#DejaVuSans-32" x="2562.90625"/>
     <use xlink:href="#DejaVuSans-20" x="2626.529297"/>
     <use xlink:href="#DejaVuSans-70" x="2658.316406"/>
     <use xlink:href="#DejaVuSans-61" x="2721.792969"/>
     <use xlink:href="#DejaVuSans-72" x="2783.072266"/>
     <use xlink:href="#DejaVuSans-74" x="2824.185547"/>
     <use xlink:href="#DejaVuSans-69" x="2863.394531"/>
     <use xlink:href="#DejaVuSans-63" x="2891.177734"/>
     <use xlink:href="#DejaVuSans-69" x="2946.158203"/>
     <use xlink:href="#DejaVuSans-70" x="2973.941406"/>
     <use xlink:href="#DejaVuSans-61" x="3037.417969"/>
     <use xlink:href="#DejaVuSans-6e" x="3098.697266"/>
     <use xlink:href="#DejaVuSans-74" x="3162.076172"/>
     <use xlink:href="#DejaVuSans-73" x="3201.285156"/>
     <use xlink:href="#DejaVuSans-29" x="3253.384766"/>
    </g>
   </g>
   <g id="legend_1">
    <g id="patch_23">
     <path d="M 267.544375 242.314 
L 404.192813 242.314 
Q 406.192813 242.314 406.192813 240.314 
L 406.192813 21.142125 
Q 406.192813 19.142125 404.192813 19.142125 
L 267.544375 19.142125 
Q 265.544375 19.142125 265.544375 21.142125 
L 265.544375 240.314 
Q 265.544375 242.314 267.544375 242.314 
z
" style="fill: #ffffff; opacity: 0.8; stroke: #cccccc; stroke-linejoin: miter"/>
    </g>
    <g id="patch_24">
     <path d="M 269.544375 30.740563 
L 289.544375 30.740563 
L 289.544375 23.740563 
L 269.544375 23.740563 
z
" style="fill: #ff7f0e"/>
    </g>
    <g id="text_13">
     <!-- Cisco -->
     <g transform="translate(297.544375 30.740563) scale(0.1 -0.1)">
      <defs>
       <path id="DejaVuSans-43" d="M 4122 4306 
L 4122 3641 
Q 3803 3938 3442 4084 
Q 3081 4231 2675 4231 
Q 1875 4231 1450 3742 
Q 1025 3253 1025 2328 
Q 1025 1406 1450 917 
Q 1875 428 2675 428 
Q 3081 428 3442 575 
Q 3803 722 4122 1019 
L 4122 359 
Q 3791 134 3420 21 
Q 3050 -91 2638 -91 
Q 1578 -91 968 557 
Q 359 1206 359 2328 
Q 359 3453 968 4101 
Q 1578 4750 2638 4750 
Q 3056 4750 3426 4639 
Q 3797 4528 4122 4306 
z
" transform="scale(0.015625)"/>
      </defs>
      <use xlink:href="#DejaVuSans-43"/>
      <use xlink:href="#DejaVuSans-69" x="69.824219"/>
      <use xlink:href="#DejaVuSans-73" x="97.607422"/>
      <use xlink:href="#DejaVuSans-63" x="149.707031"/>
      <use xlink:href="#DejaVuSans-6f" x="204.6875"/>
     </g>
    </g>
    <g id="patch_25">
     <path d="M 269.544375 45.418688 
L 289.544375 45.418688 
L 289.544375 38.418688 
L 269.544375 38.418688 
z
" style="fill: #2ca02c"/>
    </g>
    <g id="text_14">
     <!-- Juniper Networks -->
     <g transform="translate(297.544375 45.418688) scale(0.1 -0.1)">
      <defs>
       <path id="DejaVuSans-4a" d="M 628 4666 
L 1259 4666 
L 1259 325 
Q 1259 -519 939 -900 
Q 619 -1281 -91 -1281 
L -331 -1281 
L -331 -750 
L -134 -750 
Q 284 -750 456 -515 
Q 628 -281 628 325 
L 628 4666 
z
" transform="scale(0.015625)"/>
       <path id="DejaVuSans-77" d="M 269 3500 
L 844 3500 
L 1563 769 
L 2278 3500 
L 2956 3500 
L 3675 769 
L 4391 3500 
L 4966 3500 
L 4050 0 
L 3372 0 
L 2619 2869 
L 1863 0 
L 1184 0 
L 269 3500 
z
" transform="scale(0.015625)"/>
       <path id="DejaVuSans-6b" d="M 581 4863 
L 1159 4863 
L 1159 1991 
L 2875 3500 
L 3609 3500 
L 1753 1863 
L 3688 0 
L 2938 0 
L 1159 1709 
L 1159 0 
L 581 0 
L 581 4863 
z
" transform="scale(0.015625)"/>
      </defs>
      <use xlink:href="#DejaVuSans-4a"/>
      <use xlink:href="#DejaVuSans-75" x="29.492188"/>
      <use xlink:href="#DejaVuSans-6e" x="92.871094"/>
      <use xlink:href="#DejaVuSans-69" x="156.25"/>
      <use xlink:href="#DejaVuSans-70" x="184.033203"/>
      <use xlink:href="#DejaVuSans-65" x="247.509766"/>
      <use xlink:href="#DejaVuSans-72" x="309.033203"/>
      <use xlink:href="#DejaVuSans-20" x="350.146484"/>
      <use xlink:href="#DejaVuSans-4e" x="381.933594"/>
      <use xlink:href="#DejaVuSans-65" x="456.738281"/>
      <use xlink:href="#DejaVuSans-74" x="518.261719"/>
      <use xlink:href="#DejaVuSans-77" x="557.470703"/>
      <use xlink:href="#DejaVuSans-6f" x="639.257812"/>
      <use xlink:href="#DejaVuSans-72" x="700.439453"/>
      <use xlink:href="#DejaVuSans-6b" x="741.552734"/>
      <use xlink:href="#DejaVuSans-73" x="799.462891"/>
     </g>
    </g>
    <g id="patch_26">
     <path d="M 269.544375 60.096813 
L 289.544375 60.096813 
L 289.544375 53.096813 
L 269.544375 53.096813 
z
" style="fill: #d62728"/>
    </g>
    <g id="text_15">
     <!-- Cisco Systems -->
     <g transform="translate(297.544375 60.096813) scale(0.1 -0.1)">
      <defs>
       <path id="DejaVuSans-53" d="M 3425 4513 
L 3425 3897 
Q 3066 4069 2747 4153 
Q 2428 4238 2131 4238 
Q 1616 4238 1336 4038 
Q 1056 3838 1056 3469 
Q 1056 3159 1242 3001 
Q 1428 2844 1947 2747 
L 2328 2669 
Q 3034 2534 3370 2195 
Q 3706 1856 3706 1288 
Q 3706 609 3251 259 
Q 2797 -91 1919 -91 
Q 1588 -91 1214 -16 
Q 841 59 441 206 
L 441 856 
Q 825 641 1194 531 
Q 1563 422 1919 422 
Q 2459 422 2753 634 
Q 3047 847 3047 1241 
Q 3047 1584 2836 1778 
Q 2625 1972 2144 2069 
L 1759 2144 
Q 1053 2284 737 2584 
Q 422 2884 422 3419 
Q 422 4038 858 4394 
Q 1294 4750 2059 4750 
Q 2388 4750 2728 4690 
Q 3069 4631 3425 4513 
z
" transform="scale(0.015625)"/>
      </defs>
      <use xlink:href="#DejaVuSans-43"/>
      <use xlink:href="#DejaVuSans-69" x="69.824219"/>
      <use xlink:href="#DejaVuSans-73" x="97.607422"/>
      <use xlink:href="#DejaVuSans-63" x="149.707031"/>
      <use xlink:href="#DejaVuSans-6f" x="204.6875"/>
      <use xlink:href="#DejaVuSans-20" x="265.869141"/>
      <use xlink:href="#DejaVuSans-53" x="297.65625"/>
      <use xlink:href="#DejaVuSans-79" x="361.132812"/>
      <use xlink:href="#DejaVuSans-73" x="420.3125"/>
      <use xlink:href="#DejaVuSans-74" x="472.412109"/>
      <use xlink:href="#DejaVuSans-65" x="511.621094"/>
      <use xlink:href="#DejaVuSans-6d" x="573.144531"/>
      <use xlink:href="#DejaVuSans-73" x="670.556641"/>
     </g>
    </g>
    <g id="patch_27">
     <path d="M 269.544375 74.774938 
L 289.544375 74.774938 
L 289.544375 67.774938 
L 269.544375 67.774938 
z
" style="fill: #9467bd"/>
    </g>
    <g id="text_16">
     <!-- Cisco Systems -->
     <g transform="translate(297.544375 74.774938) scale(0.1 -0.1)">
      <use xlink:href="#DejaVuSans-43"/>
      <use xlink:href="#DejaVuSans-69" x="69.824219"/>
      <use xlink:href="#DejaVuSans-73" x="97.607422"/>
      <use xlink:href="#DejaVuSans-63" x="149.707031"/>
      <use xlink:href="#DejaVuSans-6f" x="204.6875"/>
      <use xlink:href="#DejaVuSans-20" x="265.869141"/>
      <use xlink:href="#DejaVuSans-53" x="297.65625"/>
      <use xlink:href="#DejaVuSans-79" x="361.132812"/>
      <use xlink:href="#DejaVuSans-73" x="420.3125"/>
      <use xlink:href="#DejaVuSans-74" x="472.412109"/>
      <use xlink:href="#DejaVuSans-65" x="511.621094"/>
      <use xlink:href="#DejaVuSans-6d" x="573.144531"/>
      <use xlink:href="#DejaVuSans-73" x="670.556641"/>
     </g>
    </g>
    <g id="patch_28">
     <path d="M 269.544375 89.453063 
L 289.544375 89.453063 
L 289.544375 82.453063 
L 269.544375 82.453063 
z
" style="fill: #8c564b"/>
    </g>
    <g id="text_17">
     <!-- Huawei -->
     <g transform="translate(297.544375 89.453063) scale(0.1 -0.1)">
      <defs>
       <path id="DejaVuSans-48" d="M 628 4666 
L 1259 4666 
L 1259 2753 
L 3553 2753 
L 3553 4666 
L 4184 4666 
L 4184 0 
L 3553 0 
L 3553 2222 
L 1259 2222 
L 1259 0 
L 628 0 
L 628 4666 
z
" transform="scale(0.015625)"/>
      </defs>
      <use xlink:href="#DejaVuSans-48"/>
      <use xlink:href="#DejaVuSans-75" x="75.195312"/>
      <use xlink:href="#DejaVuSans-61" x="138.574219"/>
      <use xlink:href="#DejaVuSans-77" x="199.853516"/>
      <use xlink:href="#DejaVuSans-65" x="281.640625"/>
      <use xlink:href="#DejaVuSans-69" x="343.164062"/>
     </g>
    </g>
    <g id="patch_29">
     <path d="M 269.544375 104.131188 
L 289.544375 104.131188 
L 289.544375 97.131188 
L 269.544375 97.131188 
z
" style="fill: #e377c2"/>
    </g>
    <g id="text_18">
     <!-- Ericsson -->
     <g transform="translate(297.544375 104.131188) scale(0.1 -0.1)">
      <use xlink:href="#DejaVuSans-45"/>
      <use xlink:href="#DejaVuSans-72" x="63.183594"/>
      <use xlink:href="#DejaVuSans-69" x="104.296875"/>
      <use xlink:href="#DejaVuSans-63" x="132.080078"/>
      <use xlink:href="#DejaVuSans-73" x="187.060547"/>
      <use xlink:href="#DejaVuSans-73" x="239.160156"/>
      <use xlink:href="#DejaVuSans-6f" x="291.259766"/>
      <use xlink:href="#DejaVuSans-6e" x="352.441406"/>
     </g>
    </g>
    <g id="patch_30">
     <path d="M 269.544375 118.809313 
L 289.544375 118.809313 
L 289.544375 111.809313 
L 269.544375 111.809313 
z
" style="fill: #7f7f7f"/>
    </g>
    <g id="text_19">
     <!-- Ericsson -->
     <g transform="translate(297.544375 118.809313) scale(0.1 -0.1)">
      <use xlink:href="#DejaVuSans-45"/>
      <use xlink:href="#DejaVuSans-72" x="63.183594"/>
      <use xlink:href="#DejaVuSans-69" x="104.296875"/>
      <use xlink:href="#DejaVuSans-63" x="132.080078"/>
      <use xlink:href="#DejaVuSans-73" x="187.060547"/>
      <use xlink:href="#DejaVuSans-73" x="239.160156"/>
      <use xlink:href="#DejaVuSans-6f" x="291.259766"/>
      <use xlink:href="#DejaVuSans-6e" x="352.441406"/>
     </g>
    </g>
    <g id="patch_31">
     <path d="M 269.544375 133.487437 
L 289.544375 133.487437 
L 289.544375 126.487437 
L 269.544375 126.487437 
z
" style="fill: #bcbd22"/>
    </g>
    <g id="text_20">
     <!-- Internet Society -->
     <g transform="translate(297.544375 133.487437) scale(0.1 -0.1)">
      <use xlink:href="#DejaVuSans-49"/>
      <use xlink:href="#DejaVuSans-6e" x="29.492188"/>
      <use xlink:href="#DejaVuSans-74" x="92.871094"/>
      <use xlink:href="#DejaVuSans-65" x="132.080078"/>
      <use xlink:href="#DejaVuSans-72" x="193.603516"/>
      <use xlink:href="#DejaVuSans-6e" x="232.966797"/>
      <use xlink:href="#DejaVuSans-65" x="296.345703"/>
      <use xlink:href="#DejaVuSans-74" x="357.869141"/>
      <use xlink:href="#DejaVuSans-20" x="397.078125"/>
      <use xlink:href="#DejaVuSans-53" x="428.865234"/>
      <use xlink:href="#DejaVuSans-6f" x="492.341797"/>
      <use xlink:href="#DejaVuSans-63" x="553.523438"/>
      <use xlink:href="#DejaVuSans-69" x="608.503906"/>
      <use xlink:href="#DejaVuSans-65" x="636.287109"/>
      <use xlink:href="#DejaVuSans-74" x="697.810547"/>
      <use xlink:href="#DejaVuSans-79" x="737.019531"/>
     </g>
    </g>
    <g id="patch_32">
     <path d="M 269.544375 148.165563 
L 289.544375 148.165563 
L 289.544375 141.165563 
L 269.544375 141.165563 
z
" style="fill: #17becf"/>
    </g>
    <g id="text_21">
     <!-- Internet Society -->
     <g transform="translate(297.544375 148.165563) scale(0.1 -0.1)">
      <use xlink:href="#DejaVuSans-49"/>
      <use xlink:href="#DejaVuSans-6e" x="29.492188"/>
      <use xlink:href="#DejaVuSans-74" x="92.871094"/>
      <use xlink:href="#DejaVuSans-65" x="132.080078"/>
      <use xlink:href="#DejaVuSans-72" x="193.603516"/>
      <use xlink:href="#DejaVuSans-6e" x="232.966797"/>
      <use xlink:href="#DejaVuSans-65" x="296.345703"/>
      <use xlink:href="#DejaVuSans-74" x="357.869141"/>
      <use xlink:href="#DejaVuSans-20" x="397.078125"/>
      <use xlink:href="#DejaVuSans-53" x="428.865234"/>
      <use xlink:href="#DejaVuSans-6f" x="492.341797"/>
      <use xlink:href="#DejaVuSans-63" x="553.523438"/>
      <use xlink:href="#DejaVuSans-69" x="608.503906"/>
      <use xlink:href="#DejaVuSans-65" x="636.287109"/>
      <use xlink:href="#DejaVuSans-74" x="697.810547"/>
      <use xlink:href="#DejaVuSans-79" x="737.019531"/>
     </g>
    </g>
    <g id="patch_33">
     <path d="M 269.544375 162.843687 
L 289.544375 162.843687 
L 289.544375 155.843687 
L 269.544375 155.843687 
z
" style="fill: #1f77b4"/>
    </g>
    <g id="text_22">
     <!-- Facebook -->
     <g transform="translate(297.544375 162.843687) scale(0.1 -0.1)">
      <use xlink:href="#DejaVuSans-46"/>
      <use xlink:href="#DejaVuSans-61" x="48.394531"/>
      <use xlink:href="#DejaVuSans-63" x="109.673828"/>
      <use xlink:href="#DejaVuSans-65" x="164.654297"/>
      <use xlink:href="#DejaVuSans-62" x="226.177734"/>
      <use xlink:href="#DejaVuSans-6f" x="289.654297"/>
      <use xlink:href="#DejaVuSans-6f" x="350.835938"/>
      <use xlink:href="#DejaVuSans-6b" x="412.017578"/>
     </g>
    </g>
    <g id="patch_34">
     <path d="M 269.544375 177.521812 
L 289.544375 177.521812 
L 289.544375 170.521812 
L 269.544375 170.521812 
z
" style="fill: #ff7f0e"/>
    </g>
    <g id="text_23">
     <!-- Facebook -->
     <g transform="translate(297.544375 177.521812) scale(0.1 -0.1)">
      <use xlink:href="#DejaVuSans-46"/>
      <use xlink:href="#DejaVuSans-61" x="48.394531"/>
      <use xlink:href="#DejaVuSans-63" x="109.673828"/>
      <use xlink:href="#DejaVuSans-65" x="164.654297"/>
      <use xlink:href="#DejaVuSans-62" x="226.177734"/>
      <use xlink:href="#DejaVuSans-6f" x="289.654297"/>
      <use xlink:href="#DejaVuSans-6f" x="350.835938"/>
      <use xlink:href="#DejaVuSans-6b" x="412.017578"/>
     </g>
    </g>
    <g id="patch_35">
     <path d="M 269.544375 192.199937 
L 289.544375 192.199937 
L 289.544375 185.199937 
L 269.544375 185.199937 
z
" style="fill: #2ca02c"/>
    </g>
    <g id="text_24">
     <!-- Facebook -->
     <g transform="translate(297.544375 192.199937) scale(0.1 -0.1)">
      <use xlink:href="#DejaVuSans-46"/>
      <use xlink:href="#DejaVuSans-61" x="48.394531"/>
      <use xlink:href="#DejaVuSans-63" x="109.673828"/>
      <use xlink:href="#DejaVuSans-65" x="164.654297"/>
      <use xlink:href="#DejaVuSans-62" x="226.177734"/>
      <use xlink:href="#DejaVuSans-6f" x="289.654297"/>
      <use xlink:href="#DejaVuSans-6f" x="350.835938"/>
      <use xlink:href="#DejaVuSans-6b" x="412.017578"/>
     </g>
    </g>
    <g id="patch_36">
     <path d="M 269.544375 206.878062 
L 289.544375 206.878062 
L 289.544375 199.878062 
L 269.544375 199.878062 
z
" style="fill: #d62728"/>
    </g>
    <g id="text_25">
     <!-- Akamai Technologies -->
     <g transform="translate(297.544375 206.878062) scale(0.1 -0.1)">
      <defs>
       <path id="DejaVuSans-68" d="M 3513 2113 
L 3513 0 
L 2938 0 
L 2938 2094 
Q 2938 2591 2744 2837 
Q 2550 3084 2163 3084 
Q 1697 3084 1428 2787 
Q 1159 2491 1159 1978 
L 1159 0 
L 581 0 
L 581 4863 
L 1159 4863 
L 1159 2956 
Q 1366 3272 1645 3428 
Q 1925 3584 2291 3584 
Q 2894 3584 3203 3211 
Q 3513 2838 3513 2113 
z
" transform="scale(0.015625)"/>
       <path id="DejaVuSans-6c" d="M 603 4863 
L 1178 4863 
L 1178 0 
L 603 0 
L 603 4863 
z
" transform="scale(0.015625)"/>
      </defs>
      <use xlink:href="#DejaVuSans-41"/>
      <use xlink:href="#DejaVuSans-6b" x="68.408203"/>
      <use xlink:href="#DejaVuSans-61" x="124.568359"/>
      <use xlink:href="#DejaVuSans-6d" x="185.847656"/>
      <use xlink:href="#DejaVuSans-61" x="283.259766"/>
      <use xlink:href="#DejaVuSans-69" x="344.539062"/>
      <use xlink:href="#DejaVuSans-20" x="372.322266"/>
      <use xlink:href="#DejaVuSans-54" x="404.109375"/>
      <use xlink:href="#DejaVuSans-65" x="448.193359"/>
      <use xlink:href="#DejaVuSans-63" x="509.716797"/>
      <use xlink:href="#DejaVuSans-68" x="564.697266"/>
      <use xlink:href="#DejaVuSans-6e" x="628.076172"/>
      <use xlink:href="#DejaVuSans-6f" x="691.455078"/>
      <use xlink:href="#DejaVuSans-6c" x="752.636719"/>
      <use xlink:href="#DejaVuSans-6f" x="780.419922"/>
      <use xlink:href="#DejaVuSans-67" x="841.601562"/>
      <use xlink:href="#DejaVuSans-69" x="905.078125"/>
      <use xlink:href="#DejaVuSans-65" x="932.861328"/>
      <use xlink:href="#DejaVuSans-73" x="994.384766"/>
     </g>
    </g>
    <g id="patch_37">
     <path d="M 269.544375 221.556187 
L 289.544375 221.556187 
L 289.544375 214.556187 
L 269.544375 214.556187 
z
" style="fill: #9467bd"/>
    </g>
    <g id="text_26">
     <!-- Akamai Technologies -->
     <g transform="translate(297.544375 221.556187) scale(0.1 -0.1)">
      <use xlink:href="#DejaVuSans-41"/>
      <use xlink:href="#DejaVuSans-6b" x="68.408203"/>
      <use xlink:href="#DejaVuSans-61" x="124.568359"/>
      <use xlink:href="#DejaVuSans-6d" x="185.847656"/>
      <use xlink:href="#DejaVuSans-61" x="283.259766"/>
      <use xlink:href="#DejaVuSans-69" x="344.539062"/>
      <use xlink:href="#DejaVuSans-20" x="372.322266"/>
      <use xlink:href="#DejaVuSans-54" x="404.109375"/>
      <use xlink:href="#DejaVuSans-65" x="448.193359"/>
      <use xlink:href="#DejaVuSans-63" x="509.716797"/>
      <use xlink:href="#DejaVuSans-68" x="564.697266"/>
      <use xlink:href="#DejaVuSans-6e" x="628.076172"/>
      <use xlink:href="#DejaVuSans-6f" x="691.455078"/>
      <use xlink:href="#DejaVuSans-6c" x="752.636719"/>
      <use xlink:href="#DejaVuSans-6f" x="780.419922"/>
      <use xlink:href="#DejaVuSans-67" x="841.601562"/>
      <use xlink:href="#DejaVuSans-69" x="905.078125"/>
      <use xlink:href="#DejaVuSans-65" x="932.861328"/>
      <use xlink:href="#DejaVuSans-73" x="994.384766"/>
     </g>
    </g>
    <g id="patch_38">
     <path d="M 269.544375 236.234312 
L 289.544375 236.234312 
L 289.544375 229.234312 
L 269.544375 229.234312 
z
" style="fill: #8c564b"/>
    </g>
    <g id="text_27">
     <!-- Others -->
     <g transform="translate(297.544375 236.234312) scale(0.1 -0.1)">
      <defs>
       <path id="DejaVuSans-4f" d="M 2522 4238 
Q 1834 4238 1429 3725 
Q 1025 3213 1025 2328 
Q 1025 1447 1429 934 
Q 1834 422 2522 422 
Q 3209 422 3611 934 
Q 4013 1447 4013 2328 
Q 4013 3213 3611 3725 
Q 3209 4238 2522 4238 
z
M 2522 4750 
Q 3503 4750 4090 4092 
Q 4678 3434 4678 2328 
Q 4678 1225 4090 567 
Q 3503 -91 2522 -91 
Q 1538 -91 948 565 
Q 359 1222 359 2328 
Q 359 3434 948 4092 
Q 1538 4750 2522 4750 
z
" transform="scale(0.015625)"/>
      </defs>
      <use xlink:href="#DejaVuSans-4f"/>
      <use xlink:href="#DejaVuSans-74" x="78.710938"/>
      <use xlink:href="#DejaVuSans-68" x="117.919922"/>
      <use xlink:href="#DejaVuSans-65" x="181.298828"/>
      <use xlink:href="#DejaVuSans-72" x="242.822266"/>
      <use xlink:href="#DejaVuSans-73" x="283.935547"/>
     </g>
    </g>
   </g>
  </g>
 </g>
 <defs>
  <clipPath id="p9872bb9343">
   <rect x="148.944375" y="36.318125" width="111.6" height="221.76"/>
  </clipPath>
 </defs>
</svg>
