<?xml version="1.0" encoding="utf-8" standalone="no"?>
<!DOCTYPE svg PUBLIC "-//W3C//DTD SVG 1.1//EN"
  "http://www.w3.org/Graphics/SVG/1.1/DTD/svg11.dtd">
<!-- Created with matplotlib (https://matplotlib.org/) -->
<svg height="281.95625pt" version="1.1" viewBox="0 0 466.386875 281.95625" width="466.386875pt" xmlns="http://www.w3.org/2000/svg" xmlns:xlink="http://www.w3.org/1999/xlink">
 <defs>
  <style type="text/css">
*{stroke-linecap:butt;stroke-linejoin:round;}
  </style>
 </defs>
 <g id="figure_1">
  <g id="patch_1">
   <path d="M -0 281.95625 
L 466.386875 281.95625 
L 466.386875 0 
L -0 0 
z
" style="fill:#ffffff;"/>
  </g>
  <g id="axes_1">
   <g id="patch_2">
    <path d="M 141.347813 258.078125 
L 252.947813 258.078125 
L 252.947813 36.318125 
L 141.347813 36.318125 
z
" style="fill:#ffffff;"/>
   </g>
   <g id="patch_3">
    <path clip-path="url(#pc06884c379)" d="M 146.42054 258.078125 
L 247.875085 258.078125 
L 247.875085 164.021445 
L 146.42054 164.021445 
z
" style="fill:#1f77b4;"/>
   </g>
   <g id="patch_4">
    <path clip-path="url(#pc06884c379)" d="M 146.42054 164.021445 
L 247.875085 164.021445 
L 247.875085 138.369623 
L 146.42054 138.369623 
z
" style="fill:#ff7f0e;"/>
   </g>
   <g id="patch_5">
    <path clip-path="url(#pc06884c379)" d="M 146.42054 138.369623 
L 247.875085 138.369623 
L 247.875085 112.824684 
L 146.42054 112.824684 
z
" style="fill:#2ca02c;"/>
   </g>
   <g id="patch_6">
    <path clip-path="url(#pc06884c379)" d="M 146.42054 112.824684 
L 247.875085 112.824684 
L 247.875085 93.585817 
L 146.42054 93.585817 
z
" style="fill:#d62728;"/>
   </g>
   <g id="patch_7">
    <path clip-path="url(#pc06884c379)" d="M 146.42054 93.585817 
L 247.875085 93.585817 
L 247.875085 76.057072 
L 146.42054 76.057072 
z
" style="fill:#9467bd;"/>
   </g>
   <g id="patch_8">
    <path clip-path="url(#pc06884c379)" d="M 146.42054 76.057072 
L 247.875085 76.057072 
L 247.875085 69.430352 
L 146.42054 69.430352 
z
" style="fill:#8c564b;"/>
   </g>
   <g id="patch_9">
    <path clip-path="url(#pc06884c379)" d="M 146.42054 69.430352 
L 247.875085 69.430352 
L 247.875085 63.017396 
L 146.42054 63.017396 
z
" style="fill:#e377c2;"/>
   </g>
   <g id="patch_10">
    <path clip-path="url(#pc06884c379)" d="M 146.42054 63.017396 
L 247.875085 63.017396 
L 247.875085 57.352619 
L 146.42054 57.352619 
z
" style="fill:#7f7f7f;"/>
   </g>
   <g id="patch_11">
    <path clip-path="url(#pc06884c379)" d="M 146.42054 57.352619 
L 247.875085 57.352619 
L 247.875085 53.504846 
L 146.42054 53.504846 
z
" style="fill:#bcbd22;"/>
   </g>
   <g id="patch_12">
    <path clip-path="url(#pc06884c379)" d="M 146.42054 53.504846 
L 247.875085 53.504846 
L 247.875085 51.046546 
L 146.42054 51.046546 
z
" style="fill:#17becf;"/>
   </g>
   <g id="patch_13">
    <path clip-path="url(#pc06884c379)" d="M 146.42054 51.046546 
L 247.875085 51.046546 
L 247.875085 49.015777 
L 146.42054 49.015777 
z
" style="fill:#1f77b4;"/>
   </g>
   <g id="patch_14">
    <path clip-path="url(#pc06884c379)" d="M 146.42054 49.015777 
L 247.875085 49.015777 
L 247.875085 47.733186 
L 146.42054 47.733186 
z
" style="fill:#ff7f0e;"/>
   </g>
   <g id="patch_15">
    <path clip-path="url(#pc06884c379)" d="M 146.42054 47.733186 
L 247.875085 47.733186 
L 247.875085 46.878125 
L 146.42054 46.878125 
z
" style="fill:#2ca02c;"/>
   </g>
   <g id="matplotlib.axis_1">
    <g id="xtick_1">
     <g id="line2d_1">
      <defs>
       <path d="M 0 0 
L 0 3.5 
" id="m15a554dbb7" style="stroke:#000000;stroke-width:0.8;"/>
      </defs>
      <g>
       <use style="stroke:#000000;stroke-width:0.8;" x="197.147813" xlink:href="#m15a554dbb7" y="258.078125"/>
      </g>
     </g>
     <g id="text_1">
      <!-- attendee -->
      <defs>
       <path d="M 34.28125 27.484375 
Q 23.390625 27.484375 19.1875 25 
Q 14.984375 22.515625 14.984375 16.5 
Q 14.984375 11.71875 18.140625 8.90625 
Q 21.296875 6.109375 26.703125 6.109375 
Q 34.1875 6.109375 38.703125 11.40625 
Q 43.21875 16.703125 43.21875 25.484375 
L 43.21875 27.484375 
z
M 52.203125 31.203125 
L 52.203125 0 
L 43.21875 0 
L 43.21875 8.296875 
Q 40.140625 3.328125 35.546875 0.953125 
Q 30.953125 -1.421875 24.3125 -1.421875 
Q 15.921875 -1.421875 10.953125 3.296875 
Q 6 8.015625 6 15.921875 
Q 6 25.140625 12.171875 29.828125 
Q 18.359375 34.515625 30.609375 34.515625 
L 43.21875 34.515625 
L 43.21875 35.40625 
Q 43.21875 41.609375 39.140625 45 
Q 35.0625 48.390625 27.6875 48.390625 
Q 23 48.390625 18.546875 47.265625 
Q 14.109375 46.140625 10.015625 43.890625 
L 10.015625 52.203125 
Q 14.9375 54.109375 19.578125 55.046875 
Q 24.21875 56 28.609375 56 
Q 40.484375 56 46.34375 49.84375 
Q 52.203125 43.703125 52.203125 31.203125 
z
" id="DejaVuSans-97"/>
       <path d="M 18.3125 70.21875 
L 18.3125 54.6875 
L 36.8125 54.6875 
L 36.8125 47.703125 
L 18.3125 47.703125 
L 18.3125 18.015625 
Q 18.3125 11.328125 20.140625 9.421875 
Q 21.96875 7.515625 27.59375 7.515625 
L 36.8125 7.515625 
L 36.8125 0 
L 27.59375 0 
Q 17.1875 0 13.234375 3.875 
Q 9.28125 7.765625 9.28125 18.015625 
L 9.28125 47.703125 
L 2.6875 47.703125 
L 2.6875 54.6875 
L 9.28125 54.6875 
L 9.28125 70.21875 
z
" id="DejaVuSans-116"/>
       <path d="M 56.203125 29.59375 
L 56.203125 25.203125 
L 14.890625 25.203125 
Q 15.484375 15.921875 20.484375 11.0625 
Q 25.484375 6.203125 34.421875 6.203125 
Q 39.59375 6.203125 44.453125 7.46875 
Q 49.3125 8.734375 54.109375 11.28125 
L 54.109375 2.78125 
Q 49.265625 0.734375 44.1875 -0.34375 
Q 39.109375 -1.421875 33.890625 -1.421875 
Q 20.796875 -1.421875 13.15625 6.1875 
Q 5.515625 13.8125 5.515625 26.8125 
Q 5.515625 40.234375 12.765625 48.109375 
Q 20.015625 56 32.328125 56 
Q 43.359375 56 49.78125 48.890625 
Q 56.203125 41.796875 56.203125 29.59375 
z
M 47.21875 32.234375 
Q 47.125 39.59375 43.09375 43.984375 
Q 39.0625 48.390625 32.421875 48.390625 
Q 24.90625 48.390625 20.390625 44.140625 
Q 15.875 39.890625 15.1875 32.171875 
z
" id="DejaVuSans-101"/>
       <path d="M 54.890625 33.015625 
L 54.890625 0 
L 45.90625 0 
L 45.90625 32.71875 
Q 45.90625 40.484375 42.875 44.328125 
Q 39.84375 48.1875 33.796875 48.1875 
Q 26.515625 48.1875 22.3125 43.546875 
Q 18.109375 38.921875 18.109375 30.90625 
L 18.109375 0 
L 9.078125 0 
L 9.078125 54.6875 
L 18.109375 54.6875 
L 18.109375 46.1875 
Q 21.34375 51.125 25.703125 53.5625 
Q 30.078125 56 35.796875 56 
Q 45.21875 56 50.046875 50.171875 
Q 54.890625 44.34375 54.890625 33.015625 
z
" id="DejaVuSans-110"/>
       <path d="M 45.40625 46.390625 
L 45.40625 75.984375 
L 54.390625 75.984375 
L 54.390625 0 
L 45.40625 0 
L 45.40625 8.203125 
Q 42.578125 3.328125 38.25 0.953125 
Q 33.9375 -1.421875 27.875 -1.421875 
Q 17.96875 -1.421875 11.734375 6.484375 
Q 5.515625 14.40625 5.515625 27.296875 
Q 5.515625 40.1875 11.734375 48.09375 
Q 17.96875 56 27.875 56 
Q 33.9375 56 38.25 53.625 
Q 42.578125 51.265625 45.40625 46.390625 
z
M 14.796875 27.296875 
Q 14.796875 17.390625 18.875 11.75 
Q 22.953125 6.109375 30.078125 6.109375 
Q 37.203125 6.109375 41.296875 11.75 
Q 45.40625 17.390625 45.40625 27.296875 
Q 45.40625 37.203125 41.296875 42.84375 
Q 37.203125 48.484375 30.078125 48.484375 
Q 22.953125 48.484375 18.875 42.84375 
Q 14.796875 37.203125 14.796875 27.296875 
z
" id="DejaVuSans-100"/>
      </defs>
      <g transform="translate(174.590781 272.676562)scale(0.1 -0.1)">
       <use xlink:href="#DejaVuSans-97"/>
       <use x="61.279297" xlink:href="#DejaVuSans-116"/>
       <use x="100.488281" xlink:href="#DejaVuSans-116"/>
       <use x="139.697266" xlink:href="#DejaVuSans-101"/>
       <use x="201.220703" xlink:href="#DejaVuSans-110"/>
       <use x="264.599609" xlink:href="#DejaVuSans-100"/>
       <use x="328.076172" xlink:href="#DejaVuSans-101"/>
       <use x="389.599609" xlink:href="#DejaVuSans-101"/>
      </g>
     </g>
    </g>
   </g>
   <g id="matplotlib.axis_2">
    <g id="ytick_1">
     <g id="line2d_2">
      <defs>
       <path d="M 0 0 
L -3.5 0 
" id="m5408ec9afd" style="stroke:#000000;stroke-width:0.8;"/>
      </defs>
      <g>
       <use style="stroke:#000000;stroke-width:0.8;" x="141.347813" xlink:href="#m5408ec9afd" y="258.078125"/>
      </g>
     </g>
     <g id="text_2">
      <!-- 0 -->
      <defs>
       <path d="M 31.78125 66.40625 
Q 24.171875 66.40625 20.328125 58.90625 
Q 16.5 51.421875 16.5 36.375 
Q 16.5 21.390625 20.328125 13.890625 
Q 24.171875 6.390625 31.78125 6.390625 
Q 39.453125 6.390625 43.28125 13.890625 
Q 47.125 21.390625 47.125 36.375 
Q 47.125 51.421875 43.28125 58.90625 
Q 39.453125 66.40625 31.78125 66.40625 
z
M 31.78125 74.21875 
Q 44.046875 74.21875 50.515625 64.515625 
Q 56.984375 54.828125 56.984375 36.375 
Q 56.984375 17.96875 50.515625 8.265625 
Q 44.046875 -1.421875 31.78125 -1.421875 
Q 19.53125 -1.421875 13.0625 8.265625 
Q 6.59375 17.96875 6.59375 36.375 
Q 6.59375 54.828125 13.0625 64.515625 
Q 19.53125 74.21875 31.78125 74.21875 
z
" id="DejaVuSans-48"/>
      </defs>
      <g transform="translate(127.985313 261.877344)scale(0.1 -0.1)">
       <use xlink:href="#DejaVuSans-48"/>
      </g>
     </g>
    </g>
    <g id="ytick_2">
     <g id="line2d_3">
      <g>
       <use style="stroke:#000000;stroke-width:0.8;" x="141.347813" xlink:href="#m5408ec9afd" y="231.357477"/>
      </g>
     </g>
     <g id="text_3">
      <!-- 250 -->
      <defs>
       <path d="M 19.1875 8.296875 
L 53.609375 8.296875 
L 53.609375 0 
L 7.328125 0 
L 7.328125 8.296875 
Q 12.9375 14.109375 22.625 23.890625 
Q 32.328125 33.6875 34.8125 36.53125 
Q 39.546875 41.84375 41.421875 45.53125 
Q 43.3125 49.21875 43.3125 52.78125 
Q 43.3125 58.59375 39.234375 62.25 
Q 35.15625 65.921875 28.609375 65.921875 
Q 23.96875 65.921875 18.8125 64.3125 
Q 13.671875 62.703125 7.8125 59.421875 
L 7.8125 69.390625 
Q 13.765625 71.78125 18.9375 73 
Q 24.125 74.21875 28.421875 74.21875 
Q 39.75 74.21875 46.484375 68.546875 
Q 53.21875 62.890625 53.21875 53.421875 
Q 53.21875 48.921875 51.53125 44.890625 
Q 49.859375 40.875 45.40625 35.40625 
Q 44.1875 33.984375 37.640625 27.21875 
Q 31.109375 20.453125 19.1875 8.296875 
z
" id="DejaVuSans-50"/>
       <path d="M 10.796875 72.90625 
L 49.515625 72.90625 
L 49.515625 64.59375 
L 19.828125 64.59375 
L 19.828125 46.734375 
Q 21.96875 47.46875 24.109375 47.828125 
Q 26.265625 48.1875 28.421875 48.1875 
Q 40.625 48.1875 47.75 41.5 
Q 54.890625 34.8125 54.890625 23.390625 
Q 54.890625 11.625 47.5625 5.09375 
Q 40.234375 -1.421875 26.90625 -1.421875 
Q 22.3125 -1.421875 17.546875 -0.640625 
Q 12.796875 0.140625 7.71875 1.703125 
L 7.71875 11.625 
Q 12.109375 9.234375 16.796875 8.0625 
Q 21.484375 6.890625 26.703125 6.890625 
Q 35.15625 6.890625 40.078125 11.328125 
Q 45.015625 15.765625 45.015625 23.390625 
Q 45.015625 31 40.078125 35.4375 
Q 35.15625 39.890625 26.703125 39.890625 
Q 22.75 39.890625 18.8125 39.015625 
Q 14.890625 38.140625 10.796875 36.28125 
z
" id="DejaVuSans-53"/>
      </defs>
      <g transform="translate(115.260312 235.156696)scale(0.1 -0.1)">
       <use xlink:href="#DejaVuSans-50"/>
       <use x="63.623047" xlink:href="#DejaVuSans-53"/>
       <use x="127.246094" xlink:href="#DejaVuSans-48"/>
      </g>
     </g>
    </g>
    <g id="ytick_3">
     <g id="line2d_4">
      <g>
       <use style="stroke:#000000;stroke-width:0.8;" x="141.347813" xlink:href="#m5408ec9afd" y="204.636829"/>
      </g>
     </g>
     <g id="text_4">
      <!-- 500 -->
      <g transform="translate(115.260312 208.436048)scale(0.1 -0.1)">
       <use xlink:href="#DejaVuSans-53"/>
       <use x="63.623047" xlink:href="#DejaVuSans-48"/>
       <use x="127.246094" xlink:href="#DejaVuSans-48"/>
      </g>
     </g>
    </g>
    <g id="ytick_4">
     <g id="line2d_5">
      <g>
       <use style="stroke:#000000;stroke-width:0.8;" x="141.347813" xlink:href="#m5408ec9afd" y="177.916182"/>
      </g>
     </g>
     <g id="text_5">
      <!-- 750 -->
      <defs>
       <path d="M 8.203125 72.90625 
L 55.078125 72.90625 
L 55.078125 68.703125 
L 28.609375 0 
L 18.3125 0 
L 43.21875 64.59375 
L 8.203125 64.59375 
z
" id="DejaVuSans-55"/>
      </defs>
      <g transform="translate(115.260312 181.7154)scale(0.1 -0.1)">
       <use xlink:href="#DejaVuSans-55"/>
       <use x="63.623047" xlink:href="#DejaVuSans-53"/>
       <use x="127.246094" xlink:href="#DejaVuSans-48"/>
      </g>
     </g>
    </g>
    <g id="ytick_5">
     <g id="line2d_6">
      <g>
       <use style="stroke:#000000;stroke-width:0.8;" x="141.347813" xlink:href="#m5408ec9afd" y="151.195534"/>
      </g>
     </g>
     <g id="text_6">
      <!-- 1000 -->
      <defs>
       <path d="M 12.40625 8.296875 
L 28.515625 8.296875 
L 28.515625 63.921875 
L 10.984375 60.40625 
L 10.984375 69.390625 
L 28.421875 72.90625 
L 38.28125 72.90625 
L 38.28125 8.296875 
L 54.390625 8.296875 
L 54.390625 0 
L 12.40625 0 
z
" id="DejaVuSans-49"/>
      </defs>
      <g transform="translate(108.897813 154.994753)scale(0.1 -0.1)">
       <use xlink:href="#DejaVuSans-49"/>
       <use x="63.623047" xlink:href="#DejaVuSans-48"/>
       <use x="127.246094" xlink:href="#DejaVuSans-48"/>
       <use x="190.869141" xlink:href="#DejaVuSans-48"/>
      </g>
     </g>
    </g>
    <g id="ytick_6">
     <g id="line2d_7">
      <g>
       <use style="stroke:#000000;stroke-width:0.8;" x="141.347813" xlink:href="#m5408ec9afd" y="124.474886"/>
      </g>
     </g>
     <g id="text_7">
      <!-- 1250 -->
      <g transform="translate(108.897813 128.274105)scale(0.1 -0.1)">
       <use xlink:href="#DejaVuSans-49"/>
       <use x="63.623047" xlink:href="#DejaVuSans-50"/>
       <use x="127.246094" xlink:href="#DejaVuSans-53"/>
       <use x="190.869141" xlink:href="#DejaVuSans-48"/>
      </g>
     </g>
    </g>
    <g id="ytick_7">
     <g id="line2d_8">
      <g>
       <use style="stroke:#000000;stroke-width:0.8;" x="141.347813" xlink:href="#m5408ec9afd" y="97.754238"/>
      </g>
     </g>
     <g id="text_8">
      <!-- 1500 -->
      <g transform="translate(108.897813 101.553457)scale(0.1 -0.1)">
       <use xlink:href="#DejaVuSans-49"/>
       <use x="63.623047" xlink:href="#DejaVuSans-53"/>
       <use x="127.246094" xlink:href="#DejaVuSans-48"/>
       <use x="190.869141" xlink:href="#DejaVuSans-48"/>
      </g>
     </g>
    </g>
    <g id="ytick_8">
     <g id="line2d_9">
      <g>
       <use style="stroke:#000000;stroke-width:0.8;" x="141.347813" xlink:href="#m5408ec9afd" y="71.033591"/>
      </g>
     </g>
     <g id="text_9">
      <!-- 1750 -->
      <g transform="translate(108.897813 74.832809)scale(0.1 -0.1)">
       <use xlink:href="#DejaVuSans-49"/>
       <use x="63.623047" xlink:href="#DejaVuSans-55"/>
       <use x="127.246094" xlink:href="#DejaVuSans-53"/>
       <use x="190.869141" xlink:href="#DejaVuSans-48"/>
      </g>
     </g>
    </g>
    <g id="ytick_9">
     <g id="line2d_10">
      <g>
       <use style="stroke:#000000;stroke-width:0.8;" x="141.347813" xlink:href="#m5408ec9afd" y="44.312943"/>
      </g>
     </g>
     <g id="text_10">
      <!-- 2000 -->
      <g transform="translate(108.897813 48.112162)scale(0.1 -0.1)">
       <use xlink:href="#DejaVuSans-50"/>
       <use x="63.623047" xlink:href="#DejaVuSans-48"/>
       <use x="127.246094" xlink:href="#DejaVuSans-48"/>
       <use x="190.869141" xlink:href="#DejaVuSans-48"/>
      </g>
     </g>
    </g>
    <g id="text_11">
     <!-- Attendee Number -->
     <defs>
      <path d="M 34.1875 63.1875 
L 20.796875 26.90625 
L 47.609375 26.90625 
z
M 28.609375 72.90625 
L 39.796875 72.90625 
L 67.578125 0 
L 57.328125 0 
L 50.6875 18.703125 
L 17.828125 18.703125 
L 11.1875 0 
L 0.78125 0 
z
" id="DejaVuSans-65"/>
      <path id="DejaVuSans-32"/>
      <path d="M 9.8125 72.90625 
L 23.09375 72.90625 
L 55.421875 11.921875 
L 55.421875 72.90625 
L 64.984375 72.90625 
L 64.984375 0 
L 51.703125 0 
L 19.390625 60.984375 
L 19.390625 0 
L 9.8125 0 
z
" id="DejaVuSans-78"/>
      <path d="M 8.5 21.578125 
L 8.5 54.6875 
L 17.484375 54.6875 
L 17.484375 21.921875 
Q 17.484375 14.15625 20.5 10.265625 
Q 23.53125 6.390625 29.59375 6.390625 
Q 36.859375 6.390625 41.078125 11.03125 
Q 45.3125 15.671875 45.3125 23.6875 
L 45.3125 54.6875 
L 54.296875 54.6875 
L 54.296875 0 
L 45.3125 0 
L 45.3125 8.40625 
Q 42.046875 3.421875 37.71875 1 
Q 33.40625 -1.421875 27.6875 -1.421875 
Q 18.265625 -1.421875 13.375 4.4375 
Q 8.5 10.296875 8.5 21.578125 
z
M 31.109375 56 
z
" id="DejaVuSans-117"/>
      <path d="M 52 44.1875 
Q 55.375 50.25 60.0625 53.125 
Q 64.75 56 71.09375 56 
Q 79.640625 56 84.28125 50.015625 
Q 88.921875 44.046875 88.921875 33.015625 
L 88.921875 0 
L 79.890625 0 
L 79.890625 32.71875 
Q 79.890625 40.578125 77.09375 44.375 
Q 74.3125 48.1875 68.609375 48.1875 
Q 61.625 48.1875 57.5625 43.546875 
Q 53.515625 38.921875 53.515625 30.90625 
L 53.515625 0 
L 44.484375 0 
L 44.484375 32.71875 
Q 44.484375 40.625 41.703125 44.40625 
Q 38.921875 48.1875 33.109375 48.1875 
Q 26.21875 48.1875 22.15625 43.53125 
Q 18.109375 38.875 18.109375 30.90625 
L 18.109375 0 
L 9.078125 0 
L 9.078125 54.6875 
L 18.109375 54.6875 
L 18.109375 46.1875 
Q 21.1875 51.21875 25.484375 53.609375 
Q 29.78125 56 35.6875 56 
Q 41.65625 56 45.828125 52.96875 
Q 50 49.953125 52 44.1875 
z
" id="DejaVuSans-109"/>
      <path d="M 48.6875 27.296875 
Q 48.6875 37.203125 44.609375 42.84375 
Q 40.53125 48.484375 33.40625 48.484375 
Q 26.265625 48.484375 22.1875 42.84375 
Q 18.109375 37.203125 18.109375 27.296875 
Q 18.109375 17.390625 22.1875 11.75 
Q 26.265625 6.109375 33.40625 6.109375 
Q 40.53125 6.109375 44.609375 11.75 
Q 48.6875 17.390625 48.6875 27.296875 
z
M 18.109375 46.390625 
Q 20.953125 51.265625 25.265625 53.625 
Q 29.59375 56 35.59375 56 
Q 45.5625 56 51.78125 48.09375 
Q 58.015625 40.1875 58.015625 27.296875 
Q 58.015625 14.40625 51.78125 6.484375 
Q 45.5625 -1.421875 35.59375 -1.421875 
Q 29.59375 -1.421875 25.265625 0.953125 
Q 20.953125 3.328125 18.109375 8.203125 
L 18.109375 0 
L 9.078125 0 
L 9.078125 75.984375 
L 18.109375 75.984375 
z
" id="DejaVuSans-98"/>
      <path d="M 41.109375 46.296875 
Q 39.59375 47.171875 37.8125 47.578125 
Q 36.03125 48 33.890625 48 
Q 26.265625 48 22.1875 43.046875 
Q 18.109375 38.09375 18.109375 28.8125 
L 18.109375 0 
L 9.078125 0 
L 9.078125 54.6875 
L 18.109375 54.6875 
L 18.109375 46.1875 
Q 20.953125 51.171875 25.484375 53.578125 
Q 30.03125 56 36.53125 56 
Q 37.453125 56 38.578125 55.875 
Q 39.703125 55.765625 41.0625 55.515625 
z
" id="DejaVuSans-114"/>
     </defs>
     <g transform="translate(102.818125 191.698906)rotate(-90)scale(0.1 -0.1)">
      <use xlink:href="#DejaVuSans-65"/>
      <use x="66.658203" xlink:href="#DejaVuSans-116"/>
      <use x="105.867188" xlink:href="#DejaVuSans-116"/>
      <use x="145.076172" xlink:href="#DejaVuSans-101"/>
      <use x="206.599609" xlink:href="#DejaVuSans-110"/>
      <use x="269.978516" xlink:href="#DejaVuSans-100"/>
      <use x="333.455078" xlink:href="#DejaVuSans-101"/>
      <use x="394.978516" xlink:href="#DejaVuSans-101"/>
      <use x="456.501953" xlink:href="#DejaVuSans-32"/>
      <use x="488.289062" xlink:href="#DejaVuSans-78"/>
      <use x="563.09375" xlink:href="#DejaVuSans-117"/>
      <use x="626.472656" xlink:href="#DejaVuSans-109"/>
      <use x="723.884766" xlink:href="#DejaVuSans-98"/>
      <use x="787.361328" xlink:href="#DejaVuSans-101"/>
      <use x="848.884766" xlink:href="#DejaVuSans-114"/>
     </g>
    </g>
   </g>
   <g id="patch_16">
    <path d="M 141.347813 258.078125 
L 141.347813 36.318125 
" style="fill:none;stroke:#000000;stroke-linecap:square;stroke-linejoin:miter;stroke-width:0.8;"/>
   </g>
   <g id="patch_17">
    <path d="M 252.947813 258.078125 
L 252.947813 36.318125 
" style="fill:none;stroke:#000000;stroke-linecap:square;stroke-linejoin:miter;stroke-width:0.8;"/>
   </g>
   <g id="patch_18">
    <path d="M 141.347813 258.078125 
L 252.947813 258.078125 
" style="fill:none;stroke:#000000;stroke-linecap:square;stroke-linejoin:miter;stroke-width:0.8;"/>
   </g>
   <g id="patch_19">
    <path d="M 141.347813 36.318125 
L 252.947813 36.318125 
" style="fill:none;stroke:#000000;stroke-linecap:square;stroke-linejoin:miter;stroke-width:0.8;"/>
   </g>
   <g id="text_12">
    <!-- Attendee Number by subregion for IETF105 (2002 participants) -->
    <defs>
     <path d="M 32.171875 -5.078125 
Q 28.375 -14.84375 24.75 -17.8125 
Q 21.140625 -20.796875 15.09375 -20.796875 
L 7.90625 -20.796875 
L 7.90625 -13.28125 
L 13.1875 -13.28125 
Q 16.890625 -13.28125 18.9375 -11.515625 
Q 21 -9.765625 23.484375 -3.21875 
L 25.09375 0.875 
L 2.984375 54.6875 
L 12.5 54.6875 
L 29.59375 11.921875 
L 46.6875 54.6875 
L 56.203125 54.6875 
z
" id="DejaVuSans-121"/>
     <path d="M 44.28125 53.078125 
L 44.28125 44.578125 
Q 40.484375 46.53125 36.375 47.5 
Q 32.28125 48.484375 27.875 48.484375 
Q 21.1875 48.484375 17.84375 46.4375 
Q 14.5 44.390625 14.5 40.28125 
Q 14.5 37.15625 16.890625 35.375 
Q 19.28125 33.59375 26.515625 31.984375 
L 29.59375 31.296875 
Q 39.15625 29.25 43.1875 25.515625 
Q 47.21875 21.78125 47.21875 15.09375 
Q 47.21875 7.46875 41.1875 3.015625 
Q 35.15625 -1.421875 24.609375 -1.421875 
Q 20.21875 -1.421875 15.453125 -0.5625 
Q 10.6875 0.296875 5.421875 2 
L 5.421875 11.28125 
Q 10.40625 8.6875 15.234375 7.390625 
Q 20.0625 6.109375 24.8125 6.109375 
Q 31.15625 6.109375 34.5625 8.28125 
Q 37.984375 10.453125 37.984375 14.40625 
Q 37.984375 18.0625 35.515625 20.015625 
Q 33.0625 21.96875 24.703125 23.78125 
L 21.578125 24.515625 
Q 13.234375 26.265625 9.515625 29.90625 
Q 5.8125 33.546875 5.8125 39.890625 
Q 5.8125 47.609375 11.28125 51.796875 
Q 16.75 56 26.8125 56 
Q 31.78125 56 36.171875 55.265625 
Q 40.578125 54.546875 44.28125 53.078125 
z
" id="DejaVuSans-115"/>
     <path d="M 45.40625 27.984375 
Q 45.40625 37.75 41.375 43.109375 
Q 37.359375 48.484375 30.078125 48.484375 
Q 22.859375 48.484375 18.828125 43.109375 
Q 14.796875 37.75 14.796875 27.984375 
Q 14.796875 18.265625 18.828125 12.890625 
Q 22.859375 7.515625 30.078125 7.515625 
Q 37.359375 7.515625 41.375 12.890625 
Q 45.40625 18.265625 45.40625 27.984375 
z
M 54.390625 6.78125 
Q 54.390625 -7.171875 48.1875 -13.984375 
Q 42 -20.796875 29.203125 -20.796875 
Q 24.46875 -20.796875 20.265625 -20.09375 
Q 16.0625 -19.390625 12.109375 -17.921875 
L 12.109375 -9.1875 
Q 16.0625 -11.328125 19.921875 -12.34375 
Q 23.78125 -13.375 27.78125 -13.375 
Q 36.625 -13.375 41.015625 -8.765625 
Q 45.40625 -4.15625 45.40625 5.171875 
L 45.40625 9.625 
Q 42.625 4.78125 38.28125 2.390625 
Q 33.9375 0 27.875 0 
Q 17.828125 0 11.671875 7.65625 
Q 5.515625 15.328125 5.515625 27.984375 
Q 5.515625 40.671875 11.671875 48.328125 
Q 17.828125 56 27.875 56 
Q 33.9375 56 38.28125 53.609375 
Q 42.625 51.21875 45.40625 46.390625 
L 45.40625 54.6875 
L 54.390625 54.6875 
z
" id="DejaVuSans-103"/>
     <path d="M 9.421875 54.6875 
L 18.40625 54.6875 
L 18.40625 0 
L 9.421875 0 
z
M 9.421875 75.984375 
L 18.40625 75.984375 
L 18.40625 64.59375 
L 9.421875 64.59375 
z
" id="DejaVuSans-105"/>
     <path d="M 30.609375 48.390625 
Q 23.390625 48.390625 19.1875 42.75 
Q 14.984375 37.109375 14.984375 27.296875 
Q 14.984375 17.484375 19.15625 11.84375 
Q 23.34375 6.203125 30.609375 6.203125 
Q 37.796875 6.203125 41.984375 11.859375 
Q 46.1875 17.53125 46.1875 27.296875 
Q 46.1875 37.015625 41.984375 42.703125 
Q 37.796875 48.390625 30.609375 48.390625 
z
M 30.609375 56 
Q 42.328125 56 49.015625 48.375 
Q 55.71875 40.765625 55.71875 27.296875 
Q 55.71875 13.875 49.015625 6.21875 
Q 42.328125 -1.421875 30.609375 -1.421875 
Q 18.84375 -1.421875 12.171875 6.21875 
Q 5.515625 13.875 5.515625 27.296875 
Q 5.515625 40.765625 12.171875 48.375 
Q 18.84375 56 30.609375 56 
z
" id="DejaVuSans-111"/>
     <path d="M 37.109375 75.984375 
L 37.109375 68.5 
L 28.515625 68.5 
Q 23.6875 68.5 21.796875 66.546875 
Q 19.921875 64.59375 19.921875 59.515625 
L 19.921875 54.6875 
L 34.71875 54.6875 
L 34.71875 47.703125 
L 19.921875 47.703125 
L 19.921875 0 
L 10.890625 0 
L 10.890625 47.703125 
L 2.296875 47.703125 
L 2.296875 54.6875 
L 10.890625 54.6875 
L 10.890625 58.5 
Q 10.890625 67.625 15.140625 71.796875 
Q 19.390625 75.984375 28.609375 75.984375 
z
" id="DejaVuSans-102"/>
     <path d="M 9.8125 72.90625 
L 19.671875 72.90625 
L 19.671875 0 
L 9.8125 0 
z
" id="DejaVuSans-73"/>
     <path d="M 9.8125 72.90625 
L 55.90625 72.90625 
L 55.90625 64.59375 
L 19.671875 64.59375 
L 19.671875 43.015625 
L 54.390625 43.015625 
L 54.390625 34.71875 
L 19.671875 34.71875 
L 19.671875 8.296875 
L 56.78125 8.296875 
L 56.78125 0 
L 9.8125 0 
z
" id="DejaVuSans-69"/>
     <path d="M -0.296875 72.90625 
L 61.375 72.90625 
L 61.375 64.59375 
L 35.5 64.59375 
L 35.5 0 
L 25.59375 0 
L 25.59375 64.59375 
L -0.296875 64.59375 
z
" id="DejaVuSans-84"/>
     <path d="M 9.8125 72.90625 
L 51.703125 72.90625 
L 51.703125 64.59375 
L 19.671875 64.59375 
L 19.671875 43.109375 
L 48.578125 43.109375 
L 48.578125 34.8125 
L 19.671875 34.8125 
L 19.671875 0 
L 9.8125 0 
z
" id="DejaVuSans-70"/>
     <path d="M 31 75.875 
Q 24.46875 64.65625 21.28125 53.65625 
Q 18.109375 42.671875 18.109375 31.390625 
Q 18.109375 20.125 21.3125 9.0625 
Q 24.515625 -2 31 -13.1875 
L 23.1875 -13.1875 
Q 15.875 -1.703125 12.234375 9.375 
Q 8.59375 20.453125 8.59375 31.390625 
Q 8.59375 42.28125 12.203125 53.3125 
Q 15.828125 64.359375 23.1875 75.875 
z
" id="DejaVuSans-40"/>
     <path d="M 18.109375 8.203125 
L 18.109375 -20.796875 
L 9.078125 -20.796875 
L 9.078125 54.6875 
L 18.109375 54.6875 
L 18.109375 46.390625 
Q 20.953125 51.265625 25.265625 53.625 
Q 29.59375 56 35.59375 56 
Q 45.5625 56 51.78125 48.09375 
Q 58.015625 40.1875 58.015625 27.296875 
Q 58.015625 14.40625 51.78125 6.484375 
Q 45.5625 -1.421875 35.59375 -1.421875 
Q 29.59375 -1.421875 25.265625 0.953125 
Q 20.953125 3.328125 18.109375 8.203125 
z
M 48.6875 27.296875 
Q 48.6875 37.203125 44.609375 42.84375 
Q 40.53125 48.484375 33.40625 48.484375 
Q 26.265625 48.484375 22.1875 42.84375 
Q 18.109375 37.203125 18.109375 27.296875 
Q 18.109375 17.390625 22.1875 11.75 
Q 26.265625 6.109375 33.40625 6.109375 
Q 40.53125 6.109375 44.609375 11.75 
Q 48.6875 17.390625 48.6875 27.296875 
z
" id="DejaVuSans-112"/>
     <path d="M 48.78125 52.59375 
L 48.78125 44.1875 
Q 44.96875 46.296875 41.140625 47.34375 
Q 37.3125 48.390625 33.40625 48.390625 
Q 24.65625 48.390625 19.8125 42.84375 
Q 14.984375 37.3125 14.984375 27.296875 
Q 14.984375 17.28125 19.8125 11.734375 
Q 24.65625 6.203125 33.40625 6.203125 
Q 37.3125 6.203125 41.140625 7.25 
Q 44.96875 8.296875 48.78125 10.40625 
L 48.78125 2.09375 
Q 45.015625 0.34375 40.984375 -0.53125 
Q 36.96875 -1.421875 32.421875 -1.421875 
Q 20.0625 -1.421875 12.78125 6.34375 
Q 5.515625 14.109375 5.515625 27.296875 
Q 5.515625 40.671875 12.859375 48.328125 
Q 20.21875 56 33.015625 56 
Q 37.15625 56 41.109375 55.140625 
Q 45.0625 54.296875 48.78125 52.59375 
z
" id="DejaVuSans-99"/>
     <path d="M 8.015625 75.875 
L 15.828125 75.875 
Q 23.140625 64.359375 26.78125 53.3125 
Q 30.421875 42.28125 30.421875 31.390625 
Q 30.421875 20.453125 26.78125 9.375 
Q 23.140625 -1.703125 15.828125 -13.1875 
L 8.015625 -13.1875 
Q 14.5 -2 17.703125 9.0625 
Q 20.90625 20.125 20.90625 31.390625 
Q 20.90625 42.671875 17.703125 53.65625 
Q 14.5 64.65625 8.015625 75.875 
z
" id="DejaVuSans-41"/>
    </defs>
    <g transform="translate(7.2 16.318125)scale(0.12 -0.12)">
     <use xlink:href="#DejaVuSans-65"/>
     <use x="66.658203" xlink:href="#DejaVuSans-116"/>
     <use x="105.867188" xlink:href="#DejaVuSans-116"/>
     <use x="145.076172" xlink:href="#DejaVuSans-101"/>
     <use x="206.599609" xlink:href="#DejaVuSans-110"/>
     <use x="269.978516" xlink:href="#DejaVuSans-100"/>
     <use x="333.455078" xlink:href="#DejaVuSans-101"/>
     <use x="394.978516" xlink:href="#DejaVuSans-101"/>
     <use x="456.501953" xlink:href="#DejaVuSans-32"/>
     <use x="488.289062" xlink:href="#DejaVuSans-78"/>
     <use x="563.09375" xlink:href="#DejaVuSans-117"/>
     <use x="626.472656" xlink:href="#DejaVuSans-109"/>
     <use x="723.884766" xlink:href="#DejaVuSans-98"/>
     <use x="787.361328" xlink:href="#DejaVuSans-101"/>
     <use x="848.884766" xlink:href="#DejaVuSans-114"/>
     <use x="889.998047" xlink:href="#DejaVuSans-32"/>
     <use x="921.785156" xlink:href="#DejaVuSans-98"/>
     <use x="985.261719" xlink:href="#DejaVuSans-121"/>
     <use x="1044.441406" xlink:href="#DejaVuSans-32"/>
     <use x="1076.228516" xlink:href="#DejaVuSans-115"/>
     <use x="1128.328125" xlink:href="#DejaVuSans-117"/>
     <use x="1191.707031" xlink:href="#DejaVuSans-98"/>
     <use x="1255.183594" xlink:href="#DejaVuSans-114"/>
     <use x="1294.046875" xlink:href="#DejaVuSans-101"/>
     <use x="1355.570312" xlink:href="#DejaVuSans-103"/>
     <use x="1419.046875" xlink:href="#DejaVuSans-105"/>
     <use x="1446.830078" xlink:href="#DejaVuSans-111"/>
     <use x="1508.011719" xlink:href="#DejaVuSans-110"/>
     <use x="1571.390625" xlink:href="#DejaVuSans-32"/>
     <use x="1603.177734" xlink:href="#DejaVuSans-102"/>
     <use x="1638.382812" xlink:href="#DejaVuSans-111"/>
     <use x="1699.564453" xlink:href="#DejaVuSans-114"/>
     <use x="1740.677734" xlink:href="#DejaVuSans-32"/>
     <use x="1772.464844" xlink:href="#DejaVuSans-73"/>
     <use x="1801.957031" xlink:href="#DejaVuSans-69"/>
     <use x="1865.140625" xlink:href="#DejaVuSans-84"/>
     <use x="1926.224609" xlink:href="#DejaVuSans-70"/>
     <use x="1983.744141" xlink:href="#DejaVuSans-49"/>
     <use x="2047.367188" xlink:href="#DejaVuSans-48"/>
     <use x="2110.990234" xlink:href="#DejaVuSans-53"/>
     <use x="2174.613281" xlink:href="#DejaVuSans-32"/>
     <use x="2206.400391" xlink:href="#DejaVuSans-40"/>
     <use x="2245.414062" xlink:href="#DejaVuSans-50"/>
     <use x="2309.037109" xlink:href="#DejaVuSans-48"/>
     <use x="2372.660156" xlink:href="#DejaVuSans-48"/>
     <use x="2436.283203" xlink:href="#DejaVuSans-50"/>
     <use x="2499.90625" xlink:href="#DejaVuSans-32"/>
     <use x="2531.693359" xlink:href="#DejaVuSans-112"/>
     <use x="2595.169922" xlink:href="#DejaVuSans-97"/>
     <use x="2656.449219" xlink:href="#DejaVuSans-114"/>
     <use x="2697.5625" xlink:href="#DejaVuSans-116"/>
     <use x="2736.771484" xlink:href="#DejaVuSans-105"/>
     <use x="2764.554688" xlink:href="#DejaVuSans-99"/>
     <use x="2819.535156" xlink:href="#DejaVuSans-105"/>
     <use x="2847.318359" xlink:href="#DejaVuSans-112"/>
     <use x="2910.794922" xlink:href="#DejaVuSans-97"/>
     <use x="2972.074219" xlink:href="#DejaVuSans-110"/>
     <use x="3035.453125" xlink:href="#DejaVuSans-116"/>
     <use x="3074.662109" xlink:href="#DejaVuSans-115"/>
     <use x="3126.761719" xlink:href="#DejaVuSans-41"/>
    </g>
   </g>
   <g id="legend_1">
    <g id="patch_20">
     <path d="M 259.947813 212.95775 
L 457.186875 212.95775 
Q 459.186875 212.95775 459.186875 210.95775 
L 459.186875 21.142125 
Q 459.186875 19.142125 457.186875 19.142125 
L 259.947813 19.142125 
Q 257.947813 19.142125 257.947813 21.142125 
L 257.947813 210.95775 
Q 257.947813 212.95775 259.947813 212.95775 
z
" style="fill:#ffffff;opacity:0.8;stroke:#cccccc;stroke-linejoin:miter;"/>
    </g>
    <g id="patch_21">
     <path d="M 261.947813 30.740563 
L 281.947813 30.740563 
L 281.947813 23.740563 
L 261.947813 23.740563 
z
" style="fill:#1f77b4;"/>
    </g>
    <g id="text_13">
     <!-- Northern America -->
     <defs>
      <path d="M 54.890625 33.015625 
L 54.890625 0 
L 45.90625 0 
L 45.90625 32.71875 
Q 45.90625 40.484375 42.875 44.328125 
Q 39.84375 48.1875 33.796875 48.1875 
Q 26.515625 48.1875 22.3125 43.546875 
Q 18.109375 38.921875 18.109375 30.90625 
L 18.109375 0 
L 9.078125 0 
L 9.078125 75.984375 
L 18.109375 75.984375 
L 18.109375 46.1875 
Q 21.34375 51.125 25.703125 53.5625 
Q 30.078125 56 35.796875 56 
Q 45.21875 56 50.046875 50.171875 
Q 54.890625 44.34375 54.890625 33.015625 
z
" id="DejaVuSans-104"/>
     </defs>
     <g transform="translate(289.947813 30.740563)scale(0.1 -0.1)">
      <use xlink:href="#DejaVuSans-78"/>
      <use x="74.804688" xlink:href="#DejaVuSans-111"/>
      <use x="135.986328" xlink:href="#DejaVuSans-114"/>
      <use x="177.099609" xlink:href="#DejaVuSans-116"/>
      <use x="216.308594" xlink:href="#DejaVuSans-104"/>
      <use x="279.6875" xlink:href="#DejaVuSans-101"/>
      <use x="341.210938" xlink:href="#DejaVuSans-114"/>
      <use x="380.574219" xlink:href="#DejaVuSans-110"/>
      <use x="443.953125" xlink:href="#DejaVuSans-32"/>
      <use x="475.740234" xlink:href="#DejaVuSans-65"/>
      <use x="544.148438" xlink:href="#DejaVuSans-109"/>
      <use x="641.560547" xlink:href="#DejaVuSans-101"/>
      <use x="703.083984" xlink:href="#DejaVuSans-114"/>
      <use x="744.197266" xlink:href="#DejaVuSans-105"/>
      <use x="771.980469" xlink:href="#DejaVuSans-99"/>
      <use x="826.960938" xlink:href="#DejaVuSans-97"/>
     </g>
    </g>
    <g id="patch_22">
     <path d="M 261.947813 45.418688 
L 281.947813 45.418688 
L 281.947813 38.418688 
L 261.947813 38.418688 
z
" style="fill:#ff7f0e;"/>
    </g>
    <g id="text_14">
     <!-- Western Europe -->
     <defs>
      <path d="M 3.328125 72.90625 
L 13.28125 72.90625 
L 28.609375 11.28125 
L 43.890625 72.90625 
L 54.984375 72.90625 
L 70.3125 11.28125 
L 85.59375 72.90625 
L 95.609375 72.90625 
L 77.296875 0 
L 64.890625 0 
L 49.515625 63.28125 
L 33.984375 0 
L 21.578125 0 
z
" id="DejaVuSans-87"/>
     </defs>
     <g transform="translate(289.947813 45.418688)scale(0.1 -0.1)">
      <use xlink:href="#DejaVuSans-87"/>
      <use x="93.001953" xlink:href="#DejaVuSans-101"/>
      <use x="154.525391" xlink:href="#DejaVuSans-115"/>
      <use x="206.625" xlink:href="#DejaVuSans-116"/>
      <use x="245.833984" xlink:href="#DejaVuSans-101"/>
      <use x="307.357422" xlink:href="#DejaVuSans-114"/>
      <use x="346.720703" xlink:href="#DejaVuSans-110"/>
      <use x="410.099609" xlink:href="#DejaVuSans-32"/>
      <use x="441.886719" xlink:href="#DejaVuSans-69"/>
      <use x="505.070312" xlink:href="#DejaVuSans-117"/>
      <use x="568.449219" xlink:href="#DejaVuSans-114"/>
      <use x="607.3125" xlink:href="#DejaVuSans-111"/>
      <use x="668.494141" xlink:href="#DejaVuSans-112"/>
      <use x="731.970703" xlink:href="#DejaVuSans-101"/>
     </g>
    </g>
    <g id="patch_23">
     <path d="M 261.947813 60.096813 
L 281.947813 60.096813 
L 281.947813 53.096813 
L 261.947813 53.096813 
z
" style="fill:#2ca02c;"/>
    </g>
    <g id="text_15">
     <!-- Eastern Asia -->
     <g transform="translate(289.947813 60.096813)scale(0.1 -0.1)">
      <use xlink:href="#DejaVuSans-69"/>
      <use x="63.183594" xlink:href="#DejaVuSans-97"/>
      <use x="124.462891" xlink:href="#DejaVuSans-115"/>
      <use x="176.5625" xlink:href="#DejaVuSans-116"/>
      <use x="215.771484" xlink:href="#DejaVuSans-101"/>
      <use x="277.294922" xlink:href="#DejaVuSans-114"/>
      <use x="316.658203" xlink:href="#DejaVuSans-110"/>
      <use x="380.037109" xlink:href="#DejaVuSans-32"/>
      <use x="411.824219" xlink:href="#DejaVuSans-65"/>
      <use x="480.232422" xlink:href="#DejaVuSans-115"/>
      <use x="532.332031" xlink:href="#DejaVuSans-105"/>
      <use x="560.115234" xlink:href="#DejaVuSans-97"/>
     </g>
    </g>
    <g id="patch_24">
     <path d="M 261.947813 74.774938 
L 281.947813 74.774938 
L 281.947813 67.774938 
L 261.947813 67.774938 
z
" style="fill:#d62728;"/>
    </g>
    <g id="text_16">
     <!-- Sub-Saharan Africa -->
     <defs>
      <path d="M 53.515625 70.515625 
L 53.515625 60.890625 
Q 47.90625 63.578125 42.921875 64.890625 
Q 37.9375 66.21875 33.296875 66.21875 
Q 25.25 66.21875 20.875 63.09375 
Q 16.5 59.96875 16.5 54.203125 
Q 16.5 49.359375 19.40625 46.890625 
Q 22.3125 44.4375 30.421875 42.921875 
L 36.375 41.703125 
Q 47.40625 39.59375 52.65625 34.296875 
Q 57.90625 29 57.90625 20.125 
Q 57.90625 9.515625 50.796875 4.046875 
Q 43.703125 -1.421875 29.984375 -1.421875 
Q 24.8125 -1.421875 18.96875 -0.25 
Q 13.140625 0.921875 6.890625 3.21875 
L 6.890625 13.375 
Q 12.890625 10.015625 18.65625 8.296875 
Q 24.421875 6.59375 29.984375 6.59375 
Q 38.421875 6.59375 43.015625 9.90625 
Q 47.609375 13.234375 47.609375 19.390625 
Q 47.609375 24.75 44.3125 27.78125 
Q 41.015625 30.8125 33.5 32.328125 
L 27.484375 33.5 
Q 16.453125 35.6875 11.515625 40.375 
Q 6.59375 45.0625 6.59375 53.421875 
Q 6.59375 63.09375 13.40625 68.65625 
Q 20.21875 74.21875 32.171875 74.21875 
Q 37.3125 74.21875 42.625 73.28125 
Q 47.953125 72.359375 53.515625 70.515625 
z
" id="DejaVuSans-83"/>
      <path d="M 4.890625 31.390625 
L 31.203125 31.390625 
L 31.203125 23.390625 
L 4.890625 23.390625 
z
" id="DejaVuSans-45"/>
     </defs>
     <g transform="translate(289.947813 74.774938)scale(0.1 -0.1)">
      <use xlink:href="#DejaVuSans-83"/>
      <use x="63.476562" xlink:href="#DejaVuSans-117"/>
      <use x="126.855469" xlink:href="#DejaVuSans-98"/>
      <use x="190.332031" xlink:href="#DejaVuSans-45"/>
      <use x="226.416016" xlink:href="#DejaVuSans-83"/>
      <use x="289.892578" xlink:href="#DejaVuSans-97"/>
      <use x="351.171875" xlink:href="#DejaVuSans-104"/>
      <use x="414.550781" xlink:href="#DejaVuSans-97"/>
      <use x="475.830078" xlink:href="#DejaVuSans-114"/>
      <use x="516.943359" xlink:href="#DejaVuSans-97"/>
      <use x="578.222656" xlink:href="#DejaVuSans-110"/>
      <use x="641.601562" xlink:href="#DejaVuSans-32"/>
      <use x="673.388672" xlink:href="#DejaVuSans-65"/>
      <use x="738.171875" xlink:href="#DejaVuSans-102"/>
      <use x="773.376953" xlink:href="#DejaVuSans-114"/>
      <use x="814.490234" xlink:href="#DejaVuSans-105"/>
      <use x="842.273438" xlink:href="#DejaVuSans-99"/>
      <use x="897.253906" xlink:href="#DejaVuSans-97"/>
     </g>
    </g>
    <g id="patch_25">
     <path d="M 261.947813 89.453063 
L 281.947813 89.453063 
L 281.947813 82.453063 
L 261.947813 82.453063 
z
" style="fill:#9467bd;"/>
    </g>
    <g id="text_17">
     <!-- Northern Europe -->
     <g transform="translate(289.947813 89.453063)scale(0.1 -0.1)">
      <use xlink:href="#DejaVuSans-78"/>
      <use x="74.804688" xlink:href="#DejaVuSans-111"/>
      <use x="135.986328" xlink:href="#DejaVuSans-114"/>
      <use x="177.099609" xlink:href="#DejaVuSans-116"/>
      <use x="216.308594" xlink:href="#DejaVuSans-104"/>
      <use x="279.6875" xlink:href="#DejaVuSans-101"/>
      <use x="341.210938" xlink:href="#DejaVuSans-114"/>
      <use x="380.574219" xlink:href="#DejaVuSans-110"/>
      <use x="443.953125" xlink:href="#DejaVuSans-32"/>
      <use x="475.740234" xlink:href="#DejaVuSans-69"/>
      <use x="538.923828" xlink:href="#DejaVuSans-117"/>
      <use x="602.302734" xlink:href="#DejaVuSans-114"/>
      <use x="641.166016" xlink:href="#DejaVuSans-111"/>
      <use x="702.347656" xlink:href="#DejaVuSans-112"/>
      <use x="765.824219" xlink:href="#DejaVuSans-101"/>
     </g>
    </g>
    <g id="patch_26">
     <path d="M 261.947813 104.131188 
L 281.947813 104.131188 
L 281.947813 97.131188 
L 261.947813 97.131188 
z
" style="fill:#8c564b;"/>
    </g>
    <g id="text_18">
     <!-- Southern Asia -->
     <g transform="translate(289.947813 104.131188)scale(0.1 -0.1)">
      <use xlink:href="#DejaVuSans-83"/>
      <use x="63.476562" xlink:href="#DejaVuSans-111"/>
      <use x="124.658203" xlink:href="#DejaVuSans-117"/>
      <use x="188.037109" xlink:href="#DejaVuSans-116"/>
      <use x="227.246094" xlink:href="#DejaVuSans-104"/>
      <use x="290.625" xlink:href="#DejaVuSans-101"/>
      <use x="352.148438" xlink:href="#DejaVuSans-114"/>
      <use x="391.511719" xlink:href="#DejaVuSans-110"/>
      <use x="454.890625" xlink:href="#DejaVuSans-32"/>
      <use x="486.677734" xlink:href="#DejaVuSans-65"/>
      <use x="555.085938" xlink:href="#DejaVuSans-115"/>
      <use x="607.185547" xlink:href="#DejaVuSans-105"/>
      <use x="634.96875" xlink:href="#DejaVuSans-97"/>
     </g>
    </g>
    <g id="patch_27">
     <path d="M 261.947813 118.809313 
L 281.947813 118.809313 
L 281.947813 111.809313 
L 261.947813 111.809313 
z
" style="fill:#e377c2;"/>
    </g>
    <g id="text_19">
     <!-- Latin America and the Caribbean -->
     <defs>
      <path d="M 9.8125 72.90625 
L 19.671875 72.90625 
L 19.671875 8.296875 
L 55.171875 8.296875 
L 55.171875 0 
L 9.8125 0 
z
" id="DejaVuSans-76"/>
      <path d="M 64.40625 67.28125 
L 64.40625 56.890625 
Q 59.421875 61.53125 53.78125 63.8125 
Q 48.140625 66.109375 41.796875 66.109375 
Q 29.296875 66.109375 22.65625 58.46875 
Q 16.015625 50.828125 16.015625 36.375 
Q 16.015625 21.96875 22.65625 14.328125 
Q 29.296875 6.6875 41.796875 6.6875 
Q 48.140625 6.6875 53.78125 8.984375 
Q 59.421875 11.28125 64.40625 15.921875 
L 64.40625 5.609375 
Q 59.234375 2.09375 53.4375 0.328125 
Q 47.65625 -1.421875 41.21875 -1.421875 
Q 24.65625 -1.421875 15.125 8.703125 
Q 5.609375 18.84375 5.609375 36.375 
Q 5.609375 53.953125 15.125 64.078125 
Q 24.65625 74.21875 41.21875 74.21875 
Q 47.75 74.21875 53.53125 72.484375 
Q 59.328125 70.75 64.40625 67.28125 
z
" id="DejaVuSans-67"/>
     </defs>
     <g transform="translate(289.947813 118.809313)scale(0.1 -0.1)">
      <use xlink:href="#DejaVuSans-76"/>
      <use x="55.712891" xlink:href="#DejaVuSans-97"/>
      <use x="116.992188" xlink:href="#DejaVuSans-116"/>
      <use x="156.201172" xlink:href="#DejaVuSans-105"/>
      <use x="183.984375" xlink:href="#DejaVuSans-110"/>
      <use x="247.363281" xlink:href="#DejaVuSans-32"/>
      <use x="279.150391" xlink:href="#DejaVuSans-65"/>
      <use x="347.558594" xlink:href="#DejaVuSans-109"/>
      <use x="444.970703" xlink:href="#DejaVuSans-101"/>
      <use x="506.494141" xlink:href="#DejaVuSans-114"/>
      <use x="547.607422" xlink:href="#DejaVuSans-105"/>
      <use x="575.390625" xlink:href="#DejaVuSans-99"/>
      <use x="630.371094" xlink:href="#DejaVuSans-97"/>
      <use x="691.650391" xlink:href="#DejaVuSans-32"/>
      <use x="723.4375" xlink:href="#DejaVuSans-97"/>
      <use x="784.716797" xlink:href="#DejaVuSans-110"/>
      <use x="848.095703" xlink:href="#DejaVuSans-100"/>
      <use x="911.572266" xlink:href="#DejaVuSans-32"/>
      <use x="943.359375" xlink:href="#DejaVuSans-116"/>
      <use x="982.568359" xlink:href="#DejaVuSans-104"/>
      <use x="1045.947266" xlink:href="#DejaVuSans-101"/>
      <use x="1107.470703" xlink:href="#DejaVuSans-32"/>
      <use x="1139.257812" xlink:href="#DejaVuSans-67"/>
      <use x="1209.082031" xlink:href="#DejaVuSans-97"/>
      <use x="1270.361328" xlink:href="#DejaVuSans-114"/>
      <use x="1311.474609" xlink:href="#DejaVuSans-105"/>
      <use x="1339.257812" xlink:href="#DejaVuSans-98"/>
      <use x="1402.734375" xlink:href="#DejaVuSans-98"/>
      <use x="1466.210938" xlink:href="#DejaVuSans-101"/>
      <use x="1527.734375" xlink:href="#DejaVuSans-97"/>
      <use x="1589.013672" xlink:href="#DejaVuSans-110"/>
     </g>
    </g>
    <g id="patch_28">
     <path d="M 261.947813 133.487437 
L 281.947813 133.487437 
L 281.947813 126.487437 
L 261.947813 126.487437 
z
" style="fill:#7f7f7f;"/>
    </g>
    <g id="text_20">
     <!-- Southern Europe -->
     <g transform="translate(289.947813 133.487437)scale(0.1 -0.1)">
      <use xlink:href="#DejaVuSans-83"/>
      <use x="63.476562" xlink:href="#DejaVuSans-111"/>
      <use x="124.658203" xlink:href="#DejaVuSans-117"/>
      <use x="188.037109" xlink:href="#DejaVuSans-116"/>
      <use x="227.246094" xlink:href="#DejaVuSans-104"/>
      <use x="290.625" xlink:href="#DejaVuSans-101"/>
      <use x="352.148438" xlink:href="#DejaVuSans-114"/>
      <use x="391.511719" xlink:href="#DejaVuSans-110"/>
      <use x="454.890625" xlink:href="#DejaVuSans-32"/>
      <use x="486.677734" xlink:href="#DejaVuSans-69"/>
      <use x="549.861328" xlink:href="#DejaVuSans-117"/>
      <use x="613.240234" xlink:href="#DejaVuSans-114"/>
      <use x="652.103516" xlink:href="#DejaVuSans-111"/>
      <use x="713.285156" xlink:href="#DejaVuSans-112"/>
      <use x="776.761719" xlink:href="#DejaVuSans-101"/>
     </g>
    </g>
    <g id="patch_29">
     <path d="M 261.947813 148.165563 
L 281.947813 148.165563 
L 281.947813 141.165563 
L 261.947813 141.165563 
z
" style="fill:#bcbd22;"/>
    </g>
    <g id="text_21">
     <!-- Eastern Europe -->
     <g transform="translate(289.947813 148.165563)scale(0.1 -0.1)">
      <use xlink:href="#DejaVuSans-69"/>
      <use x="63.183594" xlink:href="#DejaVuSans-97"/>
      <use x="124.462891" xlink:href="#DejaVuSans-115"/>
      <use x="176.5625" xlink:href="#DejaVuSans-116"/>
      <use x="215.771484" xlink:href="#DejaVuSans-101"/>
      <use x="277.294922" xlink:href="#DejaVuSans-114"/>
      <use x="316.658203" xlink:href="#DejaVuSans-110"/>
      <use x="380.037109" xlink:href="#DejaVuSans-32"/>
      <use x="411.824219" xlink:href="#DejaVuSans-69"/>
      <use x="475.007812" xlink:href="#DejaVuSans-117"/>
      <use x="538.386719" xlink:href="#DejaVuSans-114"/>
      <use x="577.25" xlink:href="#DejaVuSans-111"/>
      <use x="638.431641" xlink:href="#DejaVuSans-112"/>
      <use x="701.908203" xlink:href="#DejaVuSans-101"/>
     </g>
    </g>
    <g id="patch_30">
     <path d="M 261.947813 162.843687 
L 281.947813 162.843687 
L 281.947813 155.843687 
L 261.947813 155.843687 
z
" style="fill:#17becf;"/>
    </g>
    <g id="text_22">
     <!-- Australia and New Zealand -->
     <defs>
      <path d="M 9.421875 75.984375 
L 18.40625 75.984375 
L 18.40625 0 
L 9.421875 0 
z
" id="DejaVuSans-108"/>
      <path d="M 4.203125 54.6875 
L 13.1875 54.6875 
L 24.421875 12.015625 
L 35.59375 54.6875 
L 46.1875 54.6875 
L 57.421875 12.015625 
L 68.609375 54.6875 
L 77.59375 54.6875 
L 63.28125 0 
L 52.6875 0 
L 40.921875 44.828125 
L 29.109375 0 
L 18.5 0 
z
" id="DejaVuSans-119"/>
      <path d="M 5.609375 72.90625 
L 62.890625 72.90625 
L 62.890625 65.375 
L 16.796875 8.296875 
L 64.015625 8.296875 
L 64.015625 0 
L 4.5 0 
L 4.5 7.515625 
L 50.59375 64.59375 
L 5.609375 64.59375 
z
" id="DejaVuSans-90"/>
     </defs>
     <g transform="translate(289.947813 162.843687)scale(0.1 -0.1)">
      <use xlink:href="#DejaVuSans-65"/>
      <use x="68.408203" xlink:href="#DejaVuSans-117"/>
      <use x="131.787109" xlink:href="#DejaVuSans-115"/>
      <use x="183.886719" xlink:href="#DejaVuSans-116"/>
      <use x="223.095703" xlink:href="#DejaVuSans-114"/>
      <use x="264.208984" xlink:href="#DejaVuSans-97"/>
      <use x="325.488281" xlink:href="#DejaVuSans-108"/>
      <use x="353.271484" xlink:href="#DejaVuSans-105"/>
      <use x="381.054688" xlink:href="#DejaVuSans-97"/>
      <use x="442.333984" xlink:href="#DejaVuSans-32"/>
      <use x="474.121094" xlink:href="#DejaVuSans-97"/>
      <use x="535.400391" xlink:href="#DejaVuSans-110"/>
      <use x="598.779297" xlink:href="#DejaVuSans-100"/>
      <use x="662.255859" xlink:href="#DejaVuSans-32"/>
      <use x="694.042969" xlink:href="#DejaVuSans-78"/>
      <use x="768.847656" xlink:href="#DejaVuSans-101"/>
      <use x="830.371094" xlink:href="#DejaVuSans-119"/>
      <use x="912.158203" xlink:href="#DejaVuSans-32"/>
      <use x="943.945312" xlink:href="#DejaVuSans-90"/>
      <use x="1012.451172" xlink:href="#DejaVuSans-101"/>
      <use x="1073.974609" xlink:href="#DejaVuSans-97"/>
      <use x="1135.253906" xlink:href="#DejaVuSans-108"/>
      <use x="1163.037109" xlink:href="#DejaVuSans-97"/>
      <use x="1224.316406" xlink:href="#DejaVuSans-110"/>
      <use x="1287.695312" xlink:href="#DejaVuSans-100"/>
     </g>
    </g>
    <g id="patch_31">
     <path d="M 261.947813 177.521812 
L 281.947813 177.521812 
L 281.947813 170.521812 
L 261.947813 170.521812 
z
" style="fill:#1f77b4;"/>
    </g>
    <g id="text_23">
     <!-- Western Asia -->
     <g transform="translate(289.947813 177.521812)scale(0.1 -0.1)">
      <use xlink:href="#DejaVuSans-87"/>
      <use x="93.001953" xlink:href="#DejaVuSans-101"/>
      <use x="154.525391" xlink:href="#DejaVuSans-115"/>
      <use x="206.625" xlink:href="#DejaVuSans-116"/>
      <use x="245.833984" xlink:href="#DejaVuSans-101"/>
      <use x="307.357422" xlink:href="#DejaVuSans-114"/>
      <use x="346.720703" xlink:href="#DejaVuSans-110"/>
      <use x="410.099609" xlink:href="#DejaVuSans-32"/>
      <use x="441.886719" xlink:href="#DejaVuSans-65"/>
      <use x="510.294922" xlink:href="#DejaVuSans-115"/>
      <use x="562.394531" xlink:href="#DejaVuSans-105"/>
      <use x="590.177734" xlink:href="#DejaVuSans-97"/>
     </g>
    </g>
    <g id="patch_32">
     <path d="M 261.947813 192.199937 
L 281.947813 192.199937 
L 281.947813 185.199937 
L 261.947813 185.199937 
z
" style="fill:#ff7f0e;"/>
    </g>
    <g id="text_24">
     <!-- South-eastern Asia -->
     <g transform="translate(289.947813 192.199937)scale(0.1 -0.1)">
      <use xlink:href="#DejaVuSans-83"/>
      <use x="63.476562" xlink:href="#DejaVuSans-111"/>
      <use x="124.658203" xlink:href="#DejaVuSans-117"/>
      <use x="188.037109" xlink:href="#DejaVuSans-116"/>
      <use x="227.246094" xlink:href="#DejaVuSans-104"/>
      <use x="290.625" xlink:href="#DejaVuSans-45"/>
      <use x="326.708984" xlink:href="#DejaVuSans-101"/>
      <use x="388.232422" xlink:href="#DejaVuSans-97"/>
      <use x="449.511719" xlink:href="#DejaVuSans-115"/>
      <use x="501.611328" xlink:href="#DejaVuSans-116"/>
      <use x="540.820312" xlink:href="#DejaVuSans-101"/>
      <use x="602.34375" xlink:href="#DejaVuSans-114"/>
      <use x="641.707031" xlink:href="#DejaVuSans-110"/>
      <use x="705.085938" xlink:href="#DejaVuSans-32"/>
      <use x="736.873047" xlink:href="#DejaVuSans-65"/>
      <use x="805.28125" xlink:href="#DejaVuSans-115"/>
      <use x="857.380859" xlink:href="#DejaVuSans-105"/>
      <use x="885.164062" xlink:href="#DejaVuSans-97"/>
     </g>
    </g>
    <g id="patch_33">
     <path d="M 261.947813 206.878062 
L 281.947813 206.878062 
L 281.947813 199.878062 
L 261.947813 199.878062 
z
" style="fill:#2ca02c;"/>
    </g>
    <g id="text_25">
     <!-- Northern Africa -->
     <g transform="translate(289.947813 206.878062)scale(0.1 -0.1)">
      <use xlink:href="#DejaVuSans-78"/>
      <use x="74.804688" xlink:href="#DejaVuSans-111"/>
      <use x="135.986328" xlink:href="#DejaVuSans-114"/>
      <use x="177.099609" xlink:href="#DejaVuSans-116"/>
      <use x="216.308594" xlink:href="#DejaVuSans-104"/>
      <use x="279.6875" xlink:href="#DejaVuSans-101"/>
      <use x="341.210938" xlink:href="#DejaVuSans-114"/>
      <use x="380.574219" xlink:href="#DejaVuSans-110"/>
      <use x="443.953125" xlink:href="#DejaVuSans-32"/>
      <use x="475.740234" xlink:href="#DejaVuSans-65"/>
      <use x="540.523438" xlink:href="#DejaVuSans-102"/>
      <use x="575.728516" xlink:href="#DejaVuSans-114"/>
      <use x="616.841797" xlink:href="#DejaVuSans-105"/>
      <use x="644.625" xlink:href="#DejaVuSans-99"/>
      <use x="699.605469" xlink:href="#DejaVuSans-97"/>
     </g>
    </g>
   </g>
  </g>
 </g>
 <defs>
  <clipPath id="pc06884c379">
   <rect height="221.76" width="111.6" x="141.347813" y="36.318125"/>
  </clipPath>
 </defs>
</svg>
