<?xml version="1.0" encoding="utf-8" standalone="no"?>
<!DOCTYPE svg PUBLIC "-//W3C//DTD SVG 1.1//EN"
  "http://www.w3.org/Graphics/SVG/1.1/DTD/svg11.dtd">
<!-- Created with matplotlib (https://matplotlib.org/) -->
<svg height="277.531937pt" version="1.1" viewBox="0 0 442.312174 277.531937" width="442.312174pt" xmlns="http://www.w3.org/2000/svg" xmlns:xlink="http://www.w3.org/1999/xlink">
 <defs>
  <style type="text/css">
*{stroke-linecap:butt;stroke-linejoin:round;}
  </style>
 </defs>
 <g id="figure_1">
  <g id="patch_1">
   <path d="M 0 277.531937 
L 442.312174 277.531937 
L 442.312174 0 
L 0 0 
z
" style="fill:#ffffff;"/>
  </g>
  <g id="axes_1">
   <g id="patch_2">
    <path d="M 59.850951 242.456 
L 360.509049 242.456 
L 360.509049 36.32 
L 59.850951 36.32 
z
" style="fill:#ffffff;"/>
   </g>
   <g id="patch_3">
    <path clip-path="url(#pcf46e69121)" d="M 73.517228 242.456 
L 131.059448 242.456 
L 131.059448 242.218888 
L 73.517228 242.218888 
z
" style="fill:#1f77b4;"/>
   </g>
   <g id="patch_4">
    <path clip-path="url(#pcf46e69121)" d="M 145.445003 242.456 
L 202.987223 242.456 
L 202.987223 242.161099 
L 145.445003 242.161099 
z
" style="fill:#1f77b4;"/>
   </g>
   <g id="patch_5">
    <path clip-path="url(#pcf46e69121)" d="M 217.372777 242.456 
L 274.914997 242.456 
L 274.914997 242.24432 
L 217.372777 242.24432 
z
" style="fill:#1f77b4;"/>
   </g>
   <g id="patch_6">
    <path clip-path="url(#pcf46e69121)" d="M 289.300552 242.456 
L 346.842772 242.456 
L 346.842772 242.17795 
L 289.300552 242.17795 
z
" style="fill:#1f77b4;"/>
   </g>
   <g id="patch_7">
    <path clip-path="url(#pcf46e69121)" d="M 73.517228 242.218888 
L 131.059448 242.218888 
L 131.059448 241.993381 
L 73.517228 241.993381 
z
" style="fill:#ff7f0e;"/>
   </g>
   <g id="patch_8">
    <path clip-path="url(#pcf46e69121)" d="M 145.445003 242.161099 
L 202.987223 242.161099 
L 202.987223 241.87041 
L 145.445003 241.87041 
z
" style="fill:#ff7f0e;"/>
   </g>
   <g id="patch_9">
    <path clip-path="url(#pcf46e69121)" d="M 217.372777 242.24432 
L 274.914997 242.24432 
L 274.914997 242.026576 
L 217.372777 242.026576 
z
" style="fill:#ff7f0e;"/>
   </g>
   <g id="patch_10">
    <path clip-path="url(#pcf46e69121)" d="M 289.300552 242.17795 
L 346.842772 242.17795 
L 346.842772 241.891475 
L 289.300552 241.891475 
z
" style="fill:#ff7f0e;"/>
   </g>
   <g id="patch_11">
    <path clip-path="url(#pcf46e69121)" d="M 73.517228 241.981776 
L 131.059448 241.981776 
L 131.059448 241.756269 
L 73.517228 241.756269 
z
" style="fill:#2ca02c;"/>
   </g>
   <g id="patch_12">
    <path clip-path="url(#pcf46e69121)" d="M 145.445003 241.866197 
L 202.987223 241.866197 
L 202.987223 241.575509 
L 145.445003 241.575509 
z
" style="fill:#2ca02c;"/>
   </g>
   <g id="patch_13">
    <path clip-path="url(#pcf46e69121)" d="M 217.372777 242.03264 
L 274.914997 242.03264 
L 274.914997 241.814896 
L 217.372777 241.814896 
z
" style="fill:#2ca02c;"/>
   </g>
   <g id="patch_14">
    <path clip-path="url(#pcf46e69121)" d="M 289.300552 241.8999 
L 346.842772 241.8999 
L 346.842772 241.613425 
L 289.300552 241.613425 
z
" style="fill:#2ca02c;"/>
   </g>
   <g id="patch_15">
    <path clip-path="url(#pcf46e69121)" d="M 73.517228 241.744664 
L 131.059448 241.744664 
L 131.059448 241.519157 
L 73.517228 241.519157 
z
" style="fill:#d62728;"/>
   </g>
   <g id="patch_16">
    <path clip-path="url(#pcf46e69121)" d="M 145.445003 241.571296 
L 202.987223 241.571296 
L 202.987223 241.280608 
L 145.445003 241.280608 
z
" style="fill:#d62728;"/>
   </g>
   <g id="patch_17">
    <path clip-path="url(#pcf46e69121)" d="M 217.372777 241.82096 
L 274.914997 241.82096 
L 274.914997 241.603216 
L 217.372777 241.603216 
z
" style="fill:#d62728;"/>
   </g>
   <g id="patch_18">
    <path clip-path="url(#pcf46e69121)" d="M 289.300552 241.621851 
L 346.842772 241.621851 
L 346.842772 241.335375 
L 289.300552 241.335375 
z
" style="fill:#d62728;"/>
   </g>
   <g id="patch_19">
    <path clip-path="url(#pcf46e69121)" d="M 73.517228 241.507552 
L 131.059448 241.507552 
L 131.059448 241.282045 
L 73.517228 241.282045 
z
" style="fill:#9467bd;"/>
   </g>
   <g id="patch_20">
    <path clip-path="url(#pcf46e69121)" d="M 145.445003 241.276395 
L 202.987223 241.276395 
L 202.987223 240.985706 
L 145.445003 240.985706 
z
" style="fill:#9467bd;"/>
   </g>
   <g id="patch_21">
    <path clip-path="url(#pcf46e69121)" d="M 217.372777 241.60928 
L 274.914997 241.60928 
L 274.914997 241.391536 
L 217.372777 241.391536 
z
" style="fill:#9467bd;"/>
   </g>
   <g id="patch_22">
    <path clip-path="url(#pcf46e69121)" d="M 289.300552 241.343801 
L 346.842772 241.343801 
L 346.842772 241.057325 
L 289.300552 241.057325 
z
" style="fill:#9467bd;"/>
   </g>
   <g id="patch_23">
    <path clip-path="url(#pcf46e69121)" d="M 73.517228 241.27044 
L 131.059448 241.27044 
L 131.059448 241.044933 
L 73.517228 241.044933 
z
" style="fill:#8c564b;"/>
   </g>
   <g id="patch_24">
    <path clip-path="url(#pcf46e69121)" d="M 145.445003 240.981494 
L 202.987223 240.981494 
L 202.987223 240.690805 
L 145.445003 240.690805 
z
" style="fill:#8c564b;"/>
   </g>
   <g id="patch_25">
    <path clip-path="url(#pcf46e69121)" d="M 217.372777 241.3976 
L 274.914997 241.3976 
L 274.914997 241.179856 
L 217.372777 241.179856 
z
" style="fill:#8c564b;"/>
   </g>
   <g id="patch_26">
    <path clip-path="url(#pcf46e69121)" d="M 289.300552 241.065751 
L 346.842772 241.065751 
L 346.842772 240.779276 
L 289.300552 240.779276 
z
" style="fill:#8c564b;"/>
   </g>
   <g id="patch_27">
    <path clip-path="url(#pcf46e69121)" d="M 73.517228 241.033328 
L 131.059448 241.033328 
L 131.059448 240.807821 
L 73.517228 240.807821 
z
" style="fill:#e377c2;"/>
   </g>
   <g id="patch_28">
    <path clip-path="url(#pcf46e69121)" d="M 145.445003 240.686592 
L 202.987223 240.686592 
L 202.987223 240.395904 
L 145.445003 240.395904 
z
" style="fill:#e377c2;"/>
   </g>
   <g id="patch_29">
    <path clip-path="url(#pcf46e69121)" d="M 217.372777 241.18592 
L 274.914997 241.18592 
L 274.914997 240.968176 
L 217.372777 240.968176 
z
" style="fill:#e377c2;"/>
   </g>
   <g id="patch_30">
    <path clip-path="url(#pcf46e69121)" d="M 289.300552 240.787701 
L 346.842772 240.787701 
L 346.842772 240.501226 
L 289.300552 240.501226 
z
" style="fill:#e377c2;"/>
   </g>
   <g id="patch_31">
    <path clip-path="url(#pcf46e69121)" d="M 73.517228 240.796216 
L 131.059448 240.796216 
L 131.059448 240.570709 
L 73.517228 240.570709 
z
" style="fill:#7f7f7f;"/>
   </g>
   <g id="patch_32">
    <path clip-path="url(#pcf46e69121)" d="M 145.445003 240.391691 
L 202.987223 240.391691 
L 202.987223 240.101003 
L 145.445003 240.101003 
z
" style="fill:#7f7f7f;"/>
   </g>
   <g id="patch_33">
    <path clip-path="url(#pcf46e69121)" d="M 217.372777 240.97424 
L 274.914997 240.97424 
L 274.914997 240.756496 
L 217.372777 240.756496 
z
" style="fill:#7f7f7f;"/>
   </g>
   <g id="patch_34">
    <path clip-path="url(#pcf46e69121)" d="M 289.300552 240.509652 
L 346.842772 240.509652 
L 346.842772 240.223176 
L 289.300552 240.223176 
z
" style="fill:#7f7f7f;"/>
   </g>
   <g id="patch_35">
    <path clip-path="url(#pcf46e69121)" d="M 73.517228 240.559104 
L 131.059448 240.559104 
L 131.059448 240.333597 
L 73.517228 240.333597 
z
" style="fill:#bcbd22;"/>
   </g>
   <g id="patch_36">
    <path clip-path="url(#pcf46e69121)" d="M 145.445003 240.09679 
L 202.987223 240.09679 
L 202.987223 239.806101 
L 145.445003 239.806101 
z
" style="fill:#bcbd22;"/>
   </g>
   <g id="patch_37">
    <path clip-path="url(#pcf46e69121)" d="M 217.372777 240.76256 
L 274.914997 240.76256 
L 274.914997 240.544816 
L 217.372777 240.544816 
z
" style="fill:#bcbd22;"/>
   </g>
   <g id="patch_38">
    <path clip-path="url(#pcf46e69121)" d="M 289.300552 240.231602 
L 346.842772 240.231602 
L 346.842772 239.945126 
L 289.300552 239.945126 
z
" style="fill:#bcbd22;"/>
   </g>
   <g id="patch_39">
    <path clip-path="url(#pcf46e69121)" d="M 73.517228 240.321992 
L 131.059448 240.321992 
L 131.059448 240.096485 
L 73.517228 240.096485 
z
" style="fill:#17becf;"/>
   </g>
   <g id="patch_40">
    <path clip-path="url(#pcf46e69121)" d="M 145.445003 239.801888 
L 202.987223 239.801888 
L 202.987223 239.5112 
L 145.445003 239.5112 
z
" style="fill:#17becf;"/>
   </g>
   <g id="patch_41">
    <path clip-path="url(#pcf46e69121)" d="M 217.372777 240.550881 
L 274.914997 240.550881 
L 274.914997 240.333136 
L 217.372777 240.333136 
z
" style="fill:#17becf;"/>
   </g>
   <g id="patch_42">
    <path clip-path="url(#pcf46e69121)" d="M 289.300552 239.953552 
L 346.842772 239.953552 
L 346.842772 239.667076 
L 289.300552 239.667076 
z
" style="fill:#17becf;"/>
   </g>
   <g id="patch_43">
    <path clip-path="url(#pcf46e69121)" d="M 73.517228 240.08488 
L 131.059448 240.08488 
L 131.059448 239.859373 
L 73.517228 239.859373 
z
" style="fill:#1f77b4;"/>
   </g>
   <g id="patch_44">
    <path clip-path="url(#pcf46e69121)" d="M 145.445003 239.506987 
L 202.987223 239.506987 
L 202.987223 239.216299 
L 145.445003 239.216299 
z
" style="fill:#1f77b4;"/>
   </g>
   <g id="patch_45">
    <path clip-path="url(#pcf46e69121)" d="M 217.372777 240.339201 
L 274.914997 240.339201 
L 274.914997 240.121456 
L 217.372777 240.121456 
z
" style="fill:#1f77b4;"/>
   </g>
   <g id="patch_46">
    <path clip-path="url(#pcf46e69121)" d="M 289.300552 239.675502 
L 346.842772 239.675502 
L 346.842772 239.389027 
L 289.300552 239.389027 
z
" style="fill:#1f77b4;"/>
   </g>
   <g id="patch_47">
    <path clip-path="url(#pcf46e69121)" d="M 73.517228 239.847768 
L 131.059448 239.847768 
L 131.059448 239.622261 
L 73.517228 239.622261 
z
" style="fill:#ff7f0e;"/>
   </g>
   <g id="patch_48">
    <path clip-path="url(#pcf46e69121)" d="M 145.445003 239.212086 
L 202.987223 239.212086 
L 202.987223 238.921397 
L 145.445003 238.921397 
z
" style="fill:#ff7f0e;"/>
   </g>
   <g id="patch_49">
    <path clip-path="url(#pcf46e69121)" d="M 217.372777 240.127521 
L 274.914997 240.127521 
L 274.914997 239.909776 
L 217.372777 239.909776 
z
" style="fill:#ff7f0e;"/>
   </g>
   <g id="patch_50">
    <path clip-path="url(#pcf46e69121)" d="M 289.300552 239.397452 
L 346.842772 239.397452 
L 346.842772 239.110977 
L 289.300552 239.110977 
z
" style="fill:#ff7f0e;"/>
   </g>
   <g id="patch_51">
    <path clip-path="url(#pcf46e69121)" d="M 73.517228 239.610655 
L 131.059448 239.610655 
L 131.059448 239.385149 
L 73.517228 239.385149 
z
" style="fill:#2ca02c;"/>
   </g>
   <g id="patch_52">
    <path clip-path="url(#pcf46e69121)" d="M 145.445003 238.917185 
L 202.987223 238.917185 
L 202.987223 238.626496 
L 145.445003 238.626496 
z
" style="fill:#2ca02c;"/>
   </g>
   <g id="patch_53">
    <path clip-path="url(#pcf46e69121)" d="M 217.372777 239.915841 
L 274.914997 239.915841 
L 274.914997 239.698096 
L 217.372777 239.698096 
z
" style="fill:#2ca02c;"/>
   </g>
   <g id="patch_54">
    <path clip-path="url(#pcf46e69121)" d="M 289.300552 239.119403 
L 346.842772 239.119403 
L 346.842772 238.832927 
L 289.300552 238.832927 
z
" style="fill:#2ca02c;"/>
   </g>
   <g id="patch_55">
    <path clip-path="url(#pcf46e69121)" d="M 73.517228 239.373543 
L 131.059448 239.373543 
L 131.059448 239.148037 
L 73.517228 239.148037 
z
" style="fill:#d62728;"/>
   </g>
   <g id="patch_56">
    <path clip-path="url(#pcf46e69121)" d="M 145.445003 238.622283 
L 202.987223 238.622283 
L 202.987223 238.331595 
L 145.445003 238.331595 
z
" style="fill:#d62728;"/>
   </g>
   <g id="patch_57">
    <path clip-path="url(#pcf46e69121)" d="M 217.372777 239.704161 
L 274.914997 239.704161 
L 274.914997 239.486416 
L 217.372777 239.486416 
z
" style="fill:#d62728;"/>
   </g>
   <g id="patch_58">
    <path clip-path="url(#pcf46e69121)" d="M 289.300552 238.841353 
L 346.842772 238.841353 
L 346.842772 238.554877 
L 289.300552 238.554877 
z
" style="fill:#d62728;"/>
   </g>
   <g id="patch_59">
    <path clip-path="url(#pcf46e69121)" d="M 73.517228 239.136431 
L 131.059448 239.136431 
L 131.059448 238.910925 
L 73.517228 238.910925 
z
" style="fill:#9467bd;"/>
   </g>
   <g id="patch_60">
    <path clip-path="url(#pcf46e69121)" d="M 145.445003 238.327382 
L 202.987223 238.327382 
L 202.987223 238.036694 
L 145.445003 238.036694 
z
" style="fill:#9467bd;"/>
   </g>
   <g id="patch_61">
    <path clip-path="url(#pcf46e69121)" d="M 217.372777 239.492481 
L 274.914997 239.492481 
L 274.914997 239.274736 
L 217.372777 239.274736 
z
" style="fill:#9467bd;"/>
   </g>
   <g id="patch_62">
    <path clip-path="url(#pcf46e69121)" d="M 289.300552 238.563303 
L 346.842772 238.563303 
L 346.842772 238.276827 
L 289.300552 238.276827 
z
" style="fill:#9467bd;"/>
   </g>
   <g id="patch_63">
    <path clip-path="url(#pcf46e69121)" d="M 73.517228 238.910925 
L 131.059448 238.910925 
L 131.059448 87.543832 
L 73.517228 87.543832 
z
" style="fill:#8c564b;"/>
   </g>
   <g id="patch_64">
    <path clip-path="url(#pcf46e69121)" d="M 145.445003 238.036694 
L 202.987223 238.036694 
L 202.987223 46.136 
L 145.445003 46.136 
z
" style="fill:#8c564b;"/>
   </g>
   <g id="patch_65">
    <path clip-path="url(#pcf46e69121)" d="M 217.372777 239.274736 
L 274.914997 239.274736 
L 274.914997 116.781961 
L 217.372777 116.781961 
z
" style="fill:#8c564b;"/>
   </g>
   <g id="patch_66">
    <path clip-path="url(#pcf46e69121)" d="M 289.300552 238.276827 
L 346.842772 238.276827 
L 346.842772 84.136137 
L 289.300552 84.136137 
z
" style="fill:#8c564b;"/>
   </g>
   <g id="matplotlib.axis_1">
    <g id="xtick_1">
     <g id="line2d_1">
      <defs>
       <path d="M 0 0 
L 0 3.5 
" id="mf67380b2c9" style="stroke:#000000;stroke-width:0.8;"/>
      </defs>
      <g>
       <use style="stroke:#000000;stroke-width:0.8;" x="102.288338" xlink:href="#mf67380b2c9" y="242.456"/>
      </g>
     </g>
     <g id="text_1">
      <!-- flight -->
      <defs>
       <path d="M 37.109375 75.984375 
L 37.109375 68.5 
L 28.515625 68.5 
Q 23.6875 68.5 21.796875 66.546875 
Q 19.921875 64.59375 19.921875 59.515625 
L 19.921875 54.6875 
L 34.71875 54.6875 
L 34.71875 47.703125 
L 19.921875 47.703125 
L 19.921875 0 
L 10.890625 0 
L 10.890625 47.703125 
L 2.296875 47.703125 
L 2.296875 54.6875 
L 10.890625 54.6875 
L 10.890625 58.5 
Q 10.890625 67.625 15.140625 71.796875 
Q 19.390625 75.984375 28.609375 75.984375 
z
" id="DejaVuSans-102"/>
       <path d="M 9.421875 75.984375 
L 18.40625 75.984375 
L 18.40625 0 
L 9.421875 0 
z
" id="DejaVuSans-108"/>
       <path d="M 9.421875 54.6875 
L 18.40625 54.6875 
L 18.40625 0 
L 9.421875 0 
z
M 9.421875 75.984375 
L 18.40625 75.984375 
L 18.40625 64.59375 
L 9.421875 64.59375 
z
" id="DejaVuSans-105"/>
       <path d="M 45.40625 27.984375 
Q 45.40625 37.75 41.375 43.109375 
Q 37.359375 48.484375 30.078125 48.484375 
Q 22.859375 48.484375 18.828125 43.109375 
Q 14.796875 37.75 14.796875 27.984375 
Q 14.796875 18.265625 18.828125 12.890625 
Q 22.859375 7.515625 30.078125 7.515625 
Q 37.359375 7.515625 41.375 12.890625 
Q 45.40625 18.265625 45.40625 27.984375 
z
M 54.390625 6.78125 
Q 54.390625 -7.171875 48.1875 -13.984375 
Q 42 -20.796875 29.203125 -20.796875 
Q 24.46875 -20.796875 20.265625 -20.09375 
Q 16.0625 -19.390625 12.109375 -17.921875 
L 12.109375 -9.1875 
Q 16.0625 -11.328125 19.921875 -12.34375 
Q 23.78125 -13.375 27.78125 -13.375 
Q 36.625 -13.375 41.015625 -8.765625 
Q 45.40625 -4.15625 45.40625 5.171875 
L 45.40625 9.625 
Q 42.625 4.78125 38.28125 2.390625 
Q 33.9375 0 27.875 0 
Q 17.828125 0 11.671875 7.65625 
Q 5.515625 15.328125 5.515625 27.984375 
Q 5.515625 40.671875 11.671875 48.328125 
Q 17.828125 56 27.875 56 
Q 33.9375 56 38.28125 53.609375 
Q 42.625 51.21875 45.40625 46.390625 
L 45.40625 54.6875 
L 54.390625 54.6875 
z
" id="DejaVuSans-103"/>
       <path d="M 54.890625 33.015625 
L 54.890625 0 
L 45.90625 0 
L 45.90625 32.71875 
Q 45.90625 40.484375 42.875 44.328125 
Q 39.84375 48.1875 33.796875 48.1875 
Q 26.515625 48.1875 22.3125 43.546875 
Q 18.109375 38.921875 18.109375 30.90625 
L 18.109375 0 
L 9.078125 0 
L 9.078125 75.984375 
L 18.109375 75.984375 
L 18.109375 46.1875 
Q 21.34375 51.125 25.703125 53.5625 
Q 30.078125 56 35.796875 56 
Q 45.21875 56 50.046875 50.171875 
Q 54.890625 44.34375 54.890625 33.015625 
z
" id="DejaVuSans-104"/>
       <path d="M 18.3125 70.21875 
L 18.3125 54.6875 
L 36.8125 54.6875 
L 36.8125 47.703125 
L 18.3125 47.703125 
L 18.3125 18.015625 
Q 18.3125 11.328125 20.140625 9.421875 
Q 21.96875 7.515625 27.59375 7.515625 
L 36.8125 7.515625 
L 36.8125 0 
L 27.59375 0 
Q 17.1875 0 13.234375 3.875 
Q 9.28125 7.765625 9.28125 18.015625 
L 9.28125 47.703125 
L 2.6875 47.703125 
L 2.6875 54.6875 
L 9.28125 54.6875 
L 9.28125 70.21875 
z
" id="DejaVuSans-116"/>
      </defs>
      <g transform="translate(89.446931 257.054437)scale(0.1 -0.1)">
       <use xlink:href="#DejaVuSans-102"/>
       <use x="35.205078" xlink:href="#DejaVuSans-108"/>
       <use x="62.988281" xlink:href="#DejaVuSans-105"/>
       <use x="90.771484" xlink:href="#DejaVuSans-103"/>
       <use x="154.248047" xlink:href="#DejaVuSans-104"/>
       <use x="217.626953" xlink:href="#DejaVuSans-116"/>
      </g>
      <!-- myclimate -->
      <defs>
       <path d="M 52 44.1875 
Q 55.375 50.25 60.0625 53.125 
Q 64.75 56 71.09375 56 
Q 79.640625 56 84.28125 50.015625 
Q 88.921875 44.046875 88.921875 33.015625 
L 88.921875 0 
L 79.890625 0 
L 79.890625 32.71875 
Q 79.890625 40.578125 77.09375 44.375 
Q 74.3125 48.1875 68.609375 48.1875 
Q 61.625 48.1875 57.5625 43.546875 
Q 53.515625 38.921875 53.515625 30.90625 
L 53.515625 0 
L 44.484375 0 
L 44.484375 32.71875 
Q 44.484375 40.625 41.703125 44.40625 
Q 38.921875 48.1875 33.109375 48.1875 
Q 26.21875 48.1875 22.15625 43.53125 
Q 18.109375 38.875 18.109375 30.90625 
L 18.109375 0 
L 9.078125 0 
L 9.078125 54.6875 
L 18.109375 54.6875 
L 18.109375 46.1875 
Q 21.1875 51.21875 25.484375 53.609375 
Q 29.78125 56 35.6875 56 
Q 41.65625 56 45.828125 52.96875 
Q 50 49.953125 52 44.1875 
z
" id="DejaVuSans-109"/>
       <path d="M 32.171875 -5.078125 
Q 28.375 -14.84375 24.75 -17.8125 
Q 21.140625 -20.796875 15.09375 -20.796875 
L 7.90625 -20.796875 
L 7.90625 -13.28125 
L 13.1875 -13.28125 
Q 16.890625 -13.28125 18.9375 -11.515625 
Q 21 -9.765625 23.484375 -3.21875 
L 25.09375 0.875 
L 2.984375 54.6875 
L 12.5 54.6875 
L 29.59375 11.921875 
L 46.6875 54.6875 
L 56.203125 54.6875 
z
" id="DejaVuSans-121"/>
       <path d="M 48.78125 52.59375 
L 48.78125 44.1875 
Q 44.96875 46.296875 41.140625 47.34375 
Q 37.3125 48.390625 33.40625 48.390625 
Q 24.65625 48.390625 19.8125 42.84375 
Q 14.984375 37.3125 14.984375 27.296875 
Q 14.984375 17.28125 19.8125 11.734375 
Q 24.65625 6.203125 33.40625 6.203125 
Q 37.3125 6.203125 41.140625 7.25 
Q 44.96875 8.296875 48.78125 10.40625 
L 48.78125 2.09375 
Q 45.015625 0.34375 40.984375 -0.53125 
Q 36.96875 -1.421875 32.421875 -1.421875 
Q 20.0625 -1.421875 12.78125 6.34375 
Q 5.515625 14.109375 5.515625 27.296875 
Q 5.515625 40.671875 12.859375 48.328125 
Q 20.21875 56 33.015625 56 
Q 37.15625 56 41.109375 55.140625 
Q 45.0625 54.296875 48.78125 52.59375 
z
" id="DejaVuSans-99"/>
       <path d="M 34.28125 27.484375 
Q 23.390625 27.484375 19.1875 25 
Q 14.984375 22.515625 14.984375 16.5 
Q 14.984375 11.71875 18.140625 8.90625 
Q 21.296875 6.109375 26.703125 6.109375 
Q 34.1875 6.109375 38.703125 11.40625 
Q 43.21875 16.703125 43.21875 25.484375 
L 43.21875 27.484375 
z
M 52.203125 31.203125 
L 52.203125 0 
L 43.21875 0 
L 43.21875 8.296875 
Q 40.140625 3.328125 35.546875 0.953125 
Q 30.953125 -1.421875 24.3125 -1.421875 
Q 15.921875 -1.421875 10.953125 3.296875 
Q 6 8.015625 6 15.921875 
Q 6 25.140625 12.171875 29.828125 
Q 18.359375 34.515625 30.609375 34.515625 
L 43.21875 34.515625 
L 43.21875 35.40625 
Q 43.21875 41.609375 39.140625 45 
Q 35.0625 48.390625 27.6875 48.390625 
Q 23 48.390625 18.546875 47.265625 
Q 14.109375 46.140625 10.015625 43.890625 
L 10.015625 52.203125 
Q 14.9375 54.109375 19.578125 55.046875 
Q 24.21875 56 28.609375 56 
Q 40.484375 56 46.34375 49.84375 
Q 52.203125 43.703125 52.203125 31.203125 
z
" id="DejaVuSans-97"/>
       <path d="M 56.203125 29.59375 
L 56.203125 25.203125 
L 14.890625 25.203125 
Q 15.484375 15.921875 20.484375 11.0625 
Q 25.484375 6.203125 34.421875 6.203125 
Q 39.59375 6.203125 44.453125 7.46875 
Q 49.3125 8.734375 54.109375 11.28125 
L 54.109375 2.78125 
Q 49.265625 0.734375 44.1875 -0.34375 
Q 39.109375 -1.421875 33.890625 -1.421875 
Q 20.796875 -1.421875 13.15625 6.1875 
Q 5.515625 13.8125 5.515625 26.8125 
Q 5.515625 40.234375 12.765625 48.109375 
Q 20.015625 56 32.328125 56 
Q 43.359375 56 49.78125 48.890625 
Q 56.203125 41.796875 56.203125 29.59375 
z
M 47.21875 32.234375 
Q 47.125 39.59375 43.09375 43.984375 
Q 39.0625 48.390625 32.421875 48.390625 
Q 24.90625 48.390625 20.390625 44.140625 
Q 15.875 39.890625 15.1875 32.171875 
z
" id="DejaVuSans-101"/>
      </defs>
      <g transform="translate(75.960213 268.25225)scale(0.1 -0.1)">
       <use xlink:href="#DejaVuSans-109"/>
       <use x="97.412109" xlink:href="#DejaVuSans-121"/>
       <use x="156.591797" xlink:href="#DejaVuSans-99"/>
       <use x="211.572266" xlink:href="#DejaVuSans-108"/>
       <use x="239.355469" xlink:href="#DejaVuSans-105"/>
       <use x="267.138672" xlink:href="#DejaVuSans-109"/>
       <use x="364.550781" xlink:href="#DejaVuSans-97"/>
       <use x="425.830078" xlink:href="#DejaVuSans-116"/>
       <use x="465.039062" xlink:href="#DejaVuSans-101"/>
      </g>
     </g>
    </g>
    <g id="xtick_2">
     <g id="line2d_2">
      <g>
       <use style="stroke:#000000;stroke-width:0.8;" x="174.216113" xlink:href="#mf67380b2c9" y="242.456"/>
      </g>
     </g>
     <g id="text_2">
      <!-- flight -->
      <g transform="translate(161.374706 257.054437)scale(0.1 -0.1)">
       <use xlink:href="#DejaVuSans-102"/>
       <use x="35.205078" xlink:href="#DejaVuSans-108"/>
       <use x="62.988281" xlink:href="#DejaVuSans-105"/>
       <use x="90.771484" xlink:href="#DejaVuSans-103"/>
       <use x="154.248047" xlink:href="#DejaVuSans-104"/>
       <use x="217.626953" xlink:href="#DejaVuSans-116"/>
      </g>
      <!-- goclimate -->
      <defs>
       <path d="M 30.609375 48.390625 
Q 23.390625 48.390625 19.1875 42.75 
Q 14.984375 37.109375 14.984375 27.296875 
Q 14.984375 17.484375 19.15625 11.84375 
Q 23.34375 6.203125 30.609375 6.203125 
Q 37.796875 6.203125 41.984375 11.859375 
Q 46.1875 17.53125 46.1875 27.296875 
Q 46.1875 37.015625 41.984375 42.703125 
Q 37.796875 48.390625 30.609375 48.390625 
z
M 30.609375 56 
Q 42.328125 56 49.015625 48.375 
Q 55.71875 40.765625 55.71875 27.296875 
Q 55.71875 13.875 49.015625 6.21875 
Q 42.328125 -1.421875 30.609375 -1.421875 
Q 18.84375 -1.421875 12.171875 6.21875 
Q 5.515625 13.875 5.515625 27.296875 
Q 5.515625 40.765625 12.171875 48.375 
Q 18.84375 56 30.609375 56 
z
" id="DejaVuSans-111"/>
      </defs>
      <g transform="translate(149.484081 268.25225)scale(0.1 -0.1)">
       <use xlink:href="#DejaVuSans-103"/>
       <use x="63.476562" xlink:href="#DejaVuSans-111"/>
       <use x="124.658203" xlink:href="#DejaVuSans-99"/>
       <use x="179.638672" xlink:href="#DejaVuSans-108"/>
       <use x="207.421875" xlink:href="#DejaVuSans-105"/>
       <use x="235.205078" xlink:href="#DejaVuSans-109"/>
       <use x="332.617188" xlink:href="#DejaVuSans-97"/>
       <use x="393.896484" xlink:href="#DejaVuSans-116"/>
       <use x="433.105469" xlink:href="#DejaVuSans-101"/>
      </g>
     </g>
    </g>
    <g id="xtick_3">
     <g id="line2d_3">
      <g>
       <use style="stroke:#000000;stroke-width:0.8;" x="246.143887" xlink:href="#mf67380b2c9" y="242.456"/>
      </g>
     </g>
     <g id="text_3">
      <!-- distance -->
      <defs>
       <path d="M 45.40625 46.390625 
L 45.40625 75.984375 
L 54.390625 75.984375 
L 54.390625 0 
L 45.40625 0 
L 45.40625 8.203125 
Q 42.578125 3.328125 38.25 0.953125 
Q 33.9375 -1.421875 27.875 -1.421875 
Q 17.96875 -1.421875 11.734375 6.484375 
Q 5.515625 14.40625 5.515625 27.296875 
Q 5.515625 40.1875 11.734375 48.09375 
Q 17.96875 56 27.875 56 
Q 33.9375 56 38.25 53.625 
Q 42.578125 51.265625 45.40625 46.390625 
z
M 14.796875 27.296875 
Q 14.796875 17.390625 18.875 11.75 
Q 22.953125 6.109375 30.078125 6.109375 
Q 37.203125 6.109375 41.296875 11.75 
Q 45.40625 17.390625 45.40625 27.296875 
Q 45.40625 37.203125 41.296875 42.84375 
Q 37.203125 48.484375 30.078125 48.484375 
Q 22.953125 48.484375 18.875 42.84375 
Q 14.796875 37.203125 14.796875 27.296875 
z
" id="DejaVuSans-100"/>
       <path d="M 44.28125 53.078125 
L 44.28125 44.578125 
Q 40.484375 46.53125 36.375 47.5 
Q 32.28125 48.484375 27.875 48.484375 
Q 21.1875 48.484375 17.84375 46.4375 
Q 14.5 44.390625 14.5 40.28125 
Q 14.5 37.15625 16.890625 35.375 
Q 19.28125 33.59375 26.515625 31.984375 
L 29.59375 31.296875 
Q 39.15625 29.25 43.1875 25.515625 
Q 47.21875 21.78125 47.21875 15.09375 
Q 47.21875 7.46875 41.1875 3.015625 
Q 35.15625 -1.421875 24.609375 -1.421875 
Q 20.21875 -1.421875 15.453125 -0.5625 
Q 10.6875 0.296875 5.421875 2 
L 5.421875 11.28125 
Q 10.40625 8.6875 15.234375 7.390625 
Q 20.0625 6.109375 24.8125 6.109375 
Q 31.15625 6.109375 34.5625 8.28125 
Q 37.984375 10.453125 37.984375 14.40625 
Q 37.984375 18.0625 35.515625 20.015625 
Q 33.0625 21.96875 24.703125 23.78125 
L 21.578125 24.515625 
Q 13.234375 26.265625 9.515625 29.90625 
Q 5.8125 33.546875 5.8125 39.890625 
Q 5.8125 47.609375 11.28125 51.796875 
Q 16.75 56 26.8125 56 
Q 31.78125 56 36.171875 55.265625 
Q 40.578125 54.546875 44.28125 53.078125 
z
" id="DejaVuSans-115"/>
       <path d="M 54.890625 33.015625 
L 54.890625 0 
L 45.90625 0 
L 45.90625 32.71875 
Q 45.90625 40.484375 42.875 44.328125 
Q 39.84375 48.1875 33.796875 48.1875 
Q 26.515625 48.1875 22.3125 43.546875 
Q 18.109375 38.921875 18.109375 30.90625 
L 18.109375 0 
L 9.078125 0 
L 9.078125 54.6875 
L 18.109375 54.6875 
L 18.109375 46.1875 
Q 21.34375 51.125 25.703125 53.5625 
Q 30.078125 56 35.796875 56 
Q 45.21875 56 50.046875 50.171875 
Q 54.890625 44.34375 54.890625 33.015625 
z
" id="DejaVuSans-110"/>
      </defs>
      <g transform="translate(224.957169 257.054437)scale(0.1 -0.1)">
       <use xlink:href="#DejaVuSans-100"/>
       <use x="63.476562" xlink:href="#DejaVuSans-105"/>
       <use x="91.259766" xlink:href="#DejaVuSans-115"/>
       <use x="143.359375" xlink:href="#DejaVuSans-116"/>
       <use x="182.568359" xlink:href="#DejaVuSans-97"/>
       <use x="243.847656" xlink:href="#DejaVuSans-110"/>
       <use x="307.226562" xlink:href="#DejaVuSans-99"/>
       <use x="362.207031" xlink:href="#DejaVuSans-101"/>
      </g>
      <!-- myclimate -->
      <g transform="translate(219.815762 268.25225)scale(0.1 -0.1)">
       <use xlink:href="#DejaVuSans-109"/>
       <use x="97.412109" xlink:href="#DejaVuSans-121"/>
       <use x="156.591797" xlink:href="#DejaVuSans-99"/>
       <use x="211.572266" xlink:href="#DejaVuSans-108"/>
       <use x="239.355469" xlink:href="#DejaVuSans-105"/>
       <use x="267.138672" xlink:href="#DejaVuSans-109"/>
       <use x="364.550781" xlink:href="#DejaVuSans-97"/>
       <use x="425.830078" xlink:href="#DejaVuSans-116"/>
       <use x="465.039062" xlink:href="#DejaVuSans-101"/>
      </g>
     </g>
    </g>
    <g id="xtick_4">
     <g id="line2d_4">
      <g>
       <use style="stroke:#000000;stroke-width:0.8;" x="318.071662" xlink:href="#mf67380b2c9" y="242.456"/>
      </g>
     </g>
     <g id="text_4">
      <!-- distance -->
      <g transform="translate(296.884944 257.054437)scale(0.1 -0.1)">
       <use xlink:href="#DejaVuSans-100"/>
       <use x="63.476562" xlink:href="#DejaVuSans-105"/>
       <use x="91.259766" xlink:href="#DejaVuSans-115"/>
       <use x="143.359375" xlink:href="#DejaVuSans-116"/>
       <use x="182.568359" xlink:href="#DejaVuSans-97"/>
       <use x="243.847656" xlink:href="#DejaVuSans-110"/>
       <use x="307.226562" xlink:href="#DejaVuSans-99"/>
       <use x="362.207031" xlink:href="#DejaVuSans-101"/>
      </g>
      <!-- goclimate -->
      <g transform="translate(293.339631 268.25225)scale(0.1 -0.1)">
       <use xlink:href="#DejaVuSans-103"/>
       <use x="63.476562" xlink:href="#DejaVuSans-111"/>
       <use x="124.658203" xlink:href="#DejaVuSans-99"/>
       <use x="179.638672" xlink:href="#DejaVuSans-108"/>
       <use x="207.421875" xlink:href="#DejaVuSans-105"/>
       <use x="235.205078" xlink:href="#DejaVuSans-109"/>
       <use x="332.617188" xlink:href="#DejaVuSans-97"/>
       <use x="393.896484" xlink:href="#DejaVuSans-116"/>
       <use x="433.105469" xlink:href="#DejaVuSans-101"/>
      </g>
     </g>
    </g>
   </g>
   <g id="matplotlib.axis_2">
    <g id="ytick_1">
     <g id="line2d_5">
      <defs>
       <path d="M 0 0 
L -3.5 0 
" id="mfc04890067" style="stroke:#000000;stroke-width:0.8;"/>
      </defs>
      <g>
       <use style="stroke:#000000;stroke-width:0.8;" x="59.850951" xlink:href="#mfc04890067" y="242.456"/>
      </g>
     </g>
     <g id="text_5">
      <!-- 0 -->
      <defs>
       <path d="M 31.78125 66.40625 
Q 24.171875 66.40625 20.328125 58.90625 
Q 16.5 51.421875 16.5 36.375 
Q 16.5 21.390625 20.328125 13.890625 
Q 24.171875 6.390625 31.78125 6.390625 
Q 39.453125 6.390625 43.28125 13.890625 
Q 47.125 21.390625 47.125 36.375 
Q 47.125 51.421875 43.28125 58.90625 
Q 39.453125 66.40625 31.78125 66.40625 
z
M 31.78125 74.21875 
Q 44.046875 74.21875 50.515625 64.515625 
Q 56.984375 54.828125 56.984375 36.375 
Q 56.984375 17.96875 50.515625 8.265625 
Q 44.046875 -1.421875 31.78125 -1.421875 
Q 19.53125 -1.421875 13.0625 8.265625 
Q 6.59375 17.96875 6.59375 36.375 
Q 6.59375 54.828125 13.0625 64.515625 
Q 19.53125 74.21875 31.78125 74.21875 
z
" id="DejaVuSans-48"/>
      </defs>
      <g transform="translate(46.488451 246.255219)scale(0.1 -0.1)">
       <use xlink:href="#DejaVuSans-48"/>
      </g>
     </g>
    </g>
    <g id="ytick_2">
     <g id="line2d_6">
      <g>
       <use style="stroke:#000000;stroke-width:0.8;" x="59.850951" xlink:href="#mfc04890067" y="200.327245"/>
      </g>
     </g>
     <g id="text_6">
      <!-- 1 -->
      <defs>
       <path d="M 12.40625 8.296875 
L 28.515625 8.296875 
L 28.515625 63.921875 
L 10.984375 60.40625 
L 10.984375 69.390625 
L 28.421875 72.90625 
L 38.28125 72.90625 
L 38.28125 8.296875 
L 54.390625 8.296875 
L 54.390625 0 
L 12.40625 0 
z
" id="DejaVuSans-49"/>
      </defs>
      <g transform="translate(46.488451 204.126463)scale(0.1 -0.1)">
       <use xlink:href="#DejaVuSans-49"/>
      </g>
     </g>
    </g>
    <g id="ytick_3">
     <g id="line2d_7">
      <g>
       <use style="stroke:#000000;stroke-width:0.8;" x="59.850951" xlink:href="#mfc04890067" y="158.198489"/>
      </g>
     </g>
     <g id="text_7">
      <!-- 2 -->
      <defs>
       <path d="M 19.1875 8.296875 
L 53.609375 8.296875 
L 53.609375 0 
L 7.328125 0 
L 7.328125 8.296875 
Q 12.9375 14.109375 22.625 23.890625 
Q 32.328125 33.6875 34.8125 36.53125 
Q 39.546875 41.84375 41.421875 45.53125 
Q 43.3125 49.21875 43.3125 52.78125 
Q 43.3125 58.59375 39.234375 62.25 
Q 35.15625 65.921875 28.609375 65.921875 
Q 23.96875 65.921875 18.8125 64.3125 
Q 13.671875 62.703125 7.8125 59.421875 
L 7.8125 69.390625 
Q 13.765625 71.78125 18.9375 73 
Q 24.125 74.21875 28.421875 74.21875 
Q 39.75 74.21875 46.484375 68.546875 
Q 53.21875 62.890625 53.21875 53.421875 
Q 53.21875 48.921875 51.53125 44.890625 
Q 49.859375 40.875 45.40625 35.40625 
Q 44.1875 33.984375 37.640625 27.21875 
Q 31.109375 20.453125 19.1875 8.296875 
z
" id="DejaVuSans-50"/>
      </defs>
      <g transform="translate(46.488451 161.997708)scale(0.1 -0.1)">
       <use xlink:href="#DejaVuSans-50"/>
      </g>
     </g>
    </g>
    <g id="ytick_4">
     <g id="line2d_8">
      <g>
       <use style="stroke:#000000;stroke-width:0.8;" x="59.850951" xlink:href="#mfc04890067" y="116.069734"/>
      </g>
     </g>
     <g id="text_8">
      <!-- 3 -->
      <defs>
       <path d="M 40.578125 39.3125 
Q 47.65625 37.796875 51.625 33 
Q 55.609375 28.21875 55.609375 21.1875 
Q 55.609375 10.40625 48.1875 4.484375 
Q 40.765625 -1.421875 27.09375 -1.421875 
Q 22.515625 -1.421875 17.65625 -0.515625 
Q 12.796875 0.390625 7.625 2.203125 
L 7.625 11.71875 
Q 11.71875 9.328125 16.59375 8.109375 
Q 21.484375 6.890625 26.8125 6.890625 
Q 36.078125 6.890625 40.9375 10.546875 
Q 45.796875 14.203125 45.796875 21.1875 
Q 45.796875 27.640625 41.28125 31.265625 
Q 36.765625 34.90625 28.71875 34.90625 
L 20.21875 34.90625 
L 20.21875 43.015625 
L 29.109375 43.015625 
Q 36.375 43.015625 40.234375 45.921875 
Q 44.09375 48.828125 44.09375 54.296875 
Q 44.09375 59.90625 40.109375 62.90625 
Q 36.140625 65.921875 28.71875 65.921875 
Q 24.65625 65.921875 20.015625 65.03125 
Q 15.375 64.15625 9.8125 62.3125 
L 9.8125 71.09375 
Q 15.4375 72.65625 20.34375 73.4375 
Q 25.25 74.21875 29.59375 74.21875 
Q 40.828125 74.21875 47.359375 69.109375 
Q 53.90625 64.015625 53.90625 55.328125 
Q 53.90625 49.265625 50.4375 45.09375 
Q 46.96875 40.921875 40.578125 39.3125 
z
" id="DejaVuSans-51"/>
      </defs>
      <g transform="translate(46.488451 119.868953)scale(0.1 -0.1)">
       <use xlink:href="#DejaVuSans-51"/>
      </g>
     </g>
    </g>
    <g id="ytick_5">
     <g id="line2d_9">
      <g>
       <use style="stroke:#000000;stroke-width:0.8;" x="59.850951" xlink:href="#mfc04890067" y="73.940979"/>
      </g>
     </g>
     <g id="text_9">
      <!-- 4 -->
      <defs>
       <path d="M 37.796875 64.3125 
L 12.890625 25.390625 
L 37.796875 25.390625 
z
M 35.203125 72.90625 
L 47.609375 72.90625 
L 47.609375 25.390625 
L 58.015625 25.390625 
L 58.015625 17.1875 
L 47.609375 17.1875 
L 47.609375 0 
L 37.796875 0 
L 37.796875 17.1875 
L 4.890625 17.1875 
L 4.890625 26.703125 
z
" id="DejaVuSans-52"/>
      </defs>
      <g transform="translate(46.488451 77.740197)scale(0.1 -0.1)">
       <use xlink:href="#DejaVuSans-52"/>
      </g>
     </g>
    </g>
    <g id="text_10">
     <!-- $CO_2$ Equivalent (kg) -->
     <defs>
      <path d="M 69.484375 67.28125 
L 67.484375 56.890625 
Q 62.796875 61.625 57.546875 63.921875 
Q 52.296875 66.21875 46.1875 66.21875 
Q 37.84375 66.21875 31.515625 62.203125 
Q 25.203125 58.203125 20.609375 50 
Q 17.671875 44.734375 16.125 38.84375 
Q 14.59375 32.953125 14.59375 27 
Q 14.59375 17.046875 19.75 11.8125 
Q 24.90625 6.59375 34.71875 6.59375 
Q 41.5 6.59375 47.75 8.765625 
Q 54 10.9375 59.90625 15.28125 
L 57.625 3.609375 
Q 51.8125 1.125 45.875 -0.140625 
Q 39.9375 -1.421875 33.984375 -1.421875 
Q 19.96875 -1.421875 12.078125 6.1875 
Q 4.203125 13.8125 4.203125 27.390625 
Q 4.203125 36.078125 7.203125 44.46875 
Q 10.203125 52.875 15.828125 59.8125 
Q 21.78125 67.1875 29.421875 70.703125 
Q 37.0625 74.21875 47.21875 74.21875 
Q 53.46875 74.21875 59.0625 72.484375 
Q 64.65625 70.75 69.484375 67.28125 
z
" id="DejaVuSans-Oblique-67"/>
      <path d="M 45.609375 66.21875 
Q 37.5 66.21875 31.296875 62.28125 
Q 25.09375 58.34375 20.515625 50.296875 
Q 17.578125 45.171875 16.03125 39.40625 
Q 14.5 33.640625 14.5 27.78125 
Q 14.5 17.625 19.359375 12.109375 
Q 24.21875 6.59375 33.109375 6.59375 
Q 41.109375 6.59375 47.375 10.5625 
Q 53.65625 14.546875 58.109375 22.40625 
Q 61.078125 27.6875 62.640625 33.46875 
Q 64.203125 39.265625 64.203125 45.015625 
Q 64.203125 55.125 59.3125 60.671875 
Q 54.4375 66.21875 45.609375 66.21875 
z
M 32.8125 -1.421875 
Q 19.390625 -1.421875 11.6875 6.53125 
Q 4 14.5 4 28.328125 
Q 4 36.234375 7 44.484375 
Q 10.015625 52.734375 15.28125 59.1875 
Q 21.484375 66.75 29.09375 70.484375 
Q 36.71875 74.21875 45.90625 74.21875 
Q 59.28125 74.21875 66.984375 66.328125 
Q 74.703125 58.453125 74.703125 44.828125 
Q 74.703125 36.421875 71.765625 28.3125 
Q 68.84375 20.21875 63.375 13.625 
Q 57.125 6 49.578125 2.28125 
Q 42.046875 -1.421875 32.8125 -1.421875 
z
" id="DejaVuSans-Oblique-79"/>
      <path id="DejaVuSans-32"/>
      <path d="M 9.8125 72.90625 
L 55.90625 72.90625 
L 55.90625 64.59375 
L 19.671875 64.59375 
L 19.671875 43.015625 
L 54.390625 43.015625 
L 54.390625 34.71875 
L 19.671875 34.71875 
L 19.671875 8.296875 
L 56.78125 8.296875 
L 56.78125 0 
L 9.8125 0 
z
" id="DejaVuSans-69"/>
      <path d="M 14.796875 27.296875 
Q 14.796875 17.390625 18.875 11.75 
Q 22.953125 6.109375 30.078125 6.109375 
Q 37.203125 6.109375 41.296875 11.75 
Q 45.40625 17.390625 45.40625 27.296875 
Q 45.40625 37.203125 41.296875 42.84375 
Q 37.203125 48.484375 30.078125 48.484375 
Q 22.953125 48.484375 18.875 42.84375 
Q 14.796875 37.203125 14.796875 27.296875 
z
M 45.40625 8.203125 
Q 42.578125 3.328125 38.25 0.953125 
Q 33.9375 -1.421875 27.875 -1.421875 
Q 17.96875 -1.421875 11.734375 6.484375 
Q 5.515625 14.40625 5.515625 27.296875 
Q 5.515625 40.1875 11.734375 48.09375 
Q 17.96875 56 27.875 56 
Q 33.9375 56 38.25 53.625 
Q 42.578125 51.265625 45.40625 46.390625 
L 45.40625 54.6875 
L 54.390625 54.6875 
L 54.390625 -20.796875 
L 45.40625 -20.796875 
z
" id="DejaVuSans-113"/>
      <path d="M 8.5 21.578125 
L 8.5 54.6875 
L 17.484375 54.6875 
L 17.484375 21.921875 
Q 17.484375 14.15625 20.5 10.265625 
Q 23.53125 6.390625 29.59375 6.390625 
Q 36.859375 6.390625 41.078125 11.03125 
Q 45.3125 15.671875 45.3125 23.6875 
L 45.3125 54.6875 
L 54.296875 54.6875 
L 54.296875 0 
L 45.3125 0 
L 45.3125 8.40625 
Q 42.046875 3.421875 37.71875 1 
Q 33.40625 -1.421875 27.6875 -1.421875 
Q 18.265625 -1.421875 13.375 4.4375 
Q 8.5 10.296875 8.5 21.578125 
z
M 31.109375 56 
z
" id="DejaVuSans-117"/>
      <path d="M 2.984375 54.6875 
L 12.5 54.6875 
L 29.59375 8.796875 
L 46.6875 54.6875 
L 56.203125 54.6875 
L 35.6875 0 
L 23.484375 0 
z
" id="DejaVuSans-118"/>
      <path d="M 31 75.875 
Q 24.46875 64.65625 21.28125 53.65625 
Q 18.109375 42.671875 18.109375 31.390625 
Q 18.109375 20.125 21.3125 9.0625 
Q 24.515625 -2 31 -13.1875 
L 23.1875 -13.1875 
Q 15.875 -1.703125 12.234375 9.375 
Q 8.59375 20.453125 8.59375 31.390625 
Q 8.59375 42.28125 12.203125 53.3125 
Q 15.828125 64.359375 23.1875 75.875 
z
" id="DejaVuSans-40"/>
      <path d="M 9.078125 75.984375 
L 18.109375 75.984375 
L 18.109375 31.109375 
L 44.921875 54.6875 
L 56.390625 54.6875 
L 27.390625 29.109375 
L 57.625 0 
L 45.90625 0 
L 18.109375 26.703125 
L 18.109375 0 
L 9.078125 0 
z
" id="DejaVuSans-107"/>
      <path d="M 8.015625 75.875 
L 15.828125 75.875 
Q 23.140625 64.359375 26.78125 53.3125 
Q 30.421875 42.28125 30.421875 31.390625 
Q 30.421875 20.453125 26.78125 9.375 
Q 23.140625 -1.703125 15.828125 -13.1875 
L 8.015625 -13.1875 
Q 14.5 -2 17.703125 9.0625 
Q 20.90625 20.125 20.90625 31.390625 
Q 20.90625 42.671875 17.703125 53.65625 
Q 14.5 64.65625 8.015625 75.875 
z
" id="DejaVuSans-41"/>
     </defs>
     <g transform="translate(40.388451 188.838)rotate(-90)scale(0.1 -0.1)">
      <use transform="translate(0 0.015625)" xlink:href="#DejaVuSans-Oblique-67"/>
      <use transform="translate(69.824219 0.015625)" xlink:href="#DejaVuSans-Oblique-79"/>
      <use transform="translate(148.535156 -16.390625)scale(0.7)" xlink:href="#DejaVuSans-50"/>
      <use transform="translate(195.805664 0.015625)" xlink:href="#DejaVuSans-32"/>
      <use transform="translate(227.592773 0.015625)" xlink:href="#DejaVuSans-69"/>
      <use transform="translate(290.776367 0.015625)" xlink:href="#DejaVuSans-113"/>
      <use transform="translate(354.25293 0.015625)" xlink:href="#DejaVuSans-117"/>
      <use transform="translate(417.631836 0.015625)" xlink:href="#DejaVuSans-105"/>
      <use transform="translate(445.415039 0.015625)" xlink:href="#DejaVuSans-118"/>
      <use transform="translate(504.594727 0.015625)" xlink:href="#DejaVuSans-97"/>
      <use transform="translate(565.874023 0.015625)" xlink:href="#DejaVuSans-108"/>
      <use transform="translate(593.657227 0.015625)" xlink:href="#DejaVuSans-101"/>
      <use transform="translate(655.180664 0.015625)" xlink:href="#DejaVuSans-110"/>
      <use transform="translate(718.55957 0.015625)" xlink:href="#DejaVuSans-116"/>
      <use transform="translate(757.768555 0.015625)" xlink:href="#DejaVuSans-32"/>
      <use transform="translate(789.555664 0.015625)" xlink:href="#DejaVuSans-40"/>
      <use transform="translate(828.569336 0.015625)" xlink:href="#DejaVuSans-107"/>
      <use transform="translate(886.479492 0.015625)" xlink:href="#DejaVuSans-103"/>
      <use transform="translate(949.956055 0.015625)" xlink:href="#DejaVuSans-41"/>
     </g>
    </g>
    <g id="text_11">
     <!-- 1e6 -->
     <defs>
      <path d="M 33.015625 40.375 
Q 26.375 40.375 22.484375 35.828125 
Q 18.609375 31.296875 18.609375 23.390625 
Q 18.609375 15.53125 22.484375 10.953125 
Q 26.375 6.390625 33.015625 6.390625 
Q 39.65625 6.390625 43.53125 10.953125 
Q 47.40625 15.53125 47.40625 23.390625 
Q 47.40625 31.296875 43.53125 35.828125 
Q 39.65625 40.375 33.015625 40.375 
z
M 52.59375 71.296875 
L 52.59375 62.3125 
Q 48.875 64.0625 45.09375 64.984375 
Q 41.3125 65.921875 37.59375 65.921875 
Q 27.828125 65.921875 22.671875 59.328125 
Q 17.53125 52.734375 16.796875 39.40625 
Q 19.671875 43.65625 24.015625 45.921875 
Q 28.375 48.1875 33.59375 48.1875 
Q 44.578125 48.1875 50.953125 41.515625 
Q 57.328125 34.859375 57.328125 23.390625 
Q 57.328125 12.15625 50.6875 5.359375 
Q 44.046875 -1.421875 33.015625 -1.421875 
Q 20.359375 -1.421875 13.671875 8.265625 
Q 6.984375 17.96875 6.984375 36.375 
Q 6.984375 53.65625 15.1875 63.9375 
Q 23.390625 74.21875 37.203125 74.21875 
Q 40.921875 74.21875 44.703125 73.484375 
Q 48.484375 72.75 52.59375 71.296875 
z
" id="DejaVuSans-54"/>
     </defs>
     <g transform="translate(59.850951 33.32)scale(0.1 -0.1)">
      <use xlink:href="#DejaVuSans-49"/>
      <use x="63.623047" xlink:href="#DejaVuSans-101"/>
      <use x="125.146484" xlink:href="#DejaVuSans-54"/>
     </g>
    </g>
   </g>
   <g id="patch_67">
    <path d="M 59.850951 242.456 
L 59.850951 36.32 
" style="fill:none;stroke:#000000;stroke-linecap:square;stroke-linejoin:miter;stroke-width:0.8;"/>
   </g>
   <g id="patch_68">
    <path d="M 360.509049 242.456 
L 360.509049 36.32 
" style="fill:none;stroke:#000000;stroke-linecap:square;stroke-linejoin:miter;stroke-width:0.8;"/>
   </g>
   <g id="patch_69">
    <path d="M 59.850951 242.456 
L 360.509049 242.456 
" style="fill:none;stroke:#000000;stroke-linecap:square;stroke-linejoin:miter;stroke-width:0.8;"/>
   </g>
   <g id="patch_70">
    <path d="M 59.850951 36.32 
L 360.509049 36.32 
" style="fill:none;stroke:#000000;stroke-linecap:square;stroke-linejoin:miter;stroke-width:0.8;"/>
   </g>
   <g id="text_12">
    <!-- $CO_2$ Equivalent (kg) by Unnamed: 0 for IETF102 (1765 participants) -->
    <defs>
     <path d="M 48.6875 27.296875 
Q 48.6875 37.203125 44.609375 42.84375 
Q 40.53125 48.484375 33.40625 48.484375 
Q 26.265625 48.484375 22.1875 42.84375 
Q 18.109375 37.203125 18.109375 27.296875 
Q 18.109375 17.390625 22.1875 11.75 
Q 26.265625 6.109375 33.40625 6.109375 
Q 40.53125 6.109375 44.609375 11.75 
Q 48.6875 17.390625 48.6875 27.296875 
z
M 18.109375 46.390625 
Q 20.953125 51.265625 25.265625 53.625 
Q 29.59375 56 35.59375 56 
Q 45.5625 56 51.78125 48.09375 
Q 58.015625 40.1875 58.015625 27.296875 
Q 58.015625 14.40625 51.78125 6.484375 
Q 45.5625 -1.421875 35.59375 -1.421875 
Q 29.59375 -1.421875 25.265625 0.953125 
Q 20.953125 3.328125 18.109375 8.203125 
L 18.109375 0 
L 9.078125 0 
L 9.078125 75.984375 
L 18.109375 75.984375 
z
" id="DejaVuSans-98"/>
     <path d="M 8.6875 72.90625 
L 18.609375 72.90625 
L 18.609375 28.609375 
Q 18.609375 16.890625 22.84375 11.734375 
Q 27.09375 6.59375 36.625 6.59375 
Q 46.09375 6.59375 50.34375 11.734375 
Q 54.59375 16.890625 54.59375 28.609375 
L 54.59375 72.90625 
L 64.5 72.90625 
L 64.5 27.390625 
Q 64.5 13.140625 57.4375 5.859375 
Q 50.390625 -1.421875 36.625 -1.421875 
Q 22.796875 -1.421875 15.734375 5.859375 
Q 8.6875 13.140625 8.6875 27.390625 
z
" id="DejaVuSans-85"/>
     <path d="M 11.71875 12.40625 
L 22.015625 12.40625 
L 22.015625 0 
L 11.71875 0 
z
M 11.71875 51.703125 
L 22.015625 51.703125 
L 22.015625 39.3125 
L 11.71875 39.3125 
z
" id="DejaVuSans-58"/>
     <path d="M 41.109375 46.296875 
Q 39.59375 47.171875 37.8125 47.578125 
Q 36.03125 48 33.890625 48 
Q 26.265625 48 22.1875 43.046875 
Q 18.109375 38.09375 18.109375 28.8125 
L 18.109375 0 
L 9.078125 0 
L 9.078125 54.6875 
L 18.109375 54.6875 
L 18.109375 46.1875 
Q 20.953125 51.171875 25.484375 53.578125 
Q 30.03125 56 36.53125 56 
Q 37.453125 56 38.578125 55.875 
Q 39.703125 55.765625 41.0625 55.515625 
z
" id="DejaVuSans-114"/>
     <path d="M 9.8125 72.90625 
L 19.671875 72.90625 
L 19.671875 0 
L 9.8125 0 
z
" id="DejaVuSans-73"/>
     <path d="M -0.296875 72.90625 
L 61.375 72.90625 
L 61.375 64.59375 
L 35.5 64.59375 
L 35.5 0 
L 25.59375 0 
L 25.59375 64.59375 
L -0.296875 64.59375 
z
" id="DejaVuSans-84"/>
     <path d="M 9.8125 72.90625 
L 51.703125 72.90625 
L 51.703125 64.59375 
L 19.671875 64.59375 
L 19.671875 43.109375 
L 48.578125 43.109375 
L 48.578125 34.8125 
L 19.671875 34.8125 
L 19.671875 0 
L 9.8125 0 
z
" id="DejaVuSans-70"/>
     <path d="M 8.203125 72.90625 
L 55.078125 72.90625 
L 55.078125 68.703125 
L 28.609375 0 
L 18.3125 0 
L 43.21875 64.59375 
L 8.203125 64.59375 
z
" id="DejaVuSans-55"/>
     <path d="M 10.796875 72.90625 
L 49.515625 72.90625 
L 49.515625 64.59375 
L 19.828125 64.59375 
L 19.828125 46.734375 
Q 21.96875 47.46875 24.109375 47.828125 
Q 26.265625 48.1875 28.421875 48.1875 
Q 40.625 48.1875 47.75 41.5 
Q 54.890625 34.8125 54.890625 23.390625 
Q 54.890625 11.625 47.5625 5.09375 
Q 40.234375 -1.421875 26.90625 -1.421875 
Q 22.3125 -1.421875 17.546875 -0.640625 
Q 12.796875 0.140625 7.71875 1.703125 
L 7.71875 11.625 
Q 12.109375 9.234375 16.796875 8.0625 
Q 21.484375 6.890625 26.703125 6.890625 
Q 35.15625 6.890625 40.078125 11.328125 
Q 45.015625 15.765625 45.015625 23.390625 
Q 45.015625 31 40.078125 35.4375 
Q 35.15625 39.890625 26.703125 39.890625 
Q 22.75 39.890625 18.8125 39.015625 
Q 14.890625 38.140625 10.796875 36.28125 
z
" id="DejaVuSans-53"/>
     <path d="M 18.109375 8.203125 
L 18.109375 -20.796875 
L 9.078125 -20.796875 
L 9.078125 54.6875 
L 18.109375 54.6875 
L 18.109375 46.390625 
Q 20.953125 51.265625 25.265625 53.625 
Q 29.59375 56 35.59375 56 
Q 45.5625 56 51.78125 48.09375 
Q 58.015625 40.1875 58.015625 27.296875 
Q 58.015625 14.40625 51.78125 6.484375 
Q 45.5625 -1.421875 35.59375 -1.421875 
Q 29.59375 -1.421875 25.265625 0.953125 
Q 20.953125 3.328125 18.109375 8.203125 
z
M 48.6875 27.296875 
Q 48.6875 37.203125 44.609375 42.84375 
Q 40.53125 48.484375 33.40625 48.484375 
Q 26.265625 48.484375 22.1875 42.84375 
Q 18.109375 37.203125 18.109375 27.296875 
Q 18.109375 17.390625 22.1875 11.75 
Q 26.265625 6.109375 33.40625 6.109375 
Q 40.53125 6.109375 44.609375 11.75 
Q 48.6875 17.390625 48.6875 27.296875 
z
" id="DejaVuSans-112"/>
    </defs>
    <g transform="translate(7.2 16.32)scale(0.12 -0.12)">
     <use transform="translate(0 0.015625)" xlink:href="#DejaVuSans-Oblique-67"/>
     <use transform="translate(69.824219 0.015625)" xlink:href="#DejaVuSans-Oblique-79"/>
     <use transform="translate(148.535156 -16.390625)scale(0.7)" xlink:href="#DejaVuSans-50"/>
     <use transform="translate(195.805664 0.015625)" xlink:href="#DejaVuSans-32"/>
     <use transform="translate(227.592773 0.015625)" xlink:href="#DejaVuSans-69"/>
     <use transform="translate(290.776367 0.015625)" xlink:href="#DejaVuSans-113"/>
     <use transform="translate(354.25293 0.015625)" xlink:href="#DejaVuSans-117"/>
     <use transform="translate(417.631836 0.015625)" xlink:href="#DejaVuSans-105"/>
     <use transform="translate(445.415039 0.015625)" xlink:href="#DejaVuSans-118"/>
     <use transform="translate(504.594727 0.015625)" xlink:href="#DejaVuSans-97"/>
     <use transform="translate(565.874023 0.015625)" xlink:href="#DejaVuSans-108"/>
     <use transform="translate(593.657227 0.015625)" xlink:href="#DejaVuSans-101"/>
     <use transform="translate(655.180664 0.015625)" xlink:href="#DejaVuSans-110"/>
     <use transform="translate(718.55957 0.015625)" xlink:href="#DejaVuSans-116"/>
     <use transform="translate(757.768555 0.015625)" xlink:href="#DejaVuSans-32"/>
     <use transform="translate(789.555664 0.015625)" xlink:href="#DejaVuSans-40"/>
     <use transform="translate(828.569336 0.015625)" xlink:href="#DejaVuSans-107"/>
     <use transform="translate(886.479492 0.015625)" xlink:href="#DejaVuSans-103"/>
     <use transform="translate(949.956055 0.015625)" xlink:href="#DejaVuSans-41"/>
     <use transform="translate(988.969727 0.015625)" xlink:href="#DejaVuSans-32"/>
     <use transform="translate(1020.756836 0.015625)" xlink:href="#DejaVuSans-98"/>
     <use transform="translate(1084.233398 0.015625)" xlink:href="#DejaVuSans-121"/>
     <use transform="translate(1143.413086 0.015625)" xlink:href="#DejaVuSans-32"/>
     <use transform="translate(1175.200195 0.015625)" xlink:href="#DejaVuSans-85"/>
     <use transform="translate(1248.393555 0.015625)" xlink:href="#DejaVuSans-110"/>
     <use transform="translate(1311.772461 0.015625)" xlink:href="#DejaVuSans-110"/>
     <use transform="translate(1375.151367 0.015625)" xlink:href="#DejaVuSans-97"/>
     <use transform="translate(1436.430664 0.015625)" xlink:href="#DejaVuSans-109"/>
     <use transform="translate(1533.842773 0.015625)" xlink:href="#DejaVuSans-101"/>
     <use transform="translate(1595.366211 0.015625)" xlink:href="#DejaVuSans-100"/>
     <use transform="translate(1658.842773 0.015625)" xlink:href="#DejaVuSans-58"/>
     <use transform="translate(1692.53418 0.015625)" xlink:href="#DejaVuSans-32"/>
     <use transform="translate(1724.321289 0.015625)" xlink:href="#DejaVuSans-48"/>
     <use transform="translate(1787.944336 0.015625)" xlink:href="#DejaVuSans-32"/>
     <use transform="translate(1819.731445 0.015625)" xlink:href="#DejaVuSans-102"/>
     <use transform="translate(1854.936523 0.015625)" xlink:href="#DejaVuSans-111"/>
     <use transform="translate(1916.118164 0.015625)" xlink:href="#DejaVuSans-114"/>
     <use transform="translate(1957.231445 0.015625)" xlink:href="#DejaVuSans-32"/>
     <use transform="translate(1989.018555 0.015625)" xlink:href="#DejaVuSans-73"/>
     <use transform="translate(2018.510742 0.015625)" xlink:href="#DejaVuSans-69"/>
     <use transform="translate(2081.694336 0.015625)" xlink:href="#DejaVuSans-84"/>
     <use transform="translate(2142.77832 0.015625)" xlink:href="#DejaVuSans-70"/>
     <use transform="translate(2200.297852 0.015625)" xlink:href="#DejaVuSans-49"/>
     <use transform="translate(2263.920898 0.015625)" xlink:href="#DejaVuSans-48"/>
     <use transform="translate(2327.543945 0.015625)" xlink:href="#DejaVuSans-50"/>
     <use transform="translate(2391.166992 0.015625)" xlink:href="#DejaVuSans-32"/>
     <use transform="translate(2422.954102 0.015625)" xlink:href="#DejaVuSans-40"/>
     <use transform="translate(2461.967773 0.015625)" xlink:href="#DejaVuSans-49"/>
     <use transform="translate(2525.59082 0.015625)" xlink:href="#DejaVuSans-55"/>
     <use transform="translate(2589.213867 0.015625)" xlink:href="#DejaVuSans-54"/>
     <use transform="translate(2652.836914 0.015625)" xlink:href="#DejaVuSans-53"/>
     <use transform="translate(2716.459961 0.015625)" xlink:href="#DejaVuSans-32"/>
     <use transform="translate(2748.24707 0.015625)" xlink:href="#DejaVuSans-112"/>
     <use transform="translate(2811.723633 0.015625)" xlink:href="#DejaVuSans-97"/>
     <use transform="translate(2873.00293 0.015625)" xlink:href="#DejaVuSans-114"/>
     <use transform="translate(2914.116211 0.015625)" xlink:href="#DejaVuSans-116"/>
     <use transform="translate(2953.325195 0.015625)" xlink:href="#DejaVuSans-105"/>
     <use transform="translate(2981.108398 0.015625)" xlink:href="#DejaVuSans-99"/>
     <use transform="translate(3036.088867 0.015625)" xlink:href="#DejaVuSans-105"/>
     <use transform="translate(3063.87207 0.015625)" xlink:href="#DejaVuSans-112"/>
     <use transform="translate(3127.348633 0.015625)" xlink:href="#DejaVuSans-97"/>
     <use transform="translate(3188.62793 0.015625)" xlink:href="#DejaVuSans-110"/>
     <use transform="translate(3252.006836 0.015625)" xlink:href="#DejaVuSans-116"/>
     <use transform="translate(3291.21582 0.015625)" xlink:href="#DejaVuSans-115"/>
     <use transform="translate(3343.31543 0.015625)" xlink:href="#DejaVuSans-41"/>
    </g>
   </g>
   <g id="legend_1">
    <g id="patch_71">
     <path d="M 367.509049 258.5564 
L 433.112174 258.5564 
Q 435.112174 258.5564 435.112174 256.5564 
L 435.112174 22.7064 
Q 435.112174 20.7064 433.112174 20.7064 
L 367.509049 20.7064 
Q 365.509049 20.7064 365.509049 22.7064 
L 365.509049 256.5564 
Q 365.509049 258.5564 367.509049 258.5564 
z
" style="fill:#ffffff;opacity:0.8;stroke:#cccccc;stroke-linejoin:miter;"/>
    </g>
    <g id="patch_72">
     <path d="M 369.509049 32.304837 
L 389.509049 32.304837 
L 389.509049 25.304837 
L 369.509049 25.304837 
z
" style="fill:#1f77b4;"/>
    </g>
    <g id="text_13">
     <!-- 493 -->
     <defs>
      <path d="M 10.984375 1.515625 
L 10.984375 10.5 
Q 14.703125 8.734375 18.5 7.8125 
Q 22.3125 6.890625 25.984375 6.890625 
Q 35.75 6.890625 40.890625 13.453125 
Q 46.046875 20.015625 46.78125 33.40625 
Q 43.953125 29.203125 39.59375 26.953125 
Q 35.25 24.703125 29.984375 24.703125 
Q 19.046875 24.703125 12.671875 31.3125 
Q 6.296875 37.9375 6.296875 49.421875 
Q 6.296875 60.640625 12.9375 67.421875 
Q 19.578125 74.21875 30.609375 74.21875 
Q 43.265625 74.21875 49.921875 64.515625 
Q 56.59375 54.828125 56.59375 36.375 
Q 56.59375 19.140625 48.40625 8.859375 
Q 40.234375 -1.421875 26.421875 -1.421875 
Q 22.703125 -1.421875 18.890625 -0.6875 
Q 15.09375 0.046875 10.984375 1.515625 
z
M 30.609375 32.421875 
Q 37.25 32.421875 41.125 36.953125 
Q 45.015625 41.5 45.015625 49.421875 
Q 45.015625 57.28125 41.125 61.84375 
Q 37.25 66.40625 30.609375 66.40625 
Q 23.96875 66.40625 20.09375 61.84375 
Q 16.21875 57.28125 16.21875 49.421875 
Q 16.21875 41.5 20.09375 36.953125 
Q 23.96875 32.421875 30.609375 32.421875 
z
" id="DejaVuSans-57"/>
     </defs>
     <g transform="translate(397.509049 32.304837)scale(0.1 -0.1)">
      <use xlink:href="#DejaVuSans-52"/>
      <use x="63.623047" xlink:href="#DejaVuSans-57"/>
      <use x="127.246094" xlink:href="#DejaVuSans-51"/>
     </g>
    </g>
    <g id="patch_73">
     <path d="M 369.509049 46.982962 
L 389.509049 46.982962 
L 389.509049 39.982962 
L 369.509049 39.982962 
z
" style="fill:#ff7f0e;"/>
    </g>
    <g id="text_14">
     <!-- 45 -->
     <g transform="translate(397.509049 46.982962)scale(0.1 -0.1)">
      <use xlink:href="#DejaVuSans-52"/>
      <use x="63.623047" xlink:href="#DejaVuSans-53"/>
     </g>
    </g>
    <g id="patch_74">
     <path d="M 369.509049 61.661087 
L 389.509049 61.661087 
L 389.509049 54.661087 
L 369.509049 54.661087 
z
" style="fill:#2ca02c;"/>
    </g>
    <g id="text_15">
     <!-- 45 -->
     <g transform="translate(397.509049 61.661087)scale(0.1 -0.1)">
      <use xlink:href="#DejaVuSans-52"/>
      <use x="63.623047" xlink:href="#DejaVuSans-53"/>
     </g>
    </g>
    <g id="patch_75">
     <path d="M 369.509049 76.339212 
L 389.509049 76.339212 
L 389.509049 69.339212 
L 369.509049 69.339212 
z
" style="fill:#d62728;"/>
    </g>
    <g id="text_16">
     <!-- 45 -->
     <g transform="translate(397.509049 76.339212)scale(0.1 -0.1)">
      <use xlink:href="#DejaVuSans-52"/>
      <use x="63.623047" xlink:href="#DejaVuSans-53"/>
     </g>
    </g>
    <g id="patch_76">
     <path d="M 369.509049 91.017337 
L 389.509049 91.017337 
L 389.509049 84.017337 
L 369.509049 84.017337 
z
" style="fill:#9467bd;"/>
    </g>
    <g id="text_17">
     <!-- 45 -->
     <g transform="translate(397.509049 91.017337)scale(0.1 -0.1)">
      <use xlink:href="#DejaVuSans-52"/>
      <use x="63.623047" xlink:href="#DejaVuSans-53"/>
     </g>
    </g>
    <g id="patch_77">
     <path d="M 369.509049 105.695462 
L 389.509049 105.695462 
L 389.509049 98.695462 
L 369.509049 98.695462 
z
" style="fill:#8c564b;"/>
    </g>
    <g id="text_18">
     <!-- 45 -->
     <g transform="translate(397.509049 105.695462)scale(0.1 -0.1)">
      <use xlink:href="#DejaVuSans-52"/>
      <use x="63.623047" xlink:href="#DejaVuSans-53"/>
     </g>
    </g>
    <g id="patch_78">
     <path d="M 369.509049 120.373587 
L 389.509049 120.373587 
L 389.509049 113.373587 
L 369.509049 113.373587 
z
" style="fill:#e377c2;"/>
    </g>
    <g id="text_19">
     <!-- 45 -->
     <g transform="translate(397.509049 120.373587)scale(0.1 -0.1)">
      <use xlink:href="#DejaVuSans-52"/>
      <use x="63.623047" xlink:href="#DejaVuSans-53"/>
     </g>
    </g>
    <g id="patch_79">
     <path d="M 369.509049 135.051712 
L 389.509049 135.051712 
L 389.509049 128.051712 
L 369.509049 128.051712 
z
" style="fill:#7f7f7f;"/>
    </g>
    <g id="text_20">
     <!-- 45 -->
     <g transform="translate(397.509049 135.051712)scale(0.1 -0.1)">
      <use xlink:href="#DejaVuSans-52"/>
      <use x="63.623047" xlink:href="#DejaVuSans-53"/>
     </g>
    </g>
    <g id="patch_80">
     <path d="M 369.509049 149.729837 
L 389.509049 149.729837 
L 389.509049 142.729837 
L 369.509049 142.729837 
z
" style="fill:#bcbd22;"/>
    </g>
    <g id="text_21">
     <!-- 45 -->
     <g transform="translate(397.509049 149.729837)scale(0.1 -0.1)">
      <use xlink:href="#DejaVuSans-52"/>
      <use x="63.623047" xlink:href="#DejaVuSans-53"/>
     </g>
    </g>
    <g id="patch_81">
     <path d="M 369.509049 164.407962 
L 389.509049 164.407962 
L 389.509049 157.407962 
L 369.509049 157.407962 
z
" style="fill:#17becf;"/>
    </g>
    <g id="text_22">
     <!-- 45 -->
     <g transform="translate(397.509049 164.407962)scale(0.1 -0.1)">
      <use xlink:href="#DejaVuSans-52"/>
      <use x="63.623047" xlink:href="#DejaVuSans-53"/>
     </g>
    </g>
    <g id="patch_82">
     <path d="M 369.509049 179.086087 
L 389.509049 179.086087 
L 389.509049 172.086087 
L 369.509049 172.086087 
z
" style="fill:#1f77b4;"/>
    </g>
    <g id="text_23">
     <!-- 45 -->
     <g transform="translate(397.509049 179.086087)scale(0.1 -0.1)">
      <use xlink:href="#DejaVuSans-52"/>
      <use x="63.623047" xlink:href="#DejaVuSans-53"/>
     </g>
    </g>
    <g id="patch_83">
     <path d="M 369.509049 193.764212 
L 389.509049 193.764212 
L 389.509049 186.764212 
L 369.509049 186.764212 
z
" style="fill:#ff7f0e;"/>
    </g>
    <g id="text_24">
     <!-- 45 -->
     <g transform="translate(397.509049 193.764212)scale(0.1 -0.1)">
      <use xlink:href="#DejaVuSans-52"/>
      <use x="63.623047" xlink:href="#DejaVuSans-53"/>
     </g>
    </g>
    <g id="patch_84">
     <path d="M 369.509049 208.442337 
L 389.509049 208.442337 
L 389.509049 201.442337 
L 369.509049 201.442337 
z
" style="fill:#2ca02c;"/>
    </g>
    <g id="text_25">
     <!-- 45 -->
     <g transform="translate(397.509049 208.442337)scale(0.1 -0.1)">
      <use xlink:href="#DejaVuSans-52"/>
      <use x="63.623047" xlink:href="#DejaVuSans-53"/>
     </g>
    </g>
    <g id="patch_85">
     <path d="M 369.509049 223.120462 
L 389.509049 223.120462 
L 389.509049 216.120462 
L 369.509049 216.120462 
z
" style="fill:#d62728;"/>
    </g>
    <g id="text_26">
     <!-- 45 -->
     <g transform="translate(397.509049 223.120462)scale(0.1 -0.1)">
      <use xlink:href="#DejaVuSans-52"/>
      <use x="63.623047" xlink:href="#DejaVuSans-53"/>
     </g>
    </g>
    <g id="patch_86">
     <path d="M 369.509049 237.798587 
L 389.509049 237.798587 
L 389.509049 230.798587 
L 369.509049 230.798587 
z
" style="fill:#9467bd;"/>
    </g>
    <g id="text_27">
     <!-- 45 -->
     <g transform="translate(397.509049 237.798587)scale(0.1 -0.1)">
      <use xlink:href="#DejaVuSans-52"/>
      <use x="63.623047" xlink:href="#DejaVuSans-53"/>
     </g>
    </g>
    <g id="patch_87">
     <path d="M 369.509049 252.476712 
L 389.509049 252.476712 
L 389.509049 245.476712 
L 369.509049 245.476712 
z
" style="fill:#8c564b;"/>
    </g>
    <g id="text_28">
     <!-- Others -->
     <defs>
      <path d="M 39.40625 66.21875 
Q 28.65625 66.21875 22.328125 58.203125 
Q 16.015625 50.203125 16.015625 36.375 
Q 16.015625 22.609375 22.328125 14.59375 
Q 28.65625 6.59375 39.40625 6.59375 
Q 50.140625 6.59375 56.421875 14.59375 
Q 62.703125 22.609375 62.703125 36.375 
Q 62.703125 50.203125 56.421875 58.203125 
Q 50.140625 66.21875 39.40625 66.21875 
z
M 39.40625 74.21875 
Q 54.734375 74.21875 63.90625 63.9375 
Q 73.09375 53.65625 73.09375 36.375 
Q 73.09375 19.140625 63.90625 8.859375 
Q 54.734375 -1.421875 39.40625 -1.421875 
Q 24.03125 -1.421875 14.8125 8.828125 
Q 5.609375 19.09375 5.609375 36.375 
Q 5.609375 53.65625 14.8125 63.9375 
Q 24.03125 74.21875 39.40625 74.21875 
z
" id="DejaVuSans-79"/>
     </defs>
     <g transform="translate(397.509049 252.476712)scale(0.1 -0.1)">
      <use xlink:href="#DejaVuSans-79"/>
      <use x="78.710938" xlink:href="#DejaVuSans-116"/>
      <use x="117.919922" xlink:href="#DejaVuSans-104"/>
      <use x="181.298828" xlink:href="#DejaVuSans-101"/>
      <use x="242.822266" xlink:href="#DejaVuSans-114"/>
      <use x="283.935547" xlink:href="#DejaVuSans-115"/>
     </g>
    </g>
   </g>
  </g>
 </g>
 <defs>
  <clipPath id="pcf46e69121">
   <rect height="206.136" width="300.658099" x="59.850951" y="36.32"/>
  </clipPath>
 </defs>
</svg>
