<?xml version="1.0" encoding="utf-8" standalone="no"?>
<!DOCTYPE svg PUBLIC "-//W3C//DTD SVG 1.1//EN"
  "http://www.w3.org/Graphics/SVG/1.1/DTD/svg11.dtd">
<svg xmlns:xlink="http://www.w3.org/1999/xlink" width="1717.635625pt" height="277.531937pt" viewBox="0 0 1717.635625 277.531937" xmlns="http://www.w3.org/2000/svg" version="1.1">
 <metadata>
  <rdf:RDF xmlns:dc="http://purl.org/dc/elements/1.1/" xmlns:cc="http://creativecommons.org/ns#" xmlns:rdf="http://www.w3.org/1999/02/22-rdf-syntax-ns#">
   <cc:Work>
    <dc:type rdf:resource="http://purl.org/dc/dcmitype/StillImage"/>
    <dc:date>2023-06-07T09:19:55.140179</dc:date>
    <dc:format>image/svg+xml</dc:format>
    <dc:creator>
     <cc:Agent>
      <dc:title>Matplotlib v3.7.1, https://matplotlib.org/</dc:title>
     </cc:Agent>
    </dc:creator>
   </cc:Work>
  </rdf:RDF>
 </metadata>
 <defs>
  <style type="text/css">*{stroke-linejoin: round; stroke-linecap: butt}</style>
 </defs>
 <g id="figure_1">
  <g id="patch_1">
   <path d="M 0 277.531937 
L 1717.635625 277.531937 
L 1717.635625 0 
L 0 0 
z
" style="fill: #ffffff"/>
  </g>
  <g id="axes_1">
   <g id="patch_2">
    <path d="M 34.2625 242.456 
L 1635.8325 242.456 
L 1635.8325 36.32 
L 34.2625 36.32 
z
" style="fill: #ffffff"/>
   </g>
   <g id="patch_3">
    <path d="M 107.061136 242.456 
L 205.771152 242.456 
L 205.771152 167.903495 
L 107.061136 167.903495 
z
" clip-path="url(#pe3f2b22019)" style="fill: #1f77b4"/>
   </g>
   <g id="patch_4">
    <path d="M 230.448656 242.456 
L 329.158671 242.456 
L 329.158671 159.194079 
L 230.448656 159.194079 
z
" clip-path="url(#pe3f2b22019)" style="fill: #1f77b4"/>
   </g>
   <g id="patch_5">
    <path d="M 353.836175 242.456 
L 452.54619 242.456 
L 452.54619 149.544684 
L 353.836175 149.544684 
z
" clip-path="url(#pe3f2b22019)" style="fill: #1f77b4"/>
   </g>
   <g id="patch_6">
    <path d="M 477.223694 242.456 
L 575.93371 242.456 
L 575.93371 139.315591 
L 477.223694 139.315591 
z
" clip-path="url(#pe3f2b22019)" style="fill: #1f77b4"/>
   </g>
   <g id="patch_7">
    <path d="M 600.611213 242.456 
L 699.321229 242.456 
L 699.321229 173.743113 
L 600.611213 173.743113 
z
" clip-path="url(#pe3f2b22019)" style="fill: #1f77b4"/>
   </g>
   <g id="patch_8">
    <path d="M 723.998733 242.456 
L 822.708748 242.456 
L 822.708748 158.200248 
L 723.998733 158.200248 
z
" clip-path="url(#pe3f2b22019)" style="fill: #1f77b4"/>
   </g>
   <g id="patch_9">
    <path d="M 847.386252 242.456 
L 946.096267 242.456 
L 946.096267 176.983685 
L 847.386252 176.983685 
z
" clip-path="url(#pe3f2b22019)" style="fill: #1f77b4"/>
   </g>
   <g id="patch_10">
    <path d="M 970.773771 242.456 
L 1069.483787 242.456 
L 1069.483787 168.832731 
L 970.773771 168.832731 
z
" clip-path="url(#pe3f2b22019)" style="fill: #1f77b4"/>
   </g>
   <g id="patch_11">
    <path d="M 1094.16129 242.456 
L 1192.871306 242.456 
L 1192.871306 158.393381 
L 1094.16129 158.393381 
z
" clip-path="url(#pe3f2b22019)" style="fill: #1f77b4"/>
   </g>
   <g id="patch_12">
    <path d="M 1217.54881 242.456 
L 1316.258825 242.456 
L 1316.258825 148.164287 
L 1217.54881 148.164287 
z
" clip-path="url(#pe3f2b22019)" style="fill: #1f77b4"/>
   </g>
   <g id="patch_13">
    <path d="M 1340.936329 242.456 
L 1439.646344 242.456 
L 1439.646344 179.807874 
L 1340.936329 179.807874 
z
" clip-path="url(#pe3f2b22019)" style="fill: #1f77b4"/>
   </g>
   <g id="patch_14">
    <path d="M 1464.323848 242.456 
L 1563.033864 242.456 
L 1563.033864 164.661661 
L 1464.323848 164.661661 
z
" clip-path="url(#pe3f2b22019)" style="fill: #1f77b4"/>
   </g>
   <g id="patch_15">
    <path d="M 107.061136 167.903495 
L 205.771152 167.903495 
L 205.771152 155.426529 
L 107.061136 155.426529 
z
" clip-path="url(#pe3f2b22019)" style="fill: #ff7f0e"/>
   </g>
   <g id="patch_16">
    <path d="M 230.448656 159.194079 
L 329.158671 159.194079 
L 329.158671 145.311167 
L 230.448656 145.311167 
z
" clip-path="url(#pe3f2b22019)" style="fill: #ff7f0e"/>
   </g>
   <g id="patch_17">
    <path d="M 353.836175 149.544684 
L 452.54619 149.544684 
L 452.54619 133.211875 
L 353.836175 133.211875 
z
" clip-path="url(#pe3f2b22019)" style="fill: #ff7f0e"/>
   </g>
   <g id="patch_18">
    <path d="M 477.223694 139.315591 
L 575.93371 139.315591 
L 575.93371 121.378537 
L 477.223694 121.378537 
z
" clip-path="url(#pe3f2b22019)" style="fill: #ff7f0e"/>
   </g>
   <g id="patch_19">
    <path d="M 600.611213 173.743113 
L 699.321229 173.743113 
L 699.321229 162.300411 
L 600.611213 162.300411 
z
" clip-path="url(#pe3f2b22019)" style="fill: #ff7f0e"/>
   </g>
   <g id="patch_20">
    <path d="M 723.998733 158.200248 
L 822.708748 158.200248 
L 822.708748 144.252973 
L 723.998733 144.252973 
z
" clip-path="url(#pe3f2b22019)" style="fill: #ff7f0e"/>
   </g>
   <g id="patch_21">
    <path d="M 847.386252 176.983685 
L 946.096267 176.983685 
L 946.096267 166.544773 
L 847.386252 166.544773 
z
" clip-path="url(#pe3f2b22019)" style="fill: #ff7f0e"/>
   </g>
   <g id="patch_22">
    <path d="M 970.773771 168.832731 
L 1069.483787 168.832731 
L 1069.483787 157.097215 
L 970.773771 157.097215 
z
" clip-path="url(#pe3f2b22019)" style="fill: #ff7f0e"/>
   </g>
   <g id="patch_23">
    <path d="M 1094.16129 158.393381 
L 1192.871306 158.393381 
L 1192.871306 145.690085 
L 1094.16129 145.690085 
z
" clip-path="url(#pe3f2b22019)" style="fill: #ff7f0e"/>
   </g>
   <g id="patch_24">
    <path d="M 1217.54881 148.164287 
L 1316.258825 148.164287 
L 1316.258825 133.856746 
L 1217.54881 133.856746 
z
" clip-path="url(#pe3f2b22019)" style="fill: #ff7f0e"/>
   </g>
   <g id="patch_25">
    <path d="M 1340.936329 179.807874 
L 1439.646344 179.807874 
L 1439.646344 169.793546 
L 1340.936329 169.793546 
z
" clip-path="url(#pe3f2b22019)" style="fill: #ff7f0e"/>
   </g>
   <g id="patch_26">
    <path d="M 1464.323848 164.661661 
L 1563.033864 164.661661 
L 1563.033864 152.226205 
L 1464.323848 152.226205 
z
" clip-path="url(#pe3f2b22019)" style="fill: #ff7f0e"/>
   </g>
   <g id="patch_27">
    <path d="M 107.061136 155.426529 
L 205.771152 155.426529 
L 205.771152 149.429412 
L 107.061136 149.429412 
z
" clip-path="url(#pe3f2b22019)" style="fill: #2ca02c"/>
   </g>
   <g id="patch_28">
    <path d="M 230.448656 145.311167 
L 329.158671 145.311167 
L 329.158671 138.676235 
L 230.448656 138.676235 
z
" clip-path="url(#pe3f2b22019)" style="fill: #2ca02c"/>
   </g>
   <g id="patch_29">
    <path d="M 353.836175 133.211875 
L 452.54619 133.211875 
L 452.54619 125.727762 
L 353.836175 125.727762 
z
" clip-path="url(#pe3f2b22019)" style="fill: #2ca02c"/>
   </g>
   <g id="patch_30">
    <path d="M 477.223694 121.378537 
L 575.93371 121.378537 
L 575.93371 113.117652 
L 477.223694 113.117652 
z
" clip-path="url(#pe3f2b22019)" style="fill: #2ca02c"/>
   </g>
   <g id="patch_31">
    <path d="M 600.611213 162.300411 
L 699.321229 162.300411 
L 699.321229 156.775771 
L 600.611213 156.775771 
z
" clip-path="url(#pe3f2b22019)" style="fill: #2ca02c"/>
   </g>
   <g id="patch_32">
    <path d="M 723.998733 144.252973 
L 822.708748 144.252973 
L 822.708748 137.619968 
L 723.998733 137.619968 
z
" clip-path="url(#pe3f2b22019)" style="fill: #2ca02c"/>
   </g>
   <g id="patch_33">
    <path d="M 847.386252 166.544773 
L 946.096267 166.544773 
L 946.096267 161.025368 
L 847.386252 161.025368 
z
" clip-path="url(#pe3f2b22019)" style="fill: #2ca02c"/>
   </g>
   <g id="patch_34">
    <path d="M 970.773771 157.097215 
L 1069.483787 157.097215 
L 1069.483787 150.890984 
L 970.773771 150.890984 
z
" clip-path="url(#pe3f2b22019)" style="fill: #2ca02c"/>
   </g>
   <g id="patch_35">
    <path d="M 1094.16129 145.690085 
L 1192.871306 145.690085 
L 1192.871306 138.599873 
L 1094.16129 138.599873 
z
" clip-path="url(#pe3f2b22019)" style="fill: #2ca02c"/>
   </g>
   <g id="patch_36">
    <path d="M 1217.54881 133.856746 
L 1316.258825 133.856746 
L 1316.258825 125.909407 
L 1217.54881 125.909407 
z
" clip-path="url(#pe3f2b22019)" style="fill: #2ca02c"/>
   </g>
   <g id="patch_37">
    <path d="M 1340.936329 169.793546 
L 1439.646344 169.793546 
L 1439.646344 164.504291 
L 1340.936329 164.504291 
z
" clip-path="url(#pe3f2b22019)" style="fill: #2ca02c"/>
   </g>
   <g id="patch_38">
    <path d="M 1464.323848 152.226205 
L 1563.033864 152.226205 
L 1563.033864 145.658186 
L 1464.323848 145.658186 
z
" clip-path="url(#pe3f2b22019)" style="fill: #2ca02c"/>
   </g>
   <g id="patch_39">
    <path d="M 107.061136 149.429412 
L 205.771152 149.429412 
L 205.771152 145.34833 
L 107.061136 145.34833 
z
" clip-path="url(#pe3f2b22019)" style="fill: #d62728"/>
   </g>
   <g id="patch_40">
    <path d="M 230.448656 138.676235 
L 329.158671 138.676235 
L 329.158671 134.146011 
L 230.448656 134.146011 
z
" clip-path="url(#pe3f2b22019)" style="fill: #d62728"/>
   </g>
   <g id="patch_41">
    <path d="M 353.836175 125.727762 
L 452.54619 125.727762 
L 452.54619 120.424172 
L 353.836175 120.424172 
z
" clip-path="url(#pe3f2b22019)" style="fill: #d62728"/>
   </g>
   <g id="patch_42">
    <path d="M 477.223694 113.117652 
L 575.93371 113.117652 
L 575.93371 107.291749 
L 477.223694 107.291749 
z
" clip-path="url(#pe3f2b22019)" style="fill: #d62728"/>
   </g>
   <g id="patch_43">
    <path d="M 600.611213 156.775771 
L 699.321229 156.775771 
L 699.321229 153.097924 
L 600.611213 153.097924 
z
" clip-path="url(#pe3f2b22019)" style="fill: #d62728"/>
   </g>
   <g id="patch_44">
    <path d="M 723.998733 137.619968 
L 822.708748 137.619968 
L 822.708748 133.149783 
L 723.998733 133.149783 
z
" clip-path="url(#pe3f2b22019)" style="fill: #d62728"/>
   </g>
   <g id="patch_45">
    <path d="M 847.386252 161.025368 
L 946.096267 161.025368 
L 946.096267 157.25465 
L 847.386252 157.25465 
z
" clip-path="url(#pe3f2b22019)" style="fill: #d62728"/>
   </g>
   <g id="patch_46">
    <path d="M 970.773771 150.890984 
L 1069.483787 150.890984 
L 1069.483787 146.652467 
L 970.773771 146.652467 
z
" clip-path="url(#pe3f2b22019)" style="fill: #d62728"/>
   </g>
   <g id="patch_47">
    <path d="M 1094.16129 138.599873 
L 1192.871306 138.599873 
L 1192.871306 133.844929 
L 1094.16129 133.844929 
z
" clip-path="url(#pe3f2b22019)" style="fill: #d62728"/>
   </g>
   <g id="patch_48">
    <path d="M 1217.54881 125.909407 
L 1316.258825 125.909407 
L 1316.258825 120.607279 
L 1217.54881 120.607279 
z
" clip-path="url(#pe3f2b22019)" style="fill: #d62728"/>
   </g>
   <g id="patch_49">
    <path d="M 1340.936329 164.504291 
L 1439.646344 164.504291 
L 1439.646344 160.896176 
L 1340.936329 160.896176 
z
" clip-path="url(#pe3f2b22019)" style="fill: #d62728"/>
   </g>
   <g id="patch_50">
    <path d="M 1464.323848 145.658186 
L 1563.033864 145.658186 
L 1563.033864 141.17775 
L 1464.323848 141.17775 
z
" clip-path="url(#pe3f2b22019)" style="fill: #d62728"/>
   </g>
   <g id="patch_51">
    <path d="M 107.061136 145.34833 
L 205.771152 145.34833 
L 205.771152 141.064845 
L 107.061136 141.064845 
z
" clip-path="url(#pe3f2b22019)" style="fill: #9467bd"/>
   </g>
   <g id="patch_52">
    <path d="M 230.448656 134.146011 
L 329.158671 134.146011 
L 329.158671 129.394835 
L 230.448656 129.394835 
z
" clip-path="url(#pe3f2b22019)" style="fill: #9467bd"/>
   </g>
   <g id="patch_53">
    <path d="M 353.836175 120.424172 
L 452.54619 120.424172 
L 452.54619 114.916596 
L 353.836175 114.916596 
z
" clip-path="url(#pe3f2b22019)" style="fill: #9467bd"/>
   </g>
   <g id="patch_54">
    <path d="M 477.223694 107.291749 
L 575.93371 107.291749 
L 575.93371 101.241773 
L 477.223694 101.241773 
z
" clip-path="url(#pe3f2b22019)" style="fill: #9467bd"/>
   </g>
   <g id="patch_55">
    <path d="M 600.611213 153.097924 
L 699.321229 153.097924 
L 699.321229 149.202206 
L 600.611213 149.202206 
z
" clip-path="url(#pe3f2b22019)" style="fill: #9467bd"/>
   </g>
   <g id="patch_56">
    <path d="M 723.998733 133.149783 
L 822.708748 133.149783 
L 822.708748 128.437885 
L 723.998733 128.437885 
z
" clip-path="url(#pe3f2b22019)" style="fill: #9467bd"/>
   </g>
   <g id="patch_57">
    <path d="M 847.386252 157.25465 
L 946.096267 157.25465 
L 946.096267 153.875484 
L 847.386252 153.875484 
z
" clip-path="url(#pe3f2b22019)" style="fill: #9467bd"/>
   </g>
   <g id="patch_58">
    <path d="M 970.773771 146.652467 
L 1069.483787 146.652467 
L 1069.483787 142.854839 
L 970.773771 142.854839 
z
" clip-path="url(#pe3f2b22019)" style="fill: #9467bd"/>
   </g>
   <g id="patch_59">
    <path d="M 1094.16129 133.844929 
L 1192.871306 133.844929 
L 1192.871306 129.666769 
L 1094.16129 129.666769 
z
" clip-path="url(#pe3f2b22019)" style="fill: #9467bd"/>
   </g>
   <g id="patch_60">
    <path d="M 1217.54881 120.607279 
L 1316.258825 120.607279 
L 1316.258825 115.912546 
L 1217.54881 115.912546 
z
" clip-path="url(#pe3f2b22019)" style="fill: #9467bd"/>
   </g>
   <g id="patch_61">
    <path d="M 1340.936329 160.896176 
L 1439.646344 160.896176 
L 1439.646344 157.686351 
L 1340.936329 157.686351 
z
" clip-path="url(#pe3f2b22019)" style="fill: #9467bd"/>
   </g>
   <g id="patch_62">
    <path d="M 1464.323848 141.17775 
L 1563.033864 141.17775 
L 1563.033864 137.191897 
L 1464.323848 137.191897 
z
" clip-path="url(#pe3f2b22019)" style="fill: #9467bd"/>
   </g>
   <g id="patch_63">
    <path d="M 107.061136 141.064845 
L 205.771152 141.064845 
L 205.771152 137.825254 
L 107.061136 137.825254 
z
" clip-path="url(#pe3f2b22019)" style="fill: #8c564b"/>
   </g>
   <g id="patch_64">
    <path d="M 230.448656 129.394835 
L 329.158671 129.394835 
L 329.158671 125.793999 
L 230.448656 125.793999 
z
" clip-path="url(#pe3f2b22019)" style="fill: #8c564b"/>
   </g>
   <g id="patch_65">
    <path d="M 353.836175 114.916596 
L 452.54619 114.916596 
L 452.54619 110.836911 
L 353.836175 110.836911 
z
" clip-path="url(#pe3f2b22019)" style="fill: #8c564b"/>
   </g>
   <g id="patch_66">
    <path d="M 477.223694 101.241773 
L 575.93371 101.241773 
L 575.93371 96.704347 
L 477.223694 96.704347 
z
" clip-path="url(#pe3f2b22019)" style="fill: #8c564b"/>
   </g>
   <g id="patch_67">
    <path d="M 600.611213 149.202206 
L 699.321229 149.202206 
L 699.321229 146.249099 
L 600.611213 146.249099 
z
" clip-path="url(#pe3f2b22019)" style="fill: #8c564b"/>
   </g>
   <g id="patch_68">
    <path d="M 723.998733 128.437885 
L 822.708748 128.437885 
L 822.708748 124.84386 
L 723.998733 124.84386 
z
" clip-path="url(#pe3f2b22019)" style="fill: #8c564b"/>
   </g>
   <g id="patch_69">
    <path d="M 847.386252 153.875484 
L 946.096267 153.875484 
L 946.096267 151.280278 
L 847.386252 151.280278 
z
" clip-path="url(#pe3f2b22019)" style="fill: #8c564b"/>
   </g>
   <g id="patch_70">
    <path d="M 970.773771 142.854839 
L 1069.483787 142.854839 
L 1069.483787 139.936967 
L 970.773771 139.936967 
z
" clip-path="url(#pe3f2b22019)" style="fill: #8c564b"/>
   </g>
   <g id="patch_71">
    <path d="M 1094.16129 129.666769 
L 1192.871306 129.666769 
L 1192.871306 126.403021 
L 1094.16129 126.403021 
z
" clip-path="url(#pe3f2b22019)" style="fill: #8c564b"/>
   </g>
   <g id="patch_72">
    <path d="M 1217.54881 115.912546 
L 1316.258825 115.912546 
L 1316.258825 112.260412 
L 1217.54881 112.260412 
z
" clip-path="url(#pe3f2b22019)" style="fill: #8c564b"/>
   </g>
   <g id="patch_73">
    <path d="M 1340.936329 157.686351 
L 1439.646344 157.686351 
L 1439.646344 155.195884 
L 1340.936329 155.195884 
z
" clip-path="url(#pe3f2b22019)" style="fill: #8c564b"/>
   </g>
   <g id="patch_74">
    <path d="M 1464.323848 137.191897 
L 1563.033864 137.191897 
L 1563.033864 134.099318 
L 1464.323848 134.099318 
z
" clip-path="url(#pe3f2b22019)" style="fill: #8c564b"/>
   </g>
   <g id="patch_75">
    <path d="M 107.061136 137.825254 
L 205.771152 137.825254 
L 205.771152 135.52301 
L 107.061136 135.52301 
z
" clip-path="url(#pe3f2b22019)" style="fill: #e377c2"/>
   </g>
   <g id="patch_76">
    <path d="M 230.448656 125.793999 
L 329.158671 125.793999 
L 329.158671 123.23252 
L 230.448656 123.23252 
z
" clip-path="url(#pe3f2b22019)" style="fill: #e377c2"/>
   </g>
   <g id="patch_77">
    <path d="M 353.836175 110.836911 
L 452.54619 110.836911 
L 452.54619 107.963547 
L 353.836175 107.963547 
z
" clip-path="url(#pe3f2b22019)" style="fill: #e377c2"/>
   </g>
   <g id="patch_78">
    <path d="M 477.223694 96.704347 
L 575.93371 96.704347 
L 575.93371 93.503819 
L 477.223694 93.503819 
z
" clip-path="url(#pe3f2b22019)" style="fill: #e377c2"/>
   </g>
   <g id="patch_79">
    <path d="M 600.611213 146.249099 
L 699.321229 146.249099 
L 699.321229 144.146297 
L 600.611213 144.146297 
z
" clip-path="url(#pe3f2b22019)" style="fill: #e377c2"/>
   </g>
   <g id="patch_80">
    <path d="M 723.998733 124.84386 
L 822.708748 124.84386 
L 822.708748 122.280528 
L 723.998733 122.280528 
z
" clip-path="url(#pe3f2b22019)" style="fill: #e377c2"/>
   </g>
   <g id="patch_81">
    <path d="M 847.386252 151.280278 
L 946.096267 151.280278 
L 946.096267 149.18185 
L 847.386252 149.18185 
z
" clip-path="url(#pe3f2b22019)" style="fill: #e377c2"/>
   </g>
   <g id="patch_82">
    <path d="M 970.773771 139.936967 
L 1069.483787 139.936967 
L 1069.483787 137.577174 
L 970.773771 137.577174 
z
" clip-path="url(#pe3f2b22019)" style="fill: #e377c2"/>
   </g>
   <g id="patch_83">
    <path d="M 1094.16129 126.403021 
L 1192.871306 126.403021 
L 1192.871306 123.730123 
L 1094.16129 123.730123 
z
" clip-path="url(#pe3f2b22019)" style="fill: #e377c2"/>
   </g>
   <g id="patch_84">
    <path d="M 1217.54881 112.260412 
L 1316.258825 112.260412 
L 1316.258825 109.260352 
L 1217.54881 109.260352 
z
" clip-path="url(#pe3f2b22019)" style="fill: #e377c2"/>
   </g>
   <g id="patch_85">
    <path d="M 1340.936329 155.195884 
L 1439.646344 155.195884 
L 1439.646344 153.19237 
L 1340.936329 153.19237 
z
" clip-path="url(#pe3f2b22019)" style="fill: #e377c2"/>
   </g>
   <g id="patch_86">
    <path d="M 1464.323848 134.099318 
L 1563.033864 134.099318 
L 1563.033864 131.611421 
L 1464.323848 131.611421 
z
" clip-path="url(#pe3f2b22019)" style="fill: #e377c2"/>
   </g>
   <g id="patch_87">
    <path d="M 107.061136 135.52301 
L 205.771152 135.52301 
L 205.771152 133.652855 
L 107.061136 133.652855 
z
" clip-path="url(#pe3f2b22019)" style="fill: #7f7f7f"/>
   </g>
   <g id="patch_88">
    <path d="M 230.448656 123.23252 
L 329.158671 123.23252 
L 329.158671 121.169755 
L 230.448656 121.169755 
z
" clip-path="url(#pe3f2b22019)" style="fill: #7f7f7f"/>
   </g>
   <g id="patch_89">
    <path d="M 353.836175 107.963547 
L 452.54619 107.963547 
L 452.54619 105.494634 
L 353.836175 105.494634 
z
" clip-path="url(#pe3f2b22019)" style="fill: #7f7f7f"/>
   </g>
   <g id="patch_90">
    <path d="M 477.223694 93.503819 
L 575.93371 93.503819 
L 575.93371 90.823494 
L 477.223694 90.823494 
z
" clip-path="url(#pe3f2b22019)" style="fill: #7f7f7f"/>
   </g>
   <g id="patch_91">
    <path d="M 600.611213 144.146297 
L 699.321229 144.146297 
L 699.321229 142.515721 
L 600.611213 142.515721 
z
" clip-path="url(#pe3f2b22019)" style="fill: #7f7f7f"/>
   </g>
   <g id="patch_92">
    <path d="M 723.998733 122.280528 
L 822.708748 122.280528 
L 822.708748 120.325802 
L 723.998733 120.325802 
z
" clip-path="url(#pe3f2b22019)" style="fill: #7f7f7f"/>
   </g>
   <g id="patch_93">
    <path d="M 847.386252 149.18185 
L 946.096267 149.18185 
L 946.096267 147.673563 
L 847.386252 147.673563 
z
" clip-path="url(#pe3f2b22019)" style="fill: #7f7f7f"/>
   </g>
   <g id="patch_94">
    <path d="M 970.773771 137.577174 
L 1069.483787 137.577174 
L 1069.483787 135.882301 
L 970.773771 135.882301 
z
" clip-path="url(#pe3f2b22019)" style="fill: #7f7f7f"/>
   </g>
   <g id="patch_95">
    <path d="M 1094.16129 123.730123 
L 1192.871306 123.730123 
L 1192.871306 121.901299 
L 1094.16129 121.901299 
z
" clip-path="url(#pe3f2b22019)" style="fill: #7f7f7f"/>
   </g>
   <g id="patch_96">
    <path d="M 1217.54881 109.260352 
L 1316.258825 109.260352 
L 1316.258825 107.207679 
L 1217.54881 107.207679 
z
" clip-path="url(#pe3f2b22019)" style="fill: #7f7f7f"/>
   </g>
   <g id="patch_97">
    <path d="M 1340.936329 153.19237 
L 1439.646344 153.19237 
L 1439.646344 151.767747 
L 1340.936329 151.767747 
z
" clip-path="url(#pe3f2b22019)" style="fill: #7f7f7f"/>
   </g>
   <g id="patch_98">
    <path d="M 1464.323848 131.611421 
L 1563.033864 131.611421 
L 1563.033864 129.842373 
L 1464.323848 129.842373 
z
" clip-path="url(#pe3f2b22019)" style="fill: #7f7f7f"/>
   </g>
   <g id="patch_99">
    <path d="M 107.061136 133.652855 
L 205.771152 133.652855 
L 205.771152 131.82176 
L 107.061136 131.82176 
z
" clip-path="url(#pe3f2b22019)" style="fill: #bcbd22"/>
   </g>
   <g id="patch_100">
    <path d="M 230.448656 121.169755 
L 329.158671 121.169755 
L 329.158671 119.266693 
L 230.448656 119.266693 
z
" clip-path="url(#pe3f2b22019)" style="fill: #bcbd22"/>
   </g>
   <g id="patch_101">
    <path d="M 353.836175 105.494634 
L 452.54619 105.494634 
L 452.54619 102.89911 
L 353.836175 102.89911 
z
" clip-path="url(#pe3f2b22019)" style="fill: #bcbd22"/>
   </g>
   <g id="patch_102">
    <path d="M 477.223694 90.823494 
L 575.93371 90.823494 
L 575.93371 88.188749 
L 477.223694 88.188749 
z
" clip-path="url(#pe3f2b22019)" style="fill: #bcbd22"/>
   </g>
   <g id="patch_103">
    <path d="M 600.611213 142.515721 
L 699.321229 142.515721 
L 699.321229 141.057754 
L 600.611213 141.057754 
z
" clip-path="url(#pe3f2b22019)" style="fill: #bcbd22"/>
   </g>
   <g id="patch_104">
    <path d="M 723.998733 120.325802 
L 822.708748 120.325802 
L 822.708748 118.862128 
L 723.998733 118.862128 
z
" clip-path="url(#pe3f2b22019)" style="fill: #bcbd22"/>
   </g>
   <g id="patch_105">
    <path d="M 847.386252 147.673563 
L 946.096267 147.673563 
L 946.096267 146.42955 
L 847.386252 146.42955 
z
" clip-path="url(#pe3f2b22019)" style="fill: #bcbd22"/>
   </g>
   <g id="patch_106">
    <path d="M 970.773771 135.882301 
L 1069.483787 135.882301 
L 1069.483787 134.588384 
L 970.773771 134.588384 
z
" clip-path="url(#pe3f2b22019)" style="fill: #bcbd22"/>
   </g>
   <g id="patch_107">
    <path d="M 1094.16129 121.901299 
L 1192.871306 121.901299 
L 1192.871306 120.17095 
L 1094.16129 120.17095 
z
" clip-path="url(#pe3f2b22019)" style="fill: #bcbd22"/>
   </g>
   <g id="patch_108">
    <path d="M 1217.54881 107.207679 
L 1316.258825 107.207679 
L 1316.258825 105.398888 
L 1217.54881 105.398888 
z
" clip-path="url(#pe3f2b22019)" style="fill: #bcbd22"/>
   </g>
   <g id="patch_109">
    <path d="M 1340.936329 151.767747 
L 1439.646344 151.767747 
L 1439.646344 150.878082 
L 1340.936329 150.878082 
z
" clip-path="url(#pe3f2b22019)" style="fill: #bcbd22"/>
   </g>
   <g id="patch_110">
    <path d="M 1464.323848 129.842373 
L 1563.033864 129.842373 
L 1563.033864 128.937921 
L 1464.323848 128.937921 
z
" clip-path="url(#pe3f2b22019)" style="fill: #bcbd22"/>
   </g>
   <g id="patch_111">
    <path d="M 107.061136 131.82176 
L 205.771152 131.82176 
L 205.771152 130.336237 
L 107.061136 130.336237 
z
" clip-path="url(#pe3f2b22019)" style="fill: #17becf"/>
   </g>
   <g id="patch_112">
    <path d="M 230.448656 119.266693 
L 329.158671 119.266693 
L 329.158671 117.723607 
L 230.448656 117.723607 
z
" clip-path="url(#pe3f2b22019)" style="fill: #17becf"/>
   </g>
   <g id="patch_113">
    <path d="M 353.836175 102.89911 
L 452.54619 102.89911 
L 452.54619 100.690452 
L 353.836175 100.690452 
z
" clip-path="url(#pe3f2b22019)" style="fill: #17becf"/>
   </g>
   <g id="patch_114">
    <path d="M 477.223694 88.188749 
L 575.93371 88.188749 
L 575.93371 85.980092 
L 477.223694 85.980092 
z
" clip-path="url(#pe3f2b22019)" style="fill: #17becf"/>
   </g>
   <g id="patch_115">
    <path d="M 600.611213 141.057754 
L 699.321229 141.057754 
L 699.321229 139.953483 
L 600.611213 139.953483 
z
" clip-path="url(#pe3f2b22019)" style="fill: #17becf"/>
   </g>
   <g id="patch_116">
    <path d="M 723.998733 118.862128 
L 822.708748 118.862128 
L 822.708748 117.757856 
L 723.998733 117.757856 
z
" clip-path="url(#pe3f2b22019)" style="fill: #17becf"/>
   </g>
   <g id="patch_117">
    <path d="M 847.386252 146.42955 
L 946.096267 146.42955 
L 946.096267 144.944027 
L 847.386252 144.944027 
z
" clip-path="url(#pe3f2b22019)" style="fill: #17becf"/>
   </g>
   <g id="patch_118">
    <path d="M 970.773771 134.588384 
L 1069.483787 134.588384 
L 1069.483787 133.045298 
L 970.773771 133.045298 
z
" clip-path="url(#pe3f2b22019)" style="fill: #17becf"/>
   </g>
   <g id="patch_119">
    <path d="M 1094.16129 120.17095 
L 1192.871306 120.17095 
L 1192.871306 117.962292 
L 1094.16129 117.962292 
z
" clip-path="url(#pe3f2b22019)" style="fill: #17becf"/>
   </g>
   <g id="patch_120">
    <path d="M 1217.54881 105.398888 
L 1316.258825 105.398888 
L 1316.258825 103.19023 
L 1217.54881 103.19023 
z
" clip-path="url(#pe3f2b22019)" style="fill: #17becf"/>
   </g>
   <g id="patch_121">
    <path d="M 1340.936329 150.878082 
L 1439.646344 150.878082 
L 1439.646344 149.77381 
L 1340.936329 149.77381 
z
" clip-path="url(#pe3f2b22019)" style="fill: #17becf"/>
   </g>
   <g id="patch_122">
    <path d="M 1464.323848 128.937921 
L 1563.033864 128.937921 
L 1563.033864 127.83365 
L 1464.323848 127.83365 
z
" clip-path="url(#pe3f2b22019)" style="fill: #17becf"/>
   </g>
   <g id="patch_123">
    <path d="M 107.061136 130.336237 
L 205.771152 130.336237 
L 205.771152 128.766044 
L 107.061136 128.766044 
z
" clip-path="url(#pe3f2b22019)" style="fill: #1f77b4"/>
   </g>
   <g id="patch_124">
    <path d="M 230.448656 117.723607 
L 329.158671 117.723607 
L 329.158671 115.996558 
L 230.448656 115.996558 
z
" clip-path="url(#pe3f2b22019)" style="fill: #1f77b4"/>
   </g>
   <g id="patch_125">
    <path d="M 353.836175 100.690452 
L 452.54619 100.690452 
L 452.54619 98.664678 
L 353.836175 98.664678 
z
" clip-path="url(#pe3f2b22019)" style="fill: #1f77b4"/>
   </g>
   <g id="patch_126">
    <path d="M 477.223694 85.980092 
L 575.93371 85.980092 
L 575.93371 83.770647 
L 477.223694 83.770647 
z
" clip-path="url(#pe3f2b22019)" style="fill: #1f77b4"/>
   </g>
   <g id="patch_127">
    <path d="M 600.611213 139.953483 
L 699.321229 139.953483 
L 699.321229 138.571345 
L 600.611213 138.571345 
z
" clip-path="url(#pe3f2b22019)" style="fill: #1f77b4"/>
   </g>
   <g id="patch_128">
    <path d="M 723.998733 117.757856 
L 822.708748 117.757856 
L 822.708748 116.128324 
L 723.998733 116.128324 
z
" clip-path="url(#pe3f2b22019)" style="fill: #1f77b4"/>
   </g>
   <g id="patch_129">
    <path d="M 847.386252 144.944027 
L 946.096267 144.944027 
L 946.096267 144.010711 
L 847.386252 144.010711 
z
" clip-path="url(#pe3f2b22019)" style="fill: #1f77b4"/>
   </g>
   <g id="patch_130">
    <path d="M 970.773771 133.045298 
L 1069.483787 133.045298 
L 1069.483787 131.996515 
L 970.773771 131.996515 
z
" clip-path="url(#pe3f2b22019)" style="fill: #1f77b4"/>
   </g>
   <g id="patch_131">
    <path d="M 1094.16129 117.962292 
L 1192.871306 117.962292 
L 1192.871306 116.836862 
L 1094.16129 116.836862 
z
" clip-path="url(#pe3f2b22019)" style="fill: #1f77b4"/>
   </g>
   <g id="patch_132">
    <path d="M 1217.54881 103.19023 
L 1316.258825 103.19023 
L 1316.258825 101.927047 
L 1217.54881 101.927047 
z
" clip-path="url(#pe3f2b22019)" style="fill: #1f77b4"/>
   </g>
   <g id="patch_133">
    <path d="M 1340.936329 149.77381 
L 1439.646344 149.77381 
L 1439.646344 148.891862 
L 1340.936329 148.891862 
z
" clip-path="url(#pe3f2b22019)" style="fill: #1f77b4"/>
   </g>
   <g id="patch_134">
    <path d="M 1464.323848 127.83365 
L 1563.033864 127.83365 
L 1563.033864 126.738476 
L 1464.323848 126.738476 
z
" clip-path="url(#pe3f2b22019)" style="fill: #1f77b4"/>
   </g>
   <g id="patch_135">
    <path d="M 107.061136 128.766044 
L 205.771152 128.766044 
L 205.771152 127.4882 
L 107.061136 127.4882 
z
" clip-path="url(#pe3f2b22019)" style="fill: #ff7f0e"/>
   </g>
   <g id="patch_136">
    <path d="M 230.448656 115.996558 
L 329.158671 115.996558 
L 329.158671 114.577443 
L 230.448656 114.577443 
z
" clip-path="url(#pe3f2b22019)" style="fill: #ff7f0e"/>
   </g>
   <g id="patch_137">
    <path d="M 353.836175 98.664678 
L 452.54619 98.664678 
L 452.54619 97.050388 
L 353.836175 97.050388 
z
" clip-path="url(#pe3f2b22019)" style="fill: #ff7f0e"/>
   </g>
   <g id="patch_138">
    <path d="M 477.223694 83.770647 
L 575.93371 83.770647 
L 575.93371 81.979862 
L 477.223694 81.979862 
z
" clip-path="url(#pe3f2b22019)" style="fill: #ff7f0e"/>
   </g>
   <g id="patch_139">
    <path d="M 600.611213 138.571345 
L 699.321229 138.571345 
L 699.321229 137.413547 
L 600.611213 137.413547 
z
" clip-path="url(#pe3f2b22019)" style="fill: #ff7f0e"/>
   </g>
   <g id="patch_140">
    <path d="M 723.998733 116.128324 
L 822.708748 116.128324 
L 822.708748 114.731822 
L 723.998733 114.731822 
z
" clip-path="url(#pe3f2b22019)" style="fill: #ff7f0e"/>
   </g>
   <g id="patch_141">
    <path d="M 847.386252 144.010711 
L 946.096267 144.010711 
L 946.096267 142.842849 
L 847.386252 142.842849 
z
" clip-path="url(#pe3f2b22019)" style="fill: #ff7f0e"/>
   </g>
   <g id="patch_142">
    <path d="M 970.773771 131.996515 
L 1069.483787 131.996515 
L 1069.483787 130.683026 
L 970.773771 130.683026 
z
" clip-path="url(#pe3f2b22019)" style="fill: #ff7f0e"/>
   </g>
   <g id="patch_143">
    <path d="M 1094.16129 116.836862 
L 1192.871306 116.836862 
L 1192.871306 115.317531 
L 1094.16129 115.317531 
z
" clip-path="url(#pe3f2b22019)" style="fill: #ff7f0e"/>
   </g>
   <g id="patch_144">
    <path d="M 1217.54881 101.927047 
L 1316.258825 101.927047 
L 1316.258825 100.226916 
L 1217.54881 100.226916 
z
" clip-path="url(#pe3f2b22019)" style="fill: #ff7f0e"/>
   </g>
   <g id="patch_145">
    <path d="M 1340.936329 148.891862 
L 1439.646344 148.891862 
L 1439.646344 147.786615 
L 1340.936329 147.786615 
z
" clip-path="url(#pe3f2b22019)" style="fill: #ff7f0e"/>
   </g>
   <g id="patch_146">
    <path d="M 1464.323848 126.738476 
L 1563.033864 126.738476 
L 1563.033864 125.366017 
L 1464.323848 125.366017 
z
" clip-path="url(#pe3f2b22019)" style="fill: #ff7f0e"/>
   </g>
   <g id="patch_147">
    <path d="M 107.061136 127.4882 
L 205.771152 127.4882 
L 205.771152 126.439594 
L 107.061136 126.439594 
z
" clip-path="url(#pe3f2b22019)" style="fill: #2ca02c"/>
   </g>
   <g id="patch_148">
    <path d="M 230.448656 114.577443 
L 329.158671 114.577443 
L 329.158671 113.411027 
L 230.448656 113.411027 
z
" clip-path="url(#pe3f2b22019)" style="fill: #2ca02c"/>
   </g>
   <g id="patch_149">
    <path d="M 353.836175 97.050388 
L 452.54619 97.050388 
L 452.54619 95.720974 
L 353.836175 95.720974 
z
" clip-path="url(#pe3f2b22019)" style="fill: #2ca02c"/>
   </g>
   <g id="patch_150">
    <path d="M 477.223694 81.979862 
L 575.93371 81.979862 
L 575.93371 80.503128 
L 477.223694 80.503128 
z
" clip-path="url(#pe3f2b22019)" style="fill: #2ca02c"/>
   </g>
   <g id="patch_151">
    <path d="M 600.611213 137.413547 
L 699.321229 137.413547 
L 699.321229 136.463036 
L 600.611213 136.463036 
z
" clip-path="url(#pe3f2b22019)" style="fill: #2ca02c"/>
   </g>
   <g id="patch_152">
    <path d="M 723.998733 114.731822 
L 822.708748 114.731822 
L 822.708748 113.574968 
L 723.998733 113.574968 
z
" clip-path="url(#pe3f2b22019)" style="fill: #2ca02c"/>
   </g>
   <g id="patch_153">
    <path d="M 847.386252 142.842849 
L 946.096267 142.842849 
L 946.096267 141.879997 
L 847.386252 141.879997 
z
" clip-path="url(#pe3f2b22019)" style="fill: #2ca02c"/>
   </g>
   <g id="patch_154">
    <path d="M 970.773771 130.683026 
L 1069.483787 130.683026 
L 1069.483787 129.600067 
L 970.773771 129.600067 
z
" clip-path="url(#pe3f2b22019)" style="fill: #2ca02c"/>
   </g>
   <g id="patch_155">
    <path d="M 1094.16129 115.317531 
L 1192.871306 115.317531 
L 1192.871306 114.086591 
L 1094.16129 114.086591 
z
" clip-path="url(#pe3f2b22019)" style="fill: #2ca02c"/>
   </g>
   <g id="patch_156">
    <path d="M 1217.54881 100.226916 
L 1316.258825 100.226916 
L 1316.258825 98.841961 
L 1217.54881 98.841961 
z
" clip-path="url(#pe3f2b22019)" style="fill: #2ca02c"/>
   </g>
   <g id="patch_157">
    <path d="M 1340.936329 147.786615 
L 1439.646344 147.786615 
L 1439.646344 146.879189 
L 1340.936329 146.879189 
z
" clip-path="url(#pe3f2b22019)" style="fill: #2ca02c"/>
   </g>
   <g id="patch_158">
    <path d="M 1464.323848 125.366017 
L 1563.033864 125.366017 
L 1563.033864 124.239207 
L 1464.323848 124.239207 
z
" clip-path="url(#pe3f2b22019)" style="fill: #2ca02c"/>
   </g>
   <g id="patch_159">
    <path d="M 107.061136 126.439594 
L 205.771152 126.439594 
L 205.771152 125.288461 
L 107.061136 125.288461 
z
" clip-path="url(#pe3f2b22019)" style="fill: #d62728"/>
   </g>
   <g id="patch_160">
    <path d="M 230.448656 113.411027 
L 329.158671 113.411027 
L 329.158671 112.13574 
L 230.448656 112.13574 
z
" clip-path="url(#pe3f2b22019)" style="fill: #d62728"/>
   </g>
   <g id="patch_161">
    <path d="M 353.836175 95.720974 
L 452.54619 95.720974 
L 452.54619 94.257914 
L 353.836175 94.257914 
z
" clip-path="url(#pe3f2b22019)" style="fill: #d62728"/>
   </g>
   <g id="patch_162">
    <path d="M 477.223694 80.503128 
L 575.93371 80.503128 
L 575.93371 78.890837 
L 477.223694 78.890837 
z
" clip-path="url(#pe3f2b22019)" style="fill: #d62728"/>
   </g>
   <g id="patch_163">
    <path d="M 600.611213 136.463036 
L 699.321229 136.463036 
L 699.321229 135.430346 
L 600.611213 135.430346 
z
" clip-path="url(#pe3f2b22019)" style="fill: #d62728"/>
   </g>
   <g id="patch_164">
    <path d="M 723.998733 113.574968 
L 822.708748 113.574968 
L 822.708748 112.325353 
L 723.998733 112.325353 
z
" clip-path="url(#pe3f2b22019)" style="fill: #d62728"/>
   </g>
   <g id="patch_165">
    <path d="M 847.386252 141.879997 
L 946.096267 141.879997 
L 946.096267 141.013224 
L 847.386252 141.013224 
z
" clip-path="url(#pe3f2b22019)" style="fill: #d62728"/>
   </g>
   <g id="patch_166">
    <path d="M 970.773771 129.600067 
L 1069.483787 129.600067 
L 1069.483787 128.625868 
L 970.773771 128.625868 
z
" clip-path="url(#pe3f2b22019)" style="fill: #d62728"/>
   </g>
   <g id="patch_167">
    <path d="M 1094.16129 114.086591 
L 1192.871306 114.086591 
L 1192.871306 112.989297 
L 1094.16129 112.989297 
z
" clip-path="url(#pe3f2b22019)" style="fill: #d62728"/>
   </g>
   <g id="patch_168">
    <path d="M 1217.54881 98.841961 
L 1316.258825 98.841961 
L 1316.258825 97.620306 
L 1217.54881 97.620306 
z
" clip-path="url(#pe3f2b22019)" style="fill: #d62728"/>
   </g>
   <g id="patch_169">
    <path d="M 1340.936329 146.879189 
L 1439.646344 146.879189 
L 1439.646344 146.052777 
L 1340.936329 146.052777 
z
" clip-path="url(#pe3f2b22019)" style="fill: #d62728"/>
   </g>
   <g id="patch_170">
    <path d="M 1464.323848 124.239207 
L 1563.033864 124.239207 
L 1563.033864 123.212995 
L 1464.323848 123.212995 
z
" clip-path="url(#pe3f2b22019)" style="fill: #d62728"/>
   </g>
   <g id="patch_171">
    <path d="M 107.061136 125.288461 
L 205.771152 125.288461 
L 205.771152 124.25476 
L 107.061136 124.25476 
z
" clip-path="url(#pe3f2b22019)" style="fill: #9467bd"/>
   </g>
   <g id="patch_172">
    <path d="M 230.448656 112.13574 
L 329.158671 112.13574 
L 329.158671 111.060842 
L 230.448656 111.060842 
z
" clip-path="url(#pe3f2b22019)" style="fill: #9467bd"/>
   </g>
   <g id="patch_173">
    <path d="M 353.836175 94.257914 
L 452.54619 94.257914 
L 452.54619 92.654176 
L 353.836175 92.654176 
z
" clip-path="url(#pe3f2b22019)" style="fill: #9467bd"/>
   </g>
   <g id="patch_174">
    <path d="M 477.223694 78.890837 
L 575.93371 78.890837 
L 575.93371 77.287098 
L 477.223694 77.287098 
z
" clip-path="url(#pe3f2b22019)" style="fill: #9467bd"/>
   </g>
   <g id="patch_175">
    <path d="M 600.611213 135.430346 
L 699.321229 135.430346 
L 699.321229 134.742208 
L 600.611213 134.742208 
z
" clip-path="url(#pe3f2b22019)" style="fill: #9467bd"/>
   </g>
   <g id="patch_176">
    <path d="M 723.998733 112.325353 
L 822.708748 112.325353 
L 822.708748 111.625777 
L 723.998733 111.625777 
z
" clip-path="url(#pe3f2b22019)" style="fill: #9467bd"/>
   </g>
   <g id="patch_177">
    <path d="M 847.386252 141.013224 
L 946.096267 141.013224 
L 946.096267 139.966773 
L 847.386252 139.966773 
z
" clip-path="url(#pe3f2b22019)" style="fill: #9467bd"/>
   </g>
   <g id="patch_178">
    <path d="M 970.773771 128.625868 
L 1069.483787 128.625868 
L 1069.483787 127.53768 
L 970.773771 127.53768 
z
" clip-path="url(#pe3f2b22019)" style="fill: #9467bd"/>
   </g>
   <g id="patch_179">
    <path d="M 1094.16129 112.989297 
L 1192.871306 112.989297 
L 1192.871306 111.385558 
L 1094.16129 111.385558 
z
" clip-path="url(#pe3f2b22019)" style="fill: #9467bd"/>
   </g>
   <g id="patch_180">
    <path d="M 1217.54881 97.620306 
L 1316.258825 97.620306 
L 1316.258825 96.016568 
L 1217.54881 96.016568 
z
" clip-path="url(#pe3f2b22019)" style="fill: #9467bd"/>
   </g>
   <g id="patch_181">
    <path d="M 1340.936329 146.052777 
L 1439.646344 146.052777 
L 1439.646344 145.350056 
L 1340.936329 145.350056 
z
" clip-path="url(#pe3f2b22019)" style="fill: #9467bd"/>
   </g>
   <g id="patch_182">
    <path d="M 1464.323848 123.212995 
L 1563.033864 123.212995 
L 1563.033864 122.498595 
L 1464.323848 122.498595 
z
" clip-path="url(#pe3f2b22019)" style="fill: #9467bd"/>
   </g>
   <g id="patch_183">
    <path d="M 107.061136 124.25476 
L 205.771152 124.25476 
L 205.771152 102.12108 
L 107.061136 102.12108 
z
" clip-path="url(#pe3f2b22019)" style="fill: #8c564b"/>
   </g>
   <g id="patch_184">
    <path d="M 230.448656 111.060842 
L 329.158671 111.060842 
L 329.158671 86.931761 
L 230.448656 86.931761 
z
" clip-path="url(#pe3f2b22019)" style="fill: #8c564b"/>
   </g>
   <g id="patch_185">
    <path d="M 353.836175 92.654176 
L 452.54619 92.654176 
L 452.54619 63.709512 
L 353.836175 63.709512 
z
" clip-path="url(#pe3f2b22019)" style="fill: #8c564b"/>
   </g>
   <g id="patch_186">
    <path d="M 477.223694 77.287098 
L 575.93371 77.287098 
L 575.93371 46.136 
L 477.223694 46.136 
z
" clip-path="url(#pe3f2b22019)" style="fill: #8c564b"/>
   </g>
   <g id="patch_187">
    <path d="M 600.611213 134.742208 
L 699.321229 134.742208 
L 699.321229 115.827272 
L 600.611213 115.827272 
z
" clip-path="url(#pe3f2b22019)" style="fill: #8c564b"/>
   </g>
   <g id="patch_188">
    <path d="M 723.998733 111.625777 
L 822.708748 111.625777 
L 822.708748 90.194338 
L 723.998733 90.194338 
z
" clip-path="url(#pe3f2b22019)" style="fill: #8c564b"/>
   </g>
   <g id="patch_189">
    <path d="M 847.386252 139.966773 
L 946.096267 139.966773 
L 946.096267 122.775462 
L 847.386252 122.775462 
z
" clip-path="url(#pe3f2b22019)" style="fill: #8c564b"/>
   </g>
   <g id="patch_190">
    <path d="M 970.773771 127.53768 
L 1069.483787 127.53768 
L 1069.483787 108.564771 
L 970.773771 108.564771 
z
" clip-path="url(#pe3f2b22019)" style="fill: #8c564b"/>
   </g>
   <g id="patch_191">
    <path d="M 1094.16129 111.385558 
L 1192.871306 111.385558 
L 1192.871306 89.467801 
L 1094.16129 89.467801 
z
" clip-path="url(#pe3f2b22019)" style="fill: #8c564b"/>
   </g>
   <g id="patch_192">
    <path d="M 1217.54881 96.016568 
L 1316.258825 96.016568 
L 1316.258825 71.965557 
L 1217.54881 71.965557 
z
" clip-path="url(#pe3f2b22019)" style="fill: #8c564b"/>
   </g>
   <g id="patch_193">
    <path d="M 1340.936329 145.350056 
L 1439.646344 145.350056 
L 1439.646344 130.161917 
L 1340.936329 130.161917 
z
" clip-path="url(#pe3f2b22019)" style="fill: #8c564b"/>
   </g>
   <g id="patch_194">
    <path d="M 1464.323848 122.498595 
L 1563.033864 122.498595 
L 1563.033864 104.663871 
L 1464.323848 104.663871 
z
" clip-path="url(#pe3f2b22019)" style="fill: #8c564b"/>
   </g>
   <g id="matplotlib.axis_1">
    <g id="xtick_1">
     <g id="line2d_1">
      <defs>
       <path id="m8841c89312" d="M 0 0 
L 0 3.5 
" style="stroke: #000000; stroke-width: 0.8"/>
      </defs>
      <g>
       <use xlink:href="#m8841c89312" x="156.416144" y="242.456" style="stroke: #000000; stroke-width: 0.8"/>
      </g>
     </g>
     <g id="text_1">
      <!-- flight -->
      <g transform="translate(143.574738 257.054437) scale(0.1 -0.1)">
       <defs>
        <path id="DejaVuSans-66" d="M 2375 4863 
L 2375 4384 
L 1825 4384 
Q 1516 4384 1395 4259 
Q 1275 4134 1275 3809 
L 1275 3500 
L 2222 3500 
L 2222 3053 
L 1275 3053 
L 1275 0 
L 697 0 
L 697 3053 
L 147 3053 
L 147 3500 
L 697 3500 
L 697 3744 
Q 697 4328 969 4595 
Q 1241 4863 1831 4863 
L 2375 4863 
z
" transform="scale(0.015625)"/>
        <path id="DejaVuSans-6c" d="M 603 4863 
L 1178 4863 
L 1178 0 
L 603 0 
L 603 4863 
z
" transform="scale(0.015625)"/>
        <path id="DejaVuSans-69" d="M 603 3500 
L 1178 3500 
L 1178 0 
L 603 0 
L 603 3500 
z
M 603 4863 
L 1178 4863 
L 1178 4134 
L 603 4134 
L 603 4863 
z
" transform="scale(0.015625)"/>
        <path id="DejaVuSans-67" d="M 2906 1791 
Q 2906 2416 2648 2759 
Q 2391 3103 1925 3103 
Q 1463 3103 1205 2759 
Q 947 2416 947 1791 
Q 947 1169 1205 825 
Q 1463 481 1925 481 
Q 2391 481 2648 825 
Q 2906 1169 2906 1791 
z
M 3481 434 
Q 3481 -459 3084 -895 
Q 2688 -1331 1869 -1331 
Q 1566 -1331 1297 -1286 
Q 1028 -1241 775 -1147 
L 775 -588 
Q 1028 -725 1275 -790 
Q 1522 -856 1778 -856 
Q 2344 -856 2625 -561 
Q 2906 -266 2906 331 
L 2906 616 
Q 2728 306 2450 153 
Q 2172 0 1784 0 
Q 1141 0 747 490 
Q 353 981 353 1791 
Q 353 2603 747 3093 
Q 1141 3584 1784 3584 
Q 2172 3584 2450 3431 
Q 2728 3278 2906 2969 
L 2906 3500 
L 3481 3500 
L 3481 434 
z
" transform="scale(0.015625)"/>
        <path id="DejaVuSans-68" d="M 3513 2113 
L 3513 0 
L 2938 0 
L 2938 2094 
Q 2938 2591 2744 2837 
Q 2550 3084 2163 3084 
Q 1697 3084 1428 2787 
Q 1159 2491 1159 1978 
L 1159 0 
L 581 0 
L 581 4863 
L 1159 4863 
L 1159 2956 
Q 1366 3272 1645 3428 
Q 1925 3584 2291 3584 
Q 2894 3584 3203 3211 
Q 3513 2838 3513 2113 
z
" transform="scale(0.015625)"/>
        <path id="DejaVuSans-74" d="M 1172 4494 
L 1172 3500 
L 2356 3500 
L 2356 3053 
L 1172 3053 
L 1172 1153 
Q 1172 725 1289 603 
Q 1406 481 1766 481 
L 2356 481 
L 2356 0 
L 1766 0 
Q 1100 0 847 248 
Q 594 497 594 1153 
L 594 3053 
L 172 3053 
L 172 3500 
L 594 3500 
L 594 4494 
L 1172 4494 
z
" transform="scale(0.015625)"/>
       </defs>
       <use xlink:href="#DejaVuSans-66"/>
       <use xlink:href="#DejaVuSans-6c" x="35.205078"/>
       <use xlink:href="#DejaVuSans-69" x="62.988281"/>
       <use xlink:href="#DejaVuSans-67" x="90.771484"/>
       <use xlink:href="#DejaVuSans-68" x="154.248047"/>
       <use xlink:href="#DejaVuSans-74" x="217.626953"/>
      </g>
      <!-- myclimate-ECO. -->
      <g transform="translate(116.308332 268.25225) scale(0.1 -0.1)">
       <defs>
        <path id="DejaVuSans-6d" d="M 3328 2828 
Q 3544 3216 3844 3400 
Q 4144 3584 4550 3584 
Q 5097 3584 5394 3201 
Q 5691 2819 5691 2113 
L 5691 0 
L 5113 0 
L 5113 2094 
Q 5113 2597 4934 2840 
Q 4756 3084 4391 3084 
Q 3944 3084 3684 2787 
Q 3425 2491 3425 1978 
L 3425 0 
L 2847 0 
L 2847 2094 
Q 2847 2600 2669 2842 
Q 2491 3084 2119 3084 
Q 1678 3084 1418 2786 
Q 1159 2488 1159 1978 
L 1159 0 
L 581 0 
L 581 3500 
L 1159 3500 
L 1159 2956 
Q 1356 3278 1631 3431 
Q 1906 3584 2284 3584 
Q 2666 3584 2933 3390 
Q 3200 3197 3328 2828 
z
" transform="scale(0.015625)"/>
        <path id="DejaVuSans-79" d="M 2059 -325 
Q 1816 -950 1584 -1140 
Q 1353 -1331 966 -1331 
L 506 -1331 
L 506 -850 
L 844 -850 
Q 1081 -850 1212 -737 
Q 1344 -625 1503 -206 
L 1606 56 
L 191 3500 
L 800 3500 
L 1894 763 
L 2988 3500 
L 3597 3500 
L 2059 -325 
z
" transform="scale(0.015625)"/>
        <path id="DejaVuSans-63" d="M 3122 3366 
L 3122 2828 
Q 2878 2963 2633 3030 
Q 2388 3097 2138 3097 
Q 1578 3097 1268 2742 
Q 959 2388 959 1747 
Q 959 1106 1268 751 
Q 1578 397 2138 397 
Q 2388 397 2633 464 
Q 2878 531 3122 666 
L 3122 134 
Q 2881 22 2623 -34 
Q 2366 -91 2075 -91 
Q 1284 -91 818 406 
Q 353 903 353 1747 
Q 353 2603 823 3093 
Q 1294 3584 2113 3584 
Q 2378 3584 2631 3529 
Q 2884 3475 3122 3366 
z
" transform="scale(0.015625)"/>
        <path id="DejaVuSans-61" d="M 2194 1759 
Q 1497 1759 1228 1600 
Q 959 1441 959 1056 
Q 959 750 1161 570 
Q 1363 391 1709 391 
Q 2188 391 2477 730 
Q 2766 1069 2766 1631 
L 2766 1759 
L 2194 1759 
z
M 3341 1997 
L 3341 0 
L 2766 0 
L 2766 531 
Q 2569 213 2275 61 
Q 1981 -91 1556 -91 
Q 1019 -91 701 211 
Q 384 513 384 1019 
Q 384 1609 779 1909 
Q 1175 2209 1959 2209 
L 2766 2209 
L 2766 2266 
Q 2766 2663 2505 2880 
Q 2244 3097 1772 3097 
Q 1472 3097 1187 3025 
Q 903 2953 641 2809 
L 641 3341 
Q 956 3463 1253 3523 
Q 1550 3584 1831 3584 
Q 2591 3584 2966 3190 
Q 3341 2797 3341 1997 
z
" transform="scale(0.015625)"/>
        <path id="DejaVuSans-65" d="M 3597 1894 
L 3597 1613 
L 953 1613 
Q 991 1019 1311 708 
Q 1631 397 2203 397 
Q 2534 397 2845 478 
Q 3156 559 3463 722 
L 3463 178 
Q 3153 47 2828 -22 
Q 2503 -91 2169 -91 
Q 1331 -91 842 396 
Q 353 884 353 1716 
Q 353 2575 817 3079 
Q 1281 3584 2069 3584 
Q 2775 3584 3186 3129 
Q 3597 2675 3597 1894 
z
M 3022 2063 
Q 3016 2534 2758 2815 
Q 2500 3097 2075 3097 
Q 1594 3097 1305 2825 
Q 1016 2553 972 2059 
L 3022 2063 
z
" transform="scale(0.015625)"/>
        <path id="DejaVuSans-2d" d="M 313 2009 
L 1997 2009 
L 1997 1497 
L 313 1497 
L 313 2009 
z
" transform="scale(0.015625)"/>
        <path id="DejaVuSans-45" d="M 628 4666 
L 3578 4666 
L 3578 4134 
L 1259 4134 
L 1259 2753 
L 3481 2753 
L 3481 2222 
L 1259 2222 
L 1259 531 
L 3634 531 
L 3634 0 
L 628 0 
L 628 4666 
z
" transform="scale(0.015625)"/>
        <path id="DejaVuSans-43" d="M 4122 4306 
L 4122 3641 
Q 3803 3938 3442 4084 
Q 3081 4231 2675 4231 
Q 1875 4231 1450 3742 
Q 1025 3253 1025 2328 
Q 1025 1406 1450 917 
Q 1875 428 2675 428 
Q 3081 428 3442 575 
Q 3803 722 4122 1019 
L 4122 359 
Q 3791 134 3420 21 
Q 3050 -91 2638 -91 
Q 1578 -91 968 557 
Q 359 1206 359 2328 
Q 359 3453 968 4101 
Q 1578 4750 2638 4750 
Q 3056 4750 3426 4639 
Q 3797 4528 4122 4306 
z
" transform="scale(0.015625)"/>
        <path id="DejaVuSans-4f" d="M 2522 4238 
Q 1834 4238 1429 3725 
Q 1025 3213 1025 2328 
Q 1025 1447 1429 934 
Q 1834 422 2522 422 
Q 3209 422 3611 934 
Q 4013 1447 4013 2328 
Q 4013 3213 3611 3725 
Q 3209 4238 2522 4238 
z
M 2522 4750 
Q 3503 4750 4090 4092 
Q 4678 3434 4678 2328 
Q 4678 1225 4090 567 
Q 3503 -91 2522 -91 
Q 1538 -91 948 565 
Q 359 1222 359 2328 
Q 359 3434 948 4092 
Q 1538 4750 2522 4750 
z
" transform="scale(0.015625)"/>
        <path id="DejaVuSans-2e" d="M 684 794 
L 1344 794 
L 1344 0 
L 684 0 
L 684 794 
z
" transform="scale(0.015625)"/>
       </defs>
       <use xlink:href="#DejaVuSans-6d"/>
       <use xlink:href="#DejaVuSans-79" x="97.412109"/>
       <use xlink:href="#DejaVuSans-63" x="156.591797"/>
       <use xlink:href="#DejaVuSans-6c" x="211.572266"/>
       <use xlink:href="#DejaVuSans-69" x="239.355469"/>
       <use xlink:href="#DejaVuSans-6d" x="267.138672"/>
       <use xlink:href="#DejaVuSans-61" x="364.550781"/>
       <use xlink:href="#DejaVuSans-74" x="425.830078"/>
       <use xlink:href="#DejaVuSans-65" x="465.039062"/>
       <use xlink:href="#DejaVuSans-2d" x="526.5625"/>
       <use xlink:href="#DejaVuSans-45" x="562.646484"/>
       <use xlink:href="#DejaVuSans-43" x="625.830078"/>
       <use xlink:href="#DejaVuSans-4f" x="695.654297"/>
       <use xlink:href="#DejaVuSans-2e" x="770.365234"/>
      </g>
     </g>
    </g>
    <g id="xtick_2">
     <g id="line2d_2">
      <g>
       <use xlink:href="#m8841c89312" x="279.803663" y="242.456" style="stroke: #000000; stroke-width: 0.8"/>
      </g>
     </g>
     <g id="text_2">
      <!-- flight -->
      <g transform="translate(266.962257 257.054437) scale(0.1 -0.1)">
       <use xlink:href="#DejaVuSans-66"/>
       <use xlink:href="#DejaVuSans-6c" x="35.205078"/>
       <use xlink:href="#DejaVuSans-69" x="62.988281"/>
       <use xlink:href="#DejaVuSans-67" x="90.771484"/>
       <use xlink:href="#DejaVuSans-68" x="154.248047"/>
       <use xlink:href="#DejaVuSans-74" x="217.626953"/>
      </g>
      <!-- myclimate-AVE. -->
      <g transform="translate(240.51382 268.25225) scale(0.1 -0.1)">
       <defs>
        <path id="DejaVuSans-41" d="M 2188 4044 
L 1331 1722 
L 3047 1722 
L 2188 4044 
z
M 1831 4666 
L 2547 4666 
L 4325 0 
L 3669 0 
L 3244 1197 
L 1141 1197 
L 716 0 
L 50 0 
L 1831 4666 
z
" transform="scale(0.015625)"/>
        <path id="DejaVuSans-56" d="M 1831 0 
L 50 4666 
L 709 4666 
L 2188 738 
L 3669 4666 
L 4325 4666 
L 2547 0 
L 1831 0 
z
" transform="scale(0.015625)"/>
       </defs>
       <use xlink:href="#DejaVuSans-6d"/>
       <use xlink:href="#DejaVuSans-79" x="97.412109"/>
       <use xlink:href="#DejaVuSans-63" x="156.591797"/>
       <use xlink:href="#DejaVuSans-6c" x="211.572266"/>
       <use xlink:href="#DejaVuSans-69" x="239.355469"/>
       <use xlink:href="#DejaVuSans-6d" x="267.138672"/>
       <use xlink:href="#DejaVuSans-61" x="364.550781"/>
       <use xlink:href="#DejaVuSans-74" x="425.830078"/>
       <use xlink:href="#DejaVuSans-65" x="465.039062"/>
       <use xlink:href="#DejaVuSans-2d" x="526.5625"/>
       <use xlink:href="#DejaVuSans-41" x="560.396484"/>
       <use xlink:href="#DejaVuSans-56" x="622.429688"/>
       <use xlink:href="#DejaVuSans-45" x="690.837891"/>
       <use xlink:href="#DejaVuSans-2e" x="754.021484"/>
      </g>
     </g>
    </g>
    <g id="xtick_3">
     <g id="line2d_3">
      <g>
       <use xlink:href="#m8841c89312" x="403.191183" y="242.456" style="stroke: #000000; stroke-width: 0.8"/>
      </g>
     </g>
     <g id="text_3">
      <!-- flight -->
      <g transform="translate(390.349776 257.054437) scale(0.1 -0.1)">
       <use xlink:href="#DejaVuSans-66"/>
       <use xlink:href="#DejaVuSans-6c" x="35.205078"/>
       <use xlink:href="#DejaVuSans-69" x="62.988281"/>
       <use xlink:href="#DejaVuSans-67" x="90.771484"/>
       <use xlink:href="#DejaVuSans-68" x="154.248047"/>
       <use xlink:href="#DejaVuSans-74" x="217.626953"/>
      </g>
      <!-- goclimate-ECO. -->
      <g transform="translate(364.679464 268.25225) scale(0.1 -0.1)">
       <defs>
        <path id="DejaVuSans-6f" d="M 1959 3097 
Q 1497 3097 1228 2736 
Q 959 2375 959 1747 
Q 959 1119 1226 758 
Q 1494 397 1959 397 
Q 2419 397 2687 759 
Q 2956 1122 2956 1747 
Q 2956 2369 2687 2733 
Q 2419 3097 1959 3097 
z
M 1959 3584 
Q 2709 3584 3137 3096 
Q 3566 2609 3566 1747 
Q 3566 888 3137 398 
Q 2709 -91 1959 -91 
Q 1206 -91 779 398 
Q 353 888 353 1747 
Q 353 2609 779 3096 
Q 1206 3584 1959 3584 
z
" transform="scale(0.015625)"/>
       </defs>
       <use xlink:href="#DejaVuSans-67"/>
       <use xlink:href="#DejaVuSans-6f" x="63.476562"/>
       <use xlink:href="#DejaVuSans-63" x="124.658203"/>
       <use xlink:href="#DejaVuSans-6c" x="179.638672"/>
       <use xlink:href="#DejaVuSans-69" x="207.421875"/>
       <use xlink:href="#DejaVuSans-6d" x="235.205078"/>
       <use xlink:href="#DejaVuSans-61" x="332.617188"/>
       <use xlink:href="#DejaVuSans-74" x="393.896484"/>
       <use xlink:href="#DejaVuSans-65" x="433.105469"/>
       <use xlink:href="#DejaVuSans-2d" x="494.628906"/>
       <use xlink:href="#DejaVuSans-45" x="530.712891"/>
       <use xlink:href="#DejaVuSans-43" x="593.896484"/>
       <use xlink:href="#DejaVuSans-4f" x="663.720703"/>
       <use xlink:href="#DejaVuSans-2e" x="738.431641"/>
      </g>
     </g>
    </g>
    <g id="xtick_4">
     <g id="line2d_4">
      <g>
       <use xlink:href="#m8841c89312" x="526.578702" y="242.456" style="stroke: #000000; stroke-width: 0.8"/>
      </g>
     </g>
     <g id="text_4">
      <!-- flight -->
      <g transform="translate(513.737296 257.054437) scale(0.1 -0.1)">
       <use xlink:href="#DejaVuSans-66"/>
       <use xlink:href="#DejaVuSans-6c" x="35.205078"/>
       <use xlink:href="#DejaVuSans-69" x="62.988281"/>
       <use xlink:href="#DejaVuSans-67" x="90.771484"/>
       <use xlink:href="#DejaVuSans-68" x="154.248047"/>
       <use xlink:href="#DejaVuSans-74" x="217.626953"/>
      </g>
      <!-- goclimate-AVE. -->
      <g transform="translate(488.884952 268.25225) scale(0.1 -0.1)">
       <use xlink:href="#DejaVuSans-67"/>
       <use xlink:href="#DejaVuSans-6f" x="63.476562"/>
       <use xlink:href="#DejaVuSans-63" x="124.658203"/>
       <use xlink:href="#DejaVuSans-6c" x="179.638672"/>
       <use xlink:href="#DejaVuSans-69" x="207.421875"/>
       <use xlink:href="#DejaVuSans-6d" x="235.205078"/>
       <use xlink:href="#DejaVuSans-61" x="332.617188"/>
       <use xlink:href="#DejaVuSans-74" x="393.896484"/>
       <use xlink:href="#DejaVuSans-65" x="433.105469"/>
       <use xlink:href="#DejaVuSans-2d" x="494.628906"/>
       <use xlink:href="#DejaVuSans-41" x="528.462891"/>
       <use xlink:href="#DejaVuSans-56" x="590.496094"/>
       <use xlink:href="#DejaVuSans-45" x="658.904297"/>
       <use xlink:href="#DejaVuSans-2e" x="722.087891"/>
      </g>
     </g>
    </g>
    <g id="xtick_5">
     <g id="line2d_5">
      <g>
       <use xlink:href="#m8841c89312" x="649.966221" y="242.456" style="stroke: #000000; stroke-width: 0.8"/>
      </g>
     </g>
     <g id="text_5">
      <!-- flight -->
      <g transform="translate(637.124815 257.054437) scale(0.1 -0.1)">
       <use xlink:href="#DejaVuSans-66"/>
       <use xlink:href="#DejaVuSans-6c" x="35.205078"/>
       <use xlink:href="#DejaVuSans-69" x="62.988281"/>
       <use xlink:href="#DejaVuSans-67" x="90.771484"/>
       <use xlink:href="#DejaVuSans-68" x="154.248047"/>
       <use xlink:href="#DejaVuSans-74" x="217.626953"/>
      </g>
      <!-- ukgov-ECO. -->
      <g transform="translate(621.060752 268.25225) scale(0.1 -0.1)">
       <defs>
        <path id="DejaVuSans-75" d="M 544 1381 
L 544 3500 
L 1119 3500 
L 1119 1403 
Q 1119 906 1312 657 
Q 1506 409 1894 409 
Q 2359 409 2629 706 
Q 2900 1003 2900 1516 
L 2900 3500 
L 3475 3500 
L 3475 0 
L 2900 0 
L 2900 538 
Q 2691 219 2414 64 
Q 2138 -91 1772 -91 
Q 1169 -91 856 284 
Q 544 659 544 1381 
z
M 1991 3584 
L 1991 3584 
z
" transform="scale(0.015625)"/>
        <path id="DejaVuSans-6b" d="M 581 4863 
L 1159 4863 
L 1159 1991 
L 2875 3500 
L 3609 3500 
L 1753 1863 
L 3688 0 
L 2938 0 
L 1159 1709 
L 1159 0 
L 581 0 
L 581 4863 
z
" transform="scale(0.015625)"/>
        <path id="DejaVuSans-76" d="M 191 3500 
L 800 3500 
L 1894 563 
L 2988 3500 
L 3597 3500 
L 2284 0 
L 1503 0 
L 191 3500 
z
" transform="scale(0.015625)"/>
       </defs>
       <use xlink:href="#DejaVuSans-75"/>
       <use xlink:href="#DejaVuSans-6b" x="63.378906"/>
       <use xlink:href="#DejaVuSans-67" x="121.289062"/>
       <use xlink:href="#DejaVuSans-6f" x="184.765625"/>
       <use xlink:href="#DejaVuSans-76" x="245.947266"/>
       <use xlink:href="#DejaVuSans-2d" x="302.501953"/>
       <use xlink:href="#DejaVuSans-45" x="338.585938"/>
       <use xlink:href="#DejaVuSans-43" x="401.769531"/>
       <use xlink:href="#DejaVuSans-4f" x="471.59375"/>
       <use xlink:href="#DejaVuSans-2e" x="546.304688"/>
      </g>
     </g>
    </g>
    <g id="xtick_6">
     <g id="line2d_6">
      <g>
       <use xlink:href="#m8841c89312" x="773.35374" y="242.456" style="stroke: #000000; stroke-width: 0.8"/>
      </g>
     </g>
     <g id="text_6">
      <!-- flight -->
      <g transform="translate(760.512334 257.054437) scale(0.1 -0.1)">
       <use xlink:href="#DejaVuSans-66"/>
       <use xlink:href="#DejaVuSans-6c" x="35.205078"/>
       <use xlink:href="#DejaVuSans-69" x="62.988281"/>
       <use xlink:href="#DejaVuSans-67" x="90.771484"/>
       <use xlink:href="#DejaVuSans-68" x="154.248047"/>
       <use xlink:href="#DejaVuSans-74" x="217.626953"/>
      </g>
      <!-- ukgov-AVE. -->
      <g transform="translate(745.26624 268.25225) scale(0.1 -0.1)">
       <use xlink:href="#DejaVuSans-75"/>
       <use xlink:href="#DejaVuSans-6b" x="63.378906"/>
       <use xlink:href="#DejaVuSans-67" x="121.289062"/>
       <use xlink:href="#DejaVuSans-6f" x="184.765625"/>
       <use xlink:href="#DejaVuSans-76" x="245.947266"/>
       <use xlink:href="#DejaVuSans-2d" x="302.501953"/>
       <use xlink:href="#DejaVuSans-41" x="336.335938"/>
       <use xlink:href="#DejaVuSans-56" x="398.369141"/>
       <use xlink:href="#DejaVuSans-45" x="466.777344"/>
       <use xlink:href="#DejaVuSans-2e" x="529.960938"/>
      </g>
     </g>
    </g>
    <g id="xtick_7">
     <g id="line2d_7">
      <g>
       <use xlink:href="#m8841c89312" x="896.74126" y="242.456" style="stroke: #000000; stroke-width: 0.8"/>
      </g>
     </g>
     <g id="text_7">
      <!-- distance -->
      <g transform="translate(875.554541 257.054437) scale(0.1 -0.1)">
       <defs>
        <path id="DejaVuSans-64" d="M 2906 2969 
L 2906 4863 
L 3481 4863 
L 3481 0 
L 2906 0 
L 2906 525 
Q 2725 213 2448 61 
Q 2172 -91 1784 -91 
Q 1150 -91 751 415 
Q 353 922 353 1747 
Q 353 2572 751 3078 
Q 1150 3584 1784 3584 
Q 2172 3584 2448 3432 
Q 2725 3281 2906 2969 
z
M 947 1747 
Q 947 1113 1208 752 
Q 1469 391 1925 391 
Q 2381 391 2643 752 
Q 2906 1113 2906 1747 
Q 2906 2381 2643 2742 
Q 2381 3103 1925 3103 
Q 1469 3103 1208 2742 
Q 947 2381 947 1747 
z
" transform="scale(0.015625)"/>
        <path id="DejaVuSans-73" d="M 2834 3397 
L 2834 2853 
Q 2591 2978 2328 3040 
Q 2066 3103 1784 3103 
Q 1356 3103 1142 2972 
Q 928 2841 928 2578 
Q 928 2378 1081 2264 
Q 1234 2150 1697 2047 
L 1894 2003 
Q 2506 1872 2764 1633 
Q 3022 1394 3022 966 
Q 3022 478 2636 193 
Q 2250 -91 1575 -91 
Q 1294 -91 989 -36 
Q 684 19 347 128 
L 347 722 
Q 666 556 975 473 
Q 1284 391 1588 391 
Q 1994 391 2212 530 
Q 2431 669 2431 922 
Q 2431 1156 2273 1281 
Q 2116 1406 1581 1522 
L 1381 1569 
Q 847 1681 609 1914 
Q 372 2147 372 2553 
Q 372 3047 722 3315 
Q 1072 3584 1716 3584 
Q 2034 3584 2315 3537 
Q 2597 3491 2834 3397 
z
" transform="scale(0.015625)"/>
        <path id="DejaVuSans-6e" d="M 3513 2113 
L 3513 0 
L 2938 0 
L 2938 2094 
Q 2938 2591 2744 2837 
Q 2550 3084 2163 3084 
Q 1697 3084 1428 2787 
Q 1159 2491 1159 1978 
L 1159 0 
L 581 0 
L 581 3500 
L 1159 3500 
L 1159 2956 
Q 1366 3272 1645 3428 
Q 1925 3584 2291 3584 
Q 2894 3584 3203 3211 
Q 3513 2838 3513 2113 
z
" transform="scale(0.015625)"/>
       </defs>
       <use xlink:href="#DejaVuSans-64"/>
       <use xlink:href="#DejaVuSans-69" x="63.476562"/>
       <use xlink:href="#DejaVuSans-73" x="91.259766"/>
       <use xlink:href="#DejaVuSans-74" x="143.359375"/>
       <use xlink:href="#DejaVuSans-61" x="182.568359"/>
       <use xlink:href="#DejaVuSans-6e" x="243.847656"/>
       <use xlink:href="#DejaVuSans-63" x="307.226562"/>
       <use xlink:href="#DejaVuSans-65" x="362.207031"/>
      </g>
      <!-- myclimate-ECO. -->
      <g transform="translate(856.633447 268.25225) scale(0.1 -0.1)">
       <use xlink:href="#DejaVuSans-6d"/>
       <use xlink:href="#DejaVuSans-79" x="97.412109"/>
       <use xlink:href="#DejaVuSans-63" x="156.591797"/>
       <use xlink:href="#DejaVuSans-6c" x="211.572266"/>
       <use xlink:href="#DejaVuSans-69" x="239.355469"/>
       <use xlink:href="#DejaVuSans-6d" x="267.138672"/>
       <use xlink:href="#DejaVuSans-61" x="364.550781"/>
       <use xlink:href="#DejaVuSans-74" x="425.830078"/>
       <use xlink:href="#DejaVuSans-65" x="465.039062"/>
       <use xlink:href="#DejaVuSans-2d" x="526.5625"/>
       <use xlink:href="#DejaVuSans-45" x="562.646484"/>
       <use xlink:href="#DejaVuSans-43" x="625.830078"/>
       <use xlink:href="#DejaVuSans-4f" x="695.654297"/>
       <use xlink:href="#DejaVuSans-2e" x="770.365234"/>
      </g>
     </g>
    </g>
    <g id="xtick_8">
     <g id="line2d_8">
      <g>
       <use xlink:href="#m8841c89312" x="1020.128779" y="242.456" style="stroke: #000000; stroke-width: 0.8"/>
      </g>
     </g>
     <g id="text_8">
      <!-- distance -->
      <g transform="translate(998.94206 257.054437) scale(0.1 -0.1)">
       <use xlink:href="#DejaVuSans-64"/>
       <use xlink:href="#DejaVuSans-69" x="63.476562"/>
       <use xlink:href="#DejaVuSans-73" x="91.259766"/>
       <use xlink:href="#DejaVuSans-74" x="143.359375"/>
       <use xlink:href="#DejaVuSans-61" x="182.568359"/>
       <use xlink:href="#DejaVuSans-6e" x="243.847656"/>
       <use xlink:href="#DejaVuSans-63" x="307.226562"/>
       <use xlink:href="#DejaVuSans-65" x="362.207031"/>
      </g>
      <!-- myclimate-AVE. -->
      <g transform="translate(980.838935 268.25225) scale(0.1 -0.1)">
       <use xlink:href="#DejaVuSans-6d"/>
       <use xlink:href="#DejaVuSans-79" x="97.412109"/>
       <use xlink:href="#DejaVuSans-63" x="156.591797"/>
       <use xlink:href="#DejaVuSans-6c" x="211.572266"/>
       <use xlink:href="#DejaVuSans-69" x="239.355469"/>
       <use xlink:href="#DejaVuSans-6d" x="267.138672"/>
       <use xlink:href="#DejaVuSans-61" x="364.550781"/>
       <use xlink:href="#DejaVuSans-74" x="425.830078"/>
       <use xlink:href="#DejaVuSans-65" x="465.039062"/>
       <use xlink:href="#DejaVuSans-2d" x="526.5625"/>
       <use xlink:href="#DejaVuSans-41" x="560.396484"/>
       <use xlink:href="#DejaVuSans-56" x="622.429688"/>
       <use xlink:href="#DejaVuSans-45" x="690.837891"/>
       <use xlink:href="#DejaVuSans-2e" x="754.021484"/>
      </g>
     </g>
    </g>
    <g id="xtick_9">
     <g id="line2d_9">
      <g>
       <use xlink:href="#m8841c89312" x="1143.516298" y="242.456" style="stroke: #000000; stroke-width: 0.8"/>
      </g>
     </g>
     <g id="text_9">
      <!-- distance -->
      <g transform="translate(1122.329579 257.054437) scale(0.1 -0.1)">
       <use xlink:href="#DejaVuSans-64"/>
       <use xlink:href="#DejaVuSans-69" x="63.476562"/>
       <use xlink:href="#DejaVuSans-73" x="91.259766"/>
       <use xlink:href="#DejaVuSans-74" x="143.359375"/>
       <use xlink:href="#DejaVuSans-61" x="182.568359"/>
       <use xlink:href="#DejaVuSans-6e" x="243.847656"/>
       <use xlink:href="#DejaVuSans-63" x="307.226562"/>
       <use xlink:href="#DejaVuSans-65" x="362.207031"/>
      </g>
      <!-- goclimate-ECO. -->
      <g transform="translate(1105.004579 268.25225) scale(0.1 -0.1)">
       <use xlink:href="#DejaVuSans-67"/>
       <use xlink:href="#DejaVuSans-6f" x="63.476562"/>
       <use xlink:href="#DejaVuSans-63" x="124.658203"/>
       <use xlink:href="#DejaVuSans-6c" x="179.638672"/>
       <use xlink:href="#DejaVuSans-69" x="207.421875"/>
       <use xlink:href="#DejaVuSans-6d" x="235.205078"/>
       <use xlink:href="#DejaVuSans-61" x="332.617188"/>
       <use xlink:href="#DejaVuSans-74" x="393.896484"/>
       <use xlink:href="#DejaVuSans-65" x="433.105469"/>
       <use xlink:href="#DejaVuSans-2d" x="494.628906"/>
       <use xlink:href="#DejaVuSans-45" x="530.712891"/>
       <use xlink:href="#DejaVuSans-43" x="593.896484"/>
       <use xlink:href="#DejaVuSans-4f" x="663.720703"/>
       <use xlink:href="#DejaVuSans-2e" x="738.431641"/>
      </g>
     </g>
    </g>
    <g id="xtick_10">
     <g id="line2d_10">
      <g>
       <use xlink:href="#m8841c89312" x="1266.903817" y="242.456" style="stroke: #000000; stroke-width: 0.8"/>
      </g>
     </g>
     <g id="text_10">
      <!-- distance -->
      <g transform="translate(1245.717099 257.054437) scale(0.1 -0.1)">
       <use xlink:href="#DejaVuSans-64"/>
       <use xlink:href="#DejaVuSans-69" x="63.476562"/>
       <use xlink:href="#DejaVuSans-73" x="91.259766"/>
       <use xlink:href="#DejaVuSans-74" x="143.359375"/>
       <use xlink:href="#DejaVuSans-61" x="182.568359"/>
       <use xlink:href="#DejaVuSans-6e" x="243.847656"/>
       <use xlink:href="#DejaVuSans-63" x="307.226562"/>
       <use xlink:href="#DejaVuSans-65" x="362.207031"/>
      </g>
      <!-- goclimate-AVE. -->
      <g transform="translate(1229.210067 268.25225) scale(0.1 -0.1)">
       <use xlink:href="#DejaVuSans-67"/>
       <use xlink:href="#DejaVuSans-6f" x="63.476562"/>
       <use xlink:href="#DejaVuSans-63" x="124.658203"/>
       <use xlink:href="#DejaVuSans-6c" x="179.638672"/>
       <use xlink:href="#DejaVuSans-69" x="207.421875"/>
       <use xlink:href="#DejaVuSans-6d" x="235.205078"/>
       <use xlink:href="#DejaVuSans-61" x="332.617188"/>
       <use xlink:href="#DejaVuSans-74" x="393.896484"/>
       <use xlink:href="#DejaVuSans-65" x="433.105469"/>
       <use xlink:href="#DejaVuSans-2d" x="494.628906"/>
       <use xlink:href="#DejaVuSans-41" x="528.462891"/>
       <use xlink:href="#DejaVuSans-56" x="590.496094"/>
       <use xlink:href="#DejaVuSans-45" x="658.904297"/>
       <use xlink:href="#DejaVuSans-2e" x="722.087891"/>
      </g>
     </g>
    </g>
    <g id="xtick_11">
     <g id="line2d_11">
      <g>
       <use xlink:href="#m8841c89312" x="1390.291337" y="242.456" style="stroke: #000000; stroke-width: 0.8"/>
      </g>
     </g>
     <g id="text_11">
      <!-- distance -->
      <g transform="translate(1369.104618 257.054437) scale(0.1 -0.1)">
       <use xlink:href="#DejaVuSans-64"/>
       <use xlink:href="#DejaVuSans-69" x="63.476562"/>
       <use xlink:href="#DejaVuSans-73" x="91.259766"/>
       <use xlink:href="#DejaVuSans-74" x="143.359375"/>
       <use xlink:href="#DejaVuSans-61" x="182.568359"/>
       <use xlink:href="#DejaVuSans-6e" x="243.847656"/>
       <use xlink:href="#DejaVuSans-63" x="307.226562"/>
       <use xlink:href="#DejaVuSans-65" x="362.207031"/>
      </g>
      <!-- ukgov-ECO. -->
      <g transform="translate(1361.385868 268.25225) scale(0.1 -0.1)">
       <use xlink:href="#DejaVuSans-75"/>
       <use xlink:href="#DejaVuSans-6b" x="63.378906"/>
       <use xlink:href="#DejaVuSans-67" x="121.289062"/>
       <use xlink:href="#DejaVuSans-6f" x="184.765625"/>
       <use xlink:href="#DejaVuSans-76" x="245.947266"/>
       <use xlink:href="#DejaVuSans-2d" x="302.501953"/>
       <use xlink:href="#DejaVuSans-45" x="338.585938"/>
       <use xlink:href="#DejaVuSans-43" x="401.769531"/>
       <use xlink:href="#DejaVuSans-4f" x="471.59375"/>
       <use xlink:href="#DejaVuSans-2e" x="546.304688"/>
      </g>
     </g>
    </g>
    <g id="xtick_12">
     <g id="line2d_12">
      <g>
       <use xlink:href="#m8841c89312" x="1513.678856" y="242.456" style="stroke: #000000; stroke-width: 0.8"/>
      </g>
     </g>
     <g id="text_12">
      <!-- distance -->
      <g transform="translate(1492.492137 257.054437) scale(0.1 -0.1)">
       <use xlink:href="#DejaVuSans-64"/>
       <use xlink:href="#DejaVuSans-69" x="63.476562"/>
       <use xlink:href="#DejaVuSans-73" x="91.259766"/>
       <use xlink:href="#DejaVuSans-74" x="143.359375"/>
       <use xlink:href="#DejaVuSans-61" x="182.568359"/>
       <use xlink:href="#DejaVuSans-6e" x="243.847656"/>
       <use xlink:href="#DejaVuSans-63" x="307.226562"/>
       <use xlink:href="#DejaVuSans-65" x="362.207031"/>
      </g>
      <!-- ukgov-AVE. -->
      <g transform="translate(1485.591356 268.25225) scale(0.1 -0.1)">
       <use xlink:href="#DejaVuSans-75"/>
       <use xlink:href="#DejaVuSans-6b" x="63.378906"/>
       <use xlink:href="#DejaVuSans-67" x="121.289062"/>
       <use xlink:href="#DejaVuSans-6f" x="184.765625"/>
       <use xlink:href="#DejaVuSans-76" x="245.947266"/>
       <use xlink:href="#DejaVuSans-2d" x="302.501953"/>
       <use xlink:href="#DejaVuSans-41" x="336.335938"/>
       <use xlink:href="#DejaVuSans-56" x="398.369141"/>
       <use xlink:href="#DejaVuSans-45" x="466.777344"/>
       <use xlink:href="#DejaVuSans-2e" x="529.960938"/>
      </g>
     </g>
    </g>
   </g>
   <g id="matplotlib.axis_2">
    <g id="ytick_1">
     <g id="line2d_13">
      <defs>
       <path id="ma4cce68963" d="M 0 0 
L -3.5 0 
" style="stroke: #000000; stroke-width: 0.8"/>
      </defs>
      <g>
       <use xlink:href="#ma4cce68963" x="34.2625" y="242.456" style="stroke: #000000; stroke-width: 0.8"/>
      </g>
     </g>
     <g id="text_13">
      <!-- 0 -->
      <g transform="translate(20.9 246.255219) scale(0.1 -0.1)">
       <defs>
        <path id="DejaVuSans-30" d="M 2034 4250 
Q 1547 4250 1301 3770 
Q 1056 3291 1056 2328 
Q 1056 1369 1301 889 
Q 1547 409 2034 409 
Q 2525 409 2770 889 
Q 3016 1369 3016 2328 
Q 3016 3291 2770 3770 
Q 2525 4250 2034 4250 
z
M 2034 4750 
Q 2819 4750 3233 4129 
Q 3647 3509 3647 2328 
Q 3647 1150 3233 529 
Q 2819 -91 2034 -91 
Q 1250 -91 836 529 
Q 422 1150 422 2328 
Q 422 3509 836 4129 
Q 1250 4750 2034 4750 
z
" transform="scale(0.015625)"/>
       </defs>
       <use xlink:href="#DejaVuSans-30"/>
      </g>
     </g>
    </g>
    <g id="ytick_2">
     <g id="line2d_14">
      <g>
       <use xlink:href="#ma4cce68963" x="34.2625" y="207.286299" style="stroke: #000000; stroke-width: 0.8"/>
      </g>
     </g>
     <g id="text_14">
      <!-- 1 -->
      <g transform="translate(20.9 211.085518) scale(0.1 -0.1)">
       <defs>
        <path id="DejaVuSans-31" d="M 794 531 
L 1825 531 
L 1825 4091 
L 703 3866 
L 703 4441 
L 1819 4666 
L 2450 4666 
L 2450 531 
L 3481 531 
L 3481 0 
L 794 0 
L 794 531 
z
" transform="scale(0.015625)"/>
       </defs>
       <use xlink:href="#DejaVuSans-31"/>
      </g>
     </g>
    </g>
    <g id="ytick_3">
     <g id="line2d_15">
      <g>
       <use xlink:href="#ma4cce68963" x="34.2625" y="172.116598" style="stroke: #000000; stroke-width: 0.8"/>
      </g>
     </g>
     <g id="text_15">
      <!-- 2 -->
      <g transform="translate(20.9 175.915817) scale(0.1 -0.1)">
       <defs>
        <path id="DejaVuSans-32" d="M 1228 531 
L 3431 531 
L 3431 0 
L 469 0 
L 469 531 
Q 828 903 1448 1529 
Q 2069 2156 2228 2338 
Q 2531 2678 2651 2914 
Q 2772 3150 2772 3378 
Q 2772 3750 2511 3984 
Q 2250 4219 1831 4219 
Q 1534 4219 1204 4116 
Q 875 4013 500 3803 
L 500 4441 
Q 881 4594 1212 4672 
Q 1544 4750 1819 4750 
Q 2544 4750 2975 4387 
Q 3406 4025 3406 3419 
Q 3406 3131 3298 2873 
Q 3191 2616 2906 2266 
Q 2828 2175 2409 1742 
Q 1991 1309 1228 531 
z
" transform="scale(0.015625)"/>
       </defs>
       <use xlink:href="#DejaVuSans-32"/>
      </g>
     </g>
    </g>
    <g id="ytick_4">
     <g id="line2d_16">
      <g>
       <use xlink:href="#ma4cce68963" x="34.2625" y="136.946897" style="stroke: #000000; stroke-width: 0.8"/>
      </g>
     </g>
     <g id="text_16">
      <!-- 3 -->
      <g transform="translate(20.9 140.746116) scale(0.1 -0.1)">
       <defs>
        <path id="DejaVuSans-33" d="M 2597 2516 
Q 3050 2419 3304 2112 
Q 3559 1806 3559 1356 
Q 3559 666 3084 287 
Q 2609 -91 1734 -91 
Q 1441 -91 1130 -33 
Q 819 25 488 141 
L 488 750 
Q 750 597 1062 519 
Q 1375 441 1716 441 
Q 2309 441 2620 675 
Q 2931 909 2931 1356 
Q 2931 1769 2642 2001 
Q 2353 2234 1838 2234 
L 1294 2234 
L 1294 2753 
L 1863 2753 
Q 2328 2753 2575 2939 
Q 2822 3125 2822 3475 
Q 2822 3834 2567 4026 
Q 2313 4219 1838 4219 
Q 1578 4219 1281 4162 
Q 984 4106 628 3988 
L 628 4550 
Q 988 4650 1302 4700 
Q 1616 4750 1894 4750 
Q 2613 4750 3031 4423 
Q 3450 4097 3450 3541 
Q 3450 3153 3228 2886 
Q 3006 2619 2597 2516 
z
" transform="scale(0.015625)"/>
       </defs>
       <use xlink:href="#DejaVuSans-33"/>
      </g>
     </g>
    </g>
    <g id="ytick_5">
     <g id="line2d_17">
      <g>
       <use xlink:href="#ma4cce68963" x="34.2625" y="101.777196" style="stroke: #000000; stroke-width: 0.8"/>
      </g>
     </g>
     <g id="text_17">
      <!-- 4 -->
      <g transform="translate(20.9 105.576415) scale(0.1 -0.1)">
       <defs>
        <path id="DejaVuSans-34" d="M 2419 4116 
L 825 1625 
L 2419 1625 
L 2419 4116 
z
M 2253 4666 
L 3047 4666 
L 3047 1625 
L 3713 1625 
L 3713 1100 
L 3047 1100 
L 3047 0 
L 2419 0 
L 2419 1100 
L 313 1100 
L 313 1709 
L 2253 4666 
z
" transform="scale(0.015625)"/>
       </defs>
       <use xlink:href="#DejaVuSans-34"/>
      </g>
     </g>
    </g>
    <g id="ytick_6">
     <g id="line2d_18">
      <g>
       <use xlink:href="#ma4cce68963" x="34.2625" y="66.607495" style="stroke: #000000; stroke-width: 0.8"/>
      </g>
     </g>
     <g id="text_18">
      <!-- 5 -->
      <g transform="translate(20.9 70.406714) scale(0.1 -0.1)">
       <defs>
        <path id="DejaVuSans-35" d="M 691 4666 
L 3169 4666 
L 3169 4134 
L 1269 4134 
L 1269 2991 
Q 1406 3038 1543 3061 
Q 1681 3084 1819 3084 
Q 2600 3084 3056 2656 
Q 3513 2228 3513 1497 
Q 3513 744 3044 326 
Q 2575 -91 1722 -91 
Q 1428 -91 1123 -41 
Q 819 9 494 109 
L 494 744 
Q 775 591 1075 516 
Q 1375 441 1709 441 
Q 2250 441 2565 725 
Q 2881 1009 2881 1497 
Q 2881 1984 2565 2268 
Q 2250 2553 1709 2553 
Q 1456 2553 1204 2497 
Q 953 2441 691 2322 
L 691 4666 
z
" transform="scale(0.015625)"/>
       </defs>
       <use xlink:href="#DejaVuSans-35"/>
      </g>
     </g>
    </g>
    <g id="text_19">
     <!-- $CO_2$ Equivalent (kg) -->
     <g transform="translate(14.8 188.838) rotate(-90) scale(0.1 -0.1)">
      <defs>
       <path id="DejaVuSans-Oblique-43" d="M 4447 4306 
L 4319 3641 
Q 4019 3944 3683 4091 
Q 3347 4238 2956 4238 
Q 2422 4238 2017 3981 
Q 1613 3725 1319 3200 
Q 1131 2863 1032 2486 
Q 934 2109 934 1728 
Q 934 1091 1264 756 
Q 1594 422 2222 422 
Q 2656 422 3056 561 
Q 3456 700 3834 978 
L 3688 231 
Q 3316 72 2936 -9 
Q 2556 -91 2175 -91 
Q 1278 -91 773 396 
Q 269 884 269 1753 
Q 269 2309 461 2846 
Q 653 3384 1013 3828 
Q 1394 4300 1883 4525 
Q 2372 4750 3022 4750 
Q 3422 4750 3780 4639 
Q 4138 4528 4447 4306 
z
" transform="scale(0.015625)"/>
       <path id="DejaVuSans-Oblique-4f" d="M 2919 4238 
Q 2400 4238 2003 3986 
Q 1606 3734 1313 3219 
Q 1125 2891 1026 2522 
Q 928 2153 928 1778 
Q 928 1128 1239 775 
Q 1550 422 2119 422 
Q 2631 422 3032 676 
Q 3434 931 3719 1434 
Q 3909 1772 4009 2142 
Q 4109 2513 4109 2881 
Q 4109 3528 3796 3883 
Q 3484 4238 2919 4238 
z
M 2100 -91 
Q 1241 -91 748 418 
Q 256 928 256 1813 
Q 256 2319 448 2847 
Q 641 3375 978 3788 
Q 1375 4272 1862 4511 
Q 2350 4750 2938 4750 
Q 3794 4750 4287 4245 
Q 4781 3741 4781 2869 
Q 4781 2331 4593 1812 
Q 4406 1294 4056 872 
Q 3656 384 3173 146 
Q 2691 -91 2100 -91 
z
" transform="scale(0.015625)"/>
       <path id="DejaVuSans-20" transform="scale(0.015625)"/>
       <path id="DejaVuSans-71" d="M 947 1747 
Q 947 1113 1208 752 
Q 1469 391 1925 391 
Q 2381 391 2643 752 
Q 2906 1113 2906 1747 
Q 2906 2381 2643 2742 
Q 2381 3103 1925 3103 
Q 1469 3103 1208 2742 
Q 947 2381 947 1747 
z
M 2906 525 
Q 2725 213 2448 61 
Q 2172 -91 1784 -91 
Q 1150 -91 751 415 
Q 353 922 353 1747 
Q 353 2572 751 3078 
Q 1150 3584 1784 3584 
Q 2172 3584 2448 3432 
Q 2725 3281 2906 2969 
L 2906 3500 
L 3481 3500 
L 3481 -1331 
L 2906 -1331 
L 2906 525 
z
" transform="scale(0.015625)"/>
       <path id="DejaVuSans-28" d="M 1984 4856 
Q 1566 4138 1362 3434 
Q 1159 2731 1159 2009 
Q 1159 1288 1364 580 
Q 1569 -128 1984 -844 
L 1484 -844 
Q 1016 -109 783 600 
Q 550 1309 550 2009 
Q 550 2706 781 3412 
Q 1013 4119 1484 4856 
L 1984 4856 
z
" transform="scale(0.015625)"/>
       <path id="DejaVuSans-29" d="M 513 4856 
L 1013 4856 
Q 1481 4119 1714 3412 
Q 1947 2706 1947 2009 
Q 1947 1309 1714 600 
Q 1481 -109 1013 -844 
L 513 -844 
Q 928 -128 1133 580 
Q 1338 1288 1338 2009 
Q 1338 2731 1133 3434 
Q 928 4138 513 4856 
z
" transform="scale(0.015625)"/>
      </defs>
      <use xlink:href="#DejaVuSans-Oblique-43" transform="translate(0 0.015625)"/>
      <use xlink:href="#DejaVuSans-Oblique-4f" transform="translate(69.824219 0.015625)"/>
      <use xlink:href="#DejaVuSans-32" transform="translate(148.535156 -16.390625) scale(0.7)"/>
      <use xlink:href="#DejaVuSans-20" transform="translate(195.805664 0.015625)"/>
      <use xlink:href="#DejaVuSans-45" transform="translate(227.592773 0.015625)"/>
      <use xlink:href="#DejaVuSans-71" transform="translate(290.776367 0.015625)"/>
      <use xlink:href="#DejaVuSans-75" transform="translate(354.25293 0.015625)"/>
      <use xlink:href="#DejaVuSans-69" transform="translate(417.631836 0.015625)"/>
      <use xlink:href="#DejaVuSans-76" transform="translate(445.415039 0.015625)"/>
      <use xlink:href="#DejaVuSans-61" transform="translate(504.594727 0.015625)"/>
      <use xlink:href="#DejaVuSans-6c" transform="translate(565.874023 0.015625)"/>
      <use xlink:href="#DejaVuSans-65" transform="translate(593.657227 0.015625)"/>
      <use xlink:href="#DejaVuSans-6e" transform="translate(655.180664 0.015625)"/>
      <use xlink:href="#DejaVuSans-74" transform="translate(718.55957 0.015625)"/>
      <use xlink:href="#DejaVuSans-20" transform="translate(757.768555 0.015625)"/>
      <use xlink:href="#DejaVuSans-28" transform="translate(789.555664 0.015625)"/>
      <use xlink:href="#DejaVuSans-6b" transform="translate(828.569336 0.015625)"/>
      <use xlink:href="#DejaVuSans-67" transform="translate(886.479492 0.015625)"/>
      <use xlink:href="#DejaVuSans-29" transform="translate(949.956055 0.015625)"/>
     </g>
    </g>
    <g id="text_20">
     <!-- 1e6 -->
     <g transform="translate(34.2625 33.32) scale(0.1 -0.1)">
      <defs>
       <path id="DejaVuSans-36" d="M 2113 2584 
Q 1688 2584 1439 2293 
Q 1191 2003 1191 1497 
Q 1191 994 1439 701 
Q 1688 409 2113 409 
Q 2538 409 2786 701 
Q 3034 994 3034 1497 
Q 3034 2003 2786 2293 
Q 2538 2584 2113 2584 
z
M 3366 4563 
L 3366 3988 
Q 3128 4100 2886 4159 
Q 2644 4219 2406 4219 
Q 1781 4219 1451 3797 
Q 1122 3375 1075 2522 
Q 1259 2794 1537 2939 
Q 1816 3084 2150 3084 
Q 2853 3084 3261 2657 
Q 3669 2231 3669 1497 
Q 3669 778 3244 343 
Q 2819 -91 2113 -91 
Q 1303 -91 875 529 
Q 447 1150 447 2328 
Q 447 3434 972 4092 
Q 1497 4750 2381 4750 
Q 2619 4750 2861 4703 
Q 3103 4656 3366 4563 
z
" transform="scale(0.015625)"/>
      </defs>
      <use xlink:href="#DejaVuSans-31"/>
      <use xlink:href="#DejaVuSans-65" x="63.623047"/>
      <use xlink:href="#DejaVuSans-36" x="125.146484"/>
     </g>
    </g>
   </g>
   <g id="patch_195">
    <path d="M 34.2625 242.456 
L 34.2625 36.32 
" style="fill: none; stroke: #000000; stroke-width: 0.8; stroke-linejoin: miter; stroke-linecap: square"/>
   </g>
   <g id="patch_196">
    <path d="M 1635.8325 242.456 
L 1635.8325 36.32 
" style="fill: none; stroke: #000000; stroke-width: 0.8; stroke-linejoin: miter; stroke-linecap: square"/>
   </g>
   <g id="patch_197">
    <path d="M 34.2625 242.456 
L 1635.8325 242.456 
" style="fill: none; stroke: #000000; stroke-width: 0.8; stroke-linejoin: miter; stroke-linecap: square"/>
   </g>
   <g id="patch_198">
    <path d="M 34.2625 36.32 
L 1635.8325 36.32 
" style="fill: none; stroke: #000000; stroke-width: 0.8; stroke-linejoin: miter; stroke-linecap: square"/>
   </g>
   <g id="text_21">
    <!-- $CO_2$ Equivalent (kg) by country for IETF99 (1860 participants) -->
    <g transform="translate(649.7075 16.32) scale(0.12 -0.12)">
     <defs>
      <path id="DejaVuSans-62" d="M 3116 1747 
Q 3116 2381 2855 2742 
Q 2594 3103 2138 3103 
Q 1681 3103 1420 2742 
Q 1159 2381 1159 1747 
Q 1159 1113 1420 752 
Q 1681 391 2138 391 
Q 2594 391 2855 752 
Q 3116 1113 3116 1747 
z
M 1159 2969 
Q 1341 3281 1617 3432 
Q 1894 3584 2278 3584 
Q 2916 3584 3314 3078 
Q 3713 2572 3713 1747 
Q 3713 922 3314 415 
Q 2916 -91 2278 -91 
Q 1894 -91 1617 61 
Q 1341 213 1159 525 
L 1159 0 
L 581 0 
L 581 4863 
L 1159 4863 
L 1159 2969 
z
" transform="scale(0.015625)"/>
      <path id="DejaVuSans-72" d="M 2631 2963 
Q 2534 3019 2420 3045 
Q 2306 3072 2169 3072 
Q 1681 3072 1420 2755 
Q 1159 2438 1159 1844 
L 1159 0 
L 581 0 
L 581 3500 
L 1159 3500 
L 1159 2956 
Q 1341 3275 1631 3429 
Q 1922 3584 2338 3584 
Q 2397 3584 2469 3576 
Q 2541 3569 2628 3553 
L 2631 2963 
z
" transform="scale(0.015625)"/>
      <path id="DejaVuSans-49" d="M 628 4666 
L 1259 4666 
L 1259 0 
L 628 0 
L 628 4666 
z
" transform="scale(0.015625)"/>
      <path id="DejaVuSans-54" d="M -19 4666 
L 3928 4666 
L 3928 4134 
L 2272 4134 
L 2272 0 
L 1638 0 
L 1638 4134 
L -19 4134 
L -19 4666 
z
" transform="scale(0.015625)"/>
      <path id="DejaVuSans-46" d="M 628 4666 
L 3309 4666 
L 3309 4134 
L 1259 4134 
L 1259 2759 
L 3109 2759 
L 3109 2228 
L 1259 2228 
L 1259 0 
L 628 0 
L 628 4666 
z
" transform="scale(0.015625)"/>
      <path id="DejaVuSans-39" d="M 703 97 
L 703 672 
Q 941 559 1184 500 
Q 1428 441 1663 441 
Q 2288 441 2617 861 
Q 2947 1281 2994 2138 
Q 2813 1869 2534 1725 
Q 2256 1581 1919 1581 
Q 1219 1581 811 2004 
Q 403 2428 403 3163 
Q 403 3881 828 4315 
Q 1253 4750 1959 4750 
Q 2769 4750 3195 4129 
Q 3622 3509 3622 2328 
Q 3622 1225 3098 567 
Q 2575 -91 1691 -91 
Q 1453 -91 1209 -44 
Q 966 3 703 97 
z
M 1959 2075 
Q 2384 2075 2632 2365 
Q 2881 2656 2881 3163 
Q 2881 3666 2632 3958 
Q 2384 4250 1959 4250 
Q 1534 4250 1286 3958 
Q 1038 3666 1038 3163 
Q 1038 2656 1286 2365 
Q 1534 2075 1959 2075 
z
" transform="scale(0.015625)"/>
      <path id="DejaVuSans-38" d="M 2034 2216 
Q 1584 2216 1326 1975 
Q 1069 1734 1069 1313 
Q 1069 891 1326 650 
Q 1584 409 2034 409 
Q 2484 409 2743 651 
Q 3003 894 3003 1313 
Q 3003 1734 2745 1975 
Q 2488 2216 2034 2216 
z
M 1403 2484 
Q 997 2584 770 2862 
Q 544 3141 544 3541 
Q 544 4100 942 4425 
Q 1341 4750 2034 4750 
Q 2731 4750 3128 4425 
Q 3525 4100 3525 3541 
Q 3525 3141 3298 2862 
Q 3072 2584 2669 2484 
Q 3125 2378 3379 2068 
Q 3634 1759 3634 1313 
Q 3634 634 3220 271 
Q 2806 -91 2034 -91 
Q 1263 -91 848 271 
Q 434 634 434 1313 
Q 434 1759 690 2068 
Q 947 2378 1403 2484 
z
M 1172 3481 
Q 1172 3119 1398 2916 
Q 1625 2713 2034 2713 
Q 2441 2713 2670 2916 
Q 2900 3119 2900 3481 
Q 2900 3844 2670 4047 
Q 2441 4250 2034 4250 
Q 1625 4250 1398 4047 
Q 1172 3844 1172 3481 
z
" transform="scale(0.015625)"/>
      <path id="DejaVuSans-70" d="M 1159 525 
L 1159 -1331 
L 581 -1331 
L 581 3500 
L 1159 3500 
L 1159 2969 
Q 1341 3281 1617 3432 
Q 1894 3584 2278 3584 
Q 2916 3584 3314 3078 
Q 3713 2572 3713 1747 
Q 3713 922 3314 415 
Q 2916 -91 2278 -91 
Q 1894 -91 1617 61 
Q 1341 213 1159 525 
z
M 3116 1747 
Q 3116 2381 2855 2742 
Q 2594 3103 2138 3103 
Q 1681 3103 1420 2742 
Q 1159 2381 1159 1747 
Q 1159 1113 1420 752 
Q 1681 391 2138 391 
Q 2594 391 2855 752 
Q 3116 1113 3116 1747 
z
" transform="scale(0.015625)"/>
     </defs>
     <use xlink:href="#DejaVuSans-Oblique-43" transform="translate(0 0.015625)"/>
     <use xlink:href="#DejaVuSans-Oblique-4f" transform="translate(69.824219 0.015625)"/>
     <use xlink:href="#DejaVuSans-32" transform="translate(148.535156 -16.390625) scale(0.7)"/>
     <use xlink:href="#DejaVuSans-20" transform="translate(195.805664 0.015625)"/>
     <use xlink:href="#DejaVuSans-45" transform="translate(227.592773 0.015625)"/>
     <use xlink:href="#DejaVuSans-71" transform="translate(290.776367 0.015625)"/>
     <use xlink:href="#DejaVuSans-75" transform="translate(354.25293 0.015625)"/>
     <use xlink:href="#DejaVuSans-69" transform="translate(417.631836 0.015625)"/>
     <use xlink:href="#DejaVuSans-76" transform="translate(445.415039 0.015625)"/>
     <use xlink:href="#DejaVuSans-61" transform="translate(504.594727 0.015625)"/>
     <use xlink:href="#DejaVuSans-6c" transform="translate(565.874023 0.015625)"/>
     <use xlink:href="#DejaVuSans-65" transform="translate(593.657227 0.015625)"/>
     <use xlink:href="#DejaVuSans-6e" transform="translate(655.180664 0.015625)"/>
     <use xlink:href="#DejaVuSans-74" transform="translate(718.55957 0.015625)"/>
     <use xlink:href="#DejaVuSans-20" transform="translate(757.768555 0.015625)"/>
     <use xlink:href="#DejaVuSans-28" transform="translate(789.555664 0.015625)"/>
     <use xlink:href="#DejaVuSans-6b" transform="translate(828.569336 0.015625)"/>
     <use xlink:href="#DejaVuSans-67" transform="translate(886.479492 0.015625)"/>
     <use xlink:href="#DejaVuSans-29" transform="translate(949.956055 0.015625)"/>
     <use xlink:href="#DejaVuSans-20" transform="translate(988.969727 0.015625)"/>
     <use xlink:href="#DejaVuSans-62" transform="translate(1020.756836 0.015625)"/>
     <use xlink:href="#DejaVuSans-79" transform="translate(1084.233398 0.015625)"/>
     <use xlink:href="#DejaVuSans-20" transform="translate(1143.413086 0.015625)"/>
     <use xlink:href="#DejaVuSans-63" transform="translate(1175.200195 0.015625)"/>
     <use xlink:href="#DejaVuSans-6f" transform="translate(1230.180664 0.015625)"/>
     <use xlink:href="#DejaVuSans-75" transform="translate(1291.362305 0.015625)"/>
     <use xlink:href="#DejaVuSans-6e" transform="translate(1354.741211 0.015625)"/>
     <use xlink:href="#DejaVuSans-74" transform="translate(1418.120117 0.015625)"/>
     <use xlink:href="#DejaVuSans-72" transform="translate(1457.329102 0.015625)"/>
     <use xlink:href="#DejaVuSans-79" transform="translate(1498.442383 0.015625)"/>
     <use xlink:href="#DejaVuSans-20" transform="translate(1557.62207 0.015625)"/>
     <use xlink:href="#DejaVuSans-66" transform="translate(1589.40918 0.015625)"/>
     <use xlink:href="#DejaVuSans-6f" transform="translate(1624.614258 0.015625)"/>
     <use xlink:href="#DejaVuSans-72" transform="translate(1685.795898 0.015625)"/>
     <use xlink:href="#DejaVuSans-20" transform="translate(1726.90918 0.015625)"/>
     <use xlink:href="#DejaVuSans-49" transform="translate(1758.696289 0.015625)"/>
     <use xlink:href="#DejaVuSans-45" transform="translate(1788.188477 0.015625)"/>
     <use xlink:href="#DejaVuSans-54" transform="translate(1851.37207 0.015625)"/>
     <use xlink:href="#DejaVuSans-46" transform="translate(1912.456055 0.015625)"/>
     <use xlink:href="#DejaVuSans-39" transform="translate(1969.975586 0.015625)"/>
     <use xlink:href="#DejaVuSans-39" transform="translate(2033.598633 0.015625)"/>
     <use xlink:href="#DejaVuSans-20" transform="translate(2097.22168 0.015625)"/>
     <use xlink:href="#DejaVuSans-28" transform="translate(2129.008789 0.015625)"/>
     <use xlink:href="#DejaVuSans-31" transform="translate(2168.022461 0.015625)"/>
     <use xlink:href="#DejaVuSans-38" transform="translate(2231.645508 0.015625)"/>
     <use xlink:href="#DejaVuSans-36" transform="translate(2295.268555 0.015625)"/>
     <use xlink:href="#DejaVuSans-30" transform="translate(2358.891602 0.015625)"/>
     <use xlink:href="#DejaVuSans-20" transform="translate(2422.514648 0.015625)"/>
     <use xlink:href="#DejaVuSans-70" transform="translate(2454.301758 0.015625)"/>
     <use xlink:href="#DejaVuSans-61" transform="translate(2517.77832 0.015625)"/>
     <use xlink:href="#DejaVuSans-72" transform="translate(2579.057617 0.015625)"/>
     <use xlink:href="#DejaVuSans-74" transform="translate(2620.170898 0.015625)"/>
     <use xlink:href="#DejaVuSans-69" transform="translate(2659.379883 0.015625)"/>
     <use xlink:href="#DejaVuSans-63" transform="translate(2687.163086 0.015625)"/>
     <use xlink:href="#DejaVuSans-69" transform="translate(2742.143555 0.015625)"/>
     <use xlink:href="#DejaVuSans-70" transform="translate(2769.926758 0.015625)"/>
     <use xlink:href="#DejaVuSans-61" transform="translate(2833.40332 0.015625)"/>
     <use xlink:href="#DejaVuSans-6e" transform="translate(2894.682617 0.015625)"/>
     <use xlink:href="#DejaVuSans-74" transform="translate(2958.061523 0.015625)"/>
     <use xlink:href="#DejaVuSans-73" transform="translate(2997.270508 0.015625)"/>
     <use xlink:href="#DejaVuSans-29" transform="translate(3049.370117 0.015625)"/>
    </g>
   </g>
   <g id="legend_1">
    <g id="patch_199">
     <path d="M 1642.8325 258.5564 
L 1708.435625 258.5564 
Q 1710.435625 258.5564 1710.435625 256.5564 
L 1710.435625 22.7064 
Q 1710.435625 20.7064 1708.435625 20.7064 
L 1642.8325 20.7064 
Q 1640.8325 20.7064 1640.8325 22.7064 
L 1640.8325 256.5564 
Q 1640.8325 258.5564 1642.8325 258.5564 
z
" style="fill: #ffffff; opacity: 0.8; stroke: #cccccc; stroke-linejoin: miter"/>
    </g>
    <g id="patch_200">
     <path d="M 1644.8325 32.304837 
L 1664.8325 32.304837 
L 1664.8325 25.304837 
L 1644.8325 25.304837 
z
" style="fill: #1f77b4"/>
    </g>
    <g id="text_22">
     <!-- US -->
     <g transform="translate(1672.8325 32.304837) scale(0.1 -0.1)">
      <defs>
       <path id="DejaVuSans-55" d="M 556 4666 
L 1191 4666 
L 1191 1831 
Q 1191 1081 1462 751 
Q 1734 422 2344 422 
Q 2950 422 3222 751 
Q 3494 1081 3494 1831 
L 3494 4666 
L 4128 4666 
L 4128 1753 
Q 4128 841 3676 375 
Q 3225 -91 2344 -91 
Q 1459 -91 1007 375 
Q 556 841 556 1753 
L 556 4666 
z
" transform="scale(0.015625)"/>
       <path id="DejaVuSans-53" d="M 3425 4513 
L 3425 3897 
Q 3066 4069 2747 4153 
Q 2428 4238 2131 4238 
Q 1616 4238 1336 4038 
Q 1056 3838 1056 3469 
Q 1056 3159 1242 3001 
Q 1428 2844 1947 2747 
L 2328 2669 
Q 3034 2534 3370 2195 
Q 3706 1856 3706 1288 
Q 3706 609 3251 259 
Q 2797 -91 1919 -91 
Q 1588 -91 1214 -16 
Q 841 59 441 206 
L 441 856 
Q 825 641 1194 531 
Q 1563 422 1919 422 
Q 2459 422 2753 634 
Q 3047 847 3047 1241 
Q 3047 1584 2836 1778 
Q 2625 1972 2144 2069 
L 1759 2144 
Q 1053 2284 737 2584 
Q 422 2884 422 3419 
Q 422 4038 858 4394 
Q 1294 4750 2059 4750 
Q 2388 4750 2728 4690 
Q 3069 4631 3425 4513 
z
" transform="scale(0.015625)"/>
      </defs>
      <use xlink:href="#DejaVuSans-55"/>
      <use xlink:href="#DejaVuSans-53" x="73.193359"/>
     </g>
    </g>
    <g id="patch_201">
     <path d="M 1644.8325 46.982962 
L 1664.8325 46.982962 
L 1664.8325 39.982962 
L 1644.8325 39.982962 
z
" style="fill: #ff7f0e"/>
    </g>
    <g id="text_23">
     <!-- CN -->
     <g transform="translate(1672.8325 46.982962) scale(0.1 -0.1)">
      <defs>
       <path id="DejaVuSans-4e" d="M 628 4666 
L 1478 4666 
L 3547 763 
L 3547 4666 
L 4159 4666 
L 4159 0 
L 3309 0 
L 1241 3903 
L 1241 0 
L 628 0 
L 628 4666 
z
" transform="scale(0.015625)"/>
      </defs>
      <use xlink:href="#DejaVuSans-43"/>
      <use xlink:href="#DejaVuSans-4e" x="69.824219"/>
     </g>
    </g>
    <g id="patch_202">
     <path d="M 1644.8325 61.661087 
L 1664.8325 61.661087 
L 1664.8325 54.661087 
L 1644.8325 54.661087 
z
" style="fill: #2ca02c"/>
    </g>
    <g id="text_24">
     <!-- JP -->
     <g transform="translate(1672.8325 61.661087) scale(0.1 -0.1)">
      <defs>
       <path id="DejaVuSans-4a" d="M 628 4666 
L 1259 4666 
L 1259 325 
Q 1259 -519 939 -900 
Q 619 -1281 -91 -1281 
L -331 -1281 
L -331 -750 
L -134 -750 
Q 284 -750 456 -515 
Q 628 -281 628 325 
L 628 4666 
z
" transform="scale(0.015625)"/>
       <path id="DejaVuSans-50" d="M 1259 4147 
L 1259 2394 
L 2053 2394 
Q 2494 2394 2734 2622 
Q 2975 2850 2975 3272 
Q 2975 3691 2734 3919 
Q 2494 4147 2053 4147 
L 1259 4147 
z
M 628 4666 
L 2053 4666 
Q 2838 4666 3239 4311 
Q 3641 3956 3641 3272 
Q 3641 2581 3239 2228 
Q 2838 1875 2053 1875 
L 1259 1875 
L 1259 0 
L 628 0 
L 628 4666 
z
" transform="scale(0.015625)"/>
      </defs>
      <use xlink:href="#DejaVuSans-4a"/>
      <use xlink:href="#DejaVuSans-50" x="29.492188"/>
     </g>
    </g>
    <g id="patch_203">
     <path d="M 1644.8325 76.339212 
L 1664.8325 76.339212 
L 1664.8325 69.339212 
L 1644.8325 69.339212 
z
" style="fill: #d62728"/>
    </g>
    <g id="text_25">
     <!-- CA -->
     <g transform="translate(1672.8325 76.339212) scale(0.1 -0.1)">
      <use xlink:href="#DejaVuSans-43"/>
      <use xlink:href="#DejaVuSans-41" x="69.824219"/>
     </g>
    </g>
    <g id="patch_204">
     <path d="M 1644.8325 91.017337 
L 1664.8325 91.017337 
L 1664.8325 84.017337 
L 1644.8325 84.017337 
z
" style="fill: #9467bd"/>
    </g>
    <g id="text_26">
     <!-- IN -->
     <g transform="translate(1672.8325 91.017337) scale(0.1 -0.1)">
      <use xlink:href="#DejaVuSans-49"/>
      <use xlink:href="#DejaVuSans-4e" x="29.492188"/>
     </g>
    </g>
    <g id="patch_205">
     <path d="M 1644.8325 105.695462 
L 1664.8325 105.695462 
L 1664.8325 98.695462 
L 1644.8325 98.695462 
z
" style="fill: #8c564b"/>
    </g>
    <g id="text_27">
     <!-- KR -->
     <g transform="translate(1672.8325 105.695462) scale(0.1 -0.1)">
      <defs>
       <path id="DejaVuSans-4b" d="M 628 4666 
L 1259 4666 
L 1259 2694 
L 3353 4666 
L 4166 4666 
L 1850 2491 
L 4331 0 
L 3500 0 
L 1259 2247 
L 1259 0 
L 628 0 
L 628 4666 
z
" transform="scale(0.015625)"/>
       <path id="DejaVuSans-52" d="M 2841 2188 
Q 3044 2119 3236 1894 
Q 3428 1669 3622 1275 
L 4263 0 
L 3584 0 
L 2988 1197 
Q 2756 1666 2539 1819 
Q 2322 1972 1947 1972 
L 1259 1972 
L 1259 0 
L 628 0 
L 628 4666 
L 2053 4666 
Q 2853 4666 3247 4331 
Q 3641 3997 3641 3322 
Q 3641 2881 3436 2590 
Q 3231 2300 2841 2188 
z
M 1259 4147 
L 1259 2491 
L 2053 2491 
Q 2509 2491 2742 2702 
Q 2975 2913 2975 3322 
Q 2975 3731 2742 3939 
Q 2509 4147 2053 4147 
L 1259 4147 
z
" transform="scale(0.015625)"/>
      </defs>
      <use xlink:href="#DejaVuSans-4b"/>
      <use xlink:href="#DejaVuSans-52" x="65.576172"/>
     </g>
    </g>
    <g id="patch_206">
     <path d="M 1644.8325 120.373587 
L 1664.8325 120.373587 
L 1664.8325 113.373587 
L 1644.8325 113.373587 
z
" style="fill: #e377c2"/>
    </g>
    <g id="text_28">
     <!-- BR -->
     <g transform="translate(1672.8325 120.373587) scale(0.1 -0.1)">
      <defs>
       <path id="DejaVuSans-42" d="M 1259 2228 
L 1259 519 
L 2272 519 
Q 2781 519 3026 730 
Q 3272 941 3272 1375 
Q 3272 1813 3026 2020 
Q 2781 2228 2272 2228 
L 1259 2228 
z
M 1259 4147 
L 1259 2741 
L 2194 2741 
Q 2656 2741 2882 2914 
Q 3109 3088 3109 3444 
Q 3109 3797 2882 3972 
Q 2656 4147 2194 4147 
L 1259 4147 
z
M 628 4666 
L 2241 4666 
Q 2963 4666 3353 4366 
Q 3744 4066 3744 3513 
Q 3744 3084 3544 2831 
Q 3344 2578 2956 2516 
Q 3422 2416 3680 2098 
Q 3938 1781 3938 1306 
Q 3938 681 3513 340 
Q 3088 0 2303 0 
L 628 0 
L 628 4666 
z
" transform="scale(0.015625)"/>
      </defs>
      <use xlink:href="#DejaVuSans-42"/>
      <use xlink:href="#DejaVuSans-52" x="68.603516"/>
     </g>
    </g>
    <g id="patch_207">
     <path d="M 1644.8325 135.051712 
L 1664.8325 135.051712 
L 1664.8325 128.051712 
L 1644.8325 128.051712 
z
" style="fill: #7f7f7f"/>
    </g>
    <g id="text_29">
     <!-- CI -->
     <g transform="translate(1672.8325 135.051712) scale(0.1 -0.1)">
      <use xlink:href="#DejaVuSans-43"/>
      <use xlink:href="#DejaVuSans-49" x="69.824219"/>
     </g>
    </g>
    <g id="patch_208">
     <path d="M 1644.8325 149.729837 
L 1664.8325 149.729837 
L 1664.8325 142.729837 
L 1644.8325 142.729837 
z
" style="fill: #bcbd22"/>
    </g>
    <g id="text_30">
     <!-- GB -->
     <g transform="translate(1672.8325 149.729837) scale(0.1 -0.1)">
      <defs>
       <path id="DejaVuSans-47" d="M 3809 666 
L 3809 1919 
L 2778 1919 
L 2778 2438 
L 4434 2438 
L 4434 434 
Q 4069 175 3628 42 
Q 3188 -91 2688 -91 
Q 1594 -91 976 548 
Q 359 1188 359 2328 
Q 359 3472 976 4111 
Q 1594 4750 2688 4750 
Q 3144 4750 3555 4637 
Q 3966 4525 4313 4306 
L 4313 3634 
Q 3963 3931 3569 4081 
Q 3175 4231 2741 4231 
Q 1884 4231 1454 3753 
Q 1025 3275 1025 2328 
Q 1025 1384 1454 906 
Q 1884 428 2741 428 
Q 3075 428 3337 486 
Q 3600 544 3809 666 
z
" transform="scale(0.015625)"/>
      </defs>
      <use xlink:href="#DejaVuSans-47"/>
      <use xlink:href="#DejaVuSans-42" x="77.490234"/>
     </g>
    </g>
    <g id="patch_209">
     <path d="M 1644.8325 164.407962 
L 1664.8325 164.407962 
L 1664.8325 157.407962 
L 1644.8325 157.407962 
z
" style="fill: #17becf"/>
    </g>
    <g id="text_31">
     <!-- DE -->
     <g transform="translate(1672.8325 164.407962) scale(0.1 -0.1)">
      <defs>
       <path id="DejaVuSans-44" d="M 1259 4147 
L 1259 519 
L 2022 519 
Q 2988 519 3436 956 
Q 3884 1394 3884 2338 
Q 3884 3275 3436 3711 
Q 2988 4147 2022 4147 
L 1259 4147 
z
M 628 4666 
L 1925 4666 
Q 3281 4666 3915 4102 
Q 4550 3538 4550 2338 
Q 4550 1131 3912 565 
Q 3275 0 1925 0 
L 628 0 
L 628 4666 
z
" transform="scale(0.015625)"/>
      </defs>
      <use xlink:href="#DejaVuSans-44"/>
      <use xlink:href="#DejaVuSans-45" x="77.001953"/>
     </g>
    </g>
    <g id="patch_210">
     <path d="M 1644.8325 179.086087 
L 1664.8325 179.086087 
L 1664.8325 172.086087 
L 1644.8325 172.086087 
z
" style="fill: #1f77b4"/>
    </g>
    <g id="text_32">
     <!-- AU -->
     <g transform="translate(1672.8325 179.086087) scale(0.1 -0.1)">
      <use xlink:href="#DejaVuSans-41"/>
      <use xlink:href="#DejaVuSans-55" x="68.408203"/>
     </g>
    </g>
    <g id="patch_211">
     <path d="M 1644.8325 193.764212 
L 1664.8325 193.764212 
L 1664.8325 186.764212 
L 1644.8325 186.764212 
z
" style="fill: #ff7f0e"/>
    </g>
    <g id="text_33">
     <!-- AR -->
     <g transform="translate(1672.8325 193.764212) scale(0.1 -0.1)">
      <use xlink:href="#DejaVuSans-41"/>
      <use xlink:href="#DejaVuSans-52" x="68.408203"/>
     </g>
    </g>
    <g id="patch_212">
     <path d="M 1644.8325 208.442337 
L 1664.8325 208.442337 
L 1664.8325 201.442337 
L 1644.8325 201.442337 
z
" style="fill: #2ca02c"/>
    </g>
    <g id="text_34">
     <!-- CL -->
     <g transform="translate(1672.8325 208.442337) scale(0.1 -0.1)">
      <defs>
       <path id="DejaVuSans-4c" d="M 628 4666 
L 1259 4666 
L 1259 531 
L 3531 531 
L 3531 0 
L 628 0 
L 628 4666 
z
" transform="scale(0.015625)"/>
      </defs>
      <use xlink:href="#DejaVuSans-43"/>
      <use xlink:href="#DejaVuSans-4c" x="69.824219"/>
     </g>
    </g>
    <g id="patch_213">
     <path d="M 1644.8325 223.120462 
L 1664.8325 223.120462 
L 1664.8325 216.120462 
L 1644.8325 216.120462 
z
" style="fill: #d62728"/>
    </g>
    <g id="text_35">
     <!-- KE -->
     <g transform="translate(1672.8325 223.120462) scale(0.1 -0.1)">
      <use xlink:href="#DejaVuSans-4b"/>
      <use xlink:href="#DejaVuSans-45" x="65.576172"/>
     </g>
    </g>
    <g id="patch_214">
     <path d="M 1644.8325 237.798587 
L 1664.8325 237.798587 
L 1664.8325 230.798587 
L 1644.8325 230.798587 
z
" style="fill: #9467bd"/>
    </g>
    <g id="text_36">
     <!-- FR -->
     <g transform="translate(1672.8325 237.798587) scale(0.1 -0.1)">
      <use xlink:href="#DejaVuSans-46"/>
      <use xlink:href="#DejaVuSans-52" x="57.519531"/>
     </g>
    </g>
    <g id="patch_215">
     <path d="M 1644.8325 252.476712 
L 1664.8325 252.476712 
L 1664.8325 245.476712 
L 1644.8325 245.476712 
z
" style="fill: #8c564b"/>
    </g>
    <g id="text_37">
     <!-- Others -->
     <g transform="translate(1672.8325 252.476712) scale(0.1 -0.1)">
      <use xlink:href="#DejaVuSans-4f"/>
      <use xlink:href="#DejaVuSans-74" x="78.710938"/>
      <use xlink:href="#DejaVuSans-68" x="117.919922"/>
      <use xlink:href="#DejaVuSans-65" x="181.298828"/>
      <use xlink:href="#DejaVuSans-72" x="242.822266"/>
      <use xlink:href="#DejaVuSans-73" x="283.935547"/>
     </g>
    </g>
   </g>
  </g>
 </g>
 <defs>
  <clipPath id="pe3f2b22019">
   <rect x="34.2625" y="36.32" width="1601.57" height="206.136"/>
  </clipPath>
 </defs>
</svg>
