<?xml version="1.0" encoding="utf-8" standalone="no"?>
<!DOCTYPE svg PUBLIC "-//W3C//DTD SVG 1.1//EN"
  "http://www.w3.org/Graphics/SVG/1.1/DTD/svg11.dtd">
<!-- Created with matplotlib (https://matplotlib.org/) -->
<svg height="280.1275pt" version="1.1" viewBox="0 0 712.68125 280.1275" width="712.68125pt" xmlns="http://www.w3.org/2000/svg" xmlns:xlink="http://www.w3.org/1999/xlink">
 <defs>
  <style type="text/css">
*{stroke-linecap:butt;stroke-linejoin:round;}
  </style>
 </defs>
 <g id="figure_1">
  <g id="patch_1">
   <path d="M 0 280.1275 
L 712.68125 280.1275 
L 712.68125 0 
L 0 0 
z
" style="fill:#ffffff;"/>
  </g>
  <g id="axes_1">
   <g id="patch_2">
    <path d="M 53.328125 146.568125 
L 630.878125 146.568125 
L 630.878125 36.318125 
L 53.328125 36.318125 
z
" style="fill:#ffffff;"/>
   </g>
   <g id="patch_3">
    <path clip-path="url(#pa4b43ffd5f)" d="M 79.580398 146.568125 
L 115.1767 146.568125 
L 115.1767 138.549583 
L 79.580398 138.549583 
z
" style="fill:#1f77b4;"/>
   </g>
   <g id="patch_4">
    <path clip-path="url(#pa4b43ffd5f)" d="M 124.075775 146.568125 
L 159.672077 146.568125 
L 159.672077 138.417591 
L 124.075775 138.417591 
z
" style="fill:#1f77b4;"/>
   </g>
   <g id="patch_5">
    <path clip-path="url(#pa4b43ffd5f)" d="M 168.571153 146.568125 
L 204.167455 146.568125 
L 204.167455 138.2526 
L 168.571153 138.2526 
z
" style="fill:#1f77b4;"/>
   </g>
   <g id="patch_6">
    <path clip-path="url(#pa4b43ffd5f)" d="M 213.06653 146.568125 
L 248.662832 146.568125 
L 248.662832 135.414762 
L 213.06653 135.414762 
z
" style="fill:#1f77b4;"/>
   </g>
   <g id="patch_7">
    <path clip-path="url(#pa4b43ffd5f)" d="M 257.561908 146.568125 
L 293.15821 146.568125 
L 293.15821 138.615579 
L 257.561908 138.615579 
z
" style="fill:#1f77b4;"/>
   </g>
   <g id="patch_8">
    <path clip-path="url(#pa4b43ffd5f)" d="M 302.057285 146.568125 
L 337.653587 146.568125 
L 337.653587 134.325825 
L 302.057285 134.325825 
z
" style="fill:#1f77b4;"/>
   </g>
   <g id="patch_9">
    <path clip-path="url(#pa4b43ffd5f)" d="M 346.552663 146.568125 
L 382.148965 146.568125 
L 382.148965 128.122179 
L 346.552663 128.122179 
z
" style="fill:#1f77b4;"/>
   </g>
   <g id="patch_10">
    <path clip-path="url(#pa4b43ffd5f)" d="M 391.04804 146.568125 
L 426.644342 146.568125 
L 426.644342 137.295655 
L 391.04804 137.295655 
z
" style="fill:#1f77b4;"/>
   </g>
   <g id="patch_11">
    <path clip-path="url(#pa4b43ffd5f)" d="M 435.543418 146.568125 
L 471.13972 146.568125 
L 471.13972 131.850966 
L 435.543418 131.850966 
z
" style="fill:#1f77b4;"/>
   </g>
   <g id="patch_12">
    <path clip-path="url(#pa4b43ffd5f)" d="M 480.038795 146.568125 
L 515.635097 146.568125 
L 515.635097 134.292826 
L 480.038795 134.292826 
z
" style="fill:#1f77b4;"/>
   </g>
   <g id="patch_13">
    <path clip-path="url(#pa4b43ffd5f)" d="M 524.534173 146.568125 
L 560.130475 146.568125 
L 560.130475 137.295655 
L 524.534173 137.295655 
z
" style="fill:#1f77b4;"/>
   </g>
   <g id="patch_14">
    <path clip-path="url(#pa4b43ffd5f)" d="M 569.02955 146.568125 
L 604.625852 146.568125 
L 604.625852 126.868251 
L 569.02955 126.868251 
z
" style="fill:#1f77b4;"/>
   </g>
   <g id="patch_15">
    <path clip-path="url(#pa4b43ffd5f)" d="M 79.580398 138.549583 
L 115.1767 138.549583 
L 115.1767 138.186604 
L 79.580398 138.186604 
z
" style="fill:#ff7f0e;"/>
   </g>
   <g id="patch_16">
    <path clip-path="url(#pa4b43ffd5f)" d="M 124.075775 138.417591 
L 159.672077 138.417591 
L 159.672077 138.054611 
L 124.075775 138.054611 
z
" style="fill:#ff7f0e;"/>
   </g>
   <g id="patch_17">
    <path clip-path="url(#pa4b43ffd5f)" d="M 168.571153 138.2526 
L 204.167455 138.2526 
L 204.167455 56.912248 
L 168.571153 56.912248 
z
" style="fill:#ff7f0e;"/>
   </g>
   <g id="patch_18">
    <path clip-path="url(#pa4b43ffd5f)" d="M 213.06653 135.414762 
L 248.662832 135.414762 
L 248.662832 135.018785 
L 213.06653 135.018785 
z
" style="fill:#ff7f0e;"/>
   </g>
   <g id="patch_19">
    <path clip-path="url(#pa4b43ffd5f)" d="M 257.561908 138.615579 
L 293.15821 138.615579 
L 293.15821 138.384593 
L 257.561908 138.384593 
z
" style="fill:#ff7f0e;"/>
   </g>
   <g id="patch_20">
    <path clip-path="url(#pa4b43ffd5f)" d="M 302.057285 134.325825 
L 337.653587 134.325825 
L 337.653587 132.774913 
L 302.057285 132.774913 
z
" style="fill:#ff7f0e;"/>
   </g>
   <g id="patch_21">
    <path clip-path="url(#pa4b43ffd5f)" d="M 346.552663 128.122179 
L 382.148965 128.122179 
L 382.148965 127.627207 
L 346.552663 127.627207 
z
" style="fill:#ff7f0e;"/>
   </g>
   <g id="patch_22">
    <path clip-path="url(#pa4b43ffd5f)" d="M 391.04804 137.295655 
L 426.644342 137.295655 
L 426.644342 137.064668 
L 391.04804 137.064668 
z
" style="fill:#ff7f0e;"/>
   </g>
   <g id="patch_23">
    <path clip-path="url(#pa4b43ffd5f)" d="M 435.543418 131.850966 
L 471.13972 131.850966 
L 471.13972 130.762028 
L 435.543418 130.762028 
z
" style="fill:#ff7f0e;"/>
   </g>
   <g id="patch_24">
    <path clip-path="url(#pa4b43ffd5f)" d="M 480.038795 134.292826 
L 515.635097 134.292826 
L 515.635097 133.53387 
L 480.038795 133.53387 
z
" style="fill:#ff7f0e;"/>
   </g>
   <g id="patch_25">
    <path clip-path="url(#pa4b43ffd5f)" d="M 524.534173 137.295655 
L 560.130475 137.295655 
L 560.130475 136.866679 
L 524.534173 136.866679 
z
" style="fill:#ff7f0e;"/>
   </g>
   <g id="patch_26">
    <path clip-path="url(#pa4b43ffd5f)" d="M 569.02955 126.868251 
L 604.625852 126.868251 
L 604.625852 125.713317 
L 569.02955 125.713317 
z
" style="fill:#ff7f0e;"/>
   </g>
   <g id="patch_27">
    <path clip-path="url(#pa4b43ffd5f)" d="M 79.580398 138.186604 
L 115.1767 138.186604 
L 115.1767 89.118408 
L 79.580398 89.118408 
z
" style="fill:#2ca02c;"/>
   </g>
   <g id="patch_28">
    <path clip-path="url(#pa4b43ffd5f)" d="M 124.075775 138.054611 
L 159.672077 138.054611 
L 159.672077 138.021613 
L 124.075775 138.021613 
z
" style="fill:#2ca02c;"/>
   </g>
   <g id="patch_29">
    <path clip-path="url(#pa4b43ffd5f)" d="M 168.571153 56.912248 
L 204.167455 56.912248 
L 204.167455 56.87925 
L 168.571153 56.87925 
z
" style="fill:#2ca02c;"/>
   </g>
   <g id="patch_30">
    <path clip-path="url(#pa4b43ffd5f)" d="M 213.06653 135.018785 
L 248.662832 135.018785 
L 248.662832 134.952789 
L 213.06653 134.952789 
z
" style="fill:#2ca02c;"/>
   </g>
   <g id="patch_31">
    <path clip-path="url(#pa4b43ffd5f)" d="M 257.561908 138.384593 
L 293.15821 138.384593 
L 293.15821 138.2526 
L 257.561908 138.2526 
z
" style="fill:#2ca02c;"/>
   </g>
   <g id="patch_32">
    <path clip-path="url(#pa4b43ffd5f)" d="M 302.057285 132.774913 
L 337.653587 132.774913 
L 337.653587 132.642921 
L 302.057285 132.642921 
z
" style="fill:#2ca02c;"/>
   </g>
   <g id="patch_33">
    <path clip-path="url(#pa4b43ffd5f)" d="M 346.552663 127.627207 
L 382.148965 127.627207 
L 382.148965 127.561211 
L 346.552663 127.561211 
z
" style="fill:#2ca02c;"/>
   </g>
   <g id="patch_34">
    <path clip-path="url(#pa4b43ffd5f)" d="M 391.04804 137.064668 
L 426.644342 137.064668 
L 426.644342 136.998672 
L 391.04804 136.998672 
z
" style="fill:#2ca02c;"/>
   </g>
   <g id="patch_35">
    <path clip-path="url(#pa4b43ffd5f)" d="M 435.543418 130.762028 
L 471.13972 130.762028 
L 471.13972 130.663034 
L 435.543418 130.663034 
z
" style="fill:#2ca02c;"/>
   </g>
   <g id="patch_36">
    <path clip-path="url(#pa4b43ffd5f)" d="M 480.038795 133.53387 
L 515.635097 133.53387 
L 515.635097 133.434875 
L 480.038795 133.434875 
z
" style="fill:#2ca02c;"/>
   </g>
   <g id="patch_37">
    <path clip-path="url(#pa4b43ffd5f)" d="M 524.534173 136.866679 
L 560.130475 136.866679 
L 560.130475 130.102066 
L 524.534173 130.102066 
z
" style="fill:#2ca02c;"/>
   </g>
   <g id="patch_38">
    <path clip-path="url(#pa4b43ffd5f)" d="M 569.02955 125.713317 
L 604.625852 125.713317 
L 604.625852 125.614322 
L 569.02955 125.614322 
z
" style="fill:#2ca02c;"/>
   </g>
   <g id="patch_39">
    <path clip-path="url(#pa4b43ffd5f)" d="M 79.580398 89.118408 
L 115.1767 89.118408 
L 115.1767 88.920419 
L 79.580398 88.920419 
z
" style="fill:#d62728;"/>
   </g>
   <g id="patch_40">
    <path clip-path="url(#pa4b43ffd5f)" d="M 124.075775 138.021613 
L 159.672077 138.021613 
L 159.672077 137.889621 
L 124.075775 137.889621 
z
" style="fill:#d62728;"/>
   </g>
   <g id="patch_41">
    <path clip-path="url(#pa4b43ffd5f)" d="M 168.571153 56.87925 
L 204.167455 56.87925 
L 204.167455 56.582267 
L 168.571153 56.582267 
z
" style="fill:#d62728;"/>
   </g>
   <g id="patch_42">
    <path clip-path="url(#pa4b43ffd5f)" d="M 213.06653 134.952789 
L 248.662832 134.952789 
L 248.662832 134.523813 
L 213.06653 134.523813 
z
" style="fill:#d62728;"/>
   </g>
   <g id="patch_43">
    <path clip-path="url(#pa4b43ffd5f)" d="M 257.561908 138.2526 
L 293.15821 138.2526 
L 293.15821 138.08761 
L 257.561908 138.08761 
z
" style="fill:#d62728;"/>
   </g>
   <g id="patch_44">
    <path clip-path="url(#pa4b43ffd5f)" d="M 302.057285 132.642921 
L 337.653587 132.642921 
L 337.653587 132.31294 
L 302.057285 132.31294 
z
" style="fill:#d62728;"/>
   </g>
   <g id="patch_45">
    <path clip-path="url(#pa4b43ffd5f)" d="M 346.552663 127.561211 
L 382.148965 127.561211 
L 382.148965 127.132236 
L 346.552663 127.132236 
z
" style="fill:#d62728;"/>
   </g>
   <g id="patch_46">
    <path clip-path="url(#pa4b43ffd5f)" d="M 391.04804 136.998672 
L 426.644342 136.998672 
L 426.644342 136.833681 
L 391.04804 136.833681 
z
" style="fill:#d62728;"/>
   </g>
   <g id="patch_47">
    <path clip-path="url(#pa4b43ffd5f)" d="M 435.543418 130.663034 
L 471.13972 130.663034 
L 471.13972 99.479816 
L 435.543418 99.479816 
z
" style="fill:#d62728;"/>
   </g>
   <g id="patch_48">
    <path clip-path="url(#pa4b43ffd5f)" d="M 480.038795 133.434875 
L 515.635097 133.434875 
L 515.635097 133.038898 
L 480.038795 133.038898 
z
" style="fill:#d62728;"/>
   </g>
   <g id="patch_49">
    <path clip-path="url(#pa4b43ffd5f)" d="M 524.534173 130.102066 
L 560.130475 130.102066 
L 560.130475 129.739087 
L 524.534173 129.739087 
z
" style="fill:#d62728;"/>
   </g>
   <g id="patch_50">
    <path clip-path="url(#pa4b43ffd5f)" d="M 569.02955 125.614322 
L 604.625852 125.614322 
L 604.625852 125.119351 
L 569.02955 125.119351 
z
" style="fill:#d62728;"/>
   </g>
   <g id="patch_51">
    <path clip-path="url(#pa4b43ffd5f)" d="M 79.580398 88.920419 
L 115.1767 88.920419 
L 115.1767 88.689432 
L 79.580398 88.689432 
z
" style="fill:#9467bd;"/>
   </g>
   <g id="patch_52">
    <path clip-path="url(#pa4b43ffd5f)" d="M 124.075775 137.889621 
L 159.672077 137.889621 
L 159.672077 137.55964 
L 124.075775 137.55964 
z
" style="fill:#9467bd;"/>
   </g>
   <g id="patch_53">
    <path clip-path="url(#pa4b43ffd5f)" d="M 168.571153 56.582267 
L 204.167455 56.582267 
L 204.167455 56.153292 
L 168.571153 56.153292 
z
" style="fill:#9467bd;"/>
   </g>
   <g id="patch_54">
    <path clip-path="url(#pa4b43ffd5f)" d="M 213.06653 134.523813 
L 248.662832 134.523813 
L 248.662832 134.094838 
L 213.06653 134.094838 
z
" style="fill:#9467bd;"/>
   </g>
   <g id="patch_55">
    <path clip-path="url(#pa4b43ffd5f)" d="M 257.561908 138.08761 
L 293.15821 138.08761 
L 293.15821 137.790627 
L 257.561908 137.790627 
z
" style="fill:#9467bd;"/>
   </g>
   <g id="patch_56">
    <path clip-path="url(#pa4b43ffd5f)" d="M 302.057285 132.31294 
L 337.653587 132.31294 
L 337.653587 131.718974 
L 302.057285 131.718974 
z
" style="fill:#9467bd;"/>
   </g>
   <g id="patch_57">
    <path clip-path="url(#pa4b43ffd5f)" d="M 346.552663 127.132236 
L 382.148965 127.132236 
L 382.148965 126.505271 
L 346.552663 126.505271 
z
" style="fill:#9467bd;"/>
   </g>
   <g id="patch_58">
    <path clip-path="url(#pa4b43ffd5f)" d="M 391.04804 136.833681 
L 426.644342 136.833681 
L 426.644342 136.371708 
L 391.04804 136.371708 
z
" style="fill:#9467bd;"/>
   </g>
   <g id="patch_59">
    <path clip-path="url(#pa4b43ffd5f)" d="M 435.543418 99.479816 
L 471.13972 99.479816 
L 471.13972 98.555869 
L 435.543418 98.555869 
z
" style="fill:#9467bd;"/>
   </g>
   <g id="patch_60">
    <path clip-path="url(#pa4b43ffd5f)" d="M 480.038795 133.038898 
L 515.635097 133.038898 
L 515.635097 110.60018 
L 480.038795 110.60018 
z
" style="fill:#9467bd;"/>
   </g>
   <g id="patch_61">
    <path clip-path="url(#pa4b43ffd5f)" d="M 524.534173 129.739087 
L 560.130475 129.739087 
L 560.130475 129.343109 
L 524.534173 129.343109 
z
" style="fill:#9467bd;"/>
   </g>
   <g id="patch_62">
    <path clip-path="url(#pa4b43ffd5f)" d="M 569.02955 125.119351 
L 604.625852 125.119351 
L 604.625852 124.294398 
L 569.02955 124.294398 
z
" style="fill:#9467bd;"/>
   </g>
   <g id="patch_63">
    <path clip-path="url(#pa4b43ffd5f)" d="M 79.580398 88.689432 
L 115.1767 88.689432 
L 115.1767 87.666491 
L 79.580398 87.666491 
z
" style="fill:#8c564b;"/>
   </g>
   <g id="patch_64">
    <path clip-path="url(#pa4b43ffd5f)" d="M 124.075775 137.55964 
L 159.672077 137.55964 
L 159.672077 136.437704 
L 124.075775 136.437704 
z
" style="fill:#8c564b;"/>
   </g>
   <g id="patch_65">
    <path clip-path="url(#pa4b43ffd5f)" d="M 168.571153 56.153292 
L 204.167455 56.153292 
L 204.167455 55.097352 
L 168.571153 55.097352 
z
" style="fill:#8c564b;"/>
   </g>
   <g id="patch_66">
    <path clip-path="url(#pa4b43ffd5f)" d="M 213.06653 134.094838 
L 248.662832 134.094838 
L 248.662832 132.609923 
L 213.06653 132.609923 
z
" style="fill:#8c564b;"/>
   </g>
   <g id="patch_67">
    <path clip-path="url(#pa4b43ffd5f)" d="M 257.561908 137.790627 
L 293.15821 137.790627 
L 293.15821 137.097666 
L 257.561908 137.097666 
z
" style="fill:#8c564b;"/>
   </g>
   <g id="patch_68">
    <path clip-path="url(#pa4b43ffd5f)" d="M 302.057285 131.718974 
L 337.653587 131.718974 
L 337.653587 130.465045 
L 302.057285 130.465045 
z
" style="fill:#8c564b;"/>
   </g>
   <g id="patch_69">
    <path clip-path="url(#pa4b43ffd5f)" d="M 346.552663 126.505271 
L 382.148965 126.505271 
L 382.148965 125.152349 
L 346.552663 125.152349 
z
" style="fill:#8c564b;"/>
   </g>
   <g id="patch_70">
    <path clip-path="url(#pa4b43ffd5f)" d="M 391.04804 136.371708 
L 426.644342 136.371708 
L 426.644342 135.480759 
L 391.04804 135.480759 
z
" style="fill:#8c564b;"/>
   </g>
   <g id="patch_71">
    <path clip-path="url(#pa4b43ffd5f)" d="M 435.543418 98.555869 
L 471.13972 98.555869 
L 471.13972 96.278999 
L 435.543418 96.278999 
z
" style="fill:#8c564b;"/>
   </g>
   <g id="patch_72">
    <path clip-path="url(#pa4b43ffd5f)" d="M 480.038795 110.60018 
L 515.635097 110.60018 
L 515.635097 109.247258 
L 480.038795 109.247258 
z
" style="fill:#8c564b;"/>
   </g>
   <g id="patch_73">
    <path clip-path="url(#pa4b43ffd5f)" d="M 524.534173 129.343109 
L 560.130475 129.343109 
L 560.130475 128.386164 
L 524.534173 128.386164 
z
" style="fill:#8c564b;"/>
   </g>
   <g id="patch_74">
    <path clip-path="url(#pa4b43ffd5f)" d="M 569.02955 124.294398 
L 604.625852 124.294398 
L 604.625852 110.897163 
L 569.02955 110.897163 
z
" style="fill:#8c564b;"/>
   </g>
   <g id="patch_75">
    <path clip-path="url(#pa4b43ffd5f)" d="M 79.580398 87.666491 
L 115.1767 87.666491 
L 115.1767 86.742544 
L 79.580398 86.742544 
z
" style="fill:#e377c2;"/>
   </g>
   <g id="patch_76">
    <path clip-path="url(#pa4b43ffd5f)" d="M 124.075775 136.437704 
L 159.672077 136.437704 
L 159.672077 135.249772 
L 124.075775 135.249772 
z
" style="fill:#e377c2;"/>
   </g>
   <g id="patch_77">
    <path clip-path="url(#pa4b43ffd5f)" d="M 168.571153 55.097352 
L 204.167455 55.097352 
L 204.167455 54.239401 
L 168.571153 54.239401 
z
" style="fill:#e377c2;"/>
   </g>
   <g id="patch_78">
    <path clip-path="url(#pa4b43ffd5f)" d="M 213.06653 132.609923 
L 248.662832 132.609923 
L 248.662832 130.597038 
L 213.06653 130.597038 
z
" style="fill:#e377c2;"/>
   </g>
   <g id="patch_79">
    <path clip-path="url(#pa4b43ffd5f)" d="M 257.561908 137.097666 
L 293.15821 137.097666 
L 293.15821 136.041727 
L 257.561908 136.041727 
z
" style="fill:#e377c2;"/>
   </g>
   <g id="patch_80">
    <path clip-path="url(#pa4b43ffd5f)" d="M 302.057285 130.465045 
L 337.653587 130.465045 
L 337.653587 128.45216 
L 302.057285 128.45216 
z
" style="fill:#e377c2;"/>
   </g>
   <g id="patch_81">
    <path clip-path="url(#pa4b43ffd5f)" d="M 346.552663 125.152349 
L 382.148965 125.152349 
L 382.148965 123.667434 
L 346.552663 123.667434 
z
" style="fill:#e377c2;"/>
   </g>
   <g id="patch_82">
    <path clip-path="url(#pa4b43ffd5f)" d="M 391.04804 135.480759 
L 426.644342 135.480759 
L 426.644342 134.523813 
L 391.04804 134.523813 
z
" style="fill:#e377c2;"/>
   </g>
   <g id="patch_83">
    <path clip-path="url(#pa4b43ffd5f)" d="M 435.543418 96.278999 
L 471.13972 96.278999 
L 471.13972 92.616208 
L 435.543418 92.616208 
z
" style="fill:#e377c2;"/>
   </g>
   <g id="patch_84">
    <path clip-path="url(#pa4b43ffd5f)" d="M 480.038795 109.247258 
L 515.635097 109.247258 
L 515.635097 107.795341 
L 480.038795 107.795341 
z
" style="fill:#e377c2;"/>
   </g>
   <g id="patch_85">
    <path clip-path="url(#pa4b43ffd5f)" d="M 524.534173 128.386164 
L 560.130475 128.386164 
L 560.130475 127.066239 
L 524.534173 127.066239 
z
" style="fill:#e377c2;"/>
   </g>
   <g id="patch_86">
    <path clip-path="url(#pa4b43ffd5f)" d="M 569.02955 110.897163 
L 604.625852 110.897163 
L 604.625852 108.785284 
L 569.02955 108.785284 
z
" style="fill:#e377c2;"/>
   </g>
   <g id="patch_87">
    <path clip-path="url(#pa4b43ffd5f)" d="M 79.580398 86.742544 
L 115.1767 86.742544 
L 115.1767 86.049583 
L 79.580398 86.049583 
z
" style="fill:#7f7f7f;"/>
   </g>
   <g id="patch_88">
    <path clip-path="url(#pa4b43ffd5f)" d="M 124.075775 135.249772 
L 159.672077 135.249772 
L 159.672077 134.22683 
L 124.075775 134.22683 
z
" style="fill:#7f7f7f;"/>
   </g>
   <g id="patch_89">
    <path clip-path="url(#pa4b43ffd5f)" d="M 168.571153 54.239401 
L 204.167455 54.239401 
L 204.167455 53.348452 
L 168.571153 53.348452 
z
" style="fill:#7f7f7f;"/>
   </g>
   <g id="patch_90">
    <path clip-path="url(#pa4b43ffd5f)" d="M 213.06653 130.597038 
L 248.662832 130.597038 
L 248.662832 129.310111 
L 213.06653 129.310111 
z
" style="fill:#7f7f7f;"/>
   </g>
   <g id="patch_91">
    <path clip-path="url(#pa4b43ffd5f)" d="M 257.561908 136.041727 
L 293.15821 136.041727 
L 293.15821 135.216774 
L 257.561908 135.216774 
z
" style="fill:#7f7f7f;"/>
   </g>
   <g id="patch_92">
    <path clip-path="url(#pa4b43ffd5f)" d="M 302.057285 128.45216 
L 337.653587 128.45216 
L 337.653587 126.934247 
L 302.057285 126.934247 
z
" style="fill:#7f7f7f;"/>
   </g>
   <g id="patch_93">
    <path clip-path="url(#pa4b43ffd5f)" d="M 346.552663 123.667434 
L 382.148965 123.667434 
L 382.148965 122.776485 
L 346.552663 122.776485 
z
" style="fill:#7f7f7f;"/>
   </g>
   <g id="patch_94">
    <path clip-path="url(#pa4b43ffd5f)" d="M 391.04804 134.523813 
L 426.644342 134.523813 
L 426.644342 133.53387 
L 391.04804 133.53387 
z
" style="fill:#7f7f7f;"/>
   </g>
   <g id="patch_95">
    <path clip-path="url(#pa4b43ffd5f)" d="M 435.543418 92.616208 
L 471.13972 92.616208 
L 471.13972 89.910363 
L 435.543418 89.910363 
z
" style="fill:#7f7f7f;"/>
   </g>
   <g id="patch_96">
    <path clip-path="url(#pa4b43ffd5f)" d="M 480.038795 107.795341 
L 515.635097 107.795341 
L 515.635097 106.541412 
L 480.038795 106.541412 
z
" style="fill:#7f7f7f;"/>
   </g>
   <g id="patch_97">
    <path clip-path="url(#pa4b43ffd5f)" d="M 524.534173 127.066239 
L 560.130475 127.066239 
L 560.130475 126.373279 
L 524.534173 126.373279 
z
" style="fill:#7f7f7f;"/>
   </g>
   <g id="patch_98">
    <path clip-path="url(#pa4b43ffd5f)" d="M 569.02955 108.785284 
L 604.625852 108.785284 
L 604.625852 107.003386 
L 569.02955 107.003386 
z
" style="fill:#7f7f7f;"/>
   </g>
   <g id="patch_99">
    <path clip-path="url(#pa4b43ffd5f)" d="M 79.580398 86.049583 
L 115.1767 86.049583 
L 115.1767 85.092638 
L 79.580398 85.092638 
z
" style="fill:#bcbd22;"/>
   </g>
   <g id="patch_100">
    <path clip-path="url(#pa4b43ffd5f)" d="M 124.075775 134.22683 
L 159.672077 134.22683 
L 159.672077 133.368879 
L 124.075775 133.368879 
z
" style="fill:#bcbd22;"/>
   </g>
   <g id="patch_101">
    <path clip-path="url(#pa4b43ffd5f)" d="M 168.571153 53.348452 
L 204.167455 53.348452 
L 204.167455 52.787484 
L 168.571153 52.787484 
z
" style="fill:#bcbd22;"/>
   </g>
   <g id="patch_102">
    <path clip-path="url(#pa4b43ffd5f)" d="M 213.06653 129.310111 
L 248.662832 129.310111 
L 248.662832 127.726202 
L 213.06653 127.726202 
z
" style="fill:#bcbd22;"/>
   </g>
   <g id="patch_103">
    <path clip-path="url(#pa4b43ffd5f)" d="M 257.561908 135.216774 
L 293.15821 135.216774 
L 293.15821 134.7548 
L 257.561908 134.7548 
z
" style="fill:#bcbd22;"/>
   </g>
   <g id="patch_104">
    <path clip-path="url(#pa4b43ffd5f)" d="M 302.057285 126.934247 
L 337.653587 126.934247 
L 337.653587 125.614322 
L 302.057285 125.614322 
z
" style="fill:#bcbd22;"/>
   </g>
   <g id="patch_105">
    <path clip-path="url(#pa4b43ffd5f)" d="M 346.552663 122.776485 
L 382.148965 122.776485 
L 382.148965 122.017528 
L 346.552663 122.017528 
z
" style="fill:#bcbd22;"/>
   </g>
   <g id="patch_106">
    <path clip-path="url(#pa4b43ffd5f)" d="M 391.04804 133.53387 
L 426.644342 133.53387 
L 426.644342 132.873908 
L 391.04804 132.873908 
z
" style="fill:#bcbd22;"/>
   </g>
   <g id="patch_107">
    <path clip-path="url(#pa4b43ffd5f)" d="M 435.543418 89.910363 
L 471.13972 89.910363 
L 471.13972 87.33651 
L 435.543418 87.33651 
z
" style="fill:#bcbd22;"/>
   </g>
   <g id="patch_108">
    <path clip-path="url(#pa4b43ffd5f)" d="M 480.038795 106.541412 
L 515.635097 106.541412 
L 515.635097 105.650463 
L 480.038795 105.650463 
z
" style="fill:#bcbd22;"/>
   </g>
   <g id="patch_109">
    <path clip-path="url(#pa4b43ffd5f)" d="M 524.534173 126.373279 
L 560.130475 126.373279 
L 560.130475 124.888364 
L 524.534173 124.888364 
z
" style="fill:#bcbd22;"/>
   </g>
   <g id="patch_110">
    <path clip-path="url(#pa4b43ffd5f)" d="M 569.02955 107.003386 
L 604.625852 107.003386 
L 604.625852 104.82551 
L 569.02955 104.82551 
z
" style="fill:#bcbd22;"/>
   </g>
   <g id="patch_111">
    <path clip-path="url(#pa4b43ffd5f)" d="M 79.580398 85.092638 
L 115.1767 85.092638 
L 115.1767 84.663662 
L 79.580398 84.663662 
z
" style="fill:#17becf;"/>
   </g>
   <g id="patch_112">
    <path clip-path="url(#pa4b43ffd5f)" d="M 124.075775 133.368879 
L 159.672077 133.368879 
L 159.672077 133.071896 
L 124.075775 133.071896 
z
" style="fill:#17becf;"/>
   </g>
   <g id="patch_113">
    <path clip-path="url(#pa4b43ffd5f)" d="M 168.571153 52.787484 
L 204.167455 52.787484 
L 204.167455 52.193518 
L 168.571153 52.193518 
z
" style="fill:#17becf;"/>
   </g>
   <g id="patch_114">
    <path clip-path="url(#pa4b43ffd5f)" d="M 213.06653 127.726202 
L 248.662832 127.726202 
L 248.662832 127.297226 
L 213.06653 127.297226 
z
" style="fill:#17becf;"/>
   </g>
   <g id="patch_115">
    <path clip-path="url(#pa4b43ffd5f)" d="M 257.561908 134.7548 
L 293.15821 134.7548 
L 293.15821 134.424819 
L 257.561908 134.424819 
z
" style="fill:#17becf;"/>
   </g>
   <g id="patch_116">
    <path clip-path="url(#pa4b43ffd5f)" d="M 302.057285 125.614322 
L 337.653587 125.614322 
L 337.653587 123.337452 
L 302.057285 123.337452 
z
" style="fill:#17becf;"/>
   </g>
   <g id="patch_117">
    <path clip-path="url(#pa4b43ffd5f)" d="M 346.552663 122.017528 
L 382.148965 122.017528 
L 382.148965 120.796598 
L 346.552663 120.796598 
z
" style="fill:#17becf;"/>
   </g>
   <g id="patch_118">
    <path clip-path="url(#pa4b43ffd5f)" d="M 391.04804 132.873908 
L 426.644342 132.873908 
L 426.644342 131.982958 
L 391.04804 131.982958 
z
" style="fill:#17becf;"/>
   </g>
   <g id="patch_119">
    <path clip-path="url(#pa4b43ffd5f)" d="M 435.543418 87.33651 
L 471.13972 87.33651 
L 471.13972 85.521613 
L 435.543418 85.521613 
z
" style="fill:#17becf;"/>
   </g>
   <g id="patch_120">
    <path clip-path="url(#pa4b43ffd5f)" d="M 480.038795 105.650463 
L 515.635097 105.650463 
L 515.635097 104.891507 
L 480.038795 104.891507 
z
" style="fill:#17becf;"/>
   </g>
   <g id="patch_121">
    <path clip-path="url(#pa4b43ffd5f)" d="M 524.534173 124.888364 
L 560.130475 124.888364 
L 560.130475 124.063411 
L 524.534173 124.063411 
z
" style="fill:#17becf;"/>
   </g>
   <g id="patch_122">
    <path clip-path="url(#pa4b43ffd5f)" d="M 569.02955 104.82551 
L 604.625852 104.82551 
L 604.625852 103.967559 
L 569.02955 103.967559 
z
" style="fill:#17becf;"/>
   </g>
   <g id="patch_123">
    <path clip-path="url(#pa4b43ffd5f)" d="M 79.580398 84.663662 
L 115.1767 84.663662 
L 115.1767 83.673719 
L 79.580398 83.673719 
z
" style="fill:#1f77b4;"/>
   </g>
   <g id="patch_124">
    <path clip-path="url(#pa4b43ffd5f)" d="M 124.075775 133.071896 
L 159.672077 133.071896 
L 159.672077 132.279941 
L 124.075775 132.279941 
z
" style="fill:#1f77b4;"/>
   </g>
   <g id="patch_125">
    <path clip-path="url(#pa4b43ffd5f)" d="M 168.571153 52.193518 
L 204.167455 52.193518 
L 204.167455 51.566554 
L 168.571153 51.566554 
z
" style="fill:#1f77b4;"/>
   </g>
   <g id="patch_126">
    <path clip-path="url(#pa4b43ffd5f)" d="M 213.06653 127.297226 
L 248.662832 127.297226 
L 248.662832 125.944304 
L 213.06653 125.944304 
z
" style="fill:#1f77b4;"/>
   </g>
   <g id="patch_127">
    <path clip-path="url(#pa4b43ffd5f)" d="M 257.561908 134.424819 
L 293.15821 134.424819 
L 293.15821 133.764857 
L 257.561908 133.764857 
z
" style="fill:#1f77b4;"/>
   </g>
   <g id="patch_128">
    <path clip-path="url(#pa4b43ffd5f)" d="M 302.057285 123.337452 
L 337.653587 123.337452 
L 337.653587 122.67749 
L 302.057285 122.67749 
z
" style="fill:#1f77b4;"/>
   </g>
   <g id="patch_129">
    <path clip-path="url(#pa4b43ffd5f)" d="M 346.552663 120.796598 
L 382.148965 120.796598 
L 382.148965 120.23563 
L 346.552663 120.23563 
z
" style="fill:#1f77b4;"/>
   </g>
   <g id="patch_130">
    <path clip-path="url(#pa4b43ffd5f)" d="M 391.04804 131.982958 
L 426.644342 131.982958 
L 426.644342 131.619979 
L 391.04804 131.619979 
z
" style="fill:#1f77b4;"/>
   </g>
   <g id="patch_131">
    <path clip-path="url(#pa4b43ffd5f)" d="M 435.543418 85.521613 
L 471.13972 85.521613 
L 471.13972 83.706717 
L 435.543418 83.706717 
z
" style="fill:#1f77b4;"/>
   </g>
   <g id="patch_132">
    <path clip-path="url(#pa4b43ffd5f)" d="M 480.038795 104.891507 
L 515.635097 104.891507 
L 515.635097 103.934561 
L 480.038795 103.934561 
z
" style="fill:#1f77b4;"/>
   </g>
   <g id="patch_133">
    <path clip-path="url(#pa4b43ffd5f)" d="M 524.534173 124.063411 
L 560.130475 124.063411 
L 560.130475 123.304454 
L 524.534173 123.304454 
z
" style="fill:#1f77b4;"/>
   </g>
   <g id="patch_134">
    <path clip-path="url(#pa4b43ffd5f)" d="M 569.02955 103.967559 
L 604.625852 103.967559 
L 604.625852 102.845623 
L 569.02955 102.845623 
z
" style="fill:#1f77b4;"/>
   </g>
   <g id="patch_135">
    <path clip-path="url(#pa4b43ffd5f)" d="M 79.580398 83.673719 
L 115.1767 83.673719 
L 115.1767 82.914762 
L 79.580398 82.914762 
z
" style="fill:#ff7f0e;"/>
   </g>
   <g id="patch_136">
    <path clip-path="url(#pa4b43ffd5f)" d="M 124.075775 132.279941 
L 159.672077 132.279941 
L 159.672077 131.520985 
L 124.075775 131.520985 
z
" style="fill:#ff7f0e;"/>
   </g>
   <g id="patch_137">
    <path clip-path="url(#pa4b43ffd5f)" d="M 168.571153 51.566554 
L 204.167455 51.566554 
L 204.167455 50.840595 
L 168.571153 50.840595 
z
" style="fill:#ff7f0e;"/>
   </g>
   <g id="patch_138">
    <path clip-path="url(#pa4b43ffd5f)" d="M 213.06653 125.944304 
L 248.662832 125.944304 
L 248.662832 124.987358 
L 213.06653 124.987358 
z
" style="fill:#ff7f0e;"/>
   </g>
   <g id="patch_139">
    <path clip-path="url(#pa4b43ffd5f)" d="M 257.561908 133.764857 
L 293.15821 133.764857 
L 293.15821 133.104894 
L 257.561908 133.104894 
z
" style="fill:#ff7f0e;"/>
   </g>
   <g id="patch_140">
    <path clip-path="url(#pa4b43ffd5f)" d="M 302.057285 122.67749 
L 337.653587 122.67749 
L 337.653587 121.423562 
L 302.057285 121.423562 
z
" style="fill:#ff7f0e;"/>
   </g>
   <g id="patch_141">
    <path clip-path="url(#pa4b43ffd5f)" d="M 346.552663 120.23563 
L 382.148965 120.23563 
L 382.148965 119.542669 
L 346.552663 119.542669 
z
" style="fill:#ff7f0e;"/>
   </g>
   <g id="patch_142">
    <path clip-path="url(#pa4b43ffd5f)" d="M 391.04804 131.619979 
L 426.644342 131.619979 
L 426.644342 131.092009 
L 391.04804 131.092009 
z
" style="fill:#ff7f0e;"/>
   </g>
   <g id="patch_143">
    <path clip-path="url(#pa4b43ffd5f)" d="M 435.543418 83.706717 
L 471.13972 83.706717 
L 471.13972 82.518785 
L 435.543418 82.518785 
z
" style="fill:#ff7f0e;"/>
   </g>
   <g id="patch_144">
    <path clip-path="url(#pa4b43ffd5f)" d="M 480.038795 103.934561 
L 515.635097 103.934561 
L 515.635097 102.680633 
L 480.038795 102.680633 
z
" style="fill:#ff7f0e;"/>
   </g>
   <g id="patch_145">
    <path clip-path="url(#pa4b43ffd5f)" d="M 524.534173 123.304454 
L 560.130475 123.304454 
L 560.130475 122.5125 
L 524.534173 122.5125 
z
" style="fill:#ff7f0e;"/>
   </g>
   <g id="patch_146">
    <path clip-path="url(#pa4b43ffd5f)" d="M 569.02955 102.845623 
L 604.625852 102.845623 
L 604.625852 101.756686 
L 569.02955 101.756686 
z
" style="fill:#ff7f0e;"/>
   </g>
   <g id="patch_147">
    <path clip-path="url(#pa4b43ffd5f)" d="M 79.580398 82.914762 
L 115.1767 82.914762 
L 115.1767 82.089809 
L 79.580398 82.089809 
z
" style="fill:#2ca02c;"/>
   </g>
   <g id="patch_148">
    <path clip-path="url(#pa4b43ffd5f)" d="M 124.075775 131.520985 
L 159.672077 131.520985 
L 159.672077 130.762028 
L 124.075775 130.762028 
z
" style="fill:#2ca02c;"/>
   </g>
   <g id="patch_149">
    <path clip-path="url(#pa4b43ffd5f)" d="M 168.571153 50.840595 
L 204.167455 50.840595 
L 204.167455 50.312625 
L 168.571153 50.312625 
z
" style="fill:#2ca02c;"/>
   </g>
   <g id="patch_150">
    <path clip-path="url(#pa4b43ffd5f)" d="M 213.06653 124.987358 
L 248.662832 124.987358 
L 248.662832 123.799426 
L 213.06653 123.799426 
z
" style="fill:#2ca02c;"/>
   </g>
   <g id="patch_151">
    <path clip-path="url(#pa4b43ffd5f)" d="M 257.561908 133.104894 
L 293.15821 133.104894 
L 293.15821 132.510928 
L 257.561908 132.510928 
z
" style="fill:#2ca02c;"/>
   </g>
   <g id="patch_152">
    <path clip-path="url(#pa4b43ffd5f)" d="M 302.057285 121.423562 
L 337.653587 121.423562 
L 337.653587 120.499615 
L 302.057285 120.499615 
z
" style="fill:#2ca02c;"/>
   </g>
   <g id="patch_153">
    <path clip-path="url(#pa4b43ffd5f)" d="M 346.552663 119.542669 
L 382.148965 119.542669 
L 382.148965 118.882707 
L 346.552663 118.882707 
z
" style="fill:#2ca02c;"/>
   </g>
   <g id="patch_154">
    <path clip-path="url(#pa4b43ffd5f)" d="M 391.04804 131.092009 
L 426.644342 131.092009 
L 426.644342 130.762028 
L 391.04804 130.762028 
z
" style="fill:#2ca02c;"/>
   </g>
   <g id="patch_155">
    <path clip-path="url(#pa4b43ffd5f)" d="M 435.543418 82.518785 
L 471.13972 82.518785 
L 471.13972 80.868879 
L 435.543418 80.868879 
z
" style="fill:#2ca02c;"/>
   </g>
   <g id="patch_156">
    <path clip-path="url(#pa4b43ffd5f)" d="M 480.038795 102.680633 
L 515.635097 102.680633 
L 515.635097 101.987672 
L 480.038795 101.987672 
z
" style="fill:#2ca02c;"/>
   </g>
   <g id="patch_157">
    <path clip-path="url(#pa4b43ffd5f)" d="M 524.534173 122.5125 
L 560.130475 122.5125 
L 560.130475 121.786541 
L 524.534173 121.786541 
z
" style="fill:#2ca02c;"/>
   </g>
   <g id="patch_158">
    <path clip-path="url(#pa4b43ffd5f)" d="M 569.02955 101.756686 
L 604.625852 101.756686 
L 604.625852 100.79974 
L 569.02955 100.79974 
z
" style="fill:#2ca02c;"/>
   </g>
   <g id="patch_159">
    <path clip-path="url(#pa4b43ffd5f)" d="M 79.580398 82.089809 
L 115.1767 82.089809 
L 115.1767 81.330853 
L 79.580398 81.330853 
z
" style="fill:#d62728;"/>
   </g>
   <g id="patch_160">
    <path clip-path="url(#pa4b43ffd5f)" d="M 124.075775 130.762028 
L 159.672077 130.762028 
L 159.672077 130.102066 
L 124.075775 130.102066 
z
" style="fill:#d62728;"/>
   </g>
   <g id="patch_161">
    <path clip-path="url(#pa4b43ffd5f)" d="M 168.571153 50.312625 
L 204.167455 50.312625 
L 204.167455 49.586667 
L 168.571153 49.586667 
z
" style="fill:#d62728;"/>
   </g>
   <g id="patch_162">
    <path clip-path="url(#pa4b43ffd5f)" d="M 213.06653 123.799426 
L 248.662832 123.799426 
L 248.662832 123.007471 
L 213.06653 123.007471 
z
" style="fill:#d62728;"/>
   </g>
   <g id="patch_163">
    <path clip-path="url(#pa4b43ffd5f)" d="M 257.561908 132.510928 
L 293.15821 132.510928 
L 293.15821 131.883964 
L 257.561908 131.883964 
z
" style="fill:#d62728;"/>
   </g>
   <g id="patch_164">
    <path clip-path="url(#pa4b43ffd5f)" d="M 302.057285 120.499615 
L 337.653587 120.499615 
L 337.653587 119.509671 
L 302.057285 119.509671 
z
" style="fill:#d62728;"/>
   </g>
   <g id="patch_165">
    <path clip-path="url(#pa4b43ffd5f)" d="M 346.552663 118.882707 
L 382.148965 118.882707 
L 382.148965 117.95876 
L 346.552663 117.95876 
z
" style="fill:#d62728;"/>
   </g>
   <g id="patch_166">
    <path clip-path="url(#pa4b43ffd5f)" d="M 391.04804 130.762028 
L 426.644342 130.762028 
L 426.644342 129.871079 
L 391.04804 129.871079 
z
" style="fill:#d62728;"/>
   </g>
   <g id="patch_167">
    <path clip-path="url(#pa4b43ffd5f)" d="M 435.543418 80.868879 
L 471.13972 80.868879 
L 471.13972 80.076924 
L 435.543418 80.076924 
z
" style="fill:#d62728;"/>
   </g>
   <g id="patch_168">
    <path clip-path="url(#pa4b43ffd5f)" d="M 480.038795 101.987672 
L 515.635097 101.987672 
L 515.635097 101.195718 
L 480.038795 101.195718 
z
" style="fill:#d62728;"/>
   </g>
   <g id="patch_169">
    <path clip-path="url(#pa4b43ffd5f)" d="M 524.534173 121.786541 
L 560.130475 121.786541 
L 560.130475 121.324567 
L 524.534173 121.324567 
z
" style="fill:#d62728;"/>
   </g>
   <g id="patch_170">
    <path clip-path="url(#pa4b43ffd5f)" d="M 569.02955 100.79974 
L 604.625852 100.79974 
L 604.625852 100.370765 
L 569.02955 100.370765 
z
" style="fill:#d62728;"/>
   </g>
   <g id="patch_171">
    <path clip-path="url(#pa4b43ffd5f)" d="M 79.580398 81.330853 
L 115.1767 81.330853 
L 115.1767 80.901877 
L 79.580398 80.901877 
z
" style="fill:#9467bd;"/>
   </g>
   <g id="patch_172">
    <path clip-path="url(#pa4b43ffd5f)" d="M 124.075775 130.102066 
L 159.672077 130.102066 
L 159.672077 129.574096 
L 124.075775 129.574096 
z
" style="fill:#9467bd;"/>
   </g>
   <g id="patch_173">
    <path clip-path="url(#pa4b43ffd5f)" d="M 168.571153 49.586667 
L 204.167455 49.586667 
L 204.167455 49.322682 
L 168.571153 49.322682 
z
" style="fill:#9467bd;"/>
   </g>
   <g id="patch_174">
    <path clip-path="url(#pa4b43ffd5f)" d="M 213.06653 123.007471 
L 248.662832 123.007471 
L 248.662832 122.479501 
L 213.06653 122.479501 
z
" style="fill:#9467bd;"/>
   </g>
   <g id="patch_175">
    <path clip-path="url(#pa4b43ffd5f)" d="M 257.561908 131.883964 
L 293.15821 131.883964 
L 293.15821 131.388992 
L 257.561908 131.388992 
z
" style="fill:#9467bd;"/>
   </g>
   <g id="patch_176">
    <path clip-path="url(#pa4b43ffd5f)" d="M 302.057285 119.509671 
L 337.653587 119.509671 
L 337.653587 118.750715 
L 302.057285 118.750715 
z
" style="fill:#9467bd;"/>
   </g>
   <g id="patch_177">
    <path clip-path="url(#pa4b43ffd5f)" d="M 346.552663 117.95876 
L 382.148965 117.95876 
L 382.148965 117.166805 
L 346.552663 117.166805 
z
" style="fill:#9467bd;"/>
   </g>
   <g id="patch_178">
    <path clip-path="url(#pa4b43ffd5f)" d="M 391.04804 129.871079 
L 426.644342 129.871079 
L 426.644342 129.112122 
L 391.04804 129.112122 
z
" style="fill:#9467bd;"/>
   </g>
   <g id="patch_179">
    <path clip-path="url(#pa4b43ffd5f)" d="M 435.543418 80.076924 
L 471.13972 80.076924 
L 471.13972 79.317968 
L 435.543418 79.317968 
z
" style="fill:#9467bd;"/>
   </g>
   <g id="patch_180">
    <path clip-path="url(#pa4b43ffd5f)" d="M 480.038795 101.195718 
L 515.635097 101.195718 
L 515.635097 100.568754 
L 480.038795 100.568754 
z
" style="fill:#9467bd;"/>
   </g>
   <g id="patch_181">
    <path clip-path="url(#pa4b43ffd5f)" d="M 524.534173 121.324567 
L 560.130475 121.324567 
L 560.130475 120.598609 
L 524.534173 120.598609 
z
" style="fill:#9467bd;"/>
   </g>
   <g id="patch_182">
    <path clip-path="url(#pa4b43ffd5f)" d="M 569.02955 100.370765 
L 604.625852 100.370765 
L 604.625852 99.57881 
L 569.02955 99.57881 
z
" style="fill:#9467bd;"/>
   </g>
   <g id="patch_183">
    <path clip-path="url(#pa4b43ffd5f)" d="M 79.580398 80.901877 
L 115.1767 80.901877 
L 115.1767 71.563411 
L 79.580398 71.563411 
z
" style="fill:#8c564b;"/>
   </g>
   <g id="patch_184">
    <path clip-path="url(#pa4b43ffd5f)" d="M 124.075775 129.574096 
L 159.672077 129.574096 
L 159.672077 121.192575 
L 124.075775 121.192575 
z
" style="fill:#8c564b;"/>
   </g>
   <g id="patch_185">
    <path clip-path="url(#pa4b43ffd5f)" d="M 168.571153 49.322682 
L 204.167455 49.322682 
L 204.167455 41.568125 
L 168.571153 41.568125 
z
" style="fill:#8c564b;"/>
   </g>
   <g id="patch_186">
    <path clip-path="url(#pa4b43ffd5f)" d="M 213.06653 122.479501 
L 248.662832 122.479501 
L 248.662832 111.425133 
L 213.06653 111.425133 
z
" style="fill:#8c564b;"/>
   </g>
   <g id="patch_187">
    <path clip-path="url(#pa4b43ffd5f)" d="M 257.561908 131.388992 
L 293.15821 131.388992 
L 293.15821 122.842481 
L 257.561908 122.842481 
z
" style="fill:#8c564b;"/>
   </g>
   <g id="patch_188">
    <path clip-path="url(#pa4b43ffd5f)" d="M 302.057285 118.750715 
L 337.653587 118.750715 
L 337.653587 100.63475 
L 302.057285 100.63475 
z
" style="fill:#8c564b;"/>
   </g>
   <g id="patch_189">
    <path clip-path="url(#pa4b43ffd5f)" d="M 346.552663 117.166805 
L 382.148965 117.166805 
L 382.148965 106.541412 
L 346.552663 106.541412 
z
" style="fill:#8c564b;"/>
   </g>
   <g id="patch_190">
    <path clip-path="url(#pa4b43ffd5f)" d="M 391.04804 129.112122 
L 426.644342 129.112122 
L 426.644342 120.40062 
L 391.04804 120.40062 
z
" style="fill:#8c564b;"/>
   </g>
   <g id="patch_191">
    <path clip-path="url(#pa4b43ffd5f)" d="M 435.543418 79.317968 
L 471.13972 79.317968 
L 471.13972 59.486101 
L 435.543418 59.486101 
z
" style="fill:#8c564b;"/>
   </g>
   <g id="patch_192">
    <path clip-path="url(#pa4b43ffd5f)" d="M 480.038795 100.568754 
L 515.635097 100.568754 
L 515.635097 88.524442 
L 480.038795 88.524442 
z
" style="fill:#8c564b;"/>
   </g>
   <g id="patch_193">
    <path clip-path="url(#pa4b43ffd5f)" d="M 524.534173 120.598609 
L 560.130475 120.598609 
L 560.130475 107.498358 
L 524.534173 107.498358 
z
" style="fill:#8c564b;"/>
   </g>
   <g id="patch_194">
    <path clip-path="url(#pa4b43ffd5f)" d="M 569.02955 99.57881 
L 604.625852 99.57881 
L 604.625852 84.168691 
L 569.02955 84.168691 
z
" style="fill:#8c564b;"/>
   </g>
   <g id="matplotlib.axis_1">
    <g id="xtick_1">
     <g id="line2d_1">
      <defs>
       <path d="M 0 0 
L 0 3.5 
" id="m16889d6b33" style="stroke:#000000;stroke-width:0.8;"/>
      </defs>
      <g>
       <use style="stroke:#000000;stroke-width:0.8;" x="97.378549" xlink:href="#m16889d6b33" y="146.568125"/>
      </g>
     </g>
     <g id="text_1">
      <!-- Marrakesh ICANN55 -->
      <defs>
       <path d="M 9.8125 72.90625 
L 24.515625 72.90625 
L 43.109375 23.296875 
L 61.8125 72.90625 
L 76.515625 72.90625 
L 76.515625 0 
L 66.890625 0 
L 66.890625 64.015625 
L 48.09375 14.015625 
L 38.1875 14.015625 
L 19.390625 64.015625 
L 19.390625 0 
L 9.8125 0 
z
" id="DejaVuSans-77"/>
       <path d="M 34.28125 27.484375 
Q 23.390625 27.484375 19.1875 25 
Q 14.984375 22.515625 14.984375 16.5 
Q 14.984375 11.71875 18.140625 8.90625 
Q 21.296875 6.109375 26.703125 6.109375 
Q 34.1875 6.109375 38.703125 11.40625 
Q 43.21875 16.703125 43.21875 25.484375 
L 43.21875 27.484375 
z
M 52.203125 31.203125 
L 52.203125 0 
L 43.21875 0 
L 43.21875 8.296875 
Q 40.140625 3.328125 35.546875 0.953125 
Q 30.953125 -1.421875 24.3125 -1.421875 
Q 15.921875 -1.421875 10.953125 3.296875 
Q 6 8.015625 6 15.921875 
Q 6 25.140625 12.171875 29.828125 
Q 18.359375 34.515625 30.609375 34.515625 
L 43.21875 34.515625 
L 43.21875 35.40625 
Q 43.21875 41.609375 39.140625 45 
Q 35.0625 48.390625 27.6875 48.390625 
Q 23 48.390625 18.546875 47.265625 
Q 14.109375 46.140625 10.015625 43.890625 
L 10.015625 52.203125 
Q 14.9375 54.109375 19.578125 55.046875 
Q 24.21875 56 28.609375 56 
Q 40.484375 56 46.34375 49.84375 
Q 52.203125 43.703125 52.203125 31.203125 
z
" id="DejaVuSans-97"/>
       <path d="M 41.109375 46.296875 
Q 39.59375 47.171875 37.8125 47.578125 
Q 36.03125 48 33.890625 48 
Q 26.265625 48 22.1875 43.046875 
Q 18.109375 38.09375 18.109375 28.8125 
L 18.109375 0 
L 9.078125 0 
L 9.078125 54.6875 
L 18.109375 54.6875 
L 18.109375 46.1875 
Q 20.953125 51.171875 25.484375 53.578125 
Q 30.03125 56 36.53125 56 
Q 37.453125 56 38.578125 55.875 
Q 39.703125 55.765625 41.0625 55.515625 
z
" id="DejaVuSans-114"/>
       <path d="M 9.078125 75.984375 
L 18.109375 75.984375 
L 18.109375 31.109375 
L 44.921875 54.6875 
L 56.390625 54.6875 
L 27.390625 29.109375 
L 57.625 0 
L 45.90625 0 
L 18.109375 26.703125 
L 18.109375 0 
L 9.078125 0 
z
" id="DejaVuSans-107"/>
       <path d="M 56.203125 29.59375 
L 56.203125 25.203125 
L 14.890625 25.203125 
Q 15.484375 15.921875 20.484375 11.0625 
Q 25.484375 6.203125 34.421875 6.203125 
Q 39.59375 6.203125 44.453125 7.46875 
Q 49.3125 8.734375 54.109375 11.28125 
L 54.109375 2.78125 
Q 49.265625 0.734375 44.1875 -0.34375 
Q 39.109375 -1.421875 33.890625 -1.421875 
Q 20.796875 -1.421875 13.15625 6.1875 
Q 5.515625 13.8125 5.515625 26.8125 
Q 5.515625 40.234375 12.765625 48.109375 
Q 20.015625 56 32.328125 56 
Q 43.359375 56 49.78125 48.890625 
Q 56.203125 41.796875 56.203125 29.59375 
z
M 47.21875 32.234375 
Q 47.125 39.59375 43.09375 43.984375 
Q 39.0625 48.390625 32.421875 48.390625 
Q 24.90625 48.390625 20.390625 44.140625 
Q 15.875 39.890625 15.1875 32.171875 
z
" id="DejaVuSans-101"/>
       <path d="M 44.28125 53.078125 
L 44.28125 44.578125 
Q 40.484375 46.53125 36.375 47.5 
Q 32.28125 48.484375 27.875 48.484375 
Q 21.1875 48.484375 17.84375 46.4375 
Q 14.5 44.390625 14.5 40.28125 
Q 14.5 37.15625 16.890625 35.375 
Q 19.28125 33.59375 26.515625 31.984375 
L 29.59375 31.296875 
Q 39.15625 29.25 43.1875 25.515625 
Q 47.21875 21.78125 47.21875 15.09375 
Q 47.21875 7.46875 41.1875 3.015625 
Q 35.15625 -1.421875 24.609375 -1.421875 
Q 20.21875 -1.421875 15.453125 -0.5625 
Q 10.6875 0.296875 5.421875 2 
L 5.421875 11.28125 
Q 10.40625 8.6875 15.234375 7.390625 
Q 20.0625 6.109375 24.8125 6.109375 
Q 31.15625 6.109375 34.5625 8.28125 
Q 37.984375 10.453125 37.984375 14.40625 
Q 37.984375 18.0625 35.515625 20.015625 
Q 33.0625 21.96875 24.703125 23.78125 
L 21.578125 24.515625 
Q 13.234375 26.265625 9.515625 29.90625 
Q 5.8125 33.546875 5.8125 39.890625 
Q 5.8125 47.609375 11.28125 51.796875 
Q 16.75 56 26.8125 56 
Q 31.78125 56 36.171875 55.265625 
Q 40.578125 54.546875 44.28125 53.078125 
z
" id="DejaVuSans-115"/>
       <path d="M 54.890625 33.015625 
L 54.890625 0 
L 45.90625 0 
L 45.90625 32.71875 
Q 45.90625 40.484375 42.875 44.328125 
Q 39.84375 48.1875 33.796875 48.1875 
Q 26.515625 48.1875 22.3125 43.546875 
Q 18.109375 38.921875 18.109375 30.90625 
L 18.109375 0 
L 9.078125 0 
L 9.078125 75.984375 
L 18.109375 75.984375 
L 18.109375 46.1875 
Q 21.34375 51.125 25.703125 53.5625 
Q 30.078125 56 35.796875 56 
Q 45.21875 56 50.046875 50.171875 
Q 54.890625 44.34375 54.890625 33.015625 
z
" id="DejaVuSans-104"/>
       <path id="DejaVuSans-32"/>
       <path d="M 9.8125 72.90625 
L 19.671875 72.90625 
L 19.671875 0 
L 9.8125 0 
z
" id="DejaVuSans-73"/>
       <path d="M 64.40625 67.28125 
L 64.40625 56.890625 
Q 59.421875 61.53125 53.78125 63.8125 
Q 48.140625 66.109375 41.796875 66.109375 
Q 29.296875 66.109375 22.65625 58.46875 
Q 16.015625 50.828125 16.015625 36.375 
Q 16.015625 21.96875 22.65625 14.328125 
Q 29.296875 6.6875 41.796875 6.6875 
Q 48.140625 6.6875 53.78125 8.984375 
Q 59.421875 11.28125 64.40625 15.921875 
L 64.40625 5.609375 
Q 59.234375 2.09375 53.4375 0.328125 
Q 47.65625 -1.421875 41.21875 -1.421875 
Q 24.65625 -1.421875 15.125 8.703125 
Q 5.609375 18.84375 5.609375 36.375 
Q 5.609375 53.953125 15.125 64.078125 
Q 24.65625 74.21875 41.21875 74.21875 
Q 47.75 74.21875 53.53125 72.484375 
Q 59.328125 70.75 64.40625 67.28125 
z
" id="DejaVuSans-67"/>
       <path d="M 34.1875 63.1875 
L 20.796875 26.90625 
L 47.609375 26.90625 
z
M 28.609375 72.90625 
L 39.796875 72.90625 
L 67.578125 0 
L 57.328125 0 
L 50.6875 18.703125 
L 17.828125 18.703125 
L 11.1875 0 
L 0.78125 0 
z
" id="DejaVuSans-65"/>
       <path d="M 9.8125 72.90625 
L 23.09375 72.90625 
L 55.421875 11.921875 
L 55.421875 72.90625 
L 64.984375 72.90625 
L 64.984375 0 
L 51.703125 0 
L 19.390625 60.984375 
L 19.390625 0 
L 9.8125 0 
z
" id="DejaVuSans-78"/>
       <path d="M 10.796875 72.90625 
L 49.515625 72.90625 
L 49.515625 64.59375 
L 19.828125 64.59375 
L 19.828125 46.734375 
Q 21.96875 47.46875 24.109375 47.828125 
Q 26.265625 48.1875 28.421875 48.1875 
Q 40.625 48.1875 47.75 41.5 
Q 54.890625 34.8125 54.890625 23.390625 
Q 54.890625 11.625 47.5625 5.09375 
Q 40.234375 -1.421875 26.90625 -1.421875 
Q 22.3125 -1.421875 17.546875 -0.640625 
Q 12.796875 0.140625 7.71875 1.703125 
L 7.71875 11.625 
Q 12.109375 9.234375 16.796875 8.0625 
Q 21.484375 6.890625 26.703125 6.890625 
Q 35.15625 6.890625 40.078125 11.328125 
Q 45.015625 15.765625 45.015625 23.390625 
Q 45.015625 31 40.078125 35.4375 
Q 35.15625 39.890625 26.703125 39.890625 
Q 22.75 39.890625 18.8125 39.015625 
Q 14.890625 38.140625 10.796875 36.28125 
z
" id="DejaVuSans-53"/>
      </defs>
      <g transform="translate(100.137924 253.266563)rotate(-90)scale(0.1 -0.1)">
       <use xlink:href="#DejaVuSans-77"/>
       <use x="86.279297" xlink:href="#DejaVuSans-97"/>
       <use x="147.558594" xlink:href="#DejaVuSans-114"/>
       <use x="186.921875" xlink:href="#DejaVuSans-114"/>
       <use x="228.035156" xlink:href="#DejaVuSans-97"/>
       <use x="289.314453" xlink:href="#DejaVuSans-107"/>
       <use x="343.599609" xlink:href="#DejaVuSans-101"/>
       <use x="405.123047" xlink:href="#DejaVuSans-115"/>
       <use x="457.222656" xlink:href="#DejaVuSans-104"/>
       <use x="520.601562" xlink:href="#DejaVuSans-32"/>
       <use x="552.388672" xlink:href="#DejaVuSans-73"/>
       <use x="581.880859" xlink:href="#DejaVuSans-67"/>
       <use x="651.705078" xlink:href="#DejaVuSans-65"/>
       <use x="720.113281" xlink:href="#DejaVuSans-78"/>
       <use x="794.917969" xlink:href="#DejaVuSans-78"/>
       <use x="869.722656" xlink:href="#DejaVuSans-53"/>
       <use x="933.345703" xlink:href="#DejaVuSans-53"/>
      </g>
     </g>
    </g>
    <g id="xtick_2">
     <g id="line2d_2">
      <g>
       <use style="stroke:#000000;stroke-width:0.8;" x="141.873926" xlink:href="#m16889d6b33" y="146.568125"/>
      </g>
     </g>
     <g id="text_2">
      <!-- Helsinki ICANN56 -->
      <defs>
       <path d="M 9.8125 72.90625 
L 19.671875 72.90625 
L 19.671875 43.015625 
L 55.515625 43.015625 
L 55.515625 72.90625 
L 65.375 72.90625 
L 65.375 0 
L 55.515625 0 
L 55.515625 34.71875 
L 19.671875 34.71875 
L 19.671875 0 
L 9.8125 0 
z
" id="DejaVuSans-72"/>
       <path d="M 9.421875 75.984375 
L 18.40625 75.984375 
L 18.40625 0 
L 9.421875 0 
z
" id="DejaVuSans-108"/>
       <path d="M 9.421875 54.6875 
L 18.40625 54.6875 
L 18.40625 0 
L 9.421875 0 
z
M 9.421875 75.984375 
L 18.40625 75.984375 
L 18.40625 64.59375 
L 9.421875 64.59375 
z
" id="DejaVuSans-105"/>
       <path d="M 54.890625 33.015625 
L 54.890625 0 
L 45.90625 0 
L 45.90625 32.71875 
Q 45.90625 40.484375 42.875 44.328125 
Q 39.84375 48.1875 33.796875 48.1875 
Q 26.515625 48.1875 22.3125 43.546875 
Q 18.109375 38.921875 18.109375 30.90625 
L 18.109375 0 
L 9.078125 0 
L 9.078125 54.6875 
L 18.109375 54.6875 
L 18.109375 46.1875 
Q 21.34375 51.125 25.703125 53.5625 
Q 30.078125 56 35.796875 56 
Q 45.21875 56 50.046875 50.171875 
Q 54.890625 44.34375 54.890625 33.015625 
z
" id="DejaVuSans-110"/>
       <path d="M 33.015625 40.375 
Q 26.375 40.375 22.484375 35.828125 
Q 18.609375 31.296875 18.609375 23.390625 
Q 18.609375 15.53125 22.484375 10.953125 
Q 26.375 6.390625 33.015625 6.390625 
Q 39.65625 6.390625 43.53125 10.953125 
Q 47.40625 15.53125 47.40625 23.390625 
Q 47.40625 31.296875 43.53125 35.828125 
Q 39.65625 40.375 33.015625 40.375 
z
M 52.59375 71.296875 
L 52.59375 62.3125 
Q 48.875 64.0625 45.09375 64.984375 
Q 41.3125 65.921875 37.59375 65.921875 
Q 27.828125 65.921875 22.671875 59.328125 
Q 17.53125 52.734375 16.796875 39.40625 
Q 19.671875 43.65625 24.015625 45.921875 
Q 28.375 48.1875 33.59375 48.1875 
Q 44.578125 48.1875 50.953125 41.515625 
Q 57.328125 34.859375 57.328125 23.390625 
Q 57.328125 12.15625 50.6875 5.359375 
Q 44.046875 -1.421875 33.015625 -1.421875 
Q 20.359375 -1.421875 13.671875 8.265625 
Q 6.984375 17.96875 6.984375 36.375 
Q 6.984375 53.65625 15.1875 63.9375 
Q 23.390625 74.21875 37.203125 74.21875 
Q 40.921875 74.21875 44.703125 73.484375 
Q 48.484375 72.75 52.59375 71.296875 
z
" id="DejaVuSans-54"/>
      </defs>
      <g transform="translate(144.633301 240.5525)rotate(-90)scale(0.1 -0.1)">
       <use xlink:href="#DejaVuSans-72"/>
       <use x="75.195312" xlink:href="#DejaVuSans-101"/>
       <use x="136.71875" xlink:href="#DejaVuSans-108"/>
       <use x="164.501953" xlink:href="#DejaVuSans-115"/>
       <use x="216.601562" xlink:href="#DejaVuSans-105"/>
       <use x="244.384766" xlink:href="#DejaVuSans-110"/>
       <use x="307.763672" xlink:href="#DejaVuSans-107"/>
       <use x="365.673828" xlink:href="#DejaVuSans-105"/>
       <use x="393.457031" xlink:href="#DejaVuSans-32"/>
       <use x="425.244141" xlink:href="#DejaVuSans-73"/>
       <use x="454.736328" xlink:href="#DejaVuSans-67"/>
       <use x="524.560547" xlink:href="#DejaVuSans-65"/>
       <use x="592.96875" xlink:href="#DejaVuSans-78"/>
       <use x="667.773438" xlink:href="#DejaVuSans-78"/>
       <use x="742.578125" xlink:href="#DejaVuSans-53"/>
       <use x="806.201172" xlink:href="#DejaVuSans-54"/>
      </g>
     </g>
    </g>
    <g id="xtick_3">
     <g id="line2d_3">
      <g>
       <use style="stroke:#000000;stroke-width:0.8;" x="186.369304" xlink:href="#m16889d6b33" y="146.568125"/>
      </g>
     </g>
     <g id="text_3">
      <!-- Hyderabad ICANN57 -->
      <defs>
       <path d="M 32.171875 -5.078125 
Q 28.375 -14.84375 24.75 -17.8125 
Q 21.140625 -20.796875 15.09375 -20.796875 
L 7.90625 -20.796875 
L 7.90625 -13.28125 
L 13.1875 -13.28125 
Q 16.890625 -13.28125 18.9375 -11.515625 
Q 21 -9.765625 23.484375 -3.21875 
L 25.09375 0.875 
L 2.984375 54.6875 
L 12.5 54.6875 
L 29.59375 11.921875 
L 46.6875 54.6875 
L 56.203125 54.6875 
z
" id="DejaVuSans-121"/>
       <path d="M 45.40625 46.390625 
L 45.40625 75.984375 
L 54.390625 75.984375 
L 54.390625 0 
L 45.40625 0 
L 45.40625 8.203125 
Q 42.578125 3.328125 38.25 0.953125 
Q 33.9375 -1.421875 27.875 -1.421875 
Q 17.96875 -1.421875 11.734375 6.484375 
Q 5.515625 14.40625 5.515625 27.296875 
Q 5.515625 40.1875 11.734375 48.09375 
Q 17.96875 56 27.875 56 
Q 33.9375 56 38.25 53.625 
Q 42.578125 51.265625 45.40625 46.390625 
z
M 14.796875 27.296875 
Q 14.796875 17.390625 18.875 11.75 
Q 22.953125 6.109375 30.078125 6.109375 
Q 37.203125 6.109375 41.296875 11.75 
Q 45.40625 17.390625 45.40625 27.296875 
Q 45.40625 37.203125 41.296875 42.84375 
Q 37.203125 48.484375 30.078125 48.484375 
Q 22.953125 48.484375 18.875 42.84375 
Q 14.796875 37.203125 14.796875 27.296875 
z
" id="DejaVuSans-100"/>
       <path d="M 48.6875 27.296875 
Q 48.6875 37.203125 44.609375 42.84375 
Q 40.53125 48.484375 33.40625 48.484375 
Q 26.265625 48.484375 22.1875 42.84375 
Q 18.109375 37.203125 18.109375 27.296875 
Q 18.109375 17.390625 22.1875 11.75 
Q 26.265625 6.109375 33.40625 6.109375 
Q 40.53125 6.109375 44.609375 11.75 
Q 48.6875 17.390625 48.6875 27.296875 
z
M 18.109375 46.390625 
Q 20.953125 51.265625 25.265625 53.625 
Q 29.59375 56 35.59375 56 
Q 45.5625 56 51.78125 48.09375 
Q 58.015625 40.1875 58.015625 27.296875 
Q 58.015625 14.40625 51.78125 6.484375 
Q 45.5625 -1.421875 35.59375 -1.421875 
Q 29.59375 -1.421875 25.265625 0.953125 
Q 20.953125 3.328125 18.109375 8.203125 
L 18.109375 0 
L 9.078125 0 
L 9.078125 75.984375 
L 18.109375 75.984375 
z
" id="DejaVuSans-98"/>
       <path d="M 8.203125 72.90625 
L 55.078125 72.90625 
L 55.078125 68.703125 
L 28.609375 0 
L 18.3125 0 
L 43.21875 64.59375 
L 8.203125 64.59375 
z
" id="DejaVuSans-55"/>
      </defs>
      <g transform="translate(189.128679 256.211875)rotate(-90)scale(0.1 -0.1)">
       <use xlink:href="#DejaVuSans-72"/>
       <use x="75.195312" xlink:href="#DejaVuSans-121"/>
       <use x="134.375" xlink:href="#DejaVuSans-100"/>
       <use x="197.851562" xlink:href="#DejaVuSans-101"/>
       <use x="259.375" xlink:href="#DejaVuSans-114"/>
       <use x="300.488281" xlink:href="#DejaVuSans-97"/>
       <use x="361.767578" xlink:href="#DejaVuSans-98"/>
       <use x="425.244141" xlink:href="#DejaVuSans-97"/>
       <use x="486.523438" xlink:href="#DejaVuSans-100"/>
       <use x="550" xlink:href="#DejaVuSans-32"/>
       <use x="581.787109" xlink:href="#DejaVuSans-73"/>
       <use x="611.279297" xlink:href="#DejaVuSans-67"/>
       <use x="681.103516" xlink:href="#DejaVuSans-65"/>
       <use x="749.511719" xlink:href="#DejaVuSans-78"/>
       <use x="824.316406" xlink:href="#DejaVuSans-78"/>
       <use x="899.121094" xlink:href="#DejaVuSans-53"/>
       <use x="962.744141" xlink:href="#DejaVuSans-55"/>
      </g>
     </g>
    </g>
    <g id="xtick_4">
     <g id="line2d_4">
      <g>
       <use style="stroke:#000000;stroke-width:0.8;" x="230.864681" xlink:href="#m16889d6b33" y="146.568125"/>
      </g>
     </g>
     <g id="text_4">
      <!-- Copenhagen ICANN58 -->
      <defs>
       <path d="M 30.609375 48.390625 
Q 23.390625 48.390625 19.1875 42.75 
Q 14.984375 37.109375 14.984375 27.296875 
Q 14.984375 17.484375 19.15625 11.84375 
Q 23.34375 6.203125 30.609375 6.203125 
Q 37.796875 6.203125 41.984375 11.859375 
Q 46.1875 17.53125 46.1875 27.296875 
Q 46.1875 37.015625 41.984375 42.703125 
Q 37.796875 48.390625 30.609375 48.390625 
z
M 30.609375 56 
Q 42.328125 56 49.015625 48.375 
Q 55.71875 40.765625 55.71875 27.296875 
Q 55.71875 13.875 49.015625 6.21875 
Q 42.328125 -1.421875 30.609375 -1.421875 
Q 18.84375 -1.421875 12.171875 6.21875 
Q 5.515625 13.875 5.515625 27.296875 
Q 5.515625 40.765625 12.171875 48.375 
Q 18.84375 56 30.609375 56 
z
" id="DejaVuSans-111"/>
       <path d="M 18.109375 8.203125 
L 18.109375 -20.796875 
L 9.078125 -20.796875 
L 9.078125 54.6875 
L 18.109375 54.6875 
L 18.109375 46.390625 
Q 20.953125 51.265625 25.265625 53.625 
Q 29.59375 56 35.59375 56 
Q 45.5625 56 51.78125 48.09375 
Q 58.015625 40.1875 58.015625 27.296875 
Q 58.015625 14.40625 51.78125 6.484375 
Q 45.5625 -1.421875 35.59375 -1.421875 
Q 29.59375 -1.421875 25.265625 0.953125 
Q 20.953125 3.328125 18.109375 8.203125 
z
M 48.6875 27.296875 
Q 48.6875 37.203125 44.609375 42.84375 
Q 40.53125 48.484375 33.40625 48.484375 
Q 26.265625 48.484375 22.1875 42.84375 
Q 18.109375 37.203125 18.109375 27.296875 
Q 18.109375 17.390625 22.1875 11.75 
Q 26.265625 6.109375 33.40625 6.109375 
Q 40.53125 6.109375 44.609375 11.75 
Q 48.6875 17.390625 48.6875 27.296875 
z
" id="DejaVuSans-112"/>
       <path d="M 45.40625 27.984375 
Q 45.40625 37.75 41.375 43.109375 
Q 37.359375 48.484375 30.078125 48.484375 
Q 22.859375 48.484375 18.828125 43.109375 
Q 14.796875 37.75 14.796875 27.984375 
Q 14.796875 18.265625 18.828125 12.890625 
Q 22.859375 7.515625 30.078125 7.515625 
Q 37.359375 7.515625 41.375 12.890625 
Q 45.40625 18.265625 45.40625 27.984375 
z
M 54.390625 6.78125 
Q 54.390625 -7.171875 48.1875 -13.984375 
Q 42 -20.796875 29.203125 -20.796875 
Q 24.46875 -20.796875 20.265625 -20.09375 
Q 16.0625 -19.390625 12.109375 -17.921875 
L 12.109375 -9.1875 
Q 16.0625 -11.328125 19.921875 -12.34375 
Q 23.78125 -13.375 27.78125 -13.375 
Q 36.625 -13.375 41.015625 -8.765625 
Q 45.40625 -4.15625 45.40625 5.171875 
L 45.40625 9.625 
Q 42.625 4.78125 38.28125 2.390625 
Q 33.9375 0 27.875 0 
Q 17.828125 0 11.671875 7.65625 
Q 5.515625 15.328125 5.515625 27.984375 
Q 5.515625 40.671875 11.671875 48.328125 
Q 17.828125 56 27.875 56 
Q 33.9375 56 38.28125 53.609375 
Q 42.625 51.21875 45.40625 46.390625 
L 45.40625 54.6875 
L 54.390625 54.6875 
z
" id="DejaVuSans-103"/>
       <path d="M 31.78125 34.625 
Q 24.75 34.625 20.71875 30.859375 
Q 16.703125 27.09375 16.703125 20.515625 
Q 16.703125 13.921875 20.71875 10.15625 
Q 24.75 6.390625 31.78125 6.390625 
Q 38.8125 6.390625 42.859375 10.171875 
Q 46.921875 13.96875 46.921875 20.515625 
Q 46.921875 27.09375 42.890625 30.859375 
Q 38.875 34.625 31.78125 34.625 
z
M 21.921875 38.8125 
Q 15.578125 40.375 12.03125 44.71875 
Q 8.5 49.078125 8.5 55.328125 
Q 8.5 64.0625 14.71875 69.140625 
Q 20.953125 74.21875 31.78125 74.21875 
Q 42.671875 74.21875 48.875 69.140625 
Q 55.078125 64.0625 55.078125 55.328125 
Q 55.078125 49.078125 51.53125 44.71875 
Q 48 40.375 41.703125 38.8125 
Q 48.828125 37.15625 52.796875 32.3125 
Q 56.78125 27.484375 56.78125 20.515625 
Q 56.78125 9.90625 50.3125 4.234375 
Q 43.84375 -1.421875 31.78125 -1.421875 
Q 19.734375 -1.421875 13.25 4.234375 
Q 6.78125 9.90625 6.78125 20.515625 
Q 6.78125 27.484375 10.78125 32.3125 
Q 14.796875 37.15625 21.921875 38.8125 
z
M 18.3125 54.390625 
Q 18.3125 48.734375 21.84375 45.5625 
Q 25.390625 42.390625 31.78125 42.390625 
Q 38.140625 42.390625 41.71875 45.5625 
Q 45.3125 48.734375 45.3125 54.390625 
Q 45.3125 60.0625 41.71875 63.234375 
Q 38.140625 66.40625 31.78125 66.40625 
Q 25.390625 66.40625 21.84375 63.234375 
Q 18.3125 60.0625 18.3125 54.390625 
z
" id="DejaVuSans-56"/>
      </defs>
      <g transform="translate(233.624056 264.4525)rotate(-90)scale(0.1 -0.1)">
       <use xlink:href="#DejaVuSans-67"/>
       <use x="69.824219" xlink:href="#DejaVuSans-111"/>
       <use x="131.005859" xlink:href="#DejaVuSans-112"/>
       <use x="194.482422" xlink:href="#DejaVuSans-101"/>
       <use x="256.005859" xlink:href="#DejaVuSans-110"/>
       <use x="319.384766" xlink:href="#DejaVuSans-104"/>
       <use x="382.763672" xlink:href="#DejaVuSans-97"/>
       <use x="444.042969" xlink:href="#DejaVuSans-103"/>
       <use x="507.519531" xlink:href="#DejaVuSans-101"/>
       <use x="569.042969" xlink:href="#DejaVuSans-110"/>
       <use x="632.421875" xlink:href="#DejaVuSans-32"/>
       <use x="664.208984" xlink:href="#DejaVuSans-73"/>
       <use x="693.701172" xlink:href="#DejaVuSans-67"/>
       <use x="763.525391" xlink:href="#DejaVuSans-65"/>
       <use x="831.933594" xlink:href="#DejaVuSans-78"/>
       <use x="906.738281" xlink:href="#DejaVuSans-78"/>
       <use x="981.542969" xlink:href="#DejaVuSans-53"/>
       <use x="1045.166016" xlink:href="#DejaVuSans-56"/>
      </g>
     </g>
    </g>
    <g id="xtick_5">
     <g id="line2d_5">
      <g>
       <use style="stroke:#000000;stroke-width:0.8;" x="275.360059" xlink:href="#m16889d6b33" y="146.568125"/>
      </g>
     </g>
     <g id="text_5">
      <!-- Johannesburg  ICANN59 -->
      <defs>
       <path d="M 9.8125 72.90625 
L 19.671875 72.90625 
L 19.671875 5.078125 
Q 19.671875 -8.109375 14.671875 -14.0625 
Q 9.671875 -20.015625 -1.421875 -20.015625 
L -5.171875 -20.015625 
L -5.171875 -11.71875 
L -2.09375 -11.71875 
Q 4.4375 -11.71875 7.125 -8.046875 
Q 9.8125 -4.390625 9.8125 5.078125 
z
" id="DejaVuSans-74"/>
       <path d="M 8.5 21.578125 
L 8.5 54.6875 
L 17.484375 54.6875 
L 17.484375 21.921875 
Q 17.484375 14.15625 20.5 10.265625 
Q 23.53125 6.390625 29.59375 6.390625 
Q 36.859375 6.390625 41.078125 11.03125 
Q 45.3125 15.671875 45.3125 23.6875 
L 45.3125 54.6875 
L 54.296875 54.6875 
L 54.296875 0 
L 45.3125 0 
L 45.3125 8.40625 
Q 42.046875 3.421875 37.71875 1 
Q 33.40625 -1.421875 27.6875 -1.421875 
Q 18.265625 -1.421875 13.375 4.4375 
Q 8.5 10.296875 8.5 21.578125 
z
M 31.109375 56 
z
" id="DejaVuSans-117"/>
       <path d="M 10.984375 1.515625 
L 10.984375 10.5 
Q 14.703125 8.734375 18.5 7.8125 
Q 22.3125 6.890625 25.984375 6.890625 
Q 35.75 6.890625 40.890625 13.453125 
Q 46.046875 20.015625 46.78125 33.40625 
Q 43.953125 29.203125 39.59375 26.953125 
Q 35.25 24.703125 29.984375 24.703125 
Q 19.046875 24.703125 12.671875 31.3125 
Q 6.296875 37.9375 6.296875 49.421875 
Q 6.296875 60.640625 12.9375 67.421875 
Q 19.578125 74.21875 30.609375 74.21875 
Q 43.265625 74.21875 49.921875 64.515625 
Q 56.59375 54.828125 56.59375 36.375 
Q 56.59375 19.140625 48.40625 8.859375 
Q 40.234375 -1.421875 26.421875 -1.421875 
Q 22.703125 -1.421875 18.890625 -0.6875 
Q 15.09375 0.046875 10.984375 1.515625 
z
M 30.609375 32.421875 
Q 37.25 32.421875 41.125 36.953125 
Q 45.015625 41.5 45.015625 49.421875 
Q 45.015625 57.28125 41.125 61.84375 
Q 37.25 66.40625 30.609375 66.40625 
Q 23.96875 66.40625 20.09375 61.84375 
Q 16.21875 57.28125 16.21875 49.421875 
Q 16.21875 41.5 20.09375 36.953125 
Q 23.96875 32.421875 30.609375 32.421875 
z
" id="DejaVuSans-57"/>
      </defs>
      <g transform="translate(278.119434 272.9275)rotate(-90)scale(0.1 -0.1)">
       <use xlink:href="#DejaVuSans-74"/>
       <use x="29.492188" xlink:href="#DejaVuSans-111"/>
       <use x="90.673828" xlink:href="#DejaVuSans-104"/>
       <use x="154.052734" xlink:href="#DejaVuSans-97"/>
       <use x="215.332031" xlink:href="#DejaVuSans-110"/>
       <use x="278.710938" xlink:href="#DejaVuSans-110"/>
       <use x="342.089844" xlink:href="#DejaVuSans-101"/>
       <use x="403.613281" xlink:href="#DejaVuSans-115"/>
       <use x="455.712891" xlink:href="#DejaVuSans-98"/>
       <use x="519.189453" xlink:href="#DejaVuSans-117"/>
       <use x="582.568359" xlink:href="#DejaVuSans-114"/>
       <use x="621.931641" xlink:href="#DejaVuSans-103"/>
       <use x="685.408203" xlink:href="#DejaVuSans-32"/>
       <use x="717.195312" xlink:href="#DejaVuSans-32"/>
       <use x="748.982422" xlink:href="#DejaVuSans-73"/>
       <use x="778.474609" xlink:href="#DejaVuSans-67"/>
       <use x="848.298828" xlink:href="#DejaVuSans-65"/>
       <use x="916.707031" xlink:href="#DejaVuSans-78"/>
       <use x="991.511719" xlink:href="#DejaVuSans-78"/>
       <use x="1066.316406" xlink:href="#DejaVuSans-53"/>
       <use x="1129.939453" xlink:href="#DejaVuSans-57"/>
      </g>
     </g>
    </g>
    <g id="xtick_6">
     <g id="line2d_6">
      <g>
       <use style="stroke:#000000;stroke-width:0.8;" x="319.855436" xlink:href="#m16889d6b33" y="146.568125"/>
      </g>
     </g>
     <g id="text_6">
      <!-- Abu Dhabi ICANN60 -->
      <defs>
       <path d="M 19.671875 64.796875 
L 19.671875 8.109375 
L 31.59375 8.109375 
Q 46.6875 8.109375 53.6875 14.9375 
Q 60.6875 21.78125 60.6875 36.53125 
Q 60.6875 51.171875 53.6875 57.984375 
Q 46.6875 64.796875 31.59375 64.796875 
z
M 9.8125 72.90625 
L 30.078125 72.90625 
Q 51.265625 72.90625 61.171875 64.09375 
Q 71.09375 55.28125 71.09375 36.53125 
Q 71.09375 17.671875 61.125 8.828125 
Q 51.171875 0 30.078125 0 
L 9.8125 0 
z
" id="DejaVuSans-68"/>
       <path d="M 31.78125 66.40625 
Q 24.171875 66.40625 20.328125 58.90625 
Q 16.5 51.421875 16.5 36.375 
Q 16.5 21.390625 20.328125 13.890625 
Q 24.171875 6.390625 31.78125 6.390625 
Q 39.453125 6.390625 43.28125 13.890625 
Q 47.125 21.390625 47.125 36.375 
Q 47.125 51.421875 43.28125 58.90625 
Q 39.453125 66.40625 31.78125 66.40625 
z
M 31.78125 74.21875 
Q 44.046875 74.21875 50.515625 64.515625 
Q 56.984375 54.828125 56.984375 36.375 
Q 56.984375 17.96875 50.515625 8.265625 
Q 44.046875 -1.421875 31.78125 -1.421875 
Q 19.53125 -1.421875 13.0625 8.265625 
Q 6.59375 17.96875 6.59375 36.375 
Q 6.59375 54.828125 13.0625 64.515625 
Q 19.53125 74.21875 31.78125 74.21875 
z
" id="DejaVuSans-48"/>
      </defs>
      <g transform="translate(322.614811 253.204063)rotate(-90)scale(0.1 -0.1)">
       <use xlink:href="#DejaVuSans-65"/>
       <use x="68.408203" xlink:href="#DejaVuSans-98"/>
       <use x="131.884766" xlink:href="#DejaVuSans-117"/>
       <use x="195.263672" xlink:href="#DejaVuSans-32"/>
       <use x="227.050781" xlink:href="#DejaVuSans-68"/>
       <use x="304.052734" xlink:href="#DejaVuSans-104"/>
       <use x="367.431641" xlink:href="#DejaVuSans-97"/>
       <use x="428.710938" xlink:href="#DejaVuSans-98"/>
       <use x="492.1875" xlink:href="#DejaVuSans-105"/>
       <use x="519.970703" xlink:href="#DejaVuSans-32"/>
       <use x="551.757812" xlink:href="#DejaVuSans-73"/>
       <use x="581.25" xlink:href="#DejaVuSans-67"/>
       <use x="651.074219" xlink:href="#DejaVuSans-65"/>
       <use x="719.482422" xlink:href="#DejaVuSans-78"/>
       <use x="794.287109" xlink:href="#DejaVuSans-78"/>
       <use x="869.091797" xlink:href="#DejaVuSans-54"/>
       <use x="932.714844" xlink:href="#DejaVuSans-48"/>
      </g>
     </g>
    </g>
    <g id="xtick_7">
     <g id="line2d_7">
      <g>
       <use style="stroke:#000000;stroke-width:0.8;" x="364.350814" xlink:href="#m16889d6b33" y="146.568125"/>
      </g>
     </g>
     <g id="text_7">
      <!-- San Juan ICANN61 -->
      <defs>
       <path d="M 53.515625 70.515625 
L 53.515625 60.890625 
Q 47.90625 63.578125 42.921875 64.890625 
Q 37.9375 66.21875 33.296875 66.21875 
Q 25.25 66.21875 20.875 63.09375 
Q 16.5 59.96875 16.5 54.203125 
Q 16.5 49.359375 19.40625 46.890625 
Q 22.3125 44.4375 30.421875 42.921875 
L 36.375 41.703125 
Q 47.40625 39.59375 52.65625 34.296875 
Q 57.90625 29 57.90625 20.125 
Q 57.90625 9.515625 50.796875 4.046875 
Q 43.703125 -1.421875 29.984375 -1.421875 
Q 24.8125 -1.421875 18.96875 -0.25 
Q 13.140625 0.921875 6.890625 3.21875 
L 6.890625 13.375 
Q 12.890625 10.015625 18.65625 8.296875 
Q 24.421875 6.59375 29.984375 6.59375 
Q 38.421875 6.59375 43.015625 9.90625 
Q 47.609375 13.234375 47.609375 19.390625 
Q 47.609375 24.75 44.3125 27.78125 
Q 41.015625 30.8125 33.5 32.328125 
L 27.484375 33.5 
Q 16.453125 35.6875 11.515625 40.375 
Q 6.59375 45.0625 6.59375 53.421875 
Q 6.59375 63.09375 13.40625 68.65625 
Q 20.21875 74.21875 32.171875 74.21875 
Q 37.3125 74.21875 42.625 73.28125 
Q 47.953125 72.359375 53.515625 70.515625 
z
" id="DejaVuSans-83"/>
       <path d="M 12.40625 8.296875 
L 28.515625 8.296875 
L 28.515625 63.921875 
L 10.984375 60.40625 
L 10.984375 69.390625 
L 28.421875 72.90625 
L 38.28125 72.90625 
L 38.28125 8.296875 
L 54.390625 8.296875 
L 54.390625 0 
L 12.40625 0 
z
" id="DejaVuSans-49"/>
      </defs>
      <g transform="translate(367.110189 244.9525)rotate(-90)scale(0.1 -0.1)">
       <use xlink:href="#DejaVuSans-83"/>
       <use x="63.476562" xlink:href="#DejaVuSans-97"/>
       <use x="124.755859" xlink:href="#DejaVuSans-110"/>
       <use x="188.134766" xlink:href="#DejaVuSans-32"/>
       <use x="219.921875" xlink:href="#DejaVuSans-74"/>
       <use x="249.414062" xlink:href="#DejaVuSans-117"/>
       <use x="312.792969" xlink:href="#DejaVuSans-97"/>
       <use x="374.072266" xlink:href="#DejaVuSans-110"/>
       <use x="437.451172" xlink:href="#DejaVuSans-32"/>
       <use x="469.238281" xlink:href="#DejaVuSans-73"/>
       <use x="498.730469" xlink:href="#DejaVuSans-67"/>
       <use x="568.554688" xlink:href="#DejaVuSans-65"/>
       <use x="636.962891" xlink:href="#DejaVuSans-78"/>
       <use x="711.767578" xlink:href="#DejaVuSans-78"/>
       <use x="786.572266" xlink:href="#DejaVuSans-54"/>
       <use x="850.195312" xlink:href="#DejaVuSans-49"/>
      </g>
     </g>
    </g>
    <g id="xtick_8">
     <g id="line2d_8">
      <g>
       <use style="stroke:#000000;stroke-width:0.8;" x="408.846191" xlink:href="#m16889d6b33" y="146.568125"/>
      </g>
     </g>
     <g id="text_8">
      <!-- Panama ICANN62 -->
      <defs>
       <path d="M 19.671875 64.796875 
L 19.671875 37.40625 
L 32.078125 37.40625 
Q 38.96875 37.40625 42.71875 40.96875 
Q 46.484375 44.53125 46.484375 51.125 
Q 46.484375 57.671875 42.71875 61.234375 
Q 38.96875 64.796875 32.078125 64.796875 
z
M 9.8125 72.90625 
L 32.078125 72.90625 
Q 44.34375 72.90625 50.609375 67.359375 
Q 56.890625 61.8125 56.890625 51.125 
Q 56.890625 40.328125 50.609375 34.8125 
Q 44.34375 29.296875 32.078125 29.296875 
L 19.671875 29.296875 
L 19.671875 0 
L 9.8125 0 
z
" id="DejaVuSans-80"/>
       <path d="M 52 44.1875 
Q 55.375 50.25 60.0625 53.125 
Q 64.75 56 71.09375 56 
Q 79.640625 56 84.28125 50.015625 
Q 88.921875 44.046875 88.921875 33.015625 
L 88.921875 0 
L 79.890625 0 
L 79.890625 32.71875 
Q 79.890625 40.578125 77.09375 44.375 
Q 74.3125 48.1875 68.609375 48.1875 
Q 61.625 48.1875 57.5625 43.546875 
Q 53.515625 38.921875 53.515625 30.90625 
L 53.515625 0 
L 44.484375 0 
L 44.484375 32.71875 
Q 44.484375 40.625 41.703125 44.40625 
Q 38.921875 48.1875 33.109375 48.1875 
Q 26.21875 48.1875 22.15625 43.53125 
Q 18.109375 38.875 18.109375 30.90625 
L 18.109375 0 
L 9.078125 0 
L 9.078125 54.6875 
L 18.109375 54.6875 
L 18.109375 46.1875 
Q 21.1875 51.21875 25.484375 53.609375 
Q 29.78125 56 35.6875 56 
Q 41.65625 56 45.828125 52.96875 
Q 50 49.953125 52 44.1875 
z
" id="DejaVuSans-109"/>
       <path d="M 19.1875 8.296875 
L 53.609375 8.296875 
L 53.609375 0 
L 7.328125 0 
L 7.328125 8.296875 
Q 12.9375 14.109375 22.625 23.890625 
Q 32.328125 33.6875 34.8125 36.53125 
Q 39.546875 41.84375 41.421875 45.53125 
Q 43.3125 49.21875 43.3125 52.78125 
Q 43.3125 58.59375 39.234375 62.25 
Q 35.15625 65.921875 28.609375 65.921875 
Q 23.96875 65.921875 18.8125 64.3125 
Q 13.671875 62.703125 7.8125 59.421875 
L 7.8125 69.390625 
Q 13.765625 71.78125 18.9375 73 
Q 24.125 74.21875 28.421875 74.21875 
Q 39.75 74.21875 46.484375 68.546875 
Q 53.21875 62.890625 53.21875 53.421875 
Q 53.21875 48.921875 51.53125 44.890625 
Q 49.859375 40.875 45.40625 35.40625 
Q 44.1875 33.984375 37.640625 27.21875 
Q 31.109375 20.453125 19.1875 8.296875 
z
" id="DejaVuSans-50"/>
      </defs>
      <g transform="translate(411.605566 241.249375)rotate(-90)scale(0.1 -0.1)">
       <use xlink:href="#DejaVuSans-80"/>
       <use x="55.802734" xlink:href="#DejaVuSans-97"/>
       <use x="117.082031" xlink:href="#DejaVuSans-110"/>
       <use x="180.460938" xlink:href="#DejaVuSans-97"/>
       <use x="241.740234" xlink:href="#DejaVuSans-109"/>
       <use x="339.152344" xlink:href="#DejaVuSans-97"/>
       <use x="400.431641" xlink:href="#DejaVuSans-32"/>
       <use x="432.21875" xlink:href="#DejaVuSans-73"/>
       <use x="461.710938" xlink:href="#DejaVuSans-67"/>
       <use x="531.535156" xlink:href="#DejaVuSans-65"/>
       <use x="599.943359" xlink:href="#DejaVuSans-78"/>
       <use x="674.748047" xlink:href="#DejaVuSans-78"/>
       <use x="749.552734" xlink:href="#DejaVuSans-54"/>
       <use x="813.175781" xlink:href="#DejaVuSans-50"/>
      </g>
     </g>
    </g>
    <g id="xtick_9">
     <g id="line2d_9">
      <g>
       <use style="stroke:#000000;stroke-width:0.8;" x="453.341569" xlink:href="#m16889d6b33" y="146.568125"/>
      </g>
     </g>
     <g id="text_9">
      <!-- Barcelona ICANN63 -->
      <defs>
       <path d="M 19.671875 34.8125 
L 19.671875 8.109375 
L 35.5 8.109375 
Q 43.453125 8.109375 47.28125 11.40625 
Q 51.125 14.703125 51.125 21.484375 
Q 51.125 28.328125 47.28125 31.5625 
Q 43.453125 34.8125 35.5 34.8125 
z
M 19.671875 64.796875 
L 19.671875 42.828125 
L 34.28125 42.828125 
Q 41.5 42.828125 45.03125 45.53125 
Q 48.578125 48.25 48.578125 53.8125 
Q 48.578125 59.328125 45.03125 62.0625 
Q 41.5 64.796875 34.28125 64.796875 
z
M 9.8125 72.90625 
L 35.015625 72.90625 
Q 46.296875 72.90625 52.390625 68.21875 
Q 58.5 63.53125 58.5 54.890625 
Q 58.5 48.1875 55.375 44.234375 
Q 52.25 40.28125 46.1875 39.3125 
Q 53.46875 37.75 57.5 32.78125 
Q 61.53125 27.828125 61.53125 20.40625 
Q 61.53125 10.640625 54.890625 5.3125 
Q 48.25 0 35.984375 0 
L 9.8125 0 
z
" id="DejaVuSans-66"/>
       <path d="M 48.78125 52.59375 
L 48.78125 44.1875 
Q 44.96875 46.296875 41.140625 47.34375 
Q 37.3125 48.390625 33.40625 48.390625 
Q 24.65625 48.390625 19.8125 42.84375 
Q 14.984375 37.3125 14.984375 27.296875 
Q 14.984375 17.28125 19.8125 11.734375 
Q 24.65625 6.203125 33.40625 6.203125 
Q 37.3125 6.203125 41.140625 7.25 
Q 44.96875 8.296875 48.78125 10.40625 
L 48.78125 2.09375 
Q 45.015625 0.34375 40.984375 -0.53125 
Q 36.96875 -1.421875 32.421875 -1.421875 
Q 20.0625 -1.421875 12.78125 6.34375 
Q 5.515625 14.109375 5.515625 27.296875 
Q 5.515625 40.671875 12.859375 48.328125 
Q 20.21875 56 33.015625 56 
Q 37.15625 56 41.109375 55.140625 
Q 45.0625 54.296875 48.78125 52.59375 
z
" id="DejaVuSans-99"/>
       <path d="M 40.578125 39.3125 
Q 47.65625 37.796875 51.625 33 
Q 55.609375 28.21875 55.609375 21.1875 
Q 55.609375 10.40625 48.1875 4.484375 
Q 40.765625 -1.421875 27.09375 -1.421875 
Q 22.515625 -1.421875 17.65625 -0.515625 
Q 12.796875 0.390625 7.625 2.203125 
L 7.625 11.71875 
Q 11.71875 9.328125 16.59375 8.109375 
Q 21.484375 6.890625 26.8125 6.890625 
Q 36.078125 6.890625 40.9375 10.546875 
Q 45.796875 14.203125 45.796875 21.1875 
Q 45.796875 27.640625 41.28125 31.265625 
Q 36.765625 34.90625 28.71875 34.90625 
L 20.21875 34.90625 
L 20.21875 43.015625 
L 29.109375 43.015625 
Q 36.375 43.015625 40.234375 45.921875 
Q 44.09375 48.828125 44.09375 54.296875 
Q 44.09375 59.90625 40.109375 62.90625 
Q 36.140625 65.921875 28.71875 65.921875 
Q 24.65625 65.921875 20.015625 65.03125 
Q 15.375 64.15625 9.8125 62.3125 
L 9.8125 71.09375 
Q 15.4375 72.65625 20.34375 73.4375 
Q 25.25 74.21875 29.59375 74.21875 
Q 40.828125 74.21875 47.359375 69.109375 
Q 53.90625 64.015625 53.90625 55.328125 
Q 53.90625 49.265625 50.4375 45.09375 
Q 46.96875 40.921875 40.578125 39.3125 
z
" id="DejaVuSans-51"/>
      </defs>
      <g transform="translate(456.100944 251.09625)rotate(-90)scale(0.1 -0.1)">
       <use xlink:href="#DejaVuSans-66"/>
       <use x="68.603516" xlink:href="#DejaVuSans-97"/>
       <use x="129.882812" xlink:href="#DejaVuSans-114"/>
       <use x="168.746094" xlink:href="#DejaVuSans-99"/>
       <use x="223.726562" xlink:href="#DejaVuSans-101"/>
       <use x="285.25" xlink:href="#DejaVuSans-108"/>
       <use x="313.033203" xlink:href="#DejaVuSans-111"/>
       <use x="374.214844" xlink:href="#DejaVuSans-110"/>
       <use x="437.59375" xlink:href="#DejaVuSans-97"/>
       <use x="498.873047" xlink:href="#DejaVuSans-32"/>
       <use x="530.660156" xlink:href="#DejaVuSans-73"/>
       <use x="560.152344" xlink:href="#DejaVuSans-67"/>
       <use x="629.976562" xlink:href="#DejaVuSans-65"/>
       <use x="698.384766" xlink:href="#DejaVuSans-78"/>
       <use x="773.189453" xlink:href="#DejaVuSans-78"/>
       <use x="847.994141" xlink:href="#DejaVuSans-54"/>
       <use x="911.617188" xlink:href="#DejaVuSans-51"/>
      </g>
     </g>
    </g>
    <g id="xtick_10">
     <g id="line2d_10">
      <g>
       <use style="stroke:#000000;stroke-width:0.8;" x="497.836946" xlink:href="#m16889d6b33" y="146.568125"/>
      </g>
     </g>
     <g id="text_10">
      <!-- Osaka ICANN64 -->
      <defs>
       <path d="M 39.40625 66.21875 
Q 28.65625 66.21875 22.328125 58.203125 
Q 16.015625 50.203125 16.015625 36.375 
Q 16.015625 22.609375 22.328125 14.59375 
Q 28.65625 6.59375 39.40625 6.59375 
Q 50.140625 6.59375 56.421875 14.59375 
Q 62.703125 22.609375 62.703125 36.375 
Q 62.703125 50.203125 56.421875 58.203125 
Q 50.140625 66.21875 39.40625 66.21875 
z
M 39.40625 74.21875 
Q 54.734375 74.21875 63.90625 63.9375 
Q 73.09375 53.65625 73.09375 36.375 
Q 73.09375 19.140625 63.90625 8.859375 
Q 54.734375 -1.421875 39.40625 -1.421875 
Q 24.03125 -1.421875 14.8125 8.828125 
Q 5.609375 19.09375 5.609375 36.375 
Q 5.609375 53.65625 14.8125 63.9375 
Q 24.03125 74.21875 39.40625 74.21875 
z
" id="DejaVuSans-79"/>
       <path d="M 37.796875 64.3125 
L 12.890625 25.390625 
L 37.796875 25.390625 
z
M 35.203125 72.90625 
L 47.609375 72.90625 
L 47.609375 25.390625 
L 58.015625 25.390625 
L 58.015625 17.1875 
L 47.609375 17.1875 
L 47.609375 0 
L 37.796875 0 
L 37.796875 17.1875 
L 4.890625 17.1875 
L 4.890625 26.703125 
z
" id="DejaVuSans-52"/>
      </defs>
      <g transform="translate(500.596321 232.160313)rotate(-90)scale(0.1 -0.1)">
       <use xlink:href="#DejaVuSans-79"/>
       <use x="78.710938" xlink:href="#DejaVuSans-115"/>
       <use x="130.810547" xlink:href="#DejaVuSans-97"/>
       <use x="192.089844" xlink:href="#DejaVuSans-107"/>
       <use x="248.25" xlink:href="#DejaVuSans-97"/>
       <use x="309.529297" xlink:href="#DejaVuSans-32"/>
       <use x="341.316406" xlink:href="#DejaVuSans-73"/>
       <use x="370.808594" xlink:href="#DejaVuSans-67"/>
       <use x="440.632812" xlink:href="#DejaVuSans-65"/>
       <use x="509.041016" xlink:href="#DejaVuSans-78"/>
       <use x="583.845703" xlink:href="#DejaVuSans-78"/>
       <use x="658.650391" xlink:href="#DejaVuSans-54"/>
       <use x="722.273438" xlink:href="#DejaVuSans-52"/>
      </g>
     </g>
    </g>
    <g id="xtick_11">
     <g id="line2d_11">
      <g>
       <use style="stroke:#000000;stroke-width:0.8;" x="542.332324" xlink:href="#m16889d6b33" y="146.568125"/>
      </g>
     </g>
     <g id="text_11">
      <!-- Marrakesh ICANN65 -->
      <g transform="translate(545.091699 253.266563)rotate(-90)scale(0.1 -0.1)">
       <use xlink:href="#DejaVuSans-77"/>
       <use x="86.279297" xlink:href="#DejaVuSans-97"/>
       <use x="147.558594" xlink:href="#DejaVuSans-114"/>
       <use x="186.921875" xlink:href="#DejaVuSans-114"/>
       <use x="228.035156" xlink:href="#DejaVuSans-97"/>
       <use x="289.314453" xlink:href="#DejaVuSans-107"/>
       <use x="343.599609" xlink:href="#DejaVuSans-101"/>
       <use x="405.123047" xlink:href="#DejaVuSans-115"/>
       <use x="457.222656" xlink:href="#DejaVuSans-104"/>
       <use x="520.601562" xlink:href="#DejaVuSans-32"/>
       <use x="552.388672" xlink:href="#DejaVuSans-73"/>
       <use x="581.880859" xlink:href="#DejaVuSans-67"/>
       <use x="651.705078" xlink:href="#DejaVuSans-65"/>
       <use x="720.113281" xlink:href="#DejaVuSans-78"/>
       <use x="794.917969" xlink:href="#DejaVuSans-78"/>
       <use x="869.722656" xlink:href="#DejaVuSans-54"/>
       <use x="933.345703" xlink:href="#DejaVuSans-53"/>
      </g>
     </g>
    </g>
    <g id="xtick_12">
     <g id="line2d_12">
      <g>
       <use style="stroke:#000000;stroke-width:0.8;" x="586.827701" xlink:href="#m16889d6b33" y="146.568125"/>
      </g>
     </g>
     <g id="text_12">
      <!-- Montreal ICANN66 -->
      <defs>
       <path d="M 18.3125 70.21875 
L 18.3125 54.6875 
L 36.8125 54.6875 
L 36.8125 47.703125 
L 18.3125 47.703125 
L 18.3125 18.015625 
Q 18.3125 11.328125 20.140625 9.421875 
Q 21.96875 7.515625 27.59375 7.515625 
L 36.8125 7.515625 
L 36.8125 0 
L 27.59375 0 
Q 17.1875 0 13.234375 3.875 
Q 9.28125 7.765625 9.28125 18.015625 
L 9.28125 47.703125 
L 2.6875 47.703125 
L 2.6875 54.6875 
L 9.28125 54.6875 
L 9.28125 70.21875 
z
" id="DejaVuSans-116"/>
      </defs>
      <g transform="translate(589.587076 245.157188)rotate(-90)scale(0.1 -0.1)">
       <use xlink:href="#DejaVuSans-77"/>
       <use x="86.279297" xlink:href="#DejaVuSans-111"/>
       <use x="147.460938" xlink:href="#DejaVuSans-110"/>
       <use x="210.839844" xlink:href="#DejaVuSans-116"/>
       <use x="250.048828" xlink:href="#DejaVuSans-114"/>
       <use x="288.912109" xlink:href="#DejaVuSans-101"/>
       <use x="350.435547" xlink:href="#DejaVuSans-97"/>
       <use x="411.714844" xlink:href="#DejaVuSans-108"/>
       <use x="439.498047" xlink:href="#DejaVuSans-32"/>
       <use x="471.285156" xlink:href="#DejaVuSans-73"/>
       <use x="500.777344" xlink:href="#DejaVuSans-67"/>
       <use x="570.601562" xlink:href="#DejaVuSans-65"/>
       <use x="639.009766" xlink:href="#DejaVuSans-78"/>
       <use x="713.814453" xlink:href="#DejaVuSans-78"/>
       <use x="788.619141" xlink:href="#DejaVuSans-54"/>
       <use x="852.242188" xlink:href="#DejaVuSans-54"/>
      </g>
     </g>
    </g>
   </g>
   <g id="matplotlib.axis_2">
    <g id="ytick_1">
     <g id="line2d_13">
      <defs>
       <path d="M 0 0 
L -3.5 0 
" id="m212cbbd779" style="stroke:#000000;stroke-width:0.8;"/>
      </defs>
      <g>
       <use style="stroke:#000000;stroke-width:0.8;" x="53.328125" xlink:href="#m212cbbd779" y="146.568125"/>
      </g>
     </g>
     <g id="text_13">
      <!-- 0 -->
      <g transform="translate(39.965625 150.367344)scale(0.1 -0.1)">
       <use xlink:href="#DejaVuSans-48"/>
      </g>
     </g>
    </g>
    <g id="ytick_2">
     <g id="line2d_14">
      <g>
       <use style="stroke:#000000;stroke-width:0.8;" x="53.328125" xlink:href="#m212cbbd779" y="113.570011"/>
      </g>
     </g>
     <g id="text_14">
      <!-- 1000 -->
      <g transform="translate(20.878125 117.369229)scale(0.1 -0.1)">
       <use xlink:href="#DejaVuSans-49"/>
       <use x="63.623047" xlink:href="#DejaVuSans-48"/>
       <use x="127.246094" xlink:href="#DejaVuSans-48"/>
       <use x="190.869141" xlink:href="#DejaVuSans-48"/>
      </g>
     </g>
    </g>
    <g id="ytick_3">
     <g id="line2d_15">
      <g>
       <use style="stroke:#000000;stroke-width:0.8;" x="53.328125" xlink:href="#m212cbbd779" y="80.571896"/>
      </g>
     </g>
     <g id="text_15">
      <!-- 2000 -->
      <g transform="translate(20.878125 84.371115)scale(0.1 -0.1)">
       <use xlink:href="#DejaVuSans-50"/>
       <use x="63.623047" xlink:href="#DejaVuSans-48"/>
       <use x="127.246094" xlink:href="#DejaVuSans-48"/>
       <use x="190.869141" xlink:href="#DejaVuSans-48"/>
      </g>
     </g>
    </g>
    <g id="ytick_4">
     <g id="line2d_16">
      <g>
       <use style="stroke:#000000;stroke-width:0.8;" x="53.328125" xlink:href="#m212cbbd779" y="47.573782"/>
      </g>
     </g>
     <g id="text_16">
      <!-- 3000 -->
      <g transform="translate(20.878125 51.373001)scale(0.1 -0.1)">
       <use xlink:href="#DejaVuSans-51"/>
       <use x="63.623047" xlink:href="#DejaVuSans-48"/>
       <use x="127.246094" xlink:href="#DejaVuSans-48"/>
       <use x="190.869141" xlink:href="#DejaVuSans-48"/>
      </g>
     </g>
    </g>
    <g id="text_17">
     <!-- Attendee Number -->
     <g transform="translate(14.798438 135.943906)rotate(-90)scale(0.1 -0.1)">
      <use xlink:href="#DejaVuSans-65"/>
      <use x="66.658203" xlink:href="#DejaVuSans-116"/>
      <use x="105.867188" xlink:href="#DejaVuSans-116"/>
      <use x="145.076172" xlink:href="#DejaVuSans-101"/>
      <use x="206.599609" xlink:href="#DejaVuSans-110"/>
      <use x="269.978516" xlink:href="#DejaVuSans-100"/>
      <use x="333.455078" xlink:href="#DejaVuSans-101"/>
      <use x="394.978516" xlink:href="#DejaVuSans-101"/>
      <use x="456.501953" xlink:href="#DejaVuSans-32"/>
      <use x="488.289062" xlink:href="#DejaVuSans-78"/>
      <use x="563.09375" xlink:href="#DejaVuSans-117"/>
      <use x="626.472656" xlink:href="#DejaVuSans-109"/>
      <use x="723.884766" xlink:href="#DejaVuSans-98"/>
      <use x="787.361328" xlink:href="#DejaVuSans-101"/>
      <use x="848.884766" xlink:href="#DejaVuSans-114"/>
     </g>
    </g>
   </g>
   <g id="patch_195">
    <path d="M 53.328125 146.568125 
L 53.328125 36.318125 
" style="fill:none;stroke:#000000;stroke-linecap:square;stroke-linejoin:miter;stroke-width:0.8;"/>
   </g>
   <g id="patch_196">
    <path d="M 630.878125 146.568125 
L 630.878125 36.318125 
" style="fill:none;stroke:#000000;stroke-linecap:square;stroke-linejoin:miter;stroke-width:0.8;"/>
   </g>
   <g id="patch_197">
    <path d="M 53.328125 146.568125 
L 630.878125 146.568125 
" style="fill:none;stroke:#000000;stroke-linecap:square;stroke-linejoin:miter;stroke-width:0.8;"/>
   </g>
   <g id="patch_198">
    <path d="M 53.328125 36.318125 
L 630.878125 36.318125 
" style="fill:none;stroke:#000000;stroke-linecap:square;stroke-linejoin:miter;stroke-width:0.8;"/>
   </g>
   <g id="text_18">
    <!-- Attendee Number by country -->
    <g transform="translate(254.582812 16.318125)scale(0.12 -0.12)">
     <use xlink:href="#DejaVuSans-65"/>
     <use x="66.658203" xlink:href="#DejaVuSans-116"/>
     <use x="105.867188" xlink:href="#DejaVuSans-116"/>
     <use x="145.076172" xlink:href="#DejaVuSans-101"/>
     <use x="206.599609" xlink:href="#DejaVuSans-110"/>
     <use x="269.978516" xlink:href="#DejaVuSans-100"/>
     <use x="333.455078" xlink:href="#DejaVuSans-101"/>
     <use x="394.978516" xlink:href="#DejaVuSans-101"/>
     <use x="456.501953" xlink:href="#DejaVuSans-32"/>
     <use x="488.289062" xlink:href="#DejaVuSans-78"/>
     <use x="563.09375" xlink:href="#DejaVuSans-117"/>
     <use x="626.472656" xlink:href="#DejaVuSans-109"/>
     <use x="723.884766" xlink:href="#DejaVuSans-98"/>
     <use x="787.361328" xlink:href="#DejaVuSans-101"/>
     <use x="848.884766" xlink:href="#DejaVuSans-114"/>
     <use x="889.998047" xlink:href="#DejaVuSans-32"/>
     <use x="921.785156" xlink:href="#DejaVuSans-98"/>
     <use x="985.261719" xlink:href="#DejaVuSans-121"/>
     <use x="1044.441406" xlink:href="#DejaVuSans-32"/>
     <use x="1076.228516" xlink:href="#DejaVuSans-99"/>
     <use x="1131.208984" xlink:href="#DejaVuSans-111"/>
     <use x="1192.390625" xlink:href="#DejaVuSans-117"/>
     <use x="1255.769531" xlink:href="#DejaVuSans-110"/>
     <use x="1319.148438" xlink:href="#DejaVuSans-116"/>
     <use x="1358.357422" xlink:href="#DejaVuSans-114"/>
     <use x="1399.470703" xlink:href="#DejaVuSans-121"/>
    </g>
   </g>
   <g id="legend_1">
    <g id="patch_199">
     <path d="M 637.878125 268.143125 
L 703.48125 268.143125 
Q 705.48125 268.143125 705.48125 266.143125 
L 705.48125 32.293125 
Q 705.48125 30.293125 703.48125 30.293125 
L 637.878125 30.293125 
Q 635.878125 30.293125 635.878125 32.293125 
L 635.878125 266.143125 
Q 635.878125 268.143125 637.878125 268.143125 
z
" style="fill:#ffffff;opacity:0.8;stroke:#cccccc;stroke-linejoin:miter;"/>
    </g>
    <g id="patch_200">
     <path d="M 639.878125 41.891562 
L 659.878125 41.891562 
L 659.878125 34.891562 
L 639.878125 34.891562 
z
" style="fill:#1f77b4;"/>
    </g>
    <g id="text_19">
     <!-- US -->
     <defs>
      <path d="M 8.6875 72.90625 
L 18.609375 72.90625 
L 18.609375 28.609375 
Q 18.609375 16.890625 22.84375 11.734375 
Q 27.09375 6.59375 36.625 6.59375 
Q 46.09375 6.59375 50.34375 11.734375 
Q 54.59375 16.890625 54.59375 28.609375 
L 54.59375 72.90625 
L 64.5 72.90625 
L 64.5 27.390625 
Q 64.5 13.140625 57.4375 5.859375 
Q 50.390625 -1.421875 36.625 -1.421875 
Q 22.796875 -1.421875 15.734375 5.859375 
Q 8.6875 13.140625 8.6875 27.390625 
z
" id="DejaVuSans-85"/>
     </defs>
     <g transform="translate(667.878125 41.891562)scale(0.1 -0.1)">
      <use xlink:href="#DejaVuSans-85"/>
      <use x="73.193359" xlink:href="#DejaVuSans-83"/>
     </g>
    </g>
    <g id="patch_201">
     <path d="M 639.878125 56.569688 
L 659.878125 56.569688 
L 659.878125 49.569688 
L 639.878125 49.569688 
z
" style="fill:#ff7f0e;"/>
    </g>
    <g id="text_20">
     <!-- IN -->
     <g transform="translate(667.878125 56.569688)scale(0.1 -0.1)">
      <use xlink:href="#DejaVuSans-73"/>
      <use x="29.492188" xlink:href="#DejaVuSans-78"/>
     </g>
    </g>
    <g id="patch_202">
     <path d="M 639.878125 71.247813 
L 659.878125 71.247813 
L 659.878125 64.247813 
L 639.878125 64.247813 
z
" style="fill:#2ca02c;"/>
    </g>
    <g id="text_21">
     <!-- MA -->
     <g transform="translate(667.878125 71.247813)scale(0.1 -0.1)">
      <use xlink:href="#DejaVuSans-77"/>
      <use x="86.279297" xlink:href="#DejaVuSans-65"/>
     </g>
    </g>
    <g id="patch_203">
     <path d="M 639.878125 85.925938 
L 659.878125 85.925938 
L 659.878125 78.925938 
L 639.878125 78.925938 
z
" style="fill:#d62728;"/>
    </g>
    <g id="text_22">
     <!-- ES -->
     <defs>
      <path d="M 9.8125 72.90625 
L 55.90625 72.90625 
L 55.90625 64.59375 
L 19.671875 64.59375 
L 19.671875 43.015625 
L 54.390625 43.015625 
L 54.390625 34.71875 
L 19.671875 34.71875 
L 19.671875 8.296875 
L 56.78125 8.296875 
L 56.78125 0 
L 9.8125 0 
z
" id="DejaVuSans-69"/>
     </defs>
     <g transform="translate(667.878125 85.925938)scale(0.1 -0.1)">
      <use xlink:href="#DejaVuSans-69"/>
      <use x="63.183594" xlink:href="#DejaVuSans-83"/>
     </g>
    </g>
    <g id="patch_204">
     <path d="M 639.878125 100.604062 
L 659.878125 100.604062 
L 659.878125 93.604062 
L 639.878125 93.604062 
z
" style="fill:#9467bd;"/>
    </g>
    <g id="text_23">
     <!-- JP -->
     <g transform="translate(667.878125 100.604062)scale(0.1 -0.1)">
      <use xlink:href="#DejaVuSans-74"/>
      <use x="29.492188" xlink:href="#DejaVuSans-80"/>
     </g>
    </g>
    <g id="patch_205">
     <path d="M 639.878125 115.282188 
L 659.878125 115.282188 
L 659.878125 108.282188 
L 639.878125 108.282188 
z
" style="fill:#8c564b;"/>
    </g>
    <g id="text_24">
     <!-- CA -->
     <g transform="translate(667.878125 115.282188)scale(0.1 -0.1)">
      <use xlink:href="#DejaVuSans-67"/>
      <use x="69.824219" xlink:href="#DejaVuSans-65"/>
     </g>
    </g>
    <g id="patch_206">
     <path d="M 639.878125 129.960312 
L 659.878125 129.960312 
L 659.878125 122.960312 
L 639.878125 122.960312 
z
" style="fill:#e377c2;"/>
    </g>
    <g id="text_25">
     <!-- GB -->
     <defs>
      <path d="M 59.515625 10.40625 
L 59.515625 29.984375 
L 43.40625 29.984375 
L 43.40625 38.09375 
L 69.28125 38.09375 
L 69.28125 6.78125 
Q 63.578125 2.734375 56.6875 0.65625 
Q 49.8125 -1.421875 42 -1.421875 
Q 24.90625 -1.421875 15.25 8.5625 
Q 5.609375 18.5625 5.609375 36.375 
Q 5.609375 54.25 15.25 64.234375 
Q 24.90625 74.21875 42 74.21875 
Q 49.125 74.21875 55.546875 72.453125 
Q 61.96875 70.703125 67.390625 67.28125 
L 67.390625 56.78125 
Q 61.921875 61.421875 55.765625 63.765625 
Q 49.609375 66.109375 42.828125 66.109375 
Q 29.4375 66.109375 22.71875 58.640625 
Q 16.015625 51.171875 16.015625 36.375 
Q 16.015625 21.625 22.71875 14.15625 
Q 29.4375 6.6875 42.828125 6.6875 
Q 48.046875 6.6875 52.140625 7.59375 
Q 56.25 8.5 59.515625 10.40625 
z
" id="DejaVuSans-71"/>
     </defs>
     <g transform="translate(667.878125 129.960312)scale(0.1 -0.1)">
      <use xlink:href="#DejaVuSans-71"/>
      <use x="77.490234" xlink:href="#DejaVuSans-66"/>
     </g>
    </g>
    <g id="patch_207">
     <path d="M 639.878125 144.638438 
L 659.878125 144.638438 
L 659.878125 137.638438 
L 639.878125 137.638438 
z
" style="fill:#7f7f7f;"/>
    </g>
    <g id="text_26">
     <!-- DE -->
     <g transform="translate(667.878125 144.638438)scale(0.1 -0.1)">
      <use xlink:href="#DejaVuSans-68"/>
      <use x="77.001953" xlink:href="#DejaVuSans-69"/>
     </g>
    </g>
    <g id="patch_208">
     <path d="M 639.878125 159.316562 
L 659.878125 159.316562 
L 659.878125 152.316562 
L 639.878125 152.316562 
z
" style="fill:#bcbd22;"/>
    </g>
    <g id="text_27">
     <!-- FR -->
     <defs>
      <path d="M 9.8125 72.90625 
L 51.703125 72.90625 
L 51.703125 64.59375 
L 19.671875 64.59375 
L 19.671875 43.109375 
L 48.578125 43.109375 
L 48.578125 34.8125 
L 19.671875 34.8125 
L 19.671875 0 
L 9.8125 0 
z
" id="DejaVuSans-70"/>
      <path d="M 44.390625 34.1875 
Q 47.5625 33.109375 50.5625 29.59375 
Q 53.5625 26.078125 56.59375 19.921875 
L 66.609375 0 
L 56 0 
L 46.6875 18.703125 
Q 43.0625 26.03125 39.671875 28.421875 
Q 36.28125 30.8125 30.421875 30.8125 
L 19.671875 30.8125 
L 19.671875 0 
L 9.8125 0 
L 9.8125 72.90625 
L 32.078125 72.90625 
Q 44.578125 72.90625 50.734375 67.671875 
Q 56.890625 62.453125 56.890625 51.90625 
Q 56.890625 45.015625 53.6875 40.46875 
Q 50.484375 35.9375 44.390625 34.1875 
z
M 19.671875 64.796875 
L 19.671875 38.921875 
L 32.078125 38.921875 
Q 39.203125 38.921875 42.84375 42.21875 
Q 46.484375 45.515625 46.484375 51.90625 
Q 46.484375 58.296875 42.84375 61.546875 
Q 39.203125 64.796875 32.078125 64.796875 
z
" id="DejaVuSans-82"/>
     </defs>
     <g transform="translate(667.878125 159.316562)scale(0.1 -0.1)">
      <use xlink:href="#DejaVuSans-70"/>
      <use x="57.519531" xlink:href="#DejaVuSans-82"/>
     </g>
    </g>
    <g id="patch_209">
     <path d="M 639.878125 173.994687 
L 659.878125 173.994687 
L 659.878125 166.994687 
L 639.878125 166.994687 
z
" style="fill:#17becf;"/>
    </g>
    <g id="text_28">
     <!-- CN -->
     <g transform="translate(667.878125 173.994687)scale(0.1 -0.1)">
      <use xlink:href="#DejaVuSans-67"/>
      <use x="69.824219" xlink:href="#DejaVuSans-78"/>
     </g>
    </g>
    <g id="patch_210">
     <path d="M 639.878125 188.672812 
L 659.878125 188.672812 
L 659.878125 181.672812 
L 639.878125 181.672812 
z
" style="fill:#1f77b4;"/>
    </g>
    <g id="text_29">
     <!-- BE -->
     <g transform="translate(667.878125 188.672812)scale(0.1 -0.1)">
      <use xlink:href="#DejaVuSans-66"/>
      <use x="68.603516" xlink:href="#DejaVuSans-69"/>
     </g>
    </g>
    <g id="patch_211">
     <path d="M 639.878125 203.350937 
L 659.878125 203.350937 
L 659.878125 196.350937 
L 639.878125 196.350937 
z
" style="fill:#ff7f0e;"/>
    </g>
    <g id="text_30">
     <!-- AU -->
     <g transform="translate(667.878125 203.350937)scale(0.1 -0.1)">
      <use xlink:href="#DejaVuSans-65"/>
      <use x="68.408203" xlink:href="#DejaVuSans-85"/>
     </g>
    </g>
    <g id="patch_212">
     <path d="M 639.878125 218.029062 
L 659.878125 218.029062 
L 659.878125 211.029062 
L 639.878125 211.029062 
z
" style="fill:#2ca02c;"/>
    </g>
    <g id="text_31">
     <!-- NL -->
     <defs>
      <path d="M 9.8125 72.90625 
L 19.671875 72.90625 
L 19.671875 8.296875 
L 55.171875 8.296875 
L 55.171875 0 
L 9.8125 0 
z
" id="DejaVuSans-76"/>
     </defs>
     <g transform="translate(667.878125 218.029062)scale(0.1 -0.1)">
      <use xlink:href="#DejaVuSans-78"/>
      <use x="74.804688" xlink:href="#DejaVuSans-76"/>
     </g>
    </g>
    <g id="patch_213">
     <path d="M 639.878125 232.707187 
L 659.878125 232.707187 
L 659.878125 225.707187 
L 639.878125 225.707187 
z
" style="fill:#d62728;"/>
    </g>
    <g id="text_32">
     <!-- AR -->
     <g transform="translate(667.878125 232.707187)scale(0.1 -0.1)">
      <use xlink:href="#DejaVuSans-65"/>
      <use x="68.408203" xlink:href="#DejaVuSans-82"/>
     </g>
    </g>
    <g id="patch_214">
     <path d="M 639.878125 247.385312 
L 659.878125 247.385312 
L 659.878125 240.385312 
L 639.878125 240.385312 
z
" style="fill:#9467bd;"/>
    </g>
    <g id="text_33">
     <!-- BR -->
     <g transform="translate(667.878125 247.385312)scale(0.1 -0.1)">
      <use xlink:href="#DejaVuSans-66"/>
      <use x="68.603516" xlink:href="#DejaVuSans-82"/>
     </g>
    </g>
    <g id="patch_215">
     <path d="M 639.878125 262.063437 
L 659.878125 262.063437 
L 659.878125 255.063437 
L 639.878125 255.063437 
z
" style="fill:#8c564b;"/>
    </g>
    <g id="text_34">
     <!-- Others -->
     <g transform="translate(667.878125 262.063437)scale(0.1 -0.1)">
      <use xlink:href="#DejaVuSans-79"/>
      <use x="78.710938" xlink:href="#DejaVuSans-116"/>
      <use x="117.919922" xlink:href="#DejaVuSans-104"/>
      <use x="181.298828" xlink:href="#DejaVuSans-101"/>
      <use x="242.822266" xlink:href="#DejaVuSans-114"/>
      <use x="283.935547" xlink:href="#DejaVuSans-115"/>
     </g>
    </g>
   </g>
  </g>
 </g>
 <defs>
  <clipPath id="pa4b43ffd5f">
   <rect height="110.25" width="577.55" x="53.328125" y="36.318125"/>
  </clipPath>
 </defs>
</svg>
