<?xml version="1.0" encoding="utf-8" standalone="no"?>
<!DOCTYPE svg PUBLIC "-//W3C//DTD SVG 1.1//EN"
  "http://www.w3.org/Graphics/SVG/1.1/DTD/svg11.dtd">
<!-- Created with matplotlib (https://matplotlib.org/) -->
<svg height="279.218125pt" version="1.1" viewBox="0 0 709.485 279.218125" width="709.485pt" xmlns="http://www.w3.org/2000/svg" xmlns:xlink="http://www.w3.org/1999/xlink">
 <defs>
  <style type="text/css">
*{stroke-linecap:butt;stroke-linejoin:round;}
  </style>
 </defs>
 <g id="figure_1">
  <g id="patch_1">
   <path d="M -0 279.218125 
L 709.485 279.218125 
L 709.485 0 
L -0 0 
z
" style="fill:#ffffff;"/>
  </g>
  <g id="axes_1">
   <g id="patch_2">
    <path d="M 34.2625 145.65875 
L 654.9225 145.65875 
L 654.9225 36.32 
L 34.2625 36.32 
z
" style="fill:#ffffff;"/>
   </g>
   <g id="patch_3">
    <path clip-path="url(#pe28b0ec6ab)" d="M 62.474318 145.65875 
L 100.727631 145.65875 
L 100.727631 140.486389 
L 62.474318 140.486389 
z
" style="fill:#1f77b4;"/>
   </g>
   <g id="patch_4">
    <path clip-path="url(#pe28b0ec6ab)" d="M 110.290959 145.65875 
L 148.544272 145.65875 
L 148.544272 119.973228 
L 110.290959 119.973228 
z
" style="fill:#1f77b4;"/>
   </g>
   <g id="patch_5">
    <path clip-path="url(#pe28b0ec6ab)" d="M 158.1076 145.65875 
L 196.360913 145.65875 
L 196.360913 138.691487 
L 158.1076 138.691487 
z
" style="fill:#1f77b4;"/>
   </g>
   <g id="patch_6">
    <path clip-path="url(#pe28b0ec6ab)" d="M 205.924241 145.65875 
L 244.177554 145.65875 
L 244.177554 132.763905 
L 205.924241 132.763905 
z
" style="fill:#1f77b4;"/>
   </g>
   <g id="patch_7">
    <path clip-path="url(#pe28b0ec6ab)" d="M 253.740882 145.65875 
L 291.994195 145.65875 
L 291.994195 87.368522 
L 253.740882 87.368522 
z
" style="fill:#1f77b4;"/>
   </g>
   <g id="patch_8">
    <path clip-path="url(#pe28b0ec6ab)" d="M 301.557523 145.65875 
L 339.810836 145.65875 
L 339.810836 107.362843 
L 301.557523 107.362843 
z
" style="fill:#1f77b4;"/>
   </g>
   <g id="patch_9">
    <path clip-path="url(#pe28b0ec6ab)" d="M 349.374164 145.65875 
L 387.627477 145.65875 
L 387.627477 116.812118 
L 349.374164 116.812118 
z
" style="fill:#1f77b4;"/>
   </g>
   <g id="patch_10">
    <path clip-path="url(#pe28b0ec6ab)" d="M 397.190805 145.65875 
L 435.444118 145.65875 
L 435.444118 125.796642 
L 397.190805 125.796642 
z
" style="fill:#1f77b4;"/>
   </g>
   <g id="patch_11">
    <path clip-path="url(#pe28b0ec6ab)" d="M 445.007446 145.65875 
L 483.260759 145.65875 
L 483.260759 90.15102 
L 445.007446 90.15102 
z
" style="fill:#1f77b4;"/>
   </g>
   <g id="patch_12">
    <path clip-path="url(#pe28b0ec6ab)" d="M 492.824087 145.65875 
L 531.0774 145.65875 
L 531.0774 100.229312 
L 492.824087 100.229312 
z
" style="fill:#1f77b4;"/>
   </g>
   <g id="patch_13">
    <path clip-path="url(#pe28b0ec6ab)" d="M 540.640728 145.65875 
L 578.894041 145.65875 
L 578.894041 139.128193 
L 540.640728 139.128193 
z
" style="fill:#1f77b4;"/>
   </g>
   <g id="patch_14">
    <path clip-path="url(#pe28b0ec6ab)" d="M 588.457369 145.65875 
L 626.710682 145.65875 
L 626.710682 92.625019 
L 588.457369 92.625019 
z
" style="fill:#1f77b4;"/>
   </g>
   <g id="patch_15">
    <path clip-path="url(#pe28b0ec6ab)" d="M 62.474318 140.486389 
L 100.727631 140.486389 
L 100.727631 118.763272 
L 62.474318 118.763272 
z
" style="fill:#ff7f0e;"/>
   </g>
   <g id="patch_16">
    <path clip-path="url(#pe28b0ec6ab)" d="M 110.290959 119.973228 
L 148.544272 119.973228 
L 148.544272 106.130852 
L 110.290959 106.130852 
z
" style="fill:#ff7f0e;"/>
   </g>
   <g id="patch_17">
    <path clip-path="url(#pe28b0ec6ab)" d="M 158.1076 138.691487 
L 196.360913 138.691487 
L 196.360913 78.436082 
L 158.1076 78.436082 
z
" style="fill:#ff7f0e;"/>
   </g>
   <g id="patch_18">
    <path clip-path="url(#pe28b0ec6ab)" d="M 205.924241 132.763905 
L 244.177554 132.763905 
L 244.177554 122.81983 
L 205.924241 122.81983 
z
" style="fill:#ff7f0e;"/>
   </g>
   <g id="patch_19">
    <path clip-path="url(#pe28b0ec6ab)" d="M 253.740882 87.368522 
L 291.994195 87.368522 
L 291.994195 73.299779 
L 253.740882 73.299779 
z
" style="fill:#ff7f0e;"/>
   </g>
   <g id="patch_20">
    <path clip-path="url(#pe28b0ec6ab)" d="M 301.557523 107.362843 
L 339.810836 107.362843 
L 339.810836 87.75114 
L 301.557523 87.75114 
z
" style="fill:#ff7f0e;"/>
   </g>
   <g id="patch_21">
    <path clip-path="url(#pe28b0ec6ab)" d="M 349.374164 116.812118 
L 387.627477 116.812118 
L 387.627477 80.37121 
L 349.374164 80.37121 
z
" style="fill:#ff7f0e;"/>
   </g>
   <g id="patch_22">
    <path clip-path="url(#pe28b0ec6ab)" d="M 397.190805 125.796642 
L 435.444118 125.796642 
L 435.444118 107.689371 
L 397.190805 107.689371 
z
" style="fill:#ff7f0e;"/>
   </g>
   <g id="patch_23">
    <path clip-path="url(#pe28b0ec6ab)" d="M 445.007446 90.15102 
L 483.260759 90.15102 
L 483.260759 79.782258 
L 445.007446 79.782258 
z
" style="fill:#ff7f0e;"/>
   </g>
   <g id="patch_24">
    <path clip-path="url(#pe28b0ec6ab)" d="M 492.824087 100.229312 
L 531.0774 100.229312 
L 531.0774 70.419122 
L 492.824087 70.419122 
z
" style="fill:#ff7f0e;"/>
   </g>
   <g id="patch_25">
    <path clip-path="url(#pe28b0ec6ab)" d="M 540.640728 139.128193 
L 578.894041 139.128193 
L 578.894041 110.810416 
L 540.640728 110.810416 
z
" style="fill:#ff7f0e;"/>
   </g>
   <g id="patch_26">
    <path clip-path="url(#pe28b0ec6ab)" d="M 588.457369 92.625019 
L 626.710682 92.625019 
L 626.710682 72.045752 
L 588.457369 72.045752 
z
" style="fill:#ff7f0e;"/>
   </g>
   <g id="patch_27">
    <path clip-path="url(#pe28b0ec6ab)" d="M 62.474318 118.763272 
L 100.727631 118.763272 
L 100.727631 42.175466 
L 62.474318 42.175466 
z
" style="fill:#2ca02c;"/>
   </g>
   <g id="patch_28">
    <path clip-path="url(#pe28b0ec6ab)" d="M 110.290959 106.130852 
L 148.544272 106.130852 
L 148.544272 100.131153 
L 110.290959 100.131153 
z
" style="fill:#2ca02c;"/>
   </g>
   <g id="patch_29">
    <path clip-path="url(#pe28b0ec6ab)" d="M 158.1076 78.436082 
L 196.360913 78.436082 
L 196.360913 75.823859 
L 158.1076 75.823859 
z
" style="fill:#2ca02c;"/>
   </g>
   <g id="patch_30">
    <path clip-path="url(#pe28b0ec6ab)" d="M 205.924241 122.81983 
L 244.177554 122.81983 
L 244.177554 86.805612 
L 205.924241 86.805612 
z
" style="fill:#2ca02c;"/>
   </g>
   <g id="patch_31">
    <path clip-path="url(#pe28b0ec6ab)" d="M 253.740882 73.299779 
L 291.994195 73.299779 
L 291.994195 66.088121 
L 253.740882 66.088121 
z
" style="fill:#2ca02c;"/>
   </g>
   <g id="patch_32">
    <path clip-path="url(#pe28b0ec6ab)" d="M 301.557523 87.75114 
L 339.810836 87.75114 
L 339.810836 41.057659 
L 301.557523 41.057659 
z
" style="fill:#2ca02c;"/>
   </g>
   <g id="patch_33">
    <path clip-path="url(#pe28b0ec6ab)" d="M 349.374164 80.37121 
L 387.627477 80.37121 
L 387.627477 71.947593 
L 349.374164 71.947593 
z
" style="fill:#2ca02c;"/>
   </g>
   <g id="patch_34">
    <path clip-path="url(#pe28b0ec6ab)" d="M 397.190805 107.689371 
L 435.444118 107.689371 
L 435.444118 93.774878 
L 397.190805 93.774878 
z
" style="fill:#2ca02c;"/>
   </g>
   <g id="patch_35">
    <path clip-path="url(#pe28b0ec6ab)" d="M 445.007446 79.782258 
L 483.260759 79.782258 
L 483.260759 67.979178 
L 445.007446 67.979178 
z
" style="fill:#2ca02c;"/>
   </g>
   <g id="patch_36">
    <path clip-path="url(#pe28b0ec6ab)" d="M 492.824087 70.419122 
L 531.0774 70.419122 
L 531.0774 54.016607 
L 492.824087 54.016607 
z
" style="fill:#2ca02c;"/>
   </g>
   <g id="patch_37">
    <path clip-path="url(#pe28b0ec6ab)" d="M 540.640728 110.810416 
L 578.894041 110.810416 
L 578.894041 75.543406 
L 540.640728 75.543406 
z
" style="fill:#2ca02c;"/>
   </g>
   <g id="patch_38">
    <path clip-path="url(#pe28b0ec6ab)" d="M 588.457369 72.045752 
L 626.710682 72.045752 
L 626.710682 59.860053 
L 588.457369 59.860053 
z
" style="fill:#2ca02c;"/>
   </g>
   <g id="patch_39">
    <path clip-path="url(#pe28b0ec6ab)" d="M 62.474318 42.175466 
L 100.727631 42.175466 
L 100.727631 42.175466 
L 62.474318 42.175466 
z
" style="fill:#d62728;"/>
   </g>
   <g id="patch_40">
    <path clip-path="url(#pe28b0ec6ab)" d="M 110.290959 100.131153 
L 148.544272 100.131153 
L 148.544272 100.131153 
L 110.290959 100.131153 
z
" style="fill:#d62728;"/>
   </g>
   <g id="patch_41">
    <path clip-path="url(#pe28b0ec6ab)" d="M 158.1076 75.823859 
L 196.360913 75.823859 
L 196.360913 36.32 
L 158.1076 36.32 
z
" style="fill:#d62728;"/>
   </g>
   <g id="patch_42">
    <path clip-path="url(#pe28b0ec6ab)" d="M 205.924241 86.805612 
L 244.177554 86.805612 
L 244.177554 85.683798 
L 205.924241 85.683798 
z
" style="fill:#d62728;"/>
   </g>
   <g id="patch_43">
    <path clip-path="url(#pe28b0ec6ab)" d="M 253.740882 66.088121 
L 291.994195 66.088121 
L 291.994195 65.188667 
L 253.740882 65.188667 
z
" style="fill:#d62728;"/>
   </g>
   <g id="patch_44">
    <path clip-path="url(#pe28b0ec6ab)" d="M 301.557523 41.057659 
L 339.810836 41.057659 
L 339.810836 40.911422 
L 301.557523 40.911422 
z
" style="fill:#d62728;"/>
   </g>
   <g id="patch_45">
    <path clip-path="url(#pe28b0ec6ab)" d="M 349.374164 71.947593 
L 387.627477 71.947593 
L 387.627477 71.869467 
L 349.374164 71.869467 
z
" style="fill:#d62728;"/>
   </g>
   <g id="patch_46">
    <path clip-path="url(#pe28b0ec6ab)" d="M 397.190805 93.774878 
L 435.444118 93.774878 
L 435.444118 93.632648 
L 397.190805 93.632648 
z
" style="fill:#d62728;"/>
   </g>
   <g id="patch_47">
    <path clip-path="url(#pe28b0ec6ab)" d="M 445.007446 67.979178 
L 483.260759 67.979178 
L 483.260759 65.399007 
L 445.007446 65.399007 
z
" style="fill:#d62728;"/>
   </g>
   <g id="patch_48">
    <path clip-path="url(#pe28b0ec6ab)" d="M 492.824087 54.016607 
L 531.0774 54.016607 
L 531.0774 53.782228 
L 492.824087 53.782228 
z
" style="fill:#d62728;"/>
   </g>
   <g id="patch_49">
    <path clip-path="url(#pe28b0ec6ab)" d="M 540.640728 75.543406 
L 578.894041 75.543406 
L 578.894041 75.543406 
L 540.640728 75.543406 
z
" style="fill:#d62728;"/>
   </g>
   <g id="patch_50">
    <path clip-path="url(#pe28b0ec6ab)" d="M 588.457369 59.860053 
L 626.710682 59.860053 
L 626.710682 58.0331 
L 588.457369 58.0331 
z
" style="fill:#d62728;"/>
   </g>
   <g id="patch_51">
    <path clip-path="url(#pe28b0ec6ab)" d="M 62.474318 42.175466 
L 100.727631 42.175466 
L 100.727631 42.175466 
L 62.474318 42.175466 
z
" style="fill:#9467bd;"/>
   </g>
   <g id="patch_52">
    <path clip-path="url(#pe28b0ec6ab)" d="M 110.290959 100.131153 
L 148.544272 100.131153 
L 148.544272 100.026985 
L 110.290959 100.026985 
z
" style="fill:#9467bd;"/>
   </g>
   <g id="patch_53">
    <path clip-path="url(#pe28b0ec6ab)" d="M 158.1076 36.32 
L 196.360913 36.32 
L 196.360913 36.32 
L 158.1076 36.32 
z
" style="fill:#9467bd;"/>
   </g>
   <g id="patch_54">
    <path clip-path="url(#pe28b0ec6ab)" d="M 205.924241 85.683798 
L 244.177554 85.683798 
L 244.177554 84.72625 
L 205.924241 84.72625 
z
" style="fill:#9467bd;"/>
   </g>
   <g id="patch_55">
    <path clip-path="url(#pe28b0ec6ab)" d="M 253.740882 65.188667 
L 291.994195 65.188667 
L 291.994195 65.092512 
L 253.740882 65.092512 
z
" style="fill:#9467bd;"/>
   </g>
   <g id="patch_56">
    <path clip-path="url(#pe28b0ec6ab)" d="M 301.557523 40.911422 
L 339.810836 40.911422 
L 339.810836 40.911422 
L 301.557523 40.911422 
z
" style="fill:#9467bd;"/>
   </g>
   <g id="patch_57">
    <path clip-path="url(#pe28b0ec6ab)" d="M 349.374164 71.869467 
L 387.627477 71.869467 
L 387.627477 71.869467 
L 349.374164 71.869467 
z
" style="fill:#9467bd;"/>
   </g>
   <g id="patch_58">
    <path clip-path="url(#pe28b0ec6ab)" d="M 397.190805 93.632648 
L 435.444118 93.632648 
L 435.444118 92.671094 
L 397.190805 92.671094 
z
" style="fill:#9467bd;"/>
   </g>
   <g id="patch_59">
    <path clip-path="url(#pe28b0ec6ab)" d="M 445.007446 65.399007 
L 483.260759 65.399007 
L 483.260759 56.961368 
L 445.007446 56.961368 
z
" style="fill:#9467bd;"/>
   </g>
   <g id="patch_60">
    <path clip-path="url(#pe28b0ec6ab)" d="M 492.824087 53.782228 
L 531.0774 53.782228 
L 531.0774 47.916747 
L 492.824087 47.916747 
z
" style="fill:#9467bd;"/>
   </g>
   <g id="patch_61">
    <path clip-path="url(#pe28b0ec6ab)" d="M 540.640728 75.543406 
L 578.894041 75.543406 
L 578.894041 75.543406 
L 540.640728 75.543406 
z
" style="fill:#9467bd;"/>
   </g>
   <g id="patch_62">
    <path clip-path="url(#pe28b0ec6ab)" d="M 588.457369 58.0331 
L 626.710682 58.0331 
L 626.710682 54.779841 
L 588.457369 54.779841 
z
" style="fill:#9467bd;"/>
   </g>
   <g id="matplotlib.axis_1">
    <g id="xtick_1">
     <g id="line2d_1">
      <defs>
       <path d="M 0 0 
L 0 3.5 
" id="mc9f364dd64" style="stroke:#000000;stroke-width:0.8;"/>
      </defs>
      <g>
       <use style="stroke:#000000;stroke-width:0.8;" x="81.600975" xlink:href="#mc9f364dd64" y="145.65875"/>
      </g>
     </g>
     <g id="text_1">
      <!-- Marrakesh ICANN55 -->
      <defs>
       <path d="M 9.8125 72.90625 
L 24.515625 72.90625 
L 43.109375 23.296875 
L 61.8125 72.90625 
L 76.515625 72.90625 
L 76.515625 0 
L 66.890625 0 
L 66.890625 64.015625 
L 48.09375 14.015625 
L 38.1875 14.015625 
L 19.390625 64.015625 
L 19.390625 0 
L 9.8125 0 
z
" id="DejaVuSans-77"/>
       <path d="M 34.28125 27.484375 
Q 23.390625 27.484375 19.1875 25 
Q 14.984375 22.515625 14.984375 16.5 
Q 14.984375 11.71875 18.140625 8.90625 
Q 21.296875 6.109375 26.703125 6.109375 
Q 34.1875 6.109375 38.703125 11.40625 
Q 43.21875 16.703125 43.21875 25.484375 
L 43.21875 27.484375 
z
M 52.203125 31.203125 
L 52.203125 0 
L 43.21875 0 
L 43.21875 8.296875 
Q 40.140625 3.328125 35.546875 0.953125 
Q 30.953125 -1.421875 24.3125 -1.421875 
Q 15.921875 -1.421875 10.953125 3.296875 
Q 6 8.015625 6 15.921875 
Q 6 25.140625 12.171875 29.828125 
Q 18.359375 34.515625 30.609375 34.515625 
L 43.21875 34.515625 
L 43.21875 35.40625 
Q 43.21875 41.609375 39.140625 45 
Q 35.0625 48.390625 27.6875 48.390625 
Q 23 48.390625 18.546875 47.265625 
Q 14.109375 46.140625 10.015625 43.890625 
L 10.015625 52.203125 
Q 14.9375 54.109375 19.578125 55.046875 
Q 24.21875 56 28.609375 56 
Q 40.484375 56 46.34375 49.84375 
Q 52.203125 43.703125 52.203125 31.203125 
z
" id="DejaVuSans-97"/>
       <path d="M 41.109375 46.296875 
Q 39.59375 47.171875 37.8125 47.578125 
Q 36.03125 48 33.890625 48 
Q 26.265625 48 22.1875 43.046875 
Q 18.109375 38.09375 18.109375 28.8125 
L 18.109375 0 
L 9.078125 0 
L 9.078125 54.6875 
L 18.109375 54.6875 
L 18.109375 46.1875 
Q 20.953125 51.171875 25.484375 53.578125 
Q 30.03125 56 36.53125 56 
Q 37.453125 56 38.578125 55.875 
Q 39.703125 55.765625 41.0625 55.515625 
z
" id="DejaVuSans-114"/>
       <path d="M 9.078125 75.984375 
L 18.109375 75.984375 
L 18.109375 31.109375 
L 44.921875 54.6875 
L 56.390625 54.6875 
L 27.390625 29.109375 
L 57.625 0 
L 45.90625 0 
L 18.109375 26.703125 
L 18.109375 0 
L 9.078125 0 
z
" id="DejaVuSans-107"/>
       <path d="M 56.203125 29.59375 
L 56.203125 25.203125 
L 14.890625 25.203125 
Q 15.484375 15.921875 20.484375 11.0625 
Q 25.484375 6.203125 34.421875 6.203125 
Q 39.59375 6.203125 44.453125 7.46875 
Q 49.3125 8.734375 54.109375 11.28125 
L 54.109375 2.78125 
Q 49.265625 0.734375 44.1875 -0.34375 
Q 39.109375 -1.421875 33.890625 -1.421875 
Q 20.796875 -1.421875 13.15625 6.1875 
Q 5.515625 13.8125 5.515625 26.8125 
Q 5.515625 40.234375 12.765625 48.109375 
Q 20.015625 56 32.328125 56 
Q 43.359375 56 49.78125 48.890625 
Q 56.203125 41.796875 56.203125 29.59375 
z
M 47.21875 32.234375 
Q 47.125 39.59375 43.09375 43.984375 
Q 39.0625 48.390625 32.421875 48.390625 
Q 24.90625 48.390625 20.390625 44.140625 
Q 15.875 39.890625 15.1875 32.171875 
z
" id="DejaVuSans-101"/>
       <path d="M 44.28125 53.078125 
L 44.28125 44.578125 
Q 40.484375 46.53125 36.375 47.5 
Q 32.28125 48.484375 27.875 48.484375 
Q 21.1875 48.484375 17.84375 46.4375 
Q 14.5 44.390625 14.5 40.28125 
Q 14.5 37.15625 16.890625 35.375 
Q 19.28125 33.59375 26.515625 31.984375 
L 29.59375 31.296875 
Q 39.15625 29.25 43.1875 25.515625 
Q 47.21875 21.78125 47.21875 15.09375 
Q 47.21875 7.46875 41.1875 3.015625 
Q 35.15625 -1.421875 24.609375 -1.421875 
Q 20.21875 -1.421875 15.453125 -0.5625 
Q 10.6875 0.296875 5.421875 2 
L 5.421875 11.28125 
Q 10.40625 8.6875 15.234375 7.390625 
Q 20.0625 6.109375 24.8125 6.109375 
Q 31.15625 6.109375 34.5625 8.28125 
Q 37.984375 10.453125 37.984375 14.40625 
Q 37.984375 18.0625 35.515625 20.015625 
Q 33.0625 21.96875 24.703125 23.78125 
L 21.578125 24.515625 
Q 13.234375 26.265625 9.515625 29.90625 
Q 5.8125 33.546875 5.8125 39.890625 
Q 5.8125 47.609375 11.28125 51.796875 
Q 16.75 56 26.8125 56 
Q 31.78125 56 36.171875 55.265625 
Q 40.578125 54.546875 44.28125 53.078125 
z
" id="DejaVuSans-115"/>
       <path d="M 54.890625 33.015625 
L 54.890625 0 
L 45.90625 0 
L 45.90625 32.71875 
Q 45.90625 40.484375 42.875 44.328125 
Q 39.84375 48.1875 33.796875 48.1875 
Q 26.515625 48.1875 22.3125 43.546875 
Q 18.109375 38.921875 18.109375 30.90625 
L 18.109375 0 
L 9.078125 0 
L 9.078125 75.984375 
L 18.109375 75.984375 
L 18.109375 46.1875 
Q 21.34375 51.125 25.703125 53.5625 
Q 30.078125 56 35.796875 56 
Q 45.21875 56 50.046875 50.171875 
Q 54.890625 44.34375 54.890625 33.015625 
z
" id="DejaVuSans-104"/>
       <path id="DejaVuSans-32"/>
       <path d="M 9.8125 72.90625 
L 19.671875 72.90625 
L 19.671875 0 
L 9.8125 0 
z
" id="DejaVuSans-73"/>
       <path d="M 64.40625 67.28125 
L 64.40625 56.890625 
Q 59.421875 61.53125 53.78125 63.8125 
Q 48.140625 66.109375 41.796875 66.109375 
Q 29.296875 66.109375 22.65625 58.46875 
Q 16.015625 50.828125 16.015625 36.375 
Q 16.015625 21.96875 22.65625 14.328125 
Q 29.296875 6.6875 41.796875 6.6875 
Q 48.140625 6.6875 53.78125 8.984375 
Q 59.421875 11.28125 64.40625 15.921875 
L 64.40625 5.609375 
Q 59.234375 2.09375 53.4375 0.328125 
Q 47.65625 -1.421875 41.21875 -1.421875 
Q 24.65625 -1.421875 15.125 8.703125 
Q 5.609375 18.84375 5.609375 36.375 
Q 5.609375 53.953125 15.125 64.078125 
Q 24.65625 74.21875 41.21875 74.21875 
Q 47.75 74.21875 53.53125 72.484375 
Q 59.328125 70.75 64.40625 67.28125 
z
" id="DejaVuSans-67"/>
       <path d="M 34.1875 63.1875 
L 20.796875 26.90625 
L 47.609375 26.90625 
z
M 28.609375 72.90625 
L 39.796875 72.90625 
L 67.578125 0 
L 57.328125 0 
L 50.6875 18.703125 
L 17.828125 18.703125 
L 11.1875 0 
L 0.78125 0 
z
" id="DejaVuSans-65"/>
       <path d="M 9.8125 72.90625 
L 23.09375 72.90625 
L 55.421875 11.921875 
L 55.421875 72.90625 
L 64.984375 72.90625 
L 64.984375 0 
L 51.703125 0 
L 19.390625 60.984375 
L 19.390625 0 
L 9.8125 0 
z
" id="DejaVuSans-78"/>
       <path d="M 10.796875 72.90625 
L 49.515625 72.90625 
L 49.515625 64.59375 
L 19.828125 64.59375 
L 19.828125 46.734375 
Q 21.96875 47.46875 24.109375 47.828125 
Q 26.265625 48.1875 28.421875 48.1875 
Q 40.625 48.1875 47.75 41.5 
Q 54.890625 34.8125 54.890625 23.390625 
Q 54.890625 11.625 47.5625 5.09375 
Q 40.234375 -1.421875 26.90625 -1.421875 
Q 22.3125 -1.421875 17.546875 -0.640625 
Q 12.796875 0.140625 7.71875 1.703125 
L 7.71875 11.625 
Q 12.109375 9.234375 16.796875 8.0625 
Q 21.484375 6.890625 26.703125 6.890625 
Q 35.15625 6.890625 40.078125 11.328125 
Q 45.015625 15.765625 45.015625 23.390625 
Q 45.015625 31 40.078125 35.4375 
Q 35.15625 39.890625 26.703125 39.890625 
Q 22.75 39.890625 18.8125 39.015625 
Q 14.890625 38.140625 10.796875 36.28125 
z
" id="DejaVuSans-53"/>
      </defs>
      <g transform="translate(84.36035 252.357188)rotate(-90)scale(0.1 -0.1)">
       <use xlink:href="#DejaVuSans-77"/>
       <use x="86.279297" xlink:href="#DejaVuSans-97"/>
       <use x="147.558594" xlink:href="#DejaVuSans-114"/>
       <use x="186.921875" xlink:href="#DejaVuSans-114"/>
       <use x="228.035156" xlink:href="#DejaVuSans-97"/>
       <use x="289.314453" xlink:href="#DejaVuSans-107"/>
       <use x="343.599609" xlink:href="#DejaVuSans-101"/>
       <use x="405.123047" xlink:href="#DejaVuSans-115"/>
       <use x="457.222656" xlink:href="#DejaVuSans-104"/>
       <use x="520.601562" xlink:href="#DejaVuSans-32"/>
       <use x="552.388672" xlink:href="#DejaVuSans-73"/>
       <use x="581.880859" xlink:href="#DejaVuSans-67"/>
       <use x="651.705078" xlink:href="#DejaVuSans-65"/>
       <use x="720.113281" xlink:href="#DejaVuSans-78"/>
       <use x="794.917969" xlink:href="#DejaVuSans-78"/>
       <use x="869.722656" xlink:href="#DejaVuSans-53"/>
       <use x="933.345703" xlink:href="#DejaVuSans-53"/>
      </g>
     </g>
    </g>
    <g id="xtick_2">
     <g id="line2d_2">
      <g>
       <use style="stroke:#000000;stroke-width:0.8;" x="129.417616" xlink:href="#mc9f364dd64" y="145.65875"/>
      </g>
     </g>
     <g id="text_2">
      <!-- Helsinki ICANN56 -->
      <defs>
       <path d="M 9.8125 72.90625 
L 19.671875 72.90625 
L 19.671875 43.015625 
L 55.515625 43.015625 
L 55.515625 72.90625 
L 65.375 72.90625 
L 65.375 0 
L 55.515625 0 
L 55.515625 34.71875 
L 19.671875 34.71875 
L 19.671875 0 
L 9.8125 0 
z
" id="DejaVuSans-72"/>
       <path d="M 9.421875 75.984375 
L 18.40625 75.984375 
L 18.40625 0 
L 9.421875 0 
z
" id="DejaVuSans-108"/>
       <path d="M 9.421875 54.6875 
L 18.40625 54.6875 
L 18.40625 0 
L 9.421875 0 
z
M 9.421875 75.984375 
L 18.40625 75.984375 
L 18.40625 64.59375 
L 9.421875 64.59375 
z
" id="DejaVuSans-105"/>
       <path d="M 54.890625 33.015625 
L 54.890625 0 
L 45.90625 0 
L 45.90625 32.71875 
Q 45.90625 40.484375 42.875 44.328125 
Q 39.84375 48.1875 33.796875 48.1875 
Q 26.515625 48.1875 22.3125 43.546875 
Q 18.109375 38.921875 18.109375 30.90625 
L 18.109375 0 
L 9.078125 0 
L 9.078125 54.6875 
L 18.109375 54.6875 
L 18.109375 46.1875 
Q 21.34375 51.125 25.703125 53.5625 
Q 30.078125 56 35.796875 56 
Q 45.21875 56 50.046875 50.171875 
Q 54.890625 44.34375 54.890625 33.015625 
z
" id="DejaVuSans-110"/>
       <path d="M 33.015625 40.375 
Q 26.375 40.375 22.484375 35.828125 
Q 18.609375 31.296875 18.609375 23.390625 
Q 18.609375 15.53125 22.484375 10.953125 
Q 26.375 6.390625 33.015625 6.390625 
Q 39.65625 6.390625 43.53125 10.953125 
Q 47.40625 15.53125 47.40625 23.390625 
Q 47.40625 31.296875 43.53125 35.828125 
Q 39.65625 40.375 33.015625 40.375 
z
M 52.59375 71.296875 
L 52.59375 62.3125 
Q 48.875 64.0625 45.09375 64.984375 
Q 41.3125 65.921875 37.59375 65.921875 
Q 27.828125 65.921875 22.671875 59.328125 
Q 17.53125 52.734375 16.796875 39.40625 
Q 19.671875 43.65625 24.015625 45.921875 
Q 28.375 48.1875 33.59375 48.1875 
Q 44.578125 48.1875 50.953125 41.515625 
Q 57.328125 34.859375 57.328125 23.390625 
Q 57.328125 12.15625 50.6875 5.359375 
Q 44.046875 -1.421875 33.015625 -1.421875 
Q 20.359375 -1.421875 13.671875 8.265625 
Q 6.984375 17.96875 6.984375 36.375 
Q 6.984375 53.65625 15.1875 63.9375 
Q 23.390625 74.21875 37.203125 74.21875 
Q 40.921875 74.21875 44.703125 73.484375 
Q 48.484375 72.75 52.59375 71.296875 
z
" id="DejaVuSans-54"/>
      </defs>
      <g transform="translate(132.176991 239.643125)rotate(-90)scale(0.1 -0.1)">
       <use xlink:href="#DejaVuSans-72"/>
       <use x="75.195312" xlink:href="#DejaVuSans-101"/>
       <use x="136.71875" xlink:href="#DejaVuSans-108"/>
       <use x="164.501953" xlink:href="#DejaVuSans-115"/>
       <use x="216.601562" xlink:href="#DejaVuSans-105"/>
       <use x="244.384766" xlink:href="#DejaVuSans-110"/>
       <use x="307.763672" xlink:href="#DejaVuSans-107"/>
       <use x="365.673828" xlink:href="#DejaVuSans-105"/>
       <use x="393.457031" xlink:href="#DejaVuSans-32"/>
       <use x="425.244141" xlink:href="#DejaVuSans-73"/>
       <use x="454.736328" xlink:href="#DejaVuSans-67"/>
       <use x="524.560547" xlink:href="#DejaVuSans-65"/>
       <use x="592.96875" xlink:href="#DejaVuSans-78"/>
       <use x="667.773438" xlink:href="#DejaVuSans-78"/>
       <use x="742.578125" xlink:href="#DejaVuSans-53"/>
       <use x="806.201172" xlink:href="#DejaVuSans-54"/>
      </g>
     </g>
    </g>
    <g id="xtick_3">
     <g id="line2d_3">
      <g>
       <use style="stroke:#000000;stroke-width:0.8;" x="177.234257" xlink:href="#mc9f364dd64" y="145.65875"/>
      </g>
     </g>
     <g id="text_3">
      <!-- Hyderabad ICANN57 -->
      <defs>
       <path d="M 32.171875 -5.078125 
Q 28.375 -14.84375 24.75 -17.8125 
Q 21.140625 -20.796875 15.09375 -20.796875 
L 7.90625 -20.796875 
L 7.90625 -13.28125 
L 13.1875 -13.28125 
Q 16.890625 -13.28125 18.9375 -11.515625 
Q 21 -9.765625 23.484375 -3.21875 
L 25.09375 0.875 
L 2.984375 54.6875 
L 12.5 54.6875 
L 29.59375 11.921875 
L 46.6875 54.6875 
L 56.203125 54.6875 
z
" id="DejaVuSans-121"/>
       <path d="M 45.40625 46.390625 
L 45.40625 75.984375 
L 54.390625 75.984375 
L 54.390625 0 
L 45.40625 0 
L 45.40625 8.203125 
Q 42.578125 3.328125 38.25 0.953125 
Q 33.9375 -1.421875 27.875 -1.421875 
Q 17.96875 -1.421875 11.734375 6.484375 
Q 5.515625 14.40625 5.515625 27.296875 
Q 5.515625 40.1875 11.734375 48.09375 
Q 17.96875 56 27.875 56 
Q 33.9375 56 38.25 53.625 
Q 42.578125 51.265625 45.40625 46.390625 
z
M 14.796875 27.296875 
Q 14.796875 17.390625 18.875 11.75 
Q 22.953125 6.109375 30.078125 6.109375 
Q 37.203125 6.109375 41.296875 11.75 
Q 45.40625 17.390625 45.40625 27.296875 
Q 45.40625 37.203125 41.296875 42.84375 
Q 37.203125 48.484375 30.078125 48.484375 
Q 22.953125 48.484375 18.875 42.84375 
Q 14.796875 37.203125 14.796875 27.296875 
z
" id="DejaVuSans-100"/>
       <path d="M 48.6875 27.296875 
Q 48.6875 37.203125 44.609375 42.84375 
Q 40.53125 48.484375 33.40625 48.484375 
Q 26.265625 48.484375 22.1875 42.84375 
Q 18.109375 37.203125 18.109375 27.296875 
Q 18.109375 17.390625 22.1875 11.75 
Q 26.265625 6.109375 33.40625 6.109375 
Q 40.53125 6.109375 44.609375 11.75 
Q 48.6875 17.390625 48.6875 27.296875 
z
M 18.109375 46.390625 
Q 20.953125 51.265625 25.265625 53.625 
Q 29.59375 56 35.59375 56 
Q 45.5625 56 51.78125 48.09375 
Q 58.015625 40.1875 58.015625 27.296875 
Q 58.015625 14.40625 51.78125 6.484375 
Q 45.5625 -1.421875 35.59375 -1.421875 
Q 29.59375 -1.421875 25.265625 0.953125 
Q 20.953125 3.328125 18.109375 8.203125 
L 18.109375 0 
L 9.078125 0 
L 9.078125 75.984375 
L 18.109375 75.984375 
z
" id="DejaVuSans-98"/>
       <path d="M 8.203125 72.90625 
L 55.078125 72.90625 
L 55.078125 68.703125 
L 28.609375 0 
L 18.3125 0 
L 43.21875 64.59375 
L 8.203125 64.59375 
z
" id="DejaVuSans-55"/>
      </defs>
      <g transform="translate(179.993632 255.3025)rotate(-90)scale(0.1 -0.1)">
       <use xlink:href="#DejaVuSans-72"/>
       <use x="75.195312" xlink:href="#DejaVuSans-121"/>
       <use x="134.375" xlink:href="#DejaVuSans-100"/>
       <use x="197.851562" xlink:href="#DejaVuSans-101"/>
       <use x="259.375" xlink:href="#DejaVuSans-114"/>
       <use x="300.488281" xlink:href="#DejaVuSans-97"/>
       <use x="361.767578" xlink:href="#DejaVuSans-98"/>
       <use x="425.244141" xlink:href="#DejaVuSans-97"/>
       <use x="486.523438" xlink:href="#DejaVuSans-100"/>
       <use x="550" xlink:href="#DejaVuSans-32"/>
       <use x="581.787109" xlink:href="#DejaVuSans-73"/>
       <use x="611.279297" xlink:href="#DejaVuSans-67"/>
       <use x="681.103516" xlink:href="#DejaVuSans-65"/>
       <use x="749.511719" xlink:href="#DejaVuSans-78"/>
       <use x="824.316406" xlink:href="#DejaVuSans-78"/>
       <use x="899.121094" xlink:href="#DejaVuSans-53"/>
       <use x="962.744141" xlink:href="#DejaVuSans-55"/>
      </g>
     </g>
    </g>
    <g id="xtick_4">
     <g id="line2d_4">
      <g>
       <use style="stroke:#000000;stroke-width:0.8;" x="225.050898" xlink:href="#mc9f364dd64" y="145.65875"/>
      </g>
     </g>
     <g id="text_4">
      <!-- Copenhagen ICANN58 -->
      <defs>
       <path d="M 30.609375 48.390625 
Q 23.390625 48.390625 19.1875 42.75 
Q 14.984375 37.109375 14.984375 27.296875 
Q 14.984375 17.484375 19.15625 11.84375 
Q 23.34375 6.203125 30.609375 6.203125 
Q 37.796875 6.203125 41.984375 11.859375 
Q 46.1875 17.53125 46.1875 27.296875 
Q 46.1875 37.015625 41.984375 42.703125 
Q 37.796875 48.390625 30.609375 48.390625 
z
M 30.609375 56 
Q 42.328125 56 49.015625 48.375 
Q 55.71875 40.765625 55.71875 27.296875 
Q 55.71875 13.875 49.015625 6.21875 
Q 42.328125 -1.421875 30.609375 -1.421875 
Q 18.84375 -1.421875 12.171875 6.21875 
Q 5.515625 13.875 5.515625 27.296875 
Q 5.515625 40.765625 12.171875 48.375 
Q 18.84375 56 30.609375 56 
z
" id="DejaVuSans-111"/>
       <path d="M 18.109375 8.203125 
L 18.109375 -20.796875 
L 9.078125 -20.796875 
L 9.078125 54.6875 
L 18.109375 54.6875 
L 18.109375 46.390625 
Q 20.953125 51.265625 25.265625 53.625 
Q 29.59375 56 35.59375 56 
Q 45.5625 56 51.78125 48.09375 
Q 58.015625 40.1875 58.015625 27.296875 
Q 58.015625 14.40625 51.78125 6.484375 
Q 45.5625 -1.421875 35.59375 -1.421875 
Q 29.59375 -1.421875 25.265625 0.953125 
Q 20.953125 3.328125 18.109375 8.203125 
z
M 48.6875 27.296875 
Q 48.6875 37.203125 44.609375 42.84375 
Q 40.53125 48.484375 33.40625 48.484375 
Q 26.265625 48.484375 22.1875 42.84375 
Q 18.109375 37.203125 18.109375 27.296875 
Q 18.109375 17.390625 22.1875 11.75 
Q 26.265625 6.109375 33.40625 6.109375 
Q 40.53125 6.109375 44.609375 11.75 
Q 48.6875 17.390625 48.6875 27.296875 
z
" id="DejaVuSans-112"/>
       <path d="M 45.40625 27.984375 
Q 45.40625 37.75 41.375 43.109375 
Q 37.359375 48.484375 30.078125 48.484375 
Q 22.859375 48.484375 18.828125 43.109375 
Q 14.796875 37.75 14.796875 27.984375 
Q 14.796875 18.265625 18.828125 12.890625 
Q 22.859375 7.515625 30.078125 7.515625 
Q 37.359375 7.515625 41.375 12.890625 
Q 45.40625 18.265625 45.40625 27.984375 
z
M 54.390625 6.78125 
Q 54.390625 -7.171875 48.1875 -13.984375 
Q 42 -20.796875 29.203125 -20.796875 
Q 24.46875 -20.796875 20.265625 -20.09375 
Q 16.0625 -19.390625 12.109375 -17.921875 
L 12.109375 -9.1875 
Q 16.0625 -11.328125 19.921875 -12.34375 
Q 23.78125 -13.375 27.78125 -13.375 
Q 36.625 -13.375 41.015625 -8.765625 
Q 45.40625 -4.15625 45.40625 5.171875 
L 45.40625 9.625 
Q 42.625 4.78125 38.28125 2.390625 
Q 33.9375 0 27.875 0 
Q 17.828125 0 11.671875 7.65625 
Q 5.515625 15.328125 5.515625 27.984375 
Q 5.515625 40.671875 11.671875 48.328125 
Q 17.828125 56 27.875 56 
Q 33.9375 56 38.28125 53.609375 
Q 42.625 51.21875 45.40625 46.390625 
L 45.40625 54.6875 
L 54.390625 54.6875 
z
" id="DejaVuSans-103"/>
       <path d="M 31.78125 34.625 
Q 24.75 34.625 20.71875 30.859375 
Q 16.703125 27.09375 16.703125 20.515625 
Q 16.703125 13.921875 20.71875 10.15625 
Q 24.75 6.390625 31.78125 6.390625 
Q 38.8125 6.390625 42.859375 10.171875 
Q 46.921875 13.96875 46.921875 20.515625 
Q 46.921875 27.09375 42.890625 30.859375 
Q 38.875 34.625 31.78125 34.625 
z
M 21.921875 38.8125 
Q 15.578125 40.375 12.03125 44.71875 
Q 8.5 49.078125 8.5 55.328125 
Q 8.5 64.0625 14.71875 69.140625 
Q 20.953125 74.21875 31.78125 74.21875 
Q 42.671875 74.21875 48.875 69.140625 
Q 55.078125 64.0625 55.078125 55.328125 
Q 55.078125 49.078125 51.53125 44.71875 
Q 48 40.375 41.703125 38.8125 
Q 48.828125 37.15625 52.796875 32.3125 
Q 56.78125 27.484375 56.78125 20.515625 
Q 56.78125 9.90625 50.3125 4.234375 
Q 43.84375 -1.421875 31.78125 -1.421875 
Q 19.734375 -1.421875 13.25 4.234375 
Q 6.78125 9.90625 6.78125 20.515625 
Q 6.78125 27.484375 10.78125 32.3125 
Q 14.796875 37.15625 21.921875 38.8125 
z
M 18.3125 54.390625 
Q 18.3125 48.734375 21.84375 45.5625 
Q 25.390625 42.390625 31.78125 42.390625 
Q 38.140625 42.390625 41.71875 45.5625 
Q 45.3125 48.734375 45.3125 54.390625 
Q 45.3125 60.0625 41.71875 63.234375 
Q 38.140625 66.40625 31.78125 66.40625 
Q 25.390625 66.40625 21.84375 63.234375 
Q 18.3125 60.0625 18.3125 54.390625 
z
" id="DejaVuSans-56"/>
      </defs>
      <g transform="translate(227.810273 263.543125)rotate(-90)scale(0.1 -0.1)">
       <use xlink:href="#DejaVuSans-67"/>
       <use x="69.824219" xlink:href="#DejaVuSans-111"/>
       <use x="131.005859" xlink:href="#DejaVuSans-112"/>
       <use x="194.482422" xlink:href="#DejaVuSans-101"/>
       <use x="256.005859" xlink:href="#DejaVuSans-110"/>
       <use x="319.384766" xlink:href="#DejaVuSans-104"/>
       <use x="382.763672" xlink:href="#DejaVuSans-97"/>
       <use x="444.042969" xlink:href="#DejaVuSans-103"/>
       <use x="507.519531" xlink:href="#DejaVuSans-101"/>
       <use x="569.042969" xlink:href="#DejaVuSans-110"/>
       <use x="632.421875" xlink:href="#DejaVuSans-32"/>
       <use x="664.208984" xlink:href="#DejaVuSans-73"/>
       <use x="693.701172" xlink:href="#DejaVuSans-67"/>
       <use x="763.525391" xlink:href="#DejaVuSans-65"/>
       <use x="831.933594" xlink:href="#DejaVuSans-78"/>
       <use x="906.738281" xlink:href="#DejaVuSans-78"/>
       <use x="981.542969" xlink:href="#DejaVuSans-53"/>
       <use x="1045.166016" xlink:href="#DejaVuSans-56"/>
      </g>
     </g>
    </g>
    <g id="xtick_5">
     <g id="line2d_5">
      <g>
       <use style="stroke:#000000;stroke-width:0.8;" x="272.867539" xlink:href="#mc9f364dd64" y="145.65875"/>
      </g>
     </g>
     <g id="text_5">
      <!-- Johannesburg  ICANN59 -->
      <defs>
       <path d="M 9.8125 72.90625 
L 19.671875 72.90625 
L 19.671875 5.078125 
Q 19.671875 -8.109375 14.671875 -14.0625 
Q 9.671875 -20.015625 -1.421875 -20.015625 
L -5.171875 -20.015625 
L -5.171875 -11.71875 
L -2.09375 -11.71875 
Q 4.4375 -11.71875 7.125 -8.046875 
Q 9.8125 -4.390625 9.8125 5.078125 
z
" id="DejaVuSans-74"/>
       <path d="M 8.5 21.578125 
L 8.5 54.6875 
L 17.484375 54.6875 
L 17.484375 21.921875 
Q 17.484375 14.15625 20.5 10.265625 
Q 23.53125 6.390625 29.59375 6.390625 
Q 36.859375 6.390625 41.078125 11.03125 
Q 45.3125 15.671875 45.3125 23.6875 
L 45.3125 54.6875 
L 54.296875 54.6875 
L 54.296875 0 
L 45.3125 0 
L 45.3125 8.40625 
Q 42.046875 3.421875 37.71875 1 
Q 33.40625 -1.421875 27.6875 -1.421875 
Q 18.265625 -1.421875 13.375 4.4375 
Q 8.5 10.296875 8.5 21.578125 
z
M 31.109375 56 
z
" id="DejaVuSans-117"/>
       <path d="M 10.984375 1.515625 
L 10.984375 10.5 
Q 14.703125 8.734375 18.5 7.8125 
Q 22.3125 6.890625 25.984375 6.890625 
Q 35.75 6.890625 40.890625 13.453125 
Q 46.046875 20.015625 46.78125 33.40625 
Q 43.953125 29.203125 39.59375 26.953125 
Q 35.25 24.703125 29.984375 24.703125 
Q 19.046875 24.703125 12.671875 31.3125 
Q 6.296875 37.9375 6.296875 49.421875 
Q 6.296875 60.640625 12.9375 67.421875 
Q 19.578125 74.21875 30.609375 74.21875 
Q 43.265625 74.21875 49.921875 64.515625 
Q 56.59375 54.828125 56.59375 36.375 
Q 56.59375 19.140625 48.40625 8.859375 
Q 40.234375 -1.421875 26.421875 -1.421875 
Q 22.703125 -1.421875 18.890625 -0.6875 
Q 15.09375 0.046875 10.984375 1.515625 
z
M 30.609375 32.421875 
Q 37.25 32.421875 41.125 36.953125 
Q 45.015625 41.5 45.015625 49.421875 
Q 45.015625 57.28125 41.125 61.84375 
Q 37.25 66.40625 30.609375 66.40625 
Q 23.96875 66.40625 20.09375 61.84375 
Q 16.21875 57.28125 16.21875 49.421875 
Q 16.21875 41.5 20.09375 36.953125 
Q 23.96875 32.421875 30.609375 32.421875 
z
" id="DejaVuSans-57"/>
      </defs>
      <g transform="translate(275.626914 272.018125)rotate(-90)scale(0.1 -0.1)">
       <use xlink:href="#DejaVuSans-74"/>
       <use x="29.492188" xlink:href="#DejaVuSans-111"/>
       <use x="90.673828" xlink:href="#DejaVuSans-104"/>
       <use x="154.052734" xlink:href="#DejaVuSans-97"/>
       <use x="215.332031" xlink:href="#DejaVuSans-110"/>
       <use x="278.710938" xlink:href="#DejaVuSans-110"/>
       <use x="342.089844" xlink:href="#DejaVuSans-101"/>
       <use x="403.613281" xlink:href="#DejaVuSans-115"/>
       <use x="455.712891" xlink:href="#DejaVuSans-98"/>
       <use x="519.189453" xlink:href="#DejaVuSans-117"/>
       <use x="582.568359" xlink:href="#DejaVuSans-114"/>
       <use x="621.931641" xlink:href="#DejaVuSans-103"/>
       <use x="685.408203" xlink:href="#DejaVuSans-32"/>
       <use x="717.195312" xlink:href="#DejaVuSans-32"/>
       <use x="748.982422" xlink:href="#DejaVuSans-73"/>
       <use x="778.474609" xlink:href="#DejaVuSans-67"/>
       <use x="848.298828" xlink:href="#DejaVuSans-65"/>
       <use x="916.707031" xlink:href="#DejaVuSans-78"/>
       <use x="991.511719" xlink:href="#DejaVuSans-78"/>
       <use x="1066.316406" xlink:href="#DejaVuSans-53"/>
       <use x="1129.939453" xlink:href="#DejaVuSans-57"/>
      </g>
     </g>
    </g>
    <g id="xtick_6">
     <g id="line2d_6">
      <g>
       <use style="stroke:#000000;stroke-width:0.8;" x="320.68418" xlink:href="#mc9f364dd64" y="145.65875"/>
      </g>
     </g>
     <g id="text_6">
      <!-- Abu Dhabi ICANN60 -->
      <defs>
       <path d="M 19.671875 64.796875 
L 19.671875 8.109375 
L 31.59375 8.109375 
Q 46.6875 8.109375 53.6875 14.9375 
Q 60.6875 21.78125 60.6875 36.53125 
Q 60.6875 51.171875 53.6875 57.984375 
Q 46.6875 64.796875 31.59375 64.796875 
z
M 9.8125 72.90625 
L 30.078125 72.90625 
Q 51.265625 72.90625 61.171875 64.09375 
Q 71.09375 55.28125 71.09375 36.53125 
Q 71.09375 17.671875 61.125 8.828125 
Q 51.171875 0 30.078125 0 
L 9.8125 0 
z
" id="DejaVuSans-68"/>
       <path d="M 31.78125 66.40625 
Q 24.171875 66.40625 20.328125 58.90625 
Q 16.5 51.421875 16.5 36.375 
Q 16.5 21.390625 20.328125 13.890625 
Q 24.171875 6.390625 31.78125 6.390625 
Q 39.453125 6.390625 43.28125 13.890625 
Q 47.125 21.390625 47.125 36.375 
Q 47.125 51.421875 43.28125 58.90625 
Q 39.453125 66.40625 31.78125 66.40625 
z
M 31.78125 74.21875 
Q 44.046875 74.21875 50.515625 64.515625 
Q 56.984375 54.828125 56.984375 36.375 
Q 56.984375 17.96875 50.515625 8.265625 
Q 44.046875 -1.421875 31.78125 -1.421875 
Q 19.53125 -1.421875 13.0625 8.265625 
Q 6.59375 17.96875 6.59375 36.375 
Q 6.59375 54.828125 13.0625 64.515625 
Q 19.53125 74.21875 31.78125 74.21875 
z
" id="DejaVuSans-48"/>
      </defs>
      <g transform="translate(323.443555 252.294688)rotate(-90)scale(0.1 -0.1)">
       <use xlink:href="#DejaVuSans-65"/>
       <use x="68.408203" xlink:href="#DejaVuSans-98"/>
       <use x="131.884766" xlink:href="#DejaVuSans-117"/>
       <use x="195.263672" xlink:href="#DejaVuSans-32"/>
       <use x="227.050781" xlink:href="#DejaVuSans-68"/>
       <use x="304.052734" xlink:href="#DejaVuSans-104"/>
       <use x="367.431641" xlink:href="#DejaVuSans-97"/>
       <use x="428.710938" xlink:href="#DejaVuSans-98"/>
       <use x="492.1875" xlink:href="#DejaVuSans-105"/>
       <use x="519.970703" xlink:href="#DejaVuSans-32"/>
       <use x="551.757812" xlink:href="#DejaVuSans-73"/>
       <use x="581.25" xlink:href="#DejaVuSans-67"/>
       <use x="651.074219" xlink:href="#DejaVuSans-65"/>
       <use x="719.482422" xlink:href="#DejaVuSans-78"/>
       <use x="794.287109" xlink:href="#DejaVuSans-78"/>
       <use x="869.091797" xlink:href="#DejaVuSans-54"/>
       <use x="932.714844" xlink:href="#DejaVuSans-48"/>
      </g>
     </g>
    </g>
    <g id="xtick_7">
     <g id="line2d_7">
      <g>
       <use style="stroke:#000000;stroke-width:0.8;" x="368.50082" xlink:href="#mc9f364dd64" y="145.65875"/>
      </g>
     </g>
     <g id="text_7">
      <!-- San Juan ICANN61 -->
      <defs>
       <path d="M 53.515625 70.515625 
L 53.515625 60.890625 
Q 47.90625 63.578125 42.921875 64.890625 
Q 37.9375 66.21875 33.296875 66.21875 
Q 25.25 66.21875 20.875 63.09375 
Q 16.5 59.96875 16.5 54.203125 
Q 16.5 49.359375 19.40625 46.890625 
Q 22.3125 44.4375 30.421875 42.921875 
L 36.375 41.703125 
Q 47.40625 39.59375 52.65625 34.296875 
Q 57.90625 29 57.90625 20.125 
Q 57.90625 9.515625 50.796875 4.046875 
Q 43.703125 -1.421875 29.984375 -1.421875 
Q 24.8125 -1.421875 18.96875 -0.25 
Q 13.140625 0.921875 6.890625 3.21875 
L 6.890625 13.375 
Q 12.890625 10.015625 18.65625 8.296875 
Q 24.421875 6.59375 29.984375 6.59375 
Q 38.421875 6.59375 43.015625 9.90625 
Q 47.609375 13.234375 47.609375 19.390625 
Q 47.609375 24.75 44.3125 27.78125 
Q 41.015625 30.8125 33.5 32.328125 
L 27.484375 33.5 
Q 16.453125 35.6875 11.515625 40.375 
Q 6.59375 45.0625 6.59375 53.421875 
Q 6.59375 63.09375 13.40625 68.65625 
Q 20.21875 74.21875 32.171875 74.21875 
Q 37.3125 74.21875 42.625 73.28125 
Q 47.953125 72.359375 53.515625 70.515625 
z
" id="DejaVuSans-83"/>
       <path d="M 12.40625 8.296875 
L 28.515625 8.296875 
L 28.515625 63.921875 
L 10.984375 60.40625 
L 10.984375 69.390625 
L 28.421875 72.90625 
L 38.28125 72.90625 
L 38.28125 8.296875 
L 54.390625 8.296875 
L 54.390625 0 
L 12.40625 0 
z
" id="DejaVuSans-49"/>
      </defs>
      <g transform="translate(371.260195 244.043125)rotate(-90)scale(0.1 -0.1)">
       <use xlink:href="#DejaVuSans-83"/>
       <use x="63.476562" xlink:href="#DejaVuSans-97"/>
       <use x="124.755859" xlink:href="#DejaVuSans-110"/>
       <use x="188.134766" xlink:href="#DejaVuSans-32"/>
       <use x="219.921875" xlink:href="#DejaVuSans-74"/>
       <use x="249.414062" xlink:href="#DejaVuSans-117"/>
       <use x="312.792969" xlink:href="#DejaVuSans-97"/>
       <use x="374.072266" xlink:href="#DejaVuSans-110"/>
       <use x="437.451172" xlink:href="#DejaVuSans-32"/>
       <use x="469.238281" xlink:href="#DejaVuSans-73"/>
       <use x="498.730469" xlink:href="#DejaVuSans-67"/>
       <use x="568.554688" xlink:href="#DejaVuSans-65"/>
       <use x="636.962891" xlink:href="#DejaVuSans-78"/>
       <use x="711.767578" xlink:href="#DejaVuSans-78"/>
       <use x="786.572266" xlink:href="#DejaVuSans-54"/>
       <use x="850.195312" xlink:href="#DejaVuSans-49"/>
      </g>
     </g>
    </g>
    <g id="xtick_8">
     <g id="line2d_8">
      <g>
       <use style="stroke:#000000;stroke-width:0.8;" x="416.317461" xlink:href="#mc9f364dd64" y="145.65875"/>
      </g>
     </g>
     <g id="text_8">
      <!-- Panama ICANN62 -->
      <defs>
       <path d="M 19.671875 64.796875 
L 19.671875 37.40625 
L 32.078125 37.40625 
Q 38.96875 37.40625 42.71875 40.96875 
Q 46.484375 44.53125 46.484375 51.125 
Q 46.484375 57.671875 42.71875 61.234375 
Q 38.96875 64.796875 32.078125 64.796875 
z
M 9.8125 72.90625 
L 32.078125 72.90625 
Q 44.34375 72.90625 50.609375 67.359375 
Q 56.890625 61.8125 56.890625 51.125 
Q 56.890625 40.328125 50.609375 34.8125 
Q 44.34375 29.296875 32.078125 29.296875 
L 19.671875 29.296875 
L 19.671875 0 
L 9.8125 0 
z
" id="DejaVuSans-80"/>
       <path d="M 52 44.1875 
Q 55.375 50.25 60.0625 53.125 
Q 64.75 56 71.09375 56 
Q 79.640625 56 84.28125 50.015625 
Q 88.921875 44.046875 88.921875 33.015625 
L 88.921875 0 
L 79.890625 0 
L 79.890625 32.71875 
Q 79.890625 40.578125 77.09375 44.375 
Q 74.3125 48.1875 68.609375 48.1875 
Q 61.625 48.1875 57.5625 43.546875 
Q 53.515625 38.921875 53.515625 30.90625 
L 53.515625 0 
L 44.484375 0 
L 44.484375 32.71875 
Q 44.484375 40.625 41.703125 44.40625 
Q 38.921875 48.1875 33.109375 48.1875 
Q 26.21875 48.1875 22.15625 43.53125 
Q 18.109375 38.875 18.109375 30.90625 
L 18.109375 0 
L 9.078125 0 
L 9.078125 54.6875 
L 18.109375 54.6875 
L 18.109375 46.1875 
Q 21.1875 51.21875 25.484375 53.609375 
Q 29.78125 56 35.6875 56 
Q 41.65625 56 45.828125 52.96875 
Q 50 49.953125 52 44.1875 
z
" id="DejaVuSans-109"/>
       <path d="M 19.1875 8.296875 
L 53.609375 8.296875 
L 53.609375 0 
L 7.328125 0 
L 7.328125 8.296875 
Q 12.9375 14.109375 22.625 23.890625 
Q 32.328125 33.6875 34.8125 36.53125 
Q 39.546875 41.84375 41.421875 45.53125 
Q 43.3125 49.21875 43.3125 52.78125 
Q 43.3125 58.59375 39.234375 62.25 
Q 35.15625 65.921875 28.609375 65.921875 
Q 23.96875 65.921875 18.8125 64.3125 
Q 13.671875 62.703125 7.8125 59.421875 
L 7.8125 69.390625 
Q 13.765625 71.78125 18.9375 73 
Q 24.125 74.21875 28.421875 74.21875 
Q 39.75 74.21875 46.484375 68.546875 
Q 53.21875 62.890625 53.21875 53.421875 
Q 53.21875 48.921875 51.53125 44.890625 
Q 49.859375 40.875 45.40625 35.40625 
Q 44.1875 33.984375 37.640625 27.21875 
Q 31.109375 20.453125 19.1875 8.296875 
z
" id="DejaVuSans-50"/>
      </defs>
      <g transform="translate(419.076836 240.34)rotate(-90)scale(0.1 -0.1)">
       <use xlink:href="#DejaVuSans-80"/>
       <use x="55.802734" xlink:href="#DejaVuSans-97"/>
       <use x="117.082031" xlink:href="#DejaVuSans-110"/>
       <use x="180.460938" xlink:href="#DejaVuSans-97"/>
       <use x="241.740234" xlink:href="#DejaVuSans-109"/>
       <use x="339.152344" xlink:href="#DejaVuSans-97"/>
       <use x="400.431641" xlink:href="#DejaVuSans-32"/>
       <use x="432.21875" xlink:href="#DejaVuSans-73"/>
       <use x="461.710938" xlink:href="#DejaVuSans-67"/>
       <use x="531.535156" xlink:href="#DejaVuSans-65"/>
       <use x="599.943359" xlink:href="#DejaVuSans-78"/>
       <use x="674.748047" xlink:href="#DejaVuSans-78"/>
       <use x="749.552734" xlink:href="#DejaVuSans-54"/>
       <use x="813.175781" xlink:href="#DejaVuSans-50"/>
      </g>
     </g>
    </g>
    <g id="xtick_9">
     <g id="line2d_9">
      <g>
       <use style="stroke:#000000;stroke-width:0.8;" x="464.134102" xlink:href="#mc9f364dd64" y="145.65875"/>
      </g>
     </g>
     <g id="text_9">
      <!-- Barcelona ICANN63 -->
      <defs>
       <path d="M 19.671875 34.8125 
L 19.671875 8.109375 
L 35.5 8.109375 
Q 43.453125 8.109375 47.28125 11.40625 
Q 51.125 14.703125 51.125 21.484375 
Q 51.125 28.328125 47.28125 31.5625 
Q 43.453125 34.8125 35.5 34.8125 
z
M 19.671875 64.796875 
L 19.671875 42.828125 
L 34.28125 42.828125 
Q 41.5 42.828125 45.03125 45.53125 
Q 48.578125 48.25 48.578125 53.8125 
Q 48.578125 59.328125 45.03125 62.0625 
Q 41.5 64.796875 34.28125 64.796875 
z
M 9.8125 72.90625 
L 35.015625 72.90625 
Q 46.296875 72.90625 52.390625 68.21875 
Q 58.5 63.53125 58.5 54.890625 
Q 58.5 48.1875 55.375 44.234375 
Q 52.25 40.28125 46.1875 39.3125 
Q 53.46875 37.75 57.5 32.78125 
Q 61.53125 27.828125 61.53125 20.40625 
Q 61.53125 10.640625 54.890625 5.3125 
Q 48.25 0 35.984375 0 
L 9.8125 0 
z
" id="DejaVuSans-66"/>
       <path d="M 48.78125 52.59375 
L 48.78125 44.1875 
Q 44.96875 46.296875 41.140625 47.34375 
Q 37.3125 48.390625 33.40625 48.390625 
Q 24.65625 48.390625 19.8125 42.84375 
Q 14.984375 37.3125 14.984375 27.296875 
Q 14.984375 17.28125 19.8125 11.734375 
Q 24.65625 6.203125 33.40625 6.203125 
Q 37.3125 6.203125 41.140625 7.25 
Q 44.96875 8.296875 48.78125 10.40625 
L 48.78125 2.09375 
Q 45.015625 0.34375 40.984375 -0.53125 
Q 36.96875 -1.421875 32.421875 -1.421875 
Q 20.0625 -1.421875 12.78125 6.34375 
Q 5.515625 14.109375 5.515625 27.296875 
Q 5.515625 40.671875 12.859375 48.328125 
Q 20.21875 56 33.015625 56 
Q 37.15625 56 41.109375 55.140625 
Q 45.0625 54.296875 48.78125 52.59375 
z
" id="DejaVuSans-99"/>
       <path d="M 40.578125 39.3125 
Q 47.65625 37.796875 51.625 33 
Q 55.609375 28.21875 55.609375 21.1875 
Q 55.609375 10.40625 48.1875 4.484375 
Q 40.765625 -1.421875 27.09375 -1.421875 
Q 22.515625 -1.421875 17.65625 -0.515625 
Q 12.796875 0.390625 7.625 2.203125 
L 7.625 11.71875 
Q 11.71875 9.328125 16.59375 8.109375 
Q 21.484375 6.890625 26.8125 6.890625 
Q 36.078125 6.890625 40.9375 10.546875 
Q 45.796875 14.203125 45.796875 21.1875 
Q 45.796875 27.640625 41.28125 31.265625 
Q 36.765625 34.90625 28.71875 34.90625 
L 20.21875 34.90625 
L 20.21875 43.015625 
L 29.109375 43.015625 
Q 36.375 43.015625 40.234375 45.921875 
Q 44.09375 48.828125 44.09375 54.296875 
Q 44.09375 59.90625 40.109375 62.90625 
Q 36.140625 65.921875 28.71875 65.921875 
Q 24.65625 65.921875 20.015625 65.03125 
Q 15.375 64.15625 9.8125 62.3125 
L 9.8125 71.09375 
Q 15.4375 72.65625 20.34375 73.4375 
Q 25.25 74.21875 29.59375 74.21875 
Q 40.828125 74.21875 47.359375 69.109375 
Q 53.90625 64.015625 53.90625 55.328125 
Q 53.90625 49.265625 50.4375 45.09375 
Q 46.96875 40.921875 40.578125 39.3125 
z
" id="DejaVuSans-51"/>
      </defs>
      <g transform="translate(466.893477 250.186875)rotate(-90)scale(0.1 -0.1)">
       <use xlink:href="#DejaVuSans-66"/>
       <use x="68.603516" xlink:href="#DejaVuSans-97"/>
       <use x="129.882812" xlink:href="#DejaVuSans-114"/>
       <use x="168.746094" xlink:href="#DejaVuSans-99"/>
       <use x="223.726562" xlink:href="#DejaVuSans-101"/>
       <use x="285.25" xlink:href="#DejaVuSans-108"/>
       <use x="313.033203" xlink:href="#DejaVuSans-111"/>
       <use x="374.214844" xlink:href="#DejaVuSans-110"/>
       <use x="437.59375" xlink:href="#DejaVuSans-97"/>
       <use x="498.873047" xlink:href="#DejaVuSans-32"/>
       <use x="530.660156" xlink:href="#DejaVuSans-73"/>
       <use x="560.152344" xlink:href="#DejaVuSans-67"/>
       <use x="629.976562" xlink:href="#DejaVuSans-65"/>
       <use x="698.384766" xlink:href="#DejaVuSans-78"/>
       <use x="773.189453" xlink:href="#DejaVuSans-78"/>
       <use x="847.994141" xlink:href="#DejaVuSans-54"/>
       <use x="911.617188" xlink:href="#DejaVuSans-51"/>
      </g>
     </g>
    </g>
    <g id="xtick_10">
     <g id="line2d_10">
      <g>
       <use style="stroke:#000000;stroke-width:0.8;" x="511.950743" xlink:href="#mc9f364dd64" y="145.65875"/>
      </g>
     </g>
     <g id="text_10">
      <!-- Osaka ICANN64 -->
      <defs>
       <path d="M 39.40625 66.21875 
Q 28.65625 66.21875 22.328125 58.203125 
Q 16.015625 50.203125 16.015625 36.375 
Q 16.015625 22.609375 22.328125 14.59375 
Q 28.65625 6.59375 39.40625 6.59375 
Q 50.140625 6.59375 56.421875 14.59375 
Q 62.703125 22.609375 62.703125 36.375 
Q 62.703125 50.203125 56.421875 58.203125 
Q 50.140625 66.21875 39.40625 66.21875 
z
M 39.40625 74.21875 
Q 54.734375 74.21875 63.90625 63.9375 
Q 73.09375 53.65625 73.09375 36.375 
Q 73.09375 19.140625 63.90625 8.859375 
Q 54.734375 -1.421875 39.40625 -1.421875 
Q 24.03125 -1.421875 14.8125 8.828125 
Q 5.609375 19.09375 5.609375 36.375 
Q 5.609375 53.65625 14.8125 63.9375 
Q 24.03125 74.21875 39.40625 74.21875 
z
" id="DejaVuSans-79"/>
       <path d="M 37.796875 64.3125 
L 12.890625 25.390625 
L 37.796875 25.390625 
z
M 35.203125 72.90625 
L 47.609375 72.90625 
L 47.609375 25.390625 
L 58.015625 25.390625 
L 58.015625 17.1875 
L 47.609375 17.1875 
L 47.609375 0 
L 37.796875 0 
L 37.796875 17.1875 
L 4.890625 17.1875 
L 4.890625 26.703125 
z
" id="DejaVuSans-52"/>
      </defs>
      <g transform="translate(514.710118 231.250938)rotate(-90)scale(0.1 -0.1)">
       <use xlink:href="#DejaVuSans-79"/>
       <use x="78.710938" xlink:href="#DejaVuSans-115"/>
       <use x="130.810547" xlink:href="#DejaVuSans-97"/>
       <use x="192.089844" xlink:href="#DejaVuSans-107"/>
       <use x="248.25" xlink:href="#DejaVuSans-97"/>
       <use x="309.529297" xlink:href="#DejaVuSans-32"/>
       <use x="341.316406" xlink:href="#DejaVuSans-73"/>
       <use x="370.808594" xlink:href="#DejaVuSans-67"/>
       <use x="440.632812" xlink:href="#DejaVuSans-65"/>
       <use x="509.041016" xlink:href="#DejaVuSans-78"/>
       <use x="583.845703" xlink:href="#DejaVuSans-78"/>
       <use x="658.650391" xlink:href="#DejaVuSans-54"/>
       <use x="722.273438" xlink:href="#DejaVuSans-52"/>
      </g>
     </g>
    </g>
    <g id="xtick_11">
     <g id="line2d_11">
      <g>
       <use style="stroke:#000000;stroke-width:0.8;" x="559.767384" xlink:href="#mc9f364dd64" y="145.65875"/>
      </g>
     </g>
     <g id="text_11">
      <!-- Marrakesh ICANN65 -->
      <g transform="translate(562.526759 252.357188)rotate(-90)scale(0.1 -0.1)">
       <use xlink:href="#DejaVuSans-77"/>
       <use x="86.279297" xlink:href="#DejaVuSans-97"/>
       <use x="147.558594" xlink:href="#DejaVuSans-114"/>
       <use x="186.921875" xlink:href="#DejaVuSans-114"/>
       <use x="228.035156" xlink:href="#DejaVuSans-97"/>
       <use x="289.314453" xlink:href="#DejaVuSans-107"/>
       <use x="343.599609" xlink:href="#DejaVuSans-101"/>
       <use x="405.123047" xlink:href="#DejaVuSans-115"/>
       <use x="457.222656" xlink:href="#DejaVuSans-104"/>
       <use x="520.601562" xlink:href="#DejaVuSans-32"/>
       <use x="552.388672" xlink:href="#DejaVuSans-73"/>
       <use x="581.880859" xlink:href="#DejaVuSans-67"/>
       <use x="651.705078" xlink:href="#DejaVuSans-65"/>
       <use x="720.113281" xlink:href="#DejaVuSans-78"/>
       <use x="794.917969" xlink:href="#DejaVuSans-78"/>
       <use x="869.722656" xlink:href="#DejaVuSans-54"/>
       <use x="933.345703" xlink:href="#DejaVuSans-53"/>
      </g>
     </g>
    </g>
    <g id="xtick_12">
     <g id="line2d_12">
      <g>
       <use style="stroke:#000000;stroke-width:0.8;" x="607.584025" xlink:href="#mc9f364dd64" y="145.65875"/>
      </g>
     </g>
     <g id="text_12">
      <!-- Montreal ICANN66 -->
      <defs>
       <path d="M 18.3125 70.21875 
L 18.3125 54.6875 
L 36.8125 54.6875 
L 36.8125 47.703125 
L 18.3125 47.703125 
L 18.3125 18.015625 
Q 18.3125 11.328125 20.140625 9.421875 
Q 21.96875 7.515625 27.59375 7.515625 
L 36.8125 7.515625 
L 36.8125 0 
L 27.59375 0 
Q 17.1875 0 13.234375 3.875 
Q 9.28125 7.765625 9.28125 18.015625 
L 9.28125 47.703125 
L 2.6875 47.703125 
L 2.6875 54.6875 
L 9.28125 54.6875 
L 9.28125 70.21875 
z
" id="DejaVuSans-116"/>
      </defs>
      <g transform="translate(610.3434 244.247813)rotate(-90)scale(0.1 -0.1)">
       <use xlink:href="#DejaVuSans-77"/>
       <use x="86.279297" xlink:href="#DejaVuSans-111"/>
       <use x="147.460938" xlink:href="#DejaVuSans-110"/>
       <use x="210.839844" xlink:href="#DejaVuSans-116"/>
       <use x="250.048828" xlink:href="#DejaVuSans-114"/>
       <use x="288.912109" xlink:href="#DejaVuSans-101"/>
       <use x="350.435547" xlink:href="#DejaVuSans-97"/>
       <use x="411.714844" xlink:href="#DejaVuSans-108"/>
       <use x="439.498047" xlink:href="#DejaVuSans-32"/>
       <use x="471.285156" xlink:href="#DejaVuSans-73"/>
       <use x="500.777344" xlink:href="#DejaVuSans-67"/>
       <use x="570.601562" xlink:href="#DejaVuSans-65"/>
       <use x="639.009766" xlink:href="#DejaVuSans-78"/>
       <use x="713.814453" xlink:href="#DejaVuSans-78"/>
       <use x="788.619141" xlink:href="#DejaVuSans-54"/>
       <use x="852.242188" xlink:href="#DejaVuSans-54"/>
      </g>
     </g>
    </g>
   </g>
   <g id="matplotlib.axis_2">
    <g id="ytick_1">
     <g id="line2d_13">
      <defs>
       <path d="M 0 0 
L -3.5 0 
" id="md052a9b121" style="stroke:#000000;stroke-width:0.8;"/>
      </defs>
      <g>
       <use style="stroke:#000000;stroke-width:0.8;" x="34.2625" xlink:href="#md052a9b121" y="145.65875"/>
      </g>
     </g>
     <g id="text_13">
      <!-- 0 -->
      <g transform="translate(20.9 149.457969)scale(0.1 -0.1)">
       <use xlink:href="#DejaVuSans-48"/>
      </g>
     </g>
    </g>
    <g id="ytick_2">
     <g id="line2d_14">
      <g>
       <use style="stroke:#000000;stroke-width:0.8;" x="34.2625" xlink:href="#md052a9b121" y="105.593984"/>
      </g>
     </g>
     <g id="text_14">
      <!-- 2 -->
      <g transform="translate(20.9 109.393203)scale(0.1 -0.1)">
       <use xlink:href="#DejaVuSans-50"/>
      </g>
     </g>
    </g>
    <g id="ytick_3">
     <g id="line2d_15">
      <g>
       <use style="stroke:#000000;stroke-width:0.8;" x="34.2625" xlink:href="#md052a9b121" y="65.529218"/>
      </g>
     </g>
     <g id="text_15">
      <!-- 4 -->
      <g transform="translate(20.9 69.328436)scale(0.1 -0.1)">
       <use xlink:href="#DejaVuSans-52"/>
      </g>
     </g>
    </g>
    <g id="text_16">
     <!-- $CO_2$ Equivalent (kg) -->
     <defs>
      <path d="M 69.484375 67.28125 
L 67.484375 56.890625 
Q 62.796875 61.625 57.546875 63.921875 
Q 52.296875 66.21875 46.1875 66.21875 
Q 37.84375 66.21875 31.515625 62.203125 
Q 25.203125 58.203125 20.609375 50 
Q 17.671875 44.734375 16.125 38.84375 
Q 14.59375 32.953125 14.59375 27 
Q 14.59375 17.046875 19.75 11.8125 
Q 24.90625 6.59375 34.71875 6.59375 
Q 41.5 6.59375 47.75 8.765625 
Q 54 10.9375 59.90625 15.28125 
L 57.625 3.609375 
Q 51.8125 1.125 45.875 -0.140625 
Q 39.9375 -1.421875 33.984375 -1.421875 
Q 19.96875 -1.421875 12.078125 6.1875 
Q 4.203125 13.8125 4.203125 27.390625 
Q 4.203125 36.078125 7.203125 44.46875 
Q 10.203125 52.875 15.828125 59.8125 
Q 21.78125 67.1875 29.421875 70.703125 
Q 37.0625 74.21875 47.21875 74.21875 
Q 53.46875 74.21875 59.0625 72.484375 
Q 64.65625 70.75 69.484375 67.28125 
z
" id="DejaVuSans-Oblique-67"/>
      <path d="M 45.609375 66.21875 
Q 37.5 66.21875 31.296875 62.28125 
Q 25.09375 58.34375 20.515625 50.296875 
Q 17.578125 45.171875 16.03125 39.40625 
Q 14.5 33.640625 14.5 27.78125 
Q 14.5 17.625 19.359375 12.109375 
Q 24.21875 6.59375 33.109375 6.59375 
Q 41.109375 6.59375 47.375 10.5625 
Q 53.65625 14.546875 58.109375 22.40625 
Q 61.078125 27.6875 62.640625 33.46875 
Q 64.203125 39.265625 64.203125 45.015625 
Q 64.203125 55.125 59.3125 60.671875 
Q 54.4375 66.21875 45.609375 66.21875 
z
M 32.8125 -1.421875 
Q 19.390625 -1.421875 11.6875 6.53125 
Q 4 14.5 4 28.328125 
Q 4 36.234375 7 44.484375 
Q 10.015625 52.734375 15.28125 59.1875 
Q 21.484375 66.75 29.09375 70.484375 
Q 36.71875 74.21875 45.90625 74.21875 
Q 59.28125 74.21875 66.984375 66.328125 
Q 74.703125 58.453125 74.703125 44.828125 
Q 74.703125 36.421875 71.765625 28.3125 
Q 68.84375 20.21875 63.375 13.625 
Q 57.125 6 49.578125 2.28125 
Q 42.046875 -1.421875 32.8125 -1.421875 
z
" id="DejaVuSans-Oblique-79"/>
      <path d="M 9.8125 72.90625 
L 55.90625 72.90625 
L 55.90625 64.59375 
L 19.671875 64.59375 
L 19.671875 43.015625 
L 54.390625 43.015625 
L 54.390625 34.71875 
L 19.671875 34.71875 
L 19.671875 8.296875 
L 56.78125 8.296875 
L 56.78125 0 
L 9.8125 0 
z
" id="DejaVuSans-69"/>
      <path d="M 14.796875 27.296875 
Q 14.796875 17.390625 18.875 11.75 
Q 22.953125 6.109375 30.078125 6.109375 
Q 37.203125 6.109375 41.296875 11.75 
Q 45.40625 17.390625 45.40625 27.296875 
Q 45.40625 37.203125 41.296875 42.84375 
Q 37.203125 48.484375 30.078125 48.484375 
Q 22.953125 48.484375 18.875 42.84375 
Q 14.796875 37.203125 14.796875 27.296875 
z
M 45.40625 8.203125 
Q 42.578125 3.328125 38.25 0.953125 
Q 33.9375 -1.421875 27.875 -1.421875 
Q 17.96875 -1.421875 11.734375 6.484375 
Q 5.515625 14.40625 5.515625 27.296875 
Q 5.515625 40.1875 11.734375 48.09375 
Q 17.96875 56 27.875 56 
Q 33.9375 56 38.25 53.625 
Q 42.578125 51.265625 45.40625 46.390625 
L 45.40625 54.6875 
L 54.390625 54.6875 
L 54.390625 -20.796875 
L 45.40625 -20.796875 
z
" id="DejaVuSans-113"/>
      <path d="M 2.984375 54.6875 
L 12.5 54.6875 
L 29.59375 8.796875 
L 46.6875 54.6875 
L 56.203125 54.6875 
L 35.6875 0 
L 23.484375 0 
z
" id="DejaVuSans-118"/>
      <path d="M 31 75.875 
Q 24.46875 64.65625 21.28125 53.65625 
Q 18.109375 42.671875 18.109375 31.390625 
Q 18.109375 20.125 21.3125 9.0625 
Q 24.515625 -2 31 -13.1875 
L 23.1875 -13.1875 
Q 15.875 -1.703125 12.234375 9.375 
Q 8.59375 20.453125 8.59375 31.390625 
Q 8.59375 42.28125 12.203125 53.3125 
Q 15.828125 64.359375 23.1875 75.875 
z
" id="DejaVuSans-40"/>
      <path d="M 8.015625 75.875 
L 15.828125 75.875 
Q 23.140625 64.359375 26.78125 53.3125 
Q 30.421875 42.28125 30.421875 31.390625 
Q 30.421875 20.453125 26.78125 9.375 
Q 23.140625 -1.703125 15.828125 -13.1875 
L 8.015625 -13.1875 
Q 14.5 -2 17.703125 9.0625 
Q 20.90625 20.125 20.90625 31.390625 
Q 20.90625 42.671875 17.703125 53.65625 
Q 14.5 64.65625 8.015625 75.875 
z
" id="DejaVuSans-41"/>
     </defs>
     <g transform="translate(14.8 140.439375)rotate(-90)scale(0.1 -0.1)">
      <use transform="translate(0 0.015625)" xlink:href="#DejaVuSans-Oblique-67"/>
      <use transform="translate(69.824219 0.015625)" xlink:href="#DejaVuSans-Oblique-79"/>
      <use transform="translate(148.535156 -16.390625)scale(0.7)" xlink:href="#DejaVuSans-50"/>
      <use transform="translate(195.805664 0.015625)" xlink:href="#DejaVuSans-32"/>
      <use transform="translate(227.592773 0.015625)" xlink:href="#DejaVuSans-69"/>
      <use transform="translate(290.776367 0.015625)" xlink:href="#DejaVuSans-113"/>
      <use transform="translate(354.25293 0.015625)" xlink:href="#DejaVuSans-117"/>
      <use transform="translate(417.631836 0.015625)" xlink:href="#DejaVuSans-105"/>
      <use transform="translate(445.415039 0.015625)" xlink:href="#DejaVuSans-118"/>
      <use transform="translate(504.594727 0.015625)" xlink:href="#DejaVuSans-97"/>
      <use transform="translate(565.874023 0.015625)" xlink:href="#DejaVuSans-108"/>
      <use transform="translate(593.657227 0.015625)" xlink:href="#DejaVuSans-101"/>
      <use transform="translate(655.180664 0.015625)" xlink:href="#DejaVuSans-110"/>
      <use transform="translate(718.55957 0.015625)" xlink:href="#DejaVuSans-116"/>
      <use transform="translate(757.768555 0.015625)" xlink:href="#DejaVuSans-32"/>
      <use transform="translate(789.555664 0.015625)" xlink:href="#DejaVuSans-40"/>
      <use transform="translate(828.569336 0.015625)" xlink:href="#DejaVuSans-107"/>
      <use transform="translate(886.479492 0.015625)" xlink:href="#DejaVuSans-103"/>
      <use transform="translate(949.956055 0.015625)" xlink:href="#DejaVuSans-41"/>
     </g>
    </g>
    <g id="text_17">
     <!-- 1e6 -->
     <g transform="translate(34.2625 33.32)scale(0.1 -0.1)">
      <use xlink:href="#DejaVuSans-49"/>
      <use x="63.623047" xlink:href="#DejaVuSans-101"/>
      <use x="125.146484" xlink:href="#DejaVuSans-54"/>
     </g>
    </g>
   </g>
   <g id="patch_63">
    <path d="M 34.2625 145.65875 
L 34.2625 36.32 
" style="fill:none;stroke:#000000;stroke-linecap:square;stroke-linejoin:miter;stroke-width:0.8;"/>
   </g>
   <g id="patch_64">
    <path d="M 654.9225 145.65875 
L 654.9225 36.32 
" style="fill:none;stroke:#000000;stroke-linecap:square;stroke-linejoin:miter;stroke-width:0.8;"/>
   </g>
   <g id="patch_65">
    <path d="M 34.2625 145.65875 
L 654.9225 145.65875 
" style="fill:none;stroke:#000000;stroke-linecap:square;stroke-linejoin:miter;stroke-width:0.8;"/>
   </g>
   <g id="patch_66">
    <path d="M 34.2625 36.32 
L 654.9225 36.32 
" style="fill:none;stroke:#000000;stroke-linecap:square;stroke-linejoin:miter;stroke-width:0.8;"/>
   </g>
   <g id="text_18">
    <!-- $CO_2$ Equivalent (kg) by flight_segment_number measured in flight mode with goclimate -->
    <defs>
     <path d="M 37.109375 75.984375 
L 37.109375 68.5 
L 28.515625 68.5 
Q 23.6875 68.5 21.796875 66.546875 
Q 19.921875 64.59375 19.921875 59.515625 
L 19.921875 54.6875 
L 34.71875 54.6875 
L 34.71875 47.703125 
L 19.921875 47.703125 
L 19.921875 0 
L 10.890625 0 
L 10.890625 47.703125 
L 2.296875 47.703125 
L 2.296875 54.6875 
L 10.890625 54.6875 
L 10.890625 58.5 
Q 10.890625 67.625 15.140625 71.796875 
Q 19.390625 75.984375 28.609375 75.984375 
z
" id="DejaVuSans-102"/>
     <path d="M 50.984375 -16.609375 
L 50.984375 -23.578125 
L -0.984375 -23.578125 
L -0.984375 -16.609375 
z
" id="DejaVuSans-95"/>
     <path d="M 4.203125 54.6875 
L 13.1875 54.6875 
L 24.421875 12.015625 
L 35.59375 54.6875 
L 46.1875 54.6875 
L 57.421875 12.015625 
L 68.609375 54.6875 
L 77.59375 54.6875 
L 63.28125 0 
L 52.6875 0 
L 40.921875 44.828125 
L 29.109375 0 
L 18.5 0 
z
" id="DejaVuSans-119"/>
    </defs>
    <g transform="translate(81.0725 16.32)scale(0.12 -0.12)">
     <use transform="translate(0 0.015625)" xlink:href="#DejaVuSans-Oblique-67"/>
     <use transform="translate(69.824219 0.015625)" xlink:href="#DejaVuSans-Oblique-79"/>
     <use transform="translate(148.535156 -16.390625)scale(0.7)" xlink:href="#DejaVuSans-50"/>
     <use transform="translate(195.805664 0.015625)" xlink:href="#DejaVuSans-32"/>
     <use transform="translate(227.592773 0.015625)" xlink:href="#DejaVuSans-69"/>
     <use transform="translate(290.776367 0.015625)" xlink:href="#DejaVuSans-113"/>
     <use transform="translate(354.25293 0.015625)" xlink:href="#DejaVuSans-117"/>
     <use transform="translate(417.631836 0.015625)" xlink:href="#DejaVuSans-105"/>
     <use transform="translate(445.415039 0.015625)" xlink:href="#DejaVuSans-118"/>
     <use transform="translate(504.594727 0.015625)" xlink:href="#DejaVuSans-97"/>
     <use transform="translate(565.874023 0.015625)" xlink:href="#DejaVuSans-108"/>
     <use transform="translate(593.657227 0.015625)" xlink:href="#DejaVuSans-101"/>
     <use transform="translate(655.180664 0.015625)" xlink:href="#DejaVuSans-110"/>
     <use transform="translate(718.55957 0.015625)" xlink:href="#DejaVuSans-116"/>
     <use transform="translate(757.768555 0.015625)" xlink:href="#DejaVuSans-32"/>
     <use transform="translate(789.555664 0.015625)" xlink:href="#DejaVuSans-40"/>
     <use transform="translate(828.569336 0.015625)" xlink:href="#DejaVuSans-107"/>
     <use transform="translate(886.479492 0.015625)" xlink:href="#DejaVuSans-103"/>
     <use transform="translate(949.956055 0.015625)" xlink:href="#DejaVuSans-41"/>
     <use transform="translate(988.969727 0.015625)" xlink:href="#DejaVuSans-32"/>
     <use transform="translate(1020.756836 0.015625)" xlink:href="#DejaVuSans-98"/>
     <use transform="translate(1084.233398 0.015625)" xlink:href="#DejaVuSans-121"/>
     <use transform="translate(1143.413086 0.015625)" xlink:href="#DejaVuSans-32"/>
     <use transform="translate(1175.200195 0.015625)" xlink:href="#DejaVuSans-102"/>
     <use transform="translate(1210.405273 0.015625)" xlink:href="#DejaVuSans-108"/>
     <use transform="translate(1238.188477 0.015625)" xlink:href="#DejaVuSans-105"/>
     <use transform="translate(1265.97168 0.015625)" xlink:href="#DejaVuSans-103"/>
     <use transform="translate(1329.448242 0.015625)" xlink:href="#DejaVuSans-104"/>
     <use transform="translate(1392.827148 0.015625)" xlink:href="#DejaVuSans-116"/>
     <use transform="translate(1432.036133 0.015625)" xlink:href="#DejaVuSans-95"/>
     <use transform="translate(1482.036133 0.015625)" xlink:href="#DejaVuSans-115"/>
     <use transform="translate(1534.135742 0.015625)" xlink:href="#DejaVuSans-101"/>
     <use transform="translate(1595.65918 0.015625)" xlink:href="#DejaVuSans-103"/>
     <use transform="translate(1659.135742 0.015625)" xlink:href="#DejaVuSans-109"/>
     <use transform="translate(1756.547852 0.015625)" xlink:href="#DejaVuSans-101"/>
     <use transform="translate(1818.071289 0.015625)" xlink:href="#DejaVuSans-110"/>
     <use transform="translate(1881.450195 0.015625)" xlink:href="#DejaVuSans-116"/>
     <use transform="translate(1920.65918 0.015625)" xlink:href="#DejaVuSans-95"/>
     <use transform="translate(1970.65918 0.015625)" xlink:href="#DejaVuSans-110"/>
     <use transform="translate(2034.038086 0.015625)" xlink:href="#DejaVuSans-117"/>
     <use transform="translate(2097.416992 0.015625)" xlink:href="#DejaVuSans-109"/>
     <use transform="translate(2194.829102 0.015625)" xlink:href="#DejaVuSans-98"/>
     <use transform="translate(2258.305664 0.015625)" xlink:href="#DejaVuSans-101"/>
     <use transform="translate(2319.829102 0.015625)" xlink:href="#DejaVuSans-114"/>
     <use transform="translate(2360.942383 0.015625)" xlink:href="#DejaVuSans-32"/>
     <use transform="translate(2392.729492 0.015625)" xlink:href="#DejaVuSans-109"/>
     <use transform="translate(2490.141602 0.015625)" xlink:href="#DejaVuSans-101"/>
     <use transform="translate(2551.665039 0.015625)" xlink:href="#DejaVuSans-97"/>
     <use transform="translate(2612.944336 0.015625)" xlink:href="#DejaVuSans-115"/>
     <use transform="translate(2665.043945 0.015625)" xlink:href="#DejaVuSans-117"/>
     <use transform="translate(2728.422852 0.015625)" xlink:href="#DejaVuSans-114"/>
     <use transform="translate(2769.536133 0.015625)" xlink:href="#DejaVuSans-101"/>
     <use transform="translate(2831.05957 0.015625)" xlink:href="#DejaVuSans-100"/>
     <use transform="translate(2894.536133 0.015625)" xlink:href="#DejaVuSans-32"/>
     <use transform="translate(2926.323242 0.015625)" xlink:href="#DejaVuSans-105"/>
     <use transform="translate(2954.106445 0.015625)" xlink:href="#DejaVuSans-110"/>
     <use transform="translate(3017.485352 0.015625)" xlink:href="#DejaVuSans-32"/>
     <use transform="translate(3049.272461 0.015625)" xlink:href="#DejaVuSans-102"/>
     <use transform="translate(3084.477539 0.015625)" xlink:href="#DejaVuSans-108"/>
     <use transform="translate(3112.260742 0.015625)" xlink:href="#DejaVuSans-105"/>
     <use transform="translate(3140.043945 0.015625)" xlink:href="#DejaVuSans-103"/>
     <use transform="translate(3203.520508 0.015625)" xlink:href="#DejaVuSans-104"/>
     <use transform="translate(3266.899414 0.015625)" xlink:href="#DejaVuSans-116"/>
     <use transform="translate(3306.108398 0.015625)" xlink:href="#DejaVuSans-32"/>
     <use transform="translate(3337.895508 0.015625)" xlink:href="#DejaVuSans-109"/>
     <use transform="translate(3435.307617 0.015625)" xlink:href="#DejaVuSans-111"/>
     <use transform="translate(3496.489258 0.015625)" xlink:href="#DejaVuSans-100"/>
     <use transform="translate(3559.96582 0.015625)" xlink:href="#DejaVuSans-101"/>
     <use transform="translate(3621.489258 0.015625)" xlink:href="#DejaVuSans-32"/>
     <use transform="translate(3653.276367 0.015625)" xlink:href="#DejaVuSans-119"/>
     <use transform="translate(3735.063477 0.015625)" xlink:href="#DejaVuSans-105"/>
     <use transform="translate(3762.84668 0.015625)" xlink:href="#DejaVuSans-116"/>
     <use transform="translate(3802.055664 0.015625)" xlink:href="#DejaVuSans-104"/>
     <use transform="translate(3865.43457 0.015625)" xlink:href="#DejaVuSans-32"/>
     <use transform="translate(3897.22168 0.015625)" xlink:href="#DejaVuSans-103"/>
     <use transform="translate(3960.698242 0.015625)" xlink:href="#DejaVuSans-111"/>
     <use transform="translate(4021.879883 0.015625)" xlink:href="#DejaVuSans-99"/>
     <use transform="translate(4076.860352 0.015625)" xlink:href="#DejaVuSans-108"/>
     <use transform="translate(4104.643555 0.015625)" xlink:href="#DejaVuSans-105"/>
     <use transform="translate(4132.426758 0.015625)" xlink:href="#DejaVuSans-109"/>
     <use transform="translate(4229.838867 0.015625)" xlink:href="#DejaVuSans-97"/>
     <use transform="translate(4291.118164 0.015625)" xlink:href="#DejaVuSans-116"/>
     <use transform="translate(4330.327148 0.015625)" xlink:href="#DejaVuSans-101"/>
    </g>
   </g>
   <g id="legend_1">
    <g id="patch_67">
     <path d="M 661.9225 106.77675 
L 700.285 106.77675 
Q 702.285 106.77675 702.285 104.77675 
L 702.285 32.386125 
Q 702.285 30.386125 700.285 30.386125 
L 661.9225 30.386125 
Q 659.9225 30.386125 659.9225 32.386125 
L 659.9225 104.77675 
Q 659.9225 106.77675 661.9225 106.77675 
z
" style="fill:#ffffff;opacity:0.8;stroke:#cccccc;stroke-linejoin:miter;"/>
    </g>
    <g id="patch_68">
     <path d="M 663.9225 41.984562 
L 683.9225 41.984562 
L 683.9225 34.984562 
L 663.9225 34.984562 
z
" style="fill:#1f77b4;"/>
    </g>
    <g id="text_19">
     <!-- 4 -->
     <g transform="translate(691.9225 41.984562)scale(0.1 -0.1)">
      <use xlink:href="#DejaVuSans-52"/>
     </g>
    </g>
    <g id="patch_69">
     <path d="M 663.9225 56.662687 
L 683.9225 56.662687 
L 683.9225 49.662687 
L 663.9225 49.662687 
z
" style="fill:#ff7f0e;"/>
    </g>
    <g id="text_20">
     <!-- 6 -->
     <g transform="translate(691.9225 56.662687)scale(0.1 -0.1)">
      <use xlink:href="#DejaVuSans-54"/>
     </g>
    </g>
    <g id="patch_70">
     <path d="M 663.9225 71.340812 
L 683.9225 71.340812 
L 683.9225 64.340812 
L 663.9225 64.340812 
z
" style="fill:#2ca02c;"/>
    </g>
    <g id="text_21">
     <!-- 5 -->
     <g transform="translate(691.9225 71.340812)scale(0.1 -0.1)">
      <use xlink:href="#DejaVuSans-53"/>
     </g>
    </g>
    <g id="patch_71">
     <path d="M 663.9225 86.018937 
L 683.9225 86.018937 
L 683.9225 79.018937 
L 663.9225 79.018937 
z
" style="fill:#d62728;"/>
    </g>
    <g id="text_22">
     <!-- 3 -->
     <g transform="translate(691.9225 86.018937)scale(0.1 -0.1)">
      <use xlink:href="#DejaVuSans-51"/>
     </g>
    </g>
    <g id="patch_72">
     <path d="M 663.9225 100.697062 
L 683.9225 100.697062 
L 683.9225 93.697062 
L 663.9225 93.697062 
z
" style="fill:#9467bd;"/>
    </g>
    <g id="text_23">
     <!-- 2 -->
     <g transform="translate(691.9225 100.697062)scale(0.1 -0.1)">
      <use xlink:href="#DejaVuSans-50"/>
     </g>
    </g>
   </g>
  </g>
 </g>
 <defs>
  <clipPath id="pe28b0ec6ab">
   <rect height="109.33875" width="620.66" x="34.2625" y="36.32"/>
  </clipPath>
 </defs>
</svg>
