<?xml version="1.0" encoding="utf-8" standalone="no"?>
<!DOCTYPE svg PUBLIC "-//W3C//DTD SVG 1.1//EN"
  "http://www.w3.org/Graphics/SVG/1.1/DTD/svg11.dtd">
<svg xmlns:xlink="http://www.w3.org/1999/xlink" width="1717.78875pt" height="277.531937pt" viewBox="0 0 1717.78875 277.531937" xmlns="http://www.w3.org/2000/svg" version="1.1">
 <metadata>
  <rdf:RDF xmlns:dc="http://purl.org/dc/elements/1.1/" xmlns:cc="http://creativecommons.org/ns#" xmlns:rdf="http://www.w3.org/1999/02/22-rdf-syntax-ns#">
   <cc:Work>
    <dc:type rdf:resource="http://purl.org/dc/dcmitype/StillImage"/>
    <dc:date>2023-06-06T21:12:33.869103</dc:date>
    <dc:format>image/svg+xml</dc:format>
    <dc:creator>
     <cc:Agent>
      <dc:title>Matplotlib v3.7.1, https://matplotlib.org/</dc:title>
     </cc:Agent>
    </dc:creator>
   </cc:Work>
  </rdf:RDF>
 </metadata>
 <defs>
  <style type="text/css">*{stroke-linejoin: round; stroke-linecap: butt}</style>
 </defs>
 <g id="figure_1">
  <g id="patch_1">
   <path d="M 0 277.531937 
L 1717.78875 277.531937 
L 1717.78875 0 
L 0 0 
z
" style="fill: #ffffff"/>
  </g>
  <g id="axes_1">
   <g id="patch_2">
    <path d="M 50.165625 242.456 
L 1635.985625 242.456 
L 1635.985625 36.32 
L 50.165625 36.32 
z
" style="fill: #ffffff"/>
   </g>
   <g id="patch_3">
    <path d="M 122.248352 242.456 
L 219.987643 242.456 
L 219.987643 217.979178 
L 122.248352 217.979178 
z
" clip-path="url(#p6e19cf1194)" style="fill: #1f77b4"/>
   </g>
   <g id="patch_4">
    <path d="M 244.422466 242.456 
L 342.161758 242.456 
L 342.161758 215.203123 
L 244.422466 215.203123 
z
" clip-path="url(#p6e19cf1194)" style="fill: #1f77b4"/>
   </g>
   <g id="patch_5">
    <path d="M 366.59658 242.456 
L 464.335872 242.456 
L 464.335872 211.460874 
L 366.59658 211.460874 
z
" clip-path="url(#p6e19cf1194)" style="fill: #1f77b4"/>
   </g>
   <g id="patch_6">
    <path d="M 488.770694 242.456 
L 586.509986 242.456 
L 586.509986 208.026154 
L 488.770694 208.026154 
z
" clip-path="url(#p6e19cf1194)" style="fill: #1f77b4"/>
   </g>
   <g id="patch_7">
    <path d="M 610.944808 242.456 
L 708.6841 242.456 
L 708.6841 219.851406 
L 610.944808 219.851406 
z
" clip-path="url(#p6e19cf1194)" style="fill: #1f77b4"/>
   </g>
   <g id="patch_8">
    <path d="M 733.118922 242.456 
L 830.858214 242.456 
L 830.858214 214.908122 
L 733.118922 214.908122 
z
" clip-path="url(#p6e19cf1194)" style="fill: #1f77b4"/>
   </g>
   <g id="patch_9">
    <path d="M 855.293036 242.456 
L 953.032328 242.456 
L 953.032328 220.44748 
L 855.293036 220.44748 
z
" clip-path="url(#p6e19cf1194)" style="fill: #1f77b4"/>
   </g>
   <g id="patch_10">
    <path d="M 977.46715 242.456 
L 1075.206442 242.456 
L 1075.206442 217.719435 
L 977.46715 217.719435 
z
" clip-path="url(#p6e19cf1194)" style="fill: #1f77b4"/>
   </g>
   <g id="patch_11">
    <path d="M 1099.641264 242.456 
L 1197.380556 242.456 
L 1197.380556 203.4251 
L 1099.641264 203.4251 
z
" clip-path="url(#p6e19cf1194)" style="fill: #1f77b4"/>
   </g>
   <g id="patch_12">
    <path d="M 1221.815378 242.456 
L 1319.55467 242.456 
L 1319.55467 198.429145 
L 1221.815378 198.429145 
z
" clip-path="url(#p6e19cf1194)" style="fill: #1f77b4"/>
   </g>
   <g id="patch_13">
    <path d="M 1343.989492 242.456 
L 1441.728784 242.456 
L 1441.728784 221.460394 
L 1343.989492 221.460394 
z
" clip-path="url(#p6e19cf1194)" style="fill: #1f77b4"/>
   </g>
   <g id="patch_14">
    <path d="M 1466.163607 242.456 
L 1563.902898 242.456 
L 1563.902898 216.384362 
L 1466.163607 216.384362 
z
" clip-path="url(#p6e19cf1194)" style="fill: #1f77b4"/>
   </g>
   <g id="patch_15">
    <path d="M 122.248352 217.979178 
L 219.987643 217.979178 
L 219.987643 211.220166 
L 122.248352 211.220166 
z
" clip-path="url(#p6e19cf1194)" style="fill: #ff7f0e"/>
   </g>
   <g id="patch_16">
    <path d="M 244.422466 215.203123 
L 342.161758 215.203123 
L 342.161758 207.627609 
L 244.422466 207.627609 
z
" clip-path="url(#p6e19cf1194)" style="fill: #ff7f0e"/>
   </g>
   <g id="patch_17">
    <path d="M 366.59658 211.460874 
L 464.335872 211.460874 
L 464.335872 202.950733 
L 366.59658 202.950733 
z
" clip-path="url(#p6e19cf1194)" style="fill: #ff7f0e"/>
   </g>
   <g id="patch_18">
    <path d="M 488.770694 208.026154 
L 586.509986 208.026154 
L 586.509986 198.507017 
L 488.770694 198.507017 
z
" clip-path="url(#p6e19cf1194)" style="fill: #ff7f0e"/>
   </g>
   <g id="patch_19">
    <path d="M 610.944808 219.851406 
L 708.6841 219.851406 
L 708.6841 213.449361 
L 610.944808 213.449361 
z
" clip-path="url(#p6e19cf1194)" style="fill: #ff7f0e"/>
   </g>
   <g id="patch_20">
    <path d="M 733.118922 214.908122 
L 830.858214 214.908122 
L 830.858214 207.009937 
L 733.118922 207.009937 
z
" clip-path="url(#p6e19cf1194)" style="fill: #ff7f0e"/>
   </g>
   <g id="patch_21">
    <path d="M 855.293036 220.44748 
L 953.032328 220.44748 
L 953.032328 213.836959 
L 855.293036 213.836959 
z
" clip-path="url(#p6e19cf1194)" style="fill: #ff7f0e"/>
   </g>
   <g id="patch_22">
    <path d="M 977.46715 217.719435 
L 1075.206442 217.719435 
L 1075.206442 210.285786 
L 977.46715 210.285786 
z
" clip-path="url(#p6e19cf1194)" style="fill: #ff7f0e"/>
   </g>
   <g id="patch_23">
    <path d="M 1099.641264 203.4251 
L 1197.380556 203.4251 
L 1197.380556 191.205411 
L 1099.641264 191.205411 
z
" clip-path="url(#p6e19cf1194)" style="fill: #ff7f0e"/>
   </g>
   <g id="patch_24">
    <path d="M 1221.815378 198.429145 
L 1319.55467 198.429145 
L 1319.55467 184.725637 
L 1221.815378 184.725637 
z
" clip-path="url(#p6e19cf1194)" style="fill: #ff7f0e"/>
   </g>
   <g id="patch_25">
    <path d="M 1343.989492 221.460394 
L 1441.728784 221.460394 
L 1441.728784 215.140039 
L 1343.989492 215.140039 
z
" clip-path="url(#p6e19cf1194)" style="fill: #ff7f0e"/>
   </g>
   <g id="patch_26">
    <path d="M 1466.163607 216.384362 
L 1563.902898 216.384362 
L 1563.902898 208.535957 
L 1466.163607 208.535957 
z
" clip-path="url(#p6e19cf1194)" style="fill: #ff7f0e"/>
   </g>
   <g id="patch_27">
    <path d="M 122.248352 211.220166 
L 219.987643 211.220166 
L 219.987643 203.912122 
L 122.248352 203.912122 
z
" clip-path="url(#p6e19cf1194)" style="fill: #2ca02c"/>
   </g>
   <g id="patch_28">
    <path d="M 244.422466 207.627609 
L 342.161758 207.627609 
L 342.161758 199.508909 
L 244.422466 199.508909 
z
" clip-path="url(#p6e19cf1194)" style="fill: #2ca02c"/>
   </g>
   <g id="patch_29">
    <path d="M 366.59658 202.950733 
L 464.335872 202.950733 
L 464.335872 193.975713 
L 366.59658 193.975713 
z
" clip-path="url(#p6e19cf1194)" style="fill: #2ca02c"/>
   </g>
   <g id="patch_30">
    <path d="M 488.770694 198.507017 
L 586.509986 198.507017 
L 586.509986 188.533322 
L 488.770694 188.533322 
z
" clip-path="url(#p6e19cf1194)" style="fill: #2ca02c"/>
   </g>
   <g id="patch_31">
    <path d="M 610.944808 213.449361 
L 708.6841 213.449361 
L 708.6841 206.818829 
L 610.944808 206.818829 
z
" clip-path="url(#p6e19cf1194)" style="fill: #2ca02c"/>
   </g>
   <g id="patch_32">
    <path d="M 733.118922 207.009937 
L 830.858214 207.009937 
L 830.858214 198.969527 
L 733.118922 198.969527 
z
" clip-path="url(#p6e19cf1194)" style="fill: #2ca02c"/>
   </g>
   <g id="patch_33">
    <path d="M 855.293036 213.836959 
L 953.032328 213.836959 
L 953.032328 207.172864 
L 855.293036 207.172864 
z
" clip-path="url(#p6e19cf1194)" style="fill: #2ca02c"/>
   </g>
   <g id="patch_34">
    <path d="M 977.46715 210.285786 
L 1075.206442 210.285786 
L 1075.206442 202.797407 
L 977.46715 202.797407 
z
" clip-path="url(#p6e19cf1194)" style="fill: #2ca02c"/>
   </g>
   <g id="patch_35">
    <path d="M 1099.641264 191.205411 
L 1197.380556 191.205411 
L 1197.380556 183.046303 
L 1099.641264 183.046303 
z
" clip-path="url(#p6e19cf1194)" style="fill: #2ca02c"/>
   </g>
   <g id="patch_36">
    <path d="M 1221.815378 184.725637 
L 1319.55467 184.725637 
L 1319.55467 175.567853 
L 1221.815378 175.567853 
z
" clip-path="url(#p6e19cf1194)" style="fill: #2ca02c"/>
   </g>
   <g id="patch_37">
    <path d="M 1343.989492 215.140039 
L 1441.728784 215.140039 
L 1441.728784 208.850774 
L 1343.989492 208.850774 
z
" clip-path="url(#p6e19cf1194)" style="fill: #2ca02c"/>
   </g>
   <g id="patch_38">
    <path d="M 1466.163607 208.535957 
L 1563.902898 208.535957 
L 1563.902898 200.726159 
L 1466.163607 200.726159 
z
" clip-path="url(#p6e19cf1194)" style="fill: #2ca02c"/>
   </g>
   <g id="patch_39">
    <path d="M 122.248352 203.912122 
L 219.987643 203.912122 
L 219.987643 198.238966 
L 122.248352 198.238966 
z
" clip-path="url(#p6e19cf1194)" style="fill: #d62728"/>
   </g>
   <g id="patch_40">
    <path d="M 244.422466 199.508909 
L 342.161758 199.508909 
L 342.161758 193.20798 
L 244.422466 193.20798 
z
" clip-path="url(#p6e19cf1194)" style="fill: #d62728"/>
   </g>
   <g id="patch_41">
    <path d="M 366.59658 193.975713 
L 464.335872 193.975713 
L 464.335872 186.879186 
L 366.59658 186.879186 
z
" clip-path="url(#p6e19cf1194)" style="fill: #d62728"/>
   </g>
   <g id="patch_42">
    <path d="M 488.770694 188.533322 
L 586.509986 188.533322 
L 586.509986 180.734884 
L 488.770694 180.734884 
z
" clip-path="url(#p6e19cf1194)" style="fill: #d62728"/>
   </g>
   <g id="patch_43">
    <path d="M 610.944808 206.818829 
L 708.6841 206.818829 
L 708.6841 201.685161 
L 610.944808 201.685161 
z
" clip-path="url(#p6e19cf1194)" style="fill: #d62728"/>
   </g>
   <g id="patch_44">
    <path d="M 733.118922 198.969527 
L 830.858214 198.969527 
L 830.858214 192.747444 
L 733.118922 192.747444 
z
" clip-path="url(#p6e19cf1194)" style="fill: #d62728"/>
   </g>
   <g id="patch_45">
    <path d="M 855.293036 207.172864 
L 953.032328 207.172864 
L 953.032328 202.020748 
L 855.293036 202.020748 
z
" clip-path="url(#p6e19cf1194)" style="fill: #d62728"/>
   </g>
   <g id="patch_46">
    <path d="M 977.46715 202.797407 
L 1075.206442 202.797407 
L 1075.206442 197.008232 
L 977.46715 197.008232 
z
" clip-path="url(#p6e19cf1194)" style="fill: #d62728"/>
   </g>
   <g id="patch_47">
    <path d="M 1099.641264 183.046303 
L 1197.380556 183.046303 
L 1197.380556 176.594914 
L 1099.641264 176.594914 
z
" clip-path="url(#p6e19cf1194)" style="fill: #d62728"/>
   </g>
   <g id="patch_48">
    <path d="M 1221.815378 175.567853 
L 1319.55467 175.567853 
L 1319.55467 168.326815 
L 1221.815378 168.326815 
z
" clip-path="url(#p6e19cf1194)" style="fill: #d62728"/>
   </g>
   <g id="patch_49">
    <path d="M 1343.989492 208.850774 
L 1441.728784 208.850774 
L 1441.728784 203.998135 
L 1343.989492 203.998135 
z
" clip-path="url(#p6e19cf1194)" style="fill: #d62728"/>
   </g>
   <g id="patch_50">
    <path d="M 1466.163607 200.726159 
L 1563.902898 200.726159 
L 1563.902898 194.700315 
L 1466.163607 194.700315 
z
" clip-path="url(#p6e19cf1194)" style="fill: #d62728"/>
   </g>
   <g id="patch_51">
    <path d="M 122.248352 198.238966 
L 219.987643 198.238966 
L 219.987643 193.663966 
L 122.248352 193.663966 
z
" clip-path="url(#p6e19cf1194)" style="fill: #9467bd"/>
   </g>
   <g id="patch_52">
    <path d="M 244.422466 193.20798 
L 342.161758 193.20798 
L 342.161758 188.092577 
L 244.422466 188.092577 
z
" clip-path="url(#p6e19cf1194)" style="fill: #9467bd"/>
   </g>
   <g id="patch_53">
    <path d="M 366.59658 186.879186 
L 464.335872 186.879186 
L 464.335872 181.034987 
L 366.59658 181.034987 
z
" clip-path="url(#p6e19cf1194)" style="fill: #9467bd"/>
   </g>
   <g id="patch_54">
    <path d="M 488.770694 180.734884 
L 586.509986 180.734884 
L 586.509986 174.204257 
L 488.770694 174.204257 
z
" clip-path="url(#p6e19cf1194)" style="fill: #9467bd"/>
   </g>
   <g id="patch_55">
    <path d="M 610.944808 201.685161 
L 708.6841 201.685161 
L 708.6841 197.40816 
L 610.944808 197.40816 
z
" clip-path="url(#p6e19cf1194)" style="fill: #9467bd"/>
   </g>
   <g id="patch_56">
    <path d="M 733.118922 192.747444 
L 830.858214 192.747444 
L 830.858214 187.494179 
L 733.118922 187.494179 
z
" clip-path="url(#p6e19cf1194)" style="fill: #9467bd"/>
   </g>
   <g id="patch_57">
    <path d="M 855.293036 202.020748 
L 953.032328 202.020748 
L 953.032328 197.687706 
L 855.293036 197.687706 
z
" clip-path="url(#p6e19cf1194)" style="fill: #9467bd"/>
   </g>
   <g id="patch_58">
    <path d="M 977.46715 197.008232 
L 1075.206442 197.008232 
L 1075.206442 192.135344 
L 977.46715 192.135344 
z
" clip-path="url(#p6e19cf1194)" style="fill: #9467bd"/>
   </g>
   <g id="patch_59">
    <path d="M 1099.641264 176.594914 
L 1197.380556 176.594914 
L 1197.380556 171.016361 
L 1099.641264 171.016361 
z
" clip-path="url(#p6e19cf1194)" style="fill: #9467bd"/>
   </g>
   <g id="patch_60">
    <path d="M 1221.815378 168.326815 
L 1319.55467 168.326815 
L 1319.55467 162.097961 
L 1221.815378 162.097961 
z
" clip-path="url(#p6e19cf1194)" style="fill: #9467bd"/>
   </g>
   <g id="patch_61">
    <path d="M 1343.989492 203.998135 
L 1441.728784 203.998135 
L 1441.728784 199.86816 
L 1343.989492 199.86816 
z
" clip-path="url(#p6e19cf1194)" style="fill: #9467bd"/>
   </g>
   <g id="patch_62">
    <path d="M 1466.163607 194.700315 
L 1563.902898 194.700315 
L 1563.902898 189.571851 
L 1466.163607 189.571851 
z
" clip-path="url(#p6e19cf1194)" style="fill: #9467bd"/>
   </g>
   <g id="patch_63">
    <path d="M 122.248352 193.663966 
L 219.987643 193.663966 
L 219.987643 189.567628 
L 122.248352 189.567628 
z
" clip-path="url(#p6e19cf1194)" style="fill: #8c564b"/>
   </g>
   <g id="patch_64">
    <path d="M 244.422466 188.092577 
L 342.161758 188.092577 
L 342.161758 183.569323 
L 244.422466 183.569323 
z
" clip-path="url(#p6e19cf1194)" style="fill: #8c564b"/>
   </g>
   <g id="patch_65">
    <path d="M 366.59658 181.034987 
L 464.335872 181.034987 
L 464.335872 175.228738 
L 366.59658 175.228738 
z
" clip-path="url(#p6e19cf1194)" style="fill: #8c564b"/>
   </g>
   <g id="patch_66">
    <path d="M 488.770694 174.204257 
L 586.509986 174.204257 
L 586.509986 167.871574 
L 488.770694 167.871574 
z
" clip-path="url(#p6e19cf1194)" style="fill: #8c564b"/>
   </g>
   <g id="patch_67">
    <path d="M 610.944808 197.40816 
L 708.6841 197.40816 
L 708.6841 193.771791 
L 610.944808 193.771791 
z
" clip-path="url(#p6e19cf1194)" style="fill: #8c564b"/>
   </g>
   <g id="patch_68">
    <path d="M 733.118922 187.494179 
L 830.858214 187.494179 
L 830.858214 183.24592 
L 733.118922 183.24592 
z
" clip-path="url(#p6e19cf1194)" style="fill: #8c564b"/>
   </g>
   <g id="patch_69">
    <path d="M 855.293036 197.687706 
L 953.032328 197.687706 
L 953.032328 194.832406 
L 855.293036 194.832406 
z
" clip-path="url(#p6e19cf1194)" style="fill: #8c564b"/>
   </g>
   <g id="patch_70">
    <path d="M 977.46715 192.135344 
L 1075.206442 192.135344 
L 1075.206442 188.926478 
L 977.46715 188.926478 
z
" clip-path="url(#p6e19cf1194)" style="fill: #8c564b"/>
   </g>
   <g id="patch_71">
    <path d="M 1099.641264 171.016361 
L 1197.380556 171.016361 
L 1197.380556 165.85525 
L 1099.641264 165.85525 
z
" clip-path="url(#p6e19cf1194)" style="fill: #8c564b"/>
   </g>
   <g id="patch_72">
    <path d="M 1221.815378 162.097961 
L 1319.55467 162.097961 
L 1319.55467 156.322678 
L 1221.815378 156.322678 
z
" clip-path="url(#p6e19cf1194)" style="fill: #8c564b"/>
   </g>
   <g id="patch_73">
    <path d="M 1343.989492 199.86816 
L 1441.728784 199.86816 
L 1441.728784 197.156857 
L 1343.989492 197.156857 
z
" clip-path="url(#p6e19cf1194)" style="fill: #8c564b"/>
   </g>
   <g id="patch_74">
    <path d="M 1466.163607 189.571851 
L 1563.902898 189.571851 
L 1563.902898 186.205046 
L 1466.163607 186.205046 
z
" clip-path="url(#p6e19cf1194)" style="fill: #8c564b"/>
   </g>
   <g id="patch_75">
    <path d="M 122.248352 189.567628 
L 219.987643 189.567628 
L 219.987643 186.12338 
L 122.248352 186.12338 
z
" clip-path="url(#p6e19cf1194)" style="fill: #e377c2"/>
   </g>
   <g id="patch_76">
    <path d="M 244.422466 183.569323 
L 342.161758 183.569323 
L 342.161758 179.734945 
L 244.422466 179.734945 
z
" clip-path="url(#p6e19cf1194)" style="fill: #e377c2"/>
   </g>
   <g id="patch_77">
    <path d="M 366.59658 175.228738 
L 464.335872 175.228738 
L 464.335872 170.712766 
L 366.59658 170.712766 
z
" clip-path="url(#p6e19cf1194)" style="fill: #e377c2"/>
   </g>
   <g id="patch_78">
    <path d="M 488.770694 167.871574 
L 586.509986 167.871574 
L 586.509986 162.916908 
L 488.770694 162.916908 
z
" clip-path="url(#p6e19cf1194)" style="fill: #e377c2"/>
   </g>
   <g id="patch_79">
    <path d="M 610.944808 193.771791 
L 708.6841 193.771791 
L 708.6841 190.58455 
L 610.944808 190.58455 
z
" clip-path="url(#p6e19cf1194)" style="fill: #e377c2"/>
   </g>
   <g id="patch_80">
    <path d="M 733.118922 183.24592 
L 830.858214 183.24592 
L 830.858214 179.364478 
L 733.118922 179.364478 
z
" clip-path="url(#p6e19cf1194)" style="fill: #e377c2"/>
   </g>
   <g id="patch_81">
    <path d="M 855.293036 194.832406 
L 953.032328 194.832406 
L 953.032328 191.839075 
L 855.293036 191.839075 
z
" clip-path="url(#p6e19cf1194)" style="fill: #e377c2"/>
   </g>
   <g id="patch_82">
    <path d="M 977.46715 188.926478 
L 1075.206442 188.926478 
L 1075.206442 185.562262 
L 977.46715 185.562262 
z
" clip-path="url(#p6e19cf1194)" style="fill: #e377c2"/>
   </g>
   <g id="patch_83">
    <path d="M 1099.641264 165.85525 
L 1197.380556 165.85525 
L 1197.380556 160.37157 
L 1099.641264 160.37157 
z
" clip-path="url(#p6e19cf1194)" style="fill: #e377c2"/>
   </g>
   <g id="patch_84">
    <path d="M 1221.815378 156.322678 
L 1319.55467 156.322678 
L 1319.55467 150.180957 
L 1221.815378 150.180957 
z
" clip-path="url(#p6e19cf1194)" style="fill: #e377c2"/>
   </g>
   <g id="patch_85">
    <path d="M 1343.989492 197.156857 
L 1441.728784 197.156857 
L 1441.728784 194.306191 
L 1343.989492 194.306191 
z
" clip-path="url(#p6e19cf1194)" style="fill: #e377c2"/>
   </g>
   <g id="patch_86">
    <path d="M 1466.163607 186.205046 
L 1563.902898 186.205046 
L 1563.902898 182.665185 
L 1466.163607 182.665185 
z
" clip-path="url(#p6e19cf1194)" style="fill: #e377c2"/>
   </g>
   <g id="patch_87">
    <path d="M 122.248352 186.12338 
L 219.987643 186.12338 
L 219.987643 182.452514 
L 122.248352 182.452514 
z
" clip-path="url(#p6e19cf1194)" style="fill: #7f7f7f"/>
   </g>
   <g id="patch_88">
    <path d="M 244.422466 179.734945 
L 342.161758 179.734945 
L 342.161758 175.657873 
L 244.422466 175.657873 
z
" clip-path="url(#p6e19cf1194)" style="fill: #7f7f7f"/>
   </g>
   <g id="patch_89">
    <path d="M 366.59658 170.712766 
L 464.335872 170.712766 
L 464.335872 166.120895 
L 366.59658 166.120895 
z
" clip-path="url(#p6e19cf1194)" style="fill: #7f7f7f"/>
   </g>
   <g id="patch_90">
    <path d="M 488.770694 162.916908 
L 586.509986 162.916908 
L 586.509986 157.87086 
L 488.770694 157.87086 
z
" clip-path="url(#p6e19cf1194)" style="fill: #7f7f7f"/>
   </g>
   <g id="patch_91">
    <path d="M 610.944808 190.58455 
L 708.6841 190.58455 
L 708.6841 187.262765 
L 610.944808 187.262765 
z
" clip-path="url(#p6e19cf1194)" style="fill: #7f7f7f"/>
   </g>
   <g id="patch_92">
    <path d="M 733.118922 179.364478 
L 830.858214 179.364478 
L 830.858214 175.338425 
L 733.118922 175.338425 
z
" clip-path="url(#p6e19cf1194)" style="fill: #7f7f7f"/>
   </g>
   <g id="patch_93">
    <path d="M 855.293036 191.839075 
L 953.032328 191.839075 
L 953.032328 188.505353 
L 855.293036 188.505353 
z
" clip-path="url(#p6e19cf1194)" style="fill: #7f7f7f"/>
   </g>
   <g id="patch_94">
    <path d="M 977.46715 185.562262 
L 1075.206442 185.562262 
L 1075.206442 181.816325 
L 977.46715 181.816325 
z
" clip-path="url(#p6e19cf1194)" style="fill: #7f7f7f"/>
   </g>
   <g id="patch_95">
    <path d="M 1099.641264 160.37157 
L 1197.380556 160.37157 
L 1197.380556 156.197142 
L 1099.641264 156.197142 
z
" clip-path="url(#p6e19cf1194)" style="fill: #7f7f7f"/>
   </g>
   <g id="patch_96">
    <path d="M 1221.815378 150.180957 
L 1319.55467 150.180957 
L 1319.55467 145.495579 
L 1221.815378 145.495579 
z
" clip-path="url(#p6e19cf1194)" style="fill: #7f7f7f"/>
   </g>
   <g id="patch_97">
    <path d="M 1343.989492 194.306191 
L 1441.728784 194.306191 
L 1441.728784 191.166248 
L 1343.989492 191.166248 
z
" clip-path="url(#p6e19cf1194)" style="fill: #7f7f7f"/>
   </g>
   <g id="patch_98">
    <path d="M 1466.163607 182.665185 
L 1563.902898 182.665185 
L 1563.902898 178.766109 
L 1466.163607 178.766109 
z
" clip-path="url(#p6e19cf1194)" style="fill: #7f7f7f"/>
   </g>
   <g id="patch_99">
    <path d="M 122.248352 182.452514 
L 219.987643 182.452514 
L 219.987643 179.569713 
L 122.248352 179.569713 
z
" clip-path="url(#p6e19cf1194)" style="fill: #bcbd22"/>
   </g>
   <g id="patch_100">
    <path d="M 244.422466 175.657873 
L 342.161758 175.657873 
L 342.161758 172.45572 
L 244.422466 172.45572 
z
" clip-path="url(#p6e19cf1194)" style="fill: #bcbd22"/>
   </g>
   <g id="patch_101">
    <path d="M 366.59658 166.120895 
L 464.335872 166.120895 
L 464.335872 162.667505 
L 366.59658 162.667505 
z
" clip-path="url(#p6e19cf1194)" style="fill: #bcbd22"/>
   </g>
   <g id="patch_102">
    <path d="M 488.770694 157.87086 
L 586.509986 157.87086 
L 586.509986 153.983936 
L 488.770694 153.983936 
z
" clip-path="url(#p6e19cf1194)" style="fill: #bcbd22"/>
   </g>
   <g id="patch_103">
    <path d="M 610.944808 187.262765 
L 708.6841 187.262765 
L 708.6841 184.511522 
L 610.944808 184.511522 
z
" clip-path="url(#p6e19cf1194)" style="fill: #bcbd22"/>
   </g>
   <g id="patch_104">
    <path d="M 733.118922 175.338425 
L 830.858214 175.338425 
L 830.858214 172.026901 
L 733.118922 172.026901 
z
" clip-path="url(#p6e19cf1194)" style="fill: #bcbd22"/>
   </g>
   <g id="patch_105">
    <path d="M 855.293036 188.505353 
L 953.032328 188.505353 
L 953.032328 185.888321 
L 855.293036 185.888321 
z
" clip-path="url(#p6e19cf1194)" style="fill: #bcbd22"/>
   </g>
   <g id="patch_106">
    <path d="M 977.46715 181.816325 
L 1075.206442 181.816325 
L 1075.206442 178.874794 
L 977.46715 178.874794 
z
" clip-path="url(#p6e19cf1194)" style="fill: #bcbd22"/>
   </g>
   <g id="patch_107">
    <path d="M 1099.641264 156.197142 
L 1197.380556 156.197142 
L 1197.380556 153.009397 
L 1099.641264 153.009397 
z
" clip-path="url(#p6e19cf1194)" style="fill: #bcbd22"/>
   </g>
   <g id="patch_108">
    <path d="M 1221.815378 145.495579 
L 1319.55467 145.495579 
L 1319.55467 141.910428 
L 1221.815378 141.910428 
z
" clip-path="url(#p6e19cf1194)" style="fill: #bcbd22"/>
   </g>
   <g id="patch_109">
    <path d="M 1343.989492 191.166248 
L 1441.728784 191.166248 
L 1441.728784 188.666485 
L 1343.989492 188.666485 
z
" clip-path="url(#p6e19cf1194)" style="fill: #bcbd22"/>
   </g>
   <g id="patch_110">
    <path d="M 1466.163607 178.766109 
L 1563.902898 178.766109 
L 1563.902898 175.661987 
L 1466.163607 175.661987 
z
" clip-path="url(#p6e19cf1194)" style="fill: #bcbd22"/>
   </g>
   <g id="patch_111">
    <path d="M 122.248352 179.569713 
L 219.987643 179.569713 
L 219.987643 176.495886 
L 122.248352 176.495886 
z
" clip-path="url(#p6e19cf1194)" style="fill: #17becf"/>
   </g>
   <g id="patch_112">
    <path d="M 244.422466 172.45572 
L 342.161758 172.45572 
L 342.161758 169.032492 
L 244.422466 169.032492 
z
" clip-path="url(#p6e19cf1194)" style="fill: #17becf"/>
   </g>
   <g id="patch_113">
    <path d="M 366.59658 162.667505 
L 464.335872 162.667505 
L 464.335872 158.91052 
L 366.59658 158.91052 
z
" clip-path="url(#p6e19cf1194)" style="fill: #17becf"/>
   </g>
   <g id="patch_114">
    <path d="M 488.770694 153.983936 
L 586.509986 153.983936 
L 586.509986 149.801159 
L 488.770694 149.801159 
z
" clip-path="url(#p6e19cf1194)" style="fill: #17becf"/>
   </g>
   <g id="patch_115">
    <path d="M 610.944808 184.511522 
L 708.6841 184.511522 
L 708.6841 181.751919 
L 610.944808 181.751919 
z
" clip-path="url(#p6e19cf1194)" style="fill: #17becf"/>
   </g>
   <g id="patch_116">
    <path d="M 733.118922 172.026901 
L 830.858214 172.026901 
L 830.858214 168.86949 
L 733.118922 168.86949 
z
" clip-path="url(#p6e19cf1194)" style="fill: #17becf"/>
   </g>
   <g id="patch_117">
    <path d="M 855.293036 185.888321 
L 953.032328 185.888321 
L 953.032328 183.83118 
L 855.293036 183.83118 
z
" clip-path="url(#p6e19cf1194)" style="fill: #17becf"/>
   </g>
   <g id="patch_118">
    <path d="M 977.46715 178.874794 
L 1075.206442 178.874794 
L 1075.206442 176.562577 
L 977.46715 176.562577 
z
" clip-path="url(#p6e19cf1194)" style="fill: #17becf"/>
   </g>
   <g id="patch_119">
    <path d="M 1099.641264 153.009397 
L 1197.380556 153.009397 
L 1197.380556 149.252412 
L 1099.641264 149.252412 
z
" clip-path="url(#p6e19cf1194)" style="fill: #17becf"/>
   </g>
   <g id="patch_120">
    <path d="M 1221.815378 141.910428 
L 1319.55467 141.910428 
L 1319.55467 137.699266 
L 1221.815378 137.699266 
z
" clip-path="url(#p6e19cf1194)" style="fill: #17becf"/>
   </g>
   <g id="patch_121">
    <path d="M 1343.989492 188.666485 
L 1441.728784 188.666485 
L 1441.728784 186.701488 
L 1343.989492 186.701488 
z
" clip-path="url(#p6e19cf1194)" style="fill: #17becf"/>
   </g>
   <g id="patch_122">
    <path d="M 1466.163607 175.661987 
L 1563.902898 175.661987 
L 1563.902898 173.221919 
L 1466.163607 173.221919 
z
" clip-path="url(#p6e19cf1194)" style="fill: #17becf"/>
   </g>
   <g id="patch_123">
    <path d="M 122.248352 176.495886 
L 219.987643 176.495886 
L 219.987643 173.324572 
L 122.248352 173.324572 
z
" clip-path="url(#p6e19cf1194)" style="fill: #1f77b4"/>
   </g>
   <g id="patch_124">
    <path d="M 244.422466 169.032492 
L 342.161758 169.032492 
L 342.161758 165.541502 
L 244.422466 165.541502 
z
" clip-path="url(#p6e19cf1194)" style="fill: #1f77b4"/>
   </g>
   <g id="patch_125">
    <path d="M 366.59658 158.91052 
L 464.335872 158.91052 
L 464.335872 154.811991 
L 366.59658 154.811991 
z
" clip-path="url(#p6e19cf1194)" style="fill: #1f77b4"/>
   </g>
   <g id="patch_126">
    <path d="M 488.770694 149.801159 
L 586.509986 149.801159 
L 586.509986 145.33103 
L 488.770694 145.33103 
z
" clip-path="url(#p6e19cf1194)" style="fill: #1f77b4"/>
   </g>
   <g id="patch_127">
    <path d="M 610.944808 181.751919 
L 708.6841 181.751919 
L 708.6841 178.916787 
L 610.944808 178.916787 
z
" clip-path="url(#p6e19cf1194)" style="fill: #1f77b4"/>
   </g>
   <g id="patch_128">
    <path d="M 733.118922 168.86949 
L 830.858214 168.86949 
L 830.858214 165.511965 
L 733.118922 165.511965 
z
" clip-path="url(#p6e19cf1194)" style="fill: #1f77b4"/>
   </g>
   <g id="patch_129">
    <path d="M 855.293036 183.83118 
L 953.032328 183.83118 
L 953.032328 182.172922 
L 855.293036 182.172922 
z
" clip-path="url(#p6e19cf1194)" style="fill: #1f77b4"/>
   </g>
   <g id="patch_130">
    <path d="M 977.46715 176.562577 
L 1075.206442 176.562577 
L 1075.206442 174.699565 
L 977.46715 174.699565 
z
" clip-path="url(#p6e19cf1194)" style="fill: #1f77b4"/>
   </g>
   <g id="patch_131">
    <path d="M 1099.641264 149.252412 
L 1197.380556 149.252412 
L 1197.380556 146.292363 
L 1099.641264 146.292363 
z
" clip-path="url(#p6e19cf1194)" style="fill: #1f77b4"/>
   </g>
   <g id="patch_132">
    <path d="M 1221.815378 137.699266 
L 1319.55467 137.699266 
L 1319.55467 134.398583 
L 1221.815378 134.398583 
z
" clip-path="url(#p6e19cf1194)" style="fill: #1f77b4"/>
   </g>
   <g id="patch_133">
    <path d="M 1343.989492 186.701488 
L 1441.728784 186.701488 
L 1441.728784 185.154414 
L 1343.989492 185.154414 
z
" clip-path="url(#p6e19cf1194)" style="fill: #1f77b4"/>
   </g>
   <g id="patch_134">
    <path d="M 1466.163607 173.221919 
L 1563.902898 173.221919 
L 1563.902898 171.300815 
L 1466.163607 171.300815 
z
" clip-path="url(#p6e19cf1194)" style="fill: #1f77b4"/>
   </g>
   <g id="patch_135">
    <path d="M 122.248352 173.324572 
L 219.987643 173.324572 
L 219.987643 170.685178 
L 122.248352 170.685178 
z
" clip-path="url(#p6e19cf1194)" style="fill: #ff7f0e"/>
   </g>
   <g id="patch_136">
    <path d="M 244.422466 165.541502 
L 342.161758 165.541502 
L 342.161758 162.583877 
L 244.422466 162.583877 
z
" clip-path="url(#p6e19cf1194)" style="fill: #ff7f0e"/>
   </g>
   <g id="patch_137">
    <path d="M 366.59658 154.811991 
L 464.335872 154.811991 
L 464.335872 151.567322 
L 366.59658 151.567322 
z
" clip-path="url(#p6e19cf1194)" style="fill: #ff7f0e"/>
   </g>
   <g id="patch_138">
    <path d="M 488.770694 145.33103 
L 586.509986 145.33103 
L 586.509986 141.714762 
L 488.770694 141.714762 
z
" clip-path="url(#p6e19cf1194)" style="fill: #ff7f0e"/>
   </g>
   <g id="patch_139">
    <path d="M 610.944808 178.916787 
L 708.6841 178.916787 
L 708.6841 176.460899 
L 610.944808 176.460899 
z
" clip-path="url(#p6e19cf1194)" style="fill: #ff7f0e"/>
   </g>
   <g id="patch_140">
    <path d="M 733.118922 165.511965 
L 830.858214 165.511965 
L 830.858214 162.58915 
L 733.118922 162.58915 
z
" clip-path="url(#p6e19cf1194)" style="fill: #ff7f0e"/>
   </g>
   <g id="patch_141">
    <path d="M 855.293036 182.172922 
L 953.032328 182.172922 
L 953.032328 179.797163 
L 855.293036 179.797163 
z
" clip-path="url(#p6e19cf1194)" style="fill: #ff7f0e"/>
   </g>
   <g id="patch_142">
    <path d="M 977.46715 174.699565 
L 1075.206442 174.699565 
L 1075.206442 172.02819 
L 977.46715 172.02819 
z
" clip-path="url(#p6e19cf1194)" style="fill: #ff7f0e"/>
   </g>
   <g id="patch_143">
    <path d="M 1099.641264 146.292363 
L 1197.380556 146.292363 
L 1197.380556 143.218466 
L 1099.641264 143.218466 
z
" clip-path="url(#p6e19cf1194)" style="fill: #ff7f0e"/>
   </g>
   <g id="patch_144">
    <path d="M 1221.815378 134.398583 
L 1319.55467 134.398583 
L 1319.55467 130.976312 
L 1221.815378 130.976312 
z
" clip-path="url(#p6e19cf1194)" style="fill: #ff7f0e"/>
   </g>
   <g id="patch_145">
    <path d="M 1343.989492 185.154414 
L 1441.728784 185.154414 
L 1441.728784 182.877357 
L 1343.989492 182.877357 
z
" clip-path="url(#p6e19cf1194)" style="fill: #ff7f0e"/>
   </g>
   <g id="patch_146">
    <path d="M 1466.163607 171.300815 
L 1563.902898 171.300815 
L 1563.902898 168.473242 
L 1466.163607 168.473242 
z
" clip-path="url(#p6e19cf1194)" style="fill: #ff7f0e"/>
   </g>
   <g id="patch_147">
    <path d="M 122.248352 170.685178 
L 219.987643 170.685178 
L 219.987643 168.460035 
L 122.248352 168.460035 
z
" clip-path="url(#p6e19cf1194)" style="fill: #2ca02c"/>
   </g>
   <g id="patch_148">
    <path d="M 244.422466 162.583877 
L 342.161758 162.583877 
L 342.161758 160.095611 
L 244.422466 160.095611 
z
" clip-path="url(#p6e19cf1194)" style="fill: #2ca02c"/>
   </g>
   <g id="patch_149">
    <path d="M 366.59658 151.567322 
L 464.335872 151.567322 
L 464.335872 148.721121 
L 366.59658 148.721121 
z
" clip-path="url(#p6e19cf1194)" style="fill: #2ca02c"/>
   </g>
   <g id="patch_150">
    <path d="M 488.770694 141.714762 
L 586.509986 141.714762 
L 586.509986 138.558894 
L 488.770694 138.558894 
z
" clip-path="url(#p6e19cf1194)" style="fill: #2ca02c"/>
   </g>
   <g id="patch_151">
    <path d="M 610.944808 176.460899 
L 708.6841 176.460899 
L 708.6841 174.415342 
L 610.944808 174.415342 
z
" clip-path="url(#p6e19cf1194)" style="fill: #2ca02c"/>
   </g>
   <g id="patch_152">
    <path d="M 733.118922 162.58915 
L 830.858214 162.58915 
L 830.858214 160.170171 
L 733.118922 160.170171 
z
" clip-path="url(#p6e19cf1194)" style="fill: #2ca02c"/>
   </g>
   <g id="patch_153">
    <path d="M 855.293036 179.797163 
L 953.032328 179.797163 
L 953.032328 178.136623 
L 855.293036 178.136623 
z
" clip-path="url(#p6e19cf1194)" style="fill: #2ca02c"/>
   </g>
   <g id="patch_154">
    <path d="M 977.46715 172.02819 
L 1075.206442 172.02819 
L 1075.206442 170.160945 
L 977.46715 170.160945 
z
" clip-path="url(#p6e19cf1194)" style="fill: #2ca02c"/>
   </g>
   <g id="patch_155">
    <path d="M 1099.641264 143.218466 
L 1197.380556 143.218466 
L 1197.380556 141.169202 
L 1099.641264 141.169202 
z
" clip-path="url(#p6e19cf1194)" style="fill: #2ca02c"/>
   </g>
   <g id="patch_156">
    <path d="M 1221.815378 130.976312 
L 1319.55467 130.976312 
L 1319.55467 128.66383 
L 1221.815378 128.66383 
z
" clip-path="url(#p6e19cf1194)" style="fill: #2ca02c"/>
   </g>
   <g id="patch_157">
    <path d="M 1343.989492 182.877357 
L 1441.728784 182.877357 
L 1441.728784 181.287735 
L 1343.989492 181.287735 
z
" clip-path="url(#p6e19cf1194)" style="fill: #2ca02c"/>
   </g>
   <g id="patch_158">
    <path d="M 1466.163607 168.473242 
L 1563.902898 168.473242 
L 1563.902898 166.499303 
L 1466.163607 166.499303 
z
" clip-path="url(#p6e19cf1194)" style="fill: #2ca02c"/>
   </g>
   <g id="patch_159">
    <path d="M 122.248352 168.460035 
L 219.987643 168.460035 
L 219.987643 166.757363 
L 122.248352 166.757363 
z
" clip-path="url(#p6e19cf1194)" style="fill: #d62728"/>
   </g>
   <g id="patch_160">
    <path d="M 244.422466 160.095611 
L 342.161758 160.095611 
L 342.161758 158.184142 
L 244.422466 158.184142 
z
" clip-path="url(#p6e19cf1194)" style="fill: #d62728"/>
   </g>
   <g id="patch_161">
    <path d="M 366.59658 148.721121 
L 464.335872 148.721121 
L 464.335872 146.301851 
L 366.59658 146.301851 
z
" clip-path="url(#p6e19cf1194)" style="fill: #d62728"/>
   </g>
   <g id="patch_162">
    <path d="M 488.770694 138.558894 
L 586.509986 138.558894 
L 586.509986 135.853182 
L 488.770694 135.853182 
z
" clip-path="url(#p6e19cf1194)" style="fill: #d62728"/>
   </g>
   <g id="patch_163">
    <path d="M 610.944808 174.415342 
L 708.6841 174.415342 
L 708.6841 172.796082 
L 610.944808 172.796082 
z
" clip-path="url(#p6e19cf1194)" style="fill: #d62728"/>
   </g>
   <g id="patch_164">
    <path d="M 733.118922 160.170171 
L 830.858214 160.170171 
L 830.858214 158.165618 
L 733.118922 158.165618 
z
" clip-path="url(#p6e19cf1194)" style="fill: #d62728"/>
   </g>
   <g id="patch_165">
    <path d="M 855.293036 178.136623 
L 953.032328 178.136623 
L 953.032328 176.441875 
L 855.293036 176.441875 
z
" clip-path="url(#p6e19cf1194)" style="fill: #d62728"/>
   </g>
   <g id="patch_166">
    <path d="M 977.46715 170.160945 
L 1075.206442 170.160945 
L 1075.206442 168.254331 
L 977.46715 168.254331 
z
" clip-path="url(#p6e19cf1194)" style="fill: #d62728"/>
   </g>
   <g id="patch_167">
    <path d="M 1099.641264 141.169202 
L 1197.380556 141.169202 
L 1197.380556 137.924533 
L 1099.641264 137.924533 
z
" clip-path="url(#p6e19cf1194)" style="fill: #d62728"/>
   </g>
   <g id="patch_168">
    <path d="M 1221.815378 128.66383 
L 1319.55467 128.66383 
L 1319.55467 125.016595 
L 1221.815378 125.016595 
z
" clip-path="url(#p6e19cf1194)" style="fill: #d62728"/>
   </g>
   <g id="patch_169">
    <path d="M 1343.989492 181.287735 
L 1441.728784 181.287735 
L 1441.728784 179.760477 
L 1343.989492 179.760477 
z
" clip-path="url(#p6e19cf1194)" style="fill: #d62728"/>
   </g>
   <g id="patch_170">
    <path d="M 1466.163607 166.499303 
L 1563.902898 166.499303 
L 1563.902898 164.602805 
L 1466.163607 164.602805 
z
" clip-path="url(#p6e19cf1194)" style="fill: #d62728"/>
   </g>
   <g id="patch_171">
    <path d="M 122.248352 166.757363 
L 219.987643 166.757363 
L 219.987643 165.011359 
L 122.248352 165.011359 
z
" clip-path="url(#p6e19cf1194)" style="fill: #9467bd"/>
   </g>
   <g id="patch_172">
    <path d="M 244.422466 158.184142 
L 342.161758 158.184142 
L 342.161758 156.222376 
L 244.422466 156.222376 
z
" clip-path="url(#p6e19cf1194)" style="fill: #9467bd"/>
   </g>
   <g id="patch_173">
    <path d="M 366.59658 146.301851 
L 464.335872 146.301851 
L 464.335872 143.114106 
L 366.59658 143.114106 
z
" clip-path="url(#p6e19cf1194)" style="fill: #9467bd"/>
   </g>
   <g id="patch_174">
    <path d="M 488.770694 135.853182 
L 586.509986 135.853182 
L 586.509986 132.293837 
L 488.770694 132.293837 
z
" clip-path="url(#p6e19cf1194)" style="fill: #9467bd"/>
   </g>
   <g id="patch_175">
    <path d="M 610.944808 172.796082 
L 708.6841 172.796082 
L 708.6841 171.158568 
L 610.944808 171.158568 
z
" clip-path="url(#p6e19cf1194)" style="fill: #9467bd"/>
   </g>
   <g id="patch_176">
    <path d="M 733.118922 158.165618 
L 830.858214 158.165618 
L 830.858214 156.132208 
L 733.118922 156.132208 
z
" clip-path="url(#p6e19cf1194)" style="fill: #9467bd"/>
   </g>
   <g id="patch_177">
    <path d="M 855.293036 176.441875 
L 953.032328 176.441875 
L 953.032328 175.100703 
L 855.293036 175.100703 
z
" clip-path="url(#p6e19cf1194)" style="fill: #9467bd"/>
   </g>
   <g id="patch_178">
    <path d="M 977.46715 168.254331 
L 1075.206442 168.254331 
L 1075.206442 166.746533 
L 977.46715 166.746533 
z
" clip-path="url(#p6e19cf1194)" style="fill: #9467bd"/>
   </g>
   <g id="patch_179">
    <path d="M 1099.641264 137.924533 
L 1197.380556 137.924533 
L 1197.380556 135.533724 
L 1099.641264 135.533724 
z
" clip-path="url(#p6e19cf1194)" style="fill: #9467bd"/>
   </g>
   <g id="patch_180">
    <path d="M 1221.815378 125.016595 
L 1319.55467 125.016595 
L 1319.55467 122.31612 
L 1221.815378 122.31612 
z
" clip-path="url(#p6e19cf1194)" style="fill: #9467bd"/>
   </g>
   <g id="patch_181">
    <path d="M 1343.989492 179.760477 
L 1441.728784 179.760477 
L 1441.728784 178.473537 
L 1343.989492 178.473537 
z
" clip-path="url(#p6e19cf1194)" style="fill: #9467bd"/>
   </g>
   <g id="patch_182">
    <path d="M 1466.163607 164.602805 
L 1563.902898 164.602805 
L 1563.902898 163.004726 
L 1466.163607 163.004726 
z
" clip-path="url(#p6e19cf1194)" style="fill: #9467bd"/>
   </g>
   <g id="patch_183">
    <path d="M 122.248352 165.011359 
L 219.987643 165.011359 
L 219.987643 117.360761 
L 122.248352 117.360761 
z
" clip-path="url(#p6e19cf1194)" style="fill: #8c564b"/>
   </g>
   <g id="patch_184">
    <path d="M 244.422466 156.222376 
L 342.161758 156.222376 
L 342.161758 104.036431 
L 244.422466 104.036431 
z
" clip-path="url(#p6e19cf1194)" style="fill: #8c564b"/>
   </g>
   <g id="patch_185">
    <path d="M 366.59658 143.114106 
L 464.335872 143.114106 
L 464.335872 80.184607 
L 366.59658 80.184607 
z
" clip-path="url(#p6e19cf1194)" style="fill: #8c564b"/>
   </g>
   <g id="patch_186">
    <path d="M 488.770694 132.293837 
L 586.509986 132.293837 
L 586.509986 64.057426 
L 488.770694 64.057426 
z
" clip-path="url(#p6e19cf1194)" style="fill: #8c564b"/>
   </g>
   <g id="patch_187">
    <path d="M 610.944808 171.158568 
L 708.6841 171.158568 
L 708.6841 129.768735 
L 610.944808 129.768735 
z
" clip-path="url(#p6e19cf1194)" style="fill: #8c564b"/>
   </g>
   <g id="patch_188">
    <path d="M 733.118922 156.132208 
L 830.858214 156.132208 
L 830.858214 108.652889 
L 733.118922 108.652889 
z
" clip-path="url(#p6e19cf1194)" style="fill: #8c564b"/>
   </g>
   <g id="patch_189">
    <path d="M 855.293036 175.100703 
L 953.032328 175.100703 
L 953.032328 132.570794 
L 855.293036 132.570794 
z
" clip-path="url(#p6e19cf1194)" style="fill: #8c564b"/>
   </g>
   <g id="patch_190">
    <path d="M 977.46715 166.746533 
L 1075.206442 166.746533 
L 1075.206442 119.768865 
L 977.46715 119.768865 
z
" clip-path="url(#p6e19cf1194)" style="fill: #8c564b"/>
   </g>
   <g id="patch_191">
    <path d="M 1099.641264 135.533724 
L 1197.380556 135.533724 
L 1197.380556 66.029501 
L 1099.641264 66.029501 
z
" clip-path="url(#p6e19cf1194)" style="fill: #8c564b"/>
   </g>
   <g id="patch_192">
    <path d="M 1221.815378 122.31612 
L 1319.55467 122.31612 
L 1319.55467 46.136 
L 1221.815378 46.136 
z
" clip-path="url(#p6e19cf1194)" style="fill: #8c564b"/>
   </g>
   <g id="patch_193">
    <path d="M 1343.989492 178.473537 
L 1441.728784 178.473537 
L 1441.728784 142.333334 
L 1343.989492 142.333334 
z
" clip-path="url(#p6e19cf1194)" style="fill: #8c564b"/>
   </g>
   <g id="patch_194">
    <path d="M 1466.163607 163.004726 
L 1563.902898 163.004726 
L 1563.902898 120.239741 
L 1466.163607 120.239741 
z
" clip-path="url(#p6e19cf1194)" style="fill: #8c564b"/>
   </g>
   <g id="matplotlib.axis_1">
    <g id="xtick_1">
     <g id="line2d_1">
      <defs>
       <path id="mbbfe760f8c" d="M 0 0 
L 0 3.5 
" style="stroke: #000000; stroke-width: 0.8"/>
      </defs>
      <g>
       <use xlink:href="#mbbfe760f8c" x="171.117998" y="242.456" style="stroke: #000000; stroke-width: 0.8"/>
      </g>
     </g>
     <g id="text_1">
      <!-- flight -->
      <g transform="translate(158.276592 257.054437) scale(0.1 -0.1)">
       <defs>
        <path id="DejaVuSans-66" d="M 2375 4863 
L 2375 4384 
L 1825 4384 
Q 1516 4384 1395 4259 
Q 1275 4134 1275 3809 
L 1275 3500 
L 2222 3500 
L 2222 3053 
L 1275 3053 
L 1275 0 
L 697 0 
L 697 3053 
L 147 3053 
L 147 3500 
L 697 3500 
L 697 3744 
Q 697 4328 969 4595 
Q 1241 4863 1831 4863 
L 2375 4863 
z
" transform="scale(0.015625)"/>
        <path id="DejaVuSans-6c" d="M 603 4863 
L 1178 4863 
L 1178 0 
L 603 0 
L 603 4863 
z
" transform="scale(0.015625)"/>
        <path id="DejaVuSans-69" d="M 603 3500 
L 1178 3500 
L 1178 0 
L 603 0 
L 603 3500 
z
M 603 4863 
L 1178 4863 
L 1178 4134 
L 603 4134 
L 603 4863 
z
" transform="scale(0.015625)"/>
        <path id="DejaVuSans-67" d="M 2906 1791 
Q 2906 2416 2648 2759 
Q 2391 3103 1925 3103 
Q 1463 3103 1205 2759 
Q 947 2416 947 1791 
Q 947 1169 1205 825 
Q 1463 481 1925 481 
Q 2391 481 2648 825 
Q 2906 1169 2906 1791 
z
M 3481 434 
Q 3481 -459 3084 -895 
Q 2688 -1331 1869 -1331 
Q 1566 -1331 1297 -1286 
Q 1028 -1241 775 -1147 
L 775 -588 
Q 1028 -725 1275 -790 
Q 1522 -856 1778 -856 
Q 2344 -856 2625 -561 
Q 2906 -266 2906 331 
L 2906 616 
Q 2728 306 2450 153 
Q 2172 0 1784 0 
Q 1141 0 747 490 
Q 353 981 353 1791 
Q 353 2603 747 3093 
Q 1141 3584 1784 3584 
Q 2172 3584 2450 3431 
Q 2728 3278 2906 2969 
L 2906 3500 
L 3481 3500 
L 3481 434 
z
" transform="scale(0.015625)"/>
        <path id="DejaVuSans-68" d="M 3513 2113 
L 3513 0 
L 2938 0 
L 2938 2094 
Q 2938 2591 2744 2837 
Q 2550 3084 2163 3084 
Q 1697 3084 1428 2787 
Q 1159 2491 1159 1978 
L 1159 0 
L 581 0 
L 581 4863 
L 1159 4863 
L 1159 2956 
Q 1366 3272 1645 3428 
Q 1925 3584 2291 3584 
Q 2894 3584 3203 3211 
Q 3513 2838 3513 2113 
z
" transform="scale(0.015625)"/>
        <path id="DejaVuSans-74" d="M 1172 4494 
L 1172 3500 
L 2356 3500 
L 2356 3053 
L 1172 3053 
L 1172 1153 
Q 1172 725 1289 603 
Q 1406 481 1766 481 
L 2356 481 
L 2356 0 
L 1766 0 
Q 1100 0 847 248 
Q 594 497 594 1153 
L 594 3053 
L 172 3053 
L 172 3500 
L 594 3500 
L 594 4494 
L 1172 4494 
z
" transform="scale(0.015625)"/>
       </defs>
       <use xlink:href="#DejaVuSans-66"/>
       <use xlink:href="#DejaVuSans-6c" x="35.205078"/>
       <use xlink:href="#DejaVuSans-69" x="62.988281"/>
       <use xlink:href="#DejaVuSans-67" x="90.771484"/>
       <use xlink:href="#DejaVuSans-68" x="154.248047"/>
       <use xlink:href="#DejaVuSans-74" x="217.626953"/>
      </g>
      <!-- myclimate-ECO. -->
      <g transform="translate(131.010185 268.25225) scale(0.1 -0.1)">
       <defs>
        <path id="DejaVuSans-6d" d="M 3328 2828 
Q 3544 3216 3844 3400 
Q 4144 3584 4550 3584 
Q 5097 3584 5394 3201 
Q 5691 2819 5691 2113 
L 5691 0 
L 5113 0 
L 5113 2094 
Q 5113 2597 4934 2840 
Q 4756 3084 4391 3084 
Q 3944 3084 3684 2787 
Q 3425 2491 3425 1978 
L 3425 0 
L 2847 0 
L 2847 2094 
Q 2847 2600 2669 2842 
Q 2491 3084 2119 3084 
Q 1678 3084 1418 2786 
Q 1159 2488 1159 1978 
L 1159 0 
L 581 0 
L 581 3500 
L 1159 3500 
L 1159 2956 
Q 1356 3278 1631 3431 
Q 1906 3584 2284 3584 
Q 2666 3584 2933 3390 
Q 3200 3197 3328 2828 
z
" transform="scale(0.015625)"/>
        <path id="DejaVuSans-79" d="M 2059 -325 
Q 1816 -950 1584 -1140 
Q 1353 -1331 966 -1331 
L 506 -1331 
L 506 -850 
L 844 -850 
Q 1081 -850 1212 -737 
Q 1344 -625 1503 -206 
L 1606 56 
L 191 3500 
L 800 3500 
L 1894 763 
L 2988 3500 
L 3597 3500 
L 2059 -325 
z
" transform="scale(0.015625)"/>
        <path id="DejaVuSans-63" d="M 3122 3366 
L 3122 2828 
Q 2878 2963 2633 3030 
Q 2388 3097 2138 3097 
Q 1578 3097 1268 2742 
Q 959 2388 959 1747 
Q 959 1106 1268 751 
Q 1578 397 2138 397 
Q 2388 397 2633 464 
Q 2878 531 3122 666 
L 3122 134 
Q 2881 22 2623 -34 
Q 2366 -91 2075 -91 
Q 1284 -91 818 406 
Q 353 903 353 1747 
Q 353 2603 823 3093 
Q 1294 3584 2113 3584 
Q 2378 3584 2631 3529 
Q 2884 3475 3122 3366 
z
" transform="scale(0.015625)"/>
        <path id="DejaVuSans-61" d="M 2194 1759 
Q 1497 1759 1228 1600 
Q 959 1441 959 1056 
Q 959 750 1161 570 
Q 1363 391 1709 391 
Q 2188 391 2477 730 
Q 2766 1069 2766 1631 
L 2766 1759 
L 2194 1759 
z
M 3341 1997 
L 3341 0 
L 2766 0 
L 2766 531 
Q 2569 213 2275 61 
Q 1981 -91 1556 -91 
Q 1019 -91 701 211 
Q 384 513 384 1019 
Q 384 1609 779 1909 
Q 1175 2209 1959 2209 
L 2766 2209 
L 2766 2266 
Q 2766 2663 2505 2880 
Q 2244 3097 1772 3097 
Q 1472 3097 1187 3025 
Q 903 2953 641 2809 
L 641 3341 
Q 956 3463 1253 3523 
Q 1550 3584 1831 3584 
Q 2591 3584 2966 3190 
Q 3341 2797 3341 1997 
z
" transform="scale(0.015625)"/>
        <path id="DejaVuSans-65" d="M 3597 1894 
L 3597 1613 
L 953 1613 
Q 991 1019 1311 708 
Q 1631 397 2203 397 
Q 2534 397 2845 478 
Q 3156 559 3463 722 
L 3463 178 
Q 3153 47 2828 -22 
Q 2503 -91 2169 -91 
Q 1331 -91 842 396 
Q 353 884 353 1716 
Q 353 2575 817 3079 
Q 1281 3584 2069 3584 
Q 2775 3584 3186 3129 
Q 3597 2675 3597 1894 
z
M 3022 2063 
Q 3016 2534 2758 2815 
Q 2500 3097 2075 3097 
Q 1594 3097 1305 2825 
Q 1016 2553 972 2059 
L 3022 2063 
z
" transform="scale(0.015625)"/>
        <path id="DejaVuSans-2d" d="M 313 2009 
L 1997 2009 
L 1997 1497 
L 313 1497 
L 313 2009 
z
" transform="scale(0.015625)"/>
        <path id="DejaVuSans-45" d="M 628 4666 
L 3578 4666 
L 3578 4134 
L 1259 4134 
L 1259 2753 
L 3481 2753 
L 3481 2222 
L 1259 2222 
L 1259 531 
L 3634 531 
L 3634 0 
L 628 0 
L 628 4666 
z
" transform="scale(0.015625)"/>
        <path id="DejaVuSans-43" d="M 4122 4306 
L 4122 3641 
Q 3803 3938 3442 4084 
Q 3081 4231 2675 4231 
Q 1875 4231 1450 3742 
Q 1025 3253 1025 2328 
Q 1025 1406 1450 917 
Q 1875 428 2675 428 
Q 3081 428 3442 575 
Q 3803 722 4122 1019 
L 4122 359 
Q 3791 134 3420 21 
Q 3050 -91 2638 -91 
Q 1578 -91 968 557 
Q 359 1206 359 2328 
Q 359 3453 968 4101 
Q 1578 4750 2638 4750 
Q 3056 4750 3426 4639 
Q 3797 4528 4122 4306 
z
" transform="scale(0.015625)"/>
        <path id="DejaVuSans-4f" d="M 2522 4238 
Q 1834 4238 1429 3725 
Q 1025 3213 1025 2328 
Q 1025 1447 1429 934 
Q 1834 422 2522 422 
Q 3209 422 3611 934 
Q 4013 1447 4013 2328 
Q 4013 3213 3611 3725 
Q 3209 4238 2522 4238 
z
M 2522 4750 
Q 3503 4750 4090 4092 
Q 4678 3434 4678 2328 
Q 4678 1225 4090 567 
Q 3503 -91 2522 -91 
Q 1538 -91 948 565 
Q 359 1222 359 2328 
Q 359 3434 948 4092 
Q 1538 4750 2522 4750 
z
" transform="scale(0.015625)"/>
        <path id="DejaVuSans-2e" d="M 684 794 
L 1344 794 
L 1344 0 
L 684 0 
L 684 794 
z
" transform="scale(0.015625)"/>
       </defs>
       <use xlink:href="#DejaVuSans-6d"/>
       <use xlink:href="#DejaVuSans-79" x="97.412109"/>
       <use xlink:href="#DejaVuSans-63" x="156.591797"/>
       <use xlink:href="#DejaVuSans-6c" x="211.572266"/>
       <use xlink:href="#DejaVuSans-69" x="239.355469"/>
       <use xlink:href="#DejaVuSans-6d" x="267.138672"/>
       <use xlink:href="#DejaVuSans-61" x="364.550781"/>
       <use xlink:href="#DejaVuSans-74" x="425.830078"/>
       <use xlink:href="#DejaVuSans-65" x="465.039062"/>
       <use xlink:href="#DejaVuSans-2d" x="526.5625"/>
       <use xlink:href="#DejaVuSans-45" x="562.646484"/>
       <use xlink:href="#DejaVuSans-43" x="625.830078"/>
       <use xlink:href="#DejaVuSans-4f" x="695.654297"/>
       <use xlink:href="#DejaVuSans-2e" x="770.365234"/>
      </g>
     </g>
    </g>
    <g id="xtick_2">
     <g id="line2d_2">
      <g>
       <use xlink:href="#mbbfe760f8c" x="293.292112" y="242.456" style="stroke: #000000; stroke-width: 0.8"/>
      </g>
     </g>
     <g id="text_2">
      <!-- flight -->
      <g transform="translate(280.450706 257.054437) scale(0.1 -0.1)">
       <use xlink:href="#DejaVuSans-66"/>
       <use xlink:href="#DejaVuSans-6c" x="35.205078"/>
       <use xlink:href="#DejaVuSans-69" x="62.988281"/>
       <use xlink:href="#DejaVuSans-67" x="90.771484"/>
       <use xlink:href="#DejaVuSans-68" x="154.248047"/>
       <use xlink:href="#DejaVuSans-74" x="217.626953"/>
      </g>
      <!-- myclimate-AVE. -->
      <g transform="translate(254.002268 268.25225) scale(0.1 -0.1)">
       <defs>
        <path id="DejaVuSans-41" d="M 2188 4044 
L 1331 1722 
L 3047 1722 
L 2188 4044 
z
M 1831 4666 
L 2547 4666 
L 4325 0 
L 3669 0 
L 3244 1197 
L 1141 1197 
L 716 0 
L 50 0 
L 1831 4666 
z
" transform="scale(0.015625)"/>
        <path id="DejaVuSans-56" d="M 1831 0 
L 50 4666 
L 709 4666 
L 2188 738 
L 3669 4666 
L 4325 4666 
L 2547 0 
L 1831 0 
z
" transform="scale(0.015625)"/>
       </defs>
       <use xlink:href="#DejaVuSans-6d"/>
       <use xlink:href="#DejaVuSans-79" x="97.412109"/>
       <use xlink:href="#DejaVuSans-63" x="156.591797"/>
       <use xlink:href="#DejaVuSans-6c" x="211.572266"/>
       <use xlink:href="#DejaVuSans-69" x="239.355469"/>
       <use xlink:href="#DejaVuSans-6d" x="267.138672"/>
       <use xlink:href="#DejaVuSans-61" x="364.550781"/>
       <use xlink:href="#DejaVuSans-74" x="425.830078"/>
       <use xlink:href="#DejaVuSans-65" x="465.039062"/>
       <use xlink:href="#DejaVuSans-2d" x="526.5625"/>
       <use xlink:href="#DejaVuSans-41" x="560.396484"/>
       <use xlink:href="#DejaVuSans-56" x="622.429688"/>
       <use xlink:href="#DejaVuSans-45" x="690.837891"/>
       <use xlink:href="#DejaVuSans-2e" x="754.021484"/>
      </g>
     </g>
    </g>
    <g id="xtick_3">
     <g id="line2d_3">
      <g>
       <use xlink:href="#mbbfe760f8c" x="415.466226" y="242.456" style="stroke: #000000; stroke-width: 0.8"/>
      </g>
     </g>
     <g id="text_3">
      <!-- flight -->
      <g transform="translate(402.62482 257.054437) scale(0.1 -0.1)">
       <use xlink:href="#DejaVuSans-66"/>
       <use xlink:href="#DejaVuSans-6c" x="35.205078"/>
       <use xlink:href="#DejaVuSans-69" x="62.988281"/>
       <use xlink:href="#DejaVuSans-67" x="90.771484"/>
       <use xlink:href="#DejaVuSans-68" x="154.248047"/>
       <use xlink:href="#DejaVuSans-74" x="217.626953"/>
      </g>
      <!-- goclimate-ECO. -->
      <g transform="translate(376.954507 268.25225) scale(0.1 -0.1)">
       <defs>
        <path id="DejaVuSans-6f" d="M 1959 3097 
Q 1497 3097 1228 2736 
Q 959 2375 959 1747 
Q 959 1119 1226 758 
Q 1494 397 1959 397 
Q 2419 397 2687 759 
Q 2956 1122 2956 1747 
Q 2956 2369 2687 2733 
Q 2419 3097 1959 3097 
z
M 1959 3584 
Q 2709 3584 3137 3096 
Q 3566 2609 3566 1747 
Q 3566 888 3137 398 
Q 2709 -91 1959 -91 
Q 1206 -91 779 398 
Q 353 888 353 1747 
Q 353 2609 779 3096 
Q 1206 3584 1959 3584 
z
" transform="scale(0.015625)"/>
       </defs>
       <use xlink:href="#DejaVuSans-67"/>
       <use xlink:href="#DejaVuSans-6f" x="63.476562"/>
       <use xlink:href="#DejaVuSans-63" x="124.658203"/>
       <use xlink:href="#DejaVuSans-6c" x="179.638672"/>
       <use xlink:href="#DejaVuSans-69" x="207.421875"/>
       <use xlink:href="#DejaVuSans-6d" x="235.205078"/>
       <use xlink:href="#DejaVuSans-61" x="332.617188"/>
       <use xlink:href="#DejaVuSans-74" x="393.896484"/>
       <use xlink:href="#DejaVuSans-65" x="433.105469"/>
       <use xlink:href="#DejaVuSans-2d" x="494.628906"/>
       <use xlink:href="#DejaVuSans-45" x="530.712891"/>
       <use xlink:href="#DejaVuSans-43" x="593.896484"/>
       <use xlink:href="#DejaVuSans-4f" x="663.720703"/>
       <use xlink:href="#DejaVuSans-2e" x="738.431641"/>
      </g>
     </g>
    </g>
    <g id="xtick_4">
     <g id="line2d_4">
      <g>
       <use xlink:href="#mbbfe760f8c" x="537.64034" y="242.456" style="stroke: #000000; stroke-width: 0.8"/>
      </g>
     </g>
     <g id="text_4">
      <!-- flight -->
      <g transform="translate(524.798934 257.054437) scale(0.1 -0.1)">
       <use xlink:href="#DejaVuSans-66"/>
       <use xlink:href="#DejaVuSans-6c" x="35.205078"/>
       <use xlink:href="#DejaVuSans-69" x="62.988281"/>
       <use xlink:href="#DejaVuSans-67" x="90.771484"/>
       <use xlink:href="#DejaVuSans-68" x="154.248047"/>
       <use xlink:href="#DejaVuSans-74" x="217.626953"/>
      </g>
      <!-- goclimate-AVE. -->
      <g transform="translate(499.94659 268.25225) scale(0.1 -0.1)">
       <use xlink:href="#DejaVuSans-67"/>
       <use xlink:href="#DejaVuSans-6f" x="63.476562"/>
       <use xlink:href="#DejaVuSans-63" x="124.658203"/>
       <use xlink:href="#DejaVuSans-6c" x="179.638672"/>
       <use xlink:href="#DejaVuSans-69" x="207.421875"/>
       <use xlink:href="#DejaVuSans-6d" x="235.205078"/>
       <use xlink:href="#DejaVuSans-61" x="332.617188"/>
       <use xlink:href="#DejaVuSans-74" x="393.896484"/>
       <use xlink:href="#DejaVuSans-65" x="433.105469"/>
       <use xlink:href="#DejaVuSans-2d" x="494.628906"/>
       <use xlink:href="#DejaVuSans-41" x="528.462891"/>
       <use xlink:href="#DejaVuSans-56" x="590.496094"/>
       <use xlink:href="#DejaVuSans-45" x="658.904297"/>
       <use xlink:href="#DejaVuSans-2e" x="722.087891"/>
      </g>
     </g>
    </g>
    <g id="xtick_5">
     <g id="line2d_5">
      <g>
       <use xlink:href="#mbbfe760f8c" x="659.814454" y="242.456" style="stroke: #000000; stroke-width: 0.8"/>
      </g>
     </g>
     <g id="text_5">
      <!-- flight -->
      <g transform="translate(646.973048 257.054437) scale(0.1 -0.1)">
       <use xlink:href="#DejaVuSans-66"/>
       <use xlink:href="#DejaVuSans-6c" x="35.205078"/>
       <use xlink:href="#DejaVuSans-69" x="62.988281"/>
       <use xlink:href="#DejaVuSans-67" x="90.771484"/>
       <use xlink:href="#DejaVuSans-68" x="154.248047"/>
       <use xlink:href="#DejaVuSans-74" x="217.626953"/>
      </g>
      <!-- ukgov-ECO. -->
      <g transform="translate(630.908985 268.25225) scale(0.1 -0.1)">
       <defs>
        <path id="DejaVuSans-75" d="M 544 1381 
L 544 3500 
L 1119 3500 
L 1119 1403 
Q 1119 906 1312 657 
Q 1506 409 1894 409 
Q 2359 409 2629 706 
Q 2900 1003 2900 1516 
L 2900 3500 
L 3475 3500 
L 3475 0 
L 2900 0 
L 2900 538 
Q 2691 219 2414 64 
Q 2138 -91 1772 -91 
Q 1169 -91 856 284 
Q 544 659 544 1381 
z
M 1991 3584 
L 1991 3584 
z
" transform="scale(0.015625)"/>
        <path id="DejaVuSans-6b" d="M 581 4863 
L 1159 4863 
L 1159 1991 
L 2875 3500 
L 3609 3500 
L 1753 1863 
L 3688 0 
L 2938 0 
L 1159 1709 
L 1159 0 
L 581 0 
L 581 4863 
z
" transform="scale(0.015625)"/>
        <path id="DejaVuSans-76" d="M 191 3500 
L 800 3500 
L 1894 563 
L 2988 3500 
L 3597 3500 
L 2284 0 
L 1503 0 
L 191 3500 
z
" transform="scale(0.015625)"/>
       </defs>
       <use xlink:href="#DejaVuSans-75"/>
       <use xlink:href="#DejaVuSans-6b" x="63.378906"/>
       <use xlink:href="#DejaVuSans-67" x="121.289062"/>
       <use xlink:href="#DejaVuSans-6f" x="184.765625"/>
       <use xlink:href="#DejaVuSans-76" x="245.947266"/>
       <use xlink:href="#DejaVuSans-2d" x="302.501953"/>
       <use xlink:href="#DejaVuSans-45" x="338.585938"/>
       <use xlink:href="#DejaVuSans-43" x="401.769531"/>
       <use xlink:href="#DejaVuSans-4f" x="471.59375"/>
       <use xlink:href="#DejaVuSans-2e" x="546.304688"/>
      </g>
     </g>
    </g>
    <g id="xtick_6">
     <g id="line2d_6">
      <g>
       <use xlink:href="#mbbfe760f8c" x="781.988568" y="242.456" style="stroke: #000000; stroke-width: 0.8"/>
      </g>
     </g>
     <g id="text_6">
      <!-- flight -->
      <g transform="translate(769.147162 257.054437) scale(0.1 -0.1)">
       <use xlink:href="#DejaVuSans-66"/>
       <use xlink:href="#DejaVuSans-6c" x="35.205078"/>
       <use xlink:href="#DejaVuSans-69" x="62.988281"/>
       <use xlink:href="#DejaVuSans-67" x="90.771484"/>
       <use xlink:href="#DejaVuSans-68" x="154.248047"/>
       <use xlink:href="#DejaVuSans-74" x="217.626953"/>
      </g>
      <!-- ukgov-AVE. -->
      <g transform="translate(753.901068 268.25225) scale(0.1 -0.1)">
       <use xlink:href="#DejaVuSans-75"/>
       <use xlink:href="#DejaVuSans-6b" x="63.378906"/>
       <use xlink:href="#DejaVuSans-67" x="121.289062"/>
       <use xlink:href="#DejaVuSans-6f" x="184.765625"/>
       <use xlink:href="#DejaVuSans-76" x="245.947266"/>
       <use xlink:href="#DejaVuSans-2d" x="302.501953"/>
       <use xlink:href="#DejaVuSans-41" x="336.335938"/>
       <use xlink:href="#DejaVuSans-56" x="398.369141"/>
       <use xlink:href="#DejaVuSans-45" x="466.777344"/>
       <use xlink:href="#DejaVuSans-2e" x="529.960938"/>
      </g>
     </g>
    </g>
    <g id="xtick_7">
     <g id="line2d_7">
      <g>
       <use xlink:href="#mbbfe760f8c" x="904.162682" y="242.456" style="stroke: #000000; stroke-width: 0.8"/>
      </g>
     </g>
     <g id="text_7">
      <!-- distance -->
      <g transform="translate(882.975963 257.054437) scale(0.1 -0.1)">
       <defs>
        <path id="DejaVuSans-64" d="M 2906 2969 
L 2906 4863 
L 3481 4863 
L 3481 0 
L 2906 0 
L 2906 525 
Q 2725 213 2448 61 
Q 2172 -91 1784 -91 
Q 1150 -91 751 415 
Q 353 922 353 1747 
Q 353 2572 751 3078 
Q 1150 3584 1784 3584 
Q 2172 3584 2448 3432 
Q 2725 3281 2906 2969 
z
M 947 1747 
Q 947 1113 1208 752 
Q 1469 391 1925 391 
Q 2381 391 2643 752 
Q 2906 1113 2906 1747 
Q 2906 2381 2643 2742 
Q 2381 3103 1925 3103 
Q 1469 3103 1208 2742 
Q 947 2381 947 1747 
z
" transform="scale(0.015625)"/>
        <path id="DejaVuSans-73" d="M 2834 3397 
L 2834 2853 
Q 2591 2978 2328 3040 
Q 2066 3103 1784 3103 
Q 1356 3103 1142 2972 
Q 928 2841 928 2578 
Q 928 2378 1081 2264 
Q 1234 2150 1697 2047 
L 1894 2003 
Q 2506 1872 2764 1633 
Q 3022 1394 3022 966 
Q 3022 478 2636 193 
Q 2250 -91 1575 -91 
Q 1294 -91 989 -36 
Q 684 19 347 128 
L 347 722 
Q 666 556 975 473 
Q 1284 391 1588 391 
Q 1994 391 2212 530 
Q 2431 669 2431 922 
Q 2431 1156 2273 1281 
Q 2116 1406 1581 1522 
L 1381 1569 
Q 847 1681 609 1914 
Q 372 2147 372 2553 
Q 372 3047 722 3315 
Q 1072 3584 1716 3584 
Q 2034 3584 2315 3537 
Q 2597 3491 2834 3397 
z
" transform="scale(0.015625)"/>
        <path id="DejaVuSans-6e" d="M 3513 2113 
L 3513 0 
L 2938 0 
L 2938 2094 
Q 2938 2591 2744 2837 
Q 2550 3084 2163 3084 
Q 1697 3084 1428 2787 
Q 1159 2491 1159 1978 
L 1159 0 
L 581 0 
L 581 3500 
L 1159 3500 
L 1159 2956 
Q 1366 3272 1645 3428 
Q 1925 3584 2291 3584 
Q 2894 3584 3203 3211 
Q 3513 2838 3513 2113 
z
" transform="scale(0.015625)"/>
       </defs>
       <use xlink:href="#DejaVuSans-64"/>
       <use xlink:href="#DejaVuSans-69" x="63.476562"/>
       <use xlink:href="#DejaVuSans-73" x="91.259766"/>
       <use xlink:href="#DejaVuSans-74" x="143.359375"/>
       <use xlink:href="#DejaVuSans-61" x="182.568359"/>
       <use xlink:href="#DejaVuSans-6e" x="243.847656"/>
       <use xlink:href="#DejaVuSans-63" x="307.226562"/>
       <use xlink:href="#DejaVuSans-65" x="362.207031"/>
      </g>
      <!-- myclimate-ECO. -->
      <g transform="translate(864.05487 268.25225) scale(0.1 -0.1)">
       <use xlink:href="#DejaVuSans-6d"/>
       <use xlink:href="#DejaVuSans-79" x="97.412109"/>
       <use xlink:href="#DejaVuSans-63" x="156.591797"/>
       <use xlink:href="#DejaVuSans-6c" x="211.572266"/>
       <use xlink:href="#DejaVuSans-69" x="239.355469"/>
       <use xlink:href="#DejaVuSans-6d" x="267.138672"/>
       <use xlink:href="#DejaVuSans-61" x="364.550781"/>
       <use xlink:href="#DejaVuSans-74" x="425.830078"/>
       <use xlink:href="#DejaVuSans-65" x="465.039062"/>
       <use xlink:href="#DejaVuSans-2d" x="526.5625"/>
       <use xlink:href="#DejaVuSans-45" x="562.646484"/>
       <use xlink:href="#DejaVuSans-43" x="625.830078"/>
       <use xlink:href="#DejaVuSans-4f" x="695.654297"/>
       <use xlink:href="#DejaVuSans-2e" x="770.365234"/>
      </g>
     </g>
    </g>
    <g id="xtick_8">
     <g id="line2d_8">
      <g>
       <use xlink:href="#mbbfe760f8c" x="1026.336796" y="242.456" style="stroke: #000000; stroke-width: 0.8"/>
      </g>
     </g>
     <g id="text_8">
      <!-- distance -->
      <g transform="translate(1005.150077 257.054437) scale(0.1 -0.1)">
       <use xlink:href="#DejaVuSans-64"/>
       <use xlink:href="#DejaVuSans-69" x="63.476562"/>
       <use xlink:href="#DejaVuSans-73" x="91.259766"/>
       <use xlink:href="#DejaVuSans-74" x="143.359375"/>
       <use xlink:href="#DejaVuSans-61" x="182.568359"/>
       <use xlink:href="#DejaVuSans-6e" x="243.847656"/>
       <use xlink:href="#DejaVuSans-63" x="307.226562"/>
       <use xlink:href="#DejaVuSans-65" x="362.207031"/>
      </g>
      <!-- myclimate-AVE. -->
      <g transform="translate(987.046952 268.25225) scale(0.1 -0.1)">
       <use xlink:href="#DejaVuSans-6d"/>
       <use xlink:href="#DejaVuSans-79" x="97.412109"/>
       <use xlink:href="#DejaVuSans-63" x="156.591797"/>
       <use xlink:href="#DejaVuSans-6c" x="211.572266"/>
       <use xlink:href="#DejaVuSans-69" x="239.355469"/>
       <use xlink:href="#DejaVuSans-6d" x="267.138672"/>
       <use xlink:href="#DejaVuSans-61" x="364.550781"/>
       <use xlink:href="#DejaVuSans-74" x="425.830078"/>
       <use xlink:href="#DejaVuSans-65" x="465.039062"/>
       <use xlink:href="#DejaVuSans-2d" x="526.5625"/>
       <use xlink:href="#DejaVuSans-41" x="560.396484"/>
       <use xlink:href="#DejaVuSans-56" x="622.429688"/>
       <use xlink:href="#DejaVuSans-45" x="690.837891"/>
       <use xlink:href="#DejaVuSans-2e" x="754.021484"/>
      </g>
     </g>
    </g>
    <g id="xtick_9">
     <g id="line2d_9">
      <g>
       <use xlink:href="#mbbfe760f8c" x="1148.51091" y="242.456" style="stroke: #000000; stroke-width: 0.8"/>
      </g>
     </g>
     <g id="text_9">
      <!-- distance -->
      <g transform="translate(1127.324191 257.054437) scale(0.1 -0.1)">
       <use xlink:href="#DejaVuSans-64"/>
       <use xlink:href="#DejaVuSans-69" x="63.476562"/>
       <use xlink:href="#DejaVuSans-73" x="91.259766"/>
       <use xlink:href="#DejaVuSans-74" x="143.359375"/>
       <use xlink:href="#DejaVuSans-61" x="182.568359"/>
       <use xlink:href="#DejaVuSans-6e" x="243.847656"/>
       <use xlink:href="#DejaVuSans-63" x="307.226562"/>
       <use xlink:href="#DejaVuSans-65" x="362.207031"/>
      </g>
      <!-- goclimate-ECO. -->
      <g transform="translate(1109.999191 268.25225) scale(0.1 -0.1)">
       <use xlink:href="#DejaVuSans-67"/>
       <use xlink:href="#DejaVuSans-6f" x="63.476562"/>
       <use xlink:href="#DejaVuSans-63" x="124.658203"/>
       <use xlink:href="#DejaVuSans-6c" x="179.638672"/>
       <use xlink:href="#DejaVuSans-69" x="207.421875"/>
       <use xlink:href="#DejaVuSans-6d" x="235.205078"/>
       <use xlink:href="#DejaVuSans-61" x="332.617188"/>
       <use xlink:href="#DejaVuSans-74" x="393.896484"/>
       <use xlink:href="#DejaVuSans-65" x="433.105469"/>
       <use xlink:href="#DejaVuSans-2d" x="494.628906"/>
       <use xlink:href="#DejaVuSans-45" x="530.712891"/>
       <use xlink:href="#DejaVuSans-43" x="593.896484"/>
       <use xlink:href="#DejaVuSans-4f" x="663.720703"/>
       <use xlink:href="#DejaVuSans-2e" x="738.431641"/>
      </g>
     </g>
    </g>
    <g id="xtick_10">
     <g id="line2d_10">
      <g>
       <use xlink:href="#mbbfe760f8c" x="1270.685024" y="242.456" style="stroke: #000000; stroke-width: 0.8"/>
      </g>
     </g>
     <g id="text_10">
      <!-- distance -->
      <g transform="translate(1249.498305 257.054437) scale(0.1 -0.1)">
       <use xlink:href="#DejaVuSans-64"/>
       <use xlink:href="#DejaVuSans-69" x="63.476562"/>
       <use xlink:href="#DejaVuSans-73" x="91.259766"/>
       <use xlink:href="#DejaVuSans-74" x="143.359375"/>
       <use xlink:href="#DejaVuSans-61" x="182.568359"/>
       <use xlink:href="#DejaVuSans-6e" x="243.847656"/>
       <use xlink:href="#DejaVuSans-63" x="307.226562"/>
       <use xlink:href="#DejaVuSans-65" x="362.207031"/>
      </g>
      <!-- goclimate-AVE. -->
      <g transform="translate(1232.991274 268.25225) scale(0.1 -0.1)">
       <use xlink:href="#DejaVuSans-67"/>
       <use xlink:href="#DejaVuSans-6f" x="63.476562"/>
       <use xlink:href="#DejaVuSans-63" x="124.658203"/>
       <use xlink:href="#DejaVuSans-6c" x="179.638672"/>
       <use xlink:href="#DejaVuSans-69" x="207.421875"/>
       <use xlink:href="#DejaVuSans-6d" x="235.205078"/>
       <use xlink:href="#DejaVuSans-61" x="332.617188"/>
       <use xlink:href="#DejaVuSans-74" x="393.896484"/>
       <use xlink:href="#DejaVuSans-65" x="433.105469"/>
       <use xlink:href="#DejaVuSans-2d" x="494.628906"/>
       <use xlink:href="#DejaVuSans-41" x="528.462891"/>
       <use xlink:href="#DejaVuSans-56" x="590.496094"/>
       <use xlink:href="#DejaVuSans-45" x="658.904297"/>
       <use xlink:href="#DejaVuSans-2e" x="722.087891"/>
      </g>
     </g>
    </g>
    <g id="xtick_11">
     <g id="line2d_11">
      <g>
       <use xlink:href="#mbbfe760f8c" x="1392.859138" y="242.456" style="stroke: #000000; stroke-width: 0.8"/>
      </g>
     </g>
     <g id="text_11">
      <!-- distance -->
      <g transform="translate(1371.672419 257.054437) scale(0.1 -0.1)">
       <use xlink:href="#DejaVuSans-64"/>
       <use xlink:href="#DejaVuSans-69" x="63.476562"/>
       <use xlink:href="#DejaVuSans-73" x="91.259766"/>
       <use xlink:href="#DejaVuSans-74" x="143.359375"/>
       <use xlink:href="#DejaVuSans-61" x="182.568359"/>
       <use xlink:href="#DejaVuSans-6e" x="243.847656"/>
       <use xlink:href="#DejaVuSans-63" x="307.226562"/>
       <use xlink:href="#DejaVuSans-65" x="362.207031"/>
      </g>
      <!-- ukgov-ECO. -->
      <g transform="translate(1363.953669 268.25225) scale(0.1 -0.1)">
       <use xlink:href="#DejaVuSans-75"/>
       <use xlink:href="#DejaVuSans-6b" x="63.378906"/>
       <use xlink:href="#DejaVuSans-67" x="121.289062"/>
       <use xlink:href="#DejaVuSans-6f" x="184.765625"/>
       <use xlink:href="#DejaVuSans-76" x="245.947266"/>
       <use xlink:href="#DejaVuSans-2d" x="302.501953"/>
       <use xlink:href="#DejaVuSans-45" x="338.585938"/>
       <use xlink:href="#DejaVuSans-43" x="401.769531"/>
       <use xlink:href="#DejaVuSans-4f" x="471.59375"/>
       <use xlink:href="#DejaVuSans-2e" x="546.304688"/>
      </g>
     </g>
    </g>
    <g id="xtick_12">
     <g id="line2d_12">
      <g>
       <use xlink:href="#mbbfe760f8c" x="1515.033252" y="242.456" style="stroke: #000000; stroke-width: 0.8"/>
      </g>
     </g>
     <g id="text_12">
      <!-- distance -->
      <g transform="translate(1493.846533 257.054437) scale(0.1 -0.1)">
       <use xlink:href="#DejaVuSans-64"/>
       <use xlink:href="#DejaVuSans-69" x="63.476562"/>
       <use xlink:href="#DejaVuSans-73" x="91.259766"/>
       <use xlink:href="#DejaVuSans-74" x="143.359375"/>
       <use xlink:href="#DejaVuSans-61" x="182.568359"/>
       <use xlink:href="#DejaVuSans-6e" x="243.847656"/>
       <use xlink:href="#DejaVuSans-63" x="307.226562"/>
       <use xlink:href="#DejaVuSans-65" x="362.207031"/>
      </g>
      <!-- ukgov-AVE. -->
      <g transform="translate(1486.945752 268.25225) scale(0.1 -0.1)">
       <use xlink:href="#DejaVuSans-75"/>
       <use xlink:href="#DejaVuSans-6b" x="63.378906"/>
       <use xlink:href="#DejaVuSans-67" x="121.289062"/>
       <use xlink:href="#DejaVuSans-6f" x="184.765625"/>
       <use xlink:href="#DejaVuSans-76" x="245.947266"/>
       <use xlink:href="#DejaVuSans-2d" x="302.501953"/>
       <use xlink:href="#DejaVuSans-41" x="336.335938"/>
       <use xlink:href="#DejaVuSans-56" x="398.369141"/>
       <use xlink:href="#DejaVuSans-45" x="466.777344"/>
       <use xlink:href="#DejaVuSans-2e" x="529.960938"/>
      </g>
     </g>
    </g>
   </g>
   <g id="matplotlib.axis_2">
    <g id="ytick_1">
     <g id="line2d_13">
      <defs>
       <path id="mc772830913" d="M 0 0 
L -3.5 0 
" style="stroke: #000000; stroke-width: 0.8"/>
      </defs>
      <g>
       <use xlink:href="#mc772830913" x="50.165625" y="242.456" style="stroke: #000000; stroke-width: 0.8"/>
      </g>
     </g>
     <g id="text_13">
      <!-- 0.00 -->
      <g transform="translate(20.9 246.255219) scale(0.1 -0.1)">
       <defs>
        <path id="DejaVuSans-30" d="M 2034 4250 
Q 1547 4250 1301 3770 
Q 1056 3291 1056 2328 
Q 1056 1369 1301 889 
Q 1547 409 2034 409 
Q 2525 409 2770 889 
Q 3016 1369 3016 2328 
Q 3016 3291 2770 3770 
Q 2525 4250 2034 4250 
z
M 2034 4750 
Q 2819 4750 3233 4129 
Q 3647 3509 3647 2328 
Q 3647 1150 3233 529 
Q 2819 -91 2034 -91 
Q 1250 -91 836 529 
Q 422 1150 422 2328 
Q 422 3509 836 4129 
Q 1250 4750 2034 4750 
z
" transform="scale(0.015625)"/>
       </defs>
       <use xlink:href="#DejaVuSans-30"/>
       <use xlink:href="#DejaVuSans-2e" x="63.623047"/>
       <use xlink:href="#DejaVuSans-30" x="95.410156"/>
       <use xlink:href="#DejaVuSans-30" x="159.033203"/>
      </g>
     </g>
    </g>
    <g id="ytick_2">
     <g id="line2d_14">
      <g>
       <use xlink:href="#mc772830913" x="50.165625" y="218.73766" style="stroke: #000000; stroke-width: 0.8"/>
      </g>
     </g>
     <g id="text_14">
      <!-- 0.25 -->
      <g transform="translate(20.9 222.536879) scale(0.1 -0.1)">
       <defs>
        <path id="DejaVuSans-32" d="M 1228 531 
L 3431 531 
L 3431 0 
L 469 0 
L 469 531 
Q 828 903 1448 1529 
Q 2069 2156 2228 2338 
Q 2531 2678 2651 2914 
Q 2772 3150 2772 3378 
Q 2772 3750 2511 3984 
Q 2250 4219 1831 4219 
Q 1534 4219 1204 4116 
Q 875 4013 500 3803 
L 500 4441 
Q 881 4594 1212 4672 
Q 1544 4750 1819 4750 
Q 2544 4750 2975 4387 
Q 3406 4025 3406 3419 
Q 3406 3131 3298 2873 
Q 3191 2616 2906 2266 
Q 2828 2175 2409 1742 
Q 1991 1309 1228 531 
z
" transform="scale(0.015625)"/>
        <path id="DejaVuSans-35" d="M 691 4666 
L 3169 4666 
L 3169 4134 
L 1269 4134 
L 1269 2991 
Q 1406 3038 1543 3061 
Q 1681 3084 1819 3084 
Q 2600 3084 3056 2656 
Q 3513 2228 3513 1497 
Q 3513 744 3044 326 
Q 2575 -91 1722 -91 
Q 1428 -91 1123 -41 
Q 819 9 494 109 
L 494 744 
Q 775 591 1075 516 
Q 1375 441 1709 441 
Q 2250 441 2565 725 
Q 2881 1009 2881 1497 
Q 2881 1984 2565 2268 
Q 2250 2553 1709 2553 
Q 1456 2553 1204 2497 
Q 953 2441 691 2322 
L 691 4666 
z
" transform="scale(0.015625)"/>
       </defs>
       <use xlink:href="#DejaVuSans-30"/>
       <use xlink:href="#DejaVuSans-2e" x="63.623047"/>
       <use xlink:href="#DejaVuSans-32" x="95.410156"/>
       <use xlink:href="#DejaVuSans-35" x="159.033203"/>
      </g>
     </g>
    </g>
    <g id="ytick_3">
     <g id="line2d_15">
      <g>
       <use xlink:href="#mc772830913" x="50.165625" y="195.01932" style="stroke: #000000; stroke-width: 0.8"/>
      </g>
     </g>
     <g id="text_15">
      <!-- 0.50 -->
      <g transform="translate(20.9 198.818539) scale(0.1 -0.1)">
       <use xlink:href="#DejaVuSans-30"/>
       <use xlink:href="#DejaVuSans-2e" x="63.623047"/>
       <use xlink:href="#DejaVuSans-35" x="95.410156"/>
       <use xlink:href="#DejaVuSans-30" x="159.033203"/>
      </g>
     </g>
    </g>
    <g id="ytick_4">
     <g id="line2d_16">
      <g>
       <use xlink:href="#mc772830913" x="50.165625" y="171.300981" style="stroke: #000000; stroke-width: 0.8"/>
      </g>
     </g>
     <g id="text_16">
      <!-- 0.75 -->
      <g transform="translate(20.9 175.100199) scale(0.1 -0.1)">
       <defs>
        <path id="DejaVuSans-37" d="M 525 4666 
L 3525 4666 
L 3525 4397 
L 1831 0 
L 1172 0 
L 2766 4134 
L 525 4134 
L 525 4666 
z
" transform="scale(0.015625)"/>
       </defs>
       <use xlink:href="#DejaVuSans-30"/>
       <use xlink:href="#DejaVuSans-2e" x="63.623047"/>
       <use xlink:href="#DejaVuSans-37" x="95.410156"/>
       <use xlink:href="#DejaVuSans-35" x="159.033203"/>
      </g>
     </g>
    </g>
    <g id="ytick_5">
     <g id="line2d_17">
      <g>
       <use xlink:href="#mc772830913" x="50.165625" y="147.582641" style="stroke: #000000; stroke-width: 0.8"/>
      </g>
     </g>
     <g id="text_17">
      <!-- 1.00 -->
      <g transform="translate(20.9 151.38186) scale(0.1 -0.1)">
       <defs>
        <path id="DejaVuSans-31" d="M 794 531 
L 1825 531 
L 1825 4091 
L 703 3866 
L 703 4441 
L 1819 4666 
L 2450 4666 
L 2450 531 
L 3481 531 
L 3481 0 
L 794 0 
L 794 531 
z
" transform="scale(0.015625)"/>
       </defs>
       <use xlink:href="#DejaVuSans-31"/>
       <use xlink:href="#DejaVuSans-2e" x="63.623047"/>
       <use xlink:href="#DejaVuSans-30" x="95.410156"/>
       <use xlink:href="#DejaVuSans-30" x="159.033203"/>
      </g>
     </g>
    </g>
    <g id="ytick_6">
     <g id="line2d_18">
      <g>
       <use xlink:href="#mc772830913" x="50.165625" y="123.864301" style="stroke: #000000; stroke-width: 0.8"/>
      </g>
     </g>
     <g id="text_18">
      <!-- 1.25 -->
      <g transform="translate(20.9 127.66352) scale(0.1 -0.1)">
       <use xlink:href="#DejaVuSans-31"/>
       <use xlink:href="#DejaVuSans-2e" x="63.623047"/>
       <use xlink:href="#DejaVuSans-32" x="95.410156"/>
       <use xlink:href="#DejaVuSans-35" x="159.033203"/>
      </g>
     </g>
    </g>
    <g id="ytick_7">
     <g id="line2d_19">
      <g>
       <use xlink:href="#mc772830913" x="50.165625" y="100.145961" style="stroke: #000000; stroke-width: 0.8"/>
      </g>
     </g>
     <g id="text_19">
      <!-- 1.50 -->
      <g transform="translate(20.9 103.94518) scale(0.1 -0.1)">
       <use xlink:href="#DejaVuSans-31"/>
       <use xlink:href="#DejaVuSans-2e" x="63.623047"/>
       <use xlink:href="#DejaVuSans-35" x="95.410156"/>
       <use xlink:href="#DejaVuSans-30" x="159.033203"/>
      </g>
     </g>
    </g>
    <g id="ytick_8">
     <g id="line2d_20">
      <g>
       <use xlink:href="#mc772830913" x="50.165625" y="76.427621" style="stroke: #000000; stroke-width: 0.8"/>
      </g>
     </g>
     <g id="text_20">
      <!-- 1.75 -->
      <g transform="translate(20.9 80.22684) scale(0.1 -0.1)">
       <use xlink:href="#DejaVuSans-31"/>
       <use xlink:href="#DejaVuSans-2e" x="63.623047"/>
       <use xlink:href="#DejaVuSans-37" x="95.410156"/>
       <use xlink:href="#DejaVuSans-35" x="159.033203"/>
      </g>
     </g>
    </g>
    <g id="ytick_9">
     <g id="line2d_21">
      <g>
       <use xlink:href="#mc772830913" x="50.165625" y="52.709282" style="stroke: #000000; stroke-width: 0.8"/>
      </g>
     </g>
     <g id="text_21">
      <!-- 2.00 -->
      <g transform="translate(20.9 56.5085) scale(0.1 -0.1)">
       <use xlink:href="#DejaVuSans-32"/>
       <use xlink:href="#DejaVuSans-2e" x="63.623047"/>
       <use xlink:href="#DejaVuSans-30" x="95.410156"/>
       <use xlink:href="#DejaVuSans-30" x="159.033203"/>
      </g>
     </g>
    </g>
    <g id="text_22">
     <!-- $CO_2$ Equivalent (kg) -->
     <g transform="translate(14.8 188.838) rotate(-90) scale(0.1 -0.1)">
      <defs>
       <path id="DejaVuSans-Oblique-43" d="M 4447 4306 
L 4319 3641 
Q 4019 3944 3683 4091 
Q 3347 4238 2956 4238 
Q 2422 4238 2017 3981 
Q 1613 3725 1319 3200 
Q 1131 2863 1032 2486 
Q 934 2109 934 1728 
Q 934 1091 1264 756 
Q 1594 422 2222 422 
Q 2656 422 3056 561 
Q 3456 700 3834 978 
L 3688 231 
Q 3316 72 2936 -9 
Q 2556 -91 2175 -91 
Q 1278 -91 773 396 
Q 269 884 269 1753 
Q 269 2309 461 2846 
Q 653 3384 1013 3828 
Q 1394 4300 1883 4525 
Q 2372 4750 3022 4750 
Q 3422 4750 3780 4639 
Q 4138 4528 4447 4306 
z
" transform="scale(0.015625)"/>
       <path id="DejaVuSans-Oblique-4f" d="M 2919 4238 
Q 2400 4238 2003 3986 
Q 1606 3734 1313 3219 
Q 1125 2891 1026 2522 
Q 928 2153 928 1778 
Q 928 1128 1239 775 
Q 1550 422 2119 422 
Q 2631 422 3032 676 
Q 3434 931 3719 1434 
Q 3909 1772 4009 2142 
Q 4109 2513 4109 2881 
Q 4109 3528 3796 3883 
Q 3484 4238 2919 4238 
z
M 2100 -91 
Q 1241 -91 748 418 
Q 256 928 256 1813 
Q 256 2319 448 2847 
Q 641 3375 978 3788 
Q 1375 4272 1862 4511 
Q 2350 4750 2938 4750 
Q 3794 4750 4287 4245 
Q 4781 3741 4781 2869 
Q 4781 2331 4593 1812 
Q 4406 1294 4056 872 
Q 3656 384 3173 146 
Q 2691 -91 2100 -91 
z
" transform="scale(0.015625)"/>
       <path id="DejaVuSans-20" transform="scale(0.015625)"/>
       <path id="DejaVuSans-71" d="M 947 1747 
Q 947 1113 1208 752 
Q 1469 391 1925 391 
Q 2381 391 2643 752 
Q 2906 1113 2906 1747 
Q 2906 2381 2643 2742 
Q 2381 3103 1925 3103 
Q 1469 3103 1208 2742 
Q 947 2381 947 1747 
z
M 2906 525 
Q 2725 213 2448 61 
Q 2172 -91 1784 -91 
Q 1150 -91 751 415 
Q 353 922 353 1747 
Q 353 2572 751 3078 
Q 1150 3584 1784 3584 
Q 2172 3584 2448 3432 
Q 2725 3281 2906 2969 
L 2906 3500 
L 3481 3500 
L 3481 -1331 
L 2906 -1331 
L 2906 525 
z
" transform="scale(0.015625)"/>
       <path id="DejaVuSans-28" d="M 1984 4856 
Q 1566 4138 1362 3434 
Q 1159 2731 1159 2009 
Q 1159 1288 1364 580 
Q 1569 -128 1984 -844 
L 1484 -844 
Q 1016 -109 783 600 
Q 550 1309 550 2009 
Q 550 2706 781 3412 
Q 1013 4119 1484 4856 
L 1984 4856 
z
" transform="scale(0.015625)"/>
       <path id="DejaVuSans-29" d="M 513 4856 
L 1013 4856 
Q 1481 4119 1714 3412 
Q 1947 2706 1947 2009 
Q 1947 1309 1714 600 
Q 1481 -109 1013 -844 
L 513 -844 
Q 928 -128 1133 580 
Q 1338 1288 1338 2009 
Q 1338 2731 1133 3434 
Q 928 4138 513 4856 
z
" transform="scale(0.015625)"/>
      </defs>
      <use xlink:href="#DejaVuSans-Oblique-43" transform="translate(0 0.015625)"/>
      <use xlink:href="#DejaVuSans-Oblique-4f" transform="translate(69.824219 0.015625)"/>
      <use xlink:href="#DejaVuSans-32" transform="translate(148.535156 -16.390625) scale(0.7)"/>
      <use xlink:href="#DejaVuSans-20" transform="translate(195.805664 0.015625)"/>
      <use xlink:href="#DejaVuSans-45" transform="translate(227.592773 0.015625)"/>
      <use xlink:href="#DejaVuSans-71" transform="translate(290.776367 0.015625)"/>
      <use xlink:href="#DejaVuSans-75" transform="translate(354.25293 0.015625)"/>
      <use xlink:href="#DejaVuSans-69" transform="translate(417.631836 0.015625)"/>
      <use xlink:href="#DejaVuSans-76" transform="translate(445.415039 0.015625)"/>
      <use xlink:href="#DejaVuSans-61" transform="translate(504.594727 0.015625)"/>
      <use xlink:href="#DejaVuSans-6c" transform="translate(565.874023 0.015625)"/>
      <use xlink:href="#DejaVuSans-65" transform="translate(593.657227 0.015625)"/>
      <use xlink:href="#DejaVuSans-6e" transform="translate(655.180664 0.015625)"/>
      <use xlink:href="#DejaVuSans-74" transform="translate(718.55957 0.015625)"/>
      <use xlink:href="#DejaVuSans-20" transform="translate(757.768555 0.015625)"/>
      <use xlink:href="#DejaVuSans-28" transform="translate(789.555664 0.015625)"/>
      <use xlink:href="#DejaVuSans-6b" transform="translate(828.569336 0.015625)"/>
      <use xlink:href="#DejaVuSans-67" transform="translate(886.479492 0.015625)"/>
      <use xlink:href="#DejaVuSans-29" transform="translate(949.956055 0.015625)"/>
     </g>
    </g>
    <g id="text_23">
     <!-- 1e6 -->
     <g transform="translate(50.165625 33.32) scale(0.1 -0.1)">
      <defs>
       <path id="DejaVuSans-36" d="M 2113 2584 
Q 1688 2584 1439 2293 
Q 1191 2003 1191 1497 
Q 1191 994 1439 701 
Q 1688 409 2113 409 
Q 2538 409 2786 701 
Q 3034 994 3034 1497 
Q 3034 2003 2786 2293 
Q 2538 2584 2113 2584 
z
M 3366 4563 
L 3366 3988 
Q 3128 4100 2886 4159 
Q 2644 4219 2406 4219 
Q 1781 4219 1451 3797 
Q 1122 3375 1075 2522 
Q 1259 2794 1537 2939 
Q 1816 3084 2150 3084 
Q 2853 3084 3261 2657 
Q 3669 2231 3669 1497 
Q 3669 778 3244 343 
Q 2819 -91 2113 -91 
Q 1303 -91 875 529 
Q 447 1150 447 2328 
Q 447 3434 972 4092 
Q 1497 4750 2381 4750 
Q 2619 4750 2861 4703 
Q 3103 4656 3366 4563 
z
" transform="scale(0.015625)"/>
      </defs>
      <use xlink:href="#DejaVuSans-31"/>
      <use xlink:href="#DejaVuSans-65" x="63.623047"/>
      <use xlink:href="#DejaVuSans-36" x="125.146484"/>
     </g>
    </g>
   </g>
   <g id="patch_195">
    <path d="M 50.165625 242.456 
L 50.165625 36.32 
" style="fill: none; stroke: #000000; stroke-width: 0.8; stroke-linejoin: miter; stroke-linecap: square"/>
   </g>
   <g id="patch_196">
    <path d="M 1635.985625 242.456 
L 1635.985625 36.32 
" style="fill: none; stroke: #000000; stroke-width: 0.8; stroke-linejoin: miter; stroke-linecap: square"/>
   </g>
   <g id="patch_197">
    <path d="M 50.165625 242.456 
L 1635.985625 242.456 
" style="fill: none; stroke: #000000; stroke-width: 0.8; stroke-linejoin: miter; stroke-linecap: square"/>
   </g>
   <g id="patch_198">
    <path d="M 50.165625 36.32 
L 1635.985625 36.32 
" style="fill: none; stroke: #000000; stroke-width: 0.8; stroke-linejoin: miter; stroke-linecap: square"/>
   </g>
   <g id="text_24">
    <!-- $CO_2$ Equivalent (kg) by country for ICANN74 (917 participants) -->
    <g transform="translate(655.215625 16.32) scale(0.12 -0.12)">
     <defs>
      <path id="DejaVuSans-62" d="M 3116 1747 
Q 3116 2381 2855 2742 
Q 2594 3103 2138 3103 
Q 1681 3103 1420 2742 
Q 1159 2381 1159 1747 
Q 1159 1113 1420 752 
Q 1681 391 2138 391 
Q 2594 391 2855 752 
Q 3116 1113 3116 1747 
z
M 1159 2969 
Q 1341 3281 1617 3432 
Q 1894 3584 2278 3584 
Q 2916 3584 3314 3078 
Q 3713 2572 3713 1747 
Q 3713 922 3314 415 
Q 2916 -91 2278 -91 
Q 1894 -91 1617 61 
Q 1341 213 1159 525 
L 1159 0 
L 581 0 
L 581 4863 
L 1159 4863 
L 1159 2969 
z
" transform="scale(0.015625)"/>
      <path id="DejaVuSans-72" d="M 2631 2963 
Q 2534 3019 2420 3045 
Q 2306 3072 2169 3072 
Q 1681 3072 1420 2755 
Q 1159 2438 1159 1844 
L 1159 0 
L 581 0 
L 581 3500 
L 1159 3500 
L 1159 2956 
Q 1341 3275 1631 3429 
Q 1922 3584 2338 3584 
Q 2397 3584 2469 3576 
Q 2541 3569 2628 3553 
L 2631 2963 
z
" transform="scale(0.015625)"/>
      <path id="DejaVuSans-49" d="M 628 4666 
L 1259 4666 
L 1259 0 
L 628 0 
L 628 4666 
z
" transform="scale(0.015625)"/>
      <path id="DejaVuSans-4e" d="M 628 4666 
L 1478 4666 
L 3547 763 
L 3547 4666 
L 4159 4666 
L 4159 0 
L 3309 0 
L 1241 3903 
L 1241 0 
L 628 0 
L 628 4666 
z
" transform="scale(0.015625)"/>
      <path id="DejaVuSans-34" d="M 2419 4116 
L 825 1625 
L 2419 1625 
L 2419 4116 
z
M 2253 4666 
L 3047 4666 
L 3047 1625 
L 3713 1625 
L 3713 1100 
L 3047 1100 
L 3047 0 
L 2419 0 
L 2419 1100 
L 313 1100 
L 313 1709 
L 2253 4666 
z
" transform="scale(0.015625)"/>
      <path id="DejaVuSans-39" d="M 703 97 
L 703 672 
Q 941 559 1184 500 
Q 1428 441 1663 441 
Q 2288 441 2617 861 
Q 2947 1281 2994 2138 
Q 2813 1869 2534 1725 
Q 2256 1581 1919 1581 
Q 1219 1581 811 2004 
Q 403 2428 403 3163 
Q 403 3881 828 4315 
Q 1253 4750 1959 4750 
Q 2769 4750 3195 4129 
Q 3622 3509 3622 2328 
Q 3622 1225 3098 567 
Q 2575 -91 1691 -91 
Q 1453 -91 1209 -44 
Q 966 3 703 97 
z
M 1959 2075 
Q 2384 2075 2632 2365 
Q 2881 2656 2881 3163 
Q 2881 3666 2632 3958 
Q 2384 4250 1959 4250 
Q 1534 4250 1286 3958 
Q 1038 3666 1038 3163 
Q 1038 2656 1286 2365 
Q 1534 2075 1959 2075 
z
" transform="scale(0.015625)"/>
      <path id="DejaVuSans-70" d="M 1159 525 
L 1159 -1331 
L 581 -1331 
L 581 3500 
L 1159 3500 
L 1159 2969 
Q 1341 3281 1617 3432 
Q 1894 3584 2278 3584 
Q 2916 3584 3314 3078 
Q 3713 2572 3713 1747 
Q 3713 922 3314 415 
Q 2916 -91 2278 -91 
Q 1894 -91 1617 61 
Q 1341 213 1159 525 
z
M 3116 1747 
Q 3116 2381 2855 2742 
Q 2594 3103 2138 3103 
Q 1681 3103 1420 2742 
Q 1159 2381 1159 1747 
Q 1159 1113 1420 752 
Q 1681 391 2138 391 
Q 2594 391 2855 752 
Q 3116 1113 3116 1747 
z
" transform="scale(0.015625)"/>
     </defs>
     <use xlink:href="#DejaVuSans-Oblique-43" transform="translate(0 0.015625)"/>
     <use xlink:href="#DejaVuSans-Oblique-4f" transform="translate(69.824219 0.015625)"/>
     <use xlink:href="#DejaVuSans-32" transform="translate(148.535156 -16.390625) scale(0.7)"/>
     <use xlink:href="#DejaVuSans-20" transform="translate(195.805664 0.015625)"/>
     <use xlink:href="#DejaVuSans-45" transform="translate(227.592773 0.015625)"/>
     <use xlink:href="#DejaVuSans-71" transform="translate(290.776367 0.015625)"/>
     <use xlink:href="#DejaVuSans-75" transform="translate(354.25293 0.015625)"/>
     <use xlink:href="#DejaVuSans-69" transform="translate(417.631836 0.015625)"/>
     <use xlink:href="#DejaVuSans-76" transform="translate(445.415039 0.015625)"/>
     <use xlink:href="#DejaVuSans-61" transform="translate(504.594727 0.015625)"/>
     <use xlink:href="#DejaVuSans-6c" transform="translate(565.874023 0.015625)"/>
     <use xlink:href="#DejaVuSans-65" transform="translate(593.657227 0.015625)"/>
     <use xlink:href="#DejaVuSans-6e" transform="translate(655.180664 0.015625)"/>
     <use xlink:href="#DejaVuSans-74" transform="translate(718.55957 0.015625)"/>
     <use xlink:href="#DejaVuSans-20" transform="translate(757.768555 0.015625)"/>
     <use xlink:href="#DejaVuSans-28" transform="translate(789.555664 0.015625)"/>
     <use xlink:href="#DejaVuSans-6b" transform="translate(828.569336 0.015625)"/>
     <use xlink:href="#DejaVuSans-67" transform="translate(886.479492 0.015625)"/>
     <use xlink:href="#DejaVuSans-29" transform="translate(949.956055 0.015625)"/>
     <use xlink:href="#DejaVuSans-20" transform="translate(988.969727 0.015625)"/>
     <use xlink:href="#DejaVuSans-62" transform="translate(1020.756836 0.015625)"/>
     <use xlink:href="#DejaVuSans-79" transform="translate(1084.233398 0.015625)"/>
     <use xlink:href="#DejaVuSans-20" transform="translate(1143.413086 0.015625)"/>
     <use xlink:href="#DejaVuSans-63" transform="translate(1175.200195 0.015625)"/>
     <use xlink:href="#DejaVuSans-6f" transform="translate(1230.180664 0.015625)"/>
     <use xlink:href="#DejaVuSans-75" transform="translate(1291.362305 0.015625)"/>
     <use xlink:href="#DejaVuSans-6e" transform="translate(1354.741211 0.015625)"/>
     <use xlink:href="#DejaVuSans-74" transform="translate(1418.120117 0.015625)"/>
     <use xlink:href="#DejaVuSans-72" transform="translate(1457.329102 0.015625)"/>
     <use xlink:href="#DejaVuSans-79" transform="translate(1498.442383 0.015625)"/>
     <use xlink:href="#DejaVuSans-20" transform="translate(1557.62207 0.015625)"/>
     <use xlink:href="#DejaVuSans-66" transform="translate(1589.40918 0.015625)"/>
     <use xlink:href="#DejaVuSans-6f" transform="translate(1624.614258 0.015625)"/>
     <use xlink:href="#DejaVuSans-72" transform="translate(1685.795898 0.015625)"/>
     <use xlink:href="#DejaVuSans-20" transform="translate(1726.90918 0.015625)"/>
     <use xlink:href="#DejaVuSans-49" transform="translate(1758.696289 0.015625)"/>
     <use xlink:href="#DejaVuSans-43" transform="translate(1788.188477 0.015625)"/>
     <use xlink:href="#DejaVuSans-41" transform="translate(1858.012695 0.015625)"/>
     <use xlink:href="#DejaVuSans-4e" transform="translate(1926.420898 0.015625)"/>
     <use xlink:href="#DejaVuSans-4e" transform="translate(2001.225586 0.015625)"/>
     <use xlink:href="#DejaVuSans-37" transform="translate(2076.030273 0.015625)"/>
     <use xlink:href="#DejaVuSans-34" transform="translate(2139.65332 0.015625)"/>
     <use xlink:href="#DejaVuSans-20" transform="translate(2203.276367 0.015625)"/>
     <use xlink:href="#DejaVuSans-28" transform="translate(2235.063477 0.015625)"/>
     <use xlink:href="#DejaVuSans-39" transform="translate(2274.077148 0.015625)"/>
     <use xlink:href="#DejaVuSans-31" transform="translate(2337.700195 0.015625)"/>
     <use xlink:href="#DejaVuSans-37" transform="translate(2401.323242 0.015625)"/>
     <use xlink:href="#DejaVuSans-20" transform="translate(2464.946289 0.015625)"/>
     <use xlink:href="#DejaVuSans-70" transform="translate(2496.733398 0.015625)"/>
     <use xlink:href="#DejaVuSans-61" transform="translate(2560.209961 0.015625)"/>
     <use xlink:href="#DejaVuSans-72" transform="translate(2621.489258 0.015625)"/>
     <use xlink:href="#DejaVuSans-74" transform="translate(2662.602539 0.015625)"/>
     <use xlink:href="#DejaVuSans-69" transform="translate(2701.811523 0.015625)"/>
     <use xlink:href="#DejaVuSans-63" transform="translate(2729.594727 0.015625)"/>
     <use xlink:href="#DejaVuSans-69" transform="translate(2784.575195 0.015625)"/>
     <use xlink:href="#DejaVuSans-70" transform="translate(2812.358398 0.015625)"/>
     <use xlink:href="#DejaVuSans-61" transform="translate(2875.834961 0.015625)"/>
     <use xlink:href="#DejaVuSans-6e" transform="translate(2937.114258 0.015625)"/>
     <use xlink:href="#DejaVuSans-74" transform="translate(3000.493164 0.015625)"/>
     <use xlink:href="#DejaVuSans-73" transform="translate(3039.702148 0.015625)"/>
     <use xlink:href="#DejaVuSans-29" transform="translate(3091.801758 0.015625)"/>
    </g>
   </g>
   <g id="legend_1">
    <g id="patch_199">
     <path d="M 1642.985625 258.5564 
L 1708.58875 258.5564 
Q 1710.58875 258.5564 1710.58875 256.5564 
L 1710.58875 22.7064 
Q 1710.58875 20.7064 1708.58875 20.7064 
L 1642.985625 20.7064 
Q 1640.985625 20.7064 1640.985625 22.7064 
L 1640.985625 256.5564 
Q 1640.985625 258.5564 1642.985625 258.5564 
z
" style="fill: #ffffff; opacity: 0.8; stroke: #cccccc; stroke-linejoin: miter"/>
    </g>
    <g id="patch_200">
     <path d="M 1644.985625 32.304837 
L 1664.985625 32.304837 
L 1664.985625 25.304837 
L 1644.985625 25.304837 
z
" style="fill: #1f77b4"/>
    </g>
    <g id="text_25">
     <!-- US -->
     <g transform="translate(1672.985625 32.304837) scale(0.1 -0.1)">
      <defs>
       <path id="DejaVuSans-55" d="M 556 4666 
L 1191 4666 
L 1191 1831 
Q 1191 1081 1462 751 
Q 1734 422 2344 422 
Q 2950 422 3222 751 
Q 3494 1081 3494 1831 
L 3494 4666 
L 4128 4666 
L 4128 1753 
Q 4128 841 3676 375 
Q 3225 -91 2344 -91 
Q 1459 -91 1007 375 
Q 556 841 556 1753 
L 556 4666 
z
" transform="scale(0.015625)"/>
       <path id="DejaVuSans-53" d="M 3425 4513 
L 3425 3897 
Q 3066 4069 2747 4153 
Q 2428 4238 2131 4238 
Q 1616 4238 1336 4038 
Q 1056 3838 1056 3469 
Q 1056 3159 1242 3001 
Q 1428 2844 1947 2747 
L 2328 2669 
Q 3034 2534 3370 2195 
Q 3706 1856 3706 1288 
Q 3706 609 3251 259 
Q 2797 -91 1919 -91 
Q 1588 -91 1214 -16 
Q 841 59 441 206 
L 441 856 
Q 825 641 1194 531 
Q 1563 422 1919 422 
Q 2459 422 2753 634 
Q 3047 847 3047 1241 
Q 3047 1584 2836 1778 
Q 2625 1972 2144 2069 
L 1759 2144 
Q 1053 2284 737 2584 
Q 422 2884 422 3419 
Q 422 4038 858 4394 
Q 1294 4750 2059 4750 
Q 2388 4750 2728 4690 
Q 3069 4631 3425 4513 
z
" transform="scale(0.015625)"/>
      </defs>
      <use xlink:href="#DejaVuSans-55"/>
      <use xlink:href="#DejaVuSans-53" x="73.193359"/>
     </g>
    </g>
    <g id="patch_201">
     <path d="M 1644.985625 46.982962 
L 1664.985625 46.982962 
L 1664.985625 39.982962 
L 1644.985625 39.982962 
z
" style="fill: #ff7f0e"/>
    </g>
    <g id="text_26">
     <!-- BR -->
     <g transform="translate(1672.985625 46.982962) scale(0.1 -0.1)">
      <defs>
       <path id="DejaVuSans-42" d="M 1259 2228 
L 1259 519 
L 2272 519 
Q 2781 519 3026 730 
Q 3272 941 3272 1375 
Q 3272 1813 3026 2020 
Q 2781 2228 2272 2228 
L 1259 2228 
z
M 1259 4147 
L 1259 2741 
L 2194 2741 
Q 2656 2741 2882 2914 
Q 3109 3088 3109 3444 
Q 3109 3797 2882 3972 
Q 2656 4147 2194 4147 
L 1259 4147 
z
M 628 4666 
L 2241 4666 
Q 2963 4666 3353 4366 
Q 3744 4066 3744 3513 
Q 3744 3084 3544 2831 
Q 3344 2578 2956 2516 
Q 3422 2416 3680 2098 
Q 3938 1781 3938 1306 
Q 3938 681 3513 340 
Q 3088 0 2303 0 
L 628 0 
L 628 4666 
z
" transform="scale(0.015625)"/>
       <path id="DejaVuSans-52" d="M 2841 2188 
Q 3044 2119 3236 1894 
Q 3428 1669 3622 1275 
L 4263 0 
L 3584 0 
L 2988 1197 
Q 2756 1666 2539 1819 
Q 2322 1972 1947 1972 
L 1259 1972 
L 1259 0 
L 628 0 
L 628 4666 
L 2053 4666 
Q 2853 4666 3247 4331 
Q 3641 3997 3641 3322 
Q 3641 2881 3436 2590 
Q 3231 2300 2841 2188 
z
M 1259 4147 
L 1259 2491 
L 2053 2491 
Q 2509 2491 2742 2702 
Q 2975 2913 2975 3322 
Q 2975 3731 2742 3939 
Q 2509 4147 2053 4147 
L 1259 4147 
z
" transform="scale(0.015625)"/>
      </defs>
      <use xlink:href="#DejaVuSans-42"/>
      <use xlink:href="#DejaVuSans-52" x="68.603516"/>
     </g>
    </g>
    <g id="patch_202">
     <path d="M 1644.985625 61.661087 
L 1664.985625 61.661087 
L 1664.985625 54.661087 
L 1644.985625 54.661087 
z
" style="fill: #2ca02c"/>
    </g>
    <g id="text_27">
     <!-- GH -->
     <g transform="translate(1672.985625 61.661087) scale(0.1 -0.1)">
      <defs>
       <path id="DejaVuSans-47" d="M 3809 666 
L 3809 1919 
L 2778 1919 
L 2778 2438 
L 4434 2438 
L 4434 434 
Q 4069 175 3628 42 
Q 3188 -91 2688 -91 
Q 1594 -91 976 548 
Q 359 1188 359 2328 
Q 359 3472 976 4111 
Q 1594 4750 2688 4750 
Q 3144 4750 3555 4637 
Q 3966 4525 4313 4306 
L 4313 3634 
Q 3963 3931 3569 4081 
Q 3175 4231 2741 4231 
Q 1884 4231 1454 3753 
Q 1025 3275 1025 2328 
Q 1025 1384 1454 906 
Q 1884 428 2741 428 
Q 3075 428 3337 486 
Q 3600 544 3809 666 
z
" transform="scale(0.015625)"/>
       <path id="DejaVuSans-48" d="M 628 4666 
L 1259 4666 
L 1259 2753 
L 3553 2753 
L 3553 4666 
L 4184 4666 
L 4184 0 
L 3553 0 
L 3553 2222 
L 1259 2222 
L 1259 0 
L 628 0 
L 628 4666 
z
" transform="scale(0.015625)"/>
      </defs>
      <use xlink:href="#DejaVuSans-47"/>
      <use xlink:href="#DejaVuSans-48" x="77.490234"/>
     </g>
    </g>
    <g id="patch_203">
     <path d="M 1644.985625 76.339212 
L 1664.985625 76.339212 
L 1664.985625 69.339212 
L 1644.985625 69.339212 
z
" style="fill: #d62728"/>
    </g>
    <g id="text_28">
     <!-- NG -->
     <g transform="translate(1672.985625 76.339212) scale(0.1 -0.1)">
      <use xlink:href="#DejaVuSans-4e"/>
      <use xlink:href="#DejaVuSans-47" x="74.804688"/>
     </g>
    </g>
    <g id="patch_204">
     <path d="M 1644.985625 91.017337 
L 1664.985625 91.017337 
L 1664.985625 84.017337 
L 1644.985625 84.017337 
z
" style="fill: #9467bd"/>
    </g>
    <g id="text_29">
     <!-- ID -->
     <g transform="translate(1672.985625 91.017337) scale(0.1 -0.1)">
      <defs>
       <path id="DejaVuSans-44" d="M 1259 4147 
L 1259 519 
L 2022 519 
Q 2988 519 3436 956 
Q 3884 1394 3884 2338 
Q 3884 3275 3436 3711 
Q 2988 4147 2022 4147 
L 1259 4147 
z
M 628 4666 
L 1925 4666 
Q 3281 4666 3915 4102 
Q 4550 3538 4550 2338 
Q 4550 1131 3912 565 
Q 3275 0 1925 0 
L 628 0 
L 628 4666 
z
" transform="scale(0.015625)"/>
      </defs>
      <use xlink:href="#DejaVuSans-49"/>
      <use xlink:href="#DejaVuSans-44" x="29.492188"/>
     </g>
    </g>
    <g id="patch_205">
     <path d="M 1644.985625 105.695462 
L 1664.985625 105.695462 
L 1664.985625 98.695462 
L 1644.985625 98.695462 
z
" style="fill: #8c564b"/>
    </g>
    <g id="text_30">
     <!-- PK -->
     <g transform="translate(1672.985625 105.695462) scale(0.1 -0.1)">
      <defs>
       <path id="DejaVuSans-50" d="M 1259 4147 
L 1259 2394 
L 2053 2394 
Q 2494 2394 2734 2622 
Q 2975 2850 2975 3272 
Q 2975 3691 2734 3919 
Q 2494 4147 2053 4147 
L 1259 4147 
z
M 628 4666 
L 2053 4666 
Q 2838 4666 3239 4311 
Q 3641 3956 3641 3272 
Q 3641 2581 3239 2228 
Q 2838 1875 2053 1875 
L 1259 1875 
L 1259 0 
L 628 0 
L 628 4666 
z
" transform="scale(0.015625)"/>
       <path id="DejaVuSans-4b" d="M 628 4666 
L 1259 4666 
L 1259 2694 
L 3353 4666 
L 4166 4666 
L 1850 2491 
L 4331 0 
L 3500 0 
L 1259 2247 
L 1259 0 
L 628 0 
L 628 4666 
z
" transform="scale(0.015625)"/>
      </defs>
      <use xlink:href="#DejaVuSans-50"/>
      <use xlink:href="#DejaVuSans-4b" x="60.302734"/>
     </g>
    </g>
    <g id="patch_206">
     <path d="M 1644.985625 120.373587 
L 1664.985625 120.373587 
L 1664.985625 113.373587 
L 1644.985625 113.373587 
z
" style="fill: #e377c2"/>
    </g>
    <g id="text_31">
     <!-- CA -->
     <g transform="translate(1672.985625 120.373587) scale(0.1 -0.1)">
      <use xlink:href="#DejaVuSans-43"/>
      <use xlink:href="#DejaVuSans-41" x="69.824219"/>
     </g>
    </g>
    <g id="patch_207">
     <path d="M 1644.985625 135.051712 
L 1664.985625 135.051712 
L 1664.985625 128.051712 
L 1644.985625 128.051712 
z
" style="fill: #7f7f7f"/>
    </g>
    <g id="text_32">
     <!-- TD -->
     <g transform="translate(1672.985625 135.051712) scale(0.1 -0.1)">
      <defs>
       <path id="DejaVuSans-54" d="M -19 4666 
L 3928 4666 
L 3928 4134 
L 2272 4134 
L 2272 0 
L 1638 0 
L 1638 4134 
L -19 4134 
L -19 4666 
z
" transform="scale(0.015625)"/>
      </defs>
      <use xlink:href="#DejaVuSans-54"/>
      <use xlink:href="#DejaVuSans-44" x="61.083984"/>
     </g>
    </g>
    <g id="patch_208">
     <path d="M 1644.985625 149.729837 
L 1664.985625 149.729837 
L 1664.985625 142.729837 
L 1644.985625 142.729837 
z
" style="fill: #bcbd22"/>
    </g>
    <g id="text_33">
     <!-- IN -->
     <g transform="translate(1672.985625 149.729837) scale(0.1 -0.1)">
      <use xlink:href="#DejaVuSans-49"/>
      <use xlink:href="#DejaVuSans-4e" x="29.492188"/>
     </g>
    </g>
    <g id="patch_209">
     <path d="M 1644.985625 164.407962 
L 1664.985625 164.407962 
L 1664.985625 157.407962 
L 1644.985625 157.407962 
z
" style="fill: #17becf"/>
    </g>
    <g id="text_34">
     <!-- CG -->
     <g transform="translate(1672.985625 164.407962) scale(0.1 -0.1)">
      <use xlink:href="#DejaVuSans-43"/>
      <use xlink:href="#DejaVuSans-47" x="69.824219"/>
     </g>
    </g>
    <g id="patch_210">
     <path d="M 1644.985625 179.086087 
L 1664.985625 179.086087 
L 1664.985625 172.086087 
L 1644.985625 172.086087 
z
" style="fill: #1f77b4"/>
    </g>
    <g id="text_35">
     <!-- AU -->
     <g transform="translate(1672.985625 179.086087) scale(0.1 -0.1)">
      <use xlink:href="#DejaVuSans-41"/>
      <use xlink:href="#DejaVuSans-55" x="68.408203"/>
     </g>
    </g>
    <g id="patch_211">
     <path d="M 1644.985625 193.764212 
L 1664.985625 193.764212 
L 1664.985625 186.764212 
L 1644.985625 186.764212 
z
" style="fill: #ff7f0e"/>
    </g>
    <g id="text_36">
     <!-- ZA -->
     <g transform="translate(1672.985625 193.764212) scale(0.1 -0.1)">
      <defs>
       <path id="DejaVuSans-5a" d="M 359 4666 
L 4025 4666 
L 4025 4184 
L 1075 531 
L 4097 531 
L 4097 0 
L 288 0 
L 288 481 
L 3238 4134 
L 359 4134 
L 359 4666 
z
" transform="scale(0.015625)"/>
      </defs>
      <use xlink:href="#DejaVuSans-5a"/>
      <use xlink:href="#DejaVuSans-41" x="68.505859"/>
     </g>
    </g>
    <g id="patch_212">
     <path d="M 1644.985625 208.442337 
L 1664.985625 208.442337 
L 1664.985625 201.442337 
L 1644.985625 201.442337 
z
" style="fill: #2ca02c"/>
    </g>
    <g id="text_37">
     <!-- TW -->
     <g transform="translate(1672.985625 208.442337) scale(0.1 -0.1)">
      <defs>
       <path id="DejaVuSans-57" d="M 213 4666 
L 850 4666 
L 1831 722 
L 2809 4666 
L 3519 4666 
L 4500 722 
L 5478 4666 
L 6119 4666 
L 4947 0 
L 4153 0 
L 3169 4050 
L 2175 0 
L 1381 0 
L 213 4666 
z
" transform="scale(0.015625)"/>
      </defs>
      <use xlink:href="#DejaVuSans-54"/>
      <use xlink:href="#DejaVuSans-57" x="61.083984"/>
     </g>
    </g>
    <g id="patch_213">
     <path d="M 1644.985625 223.120462 
L 1664.985625 223.120462 
L 1664.985625 216.120462 
L 1644.985625 216.120462 
z
" style="fill: #d62728"/>
    </g>
    <g id="text_38">
     <!-- NZ -->
     <g transform="translate(1672.985625 223.120462) scale(0.1 -0.1)">
      <use xlink:href="#DejaVuSans-4e"/>
      <use xlink:href="#DejaVuSans-5a" x="74.804688"/>
     </g>
    </g>
    <g id="patch_214">
     <path d="M 1644.985625 237.798587 
L 1664.985625 237.798587 
L 1664.985625 230.798587 
L 1644.985625 230.798587 
z
" style="fill: #9467bd"/>
    </g>
    <g id="text_39">
     <!-- BD -->
     <g transform="translate(1672.985625 237.798587) scale(0.1 -0.1)">
      <use xlink:href="#DejaVuSans-42"/>
      <use xlink:href="#DejaVuSans-44" x="68.603516"/>
     </g>
    </g>
    <g id="patch_215">
     <path d="M 1644.985625 252.476712 
L 1664.985625 252.476712 
L 1664.985625 245.476712 
L 1644.985625 245.476712 
z
" style="fill: #8c564b"/>
    </g>
    <g id="text_40">
     <!-- Others -->
     <g transform="translate(1672.985625 252.476712) scale(0.1 -0.1)">
      <use xlink:href="#DejaVuSans-4f"/>
      <use xlink:href="#DejaVuSans-74" x="78.710938"/>
      <use xlink:href="#DejaVuSans-68" x="117.919922"/>
      <use xlink:href="#DejaVuSans-65" x="181.298828"/>
      <use xlink:href="#DejaVuSans-72" x="242.822266"/>
      <use xlink:href="#DejaVuSans-73" x="283.935547"/>
     </g>
    </g>
   </g>
  </g>
 </g>
 <defs>
  <clipPath id="p6e19cf1194">
   <rect x="50.165625" y="36.32" width="1585.82" height="206.136"/>
  </clipPath>
 </defs>
</svg>
